M48
; DRILL file KiCad 10.0.6-10.0.6~ubuntu24.04.1 date 2026-09-26T02:22:10
; FORMAT={-:-/ absolute / metric / decimal}
; #@! TF.CreationDate,2026-09-26T02:22:10+00:00
; #@! TF.GenerationSoftware,Kicad,Pcbnew,10.0.6-10.0.6~ubuntu24.04.1
; #@! TF.FileFunction,Plated,1,2,PTH
FMAT,2
METRIC
; #@! TA.AperFunction,Plated,PTH,ViaDrill
T1C0.300
; #@! TA.AperFunction,Plated,PTH,ComponentDrill
T2C0.600
; #@! TA.AperFunction,Plated,PTH,ComponentDrill
T3C1.020
%
G90
G05
T1
X2.575Y-14.161
X3.036Y-46.855
X3.726Y-28.751
X3.817Y-32.23
X3.859Y-49.414
X4.021Y-9.475
X4.07Y-17.238
X4.137Y-44.77
X4.382Y-4.42
X4.478Y-8.58
X4.543Y-36.057
X4.773Y-48.468
X4.885Y-52.013
X5.367Y-27.258
X5.488Y-50.331
X5.654Y-2.659
X6.11Y-8.301
X6.11Y-19.477
X6.156Y-48.944
X7.05Y-21.375
X7.668Y-4.055
X7.738Y-25.738
X7.74Y-28.121
X8.026Y-33.441
X8.377Y-28.793
X8.733Y-25.235
X9.005Y-30.6
X9.475Y-31.3
X9.73Y-32.118
X9.975Y-26.237
X10.093Y-5.365
X10.141Y-1.822
X11.215Y-49.457
X11.513Y-50.211
X11.58Y-47.646
X12.03Y-44.027
X12.11Y-52.065
X12.964Y-21.548
X12.99Y-52.098
X13.292Y-29.272
X13.38Y-7.107
X13.525Y-1.2
X14.088Y-39.155
X14.088Y-45.175
X14.151Y-34.936
X14.455Y-36.564
X14.802Y-30.486
X14.961Y-37.095
X15.25Y-27.425
X15.631Y-25.179
X15.92Y-5.927
X17.455Y-25.477
X17.621Y-32.908
X17.637Y-31.05
X17.641Y-7.961
X18.181Y-44.864
X18.35Y-34.762
X18.598Y-21.97
X18.598Y-26.385
X19.35Y-26.47
X19.83Y-47.467
X20.35Y-37.187
X21.032Y-41.78
X21.139Y-49.505
X21.35Y-37.133
X21.864Y-37.651
X21.945Y-38.602
X22.529Y-34.009
X22.533Y-29.429
X22.563Y-44.393
X22.659Y-37.335
X22.892Y-30.105
X23.214Y-44.772
X23.588Y-30.439
X23.591Y-34.06
X24.125Y-25.523
X24.125Y-27.933
X24.352Y-42.536
X24.663Y-28.454
X24.887Y-49.387
X25.144Y-38.547
X25.616Y-35.302
X26.551Y-31.938
X26.728Y-37.39
X26.79Y-45.66
X26.958Y-48.796
X27.322Y-41.846
X27.445Y-9.0
X27.453Y-35.506
X27.574Y-31.847
X28.522Y-24.822
X29.024Y-26.151
X29.106Y-27.916
X29.712Y-32.397
X29.847Y-30.904
X30.712Y-33.53
X31.259Y-27.229
X32.254Y-21.97
X32.489Y-31.125
X32.547Y-28.35
X32.898Y-1.38
X33.081Y-8.189
X33.9Y-5.184
X33.9Y-10.341
X34.197Y-23.364
X34.407Y-12.475
X34.45Y-22.525
X34.536Y-7.564
X35.198Y-1.68
X35.441Y-35.237
X35.558Y-5.505
X35.558Y-10.317
X36.226Y-25.85
X36.769Y-27.325
X37.136Y-33.465
X37.136Y-38.773
X37.227Y-28.586
X37.553Y-41.389
X38.076Y-34.824
X38.242Y-49.553
X38.575Y-50.276
X39.251Y-20.647
X39.75Y-44.575
X39.857Y-37.677
X39.998Y-13.28
X40.1Y-39.65
X40.265Y-49.415
X40.65Y-40.539
X41.153Y-47.056
X41.187Y-38.332
T3
X13.38Y-4.3
X15.92Y-4.3
X18.46Y-4.3
X21.0Y-4.3
X23.54Y-4.3
X26.08Y-4.3
X28.62Y-4.3
T2
G00X36.345Y-22.28
M15
G01X35.245Y-22.28
M16
G05
G00X36.345Y-30.92
M15
G01X35.245Y-30.92
M16
G05
G00X40.375Y-22.28
M15
G01X39.575Y-22.28
M16
G05
G00X40.375Y-30.92
M15
G01X39.575Y-30.92
M16
G05
M30
