M48
; DRILL file KiCad 10.0.6-10.0.6~ubuntu24.04.1 date 2026-09-25T20:21:55
; FORMAT={-:-/ absolute / metric / decimal}
; #@! TF.CreationDate,2026-09-25T20:21:55+00:00
; #@! TF.GenerationSoftware,Kicad,Pcbnew,10.0.6-10.0.6~ubuntu24.04.1
; #@! TF.FileFunction,Plated,1,2,PTH
FMAT,2
METRIC
; #@! TA.AperFunction,Plated,PTH,ViaDrill
T1C0.300
; #@! TA.AperFunction,Plated,PTH,ComponentDrill
T2C0.600
; #@! TA.AperFunction,Plated,PTH,ComponentDrill
T3C1.020
%
G90
G05
T1
X2.218Y-49.203
X2.87Y-13.204
X3.054Y-10.383
X3.726Y-30.449
X3.817Y-32.23
X3.883Y-28.742
X3.954Y-10.565
X3.992Y-48.468
X5.654Y-2.659
X5.661Y-50.738
X6.889Y-8.63
X7.05Y-21.375
X7.662Y-4.05
X7.731Y-33.185
X8.524Y-28.306
X9.175Y-30.793
X9.28Y-50.877
X9.711Y-26.114
X9.711Y-38.129
X10.094Y-5.366
X10.143Y-1.824
X11.95Y-43.625
X12.556Y-49.969
X13.38Y-8.249
X13.38Y-21.246
X13.422Y-32.835
X13.525Y-1.2
X13.694Y-24.896
X13.971Y-53.137
X14.2Y-26.525
X14.215Y-32.61
X14.215Y-43.991
X14.569Y-46.906
X14.598Y-51.16
X14.931Y-40.893
X15.188Y-28.689
X15.188Y-30.563
X15.322Y-24.854
X15.451Y-51.0
X15.488Y-44.922
X15.7Y-49.065
X15.7Y-49.8
X16.303Y-37.138
X16.775Y-42.836
X17.178Y-51.822
X17.637Y-31.05
X18.181Y-44.864
X18.612Y-23.929
X18.864Y-50.901
X18.875Y-34.646
X18.942Y-40.695
X19.133Y-28.81
X19.357Y-25.727
X19.829Y-47.468
X19.943Y-49.505
X20.204Y-11.083
X20.204Y-26.265
X20.347Y-28.806
X20.601Y-37.193
X21.08Y-50.322
X21.291Y-10.62
X21.34Y-37.134
X21.518Y-29.864
X22.025Y-38.2
X22.069Y-37.135
X22.499Y-44.763
X22.52Y-33.55
X22.85Y-26.438
X23.123Y-34.78
X23.591Y-30.55
X23.994Y-37.52
X24.622Y-43.57
X24.812Y-28.456
X25.388Y-35.225
X25.707Y-45.104
X26.08Y-29.466
X26.332Y-33.05
X26.389Y-31.571
X26.425Y-41.2
X26.79Y-47.64
X26.903Y-37.233
X27.32Y-41.836
X27.35Y-2.075
X27.35Y-8.6
X27.56Y-50.804
X27.673Y-35.57
X28.113Y-49.975
X29.024Y-29.449
X29.098Y-25.831
X29.225Y-27.0
X29.703Y-32.936
X30.958Y-32.772
X31.259Y-27.229
X31.447Y-46.642
X32.898Y-1.38
X33.069Y-7.856
X34.183Y-28.497
X34.432Y-5.181
X34.432Y-10.332
X34.45Y-22.525
X34.519Y-3.547
X35.171Y-33.673
X35.198Y-1.68
X35.911Y-11.679
X35.911Y-21.253
X36.007Y-10.348
X36.234Y-25.85
X36.242Y-27.202
X37.013Y-33.462
X37.013Y-39.402
X37.777Y-48.78
X38.498Y-38.68
X38.581Y-42.49
X38.597Y-25.661
X38.65Y-44.581
X39.113Y-20.435
X39.113Y-46.551
X39.722Y-34.624
X39.998Y-13.28
X40.647Y-38.454
X40.789Y-40.543
T3
X13.38Y-4.3
X15.92Y-4.3
X18.46Y-4.3
X21.0Y-4.3
X23.54Y-4.3
X26.08Y-4.3
X28.62Y-4.3
T2
G00X36.345Y-22.28
M15
G01X35.245Y-22.28
M16
G05
G00X36.345Y-30.92
M15
G01X35.245Y-30.92
M16
G05
G00X40.375Y-22.28
M15
G01X39.575Y-22.28
M16
G05
G00X40.375Y-30.92
M15
G01X39.575Y-30.92
M16
G05
M30
