%TF.GenerationSoftware,KiCad,Pcbnew,10.0.6-10.0.6~ubuntu24.04.1*%
%TF.CreationDate,2026-09-25T11:34:31+00:00*%
%TF.ProjectId,click-counter-Q5,636c6963-6b2d-4636-9f75-6e7465722d51,rev?*%
%TF.SameCoordinates,Original*%
%TF.FileFunction,Copper,L1,Top*%
%TF.FilePolarity,Positive*%
%FSLAX46Y46*%
G04 Gerber Fmt 4.6, Leading zero omitted, Abs format (unit mm)*
G04 Created by KiCad (PCBNEW 10.0.6-10.0.6~ubuntu24.04.1) date 2026-09-25 11:34:31*
%MOMM*%
%LPD*%
G01*
G04 APERTURE LIST*
%TA.AperFunction,ComponentPad*%
%ADD10C,2.200000*%
%TD*%
%TA.AperFunction,ComponentPad*%
%ADD11R,1.800000X1.800000*%
%TD*%
%TA.AperFunction,ComponentPad*%
%ADD12C,1.800000*%
%TD*%
%TA.AperFunction,ComponentPad*%
%ADD13O,1.800000X1.000000*%
%TD*%
%TA.AperFunction,ComponentPad*%
%ADD14O,2.100000X1.000000*%
%TD*%
%TA.AperFunction,ViaPad*%
%ADD15C,0.600000*%
%TD*%
%TA.AperFunction,Conductor*%
%ADD16C,0.150000*%
%TD*%
%TA.AperFunction,Conductor*%
%ADD17C,0.300000*%
%TD*%
G04 APERTURE END LIST*
D10*
%TO.P,SW1,1,1_1*%
%TO.N,PWR_KEY*%
X14015000Y-35720000D03*
%TO.P,SW1,2,2_2*%
%TO.N,SYS*%
X7665000Y-38260000D03*
%TD*%
%TO.P,SW2,1,1_1*%
%TO.N,BOOT_COUNT_RESET*%
X33065000Y-35720000D03*
%TO.P,SW2,2,2_2*%
%TO.N,VLOGIC*%
X26715000Y-38260000D03*
%TD*%
D11*
%TO.P,DS1,1,GND_1*%
%TO.N,GND*%
X13380000Y-4300000D03*
D12*
%TO.P,DS1,2,VCC_2*%
%TO.N,OLED_SUPPLY*%
X15920000Y-4300000D03*
%TO.P,DS1,3,SCL/SCK_3*%
%TO.N,OLED_SCK*%
X18460000Y-4300000D03*
%TO.P,DS1,4,SDA/MOSI_4*%
%TO.N,OLED_MOSI*%
X21000000Y-4300000D03*
%TO.P,DS1,5,RES#_5*%
%TO.N,OLED_RESET_N*%
X23540000Y-4300000D03*
%TO.P,DS1,6,D/C#_6*%
%TO.N,OLED_DC*%
X26080000Y-4300000D03*
%TO.P,DS1,7,CS#_7*%
%TO.N,OLED_CS_N*%
X28620000Y-4300000D03*
%TD*%
D13*
%TO.P,J1,SH,SHIELD_SH*%
%TO.N,GND*%
X39975000Y-22680000D03*
D14*
X35795000Y-22680000D03*
D13*
X39975000Y-31320000D03*
D14*
X35795000Y-31320000D03*
%TD*%
D15*
%TO.N,PWR_KEY*%
X7695800Y-28794400D03*
%TO.N,SYS*%
X33400000Y-11300000D03*
X39842200Y-34910000D03*
X37400000Y-32500000D03*
X32536000Y-5188100D03*
X28042600Y-42903200D03*
%TO.N,BOOT_COUNT_RESET*%
X27422500Y-30402000D03*
X35483200Y-50820100D03*
%TO.N,VLOGIC*%
X25726000Y-8836500D03*
X25893000Y-51107000D03*
X25743900Y-27022600D03*
X18953000Y-39106200D03*
%TO.N,GND*%
X18350000Y-34762000D03*
X14200000Y-26525000D03*
X39998000Y-13280000D03*
X32619900Y-28477800D03*
X5654000Y-2659000D03*
X28175000Y-29650000D03*
X39225000Y-13075000D03*
X7050000Y-21375000D03*
X18181000Y-44864000D03*
X15327500Y-27425000D03*
X20573000Y-37230000D03*
X22850000Y-26438000D03*
X17637000Y-31050000D03*
X9225000Y-7748000D03*
X37571000Y-35059000D03*
X31259000Y-33746000D03*
X29225000Y-27000000D03*
X14775900Y-31199100D03*
X35198000Y-1680000D03*
X5367000Y-28742000D03*
X34450000Y-22525000D03*
X31250000Y-34625000D03*
X24973000Y-40230000D03*
X3726000Y-28751000D03*
X13525000Y-1200000D03*
X32898000Y-1380000D03*
X5424000Y-32051000D03*
X13225000Y-33800000D03*
X37349000Y-39314000D03*
X28477000Y-33630000D03*
X38550000Y-45800000D03*
X18177000Y-37230000D03*
X9175000Y-31300000D03*
X12625000Y-44400000D03*
X36100000Y-39650000D03*
X33264000Y-7564000D03*
%TO.N,OLED_SCK*%
X21001600Y-29550000D03*
%TO.N,OLED_MOSI*%
X21569600Y-30550000D03*
%TO.N,OLED_RESET_N*%
X23540000Y-24880300D03*
%TO.N,OLED_DC*%
X25935100Y-29963900D03*
%TO.N,OLED_CS_N*%
X25207800Y-28446900D03*
%TO.N,COUNT_N*%
X5838900Y-31300000D03*
X8482700Y-28000000D03*
%TO.N,VLOGIC_FB*%
X39895500Y-46225000D03*
X36088300Y-40600000D03*
X40035900Y-40653300D03*
%TO.N,SYS_LOAD*%
X34423100Y-32709800D03*
X39240300Y-36291400D03*
X39240300Y-41250000D03*
%TO.N,CC2*%
X32058500Y-23853200D03*
X34320700Y-30760500D03*
%TO.N,VBUS*%
X31214100Y-27250300D03*
X36134000Y-36280100D03*
X30684300Y-31524600D03*
X36592400Y-6200100D03*
X37902200Y-19600000D03*
X36856600Y-11063600D03*
X29289100Y-36061600D03*
%TO.N,SWDIO*%
X24886100Y-49386100D03*
X24085900Y-35227900D03*
%TO.N,USB_DP*%
X36233900Y-27896400D03*
X28898200Y-30461200D03*
%TO.N,USB_DM*%
X29342800Y-31403700D03*
X33391000Y-28555300D03*
%TO.N,FRAM_CS_N*%
X21007600Y-40646400D03*
X19825900Y-48737800D03*
%TO.N,FRAM_MISO*%
X20392900Y-48235000D03*
X21851700Y-37129500D03*
%TO.N,VFRAM*%
X21450800Y-45189400D03*
X21463100Y-39645500D03*
%TO.N,FRAM_MOSI*%
X22907000Y-44816500D03*
X22907000Y-34789000D03*
%TO.N,FRAM_SCK*%
X22374800Y-37639300D03*
X22172100Y-46197800D03*
%TO.N,TEMP_COLD_OK*%
X15405500Y-52981100D03*
X12876300Y-47028400D03*
%TO.N,TEMP_SENSE*%
X8927200Y-46733900D03*
X13696500Y-24892300D03*
%TO.N,TEMP_COLD*%
X5694200Y-48575000D03*
X12819600Y-49203400D03*
%TO.N,TEMP_HOT_OK*%
X9130400Y-48052300D03*
X9941800Y-51049200D03*
%TO.N,SYS_ON*%
X3351000Y-37549000D03*
X38681000Y-39146900D03*
X7731000Y-27916000D03*
X37428500Y-37800000D03*
%TO.N,CELL_N_RAW*%
X1797200Y-14196300D03*
X3952100Y-9316200D03*
%TO.N,CE_N*%
X16515300Y-11853200D03*
X9154500Y-51999900D03*
%TO.N,COUT*%
X6111000Y-18633600D03*
X6111000Y-8301900D03*
%TO.N,DOUT*%
X4470300Y-8587400D03*
X4068500Y-17237500D03*
%TO.N,NRST*%
X14208900Y-41005200D03*
X27377800Y-47979800D03*
X15255600Y-31769700D03*
X27377800Y-44022500D03*
%TO.N,CHG_STAT1*%
X36423900Y-10359800D03*
X22220200Y-23466500D03*
%TO.N,CHG_STAT2*%
X22904400Y-12105800D03*
X22904400Y-24256700D03*
%TO.N,SWCLK*%
X24354300Y-35962500D03*
X25977700Y-49479900D03*
%TO.N,OLED_CT*%
X10090000Y-5362000D03*
X10138800Y-1820700D03*
%TD*%
%TO.N,PWR_KEY*%
D16*
X11954700Y-35720000D02*
X7695800Y-31461100D01*
X14015000Y-35720000D02*
X11954700Y-35720000D01*
X7695800Y-31461100D02*
X7695800Y-28794400D01*
%TO.N,SYS*%
X33400000Y-11300000D02*
X32536000Y-10436000D01*
X37900000Y-32967800D02*
X39842200Y-34910000D01*
D17*
X36900000Y-21000000D02*
X37900000Y-22000000D01*
X37900000Y-22000000D02*
X37900000Y-32000000D01*
D16*
X26909500Y-17790500D02*
X26909500Y-35883600D01*
X33400000Y-11300000D02*
X26909500Y-17790500D01*
D17*
X33400000Y-11300000D02*
X36900000Y-14800000D01*
X37900000Y-32000000D02*
X37400000Y-32500000D01*
D16*
X32536000Y-10436000D02*
X32536000Y-5188100D01*
X28042600Y-37016700D02*
X28042600Y-42903200D01*
D17*
X36900000Y-14800000D02*
X36900000Y-21000000D01*
D16*
X37900000Y-32000000D02*
X37900000Y-32967800D01*
X26909500Y-35883600D02*
X28042600Y-37016700D01*
%TO.N,BOOT_COUNT_RESET*%
X33065000Y-35720000D02*
X35483200Y-38138200D01*
X32167400Y-36617600D02*
X29096000Y-36617600D01*
X33065000Y-35720000D02*
X32167400Y-36617600D01*
X35483200Y-38138200D02*
X35483200Y-50820100D01*
X27422500Y-34944100D02*
X27422500Y-30402000D01*
X29096000Y-36617600D02*
X27422500Y-34944100D01*
%TO.N,VLOGIC*%
X26448500Y-34267700D02*
X26448500Y-37993500D01*
X26448500Y-37993500D02*
X26715000Y-38260000D01*
X25743900Y-8854400D02*
X25743900Y-27022600D01*
X26448500Y-27727200D02*
X26448500Y-34267700D01*
X26715000Y-50285000D02*
X25893000Y-51107000D01*
X26448500Y-34267700D02*
X22704400Y-34267700D01*
X25743900Y-27022600D02*
X26448500Y-27727200D01*
X22704400Y-34267700D02*
X18953000Y-38019100D01*
X26715000Y-38260000D02*
X26715000Y-50285000D01*
X25726000Y-8836500D02*
X25743900Y-8854400D01*
X18953000Y-38019100D02*
X18953000Y-39106200D01*
%TO.N,GND*%
X14775900Y-31199100D02*
X15327500Y-30647500D01*
X14775900Y-31199100D02*
X11461100Y-34513900D01*
X39225000Y-13075000D02*
X39225000Y-22034800D01*
X9225000Y-7748000D02*
X12276300Y-4696700D01*
X15327500Y-30647500D02*
X15327500Y-27425000D01*
X32619900Y-29772000D02*
X34167900Y-31320000D01*
X34167900Y-31320000D02*
X34541300Y-31320000D01*
X38871300Y-22680000D02*
X38871300Y-31320000D01*
X38871300Y-22388500D02*
X38871300Y-22680000D01*
X39975000Y-31320000D02*
X38871300Y-31320000D01*
X9225000Y-21322500D02*
X15327500Y-27425000D01*
X32619900Y-28477800D02*
X32619900Y-29772000D01*
X35795000Y-31320000D02*
X34541300Y-31320000D01*
X9225000Y-7748000D02*
X9225000Y-21322500D01*
X39225000Y-22034800D02*
X38871300Y-22388500D01*
X13380000Y-4300000D02*
X12276300Y-4300000D01*
X39975000Y-22680000D02*
X38871300Y-22680000D01*
X12276300Y-4696700D02*
X12276300Y-4300000D01*
%TO.N,OLED_SCK*%
X21001600Y-6841600D02*
X21001600Y-29550000D01*
X18460000Y-4300000D02*
X21001600Y-6841600D01*
%TO.N,OLED_MOSI*%
X21000000Y-4300000D02*
X21569600Y-4869600D01*
X21569600Y-4869600D02*
X21569600Y-30550000D01*
%TO.N,OLED_RESET_N*%
X23540000Y-24880300D02*
X23540000Y-4300000D01*
%TO.N,OLED_DC*%
X24704100Y-28732900D02*
X25935100Y-29963900D01*
X24704100Y-5675900D02*
X24704100Y-28732900D01*
X26080000Y-4300000D02*
X24704100Y-5675900D01*
%TO.N,OLED_CS_N*%
X28620000Y-4300000D02*
X25207800Y-7712200D01*
X25207800Y-7712200D02*
X25207800Y-28446900D01*
%TO.N,COUNT_N*%
X8482700Y-28000000D02*
X8482700Y-27936900D01*
X7953300Y-27407500D02*
X7525100Y-27407500D01*
X8482700Y-27936900D02*
X7953300Y-27407500D01*
X7525100Y-27407500D02*
X5838900Y-29093700D01*
X5838900Y-29093700D02*
X5838900Y-31300000D01*
%TO.N,VLOGIC_FB*%
X37345500Y-41857200D02*
X36088300Y-40600000D01*
X40035900Y-40653300D02*
X40135900Y-41616800D01*
X39895500Y-41857200D02*
X37345500Y-41857200D01*
X39895500Y-41857200D02*
X39895500Y-46225000D01*
X40135900Y-41616800D02*
X39895500Y-41857200D01*
%TO.N,SYS_LOAD*%
X39240300Y-36291400D02*
X39240300Y-41250000D01*
X34423100Y-32709800D02*
X38004700Y-36291400D01*
X38004700Y-36291400D02*
X39240300Y-36291400D01*
%TO.N,CC2*%
X34320700Y-30760500D02*
X36757500Y-28323700D01*
X32907800Y-23853200D02*
X32058500Y-23853200D01*
X36757500Y-28323700D02*
X36757500Y-27702900D01*
X36757500Y-27702900D02*
X32907800Y-23853200D01*
%TO.N,VBUS*%
X36937500Y-10982700D02*
X36856600Y-11063600D01*
X36856600Y-11063600D02*
X37902200Y-12109200D01*
X30684300Y-31524600D02*
X31214100Y-31524600D01*
X31214100Y-31524600D02*
X31214100Y-27250300D01*
X31214100Y-31524600D02*
X31378500Y-31524600D01*
X30684300Y-31524600D02*
X29289100Y-32919800D01*
X31378500Y-31524600D02*
X36134000Y-36280100D01*
X37902200Y-12109200D02*
X37902200Y-19600000D01*
X29289100Y-32919800D02*
X29289100Y-36061600D01*
X36592400Y-6200100D02*
X36937500Y-6545200D01*
X36937500Y-6545200D02*
X36937500Y-10982700D01*
%TO.N,SWDIO*%
X24886100Y-49386100D02*
X23832500Y-48332500D01*
X23832500Y-48332500D02*
X23832500Y-35481300D01*
X23832500Y-35481300D02*
X24085900Y-35227900D01*
%TO.N,USB_DP*%
X28898200Y-30461200D02*
X28898200Y-28389600D01*
X34794700Y-26457200D02*
X36233900Y-27896400D01*
X28898200Y-28389600D02*
X30830600Y-26457200D01*
X30830600Y-26457200D02*
X34794700Y-26457200D01*
%TO.N,USB_DM*%
X33391000Y-28447000D02*
X33391000Y-28555300D01*
X29342800Y-31403700D02*
X29651100Y-31095400D01*
X30946100Y-26735900D02*
X31679900Y-26735900D01*
X31679900Y-26735900D02*
X33391000Y-28447000D01*
X29651100Y-28030900D02*
X30946100Y-26735900D01*
X29651100Y-31095400D02*
X29651100Y-28030900D01*
%TO.N,FRAM_CS_N*%
X19825900Y-41828100D02*
X21007600Y-40646400D01*
X19825900Y-48737800D02*
X19825900Y-41828100D01*
%TO.N,FRAM_MISO*%
X21851700Y-37129500D02*
X21851700Y-39027300D01*
X21967100Y-39142700D02*
X21967100Y-45385500D01*
X21967100Y-45385500D02*
X20392900Y-46959700D01*
X20392900Y-46959700D02*
X20392900Y-48235000D01*
X21851700Y-39027300D02*
X21967100Y-39142700D01*
%TO.N,VFRAM*%
X21553400Y-39735800D02*
X21553400Y-45086800D01*
X21553400Y-45086800D02*
X21450800Y-45189400D01*
X21463100Y-39645500D02*
X21553400Y-39735800D01*
%TO.N,FRAM_MOSI*%
X22907000Y-34789000D02*
X22907000Y-44816500D01*
%TO.N,FRAM_SCK*%
X22172100Y-46197800D02*
X22374800Y-45995100D01*
X22374800Y-45995100D02*
X22374800Y-37639300D01*
%TO.N,TEMP_COLD_OK*%
X15405500Y-50591600D02*
X15405500Y-52981100D01*
X12876300Y-48062400D02*
X15405500Y-50591600D01*
X12876300Y-47028400D02*
X12876300Y-48062400D01*
%TO.N,TEMP_SENSE*%
X15831200Y-40096900D02*
X15831200Y-27027000D01*
X15831200Y-27027000D02*
X13696500Y-24892300D01*
X9194200Y-46733900D02*
X15831200Y-40096900D01*
X8927200Y-46733900D02*
X9194200Y-46733900D01*
%TO.N,TEMP_COLD*%
X8947700Y-52519800D02*
X5694200Y-49266300D01*
X12819600Y-49322800D02*
X9622600Y-52519800D01*
X9622600Y-52519800D02*
X8947700Y-52519800D01*
X12819600Y-49203400D02*
X12819600Y-49322800D01*
X5694200Y-49266300D02*
X5694200Y-48575000D01*
%TO.N,TEMP_HOT_OK*%
X9941800Y-48863700D02*
X9130400Y-48052300D01*
X9941800Y-51049200D02*
X9941800Y-48863700D01*
%TO.N,SYS_ON*%
X37428500Y-37894400D02*
X37428500Y-37800000D01*
X3351000Y-37549000D02*
X6342600Y-34257400D01*
X6342600Y-29304400D02*
X7731000Y-27916000D01*
X6342600Y-34257400D02*
X6342600Y-29304400D01*
X38681000Y-39146900D02*
X37428500Y-37894400D01*
%TO.N,CELL_N_RAW*%
X3952100Y-12041400D02*
X3952100Y-9316200D01*
X1797200Y-14196300D02*
X3952100Y-12041400D01*
%TO.N,CE_N*%
X11507700Y-50240500D02*
X9748300Y-51999900D01*
X16515300Y-11853200D02*
X16515300Y-41756500D01*
X11507700Y-46764100D02*
X11507700Y-50240500D01*
X9748300Y-51999900D02*
X9154500Y-51999900D01*
X16515300Y-41756500D02*
X11507700Y-46764100D01*
%TO.N,COUT*%
X6111000Y-8301900D02*
X6111000Y-18633600D01*
%TO.N,DOUT*%
X4068500Y-17237500D02*
X4470300Y-16835700D01*
X4470300Y-16835700D02*
X4470300Y-8587400D01*
%TO.N,NRST*%
X15255600Y-31769700D02*
X15356800Y-31870900D01*
X15356800Y-39857300D02*
X14208900Y-41005200D01*
X15356800Y-31870900D02*
X15356800Y-39857300D01*
X27377800Y-44022500D02*
X27377800Y-47979800D01*
%TO.N,CHG_STAT1*%
X31282700Y-3196100D02*
X23011500Y-3196100D01*
X23011500Y-3196100D02*
X22220200Y-3987400D01*
X22220200Y-3987400D02*
X22220200Y-23466500D01*
X36423900Y-8337300D02*
X31282700Y-3196100D01*
X36423900Y-10359800D02*
X36423900Y-8337300D01*
%TO.N,CHG_STAT2*%
X22904400Y-24256700D02*
X22904400Y-12105800D01*
%TO.N,SWCLK*%
X24354300Y-35962500D02*
X24354300Y-47856500D01*
X24354300Y-47856500D02*
X25977700Y-49479900D01*
%TO.N,OLED_CT*%
X10090000Y-5362000D02*
X10090000Y-1869500D01*
X10090000Y-1869500D02*
X10138800Y-1820700D01*
%TD*%
%TA.AperFunction,Conductor*%
%TO.N,GND*%
G36*
X41578326Y-421674D02*
G01*
X41600000Y-474000D01*
X41600000Y-53526000D01*
X41578326Y-53578326D01*
X41526000Y-53600000D01*
X474000Y-53600000D01*
X421674Y-53578326D01*
X400000Y-53526000D01*
X400000Y-51901582D01*
X1249500Y-51901582D01*
X1249500Y-52098417D01*
X1280290Y-52292823D01*
X1280293Y-52292836D01*
X1341113Y-52480019D01*
X1430475Y-52655404D01*
X1540770Y-52807212D01*
X1546172Y-52814646D01*
X1685354Y-52953828D01*
X1844595Y-53069524D01*
X2019975Y-53158884D01*
X2019977Y-53158884D01*
X2019980Y-53158886D01*
X2207163Y-53219706D01*
X2207169Y-53219707D01*
X2207174Y-53219709D01*
X2336780Y-53240236D01*
X2401582Y-53250500D01*
X2401583Y-53250500D01*
X2598418Y-53250500D01*
X2647019Y-53242802D01*
X2792826Y-53219709D01*
X2792833Y-53219706D01*
X2792836Y-53219706D01*
X2980019Y-53158886D01*
X2980019Y-53158885D01*
X2980025Y-53158884D01*
X3155405Y-53069524D01*
X3314646Y-52953828D01*
X3453828Y-52814646D01*
X3569524Y-52655405D01*
X3658884Y-52480025D01*
X3719709Y-52292826D01*
X3750500Y-52098417D01*
X3750500Y-51901583D01*
X3719709Y-51707174D01*
X3719707Y-51707169D01*
X3719706Y-51707163D01*
X3658886Y-51519980D01*
X3658884Y-51519977D01*
X3658884Y-51519975D01*
X3569524Y-51344595D01*
X3515763Y-51270600D01*
X3453831Y-51185358D01*
X3453830Y-51185357D01*
X3453828Y-51185354D01*
X3314646Y-51046172D01*
X3314643Y-51046169D01*
X3314641Y-51046168D01*
X3155404Y-50930475D01*
X2980019Y-50841113D01*
X2792836Y-50780293D01*
X2792823Y-50780290D01*
X2598418Y-50749500D01*
X2598417Y-50749500D01*
X2401583Y-50749500D01*
X2401582Y-50749500D01*
X2207176Y-50780290D01*
X2207163Y-50780293D01*
X2019980Y-50841113D01*
X1844595Y-50930475D01*
X1685358Y-51046168D01*
X1546168Y-51185358D01*
X1430475Y-51344595D01*
X1341113Y-51519980D01*
X1280293Y-51707163D01*
X1280290Y-51707176D01*
X1249500Y-51901582D01*
X400000Y-51901582D01*
X400000Y-48515688D01*
X5243700Y-48515688D01*
X5243700Y-48634311D01*
X5274399Y-48748882D01*
X5274401Y-48748887D01*
X5333708Y-48851609D01*
X5333709Y-48851610D01*
X5333711Y-48851613D01*
X5417587Y-48935489D01*
X5431700Y-48943637D01*
X5466178Y-48988570D01*
X5468700Y-49007723D01*
X5468700Y-49215473D01*
X5468699Y-49215487D01*
X5468699Y-49221445D01*
X5468699Y-49311155D01*
X5483356Y-49346538D01*
X5503028Y-49394033D01*
X5503031Y-49394037D01*
X5576871Y-49467877D01*
X5576873Y-49467878D01*
X8752309Y-52643314D01*
X8752312Y-52643318D01*
X8756530Y-52647536D01*
X8819964Y-52710970D01*
X8854295Y-52725190D01*
X8902846Y-52745301D01*
X8902847Y-52745301D01*
X9001167Y-52745301D01*
X9001175Y-52745300D01*
X9569125Y-52745300D01*
X9569133Y-52745301D01*
X9577745Y-52745301D01*
X9667454Y-52745301D01*
X9667455Y-52745301D01*
X9726060Y-52721025D01*
X9750336Y-52710970D01*
X9813770Y-52647536D01*
X9813770Y-52647535D01*
X9824175Y-52637130D01*
X9824176Y-52637127D01*
X12785731Y-49675574D01*
X12838057Y-49653900D01*
X12878911Y-49653900D01*
X12878911Y-49653899D01*
X12993486Y-49623199D01*
X13096213Y-49563889D01*
X13180089Y-49480013D01*
X13239399Y-49377286D01*
X13270099Y-49262711D01*
X13270100Y-49262711D01*
X13270100Y-49144089D01*
X13270099Y-49144088D01*
X13239400Y-49029517D01*
X13239398Y-49029512D01*
X13180091Y-48926790D01*
X13180090Y-48926789D01*
X13180089Y-48926787D01*
X13096213Y-48842911D01*
X13096210Y-48842909D01*
X13096209Y-48842908D01*
X12993487Y-48783601D01*
X12993482Y-48783599D01*
X12878911Y-48752900D01*
X12878909Y-48752900D01*
X12760291Y-48752900D01*
X12760289Y-48752900D01*
X12645717Y-48783599D01*
X12645712Y-48783601D01*
X12542990Y-48842908D01*
X12459108Y-48926790D01*
X12399801Y-49029512D01*
X12399799Y-49029517D01*
X12369100Y-49144088D01*
X12369100Y-49144091D01*
X12369100Y-49262709D01*
X12374814Y-49284032D01*
X12398550Y-49372617D01*
X12391157Y-49428770D01*
X12379397Y-49444096D01*
X11859526Y-49963968D01*
X11807200Y-49985642D01*
X11754874Y-49963968D01*
X11733200Y-49911642D01*
X11733200Y-46969088D01*
X12425800Y-46969088D01*
X12425800Y-47087711D01*
X12456499Y-47202282D01*
X12456501Y-47202287D01*
X12515808Y-47305009D01*
X12515809Y-47305010D01*
X12515811Y-47305013D01*
X12599687Y-47388889D01*
X12613800Y-47397037D01*
X12648278Y-47441970D01*
X12650800Y-47461123D01*
X12650800Y-48011573D01*
X12650799Y-48011587D01*
X12650799Y-48107255D01*
X12674433Y-48164311D01*
X12685129Y-48190135D01*
X12758971Y-48263977D01*
X12758973Y-48263978D01*
X15158326Y-50663331D01*
X15180000Y-50715657D01*
X15180000Y-52548377D01*
X15158326Y-52600703D01*
X15143001Y-52612462D01*
X15128890Y-52620609D01*
X15128888Y-52620610D01*
X15045008Y-52704490D01*
X14985701Y-52807212D01*
X14985699Y-52807217D01*
X14955000Y-52921788D01*
X14955000Y-53040411D01*
X14985699Y-53154982D01*
X14985701Y-53154987D01*
X15045008Y-53257709D01*
X15045009Y-53257710D01*
X15045011Y-53257713D01*
X15128887Y-53341589D01*
X15231614Y-53400899D01*
X15231615Y-53400899D01*
X15231617Y-53400900D01*
X15288902Y-53416249D01*
X15346188Y-53431599D01*
X15346189Y-53431600D01*
X15346191Y-53431600D01*
X15464811Y-53431600D01*
X15464811Y-53431599D01*
X15579386Y-53400899D01*
X15682113Y-53341589D01*
X15765989Y-53257713D01*
X15825299Y-53154986D01*
X15855999Y-53040411D01*
X15856000Y-53040411D01*
X15856000Y-52921789D01*
X15855999Y-52921788D01*
X15825300Y-52807217D01*
X15825298Y-52807212D01*
X15765991Y-52704490D01*
X15765990Y-52704489D01*
X15765989Y-52704487D01*
X15682113Y-52620611D01*
X15667999Y-52612462D01*
X15633521Y-52567528D01*
X15631000Y-52548377D01*
X15631000Y-51901582D01*
X38249500Y-51901582D01*
X38249500Y-52098417D01*
X38280290Y-52292823D01*
X38280293Y-52292836D01*
X38341113Y-52480019D01*
X38430475Y-52655404D01*
X38540770Y-52807212D01*
X38546172Y-52814646D01*
X38685354Y-52953828D01*
X38844595Y-53069524D01*
X39019975Y-53158884D01*
X39019977Y-53158884D01*
X39019980Y-53158886D01*
X39207163Y-53219706D01*
X39207169Y-53219707D01*
X39207174Y-53219709D01*
X39336780Y-53240236D01*
X39401582Y-53250500D01*
X39401583Y-53250500D01*
X39598418Y-53250500D01*
X39647019Y-53242802D01*
X39792826Y-53219709D01*
X39792833Y-53219706D01*
X39792836Y-53219706D01*
X39980019Y-53158886D01*
X39980019Y-53158885D01*
X39980025Y-53158884D01*
X40155405Y-53069524D01*
X40314646Y-52953828D01*
X40453828Y-52814646D01*
X40569524Y-52655405D01*
X40658884Y-52480025D01*
X40719709Y-52292826D01*
X40750500Y-52098417D01*
X40750500Y-51901583D01*
X40719709Y-51707174D01*
X40719707Y-51707169D01*
X40719706Y-51707163D01*
X40658886Y-51519980D01*
X40658884Y-51519977D01*
X40658884Y-51519975D01*
X40569524Y-51344595D01*
X40515763Y-51270600D01*
X40453831Y-51185358D01*
X40453830Y-51185357D01*
X40453828Y-51185354D01*
X40314646Y-51046172D01*
X40314643Y-51046169D01*
X40314641Y-51046168D01*
X40155404Y-50930475D01*
X39980019Y-50841113D01*
X39792836Y-50780293D01*
X39792823Y-50780290D01*
X39598418Y-50749500D01*
X39598417Y-50749500D01*
X39401583Y-50749500D01*
X39401582Y-50749500D01*
X39207176Y-50780290D01*
X39207163Y-50780293D01*
X39019980Y-50841113D01*
X38844595Y-50930475D01*
X38685358Y-51046168D01*
X38546168Y-51185358D01*
X38430475Y-51344595D01*
X38341113Y-51519980D01*
X38280293Y-51707163D01*
X38280290Y-51707176D01*
X38249500Y-51901582D01*
X15631000Y-51901582D01*
X15631000Y-50645075D01*
X15631001Y-50645066D01*
X15631001Y-50546744D01*
X15601767Y-50476170D01*
X15601766Y-50476167D01*
X15596670Y-50463865D01*
X15596670Y-50463864D01*
X15529021Y-50396215D01*
X15529014Y-50396209D01*
X13123474Y-47990669D01*
X13101800Y-47938343D01*
X13101800Y-47461123D01*
X13123474Y-47408797D01*
X13138800Y-47397037D01*
X13152913Y-47388889D01*
X13236789Y-47305013D01*
X13296099Y-47202286D01*
X13326799Y-47087711D01*
X13326800Y-47087711D01*
X13326800Y-46969089D01*
X13326799Y-46969088D01*
X13296100Y-46854517D01*
X13296098Y-46854512D01*
X13236791Y-46751790D01*
X13236790Y-46751789D01*
X13236789Y-46751787D01*
X13152913Y-46667911D01*
X13152910Y-46667909D01*
X13152909Y-46667908D01*
X13050187Y-46608601D01*
X13050182Y-46608599D01*
X12935611Y-46577900D01*
X12935609Y-46577900D01*
X12816991Y-46577900D01*
X12816989Y-46577900D01*
X12702417Y-46608599D01*
X12702412Y-46608601D01*
X12599690Y-46667908D01*
X12515808Y-46751790D01*
X12456501Y-46854512D01*
X12456499Y-46854517D01*
X12425800Y-46969088D01*
X11733200Y-46969088D01*
X11733200Y-46888156D01*
X11754873Y-46835831D01*
X16632627Y-41958076D01*
X16632630Y-41958075D01*
X16643035Y-41947670D01*
X16643036Y-41947670D01*
X16706470Y-41884236D01*
X16736248Y-41812345D01*
X16740801Y-41801354D01*
X16740801Y-41711645D01*
X16740801Y-41705687D01*
X16740800Y-41705673D01*
X16740800Y-12285923D01*
X16762474Y-12233597D01*
X16777800Y-12221837D01*
X16791913Y-12213689D01*
X16875789Y-12129813D01*
X16935099Y-12027086D01*
X16965799Y-11912511D01*
X16965800Y-11912511D01*
X16965800Y-11793889D01*
X16965799Y-11793888D01*
X16960509Y-11774147D01*
X16935099Y-11679314D01*
X16935098Y-11679312D01*
X16875791Y-11576590D01*
X16875790Y-11576589D01*
X16875789Y-11576587D01*
X16791913Y-11492711D01*
X16791910Y-11492709D01*
X16791909Y-11492708D01*
X16689187Y-11433401D01*
X16689182Y-11433399D01*
X16574611Y-11402700D01*
X16574609Y-11402700D01*
X16455991Y-11402700D01*
X16455989Y-11402700D01*
X16341417Y-11433399D01*
X16341412Y-11433401D01*
X16238690Y-11492708D01*
X16154808Y-11576590D01*
X16095501Y-11679312D01*
X16095499Y-11679317D01*
X16064800Y-11793888D01*
X16064800Y-11912511D01*
X16095499Y-12027082D01*
X16095501Y-12027087D01*
X16154808Y-12129809D01*
X16154809Y-12129810D01*
X16154811Y-12129813D01*
X16238687Y-12213689D01*
X16252800Y-12221837D01*
X16287278Y-12266770D01*
X16289800Y-12285923D01*
X16289800Y-41632442D01*
X16268126Y-41684768D01*
X11316529Y-46636364D01*
X11314045Y-46642363D01*
X11282199Y-46719244D01*
X11282199Y-46817566D01*
X11282200Y-46817575D01*
X11282200Y-50116442D01*
X11260526Y-50168768D01*
X10492885Y-50936408D01*
X10440559Y-50958082D01*
X10388233Y-50936408D01*
X10369081Y-50903235D01*
X10361600Y-50875317D01*
X10361598Y-50875312D01*
X10302291Y-50772590D01*
X10302290Y-50772589D01*
X10302289Y-50772587D01*
X10218413Y-50688711D01*
X10204299Y-50680562D01*
X10169821Y-50635628D01*
X10167300Y-50616477D01*
X10167300Y-48917175D01*
X10167301Y-48917166D01*
X10167301Y-48818844D01*
X10136882Y-48745409D01*
X10136882Y-48745408D01*
X10132970Y-48735964D01*
X10065321Y-48668315D01*
X10065314Y-48668309D01*
X9595834Y-48198829D01*
X9574160Y-48146503D01*
X9576681Y-48127353D01*
X9580900Y-48111609D01*
X9580900Y-47992991D01*
X9580900Y-47992989D01*
X9580899Y-47992988D01*
X9550200Y-47878417D01*
X9550198Y-47878412D01*
X9490891Y-47775690D01*
X9490890Y-47775689D01*
X9490889Y-47775687D01*
X9407013Y-47691811D01*
X9407010Y-47691809D01*
X9407009Y-47691808D01*
X9304287Y-47632501D01*
X9304282Y-47632499D01*
X9189711Y-47601800D01*
X9189709Y-47601800D01*
X9071091Y-47601800D01*
X9071089Y-47601800D01*
X8956517Y-47632499D01*
X8956512Y-47632501D01*
X8853790Y-47691808D01*
X8769908Y-47775690D01*
X8710601Y-47878412D01*
X8710599Y-47878417D01*
X8679900Y-47992988D01*
X8679900Y-48111611D01*
X8710599Y-48226182D01*
X8710601Y-48226187D01*
X8769908Y-48328909D01*
X8769909Y-48328910D01*
X8769911Y-48328913D01*
X8853787Y-48412789D01*
X8853789Y-48412790D01*
X8853790Y-48412791D01*
X8937614Y-48461187D01*
X8956514Y-48472099D01*
X8956515Y-48472099D01*
X8956517Y-48472100D01*
X9013802Y-48487449D01*
X9071088Y-48502799D01*
X9071089Y-48502800D01*
X9071091Y-48502800D01*
X9189709Y-48502800D01*
X9205449Y-48498582D01*
X9261600Y-48505973D01*
X9276929Y-48517734D01*
X9694626Y-48935431D01*
X9716300Y-48987757D01*
X9716300Y-50616477D01*
X9694626Y-50668803D01*
X9679301Y-50680562D01*
X9665190Y-50688709D01*
X9665188Y-50688710D01*
X9581308Y-50772590D01*
X9522001Y-50875312D01*
X9521999Y-50875317D01*
X9491300Y-50989888D01*
X9491300Y-51108511D01*
X9521999Y-51223082D01*
X9522001Y-51223087D01*
X9581308Y-51325809D01*
X9581309Y-51325810D01*
X9581311Y-51325813D01*
X9665187Y-51409689D01*
X9767914Y-51468999D01*
X9795837Y-51476481D01*
X9840769Y-51510959D01*
X9848162Y-51567112D01*
X9829009Y-51600285D01*
X9676569Y-51752726D01*
X9624243Y-51774400D01*
X9587223Y-51774400D01*
X9534897Y-51752726D01*
X9523137Y-51737400D01*
X9514989Y-51723287D01*
X9431113Y-51639411D01*
X9431110Y-51639409D01*
X9431109Y-51639408D01*
X9328387Y-51580101D01*
X9328382Y-51580099D01*
X9213811Y-51549400D01*
X9213809Y-51549400D01*
X9095191Y-51549400D01*
X9095189Y-51549400D01*
X8980617Y-51580099D01*
X8980612Y-51580101D01*
X8877890Y-51639408D01*
X8794008Y-51723290D01*
X8734701Y-51826012D01*
X8734700Y-51826016D01*
X8733664Y-51829883D01*
X8699184Y-51874816D01*
X8643032Y-51882207D01*
X8609860Y-51863055D01*
X5941374Y-49194569D01*
X5919700Y-49142243D01*
X5919700Y-49007723D01*
X5941374Y-48955397D01*
X5956700Y-48943637D01*
X5970813Y-48935489D01*
X6054689Y-48851613D01*
X6113999Y-48748886D01*
X6144699Y-48634311D01*
X6144700Y-48634311D01*
X6144700Y-48515689D01*
X6144699Y-48515688D01*
X6141245Y-48502799D01*
X6129349Y-48458402D01*
X6114000Y-48401117D01*
X6113998Y-48401112D01*
X6054691Y-48298390D01*
X6054690Y-48298389D01*
X6054689Y-48298387D01*
X5970813Y-48214511D01*
X5970810Y-48214509D01*
X5970809Y-48214508D01*
X5868087Y-48155201D01*
X5868082Y-48155199D01*
X5753511Y-48124500D01*
X5753509Y-48124500D01*
X5634891Y-48124500D01*
X5634889Y-48124500D01*
X5520317Y-48155199D01*
X5520312Y-48155201D01*
X5417590Y-48214508D01*
X5333708Y-48298390D01*
X5274401Y-48401112D01*
X5274399Y-48401117D01*
X5243700Y-48515688D01*
X400000Y-48515688D01*
X400000Y-40660688D01*
X9349500Y-40660688D01*
X9349500Y-40939311D01*
X9385867Y-41215552D01*
X9457981Y-41484687D01*
X9564602Y-41742093D01*
X9564605Y-41742101D01*
X9703916Y-41983394D01*
X9703920Y-41983400D01*
X9873529Y-42204441D01*
X10070558Y-42401470D01*
X10291599Y-42571079D01*
X10291605Y-42571083D01*
X10387746Y-42626590D01*
X10532898Y-42710394D01*
X10790314Y-42817019D01*
X11059446Y-42889132D01*
X11335687Y-42925500D01*
X11335689Y-42925500D01*
X11614311Y-42925500D01*
X11614313Y-42925500D01*
X11890554Y-42889132D01*
X12159686Y-42817019D01*
X12417102Y-42710394D01*
X12658398Y-42571081D01*
X12789508Y-42470477D01*
X12879441Y-42401470D01*
X12879442Y-42401468D01*
X12879447Y-42401465D01*
X13076465Y-42204447D01*
X13113103Y-42156700D01*
X13196227Y-42048369D01*
X13246081Y-41983398D01*
X13385394Y-41742102D01*
X13492019Y-41484686D01*
X13564132Y-41215554D01*
X13600500Y-40939313D01*
X13600500Y-40660687D01*
X13564132Y-40384446D01*
X13492019Y-40115314D01*
X13385394Y-39857898D01*
X13331121Y-39763895D01*
X13246083Y-39616605D01*
X13246079Y-39616599D01*
X13076470Y-39395558D01*
X12879441Y-39198529D01*
X12658400Y-39028920D01*
X12658394Y-39028916D01*
X12417101Y-38889605D01*
X12417093Y-38889602D01*
X12159687Y-38782981D01*
X11890552Y-38710867D01*
X11667217Y-38681465D01*
X11614313Y-38674500D01*
X11335687Y-38674500D01*
X11282783Y-38681465D01*
X11059447Y-38710867D01*
X10790312Y-38782981D01*
X10532906Y-38889602D01*
X10532898Y-38889605D01*
X10291605Y-39028916D01*
X10291599Y-39028920D01*
X10070558Y-39198529D01*
X9873529Y-39395558D01*
X9703920Y-39616599D01*
X9703916Y-39616605D01*
X9564605Y-39857898D01*
X9564602Y-39857906D01*
X9457981Y-40115312D01*
X9385867Y-40384447D01*
X9358281Y-40593988D01*
X9349682Y-40659309D01*
X9349500Y-40660688D01*
X400000Y-40660688D01*
X400000Y-38161582D01*
X6414500Y-38161582D01*
X6414500Y-38358417D01*
X6445290Y-38552823D01*
X6445293Y-38552836D01*
X6506113Y-38740019D01*
X6595475Y-38915404D01*
X6709363Y-39072157D01*
X6711172Y-39074646D01*
X6850354Y-39213828D01*
X7009595Y-39329524D01*
X7184975Y-39418884D01*
X7184977Y-39418884D01*
X7184980Y-39418886D01*
X7372163Y-39479706D01*
X7372169Y-39479707D01*
X7372174Y-39479709D01*
X7501780Y-39500236D01*
X7566582Y-39510500D01*
X7566583Y-39510500D01*
X7763418Y-39510500D01*
X7812019Y-39502802D01*
X7957826Y-39479709D01*
X7957833Y-39479706D01*
X7957836Y-39479706D01*
X8145019Y-39418886D01*
X8145019Y-39418885D01*
X8145025Y-39418884D01*
X8320405Y-39329524D01*
X8479646Y-39213828D01*
X8618828Y-39074646D01*
X8734524Y-38915405D01*
X8823884Y-38740025D01*
X8839284Y-38692628D01*
X8884706Y-38552836D01*
X8884706Y-38552833D01*
X8884709Y-38552826D01*
X8915500Y-38358417D01*
X8915500Y-38161583D01*
X8884709Y-37967174D01*
X8884707Y-37967169D01*
X8884706Y-37967163D01*
X8823886Y-37779980D01*
X8823884Y-37779977D01*
X8823884Y-37779975D01*
X8734524Y-37604595D01*
X8651041Y-37489691D01*
X8618831Y-37445358D01*
X8618830Y-37445357D01*
X8618828Y-37445354D01*
X8479646Y-37306172D01*
X8479643Y-37306169D01*
X8479641Y-37306168D01*
X8320404Y-37190475D01*
X8145019Y-37101113D01*
X7957836Y-37040293D01*
X7957823Y-37040290D01*
X7763418Y-37009500D01*
X7763417Y-37009500D01*
X7566583Y-37009500D01*
X7566582Y-37009500D01*
X7372176Y-37040290D01*
X7372163Y-37040293D01*
X7184980Y-37101113D01*
X7009595Y-37190475D01*
X6850358Y-37306168D01*
X6711168Y-37445358D01*
X6595475Y-37604595D01*
X6506113Y-37779980D01*
X6445293Y-37967163D01*
X6445290Y-37967176D01*
X6414500Y-38161582D01*
X400000Y-38161582D01*
X400000Y-37489688D01*
X2900500Y-37489688D01*
X2900500Y-37608311D01*
X2931199Y-37722882D01*
X2931201Y-37722887D01*
X2990508Y-37825609D01*
X2990509Y-37825610D01*
X2990511Y-37825613D01*
X3074387Y-37909489D01*
X3074389Y-37909490D01*
X3074390Y-37909491D01*
X3139409Y-37947030D01*
X3177114Y-37968799D01*
X3177115Y-37968799D01*
X3177117Y-37968800D01*
X3197442Y-37974246D01*
X3291688Y-37999499D01*
X3291689Y-37999500D01*
X3291691Y-37999500D01*
X3410311Y-37999500D01*
X3410311Y-37999499D01*
X3524886Y-37968799D01*
X3627613Y-37909489D01*
X3711489Y-37825613D01*
X3770799Y-37722886D01*
X3801499Y-37608311D01*
X3801500Y-37608311D01*
X3801500Y-37489689D01*
X3801499Y-37489688D01*
X3791037Y-37450642D01*
X3798429Y-37394490D01*
X3807749Y-37381723D01*
X6504672Y-34414349D01*
X6507066Y-34411838D01*
X6533770Y-34385136D01*
X6533771Y-34385132D01*
X6536808Y-34380586D01*
X6539641Y-34375874D01*
X6539644Y-34375872D01*
X6552400Y-34340373D01*
X6553658Y-34337118D01*
X6568100Y-34302255D01*
X6568100Y-34302249D01*
X6569170Y-34296870D01*
X6569981Y-34291453D01*
X6569983Y-34291449D01*
X6568184Y-34253765D01*
X6568100Y-34250237D01*
X6568100Y-29428456D01*
X6589773Y-29376131D01*
X7126542Y-28839362D01*
X7178866Y-28817689D01*
X7231192Y-28839363D01*
X7250344Y-28872536D01*
X7275999Y-28968282D01*
X7276001Y-28968287D01*
X7335308Y-29071009D01*
X7335309Y-29071010D01*
X7335311Y-29071013D01*
X7419187Y-29154889D01*
X7428040Y-29160000D01*
X7433300Y-29163037D01*
X7467778Y-29207970D01*
X7470300Y-29227123D01*
X7470300Y-31410273D01*
X7470299Y-31410287D01*
X7470299Y-31505955D01*
X7484592Y-31540461D01*
X7504629Y-31588834D01*
X7504631Y-31588837D01*
X7578471Y-31662677D01*
X7578473Y-31662678D01*
X11759309Y-35843514D01*
X11759312Y-35843518D01*
X11826963Y-35911169D01*
X11826966Y-35911171D01*
X11868404Y-35928335D01*
X11909845Y-35945500D01*
X12721426Y-35945500D01*
X12773752Y-35967174D01*
X12794515Y-36007926D01*
X12795290Y-36012821D01*
X12795293Y-36012836D01*
X12856113Y-36200019D01*
X12945475Y-36375404D01*
X13055757Y-36527194D01*
X13061172Y-36534646D01*
X13200354Y-36673828D01*
X13200357Y-36673830D01*
X13200358Y-36673831D01*
X13298774Y-36745335D01*
X13359595Y-36789524D01*
X13534975Y-36878884D01*
X13534977Y-36878884D01*
X13534980Y-36878886D01*
X13722163Y-36939706D01*
X13722169Y-36939707D01*
X13722174Y-36939709D01*
X13851780Y-36960236D01*
X13916582Y-36970500D01*
X13916583Y-36970500D01*
X14113418Y-36970500D01*
X14162019Y-36962802D01*
X14307826Y-36939709D01*
X14307833Y-36939706D01*
X14307836Y-36939706D01*
X14495019Y-36878886D01*
X14495019Y-36878885D01*
X14495025Y-36878884D01*
X14670405Y-36789524D01*
X14829646Y-36673828D01*
X14968828Y-36534646D01*
X14997434Y-36495273D01*
X15045724Y-36465681D01*
X15100796Y-36478903D01*
X15130389Y-36527194D01*
X15131300Y-36538770D01*
X15131300Y-39733242D01*
X15109626Y-39785568D01*
X14355429Y-40539765D01*
X14303103Y-40561439D01*
X14283952Y-40558918D01*
X14268209Y-40554700D01*
X14149591Y-40554700D01*
X14149589Y-40554700D01*
X14035017Y-40585399D01*
X14035012Y-40585401D01*
X13932290Y-40644708D01*
X13848408Y-40728590D01*
X13789101Y-40831312D01*
X13789099Y-40831317D01*
X13758400Y-40945888D01*
X13758400Y-41064511D01*
X13789099Y-41179082D01*
X13789101Y-41179087D01*
X13848408Y-41281809D01*
X13848409Y-41281810D01*
X13848411Y-41281813D01*
X13932287Y-41365689D01*
X13932289Y-41365690D01*
X13932290Y-41365691D01*
X14035014Y-41424999D01*
X14038179Y-41426310D01*
X14078229Y-41466357D01*
X14078231Y-41522994D01*
X14062189Y-41547004D01*
X9264232Y-46344961D01*
X9211906Y-46366635D01*
X9174906Y-46356721D01*
X9101087Y-46314101D01*
X9101082Y-46314099D01*
X8986511Y-46283400D01*
X8986509Y-46283400D01*
X8867891Y-46283400D01*
X8867889Y-46283400D01*
X8753317Y-46314099D01*
X8753312Y-46314101D01*
X8650590Y-46373408D01*
X8566708Y-46457290D01*
X8507401Y-46560012D01*
X8507399Y-46560017D01*
X8476700Y-46674588D01*
X8476700Y-46793211D01*
X8507399Y-46907782D01*
X8507401Y-46907787D01*
X8566708Y-47010509D01*
X8566709Y-47010510D01*
X8566711Y-47010513D01*
X8650587Y-47094389D01*
X8753314Y-47153699D01*
X8753315Y-47153699D01*
X8753317Y-47153700D01*
X8810602Y-47169049D01*
X8867888Y-47184399D01*
X8867889Y-47184400D01*
X8867891Y-47184400D01*
X8986511Y-47184400D01*
X8986511Y-47184399D01*
X9101086Y-47153699D01*
X9203813Y-47094389D01*
X9287689Y-47010513D01*
X9346999Y-46907786D01*
X9346999Y-46907784D01*
X9349424Y-46903585D01*
X9349759Y-46903778D01*
X9362909Y-46884096D01*
X9395773Y-46851233D01*
X9395776Y-46851227D01*
X16022370Y-40224636D01*
X16056700Y-40141755D01*
X16056700Y-40052046D01*
X16056700Y-27080475D01*
X16056701Y-27080466D01*
X16056701Y-26982146D01*
X16022370Y-26899265D01*
X16022369Y-26899263D01*
X15954721Y-26831615D01*
X15954714Y-26831609D01*
X14161934Y-25038829D01*
X14140260Y-24986503D01*
X14142781Y-24967353D01*
X14147000Y-24951609D01*
X14147000Y-24832991D01*
X14147000Y-24832989D01*
X14146999Y-24832988D01*
X14143784Y-24820991D01*
X14116299Y-24718414D01*
X14109824Y-24707199D01*
X14056991Y-24615690D01*
X14056990Y-24615689D01*
X14056989Y-24615687D01*
X13973113Y-24531811D01*
X13973110Y-24531809D01*
X13973109Y-24531808D01*
X13870387Y-24472501D01*
X13870382Y-24472499D01*
X13755811Y-24441800D01*
X13755809Y-24441800D01*
X13637191Y-24441800D01*
X13637189Y-24441800D01*
X13522617Y-24472499D01*
X13522612Y-24472501D01*
X13419890Y-24531808D01*
X13336008Y-24615690D01*
X13276701Y-24718412D01*
X13276699Y-24718417D01*
X13246000Y-24832988D01*
X13246000Y-24951611D01*
X13276699Y-25066182D01*
X13276701Y-25066187D01*
X13336008Y-25168909D01*
X13336009Y-25168910D01*
X13336011Y-25168913D01*
X13419887Y-25252789D01*
X13419889Y-25252790D01*
X13419890Y-25252791D01*
X13501831Y-25300100D01*
X13522614Y-25312099D01*
X13522615Y-25312099D01*
X13522617Y-25312100D01*
X13579902Y-25327449D01*
X13637188Y-25342799D01*
X13637189Y-25342800D01*
X13637191Y-25342800D01*
X13755809Y-25342800D01*
X13771549Y-25338582D01*
X13827700Y-25345973D01*
X13843029Y-25357734D01*
X15584026Y-27098731D01*
X15605700Y-27151057D01*
X15605700Y-31323466D01*
X15584026Y-31375792D01*
X15531700Y-31397466D01*
X15494700Y-31387552D01*
X15429487Y-31349901D01*
X15429482Y-31349899D01*
X15314911Y-31319200D01*
X15314909Y-31319200D01*
X15196291Y-31319200D01*
X15196289Y-31319200D01*
X15081717Y-31349899D01*
X15081712Y-31349901D01*
X14978990Y-31409208D01*
X14895108Y-31493090D01*
X14835801Y-31595812D01*
X14835799Y-31595817D01*
X14805100Y-31710388D01*
X14805100Y-31829011D01*
X14835799Y-31943582D01*
X14835801Y-31943587D01*
X14895108Y-32046309D01*
X14895109Y-32046310D01*
X14895111Y-32046313D01*
X14978987Y-32130189D01*
X14978989Y-32130190D01*
X14978990Y-32130191D01*
X15081712Y-32189498D01*
X15085614Y-32191114D01*
X15125665Y-32231160D01*
X15131300Y-32259483D01*
X15131300Y-34901229D01*
X15109626Y-34953555D01*
X15057300Y-34975229D01*
X15004974Y-34953555D01*
X14997436Y-34944730D01*
X14968828Y-34905354D01*
X14829646Y-34766172D01*
X14829643Y-34766169D01*
X14829641Y-34766168D01*
X14670404Y-34650475D01*
X14495019Y-34561113D01*
X14307836Y-34500293D01*
X14307823Y-34500290D01*
X14113418Y-34469500D01*
X14113417Y-34469500D01*
X13916583Y-34469500D01*
X13916582Y-34469500D01*
X13722176Y-34500290D01*
X13722163Y-34500293D01*
X13534980Y-34561113D01*
X13359595Y-34650475D01*
X13200358Y-34766168D01*
X13061168Y-34905358D01*
X12945475Y-35064595D01*
X12856113Y-35239980D01*
X12795293Y-35427163D01*
X12795290Y-35427178D01*
X12794515Y-35432074D01*
X12764924Y-35480366D01*
X12721426Y-35494500D01*
X12078757Y-35494500D01*
X12026431Y-35472826D01*
X7942974Y-31389369D01*
X7921300Y-31337043D01*
X7921300Y-29227123D01*
X7942974Y-29174797D01*
X7958300Y-29163037D01*
X7963560Y-29160000D01*
X7972413Y-29154889D01*
X8056289Y-29071013D01*
X8115599Y-28968286D01*
X8146299Y-28853711D01*
X8146300Y-28853711D01*
X8146300Y-28735089D01*
X8146299Y-28735088D01*
X8143196Y-28723509D01*
X8115599Y-28620514D01*
X8056289Y-28517787D01*
X7972413Y-28433911D01*
X7972410Y-28433909D01*
X7972409Y-28433908D01*
X7964682Y-28429447D01*
X7930203Y-28384513D01*
X7937596Y-28328361D01*
X7964683Y-28301275D01*
X8003532Y-28278845D01*
X8007613Y-28276489D01*
X8012733Y-28271368D01*
X8065057Y-28249692D01*
X8117384Y-28271363D01*
X8120399Y-28274800D01*
X8122209Y-28276610D01*
X8122211Y-28276613D01*
X8206087Y-28360489D01*
X8206089Y-28360490D01*
X8206090Y-28360491D01*
X8265577Y-28394836D01*
X8308814Y-28419799D01*
X8308815Y-28419799D01*
X8308817Y-28419800D01*
X8361469Y-28433908D01*
X8423388Y-28450499D01*
X8423389Y-28450500D01*
X8423391Y-28450500D01*
X8542011Y-28450500D01*
X8542011Y-28450499D01*
X8656586Y-28419799D01*
X8759313Y-28360489D01*
X8843189Y-28276613D01*
X8902499Y-28173886D01*
X8933199Y-28059311D01*
X8933200Y-28059311D01*
X8933200Y-27940689D01*
X8933199Y-27940688D01*
X8902500Y-27826117D01*
X8902498Y-27826112D01*
X8843191Y-27723390D01*
X8843190Y-27723389D01*
X8843189Y-27723387D01*
X8759313Y-27639511D01*
X8759310Y-27639509D01*
X8759309Y-27639508D01*
X8656587Y-27580201D01*
X8656582Y-27580199D01*
X8542011Y-27549500D01*
X8542009Y-27549500D01*
X8444857Y-27549500D01*
X8392531Y-27527826D01*
X8154878Y-27290173D01*
X8154878Y-27290172D01*
X8081037Y-27216331D01*
X8081033Y-27216328D01*
X8054757Y-27205445D01*
X7998155Y-27181999D01*
X7908445Y-27181999D01*
X7899833Y-27181999D01*
X7899825Y-27182000D01*
X7578575Y-27182000D01*
X7578567Y-27181999D01*
X7569955Y-27181999D01*
X7480245Y-27181999D01*
X7423643Y-27205445D01*
X7397364Y-27216329D01*
X7397363Y-27216331D01*
X5647729Y-28965965D01*
X5647727Y-28965968D01*
X5643946Y-28975098D01*
X5643946Y-28975099D01*
X5613399Y-29048845D01*
X5613399Y-29147166D01*
X5613400Y-29147175D01*
X5613400Y-30867277D01*
X5591726Y-30919603D01*
X5576401Y-30931362D01*
X5562290Y-30939509D01*
X5562288Y-30939510D01*
X5478408Y-31023390D01*
X5419101Y-31126112D01*
X5419099Y-31126117D01*
X5388400Y-31240688D01*
X5388400Y-31359311D01*
X5419099Y-31473882D01*
X5419101Y-31473887D01*
X5478408Y-31576609D01*
X5478409Y-31576610D01*
X5478411Y-31576613D01*
X5562287Y-31660489D01*
X5562289Y-31660490D01*
X5562290Y-31660491D01*
X5648714Y-31710388D01*
X5665014Y-31719799D01*
X5665015Y-31719799D01*
X5665017Y-31719800D01*
X5665021Y-31719801D01*
X5779588Y-31750499D01*
X5779589Y-31750500D01*
X5779591Y-31750500D01*
X5898211Y-31750500D01*
X5898211Y-31750499D01*
X6012786Y-31719799D01*
X6012791Y-31719795D01*
X6014776Y-31718974D01*
X6015866Y-31718973D01*
X6017471Y-31718544D01*
X6017586Y-31718973D01*
X6071414Y-31718970D01*
X6111465Y-31759015D01*
X6117100Y-31787339D01*
X6117100Y-34141632D01*
X6097862Y-34191403D01*
X3476906Y-37075190D01*
X3425673Y-37099335D01*
X3412491Y-37098787D01*
X3410310Y-37098500D01*
X3410309Y-37098500D01*
X3291691Y-37098500D01*
X3291689Y-37098500D01*
X3177117Y-37129199D01*
X3177112Y-37129201D01*
X3074390Y-37188508D01*
X2990508Y-37272390D01*
X2931201Y-37375112D01*
X2931199Y-37375117D01*
X2900500Y-37489688D01*
X400000Y-37489688D01*
X400000Y-14136988D01*
X1346700Y-14136988D01*
X1346700Y-14255611D01*
X1377399Y-14370182D01*
X1377401Y-14370187D01*
X1436708Y-14472909D01*
X1436709Y-14472910D01*
X1436711Y-14472913D01*
X1520587Y-14556789D01*
X1520589Y-14556790D01*
X1520590Y-14556791D01*
X1622257Y-14615489D01*
X1623314Y-14616099D01*
X1623315Y-14616099D01*
X1623317Y-14616100D01*
X1680602Y-14631449D01*
X1737888Y-14646799D01*
X1737889Y-14646800D01*
X1737891Y-14646800D01*
X1856511Y-14646800D01*
X1856511Y-14646799D01*
X1971086Y-14616099D01*
X2073813Y-14556789D01*
X2157689Y-14472913D01*
X2216999Y-14370186D01*
X2247699Y-14255611D01*
X2247700Y-14255611D01*
X2247700Y-14136989D01*
X2243482Y-14121249D01*
X2250874Y-14065096D01*
X2262630Y-14049773D01*
X4069427Y-12242977D01*
X4069430Y-12242975D01*
X4079835Y-12232570D01*
X4079836Y-12232570D01*
X4118474Y-12193932D01*
X4170800Y-12172258D01*
X4223126Y-12193932D01*
X4244800Y-12246258D01*
X4244800Y-16711643D01*
X4223126Y-16763969D01*
X4215030Y-16772065D01*
X4162704Y-16793739D01*
X4143554Y-16791218D01*
X4127810Y-16787000D01*
X4127809Y-16787000D01*
X4009191Y-16787000D01*
X4009189Y-16787000D01*
X3894617Y-16817699D01*
X3894612Y-16817701D01*
X3791890Y-16877008D01*
X3708008Y-16960890D01*
X3648701Y-17063612D01*
X3648699Y-17063617D01*
X3618000Y-17178188D01*
X3618000Y-17296811D01*
X3648699Y-17411382D01*
X3648701Y-17411387D01*
X3708008Y-17514109D01*
X3708009Y-17514110D01*
X3708011Y-17514113D01*
X3791887Y-17597989D01*
X3791889Y-17597990D01*
X3791890Y-17597991D01*
X3894612Y-17657298D01*
X3894614Y-17657299D01*
X3894615Y-17657299D01*
X3894617Y-17657300D01*
X3915013Y-17662765D01*
X4009188Y-17687999D01*
X4009189Y-17688000D01*
X4009191Y-17688000D01*
X4127811Y-17688000D01*
X4127811Y-17687999D01*
X4242386Y-17657299D01*
X4345113Y-17597989D01*
X4428989Y-17514113D01*
X4488299Y-17411386D01*
X4518999Y-17296811D01*
X4519000Y-17296811D01*
X4519000Y-17178189D01*
X4514782Y-17162449D01*
X4522174Y-17106296D01*
X4533930Y-17090973D01*
X4587627Y-17037277D01*
X4587630Y-17037275D01*
X4598035Y-17026870D01*
X4598036Y-17026870D01*
X4661470Y-16963436D01*
X4672420Y-16937000D01*
X4695801Y-16880555D01*
X4695801Y-16790845D01*
X4695801Y-16784887D01*
X4695800Y-16784873D01*
X4695800Y-9020123D01*
X4717474Y-8967797D01*
X4732800Y-8956037D01*
X4733370Y-8955708D01*
X4746913Y-8947889D01*
X4830789Y-8864013D01*
X4890099Y-8761286D01*
X4920799Y-8646711D01*
X4920800Y-8646711D01*
X4920800Y-8528089D01*
X4920799Y-8528088D01*
X4890100Y-8413517D01*
X4890098Y-8413512D01*
X4830791Y-8310790D01*
X4830790Y-8310789D01*
X4830789Y-8310787D01*
X4762590Y-8242588D01*
X5660500Y-8242588D01*
X5660500Y-8361211D01*
X5691199Y-8475782D01*
X5691201Y-8475787D01*
X5750508Y-8578509D01*
X5750509Y-8578510D01*
X5750511Y-8578513D01*
X5834387Y-8662389D01*
X5848500Y-8670537D01*
X5882978Y-8715470D01*
X5885500Y-8734623D01*
X5885500Y-18200877D01*
X5863826Y-18253203D01*
X5848501Y-18264962D01*
X5834390Y-18273109D01*
X5834388Y-18273110D01*
X5750508Y-18356990D01*
X5691201Y-18459712D01*
X5691199Y-18459717D01*
X5660500Y-18574288D01*
X5660500Y-18692911D01*
X5691199Y-18807482D01*
X5691201Y-18807487D01*
X5750508Y-18910209D01*
X5750509Y-18910210D01*
X5750511Y-18910213D01*
X5834387Y-18994089D01*
X5937114Y-19053399D01*
X5937115Y-19053399D01*
X5937117Y-19053400D01*
X5994402Y-19068749D01*
X6051688Y-19084099D01*
X6051689Y-19084100D01*
X6051691Y-19084100D01*
X6170311Y-19084100D01*
X6170311Y-19084099D01*
X6284886Y-19053399D01*
X6387613Y-18994089D01*
X6471489Y-18910213D01*
X6530799Y-18807486D01*
X6561499Y-18692911D01*
X6561500Y-18692911D01*
X6561500Y-18574289D01*
X6561499Y-18574288D01*
X6530800Y-18459717D01*
X6530798Y-18459712D01*
X6471491Y-18356990D01*
X6471490Y-18356989D01*
X6471489Y-18356987D01*
X6387613Y-18273111D01*
X6373499Y-18264962D01*
X6339021Y-18220028D01*
X6336500Y-18200877D01*
X6336500Y-8734623D01*
X6358174Y-8682297D01*
X6373500Y-8670537D01*
X6387613Y-8662389D01*
X6471489Y-8578513D01*
X6530799Y-8475786D01*
X6561499Y-8361211D01*
X6561500Y-8361211D01*
X6561500Y-8242589D01*
X6561499Y-8242588D01*
X6557298Y-8226911D01*
X6530799Y-8128014D01*
X6471489Y-8025287D01*
X6387613Y-7941411D01*
X6387610Y-7941409D01*
X6387609Y-7941408D01*
X6284887Y-7882101D01*
X6284882Y-7882099D01*
X6170311Y-7851400D01*
X6170309Y-7851400D01*
X6051691Y-7851400D01*
X6051689Y-7851400D01*
X5937117Y-7882099D01*
X5937112Y-7882101D01*
X5834390Y-7941408D01*
X5750508Y-8025290D01*
X5691201Y-8128012D01*
X5691199Y-8128017D01*
X5660500Y-8242588D01*
X4762590Y-8242588D01*
X4746913Y-8226911D01*
X4746910Y-8226909D01*
X4746909Y-8226908D01*
X4644187Y-8167601D01*
X4644182Y-8167599D01*
X4529611Y-8136900D01*
X4529609Y-8136900D01*
X4410991Y-8136900D01*
X4410989Y-8136900D01*
X4296417Y-8167599D01*
X4296412Y-8167601D01*
X4193690Y-8226908D01*
X4109808Y-8310790D01*
X4050501Y-8413512D01*
X4050499Y-8413517D01*
X4019800Y-8528088D01*
X4019800Y-8646711D01*
X4050498Y-8761279D01*
X4051369Y-8763380D01*
X4051369Y-8764526D01*
X4051756Y-8765971D01*
X4051369Y-8766074D01*
X4051370Y-8820017D01*
X4011322Y-8860067D01*
X3983002Y-8865700D01*
X3892789Y-8865700D01*
X3778217Y-8896399D01*
X3778212Y-8896401D01*
X3675490Y-8955708D01*
X3591608Y-9039590D01*
X3532301Y-9142312D01*
X3532299Y-9142317D01*
X3501600Y-9256888D01*
X3501600Y-9375511D01*
X3532299Y-9490082D01*
X3532301Y-9490087D01*
X3591608Y-9592809D01*
X3591609Y-9592810D01*
X3591611Y-9592813D01*
X3675487Y-9676689D01*
X3689600Y-9684837D01*
X3724078Y-9729770D01*
X3726600Y-9748923D01*
X3726600Y-11917342D01*
X3704926Y-11969668D01*
X1943728Y-13730865D01*
X1891402Y-13752539D01*
X1872253Y-13750018D01*
X1856509Y-13745800D01*
X1737891Y-13745800D01*
X1737889Y-13745800D01*
X1623317Y-13776499D01*
X1623312Y-13776501D01*
X1520590Y-13835808D01*
X1436708Y-13919690D01*
X1377401Y-14022412D01*
X1377399Y-14022417D01*
X1346700Y-14136988D01*
X400000Y-14136988D01*
X400000Y-5302688D01*
X9639500Y-5302688D01*
X9639500Y-5421311D01*
X9670199Y-5535882D01*
X9670201Y-5535887D01*
X9729508Y-5638609D01*
X9729509Y-5638610D01*
X9729511Y-5638613D01*
X9813387Y-5722489D01*
X9813389Y-5722490D01*
X9813390Y-5722491D01*
X9856932Y-5747630D01*
X9916114Y-5781799D01*
X9916115Y-5781799D01*
X9916117Y-5781800D01*
X9973402Y-5797149D01*
X10030688Y-5812499D01*
X10030689Y-5812500D01*
X10030691Y-5812500D01*
X10149311Y-5812500D01*
X10149311Y-5812499D01*
X10263886Y-5781799D01*
X10366613Y-5722489D01*
X10450489Y-5638613D01*
X10509799Y-5535886D01*
X10540499Y-5421311D01*
X10540500Y-5421311D01*
X10540500Y-5302689D01*
X10540499Y-5302688D01*
X10509800Y-5188117D01*
X10509798Y-5188112D01*
X10450491Y-5085390D01*
X10450490Y-5085389D01*
X10450489Y-5085387D01*
X10366613Y-5001511D01*
X10352499Y-4993362D01*
X10318021Y-4948428D01*
X10315500Y-4929277D01*
X10315500Y-3380302D01*
X12280000Y-3380302D01*
X12280000Y-4200000D01*
X12878804Y-4200000D01*
X12870000Y-4232857D01*
X12870000Y-4367143D01*
X12878804Y-4400000D01*
X12280000Y-4400000D01*
X12280000Y-5219697D01*
X12291603Y-5278035D01*
X12335807Y-5344191D01*
X12335808Y-5344192D01*
X12401964Y-5388396D01*
X12460303Y-5400000D01*
X13280000Y-5400000D01*
X13280000Y-4801196D01*
X13312857Y-4810000D01*
X13447143Y-4810000D01*
X13480000Y-4801196D01*
X13480000Y-5400000D01*
X14299697Y-5400000D01*
X14358035Y-5388396D01*
X14424191Y-5344192D01*
X14424192Y-5344191D01*
X14468396Y-5278035D01*
X14480000Y-5219697D01*
X14480000Y-4400000D01*
X13881196Y-4400000D01*
X13890000Y-4367143D01*
X13890000Y-4232857D01*
X13881196Y-4200000D01*
X14480000Y-4200000D01*
X14480000Y-4196535D01*
X14869500Y-4196535D01*
X14869500Y-4403464D01*
X14909868Y-4606413D01*
X14909870Y-4606420D01*
X14989059Y-4797598D01*
X15089839Y-4948428D01*
X15104023Y-4969655D01*
X15250345Y-5115977D01*
X15422402Y-5230941D01*
X15613580Y-5310130D01*
X15816535Y-5350500D01*
X15816536Y-5350500D01*
X16023464Y-5350500D01*
X16023465Y-5350500D01*
X16226420Y-5310130D01*
X16417598Y-5230941D01*
X16589655Y-5115977D01*
X16735977Y-4969655D01*
X16850941Y-4797598D01*
X16930130Y-4606420D01*
X16970500Y-4403465D01*
X16970500Y-4196535D01*
X17409500Y-4196535D01*
X17409500Y-4403464D01*
X17449868Y-4606413D01*
X17449870Y-4606420D01*
X17529059Y-4797598D01*
X17629839Y-4948428D01*
X17644023Y-4969655D01*
X17790345Y-5115977D01*
X17962402Y-5230941D01*
X18153580Y-5310130D01*
X18356535Y-5350500D01*
X18356536Y-5350500D01*
X18563464Y-5350500D01*
X18563465Y-5350500D01*
X18766420Y-5310130D01*
X18957598Y-5230941D01*
X18975702Y-5218843D01*
X19031251Y-5207794D01*
X19069141Y-5228046D01*
X20754426Y-6913331D01*
X20776100Y-6965657D01*
X20776100Y-29117277D01*
X20754426Y-29169603D01*
X20739101Y-29181362D01*
X20724990Y-29189509D01*
X20724988Y-29189510D01*
X20641108Y-29273390D01*
X20581801Y-29376112D01*
X20581799Y-29376117D01*
X20551100Y-29490688D01*
X20551100Y-29609311D01*
X20581799Y-29723882D01*
X20581801Y-29723887D01*
X20641108Y-29826609D01*
X20641109Y-29826610D01*
X20641111Y-29826613D01*
X20724987Y-29910489D01*
X20724989Y-29910490D01*
X20724990Y-29910491D01*
X20827712Y-29969798D01*
X20827714Y-29969799D01*
X20827715Y-29969799D01*
X20827717Y-29969800D01*
X20874002Y-29982202D01*
X20942288Y-30000499D01*
X20942289Y-30000500D01*
X20942291Y-30000500D01*
X21060911Y-30000500D01*
X21060911Y-30000499D01*
X21175486Y-29969799D01*
X21233100Y-29936534D01*
X21289252Y-29929142D01*
X21334186Y-29963620D01*
X21344100Y-30000621D01*
X21344100Y-30117277D01*
X21322426Y-30169603D01*
X21307101Y-30181362D01*
X21292990Y-30189509D01*
X21292988Y-30189510D01*
X21209108Y-30273390D01*
X21149801Y-30376112D01*
X21149799Y-30376117D01*
X21119100Y-30490688D01*
X21119100Y-30609311D01*
X21149799Y-30723882D01*
X21149801Y-30723887D01*
X21209108Y-30826609D01*
X21209109Y-30826610D01*
X21209111Y-30826613D01*
X21292987Y-30910489D01*
X21292989Y-30910490D01*
X21292990Y-30910491D01*
X21366964Y-30953200D01*
X21395714Y-30969799D01*
X21395715Y-30969799D01*
X21395717Y-30969800D01*
X21412172Y-30974209D01*
X21510288Y-31000499D01*
X21510289Y-31000500D01*
X21510291Y-31000500D01*
X21628911Y-31000500D01*
X21628911Y-31000499D01*
X21743486Y-30969799D01*
X21846213Y-30910489D01*
X21930089Y-30826613D01*
X21989399Y-30723886D01*
X22020099Y-30609311D01*
X22020100Y-30609311D01*
X22020100Y-30490689D01*
X22020099Y-30490688D01*
X22018277Y-30483890D01*
X21999658Y-30414400D01*
X21989400Y-30376117D01*
X21989398Y-30376112D01*
X21930091Y-30273390D01*
X21930090Y-30273389D01*
X21930089Y-30273387D01*
X21846213Y-30189511D01*
X21832099Y-30181362D01*
X21797621Y-30136428D01*
X21795100Y-30117277D01*
X21795100Y-23857153D01*
X21816774Y-23804827D01*
X21869100Y-23783153D01*
X21921424Y-23804826D01*
X21943587Y-23826989D01*
X21943589Y-23826990D01*
X21943590Y-23826991D01*
X21971540Y-23843128D01*
X22046314Y-23886299D01*
X22046315Y-23886299D01*
X22046317Y-23886300D01*
X22083298Y-23896209D01*
X22160888Y-23916999D01*
X22160889Y-23917000D01*
X22160891Y-23917000D01*
X22279511Y-23917000D01*
X22279511Y-23916999D01*
X22394086Y-23886299D01*
X22483701Y-23834558D01*
X22539853Y-23827166D01*
X22584787Y-23861645D01*
X22592180Y-23917797D01*
X22573028Y-23950970D01*
X22543908Y-23980090D01*
X22484601Y-24082812D01*
X22484599Y-24082817D01*
X22453900Y-24197388D01*
X22453900Y-24316011D01*
X22484599Y-24430582D01*
X22484601Y-24430587D01*
X22543908Y-24533309D01*
X22543909Y-24533310D01*
X22543911Y-24533313D01*
X22627787Y-24617189D01*
X22627789Y-24617190D01*
X22627790Y-24617191D01*
X22730512Y-24676498D01*
X22730514Y-24676499D01*
X22730515Y-24676499D01*
X22730517Y-24676500D01*
X22787802Y-24691849D01*
X22845088Y-24707199D01*
X22845089Y-24707200D01*
X22845091Y-24707200D01*
X22963710Y-24707200D01*
X22984440Y-24701645D01*
X23008272Y-24695259D01*
X23064425Y-24702651D01*
X23098904Y-24747583D01*
X23098905Y-24785889D01*
X23089500Y-24820991D01*
X23089500Y-24939611D01*
X23120199Y-25054182D01*
X23120201Y-25054187D01*
X23179508Y-25156909D01*
X23179509Y-25156910D01*
X23179511Y-25156913D01*
X23263387Y-25240789D01*
X23263389Y-25240790D01*
X23263390Y-25240791D01*
X23366112Y-25300098D01*
X23366114Y-25300099D01*
X23366115Y-25300099D01*
X23366117Y-25300100D01*
X23410898Y-25312099D01*
X23480688Y-25330799D01*
X23480689Y-25330800D01*
X23480691Y-25330800D01*
X23599311Y-25330800D01*
X23599311Y-25330799D01*
X23713886Y-25300099D01*
X23816613Y-25240789D01*
X23900489Y-25156913D01*
X23959799Y-25054186D01*
X23990499Y-24939611D01*
X23990500Y-24939611D01*
X23990500Y-24820989D01*
X23990499Y-24820988D01*
X23959800Y-24706417D01*
X23959798Y-24706412D01*
X23900491Y-24603690D01*
X23900490Y-24603689D01*
X23900489Y-24603687D01*
X23816613Y-24519811D01*
X23802499Y-24511662D01*
X23768021Y-24466728D01*
X23765500Y-24447577D01*
X23765500Y-5386955D01*
X23787174Y-5334629D01*
X23825063Y-5314377D01*
X23846420Y-5310130D01*
X24037598Y-5230941D01*
X24209655Y-5115977D01*
X24355977Y-4969655D01*
X24470941Y-4797598D01*
X24550130Y-4606420D01*
X24590500Y-4403465D01*
X24590500Y-4196535D01*
X24550130Y-3993580D01*
X24470941Y-3802402D01*
X24355977Y-3630345D01*
X24273558Y-3547926D01*
X24251884Y-3495600D01*
X24273558Y-3443274D01*
X24325884Y-3421600D01*
X25294116Y-3421600D01*
X25346442Y-3443274D01*
X25368116Y-3495600D01*
X25346442Y-3547926D01*
X25264024Y-3630344D01*
X25264022Y-3630345D01*
X25149059Y-3802401D01*
X25069870Y-3993579D01*
X25069868Y-3993586D01*
X25029500Y-4196535D01*
X25029500Y-4403464D01*
X25069868Y-4606413D01*
X25069870Y-4606420D01*
X25149059Y-4797598D01*
X25161157Y-4815704D01*
X25172205Y-4871252D01*
X25151953Y-4909140D01*
X24576365Y-5484729D01*
X24512930Y-5548163D01*
X24502874Y-5572436D01*
X24502874Y-5572439D01*
X24490767Y-5601670D01*
X24478599Y-5631046D01*
X24478599Y-5729366D01*
X24478600Y-5729375D01*
X24478600Y-28682073D01*
X24478599Y-28682087D01*
X24478599Y-28777755D01*
X24501031Y-28831911D01*
X24501033Y-28831913D01*
X24512930Y-28860636D01*
X24586771Y-28934477D01*
X24586773Y-28934478D01*
X25469665Y-29817370D01*
X25491339Y-29869696D01*
X25488818Y-29888846D01*
X25484600Y-29904588D01*
X25484600Y-30023211D01*
X25515299Y-30137782D01*
X25515301Y-30137787D01*
X25574608Y-30240509D01*
X25574609Y-30240510D01*
X25574611Y-30240513D01*
X25658487Y-30324389D01*
X25658489Y-30324390D01*
X25658490Y-30324391D01*
X25758205Y-30381962D01*
X25761214Y-30383699D01*
X25761215Y-30383699D01*
X25761217Y-30383700D01*
X25818502Y-30399049D01*
X25875788Y-30414399D01*
X25875789Y-30414400D01*
X25875791Y-30414400D01*
X25994411Y-30414400D01*
X25994411Y-30414399D01*
X26108986Y-30383699D01*
X26111995Y-30381961D01*
X26168145Y-30374564D01*
X26213082Y-30409037D01*
X26223000Y-30446044D01*
X26223000Y-33968200D01*
X26201326Y-34020526D01*
X26149000Y-34042200D01*
X22757875Y-34042200D01*
X22757867Y-34042199D01*
X22749255Y-34042199D01*
X22659546Y-34042199D01*
X22615712Y-34060356D01*
X22615711Y-34060356D01*
X22576666Y-34076528D01*
X22576663Y-34076531D01*
X18761830Y-37891363D01*
X18751774Y-37915636D01*
X18751774Y-37915639D01*
X18727648Y-37973887D01*
X18727499Y-37974246D01*
X18727499Y-38072566D01*
X18727500Y-38072575D01*
X18727500Y-38673477D01*
X18705826Y-38725803D01*
X18690501Y-38737562D01*
X18676390Y-38745709D01*
X18676388Y-38745710D01*
X18592508Y-38829590D01*
X18533201Y-38932312D01*
X18533199Y-38932317D01*
X18502500Y-39046888D01*
X18502500Y-39165511D01*
X18533199Y-39280082D01*
X18533201Y-39280087D01*
X18592508Y-39382809D01*
X18592509Y-39382810D01*
X18592511Y-39382813D01*
X18676387Y-39466689D01*
X18676389Y-39466690D01*
X18676390Y-39466691D01*
X18752269Y-39510500D01*
X18779114Y-39525999D01*
X18779115Y-39525999D01*
X18779117Y-39526000D01*
X18798020Y-39531065D01*
X18893688Y-39556699D01*
X18893689Y-39556700D01*
X18893691Y-39556700D01*
X19012311Y-39556700D01*
X19012311Y-39556699D01*
X19126886Y-39525999D01*
X19229613Y-39466689D01*
X19313489Y-39382813D01*
X19372799Y-39280086D01*
X19403499Y-39165511D01*
X19403500Y-39165511D01*
X19403500Y-39046889D01*
X19403499Y-39046888D01*
X19398683Y-39028916D01*
X19372799Y-38932314D01*
X19372798Y-38932312D01*
X19313491Y-38829590D01*
X19313490Y-38829589D01*
X19313489Y-38829587D01*
X19229613Y-38745711D01*
X19215499Y-38737562D01*
X19181021Y-38692628D01*
X19178500Y-38673477D01*
X19178500Y-38143157D01*
X19200174Y-38090831D01*
X20774106Y-36516899D01*
X22362952Y-34928052D01*
X22415277Y-34906379D01*
X22467603Y-34928053D01*
X22485172Y-34958479D01*
X22485346Y-34958407D01*
X22485893Y-34959727D01*
X22486753Y-34961217D01*
X22487199Y-34962880D01*
X22487201Y-34962887D01*
X22546508Y-35065609D01*
X22546509Y-35065610D01*
X22546511Y-35065613D01*
X22630387Y-35149489D01*
X22638474Y-35154158D01*
X22644500Y-35157637D01*
X22678978Y-35202570D01*
X22681500Y-35221723D01*
X22681500Y-37168009D01*
X22659826Y-37220335D01*
X22607500Y-37242009D01*
X22570500Y-37232095D01*
X22548688Y-37219502D01*
X22548682Y-37219499D01*
X22434111Y-37188800D01*
X22434109Y-37188800D01*
X22376200Y-37188800D01*
X22323874Y-37167126D01*
X22302200Y-37114800D01*
X22302200Y-37070189D01*
X22302199Y-37070188D01*
X22271500Y-36955617D01*
X22271498Y-36955612D01*
X22212191Y-36852890D01*
X22212190Y-36852889D01*
X22212189Y-36852887D01*
X22128313Y-36769011D01*
X22128310Y-36769009D01*
X22128309Y-36769008D01*
X22025587Y-36709701D01*
X22025582Y-36709699D01*
X21911011Y-36679000D01*
X21911009Y-36679000D01*
X21792391Y-36679000D01*
X21792389Y-36679000D01*
X21677817Y-36709699D01*
X21677812Y-36709701D01*
X21575090Y-36769008D01*
X21491208Y-36852890D01*
X21431901Y-36955612D01*
X21431899Y-36955617D01*
X21401200Y-37070188D01*
X21401200Y-37188811D01*
X21431899Y-37303382D01*
X21431901Y-37303387D01*
X21491208Y-37406109D01*
X21491209Y-37406110D01*
X21491211Y-37406113D01*
X21575087Y-37489989D01*
X21584951Y-37495684D01*
X21589200Y-37498137D01*
X21623678Y-37543070D01*
X21626200Y-37562223D01*
X21626200Y-38976473D01*
X21626199Y-38976487D01*
X21626199Y-39072157D01*
X21638968Y-39102984D01*
X21638968Y-39159621D01*
X21598919Y-39199669D01*
X21551449Y-39202781D01*
X21522409Y-39195000D01*
X21403791Y-39195000D01*
X21403789Y-39195000D01*
X21289217Y-39225699D01*
X21289212Y-39225701D01*
X21186490Y-39285008D01*
X21102608Y-39368890D01*
X21043301Y-39471612D01*
X21043299Y-39471617D01*
X21012600Y-39586188D01*
X21012600Y-39704811D01*
X21043299Y-39819382D01*
X21043301Y-39819387D01*
X21102608Y-39922109D01*
X21102609Y-39922110D01*
X21102611Y-39922113D01*
X21186487Y-40005989D01*
X21186489Y-40005990D01*
X21186491Y-40005992D01*
X21233474Y-40033117D01*
X21289214Y-40065299D01*
X21289216Y-40065299D01*
X21290899Y-40066271D01*
X21325378Y-40111204D01*
X21327900Y-40130357D01*
X21327900Y-40182961D01*
X21306226Y-40235287D01*
X21253900Y-40256961D01*
X21216900Y-40247047D01*
X21181487Y-40226601D01*
X21181482Y-40226599D01*
X21066911Y-40195900D01*
X21066909Y-40195900D01*
X20948291Y-40195900D01*
X20948289Y-40195900D01*
X20833717Y-40226599D01*
X20833712Y-40226601D01*
X20730990Y-40285908D01*
X20647108Y-40369790D01*
X20587801Y-40472512D01*
X20587799Y-40472517D01*
X20557100Y-40587088D01*
X20557100Y-40587091D01*
X20557100Y-40705709D01*
X20559943Y-40716318D01*
X20561318Y-40721450D01*
X20553925Y-40777602D01*
X20542165Y-40792928D01*
X19698165Y-41636929D01*
X19634729Y-41700365D01*
X19634728Y-41700367D01*
X19624890Y-41724119D01*
X19600399Y-41783244D01*
X19600399Y-41881566D01*
X19600400Y-41881575D01*
X19600400Y-48305077D01*
X19578726Y-48357403D01*
X19563401Y-48369162D01*
X19549290Y-48377309D01*
X19549288Y-48377310D01*
X19465408Y-48461190D01*
X19406101Y-48563912D01*
X19406099Y-48563917D01*
X19375400Y-48678488D01*
X19375400Y-48797111D01*
X19406099Y-48911682D01*
X19406101Y-48911687D01*
X19465408Y-49014409D01*
X19465409Y-49014410D01*
X19465411Y-49014413D01*
X19549287Y-49098289D01*
X19549289Y-49098290D01*
X19549290Y-49098291D01*
X19652012Y-49157598D01*
X19652014Y-49157599D01*
X19652015Y-49157599D01*
X19652017Y-49157600D01*
X19709099Y-49172895D01*
X19766588Y-49188299D01*
X19766589Y-49188300D01*
X19766591Y-49188300D01*
X19885211Y-49188300D01*
X19885211Y-49188299D01*
X19999786Y-49157599D01*
X20102513Y-49098289D01*
X20186389Y-49014413D01*
X20245699Y-48911686D01*
X20276399Y-48797111D01*
X20276400Y-48797111D01*
X20276400Y-48759500D01*
X20298074Y-48707174D01*
X20350400Y-48685500D01*
X20452211Y-48685500D01*
X20452211Y-48685499D01*
X20566786Y-48654799D01*
X20669513Y-48595489D01*
X20753389Y-48511613D01*
X20812699Y-48408886D01*
X20843399Y-48294311D01*
X20843400Y-48294311D01*
X20843400Y-48175689D01*
X20843399Y-48175688D01*
X20812700Y-48061117D01*
X20812698Y-48061112D01*
X20753391Y-47958390D01*
X20753390Y-47958389D01*
X20753389Y-47958387D01*
X20669513Y-47874511D01*
X20655399Y-47866362D01*
X20620921Y-47821428D01*
X20618400Y-47802277D01*
X20618400Y-47083756D01*
X20640073Y-47031431D01*
X21596046Y-46075458D01*
X21648370Y-46053785D01*
X21700696Y-46075459D01*
X21722370Y-46127785D01*
X21721738Y-46137432D01*
X21721600Y-46138481D01*
X21721600Y-46257111D01*
X21752299Y-46371682D01*
X21752301Y-46371687D01*
X21811608Y-46474409D01*
X21811609Y-46474410D01*
X21811611Y-46474413D01*
X21895487Y-46558289D01*
X21895489Y-46558290D01*
X21895490Y-46558291D01*
X21982629Y-46608601D01*
X21998214Y-46617599D01*
X21998215Y-46617599D01*
X21998217Y-46617600D01*
X22055502Y-46632949D01*
X22112788Y-46648299D01*
X22112789Y-46648300D01*
X22112791Y-46648300D01*
X22231411Y-46648300D01*
X22231411Y-46648299D01*
X22345986Y-46617599D01*
X22448713Y-46558289D01*
X22532589Y-46474413D01*
X22591899Y-46371686D01*
X22622599Y-46257111D01*
X22622600Y-46257111D01*
X22622600Y-46138489D01*
X22622599Y-46138488D01*
X22602823Y-46064681D01*
X22600301Y-46045528D01*
X22600301Y-45944287D01*
X22600300Y-45944273D01*
X22600300Y-45287790D01*
X22621974Y-45235464D01*
X22674300Y-45213790D01*
X22711301Y-45223705D01*
X22733110Y-45236297D01*
X22733112Y-45236297D01*
X22733114Y-45236299D01*
X22733115Y-45236299D01*
X22733117Y-45236300D01*
X22779428Y-45248709D01*
X22847688Y-45266999D01*
X22847689Y-45267000D01*
X22847691Y-45267000D01*
X22966311Y-45267000D01*
X22966311Y-45266999D01*
X23080886Y-45236299D01*
X23183613Y-45176989D01*
X23267489Y-45093113D01*
X23326799Y-44990386D01*
X23357499Y-44875811D01*
X23357500Y-44875811D01*
X23357500Y-44757189D01*
X23357499Y-44757188D01*
X23357164Y-44755939D01*
X23326799Y-44642614D01*
X23267489Y-44539887D01*
X23183613Y-44456011D01*
X23169499Y-44447862D01*
X23135021Y-44402928D01*
X23132500Y-44383777D01*
X23132500Y-35221723D01*
X23154174Y-35169397D01*
X23169500Y-35157637D01*
X23171646Y-35156398D01*
X23183613Y-35149489D01*
X23267489Y-35065613D01*
X23326799Y-34962886D01*
X23357499Y-34848311D01*
X23357500Y-34848311D01*
X23357500Y-34729689D01*
X23357499Y-34729688D01*
X23326800Y-34615117D01*
X23326798Y-34615112D01*
X23320498Y-34604200D01*
X23313106Y-34548047D01*
X23347584Y-34503114D01*
X23384584Y-34493200D01*
X26149000Y-34493200D01*
X26201326Y-34514874D01*
X26223000Y-34567200D01*
X26223000Y-37061870D01*
X26201326Y-37114196D01*
X26182595Y-37127804D01*
X26059598Y-37190474D01*
X26059592Y-37190477D01*
X25900358Y-37306168D01*
X25761168Y-37445358D01*
X25645475Y-37604595D01*
X25556113Y-37779980D01*
X25495293Y-37967163D01*
X25495290Y-37967176D01*
X25464500Y-38161582D01*
X25464500Y-38358417D01*
X25495290Y-38552823D01*
X25495293Y-38552836D01*
X25556113Y-38740019D01*
X25645475Y-38915404D01*
X25759363Y-39072157D01*
X25761172Y-39074646D01*
X25900354Y-39213828D01*
X26059595Y-39329524D01*
X26234975Y-39418884D01*
X26234977Y-39418884D01*
X26234980Y-39418886D01*
X26422163Y-39479706D01*
X26422167Y-39479706D01*
X26422174Y-39479709D01*
X26427074Y-39480485D01*
X26475366Y-39510076D01*
X26489500Y-39553574D01*
X26489500Y-49189192D01*
X26467826Y-49241518D01*
X26415500Y-49263192D01*
X26363174Y-49241518D01*
X26351414Y-49226193D01*
X26338190Y-49203289D01*
X26338189Y-49203287D01*
X26254313Y-49119411D01*
X26254310Y-49119409D01*
X26254309Y-49119408D01*
X26151587Y-49060101D01*
X26151582Y-49060099D01*
X26037011Y-49029400D01*
X26037009Y-49029400D01*
X25918391Y-49029400D01*
X25902648Y-49033618D01*
X25846496Y-49026224D01*
X25831171Y-49014465D01*
X24601474Y-47784768D01*
X24579800Y-47732442D01*
X24579800Y-36395223D01*
X24601474Y-36342897D01*
X24616800Y-36331137D01*
X24630913Y-36322989D01*
X24714789Y-36239113D01*
X24774099Y-36136386D01*
X24804799Y-36021811D01*
X24804800Y-36021811D01*
X24804800Y-35903189D01*
X24804799Y-35903188D01*
X24774100Y-35788617D01*
X24774098Y-35788612D01*
X24714791Y-35685890D01*
X24714790Y-35685889D01*
X24714789Y-35685887D01*
X24630913Y-35602011D01*
X24630910Y-35602009D01*
X24630909Y-35602008D01*
X24528187Y-35542701D01*
X24523707Y-35540846D01*
X24524707Y-35538430D01*
X24486462Y-35509066D01*
X24479086Y-35452912D01*
X24486474Y-35435084D01*
X24505697Y-35401789D01*
X24505699Y-35401786D01*
X24536399Y-35287211D01*
X24536400Y-35287211D01*
X24536400Y-35168589D01*
X24536399Y-35168588D01*
X24531281Y-35149489D01*
X24518512Y-35101832D01*
X24505700Y-35054017D01*
X24505698Y-35054012D01*
X24446391Y-34951290D01*
X24446390Y-34951289D01*
X24446389Y-34951287D01*
X24362513Y-34867411D01*
X24362510Y-34867409D01*
X24362509Y-34867408D01*
X24259787Y-34808101D01*
X24259782Y-34808099D01*
X24145211Y-34777400D01*
X24145209Y-34777400D01*
X24026591Y-34777400D01*
X24026589Y-34777400D01*
X23912017Y-34808099D01*
X23912012Y-34808101D01*
X23809290Y-34867408D01*
X23725408Y-34951290D01*
X23666101Y-35054012D01*
X23666099Y-35054017D01*
X23635400Y-35168588D01*
X23635400Y-35168591D01*
X23635400Y-35287209D01*
X23635401Y-35287211D01*
X23642024Y-35311930D01*
X23638917Y-35359389D01*
X23638462Y-35360488D01*
X23638457Y-35360500D01*
X23606999Y-35436445D01*
X23606999Y-35534766D01*
X23607000Y-35534775D01*
X23607000Y-48281673D01*
X23606999Y-48281687D01*
X23606999Y-48287645D01*
X23606999Y-48377355D01*
X23628930Y-48430299D01*
X23628930Y-48430300D01*
X23641329Y-48460234D01*
X23641331Y-48460237D01*
X23715171Y-48534077D01*
X23715172Y-48534077D01*
X24420665Y-49239571D01*
X24442339Y-49291896D01*
X24439818Y-49311046D01*
X24435600Y-49326788D01*
X24435600Y-49445411D01*
X24466299Y-49559982D01*
X24466301Y-49559987D01*
X24525608Y-49662709D01*
X24525609Y-49662710D01*
X24525611Y-49662713D01*
X24609487Y-49746589D01*
X24609489Y-49746590D01*
X24609490Y-49746591D01*
X24651087Y-49770607D01*
X24712214Y-49805899D01*
X24712215Y-49805899D01*
X24712217Y-49805900D01*
X24769502Y-49821249D01*
X24826788Y-49836599D01*
X24826789Y-49836600D01*
X24826791Y-49836600D01*
X24945411Y-49836600D01*
X24945411Y-49836599D01*
X25059986Y-49805899D01*
X25162713Y-49746589D01*
X25246589Y-49662713D01*
X25305899Y-49559986D01*
X25336599Y-49445411D01*
X25336600Y-49445411D01*
X25336600Y-49336357D01*
X25358274Y-49284031D01*
X25410600Y-49262357D01*
X25462924Y-49284030D01*
X25462926Y-49284031D01*
X25462926Y-49284032D01*
X25512265Y-49333372D01*
X25533939Y-49385698D01*
X25531418Y-49404848D01*
X25527200Y-49420590D01*
X25527200Y-49539211D01*
X25557899Y-49653782D01*
X25557901Y-49653787D01*
X25617208Y-49756509D01*
X25617209Y-49756510D01*
X25617211Y-49756513D01*
X25701087Y-49840389D01*
X25803814Y-49899699D01*
X25803815Y-49899699D01*
X25803817Y-49899700D01*
X25861102Y-49915049D01*
X25918388Y-49930399D01*
X25918389Y-49930400D01*
X25918391Y-49930400D01*
X26037011Y-49930400D01*
X26037011Y-49930399D01*
X26151586Y-49899699D01*
X26254313Y-49840389D01*
X26338189Y-49756513D01*
X26351414Y-49733607D01*
X26396347Y-49699129D01*
X26452500Y-49706521D01*
X26486978Y-49751454D01*
X26489500Y-49770607D01*
X26489500Y-50160942D01*
X26467826Y-50213268D01*
X26039529Y-50641565D01*
X25987203Y-50663239D01*
X25968052Y-50660718D01*
X25952309Y-50656500D01*
X25833691Y-50656500D01*
X25833689Y-50656500D01*
X25719117Y-50687199D01*
X25719112Y-50687201D01*
X25616390Y-50746508D01*
X25532508Y-50830390D01*
X25473201Y-50933112D01*
X25473199Y-50933117D01*
X25442500Y-51047688D01*
X25442500Y-51166311D01*
X25473199Y-51280882D01*
X25473201Y-51280887D01*
X25532508Y-51383609D01*
X25532509Y-51383610D01*
X25532511Y-51383613D01*
X25616387Y-51467489D01*
X25616389Y-51467490D01*
X25616390Y-51467491D01*
X25707303Y-51519980D01*
X25719114Y-51526799D01*
X25719115Y-51526799D01*
X25719117Y-51526800D01*
X25776402Y-51542149D01*
X25833688Y-51557499D01*
X25833689Y-51557500D01*
X25833691Y-51557500D01*
X25952311Y-51557500D01*
X25952311Y-51557499D01*
X26066886Y-51526799D01*
X26169613Y-51467489D01*
X26253489Y-51383613D01*
X26312799Y-51280886D01*
X26343499Y-51166311D01*
X26343500Y-51166311D01*
X26343500Y-51047689D01*
X26339282Y-51031949D01*
X26346674Y-50975796D01*
X26358430Y-50960473D01*
X26832327Y-50486577D01*
X26832330Y-50486575D01*
X26842735Y-50476170D01*
X26842736Y-50476170D01*
X26906170Y-50412736D01*
X26925487Y-50366100D01*
X26940501Y-50329854D01*
X26940501Y-50240145D01*
X26940501Y-50234187D01*
X26940500Y-50234173D01*
X26940500Y-48358253D01*
X26962174Y-48305927D01*
X27014500Y-48284253D01*
X27066824Y-48305926D01*
X27101187Y-48340289D01*
X27101189Y-48340290D01*
X27101190Y-48340291D01*
X27203912Y-48399598D01*
X27203914Y-48399599D01*
X27203915Y-48399599D01*
X27203917Y-48399600D01*
X27209579Y-48401117D01*
X27318488Y-48430299D01*
X27318489Y-48430300D01*
X27318491Y-48430300D01*
X27437111Y-48430300D01*
X27437111Y-48430299D01*
X27551686Y-48399599D01*
X27654413Y-48340289D01*
X27738289Y-48256413D01*
X27797599Y-48153686D01*
X27828299Y-48039111D01*
X27828300Y-48039111D01*
X27828300Y-47920489D01*
X27828299Y-47920488D01*
X27797600Y-47805917D01*
X27797598Y-47805912D01*
X27738291Y-47703190D01*
X27738290Y-47703189D01*
X27738289Y-47703187D01*
X27654413Y-47619311D01*
X27640299Y-47611162D01*
X27605821Y-47566228D01*
X27603300Y-47547077D01*
X27603300Y-44455223D01*
X27624974Y-44402897D01*
X27640300Y-44391137D01*
X27654413Y-44382989D01*
X27738289Y-44299113D01*
X27797599Y-44196386D01*
X27828299Y-44081811D01*
X27828300Y-44081811D01*
X27828300Y-43963189D01*
X27828299Y-43963188D01*
X27797600Y-43848617D01*
X27797598Y-43848612D01*
X27738291Y-43745890D01*
X27738290Y-43745889D01*
X27738289Y-43745887D01*
X27654413Y-43662011D01*
X27654410Y-43662009D01*
X27654409Y-43662008D01*
X27551687Y-43602701D01*
X27551682Y-43602699D01*
X27437111Y-43572000D01*
X27437109Y-43572000D01*
X27318491Y-43572000D01*
X27318489Y-43572000D01*
X27203917Y-43602699D01*
X27203912Y-43602701D01*
X27101190Y-43662008D01*
X27101187Y-43662010D01*
X27101187Y-43662011D01*
X27066824Y-43696373D01*
X27014500Y-43718047D01*
X26962174Y-43696373D01*
X26940500Y-43644047D01*
X26940500Y-39553574D01*
X26962174Y-39501248D01*
X27002926Y-39480485D01*
X27007826Y-39479709D01*
X27007834Y-39479706D01*
X27007836Y-39479706D01*
X27195019Y-39418886D01*
X27195019Y-39418885D01*
X27195025Y-39418884D01*
X27370405Y-39329524D01*
X27529646Y-39213828D01*
X27668828Y-39074646D01*
X27683233Y-39054818D01*
X27731524Y-39025226D01*
X27786596Y-39038448D01*
X27816189Y-39086739D01*
X27817100Y-39098315D01*
X27817100Y-42470477D01*
X27795426Y-42522803D01*
X27780101Y-42534562D01*
X27765990Y-42542709D01*
X27765988Y-42542710D01*
X27682108Y-42626590D01*
X27622801Y-42729312D01*
X27622799Y-42729317D01*
X27592100Y-42843888D01*
X27592100Y-42962511D01*
X27622799Y-43077082D01*
X27622801Y-43077087D01*
X27682108Y-43179809D01*
X27682109Y-43179810D01*
X27682111Y-43179813D01*
X27765987Y-43263689D01*
X27868714Y-43322999D01*
X27868715Y-43322999D01*
X27868717Y-43323000D01*
X27926002Y-43338349D01*
X27983288Y-43353699D01*
X27983289Y-43353700D01*
X27983291Y-43353700D01*
X28101911Y-43353700D01*
X28101911Y-43353699D01*
X28216486Y-43322999D01*
X28319213Y-43263689D01*
X28403089Y-43179813D01*
X28462399Y-43077086D01*
X28493099Y-42962511D01*
X28493100Y-42962511D01*
X28493100Y-42843889D01*
X28493099Y-42843888D01*
X28462400Y-42729317D01*
X28462398Y-42729312D01*
X28403091Y-42626590D01*
X28403090Y-42626589D01*
X28403089Y-42626587D01*
X28319213Y-42542711D01*
X28305099Y-42534562D01*
X28270621Y-42489628D01*
X28268100Y-42470477D01*
X28268100Y-41070252D01*
X28289774Y-41017926D01*
X28342100Y-40996252D01*
X28394426Y-41017926D01*
X28415466Y-41060592D01*
X28415983Y-41064511D01*
X28435867Y-41215552D01*
X28507981Y-41484687D01*
X28614602Y-41742093D01*
X28614605Y-41742101D01*
X28753916Y-41983394D01*
X28753920Y-41983400D01*
X28923529Y-42204441D01*
X29120558Y-42401470D01*
X29341599Y-42571079D01*
X29341605Y-42571083D01*
X29437746Y-42626590D01*
X29582898Y-42710394D01*
X29840314Y-42817019D01*
X30109446Y-42889132D01*
X30385687Y-42925500D01*
X30385689Y-42925500D01*
X30664311Y-42925500D01*
X30664313Y-42925500D01*
X30940554Y-42889132D01*
X31209686Y-42817019D01*
X31467102Y-42710394D01*
X31708398Y-42571081D01*
X31839508Y-42470477D01*
X31929441Y-42401470D01*
X31929442Y-42401468D01*
X31929447Y-42401465D01*
X32126465Y-42204447D01*
X32163103Y-42156700D01*
X32246227Y-42048369D01*
X32296081Y-41983398D01*
X32435394Y-41742102D01*
X32542019Y-41484686D01*
X32614132Y-41215554D01*
X32650500Y-40939313D01*
X32650500Y-40660687D01*
X32614132Y-40384446D01*
X32542019Y-40115314D01*
X32435394Y-39857898D01*
X32381121Y-39763895D01*
X32296083Y-39616605D01*
X32296079Y-39616599D01*
X32126470Y-39395558D01*
X31929441Y-39198529D01*
X31708400Y-39028920D01*
X31708394Y-39028916D01*
X31467101Y-38889605D01*
X31467093Y-38889602D01*
X31209687Y-38782981D01*
X30940552Y-38710867D01*
X30717217Y-38681465D01*
X30664313Y-38674500D01*
X30385687Y-38674500D01*
X30332783Y-38681465D01*
X30109447Y-38710867D01*
X29840312Y-38782981D01*
X29582906Y-38889602D01*
X29582898Y-38889605D01*
X29341605Y-39028916D01*
X29341599Y-39028920D01*
X29120558Y-39198529D01*
X28923529Y-39395558D01*
X28753920Y-39616599D01*
X28753916Y-39616605D01*
X28614605Y-39857898D01*
X28614602Y-39857906D01*
X28507981Y-40115312D01*
X28435867Y-40384447D01*
X28415467Y-40539406D01*
X28387148Y-40588455D01*
X28332441Y-40603114D01*
X28283392Y-40574795D01*
X28268100Y-40529747D01*
X28268100Y-36971845D01*
X28268099Y-36971843D01*
X28233771Y-36888966D01*
X28233769Y-36888963D01*
X27156674Y-35811868D01*
X27135000Y-35759542D01*
X27135000Y-35154158D01*
X27156674Y-35101832D01*
X27209000Y-35080158D01*
X27261326Y-35101832D01*
X27305171Y-35145677D01*
X27305172Y-35145677D01*
X28113675Y-35954181D01*
X28904829Y-36745335D01*
X28968263Y-36808769D01*
X28968266Y-36808771D01*
X29008724Y-36825529D01*
X29051145Y-36843100D01*
X32113925Y-36843100D01*
X32113933Y-36843101D01*
X32122545Y-36843101D01*
X32212254Y-36843101D01*
X32212255Y-36843101D01*
X32270860Y-36818825D01*
X32295136Y-36808770D01*
X32309758Y-36794146D01*
X32362081Y-36772473D01*
X32405579Y-36786606D01*
X32409595Y-36789524D01*
X32584975Y-36878884D01*
X32584977Y-36878884D01*
X32584980Y-36878886D01*
X32772163Y-36939706D01*
X32772169Y-36939707D01*
X32772174Y-36939709D01*
X32901780Y-36960236D01*
X32966582Y-36970500D01*
X32966583Y-36970500D01*
X33163418Y-36970500D01*
X33212019Y-36962802D01*
X33357826Y-36939709D01*
X33357833Y-36939706D01*
X33357836Y-36939706D01*
X33545019Y-36878886D01*
X33545019Y-36878885D01*
X33545025Y-36878884D01*
X33720405Y-36789524D01*
X33724415Y-36786610D01*
X33779484Y-36773383D01*
X33820242Y-36794147D01*
X35236026Y-38209931D01*
X35257700Y-38262257D01*
X35257700Y-50387377D01*
X35236026Y-50439703D01*
X35220701Y-50451462D01*
X35206590Y-50459609D01*
X35206588Y-50459610D01*
X35122708Y-50543490D01*
X35063401Y-50646212D01*
X35063399Y-50646217D01*
X35032700Y-50760788D01*
X35032700Y-50879411D01*
X35063399Y-50993982D01*
X35063401Y-50993987D01*
X35122708Y-51096709D01*
X35122709Y-51096710D01*
X35122711Y-51096713D01*
X35206587Y-51180589D01*
X35309314Y-51239899D01*
X35309315Y-51239899D01*
X35309317Y-51239900D01*
X35366602Y-51255249D01*
X35423888Y-51270599D01*
X35423889Y-51270600D01*
X35423891Y-51270600D01*
X35542511Y-51270600D01*
X35542511Y-51270599D01*
X35657086Y-51239899D01*
X35759813Y-51180589D01*
X35843689Y-51096713D01*
X35902999Y-50993986D01*
X35933699Y-50879411D01*
X35933700Y-50879411D01*
X35933700Y-50760789D01*
X35933699Y-50760788D01*
X35930674Y-50749500D01*
X35914386Y-50688709D01*
X35903000Y-50646217D01*
X35902998Y-50646212D01*
X35843691Y-50543490D01*
X35843690Y-50543489D01*
X35843689Y-50543487D01*
X35759813Y-50459611D01*
X35745699Y-50451462D01*
X35711221Y-50406528D01*
X35708700Y-50387377D01*
X35708700Y-41029201D01*
X35730374Y-40976875D01*
X35782700Y-40955201D01*
X35819698Y-40965114D01*
X35873630Y-40996252D01*
X35908819Y-41016569D01*
X35914414Y-41019799D01*
X35914415Y-41019799D01*
X35914417Y-41019800D01*
X35971702Y-41035149D01*
X36028988Y-41050499D01*
X36028989Y-41050500D01*
X36028991Y-41050500D01*
X36147607Y-41050500D01*
X36147609Y-41050500D01*
X36163348Y-41046282D01*
X36219499Y-41053672D01*
X36234828Y-41065434D01*
X37154329Y-41984935D01*
X37154330Y-41984936D01*
X37217764Y-42048370D01*
X37300645Y-42082700D01*
X39596000Y-42082700D01*
X39648326Y-42104374D01*
X39670000Y-42156700D01*
X39670000Y-45792277D01*
X39648326Y-45844603D01*
X39633001Y-45856362D01*
X39618890Y-45864509D01*
X39618888Y-45864510D01*
X39535008Y-45948390D01*
X39475701Y-46051112D01*
X39475699Y-46051117D01*
X39445000Y-46165688D01*
X39445000Y-46284311D01*
X39475699Y-46398882D01*
X39475701Y-46398887D01*
X39535008Y-46501609D01*
X39535009Y-46501610D01*
X39535011Y-46501613D01*
X39618887Y-46585489D01*
X39618889Y-46585490D01*
X39618890Y-46585491D01*
X39721612Y-46644798D01*
X39721614Y-46644799D01*
X39721615Y-46644799D01*
X39721617Y-46644800D01*
X39778902Y-46660149D01*
X39836188Y-46675499D01*
X39836189Y-46675500D01*
X39836191Y-46675500D01*
X39954811Y-46675500D01*
X39954811Y-46675499D01*
X40069386Y-46644799D01*
X40172113Y-46585489D01*
X40255989Y-46501613D01*
X40315299Y-46398886D01*
X40345999Y-46284311D01*
X40346000Y-46284311D01*
X40346000Y-46165689D01*
X40345999Y-46165688D01*
X40315300Y-46051117D01*
X40315298Y-46051112D01*
X40255991Y-45948390D01*
X40255990Y-45948389D01*
X40255989Y-45948387D01*
X40172113Y-45864511D01*
X40157999Y-45856362D01*
X40123521Y-45811428D01*
X40121000Y-45792277D01*
X40121000Y-41981256D01*
X40142673Y-41928931D01*
X40264502Y-41807101D01*
X40281608Y-41794347D01*
X40282689Y-41793762D01*
X40301203Y-41770958D01*
X40306307Y-41765296D01*
X40327070Y-41744535D01*
X40327538Y-41743403D01*
X40338465Y-41725066D01*
X40339235Y-41724119D01*
X40347609Y-41695978D01*
X40350162Y-41688782D01*
X40361401Y-41661655D01*
X40361401Y-41660422D01*
X40364477Y-41639310D01*
X40364825Y-41638140D01*
X40364826Y-41638137D01*
X40361795Y-41608942D01*
X40361401Y-41601304D01*
X40361401Y-41571945D01*
X40361400Y-41571943D01*
X40360929Y-41570805D01*
X40355691Y-41550126D01*
X40352637Y-41520700D01*
X40304837Y-41060147D01*
X40320994Y-41005865D01*
X40326097Y-41000204D01*
X40396389Y-40929913D01*
X40455699Y-40827186D01*
X40486399Y-40712611D01*
X40486400Y-40712611D01*
X40486400Y-40593989D01*
X40486399Y-40593988D01*
X40484916Y-40588455D01*
X40455699Y-40479414D01*
X40424925Y-40426112D01*
X40396391Y-40376690D01*
X40396390Y-40376689D01*
X40396389Y-40376687D01*
X40312513Y-40292811D01*
X40312510Y-40292809D01*
X40312509Y-40292808D01*
X40209787Y-40233501D01*
X40209782Y-40233499D01*
X40095211Y-40202800D01*
X40095209Y-40202800D01*
X39976591Y-40202800D01*
X39976589Y-40202800D01*
X39862017Y-40233499D01*
X39862012Y-40233501D01*
X39759290Y-40292808D01*
X39675408Y-40376690D01*
X39616101Y-40479412D01*
X39616099Y-40479417D01*
X39611278Y-40497412D01*
X39576800Y-40542345D01*
X39520647Y-40549737D01*
X39475714Y-40515259D01*
X39465800Y-40478259D01*
X39465800Y-36724123D01*
X39487474Y-36671797D01*
X39502800Y-36660037D01*
X39516913Y-36651889D01*
X39600789Y-36568013D01*
X39660099Y-36465286D01*
X39690799Y-36350711D01*
X39690800Y-36350711D01*
X39690800Y-36232089D01*
X39690799Y-36232088D01*
X39687771Y-36220789D01*
X39660099Y-36117514D01*
X39633623Y-36071657D01*
X39600791Y-36014790D01*
X39600790Y-36014789D01*
X39600789Y-36014787D01*
X39516913Y-35930911D01*
X39516910Y-35930909D01*
X39516909Y-35930908D01*
X39414187Y-35871601D01*
X39414182Y-35871599D01*
X39299611Y-35840900D01*
X39299609Y-35840900D01*
X39180991Y-35840900D01*
X39180989Y-35840900D01*
X39066417Y-35871599D01*
X39066412Y-35871601D01*
X38963690Y-35930908D01*
X38879811Y-36014786D01*
X38871663Y-36028900D01*
X38826730Y-36063378D01*
X38807577Y-36065900D01*
X38128758Y-36065900D01*
X38076432Y-36044226D01*
X34888534Y-32856329D01*
X34866860Y-32804003D01*
X34869381Y-32784853D01*
X34873600Y-32769109D01*
X34873600Y-32650491D01*
X34873600Y-32650489D01*
X34873599Y-32650488D01*
X34842900Y-32535917D01*
X34842898Y-32535912D01*
X34783591Y-32433190D01*
X34783590Y-32433189D01*
X34783589Y-32433187D01*
X34699713Y-32349311D01*
X34699710Y-32349309D01*
X34699709Y-32349308D01*
X34596987Y-32290001D01*
X34596982Y-32289999D01*
X34482411Y-32259300D01*
X34482409Y-32259300D01*
X34363791Y-32259300D01*
X34363789Y-32259300D01*
X34249217Y-32289999D01*
X34249212Y-32290001D01*
X34146490Y-32349308D01*
X34062608Y-32433190D01*
X34003301Y-32535912D01*
X34003299Y-32535917D01*
X33972600Y-32650488D01*
X33972600Y-32769111D01*
X34003299Y-32883682D01*
X34003301Y-32883687D01*
X34062608Y-32986409D01*
X34062609Y-32986410D01*
X34062611Y-32986413D01*
X34146487Y-33070289D01*
X34146489Y-33070290D01*
X34146490Y-33070291D01*
X34249212Y-33129598D01*
X34249214Y-33129599D01*
X34249215Y-33129599D01*
X34249217Y-33129600D01*
X34306502Y-33144949D01*
X34363788Y-33160299D01*
X34363789Y-33160300D01*
X34363791Y-33160300D01*
X34482409Y-33160300D01*
X34498149Y-33156082D01*
X34554300Y-33163473D01*
X34569628Y-33175233D01*
X36228899Y-34834505D01*
X37876963Y-36482569D01*
X37876966Y-36482571D01*
X37918404Y-36499735D01*
X37959845Y-36516900D01*
X38049554Y-36516900D01*
X38807577Y-36516900D01*
X38859903Y-36538574D01*
X38871662Y-36553899D01*
X38879811Y-36568013D01*
X38963687Y-36651889D01*
X38977800Y-36660037D01*
X39012278Y-36704970D01*
X39014800Y-36724123D01*
X39014800Y-38691255D01*
X38993126Y-38743581D01*
X38940800Y-38765255D01*
X38903800Y-38755341D01*
X38854888Y-38727102D01*
X38854882Y-38727099D01*
X38740311Y-38696400D01*
X38740309Y-38696400D01*
X38621691Y-38696400D01*
X38605948Y-38700618D01*
X38549796Y-38693224D01*
X38534471Y-38681465D01*
X37873985Y-38020979D01*
X37852311Y-37968653D01*
X37854833Y-37949500D01*
X37863907Y-37915636D01*
X37878999Y-37859311D01*
X37879000Y-37859311D01*
X37879000Y-37740689D01*
X37878999Y-37740688D01*
X37848300Y-37626117D01*
X37848298Y-37626112D01*
X37788991Y-37523390D01*
X37788990Y-37523389D01*
X37788989Y-37523387D01*
X37705113Y-37439511D01*
X37705110Y-37439509D01*
X37705109Y-37439508D01*
X37602387Y-37380201D01*
X37602382Y-37380199D01*
X37487811Y-37349500D01*
X37487809Y-37349500D01*
X37369191Y-37349500D01*
X37369189Y-37349500D01*
X37254617Y-37380199D01*
X37254612Y-37380201D01*
X37151890Y-37439508D01*
X37068008Y-37523390D01*
X37008701Y-37626112D01*
X37008699Y-37626117D01*
X36978000Y-37740688D01*
X36978000Y-37859311D01*
X37008699Y-37973882D01*
X37008701Y-37973887D01*
X37068008Y-38076609D01*
X37068009Y-38076610D01*
X37068011Y-38076613D01*
X37151887Y-38160489D01*
X37151889Y-38160490D01*
X37151890Y-38160491D01*
X37237522Y-38209931D01*
X37254614Y-38219799D01*
X37254615Y-38219799D01*
X37254617Y-38219800D01*
X37298674Y-38231605D01*
X37369188Y-38250499D01*
X37369189Y-38250500D01*
X37369191Y-38250500D01*
X37435043Y-38250500D01*
X37487368Y-38272173D01*
X38215565Y-39000371D01*
X38237239Y-39052696D01*
X38234718Y-39071846D01*
X38230500Y-39087588D01*
X38230500Y-39206211D01*
X38261199Y-39320782D01*
X38261201Y-39320787D01*
X38320508Y-39423509D01*
X38320509Y-39423510D01*
X38320511Y-39423513D01*
X38404387Y-39507389D01*
X38404389Y-39507390D01*
X38404390Y-39507391D01*
X38507112Y-39566698D01*
X38507114Y-39566699D01*
X38507115Y-39566699D01*
X38507117Y-39566700D01*
X38564402Y-39582049D01*
X38621688Y-39597399D01*
X38621689Y-39597400D01*
X38621691Y-39597400D01*
X38740311Y-39597400D01*
X38740311Y-39597399D01*
X38854886Y-39566699D01*
X38903800Y-39538457D01*
X38959952Y-39531065D01*
X39004886Y-39565543D01*
X39014800Y-39602544D01*
X39014800Y-40817277D01*
X38993126Y-40869603D01*
X38977801Y-40881362D01*
X38963690Y-40889509D01*
X38963688Y-40889510D01*
X38879808Y-40973390D01*
X38820501Y-41076112D01*
X38820499Y-41076117D01*
X38789800Y-41190688D01*
X38789800Y-41309311D01*
X38820499Y-41423882D01*
X38820501Y-41423887D01*
X38876397Y-41520700D01*
X38883790Y-41576852D01*
X38849311Y-41621786D01*
X38812311Y-41631700D01*
X37469558Y-41631700D01*
X37417232Y-41610026D01*
X36553734Y-40746528D01*
X36532060Y-40694202D01*
X36534580Y-40675054D01*
X36538800Y-40659309D01*
X36538800Y-40540691D01*
X36538800Y-40540689D01*
X36538799Y-40540688D01*
X36538455Y-40539406D01*
X36508099Y-40426114D01*
X36508098Y-40426112D01*
X36448791Y-40323390D01*
X36448790Y-40323389D01*
X36448789Y-40323387D01*
X36364913Y-40239511D01*
X36364910Y-40239509D01*
X36364909Y-40239508D01*
X36262187Y-40180201D01*
X36262182Y-40180199D01*
X36147611Y-40149500D01*
X36147609Y-40149500D01*
X36028991Y-40149500D01*
X36028989Y-40149500D01*
X35914417Y-40180199D01*
X35914412Y-40180201D01*
X35819700Y-40234884D01*
X35763547Y-40242277D01*
X35718614Y-40207798D01*
X35708700Y-40170798D01*
X35708700Y-38093345D01*
X35708699Y-38093343D01*
X35674371Y-38010466D01*
X35674369Y-38010463D01*
X35606721Y-37942815D01*
X35606714Y-37942809D01*
X34139147Y-36475242D01*
X34117473Y-36422916D01*
X34131610Y-36379415D01*
X34134524Y-36375405D01*
X34223884Y-36200025D01*
X34249590Y-36120911D01*
X34284706Y-36012836D01*
X34284706Y-36012833D01*
X34284709Y-36012826D01*
X34315500Y-35818417D01*
X34315500Y-35621583D01*
X34284709Y-35427174D01*
X34284707Y-35427169D01*
X34284706Y-35427163D01*
X34223886Y-35239980D01*
X34223884Y-35239977D01*
X34223884Y-35239975D01*
X34134524Y-35064595D01*
X34057426Y-34958479D01*
X34018831Y-34905358D01*
X34018830Y-34905357D01*
X34018828Y-34905354D01*
X33879646Y-34766172D01*
X33879643Y-34766169D01*
X33879641Y-34766168D01*
X33720404Y-34650475D01*
X33545019Y-34561113D01*
X33357836Y-34500293D01*
X33357823Y-34500290D01*
X33163418Y-34469500D01*
X33163417Y-34469500D01*
X32966583Y-34469500D01*
X32966582Y-34469500D01*
X32772176Y-34500290D01*
X32772163Y-34500293D01*
X32584980Y-34561113D01*
X32409595Y-34650475D01*
X32250358Y-34766168D01*
X32111168Y-34905358D01*
X31995475Y-35064595D01*
X31906113Y-35239980D01*
X31845293Y-35427163D01*
X31845290Y-35427176D01*
X31814500Y-35621582D01*
X31814500Y-35818417D01*
X31845290Y-36012823D01*
X31845293Y-36012836D01*
X31906113Y-36200019D01*
X31906115Y-36200024D01*
X31906116Y-36200025D01*
X31949161Y-36284506D01*
X31953604Y-36340968D01*
X31916821Y-36384035D01*
X31883226Y-36392100D01*
X29746650Y-36392100D01*
X29694324Y-36370426D01*
X29672650Y-36318100D01*
X29682564Y-36281100D01*
X29708898Y-36235487D01*
X29708899Y-36235486D01*
X29739599Y-36120911D01*
X29739600Y-36120911D01*
X29739600Y-36002289D01*
X29739599Y-36002288D01*
X29708900Y-35887717D01*
X29708898Y-35887712D01*
X29649591Y-35784990D01*
X29649590Y-35784989D01*
X29649589Y-35784987D01*
X29565713Y-35701111D01*
X29551599Y-35692962D01*
X29517121Y-35648028D01*
X29514600Y-35628877D01*
X29514600Y-33043856D01*
X29536273Y-32991531D01*
X30537770Y-31990033D01*
X30590095Y-31968360D01*
X30609249Y-31970882D01*
X30624990Y-31975100D01*
X30624991Y-31975100D01*
X30743611Y-31975100D01*
X30743611Y-31975099D01*
X30858186Y-31944399D01*
X30960913Y-31885089D01*
X31044789Y-31801213D01*
X31052937Y-31787099D01*
X31097870Y-31752622D01*
X31117023Y-31750100D01*
X31169245Y-31750100D01*
X31254443Y-31750100D01*
X31306769Y-31771774D01*
X35668565Y-36133570D01*
X35690239Y-36185896D01*
X35687718Y-36205046D01*
X35683500Y-36220788D01*
X35683500Y-36339411D01*
X35714199Y-36453982D01*
X35714201Y-36453987D01*
X35773508Y-36556709D01*
X35773509Y-36556710D01*
X35773511Y-36556713D01*
X35857387Y-36640589D01*
X35857389Y-36640590D01*
X35857390Y-36640591D01*
X35911440Y-36671797D01*
X35960114Y-36699899D01*
X35960115Y-36699899D01*
X35960117Y-36699900D01*
X35979039Y-36704970D01*
X36074688Y-36730599D01*
X36074689Y-36730600D01*
X36074691Y-36730600D01*
X36193311Y-36730600D01*
X36193311Y-36730599D01*
X36307886Y-36699899D01*
X36410613Y-36640589D01*
X36494489Y-36556713D01*
X36553799Y-36453986D01*
X36584499Y-36339411D01*
X36584500Y-36339411D01*
X36584500Y-36220789D01*
X36584499Y-36220788D01*
X36553800Y-36106217D01*
X36553798Y-36106212D01*
X36494491Y-36003490D01*
X36494490Y-36003489D01*
X36494489Y-36003487D01*
X36410613Y-35919611D01*
X36410610Y-35919609D01*
X36410609Y-35919608D01*
X36307887Y-35860301D01*
X36307882Y-35860299D01*
X36193311Y-35829600D01*
X36193309Y-35829600D01*
X36074691Y-35829600D01*
X36074690Y-35829600D01*
X36058946Y-35833818D01*
X36002794Y-35826424D01*
X35987470Y-35814665D01*
X31580078Y-31407273D01*
X31580078Y-31407272D01*
X31506237Y-31333431D01*
X31506236Y-31333430D01*
X31485281Y-31324750D01*
X31445233Y-31284701D01*
X31439600Y-31256383D01*
X31439600Y-27683023D01*
X31461274Y-27630697D01*
X31476600Y-27618937D01*
X31490713Y-27610789D01*
X31574589Y-27526913D01*
X31633899Y-27424186D01*
X31664599Y-27309611D01*
X31664600Y-27309611D01*
X31664600Y-27218157D01*
X31686274Y-27165831D01*
X31738600Y-27144157D01*
X31790926Y-27165831D01*
X32948452Y-28323357D01*
X32970126Y-28375683D01*
X32967604Y-28394836D01*
X32940500Y-28495988D01*
X32940500Y-28614611D01*
X32971199Y-28729182D01*
X32971201Y-28729187D01*
X33030508Y-28831909D01*
X33030509Y-28831910D01*
X33030511Y-28831913D01*
X33114387Y-28915789D01*
X33114389Y-28915790D01*
X33114390Y-28915791D01*
X33205315Y-28968287D01*
X33217114Y-28975099D01*
X33217115Y-28975099D01*
X33217117Y-28975100D01*
X33274402Y-28990449D01*
X33331688Y-29005799D01*
X33331689Y-29005800D01*
X33331691Y-29005800D01*
X33450311Y-29005800D01*
X33450311Y-29005799D01*
X33564886Y-28975099D01*
X33667613Y-28915789D01*
X33751489Y-28831913D01*
X33810799Y-28729186D01*
X33841499Y-28614611D01*
X33841500Y-28614611D01*
X33841500Y-28495989D01*
X33841499Y-28495988D01*
X33810800Y-28381417D01*
X33810798Y-28381412D01*
X33751491Y-28278690D01*
X33751490Y-28278689D01*
X33751489Y-28278687D01*
X33667613Y-28194811D01*
X33667610Y-28194809D01*
X33667609Y-28194808D01*
X33564887Y-28135501D01*
X33564882Y-28135499D01*
X33450311Y-28104800D01*
X33450309Y-28104800D01*
X33398357Y-28104800D01*
X33346031Y-28083126D01*
X32071931Y-26809026D01*
X32050257Y-26756700D01*
X32071931Y-26704374D01*
X32124257Y-26682700D01*
X34670643Y-26682700D01*
X34722969Y-26704374D01*
X35768465Y-27749870D01*
X35790139Y-27802196D01*
X35787618Y-27821346D01*
X35783400Y-27837088D01*
X35783400Y-27955711D01*
X35814099Y-28070282D01*
X35814101Y-28070287D01*
X35873408Y-28173009D01*
X35873409Y-28173010D01*
X35873411Y-28173013D01*
X35957287Y-28256889D01*
X35957289Y-28256890D01*
X35957290Y-28256891D01*
X36060012Y-28316198D01*
X36060014Y-28316199D01*
X36060015Y-28316199D01*
X36060017Y-28316200D01*
X36105403Y-28328361D01*
X36174588Y-28346899D01*
X36174589Y-28346900D01*
X36236742Y-28346900D01*
X36289068Y-28368574D01*
X36310742Y-28420900D01*
X36289068Y-28473226D01*
X34467228Y-30295065D01*
X34414902Y-30316739D01*
X34395753Y-30314218D01*
X34380009Y-30310000D01*
X34261391Y-30310000D01*
X34261389Y-30310000D01*
X34146817Y-30340699D01*
X34146812Y-30340701D01*
X34044090Y-30400008D01*
X33960208Y-30483890D01*
X33900901Y-30586612D01*
X33900899Y-30586617D01*
X33870200Y-30701188D01*
X33870200Y-30819811D01*
X33900899Y-30934382D01*
X33900901Y-30934387D01*
X33960208Y-31037109D01*
X33960209Y-31037110D01*
X33960211Y-31037113D01*
X34044087Y-31120989D01*
X34044089Y-31120990D01*
X34044090Y-31120991D01*
X34146812Y-31180298D01*
X34146814Y-31180299D01*
X34146815Y-31180299D01*
X34146817Y-31180300D01*
X34204102Y-31195649D01*
X34261388Y-31210999D01*
X34261389Y-31211000D01*
X34261391Y-31211000D01*
X34380011Y-31211000D01*
X34380011Y-31210999D01*
X34494586Y-31180299D01*
X34597313Y-31120989D01*
X34681189Y-31037113D01*
X34740499Y-30934386D01*
X34771199Y-30819811D01*
X34771200Y-30819811D01*
X34771200Y-30701189D01*
X34766982Y-30685449D01*
X34774374Y-30629296D01*
X34786130Y-30613973D01*
X35714551Y-29685552D01*
X35766876Y-29663879D01*
X35819202Y-29685553D01*
X35840876Y-29737879D01*
X35838354Y-29757032D01*
X35822188Y-29817370D01*
X35819500Y-29827400D01*
X35819500Y-29952603D01*
X35851904Y-30073535D01*
X35889000Y-30137787D01*
X35914505Y-30181964D01*
X36003036Y-30270495D01*
X36111464Y-30333095D01*
X36111463Y-30333095D01*
X36147276Y-30342691D01*
X36232396Y-30365499D01*
X36232397Y-30365500D01*
X36232399Y-30365500D01*
X36357603Y-30365500D01*
X36357603Y-30365499D01*
X36478536Y-30333095D01*
X36586964Y-30270495D01*
X36675495Y-30181964D01*
X36738095Y-30073536D01*
X36770499Y-29952603D01*
X36770500Y-29952603D01*
X36770500Y-29827397D01*
X36770499Y-29827396D01*
X36738095Y-29706464D01*
X36675495Y-29598036D01*
X36586963Y-29509504D01*
X36478534Y-29446904D01*
X36478536Y-29446904D01*
X36357603Y-29414500D01*
X36357601Y-29414500D01*
X36232399Y-29414500D01*
X36162032Y-29433355D01*
X36105879Y-29425962D01*
X36071400Y-29381029D01*
X36078793Y-29324876D01*
X36090549Y-29309554D01*
X36874827Y-28525277D01*
X36874830Y-28525275D01*
X36885235Y-28514870D01*
X36885236Y-28514870D01*
X36948670Y-28451436D01*
X36966936Y-28407338D01*
X36983001Y-28368554D01*
X36983001Y-28278845D01*
X36983001Y-28272887D01*
X36983000Y-28272873D01*
X36983000Y-27756375D01*
X36983001Y-27756366D01*
X36983001Y-27658044D01*
X36954303Y-27588763D01*
X36948670Y-27575164D01*
X36881021Y-27507515D01*
X36881014Y-27507509D01*
X33420901Y-24047396D01*
X35819500Y-24047396D01*
X35819500Y-24172603D01*
X35851904Y-24293535D01*
X35864881Y-24316011D01*
X35914505Y-24401964D01*
X36003036Y-24490495D01*
X36111464Y-24553095D01*
X36111463Y-24553095D01*
X36181286Y-24571804D01*
X36232396Y-24585499D01*
X36232397Y-24585500D01*
X36232399Y-24585500D01*
X36357603Y-24585500D01*
X36357603Y-24585499D01*
X36478536Y-24553095D01*
X36586964Y-24490495D01*
X36675495Y-24401964D01*
X36738095Y-24293536D01*
X36770499Y-24172603D01*
X36770500Y-24172603D01*
X36770500Y-24047397D01*
X36770499Y-24047396D01*
X36738095Y-23926464D01*
X36675495Y-23818036D01*
X36586963Y-23729504D01*
X36507584Y-23683676D01*
X36478536Y-23666905D01*
X36478535Y-23666904D01*
X36478536Y-23666904D01*
X36357603Y-23634500D01*
X36357601Y-23634500D01*
X36232399Y-23634500D01*
X36232397Y-23634500D01*
X36111464Y-23666904D01*
X36003036Y-23729504D01*
X35914504Y-23818036D01*
X35851904Y-23926464D01*
X35819500Y-24047396D01*
X33420901Y-24047396D01*
X33109378Y-23735873D01*
X33109378Y-23735872D01*
X33035538Y-23662032D01*
X33035536Y-23662030D01*
X33011260Y-23651974D01*
X33011258Y-23651973D01*
X33011258Y-23651972D01*
X32952655Y-23627699D01*
X32862945Y-23627699D01*
X32854333Y-23627699D01*
X32854325Y-23627700D01*
X32491223Y-23627700D01*
X32438897Y-23606026D01*
X32427137Y-23590700D01*
X32418989Y-23576587D01*
X32335113Y-23492711D01*
X32335110Y-23492709D01*
X32335109Y-23492708D01*
X32232387Y-23433401D01*
X32232382Y-23433399D01*
X32117811Y-23402700D01*
X32117809Y-23402700D01*
X31999191Y-23402700D01*
X31999189Y-23402700D01*
X31884617Y-23433399D01*
X31884612Y-23433401D01*
X31781890Y-23492708D01*
X31698008Y-23576590D01*
X31638701Y-23679312D01*
X31638699Y-23679317D01*
X31608000Y-23793888D01*
X31608000Y-23912511D01*
X31638699Y-24027082D01*
X31638701Y-24027087D01*
X31698008Y-24129809D01*
X31698009Y-24129810D01*
X31698011Y-24129813D01*
X31781887Y-24213689D01*
X31884614Y-24272999D01*
X31884615Y-24272999D01*
X31884617Y-24273000D01*
X31941902Y-24288349D01*
X31999188Y-24303699D01*
X31999189Y-24303700D01*
X31999191Y-24303700D01*
X32117811Y-24303700D01*
X32117811Y-24303699D01*
X32232386Y-24272999D01*
X32335113Y-24213689D01*
X32418989Y-24129813D01*
X32427137Y-24115699D01*
X32472070Y-24081222D01*
X32491223Y-24078700D01*
X32783743Y-24078700D01*
X32836069Y-24100374D01*
X34841068Y-26105373D01*
X34862742Y-26157699D01*
X34841068Y-26210025D01*
X34788742Y-26231699D01*
X34741233Y-26231699D01*
X34741225Y-26231700D01*
X30785745Y-26231700D01*
X30702866Y-26266028D01*
X28707029Y-28261865D01*
X28707027Y-28261868D01*
X28700972Y-28276488D01*
X28700972Y-28276489D01*
X28672699Y-28344745D01*
X28672699Y-28443066D01*
X28672700Y-28443075D01*
X28672700Y-30028477D01*
X28651026Y-30080803D01*
X28635701Y-30092562D01*
X28621590Y-30100709D01*
X28621588Y-30100710D01*
X28537708Y-30184590D01*
X28478401Y-30287312D01*
X28478399Y-30287317D01*
X28447700Y-30401888D01*
X28447700Y-30520511D01*
X28478399Y-30635082D01*
X28478401Y-30635087D01*
X28537708Y-30737809D01*
X28537709Y-30737810D01*
X28537711Y-30737813D01*
X28621587Y-30821689D01*
X28621589Y-30821690D01*
X28621590Y-30821691D01*
X28644162Y-30834723D01*
X28724314Y-30880999D01*
X28724315Y-30880999D01*
X28724317Y-30881000D01*
X28760485Y-30890691D01*
X28838888Y-30911699D01*
X28838889Y-30911700D01*
X28838891Y-30911700D01*
X28957511Y-30911700D01*
X28957511Y-30911699D01*
X29072086Y-30880999D01*
X29174813Y-30821689D01*
X29258689Y-30737813D01*
X29287514Y-30687886D01*
X29332447Y-30653409D01*
X29388600Y-30660801D01*
X29423078Y-30705734D01*
X29425600Y-30724887D01*
X29425600Y-30879200D01*
X29403926Y-30931526D01*
X29351600Y-30953200D01*
X29283491Y-30953200D01*
X29205081Y-30974209D01*
X29205076Y-30974211D01*
X29168914Y-30983901D01*
X29096010Y-31025992D01*
X29095992Y-31026001D01*
X29066192Y-31043207D01*
X29066191Y-31043207D01*
X28982308Y-31127090D01*
X28923001Y-31229812D01*
X28922999Y-31229817D01*
X28892300Y-31344388D01*
X28892300Y-31463011D01*
X28922999Y-31577582D01*
X28923001Y-31577587D01*
X28982308Y-31680309D01*
X28982309Y-31680310D01*
X28982311Y-31680313D01*
X29066187Y-31764189D01*
X29066189Y-31764190D01*
X29066190Y-31764191D01*
X29130314Y-31801213D01*
X29168914Y-31823499D01*
X29168915Y-31823499D01*
X29168917Y-31823500D01*
X29226202Y-31838849D01*
X29283488Y-31854199D01*
X29283489Y-31854200D01*
X29283491Y-31854200D01*
X29402111Y-31854200D01*
X29402111Y-31854199D01*
X29516686Y-31823499D01*
X29619413Y-31764189D01*
X29703289Y-31680313D01*
X29762599Y-31577586D01*
X29793299Y-31463011D01*
X29793300Y-31463011D01*
X29793300Y-31344389D01*
X29789082Y-31328647D01*
X29796476Y-31272495D01*
X29808232Y-31257173D01*
X29842270Y-31223136D01*
X29858476Y-31184011D01*
X29876601Y-31140255D01*
X29876601Y-31050545D01*
X29876601Y-31044587D01*
X29876600Y-31044573D01*
X29876600Y-28154957D01*
X29898274Y-28102631D01*
X30277518Y-27723387D01*
X30657690Y-27343214D01*
X30710015Y-27321541D01*
X30762341Y-27343215D01*
X30781493Y-27376388D01*
X30794299Y-27424182D01*
X30794301Y-27424187D01*
X30853608Y-27526909D01*
X30853609Y-27526910D01*
X30853611Y-27526913D01*
X30937487Y-27610789D01*
X30951600Y-27618937D01*
X30986078Y-27663870D01*
X30988600Y-27683023D01*
X30988600Y-31051923D01*
X30966926Y-31104249D01*
X30914600Y-31125923D01*
X30877601Y-31116010D01*
X30870178Y-31111724D01*
X30858186Y-31104801D01*
X30858184Y-31104800D01*
X30858182Y-31104799D01*
X30743611Y-31074100D01*
X30743609Y-31074100D01*
X30624991Y-31074100D01*
X30624989Y-31074100D01*
X30510417Y-31104799D01*
X30510412Y-31104801D01*
X30407690Y-31164108D01*
X30323808Y-31247990D01*
X30264501Y-31350712D01*
X30264499Y-31350717D01*
X30233800Y-31465288D01*
X30233800Y-31465291D01*
X30233800Y-31583909D01*
X30236990Y-31595814D01*
X30238018Y-31599650D01*
X30230625Y-31655802D01*
X30218865Y-31671128D01*
X29161365Y-32728629D01*
X29097930Y-32792064D01*
X29092297Y-32805663D01*
X29063599Y-32874944D01*
X29063599Y-32973266D01*
X29063600Y-32973275D01*
X29063600Y-35628877D01*
X29041926Y-35681203D01*
X29026601Y-35692962D01*
X29012490Y-35701109D01*
X29012488Y-35701110D01*
X28928608Y-35784990D01*
X28869301Y-35887712D01*
X28869300Y-35887714D01*
X28863530Y-35909249D01*
X28829050Y-35954181D01*
X28772897Y-35961572D01*
X28739726Y-35942420D01*
X27669674Y-34872368D01*
X27648000Y-34820042D01*
X27648000Y-30834723D01*
X27669674Y-30782397D01*
X27685000Y-30770637D01*
X27699113Y-30762489D01*
X27782989Y-30678613D01*
X27842299Y-30575886D01*
X27872999Y-30461311D01*
X27873000Y-30461311D01*
X27873000Y-30342689D01*
X27872999Y-30342688D01*
X27868096Y-30324391D01*
X27845620Y-30240509D01*
X27842300Y-30228117D01*
X27842298Y-30228112D01*
X27782991Y-30125390D01*
X27782990Y-30125389D01*
X27782989Y-30125387D01*
X27699113Y-30041511D01*
X27699110Y-30041509D01*
X27699109Y-30041508D01*
X27596387Y-29982201D01*
X27596382Y-29982199D01*
X27481811Y-29951500D01*
X27481809Y-29951500D01*
X27363191Y-29951500D01*
X27363189Y-29951500D01*
X27248617Y-29982199D01*
X27248611Y-29982202D01*
X27246000Y-29983710D01*
X27244491Y-29983908D01*
X27244131Y-29984058D01*
X27244090Y-29983961D01*
X27189847Y-29991102D01*
X27144914Y-29956624D01*
X27135000Y-29919624D01*
X27135000Y-17914556D01*
X27156673Y-17862231D01*
X33253470Y-11765433D01*
X33305795Y-11743760D01*
X33324949Y-11746282D01*
X33340690Y-11750500D01*
X33340691Y-11750500D01*
X33394877Y-11750500D01*
X33447203Y-11772174D01*
X36577826Y-14902797D01*
X36599500Y-14955123D01*
X36599500Y-21039564D01*
X36619977Y-21115985D01*
X36619979Y-21115990D01*
X36659540Y-21184511D01*
X37577826Y-22102797D01*
X37599500Y-22155123D01*
X37599500Y-31844877D01*
X37577826Y-31897203D01*
X37447203Y-32027826D01*
X37394877Y-32049500D01*
X37340689Y-32049500D01*
X37226117Y-32080199D01*
X37226112Y-32080201D01*
X37123390Y-32139508D01*
X37039508Y-32223390D01*
X36980201Y-32326112D01*
X36980199Y-32326117D01*
X36949500Y-32440688D01*
X36949500Y-32559311D01*
X36980199Y-32673882D01*
X36980201Y-32673887D01*
X37039508Y-32776609D01*
X37039509Y-32776610D01*
X37039511Y-32776613D01*
X37123387Y-32860489D01*
X37123389Y-32860490D01*
X37123390Y-32860491D01*
X37223940Y-32918544D01*
X37226114Y-32919799D01*
X37226115Y-32919799D01*
X37226117Y-32919800D01*
X37283402Y-32935149D01*
X37340688Y-32950499D01*
X37340689Y-32950500D01*
X37340691Y-32950500D01*
X37459311Y-32950500D01*
X37459311Y-32950499D01*
X37527336Y-32932272D01*
X37578571Y-32918544D01*
X37579097Y-32920508D01*
X37628806Y-32920500D01*
X37668861Y-32960542D01*
X37674499Y-32988872D01*
X37674499Y-33012655D01*
X37698372Y-33070289D01*
X37708830Y-33095536D01*
X37772264Y-33158970D01*
X37782671Y-33169377D01*
X37782673Y-33169378D01*
X39376765Y-34763470D01*
X39398439Y-34815796D01*
X39395918Y-34834946D01*
X39391700Y-34850688D01*
X39391700Y-34969311D01*
X39422399Y-35083882D01*
X39422401Y-35083887D01*
X39481708Y-35186609D01*
X39481709Y-35186610D01*
X39481711Y-35186613D01*
X39565587Y-35270489D01*
X39565589Y-35270490D01*
X39565590Y-35270491D01*
X39594550Y-35287211D01*
X39668314Y-35329799D01*
X39668315Y-35329799D01*
X39668317Y-35329800D01*
X39722126Y-35344218D01*
X39782888Y-35360499D01*
X39782889Y-35360500D01*
X39782891Y-35360500D01*
X39901511Y-35360500D01*
X39901511Y-35360499D01*
X40016086Y-35329799D01*
X40118813Y-35270489D01*
X40202689Y-35186613D01*
X40261999Y-35083886D01*
X40292699Y-34969311D01*
X40292700Y-34969311D01*
X40292700Y-34850689D01*
X40292699Y-34850688D01*
X40284487Y-34820042D01*
X40261999Y-34736114D01*
X40258291Y-34729691D01*
X40202691Y-34633390D01*
X40202690Y-34633389D01*
X40202689Y-34633387D01*
X40118813Y-34549511D01*
X40118810Y-34549509D01*
X40118809Y-34549508D01*
X40016087Y-34490201D01*
X40016082Y-34490199D01*
X39901511Y-34459500D01*
X39901509Y-34459500D01*
X39782891Y-34459500D01*
X39782890Y-34459500D01*
X39767146Y-34463718D01*
X39710994Y-34456324D01*
X39695670Y-34444565D01*
X38147174Y-32896069D01*
X38125500Y-32843743D01*
X38125500Y-32229126D01*
X38139029Y-32189286D01*
X38138035Y-32188712D01*
X38166441Y-32139511D01*
X38180022Y-32115988D01*
X38200500Y-32039562D01*
X38200500Y-31960438D01*
X38200500Y-21960438D01*
X38180022Y-21884012D01*
X38140460Y-21815489D01*
X37222174Y-20897203D01*
X37200500Y-20844877D01*
X37200500Y-14760436D01*
X37200499Y-14760435D01*
X37180022Y-14684014D01*
X37180020Y-14684009D01*
X37158537Y-14646799D01*
X37140460Y-14615489D01*
X37084511Y-14559540D01*
X33872174Y-11347203D01*
X33850500Y-11294877D01*
X33850500Y-11240689D01*
X33850499Y-11240688D01*
X33819800Y-11126117D01*
X33819798Y-11126112D01*
X33760491Y-11023390D01*
X33760490Y-11023389D01*
X33760489Y-11023387D01*
X33676613Y-10939511D01*
X33676610Y-10939509D01*
X33676609Y-10939508D01*
X33573887Y-10880201D01*
X33573882Y-10880199D01*
X33459311Y-10849500D01*
X33459309Y-10849500D01*
X33340691Y-10849500D01*
X33340690Y-10849500D01*
X33324946Y-10853718D01*
X33268794Y-10846324D01*
X33253470Y-10834565D01*
X32783174Y-10364269D01*
X32761500Y-10311943D01*
X32761500Y-5620823D01*
X32783174Y-5568497D01*
X32798500Y-5556737D01*
X32812613Y-5548589D01*
X32896489Y-5464713D01*
X32955799Y-5361986D01*
X32959370Y-5348655D01*
X32993846Y-5303722D01*
X33049998Y-5296327D01*
X33083175Y-5315480D01*
X36176726Y-8409031D01*
X36198400Y-8461357D01*
X36198400Y-9927077D01*
X36176726Y-9979403D01*
X36161401Y-9991162D01*
X36147290Y-9999309D01*
X36147288Y-9999310D01*
X36063408Y-10083190D01*
X36004101Y-10185912D01*
X36004099Y-10185917D01*
X35973400Y-10300488D01*
X35973400Y-10419111D01*
X36004099Y-10533682D01*
X36004101Y-10533686D01*
X36063408Y-10636409D01*
X36063409Y-10636410D01*
X36063411Y-10636413D01*
X36147287Y-10720289D01*
X36147289Y-10720290D01*
X36147290Y-10720291D01*
X36250012Y-10779598D01*
X36250014Y-10779599D01*
X36250015Y-10779599D01*
X36250017Y-10779600D01*
X36277586Y-10786987D01*
X36364591Y-10810300D01*
X36364596Y-10810300D01*
X36369398Y-10810933D01*
X36369075Y-10813379D01*
X36413967Y-10831974D01*
X36435641Y-10884300D01*
X36433119Y-10903453D01*
X36406100Y-11004288D01*
X36406100Y-11122911D01*
X36436799Y-11237482D01*
X36436801Y-11237487D01*
X36496108Y-11340209D01*
X36496109Y-11340210D01*
X36496111Y-11340213D01*
X36579987Y-11424089D01*
X36579989Y-11424090D01*
X36579990Y-11424091D01*
X36618852Y-11446528D01*
X36682714Y-11483399D01*
X36682715Y-11483399D01*
X36682717Y-11483400D01*
X36740002Y-11498749D01*
X36797288Y-11514099D01*
X36797289Y-11514100D01*
X36797291Y-11514100D01*
X36915909Y-11514100D01*
X36931649Y-11509882D01*
X36987800Y-11517273D01*
X37003129Y-11529034D01*
X37655026Y-12180931D01*
X37676700Y-12233257D01*
X37676700Y-19167277D01*
X37655026Y-19219603D01*
X37639701Y-19231362D01*
X37625590Y-19239509D01*
X37625588Y-19239510D01*
X37541708Y-19323390D01*
X37482401Y-19426112D01*
X37482399Y-19426117D01*
X37451700Y-19540688D01*
X37451700Y-19659311D01*
X37482399Y-19773882D01*
X37482401Y-19773887D01*
X37541708Y-19876609D01*
X37541709Y-19876610D01*
X37541711Y-19876613D01*
X37625587Y-19960489D01*
X37728314Y-20019799D01*
X37728315Y-20019799D01*
X37728317Y-20019800D01*
X37785602Y-20035149D01*
X37842888Y-20050499D01*
X37842889Y-20050500D01*
X37842891Y-20050500D01*
X37961511Y-20050500D01*
X37961511Y-20050499D01*
X38076086Y-20019799D01*
X38178813Y-19960489D01*
X38262689Y-19876613D01*
X38321999Y-19773886D01*
X38352699Y-19659311D01*
X38352700Y-19659311D01*
X38352700Y-19540689D01*
X38352699Y-19540688D01*
X38322000Y-19426117D01*
X38321998Y-19426112D01*
X38262691Y-19323390D01*
X38262690Y-19323389D01*
X38262689Y-19323387D01*
X38178813Y-19239511D01*
X38164699Y-19231362D01*
X38130221Y-19186428D01*
X38127700Y-19167277D01*
X38127700Y-12162675D01*
X38127701Y-12162666D01*
X38127701Y-12064347D01*
X38127701Y-12064346D01*
X38107590Y-12015795D01*
X38099615Y-11996542D01*
X38093371Y-11981466D01*
X38093369Y-11981463D01*
X38025721Y-11913815D01*
X38025714Y-11913809D01*
X37322034Y-11210129D01*
X37300360Y-11157803D01*
X37302881Y-11138653D01*
X37307100Y-11122909D01*
X37307100Y-11004291D01*
X37307100Y-11004289D01*
X37307099Y-11004288D01*
X37276400Y-10889717D01*
X37276398Y-10889712D01*
X37217091Y-10786990D01*
X37217090Y-10786989D01*
X37217089Y-10786987D01*
X37184673Y-10754571D01*
X37163000Y-10702246D01*
X37163000Y-6598675D01*
X37163001Y-6598666D01*
X37163001Y-6500344D01*
X37128670Y-6417465D01*
X37128669Y-6417463D01*
X37061021Y-6349815D01*
X37061014Y-6349809D01*
X37057834Y-6346629D01*
X37036160Y-6294303D01*
X37038681Y-6275153D01*
X37042900Y-6259409D01*
X37042900Y-6140791D01*
X37042900Y-6140789D01*
X37042899Y-6140788D01*
X37012200Y-6026217D01*
X37012198Y-6026212D01*
X36952891Y-5923490D01*
X36952890Y-5923489D01*
X36952889Y-5923487D01*
X36869013Y-5839611D01*
X36869010Y-5839609D01*
X36869009Y-5839608D01*
X36766287Y-5780301D01*
X36766282Y-5780299D01*
X36651711Y-5749600D01*
X36651709Y-5749600D01*
X36533091Y-5749600D01*
X36533089Y-5749600D01*
X36418517Y-5780299D01*
X36418512Y-5780301D01*
X36315790Y-5839608D01*
X36231908Y-5923490D01*
X36172601Y-6026212D01*
X36172599Y-6026217D01*
X36141900Y-6140788D01*
X36141900Y-6259411D01*
X36172599Y-6373982D01*
X36172601Y-6373987D01*
X36231908Y-6476709D01*
X36231909Y-6476710D01*
X36231911Y-6476713D01*
X36315787Y-6560589D01*
X36315789Y-6560590D01*
X36315790Y-6560591D01*
X36381753Y-6598675D01*
X36418514Y-6619899D01*
X36418515Y-6619899D01*
X36418517Y-6619900D01*
X36475802Y-6635249D01*
X36533088Y-6650599D01*
X36533089Y-6650600D01*
X36638000Y-6650600D01*
X36690326Y-6672274D01*
X36712000Y-6724600D01*
X36712000Y-8127842D01*
X36690326Y-8180168D01*
X36638000Y-8201842D01*
X36585674Y-8180168D01*
X36547421Y-8141915D01*
X36547414Y-8141909D01*
X31484278Y-3078773D01*
X31484278Y-3078772D01*
X31410438Y-3004932D01*
X31410436Y-3004930D01*
X31410432Y-3004928D01*
X31386158Y-2994873D01*
X31386158Y-2994872D01*
X31327555Y-2970599D01*
X31237845Y-2970599D01*
X31229233Y-2970599D01*
X31229225Y-2970600D01*
X22966645Y-2970600D01*
X22883766Y-3004928D01*
X22092463Y-3796231D01*
X22054752Y-3833941D01*
X22002426Y-3855614D01*
X21950100Y-3833939D01*
X21934060Y-3809933D01*
X21930941Y-3802402D01*
X21815977Y-3630345D01*
X21669655Y-3484023D01*
X21624469Y-3453831D01*
X21497598Y-3369059D01*
X21306420Y-3289870D01*
X21306413Y-3289868D01*
X21153516Y-3259455D01*
X21103465Y-3249500D01*
X20896535Y-3249500D01*
X20856385Y-3257486D01*
X20693586Y-3289868D01*
X20693579Y-3289870D01*
X20502401Y-3369059D01*
X20330345Y-3484022D01*
X20330344Y-3484024D01*
X20184024Y-3630344D01*
X20184022Y-3630345D01*
X20069059Y-3802401D01*
X19989870Y-3993579D01*
X19989868Y-3993586D01*
X19949500Y-4196535D01*
X19949500Y-4403464D01*
X19989868Y-4606413D01*
X19989870Y-4606420D01*
X20069059Y-4797598D01*
X20169839Y-4948428D01*
X20184023Y-4969655D01*
X20330345Y-5115977D01*
X20502402Y-5230941D01*
X20693580Y-5310130D01*
X20896535Y-5350500D01*
X20896536Y-5350500D01*
X21103463Y-5350500D01*
X21103465Y-5350500D01*
X21255663Y-5320226D01*
X21311212Y-5331275D01*
X21342678Y-5378367D01*
X21344100Y-5392804D01*
X21344100Y-6707184D01*
X21322426Y-6759510D01*
X21270100Y-6781184D01*
X21217774Y-6759510D01*
X21201733Y-6735502D01*
X21192771Y-6713866D01*
X21192769Y-6713863D01*
X21125121Y-6646215D01*
X21125114Y-6646209D01*
X19388046Y-4909141D01*
X19366372Y-4856815D01*
X19378844Y-4815702D01*
X19382654Y-4810000D01*
X19390941Y-4797598D01*
X19470130Y-4606420D01*
X19510500Y-4403465D01*
X19510500Y-4196535D01*
X19470130Y-3993580D01*
X19390941Y-3802402D01*
X19275977Y-3630345D01*
X19129655Y-3484023D01*
X19084469Y-3453831D01*
X18957598Y-3369059D01*
X18766420Y-3289870D01*
X18766413Y-3289868D01*
X18613516Y-3259455D01*
X18563465Y-3249500D01*
X18356535Y-3249500D01*
X18316385Y-3257486D01*
X18153586Y-3289868D01*
X18153579Y-3289870D01*
X17962401Y-3369059D01*
X17790345Y-3484022D01*
X17790344Y-3484024D01*
X17644024Y-3630344D01*
X17644022Y-3630345D01*
X17529059Y-3802401D01*
X17449870Y-3993579D01*
X17449868Y-3993586D01*
X17409500Y-4196535D01*
X16970500Y-4196535D01*
X16930130Y-3993580D01*
X16850941Y-3802402D01*
X16735977Y-3630345D01*
X16589655Y-3484023D01*
X16544469Y-3453831D01*
X16417598Y-3369059D01*
X16226420Y-3289870D01*
X16226413Y-3289868D01*
X16073516Y-3259455D01*
X16023465Y-3249500D01*
X15816535Y-3249500D01*
X15776385Y-3257486D01*
X15613586Y-3289868D01*
X15613579Y-3289870D01*
X15422401Y-3369059D01*
X15250345Y-3484022D01*
X15250344Y-3484024D01*
X15104024Y-3630344D01*
X15104022Y-3630345D01*
X14989059Y-3802401D01*
X14909870Y-3993579D01*
X14909868Y-3993586D01*
X14869500Y-4196535D01*
X14480000Y-4196535D01*
X14480000Y-3380302D01*
X14468396Y-3321964D01*
X14424192Y-3255808D01*
X14424191Y-3255807D01*
X14358035Y-3211603D01*
X14299697Y-3200000D01*
X13480000Y-3200000D01*
X13480000Y-3798803D01*
X13447143Y-3790000D01*
X13312857Y-3790000D01*
X13280000Y-3798803D01*
X13280000Y-3200000D01*
X12460303Y-3200000D01*
X12401964Y-3211603D01*
X12335808Y-3255807D01*
X12335807Y-3255808D01*
X12291603Y-3321964D01*
X12280000Y-3380302D01*
X10315500Y-3380302D01*
X10315500Y-2401582D01*
X38249500Y-2401582D01*
X38249500Y-2598417D01*
X38280290Y-2792823D01*
X38280293Y-2792836D01*
X38341113Y-2980019D01*
X38430475Y-3155404D01*
X38528169Y-3289868D01*
X38546172Y-3314646D01*
X38685354Y-3453828D01*
X38844595Y-3569524D01*
X39019975Y-3658884D01*
X39019977Y-3658884D01*
X39019980Y-3658886D01*
X39207163Y-3719706D01*
X39207169Y-3719707D01*
X39207174Y-3719709D01*
X39336780Y-3740236D01*
X39401582Y-3750500D01*
X39401583Y-3750500D01*
X39598418Y-3750500D01*
X39647019Y-3742802D01*
X39792826Y-3719709D01*
X39792833Y-3719706D01*
X39792836Y-3719706D01*
X39980019Y-3658886D01*
X39980019Y-3658885D01*
X39980025Y-3658884D01*
X40155405Y-3569524D01*
X40314646Y-3453828D01*
X40453828Y-3314646D01*
X40569524Y-3155405D01*
X40658884Y-2980025D01*
X40719709Y-2792826D01*
X40750500Y-2598417D01*
X40750500Y-2401583D01*
X40719709Y-2207174D01*
X40719707Y-2207169D01*
X40719706Y-2207163D01*
X40658886Y-2019980D01*
X40658884Y-2019977D01*
X40658884Y-2019975D01*
X40569524Y-1844595D01*
X40453828Y-1685354D01*
X40314646Y-1546172D01*
X40314643Y-1546169D01*
X40314641Y-1546168D01*
X40155404Y-1430475D01*
X39980019Y-1341113D01*
X39792836Y-1280293D01*
X39792823Y-1280290D01*
X39598418Y-1249500D01*
X39598417Y-1249500D01*
X39401583Y-1249500D01*
X39401582Y-1249500D01*
X39207176Y-1280290D01*
X39207163Y-1280293D01*
X39019980Y-1341113D01*
X38844595Y-1430475D01*
X38685358Y-1546168D01*
X38546168Y-1685358D01*
X38430475Y-1844595D01*
X38341113Y-2019980D01*
X38280293Y-2207163D01*
X38280290Y-2207176D01*
X38249500Y-2401582D01*
X10315500Y-2401582D01*
X10315500Y-2281597D01*
X10337174Y-2229271D01*
X10352498Y-2217512D01*
X10415413Y-2181189D01*
X10499289Y-2097313D01*
X10558599Y-1994586D01*
X10589299Y-1880011D01*
X10589300Y-1880011D01*
X10589300Y-1761389D01*
X10589299Y-1761388D01*
X10558600Y-1646817D01*
X10558598Y-1646812D01*
X10499291Y-1544090D01*
X10499290Y-1544089D01*
X10499289Y-1544087D01*
X10415413Y-1460211D01*
X10415410Y-1460209D01*
X10415409Y-1460208D01*
X10312687Y-1400901D01*
X10312682Y-1400899D01*
X10198111Y-1370200D01*
X10198109Y-1370200D01*
X10079491Y-1370200D01*
X10079489Y-1370200D01*
X9964917Y-1400899D01*
X9964912Y-1400901D01*
X9862190Y-1460208D01*
X9778308Y-1544090D01*
X9719001Y-1646812D01*
X9718999Y-1646817D01*
X9688300Y-1761388D01*
X9688300Y-1880011D01*
X9718999Y-1994582D01*
X9719001Y-1994587D01*
X9778308Y-2097309D01*
X9778309Y-2097310D01*
X9778311Y-2097313D01*
X9842826Y-2161828D01*
X9864500Y-2214153D01*
X9864500Y-4929277D01*
X9842826Y-4981603D01*
X9827501Y-4993362D01*
X9813390Y-5001509D01*
X9813388Y-5001510D01*
X9729508Y-5085390D01*
X9670201Y-5188112D01*
X9670199Y-5188117D01*
X9639500Y-5302688D01*
X400000Y-5302688D01*
X400000Y-2401582D01*
X1249500Y-2401582D01*
X1249500Y-2598417D01*
X1280290Y-2792823D01*
X1280293Y-2792836D01*
X1341113Y-2980019D01*
X1430475Y-3155404D01*
X1528169Y-3289868D01*
X1546172Y-3314646D01*
X1685354Y-3453828D01*
X1844595Y-3569524D01*
X2019975Y-3658884D01*
X2019977Y-3658884D01*
X2019980Y-3658886D01*
X2207163Y-3719706D01*
X2207169Y-3719707D01*
X2207174Y-3719709D01*
X2336780Y-3740236D01*
X2401582Y-3750500D01*
X2401583Y-3750500D01*
X2598418Y-3750500D01*
X2647019Y-3742802D01*
X2792826Y-3719709D01*
X2792833Y-3719706D01*
X2792836Y-3719706D01*
X2980019Y-3658886D01*
X2980019Y-3658885D01*
X2980025Y-3658884D01*
X3155405Y-3569524D01*
X3314646Y-3453828D01*
X3453828Y-3314646D01*
X3569524Y-3155405D01*
X3658884Y-2980025D01*
X3719709Y-2792826D01*
X3750500Y-2598417D01*
X3750500Y-2401583D01*
X3719709Y-2207174D01*
X3719707Y-2207169D01*
X3719706Y-2207163D01*
X3658886Y-2019980D01*
X3658884Y-2019977D01*
X3658884Y-2019975D01*
X3569524Y-1844595D01*
X3453828Y-1685354D01*
X3314646Y-1546172D01*
X3314643Y-1546169D01*
X3314641Y-1546168D01*
X3155404Y-1430475D01*
X2980019Y-1341113D01*
X2792836Y-1280293D01*
X2792823Y-1280290D01*
X2598418Y-1249500D01*
X2598417Y-1249500D01*
X2401583Y-1249500D01*
X2401582Y-1249500D01*
X2207176Y-1280290D01*
X2207163Y-1280293D01*
X2019980Y-1341113D01*
X1844595Y-1430475D01*
X1685358Y-1546168D01*
X1546168Y-1685358D01*
X1430475Y-1844595D01*
X1341113Y-2019980D01*
X1280293Y-2207163D01*
X1280290Y-2207176D01*
X1249500Y-2401582D01*
X400000Y-2401582D01*
X400000Y-474000D01*
X421674Y-421674D01*
X474000Y-400000D01*
X41526000Y-400000D01*
X41578326Y-421674D01*
G37*
%TD.AperFunction*%
%TD*%
M02*
