%TF.GenerationSoftware,KiCad,Pcbnew,10.0.6-10.0.6~ubuntu24.04.1*%
%TF.CreationDate,2026-09-26T02:22:10+00:00*%
%TF.ProjectId,click-counter-Q5,636c6963-6b2d-4636-9f75-6e7465722d51,rev?*%
%TF.SameCoordinates,Original*%
%TF.FileFunction,Soldermask,Bot*%
%TF.FilePolarity,Negative*%
%FSLAX46Y46*%
G04 Gerber Fmt 4.6, Leading zero omitted, Abs format (unit mm)*
G04 Created by KiCad (PCBNEW 10.0.6-10.0.6~ubuntu24.04.1) date 2026-09-26 02:22:10*
%MOMM*%
%LPD*%
G01*
G04 APERTURE LIST*
G04 Aperture macros list*
%AMRoundRect*
0 Rectangle with rounded corners*
0 $1 Rounding radius*
0 $2 $3 $4 $5 $6 $7 $8 $9 X,Y pos of 4 corners*
0 Add a 4 corners polygon primitive as box body*
4,1,4,$2,$3,$4,$5,$6,$7,$8,$9,$2,$3,0*
0 Add four circle primitives for the rounded corners*
1,1,$1+$1,$2,$3*
1,1,$1+$1,$4,$5*
1,1,$1+$1,$6,$7*
1,1,$1+$1,$8,$9*
0 Add four rect primitives between the rounded corners*
20,1,$1+$1,$2,$3,$4,$5,0*
20,1,$1+$1,$4,$5,$6,$7,0*
20,1,$1+$1,$6,$7,$8,$9,0*
20,1,$1+$1,$8,$9,$2,$3,0*%
G04 Aperture macros list end*
%ADD10C,2.200000*%
%ADD11R,1.800000X1.800000*%
%ADD12C,1.800000*%
%ADD13RoundRect,0.200000X-0.200000X-0.275000X0.200000X-0.275000X0.200000X0.275000X-0.200000X0.275000X0*%
%ADD14RoundRect,0.150000X0.150000X-0.587500X0.150000X0.587500X-0.150000X0.587500X-0.150000X-0.587500X0*%
%ADD15RoundRect,0.225000X-0.225000X-0.250000X0.225000X-0.250000X0.225000X0.250000X-0.225000X0.250000X0*%
%ADD16RoundRect,0.125000X0.537500X0.125000X-0.537500X0.125000X-0.537500X-0.125000X0.537500X-0.125000X0*%
%ADD17C,3.000000*%
%ADD18C,4.000000*%
%ADD19R,2.500000X2.550000*%
%ADD20RoundRect,0.200000X0.275000X-0.200000X0.275000X0.200000X-0.275000X0.200000X-0.275000X-0.200000X0*%
%ADD21RoundRect,0.150000X-0.825000X-0.150000X0.825000X-0.150000X0.825000X0.150000X-0.825000X0.150000X0*%
%ADD22C,1.500000*%
%ADD23R,1.050000X2.000000*%
%ADD24RoundRect,0.225000X0.250000X-0.225000X0.250000X0.225000X-0.250000X0.225000X-0.250000X-0.225000X0*%
%ADD25RoundRect,0.150000X-0.587500X-0.150000X0.587500X-0.150000X0.587500X0.150000X-0.587500X0.150000X0*%
%ADD26RoundRect,0.112500X-0.187500X-0.112500X0.187500X-0.112500X0.187500X0.112500X-0.187500X0.112500X0*%
%ADD27C,0.650000*%
%ADD28RoundRect,0.150000X-0.425000X0.150000X-0.425000X-0.150000X0.425000X-0.150000X0.425000X0.150000X0*%
%ADD29RoundRect,0.075000X-0.500000X0.075000X-0.500000X-0.075000X0.500000X-0.075000X0.500000X0.075000X0*%
%ADD30O,1.900000X1.100000*%
%ADD31O,2.200000X1.100000*%
%ADD32RoundRect,0.250000X0.475000X-0.250000X0.475000X0.250000X-0.475000X0.250000X-0.475000X-0.250000X0*%
%ADD33RoundRect,0.150000X0.150000X-0.512500X0.150000X0.512500X-0.150000X0.512500X-0.150000X-0.512500X0*%
%ADD34RoundRect,0.050000X-0.325000X-0.050000X0.325000X-0.050000X0.325000X0.050000X-0.325000X0.050000X0*%
%ADD35R,0.900000X1.500000*%
%ADD36RoundRect,0.200000X0.200000X0.275000X-0.200000X0.275000X-0.200000X-0.275000X0.200000X-0.275000X0*%
%ADD37RoundRect,0.093750X-0.093750X-0.106250X0.093750X-0.106250X0.093750X0.106250X-0.093750X0.106250X0*%
%ADD38R,1.000000X1.600000*%
%ADD39R,4.200000X3.800000*%
%ADD40RoundRect,0.150000X-0.512500X-0.150000X0.512500X-0.150000X0.512500X0.150000X-0.512500X0.150000X0*%
%ADD41RoundRect,0.200000X-0.275000X0.200000X-0.275000X-0.200000X0.275000X-0.200000X0.275000X0.200000X0*%
%ADD42RoundRect,0.070000X0.355000X-0.070000X0.355000X0.070000X-0.355000X0.070000X-0.355000X-0.070000X0*%
%ADD43RoundRect,0.070000X0.305000X-0.070000X0.305000X0.070000X-0.305000X0.070000X-0.305000X-0.070000X0*%
%ADD44RoundRect,0.075000X-0.662500X-0.075000X0.662500X-0.075000X0.662500X0.075000X-0.662500X0.075000X0*%
%ADD45RoundRect,0.075000X-0.075000X-0.662500X0.075000X-0.662500X0.075000X0.662500X-0.075000X0.662500X0*%
G04 APERTURE END LIST*
D10*
%TO.C,H4*%
X39500000Y-2500000D03*
%TD*%
D11*
%TO.C,DS1*%
X13380000Y-4300000D03*
D12*
X15920000Y-4300000D03*
X18460000Y-4300000D03*
X21000000Y-4300000D03*
X23540000Y-4300000D03*
X26080000Y-4300000D03*
X28620000Y-4300000D03*
%TD*%
D10*
%TO.C,H3*%
X2500000Y-2500000D03*
%TD*%
%TO.C,H1*%
X2500000Y-52000000D03*
%TD*%
%TO.C,H2*%
X39500000Y-52000000D03*
%TD*%
D13*
%TO.C,R24*%
X4375000Y-6500000D03*
X6025000Y-6500000D03*
%TD*%
D14*
%TO.C,Q1*%
X3250000Y-17237500D03*
X1350000Y-17237500D03*
X2300000Y-15362500D03*
%TD*%
D13*
%TO.C,R15*%
X16375000Y-51000000D03*
X18025000Y-51000000D03*
%TD*%
D15*
%TO.C,C34*%
X26625000Y-27000000D03*
X28175000Y-27000000D03*
%TD*%
D16*
%TO.C,U5*%
X10417500Y-50325000D03*
X10417500Y-50975000D03*
X10417500Y-51625000D03*
X10417500Y-52275000D03*
X8142500Y-52275000D03*
X8142500Y-51625000D03*
X8142500Y-50975000D03*
X8142500Y-50325000D03*
%TD*%
D13*
%TO.C,R18*%
X2975000Y-31300000D03*
X4625000Y-31300000D03*
%TD*%
%TO.C,R3*%
X37575000Y-7000000D03*
X39225000Y-7000000D03*
%TD*%
D15*
%TO.C,C7*%
X26625000Y-28600000D03*
X28175000Y-28600000D03*
%TD*%
%TO.C,C36*%
X23825000Y-41200000D03*
X25375000Y-41200000D03*
%TD*%
D13*
%TO.C,R4*%
X37575000Y-8600000D03*
X39225000Y-8600000D03*
%TD*%
D17*
%TO.C,SW2*%
X33065000Y-36990000D03*
D18*
X30525000Y-40800000D03*
D17*
X35605000Y-43340000D03*
D19*
X35605000Y-46642000D03*
X33065000Y-33715000D03*
%TD*%
D20*
%TO.C,R31*%
X40800000Y-46225000D03*
X40800000Y-44575000D03*
%TD*%
D21*
%TO.C,U8*%
X18525000Y-49505000D03*
X18525000Y-48235000D03*
X18525000Y-46965000D03*
X18525000Y-45695000D03*
X23475000Y-45695000D03*
X23475000Y-46965000D03*
X23475000Y-48235000D03*
X23475000Y-49505000D03*
%TD*%
D22*
%TO.C,TP5*%
X40300000Y-19600000D03*
%TD*%
D13*
%TO.C,R33*%
X20175000Y-41200000D03*
X21825000Y-41200000D03*
%TD*%
D20*
%TO.C,R38*%
X27550000Y-38145000D03*
X27550000Y-36495000D03*
%TD*%
%TO.C,R39*%
X14230000Y-41635000D03*
X14230000Y-39985000D03*
%TD*%
%TO.C,R1*%
X33400000Y-27725000D03*
X33400000Y-26075000D03*
%TD*%
D13*
%TO.C,R25*%
X7575000Y-6500000D03*
X9225000Y-6500000D03*
%TD*%
D22*
%TO.C,TP1*%
X22500000Y-52000000D03*
%TD*%
D14*
%TO.C,Q3*%
X3240000Y-48467500D03*
X1340000Y-48467500D03*
X2290000Y-46592500D03*
%TD*%
D15*
%TO.C,C11*%
X6725000Y-31300000D03*
X8275000Y-31300000D03*
%TD*%
D23*
%TO.C,SW3*%
X31375000Y-51200000D03*
X35825000Y-51200000D03*
%TD*%
D24*
%TO.C,C39*%
X25790000Y-37745000D03*
X25790000Y-36195000D03*
%TD*%
D22*
%TO.C,TP9*%
X2200000Y-35400000D03*
%TD*%
D15*
%TO.C,C4*%
X1525000Y-11900000D03*
X3075000Y-11900000D03*
%TD*%
D22*
%TO.C,TP6*%
X27320000Y-40190000D03*
%TD*%
D13*
%TO.C,R19*%
X37575000Y-10200000D03*
X39225000Y-10200000D03*
%TD*%
D25*
%TO.C,Q4*%
X12462500Y-52850000D03*
X12462500Y-50950000D03*
X14337500Y-51900000D03*
%TD*%
D15*
%TO.C,C28*%
X10825000Y-7000000D03*
X12375000Y-7000000D03*
%TD*%
D26*
%TO.C,D4*%
X38550000Y-37800000D03*
X40650000Y-37800000D03*
%TD*%
D27*
%TO.C,J1*%
X36295000Y-23710000D03*
X36295000Y-29490000D03*
D28*
X35220000Y-23400000D03*
X35220000Y-24200000D03*
D29*
X35220000Y-25350000D03*
X35220000Y-26350000D03*
X35220000Y-26850000D03*
X35220000Y-27850000D03*
D28*
X35220000Y-29000000D03*
X35220000Y-29800000D03*
X35220000Y-29800000D03*
X35220000Y-29000000D03*
D29*
X35220000Y-28350000D03*
X35220000Y-27350000D03*
X35220000Y-25850000D03*
X35220000Y-24850000D03*
D28*
X35220000Y-24200000D03*
X35220000Y-23400000D03*
D30*
X39975000Y-22280000D03*
D31*
X35795000Y-22280000D03*
D30*
X39975000Y-30920000D03*
D31*
X35795000Y-30920000D03*
%TD*%
D20*
%TO.C,R9*%
X6000000Y-23025000D03*
X6000000Y-21375000D03*
%TD*%
D22*
%TO.C,TP12*%
X23430000Y-43570000D03*
%TD*%
D32*
%TO.C,C6*%
X38900000Y-41550000D03*
X38900000Y-39650000D03*
%TD*%
D22*
%TO.C,TP11*%
X28290000Y-47830000D03*
%TD*%
D25*
%TO.C,D3*%
X6562500Y-27750000D03*
X6562500Y-25850000D03*
X8437500Y-26800000D03*
%TD*%
D22*
%TO.C,TP13*%
X2200000Y-38400000D03*
%TD*%
D33*
%TO.C,D1*%
X31750000Y-28337500D03*
X30800000Y-28337500D03*
X29850000Y-28337500D03*
X29850000Y-26062500D03*
X30800000Y-26062500D03*
X31750000Y-26062500D03*
%TD*%
D32*
%TO.C,C30*%
X25800000Y-48550000D03*
X25800000Y-46650000D03*
%TD*%
D13*
%TO.C,R36*%
X2975000Y-26400000D03*
X4625000Y-26400000D03*
%TD*%
D34*
%TO.C,U2*%
X33900000Y-9800000D03*
X33900000Y-9400000D03*
X33900000Y-9000000D03*
X33900000Y-8600000D03*
X33900000Y-8200000D03*
X36100000Y-8200000D03*
X36100000Y-8600000D03*
X36100000Y-9000000D03*
X36100000Y-9400000D03*
X36100000Y-9800000D03*
D35*
X35000000Y-9000000D03*
%TD*%
D32*
%TO.C,C2*%
X33300000Y-4250000D03*
X33300000Y-2350000D03*
%TD*%
D25*
%TO.C,Q5*%
X10562500Y-28950000D03*
X10562500Y-27050000D03*
X12437500Y-28000000D03*
%TD*%
D15*
%TO.C,C12*%
X1865000Y-33200000D03*
X3415000Y-33200000D03*
%TD*%
D13*
%TO.C,R17*%
X6675000Y-29700000D03*
X8325000Y-29700000D03*
%TD*%
D36*
%TO.C,R11*%
X3295000Y-44770000D03*
X1645000Y-44770000D03*
%TD*%
D13*
%TO.C,TH1*%
X12875000Y-25450000D03*
X14525000Y-25450000D03*
%TD*%
D37*
%TO.C,U3*%
X38412500Y-48780000D03*
X38412500Y-48130000D03*
X38412500Y-47480000D03*
X40187500Y-47480000D03*
X40187500Y-48130000D03*
X40187500Y-48780000D03*
D38*
X39300000Y-48130000D03*
%TD*%
D20*
%TO.C,R12*%
X16010000Y-48005000D03*
X16010000Y-46355000D03*
%TD*%
D15*
%TO.C,C32*%
X19425000Y-38200000D03*
X20975000Y-38200000D03*
%TD*%
D20*
%TO.C,R13*%
X14400000Y-49425000D03*
X14400000Y-47775000D03*
%TD*%
%TO.C,R2*%
X33400000Y-31125000D03*
X33400000Y-29475000D03*
%TD*%
D22*
%TO.C,TP4*%
X29310000Y-50120000D03*
%TD*%
D24*
%TO.C,C35*%
X14200000Y-28975000D03*
X14200000Y-27425000D03*
%TD*%
D14*
%TO.C,Q2*%
X3250000Y-22337500D03*
X1350000Y-22337500D03*
X2300000Y-20462500D03*
%TD*%
D15*
%TO.C,C31*%
X16225000Y-38200000D03*
X17775000Y-38200000D03*
%TD*%
D24*
%TO.C,C29*%
X28950000Y-44975000D03*
X28950000Y-43425000D03*
%TD*%
D22*
%TO.C,TP2*%
X25000000Y-52000000D03*
%TD*%
D20*
%TO.C,R29*%
X11000000Y-5225000D03*
X11000000Y-3575000D03*
%TD*%
D24*
%TO.C,C38*%
X33400000Y-24075000D03*
X33400000Y-22525000D03*
%TD*%
D15*
%TO.C,C20*%
X10925000Y-1200000D03*
X12475000Y-1200000D03*
%TD*%
D39*
%TO.C,BT1*%
X35390000Y-16300000D03*
X6610000Y-16300000D03*
%TD*%
D32*
%TO.C,C1*%
X35600000Y-4550000D03*
X35600000Y-2650000D03*
%TD*%
D24*
%TO.C,C13*%
X40800000Y-10175000D03*
X40800000Y-8625000D03*
%TD*%
D33*
%TO.C,D2*%
X28970000Y-32937500D03*
X28020000Y-32937500D03*
X27070000Y-32937500D03*
X27070000Y-30662500D03*
X28020000Y-30662500D03*
X28970000Y-30662500D03*
%TD*%
D13*
%TO.C,R16*%
X10575000Y-32200000D03*
X12225000Y-32200000D03*
%TD*%
%TO.C,R32*%
X16175000Y-41200000D03*
X17825000Y-41200000D03*
%TD*%
D32*
%TO.C,C3*%
X40400000Y-16150000D03*
X40400000Y-14250000D03*
%TD*%
D20*
%TO.C,R6*%
X30600000Y-3725000D03*
X30600000Y-2075000D03*
%TD*%
%TO.C,R7*%
X5400000Y-10625000D03*
X5400000Y-8975000D03*
%TD*%
D15*
%TO.C,C37*%
X3025000Y-29600000D03*
X4575000Y-29600000D03*
%TD*%
D33*
%TO.C,U7*%
X40550000Y-35737500D03*
X39600000Y-35737500D03*
X38650000Y-35737500D03*
X38650000Y-33462500D03*
X39600000Y-33462500D03*
X40550000Y-33462500D03*
%TD*%
D24*
%TO.C,C40*%
X29040000Y-37775000D03*
X29040000Y-36225000D03*
%TD*%
%TO.C,C10*%
X13020000Y-35355000D03*
X13020000Y-33805000D03*
%TD*%
D13*
%TO.C,R14*%
X16375000Y-52600000D03*
X18025000Y-52600000D03*
%TD*%
D36*
%TO.C,R35*%
X31885000Y-29990000D03*
X30235000Y-29990000D03*
%TD*%
D40*
%TO.C,U6*%
X6762500Y-3150000D03*
X6762500Y-2200000D03*
X6762500Y-1250000D03*
X9037500Y-1250000D03*
X9037500Y-2200000D03*
X9037500Y-3150000D03*
%TD*%
D13*
%TO.C,R34*%
X10575000Y-30600000D03*
X12225000Y-30600000D03*
%TD*%
D41*
%TO.C,R10*%
X6400000Y-50105000D03*
X6400000Y-51755000D03*
%TD*%
D42*
%TO.C,U4*%
X1775000Y-9800000D03*
D43*
X1725000Y-9300000D03*
X1725000Y-8800000D03*
X2875000Y-8800000D03*
X2875000Y-9300000D03*
X2875000Y-9800000D03*
%TD*%
D13*
%TO.C,R37*%
X2975000Y-28000000D03*
X4625000Y-28000000D03*
%TD*%
D24*
%TO.C,C9*%
X13000000Y-45175000D03*
X13000000Y-43625000D03*
%TD*%
D13*
%TO.C,R5*%
X37575000Y-11800000D03*
X39225000Y-11800000D03*
%TD*%
D15*
%TO.C,C33*%
X26525000Y-34600000D03*
X28075000Y-34600000D03*
%TD*%
D17*
%TO.C,SW1*%
X8935000Y-44610000D03*
D18*
X11475000Y-40800000D03*
D17*
X6395000Y-38260000D03*
D19*
X6395000Y-34958000D03*
X8935000Y-47885000D03*
%TD*%
D22*
%TO.C,TP3*%
X27500000Y-52000000D03*
%TD*%
D32*
%TO.C,C5*%
X39000000Y-45550000D03*
X39000000Y-43650000D03*
%TD*%
D20*
%TO.C,R30*%
X40800000Y-43025000D03*
X40800000Y-41375000D03*
%TD*%
D44*
%TO.C,U1*%
X16437500Y-34550000D03*
X16437500Y-34050000D03*
X16437500Y-33550000D03*
X16437500Y-33050000D03*
X16437500Y-32550000D03*
X16437500Y-32050000D03*
X16437500Y-31550000D03*
X16437500Y-31050000D03*
X16437500Y-30550000D03*
X16437500Y-30050000D03*
X16437500Y-29550000D03*
X16437500Y-29050000D03*
D45*
X17850000Y-27637500D03*
X18350000Y-27637500D03*
X18850000Y-27637500D03*
X19350000Y-27637500D03*
X19850000Y-27637500D03*
X20350000Y-27637500D03*
X20850000Y-27637500D03*
X21350000Y-27637500D03*
X21850000Y-27637500D03*
X22350000Y-27637500D03*
X22850000Y-27637500D03*
X23350000Y-27637500D03*
D44*
X24762500Y-29050000D03*
X24762500Y-29550000D03*
X24762500Y-30050000D03*
X24762500Y-30550000D03*
X24762500Y-31050000D03*
X24762500Y-31550000D03*
X24762500Y-32050000D03*
X24762500Y-32550000D03*
X24762500Y-33050000D03*
X24762500Y-33550000D03*
X24762500Y-34050000D03*
X24762500Y-34550000D03*
D45*
X23350000Y-35962500D03*
X22850000Y-35962500D03*
X22350000Y-35962500D03*
X21850000Y-35962500D03*
X21350000Y-35962500D03*
X20850000Y-35962500D03*
X20350000Y-35962500D03*
X19850000Y-35962500D03*
X19350000Y-35962500D03*
X18850000Y-35962500D03*
X18350000Y-35962500D03*
X17850000Y-35962500D03*
%TD*%
D20*
%TO.C,R8*%
X7800000Y-10625000D03*
X7800000Y-8975000D03*
%TD*%
M02*
