%TF.GenerationSoftware,KiCad,Pcbnew,10.0.6-10.0.6~ubuntu24.04.1*%
%TF.CreationDate,2026-09-26T02:22:10+00:00*%
%TF.ProjectId,click-counter-Q5,636c6963-6b2d-4636-9f75-6e7465722d51,rev?*%
%TF.SameCoordinates,Original*%
%TF.FileFunction,Copper,L1,Top*%
%TF.FilePolarity,Positive*%
%FSLAX46Y46*%
G04 Gerber Fmt 4.6, Leading zero omitted, Abs format (unit mm)*
G04 Created by KiCad (PCBNEW 10.0.6-10.0.6~ubuntu24.04.1) date 2026-09-26 02:22:10*
%MOMM*%
%LPD*%
G01*
G04 APERTURE LIST*
%TA.AperFunction,ComponentPad*%
%ADD10R,1.800000X1.800000*%
%TD*%
%TA.AperFunction,ComponentPad*%
%ADD11C,1.800000*%
%TD*%
%TA.AperFunction,ComponentPad*%
%ADD12O,1.900000X1.100000*%
%TD*%
%TA.AperFunction,ComponentPad*%
%ADD13O,2.200000X1.100000*%
%TD*%
%TA.AperFunction,ViaPad*%
%ADD14C,0.600000*%
%TD*%
%TA.AperFunction,Conductor*%
%ADD15C,0.150000*%
%TD*%
G04 APERTURE END LIST*
D10*
%TO.P,DS1,1,GND_1*%
%TO.N,GND*%
X13380000Y-4300000D03*
D11*
%TO.P,DS1,2,VCC_2*%
%TO.N,OLED_SUPPLY*%
X15920000Y-4300000D03*
%TO.P,DS1,3,SCL/SCK_3*%
%TO.N,OLED_SCK*%
X18460000Y-4300000D03*
%TO.P,DS1,4,SDA/MOSI_4*%
%TO.N,OLED_MOSI*%
X21000000Y-4300000D03*
%TO.P,DS1,5,RES#_5*%
%TO.N,OLED_RESET_N*%
X23540000Y-4300000D03*
%TO.P,DS1,6,D/C#_6*%
%TO.N,OLED_DC*%
X26080000Y-4300000D03*
%TO.P,DS1,7,CS#_7*%
%TO.N,OLED_CS_N*%
X28620000Y-4300000D03*
%TD*%
D12*
%TO.P,J1,SH,SHIELD_SH*%
%TO.N,GND*%
X39975000Y-22280000D03*
D13*
X35795000Y-22280000D03*
D12*
X39975000Y-30920000D03*
D13*
X35795000Y-30920000D03*
%TD*%
D14*
%TO.N,GND*%
X31259000Y-27229000D03*
X13525000Y-1200000D03*
X14151000Y-34936000D03*
X21945000Y-38602000D03*
X34536000Y-7564000D03*
X3817000Y-32229999D03*
X29024000Y-26151000D03*
X12030000Y-44027000D03*
X18181000Y-44864000D03*
X39750000Y-44575000D03*
X34450000Y-22525000D03*
X12964300Y-21548000D03*
X15250000Y-27425000D03*
X17637000Y-31050000D03*
X7050000Y-21375000D03*
X5367000Y-27258000D03*
X18350000Y-34762000D03*
X32898000Y-1380000D03*
X39998000Y-13280000D03*
X26790000Y-45660000D03*
X5654000Y-2659000D03*
X27453000Y-35506000D03*
X13380000Y-7107200D03*
X9475000Y-31300000D03*
X35198000Y-1680000D03*
X3726000Y-28751000D03*
X40100000Y-39650000D03*
%TO.N,OLED_SUPPLY*%
X15920000Y-5926600D03*
%TO.N,OLED_SCK*%
X22532900Y-29429500D03*
%TO.N,OLED_MOSI*%
X23588000Y-30439100D03*
%TO.N,OLED_RESET_N*%
X17641300Y-7961100D03*
X17454700Y-25477100D03*
%TO.N,OLED_DC*%
X22891600Y-30104700D03*
%TO.N,OLED_CS_N*%
X24662900Y-28453800D03*
%TO.N,OLED_ENABLE*%
X15631000Y-25178900D03*
X4381600Y-4420300D03*
%TO.N,DOUT*%
X4478500Y-8580500D03*
X4070100Y-17237500D03*
%TO.N,CELL_N_RAW*%
X4021300Y-9474600D03*
X2575000Y-14160800D03*
%TO.N,TEMP_HOT_OK*%
X12990000Y-52098000D03*
X5487600Y-50330600D03*
%TO.N,VLOGIC*%
X13291900Y-29271700D03*
X38574500Y-50276300D03*
X9730000Y-32118300D03*
X28521700Y-24821900D03*
X14801600Y-30485600D03*
X17620700Y-32907700D03*
X35441200Y-35236900D03*
X7667700Y-4055100D03*
X30711800Y-33530200D03*
X37553500Y-41389500D03*
%TO.N,TEMP_COLD_OK*%
X11215200Y-49457400D03*
X4772800Y-48467500D03*
%TO.N,TEMP_SENSE*%
X3859000Y-49414300D03*
X7737900Y-25738200D03*
%TO.N,TEMP_COLD*%
X11513400Y-50210900D03*
X6155800Y-48943600D03*
%TO.N,U5_VCC*%
X14087600Y-45175000D03*
X14087600Y-39155000D03*
%TO.N,BOOT_COUNT_RESET*%
X14960800Y-37095100D03*
X24352400Y-42536000D03*
X22529000Y-34009300D03*
%TO.N,VLOGIC_FB*%
X40650000Y-40539100D03*
X38242500Y-49553300D03*
X41152600Y-47056200D03*
%TO.N,FRAM_CS_N*%
X21138500Y-49505000D03*
X21032400Y-41780400D03*
X20350100Y-37186600D03*
%TO.N,FRAM_MISO*%
X19830400Y-47466600D03*
X21864500Y-37651500D03*
%TO.N,FRAM_MOSI*%
X21350000Y-37132800D03*
X23214400Y-44772400D03*
%TO.N,FRAM_SCK*%
X22659200Y-37334700D03*
X22562900Y-44393200D03*
%TO.N,VBUS*%
X35558300Y-10317400D03*
X26728100Y-37390300D03*
X35558300Y-5504500D03*
X4137100Y-44770000D03*
X27574200Y-31847100D03*
X39251200Y-20647200D03*
X39857300Y-37676900D03*
X37227500Y-28586000D03*
%TO.N,SYS_ON*%
X7740500Y-28120800D03*
X14455000Y-36564500D03*
X4542800Y-36057200D03*
X25144300Y-38546900D03*
%TO.N,CE_MID*%
X4885300Y-52012800D03*
X12110000Y-52065300D03*
%TO.N,CE_N*%
X33081400Y-8189200D03*
X3036300Y-46854800D03*
%TO.N,SYS*%
X33900000Y-5183700D03*
X33900000Y-10341400D03*
X27321600Y-41846300D03*
X41186800Y-38332200D03*
X11580400Y-47646100D03*
%TO.N,OLED_CT*%
X10093000Y-5365000D03*
X10140900Y-1822000D03*
%TO.N,USB_DP*%
X36769300Y-27324800D03*
X34196600Y-23363600D03*
X24125500Y-25523100D03*
X24125500Y-27933100D03*
%TO.N,USB_DM*%
X29847300Y-30903800D03*
X36226300Y-25850000D03*
X29711600Y-32396800D03*
X26551100Y-31937900D03*
%TO.N,CC2*%
X32547100Y-28350000D03*
X32489000Y-31125000D03*
X29105900Y-27916300D03*
%TO.N,PWR_KEY*%
X9005000Y-30600000D03*
X8026400Y-33440500D03*
X8376900Y-28793200D03*
%TO.N,PWR_HOLD*%
X9975000Y-26237300D03*
X8732900Y-25234500D03*
%TO.N,SYS_LOAD*%
X38076300Y-34823600D03*
X40265500Y-49415100D03*
%TO.N,CHG_STAT2*%
X19350000Y-26470400D03*
X27445100Y-9000000D03*
%TO.N,CHG_STAT1*%
X34407200Y-12475200D03*
X18598200Y-21969600D03*
X18598200Y-26384900D03*
X32254100Y-21969600D03*
%TO.N,SWCLK*%
X26957900Y-48796000D03*
X25615600Y-35301700D03*
%TO.N,COUT*%
X6110000Y-19477500D03*
X6110000Y-8300900D03*
%TO.N,SYS_CT*%
X37135900Y-33464700D03*
X37135900Y-38773400D03*
%TO.N,SWDIO*%
X24887300Y-49387300D03*
X23590700Y-34060300D03*
%TD*%
%TO.N,GND*%
D15*
X38821300Y-30920000D02*
X38821300Y-22280000D01*
X39975000Y-30920000D02*
X38821300Y-30920000D01*
X12964300Y-7522900D02*
X12964300Y-21548000D01*
X13380000Y-7107200D02*
X12964300Y-7522900D01*
X13380000Y-4300000D02*
X13380000Y-7107200D01*
X39975000Y-22280000D02*
X38821300Y-22280000D01*
%TO.N,OLED_SUPPLY*%
X15920000Y-4300000D02*
X15920000Y-5926600D01*
%TO.N,OLED_SCK*%
X22532900Y-29429500D02*
X22532900Y-8372900D01*
X22532900Y-8372900D02*
X18460000Y-4300000D01*
%TO.N,OLED_MOSI*%
X21000000Y-4300000D02*
X23588000Y-6888000D01*
X23588000Y-6888000D02*
X23588000Y-30439100D01*
%TO.N,OLED_RESET_N*%
X17641300Y-7961100D02*
X17454700Y-8147700D01*
X17454700Y-8147700D02*
X17454700Y-25477100D01*
%TO.N,OLED_DC*%
X23286800Y-30964200D02*
X22891600Y-30569000D01*
X26080000Y-4300000D02*
X26080000Y-28663700D01*
X26080000Y-28663700D02*
X23779500Y-30964200D01*
X22891600Y-30569000D02*
X22891600Y-30104700D01*
X23779500Y-30964200D02*
X23286800Y-30964200D01*
%TO.N,OLED_CS_N*%
X27511900Y-3191900D02*
X28620000Y-4300000D01*
X24662900Y-4153700D02*
X25624700Y-3191900D01*
X24662900Y-28453800D02*
X24662900Y-4153700D01*
X25624700Y-3191900D02*
X27511900Y-3191900D01*
%TO.N,OLED_ENABLE*%
X9550900Y-19098800D02*
X15631000Y-25178900D01*
X5255000Y-3546900D02*
X7873000Y-3546900D01*
X9550900Y-5224800D02*
X9550900Y-19098800D01*
X7873000Y-3546900D02*
X9550900Y-5224800D01*
X4381600Y-4420300D02*
X5255000Y-3546900D01*
%TO.N,DOUT*%
X4534400Y-16773200D02*
X4070100Y-17237500D01*
X4534400Y-8636400D02*
X4534400Y-16773200D01*
X4478500Y-8580500D02*
X4534400Y-8636400D01*
%TO.N,CELL_N_RAW*%
X2575000Y-10920900D02*
X2575000Y-14160800D01*
X4021300Y-9474600D02*
X2575000Y-10920900D01*
%TO.N,TEMP_HOT_OK*%
X5487600Y-50330600D02*
X6254400Y-51097400D01*
X11989400Y-51097400D02*
X12990000Y-52098000D01*
X6254400Y-51097400D02*
X11989400Y-51097400D01*
%TO.N,VLOGIC*%
X35441200Y-39277200D02*
X35441200Y-35236900D01*
X37553500Y-49607400D02*
X37553500Y-41389500D01*
X7667700Y-23217700D02*
X7667700Y-4055100D01*
X30711800Y-32252600D02*
X30711800Y-33530200D01*
X28281200Y-25062400D02*
X28281200Y-30061500D01*
X29735900Y-31516200D02*
X29975400Y-31516200D01*
X38574500Y-50276300D02*
X38222400Y-50276300D01*
X13291900Y-29271700D02*
X13291900Y-28841900D01*
X9730000Y-32118300D02*
X10445300Y-32118300D01*
X28281200Y-30061500D02*
X29735900Y-31516200D01*
X14505800Y-30485600D02*
X13291900Y-29271700D01*
X29975400Y-31516200D02*
X30711800Y-32252600D01*
X38222400Y-50276300D02*
X37553500Y-49607400D01*
X13291900Y-28841900D02*
X7667700Y-23217700D01*
X37553500Y-41389500D02*
X35441200Y-39277200D01*
X28521700Y-24821900D02*
X28281200Y-25062400D01*
X10445300Y-32118300D02*
X13291900Y-29271700D01*
X14801600Y-30485600D02*
X14505800Y-30485600D01*
X17620700Y-32907700D02*
X17223700Y-32907700D01*
X17223700Y-32907700D02*
X14801600Y-30485600D01*
%TO.N,TEMP_COLD_OK*%
X11215200Y-49457400D02*
X10149600Y-48391800D01*
X10149600Y-48391800D02*
X4848500Y-48391800D01*
X4848500Y-48391800D02*
X4772800Y-48467500D01*
%TO.N,TEMP_SENSE*%
X7737900Y-25738200D02*
X2492500Y-30983600D01*
X2492500Y-48047800D02*
X3859000Y-49414300D01*
X2492500Y-30983600D02*
X2492500Y-48047800D01*
%TO.N,TEMP_COLD*%
X7423100Y-50210900D02*
X6155800Y-48943600D01*
X11513400Y-50210900D02*
X7423100Y-50210900D01*
%TO.N,U5_VCC*%
X14087600Y-45175000D02*
X14087600Y-39155000D01*
%TO.N,BOOT_COUNT_RESET*%
X24352400Y-35832700D02*
X24352400Y-42536000D01*
X19443200Y-37095100D02*
X14960800Y-37095100D01*
X22529000Y-34009300D02*
X19443200Y-37095100D01*
X22529000Y-34009300D02*
X24352400Y-35832700D01*
%TO.N,VLOGIC_FB*%
X40040700Y-49918900D02*
X40502200Y-49918900D01*
X40502200Y-49918900D02*
X41152600Y-49268500D01*
X38242500Y-49553300D02*
X39675100Y-49553300D01*
X39675100Y-49553300D02*
X40040700Y-49918900D01*
X40650000Y-40539100D02*
X40650000Y-46553600D01*
X40650000Y-46553600D02*
X41152600Y-47056200D01*
X41152600Y-49268500D02*
X41152600Y-47056200D01*
%TO.N,FRAM_CS_N*%
X20350100Y-37186600D02*
X19315400Y-38221300D01*
X19645600Y-47994300D02*
X21138500Y-47994300D01*
X21138500Y-47994300D02*
X21138500Y-49505000D01*
X19315400Y-38221300D02*
X19315400Y-47664100D01*
X19315400Y-47664100D02*
X19645600Y-47994300D01*
X21032400Y-41780400D02*
X21138500Y-47994300D01*
%TO.N,FRAM_MISO*%
X19830400Y-39685600D02*
X19830400Y-47466600D01*
X21864500Y-37651500D02*
X19830400Y-39685600D01*
%TO.N,FRAM_MOSI*%
X21695000Y-36787800D02*
X22825000Y-36787800D01*
X22825000Y-36787800D02*
X23214400Y-37177200D01*
X21350000Y-37132800D02*
X21695000Y-36787800D01*
X23214400Y-37177200D02*
X23214400Y-44772400D01*
%TO.N,FRAM_SCK*%
X22659200Y-44296900D02*
X22562900Y-44393200D01*
X22659200Y-37334700D02*
X22659200Y-44296900D01*
%TO.N,VBUS*%
X25967600Y-33453700D02*
X27574200Y-31847100D01*
X39251200Y-20647200D02*
X39463300Y-14222400D01*
X37344500Y-28469000D02*
X37344500Y-22553900D01*
X26728100Y-37390300D02*
X26728100Y-34214300D01*
X35558300Y-10317400D02*
X35558300Y-5504500D01*
X37227500Y-28586000D02*
X37344500Y-28469000D01*
X37227500Y-28586000D02*
X37227500Y-31881000D01*
X21857100Y-33226900D02*
X19050000Y-36034000D01*
X12873100Y-36034000D02*
X4137100Y-44770000D01*
X37227500Y-31881000D02*
X39857300Y-34510800D01*
X39463300Y-14222400D02*
X35558300Y-10317400D01*
X25967600Y-33453700D02*
X25740700Y-33226900D01*
X37344500Y-22553900D02*
X39251200Y-20647200D01*
X19050000Y-36034000D02*
X12873100Y-36034000D01*
X26728100Y-34214300D02*
X25967600Y-33453700D01*
X25740700Y-33226900D02*
X21857100Y-33226900D01*
X39857300Y-34510800D02*
X39857300Y-37676900D01*
%TO.N,SYS_ON*%
X25025800Y-34767600D02*
X23763800Y-33505600D01*
X4542800Y-36057200D02*
X4542800Y-31318500D01*
X18913700Y-36564500D02*
X14455000Y-36564500D01*
X25025800Y-38428400D02*
X25025800Y-34767600D01*
X21972600Y-33505600D02*
X18913700Y-36564500D01*
X25144300Y-38546900D02*
X25025800Y-38428400D01*
X23763800Y-33505600D02*
X21972600Y-33505600D01*
X4542800Y-31318500D02*
X7740500Y-28120800D01*
%TO.N,CE_MID*%
X12057500Y-52012800D02*
X12110000Y-52065300D01*
X4885300Y-52012800D02*
X12057500Y-52012800D01*
%TO.N,CE_N*%
X3036300Y-45115900D02*
X3036300Y-46854800D01*
X27723800Y-27929500D02*
X22705100Y-32948200D01*
X14734100Y-33418100D02*
X3036300Y-45115900D01*
X21271700Y-33418100D02*
X14734100Y-33418100D01*
X22705100Y-32948200D02*
X21741600Y-32948200D01*
X33081400Y-8189200D02*
X27723800Y-13546800D01*
X21741600Y-32948200D02*
X21271700Y-33418100D01*
X27723800Y-13546800D02*
X27723800Y-27929500D01*
%TO.N,SYS*%
X37330800Y-32947000D02*
X39330000Y-34946200D01*
X29940200Y-31893000D02*
X30245500Y-32198300D01*
X33900000Y-10341400D02*
X28002500Y-16238900D01*
X11580400Y-47646100D02*
X13989600Y-50055300D01*
X13989600Y-50055300D02*
X26476000Y-50055300D01*
X35174300Y-34084700D02*
X36312000Y-32947000D01*
X27510500Y-41846300D02*
X27321600Y-41846300D01*
X33900000Y-10341400D02*
X33900000Y-5183700D01*
X36312000Y-32947000D02*
X37330800Y-32947000D01*
X39734000Y-38332200D02*
X41186800Y-38332200D01*
X39330000Y-37928200D02*
X39734000Y-38332200D01*
X27510500Y-49020800D02*
X27510500Y-41846300D01*
X30183100Y-34084700D02*
X35174300Y-34084700D01*
X29718500Y-31893000D02*
X29940200Y-31893000D01*
X28002500Y-30177000D02*
X29718500Y-31893000D01*
X30183100Y-32637600D02*
X30183100Y-34084700D01*
X39330000Y-34946200D02*
X39330000Y-37928200D01*
X30183100Y-34084700D02*
X27510500Y-36757300D01*
X30245500Y-32575200D02*
X30183100Y-32637600D01*
X30245500Y-32198300D02*
X30245500Y-32575200D01*
X27510500Y-36757300D02*
X27510500Y-41846300D01*
X28002500Y-16238900D02*
X28002500Y-30177000D01*
X26476000Y-50055300D02*
X27510500Y-49020800D01*
%TO.N,OLED_CT*%
X10093000Y-5365000D02*
X10093000Y-1869900D01*
X10093000Y-1869900D02*
X10140900Y-1822000D01*
%TO.N,USB_DP*%
X24125500Y-27933100D02*
X24125500Y-25523100D01*
X36769300Y-25670500D02*
X36769300Y-27324800D01*
X34196600Y-23363600D02*
X34462400Y-23363600D01*
X34462400Y-23363600D02*
X36769300Y-25670500D01*
%TO.N,USB_DM*%
X27203400Y-31285600D02*
X28600400Y-31285600D01*
X29847300Y-30903800D02*
X28559900Y-29616400D01*
X28559900Y-27654700D02*
X30364600Y-25850000D01*
X30364600Y-25850000D02*
X36226300Y-25850000D01*
X26551100Y-31937900D02*
X27203400Y-31285600D01*
X28600400Y-31285600D02*
X29711600Y-32396800D01*
X28559900Y-29616400D02*
X28559900Y-27654700D01*
%TO.N,CC2*%
X32314600Y-31125000D02*
X29105900Y-27916300D01*
X32547100Y-28350000D02*
X32547100Y-31066900D01*
X32489000Y-31125000D02*
X32314600Y-31125000D01*
X32547100Y-31066900D02*
X32489000Y-31125000D01*
%TO.N,PWR_KEY*%
X9005000Y-30600000D02*
X8376900Y-29971900D01*
X9005000Y-30600000D02*
X8026400Y-31578600D01*
X8026400Y-31578600D02*
X8026400Y-33440500D01*
X8376900Y-29971900D02*
X8376900Y-28793200D01*
%TO.N,PWR_HOLD*%
X9735700Y-26237300D02*
X8732900Y-25234500D01*
X9975000Y-26237300D02*
X9735700Y-26237300D01*
%TO.N,SYS_LOAD*%
X38953400Y-35700700D02*
X38953400Y-48103000D01*
X38953400Y-48103000D02*
X40265500Y-49415100D01*
X38076300Y-34823600D02*
X38953400Y-35700700D01*
%TO.N,CHG_STAT2*%
X19350000Y-27423500D02*
X19350000Y-26470400D01*
X27445100Y-9000000D02*
X27445100Y-27731500D01*
X27445100Y-27731500D02*
X23917900Y-31258700D01*
X23185200Y-31258700D02*
X19350000Y-27423500D01*
X23917900Y-31258700D02*
X23185200Y-31258700D01*
%TO.N,CHG_STAT1*%
X18598200Y-26384900D02*
X18598200Y-21969600D01*
X32254100Y-14628300D02*
X34407200Y-12475200D01*
X32254100Y-21969600D02*
X32254100Y-14628300D01*
%TO.N,SWCLK*%
X26957900Y-48796000D02*
X25852600Y-47690700D01*
X25852600Y-35538700D02*
X25615600Y-35301700D01*
X25852600Y-47690700D02*
X25852600Y-35538700D01*
%TO.N,COUT*%
X6110000Y-8300900D02*
X6110000Y-19477500D01*
%TO.N,SYS_CT*%
X37135900Y-38773400D02*
X37135900Y-33464700D01*
%TO.N,SWDIO*%
X24631500Y-38746400D02*
X24887300Y-39002200D01*
X24631500Y-35101100D02*
X24631500Y-38746400D01*
X23590700Y-34060300D02*
X24631500Y-35101100D01*
X24887300Y-39002200D02*
X24887300Y-49387300D01*
%TD*%
%TA.AperFunction,Conductor*%
%TO.N,GND*%
G36*
X41578326Y-421674D02*
G01*
X41600000Y-474000D01*
X41600000Y-37929647D01*
X41578326Y-37981973D01*
X41526000Y-38003647D01*
X41473675Y-37981973D01*
X41463413Y-37971711D01*
X41463410Y-37971709D01*
X41463409Y-37971708D01*
X41360687Y-37912401D01*
X41360682Y-37912399D01*
X41246111Y-37881700D01*
X41246109Y-37881700D01*
X41127491Y-37881700D01*
X41127489Y-37881700D01*
X41012917Y-37912399D01*
X41012912Y-37912401D01*
X40910190Y-37971708D01*
X40826311Y-38055586D01*
X40818163Y-38069700D01*
X40773230Y-38104178D01*
X40754077Y-38106700D01*
X40243253Y-38106700D01*
X40190927Y-38085026D01*
X40169253Y-38032700D01*
X40190926Y-37980375D01*
X40217789Y-37953513D01*
X40277099Y-37850786D01*
X40307799Y-37736211D01*
X40307800Y-37736211D01*
X40307800Y-37617589D01*
X40307799Y-37617588D01*
X40298064Y-37581258D01*
X40290385Y-37552598D01*
X40277100Y-37503017D01*
X40277098Y-37503012D01*
X40217791Y-37400290D01*
X40217790Y-37400289D01*
X40217789Y-37400287D01*
X40133913Y-37316411D01*
X40119799Y-37308262D01*
X40085321Y-37263328D01*
X40082800Y-37244177D01*
X40082800Y-34564275D01*
X40082801Y-34564266D01*
X40082801Y-34465946D01*
X40048470Y-34383065D01*
X40048469Y-34383063D01*
X39980821Y-34315415D01*
X39980814Y-34315409D01*
X37474674Y-31809269D01*
X37453000Y-31756943D01*
X37453000Y-29018723D01*
X37474674Y-28966397D01*
X37490000Y-28954637D01*
X37504113Y-28946489D01*
X37587989Y-28862613D01*
X37647299Y-28759886D01*
X37677999Y-28645311D01*
X37678000Y-28645311D01*
X37678000Y-28526689D01*
X37677999Y-28526688D01*
X37677248Y-28523887D01*
X37647299Y-28412114D01*
X37621136Y-28366799D01*
X37587991Y-28309390D01*
X37585295Y-28305877D01*
X37570000Y-28260824D01*
X37570000Y-22677956D01*
X37591673Y-22625631D01*
X39104670Y-21112633D01*
X39156995Y-21090960D01*
X39176149Y-21093482D01*
X39191890Y-21097700D01*
X39191891Y-21097700D01*
X39310511Y-21097700D01*
X39310511Y-21097699D01*
X39425086Y-21066999D01*
X39527813Y-21007689D01*
X39611689Y-20923813D01*
X39670999Y-20821086D01*
X39701699Y-20706511D01*
X39701700Y-20706511D01*
X39701700Y-20587889D01*
X39701699Y-20587888D01*
X39671000Y-20473317D01*
X39670998Y-20473312D01*
X39611691Y-20370590D01*
X39611690Y-20370589D01*
X39611689Y-20370587D01*
X39527813Y-20286711D01*
X39527810Y-20286709D01*
X39527808Y-20286707D01*
X39523959Y-20283753D01*
X39524767Y-20282699D01*
X39493397Y-20241807D01*
X39490917Y-20220225D01*
X39686971Y-14281493D01*
X39688354Y-14269497D01*
X39688799Y-14267258D01*
X39688801Y-14267255D01*
X39688801Y-14227314D01*
X39688841Y-14224873D01*
X39688998Y-14220109D01*
X39690157Y-14185010D01*
X39690155Y-14185006D01*
X39689785Y-14182754D01*
X39689747Y-14182289D01*
X39689371Y-14180225D01*
X39689247Y-14179790D01*
X39688801Y-14177550D01*
X39688801Y-14177545D01*
X39673503Y-14140616D01*
X39672645Y-14138443D01*
X39658581Y-14101041D01*
X39658579Y-14101039D01*
X39658579Y-14101038D01*
X39657368Y-14099089D01*
X39657164Y-14098692D01*
X39656021Y-14096918D01*
X39655735Y-14096558D01*
X39654470Y-14094665D01*
X39626263Y-14066458D01*
X39624565Y-14064703D01*
X39597271Y-14035546D01*
X39595412Y-14034213D01*
X39586206Y-14026401D01*
X36023734Y-10463929D01*
X36002060Y-10411603D01*
X36004581Y-10392453D01*
X36008800Y-10376709D01*
X36008800Y-10258091D01*
X36008800Y-10258089D01*
X36008799Y-10258088D01*
X35978100Y-10143517D01*
X35978098Y-10143512D01*
X35918791Y-10040790D01*
X35918790Y-10040789D01*
X35918789Y-10040787D01*
X35834913Y-9956911D01*
X35820799Y-9948762D01*
X35786321Y-9903828D01*
X35783800Y-9884677D01*
X35783800Y-5937223D01*
X35805474Y-5884897D01*
X35820800Y-5873137D01*
X35834913Y-5864989D01*
X35918789Y-5781113D01*
X35978099Y-5678386D01*
X36008799Y-5563811D01*
X36008800Y-5563811D01*
X36008800Y-5445189D01*
X36008799Y-5445188D01*
X35978100Y-5330617D01*
X35978098Y-5330612D01*
X35918791Y-5227890D01*
X35918790Y-5227889D01*
X35918789Y-5227887D01*
X35834913Y-5144011D01*
X35834910Y-5144009D01*
X35834909Y-5144008D01*
X35732187Y-5084701D01*
X35732182Y-5084699D01*
X35617611Y-5054000D01*
X35617609Y-5054000D01*
X35498991Y-5054000D01*
X35498989Y-5054000D01*
X35384417Y-5084699D01*
X35384412Y-5084701D01*
X35281690Y-5144008D01*
X35197808Y-5227890D01*
X35138501Y-5330612D01*
X35138499Y-5330617D01*
X35107800Y-5445188D01*
X35107800Y-5563811D01*
X35138499Y-5678382D01*
X35138501Y-5678387D01*
X35197808Y-5781109D01*
X35197809Y-5781110D01*
X35197811Y-5781113D01*
X35281687Y-5864989D01*
X35295800Y-5873137D01*
X35330278Y-5918070D01*
X35332800Y-5937223D01*
X35332800Y-9884677D01*
X35311126Y-9937003D01*
X35295801Y-9948762D01*
X35281690Y-9956909D01*
X35281688Y-9956910D01*
X35197808Y-10040790D01*
X35138501Y-10143512D01*
X35138499Y-10143517D01*
X35107800Y-10258088D01*
X35107800Y-10376711D01*
X35138499Y-10491282D01*
X35138501Y-10491287D01*
X35197808Y-10594009D01*
X35197809Y-10594010D01*
X35197811Y-10594013D01*
X35281687Y-10677889D01*
X35281689Y-10677890D01*
X35281690Y-10677891D01*
X35371477Y-10729730D01*
X35384414Y-10737199D01*
X35384415Y-10737199D01*
X35384417Y-10737200D01*
X35441702Y-10752549D01*
X35498988Y-10767899D01*
X35498989Y-10767900D01*
X35498991Y-10767900D01*
X35617609Y-10767900D01*
X35633349Y-10763682D01*
X35689500Y-10771073D01*
X35704829Y-10782834D01*
X39212003Y-14290008D01*
X39233677Y-14342334D01*
X39233637Y-14344776D01*
X39040056Y-20208606D01*
X39016667Y-20260188D01*
X39003099Y-20270248D01*
X38974590Y-20286709D01*
X38974588Y-20286710D01*
X38890708Y-20370590D01*
X38831401Y-20473312D01*
X38831399Y-20473317D01*
X38800700Y-20587888D01*
X38800700Y-20587891D01*
X38800700Y-20706509D01*
X38800701Y-20706511D01*
X38804918Y-20722250D01*
X38797525Y-20778402D01*
X38785765Y-20793728D01*
X37216765Y-22362729D01*
X37153331Y-22426163D01*
X37153330Y-22426165D01*
X37118999Y-22509044D01*
X37118999Y-22607366D01*
X37119000Y-22607375D01*
X37119000Y-25553466D01*
X37097326Y-25605792D01*
X37045000Y-25627466D01*
X36992674Y-25605792D01*
X36976633Y-25581785D01*
X36960470Y-25542764D01*
X36892821Y-25475115D01*
X36892814Y-25475109D01*
X35065101Y-23647396D01*
X35819500Y-23647396D01*
X35819500Y-23772603D01*
X35851904Y-23893535D01*
X35851905Y-23893536D01*
X35914505Y-24001964D01*
X36003036Y-24090495D01*
X36111464Y-24153095D01*
X36111463Y-24153095D01*
X36181286Y-24171804D01*
X36232396Y-24185499D01*
X36232397Y-24185500D01*
X36232399Y-24185500D01*
X36357603Y-24185500D01*
X36357603Y-24185499D01*
X36478536Y-24153095D01*
X36586964Y-24090495D01*
X36675495Y-24001964D01*
X36738095Y-23893536D01*
X36770499Y-23772603D01*
X36770500Y-23772603D01*
X36770500Y-23647397D01*
X36770499Y-23647396D01*
X36738095Y-23526464D01*
X36675495Y-23418036D01*
X36586963Y-23329504D01*
X36478534Y-23266904D01*
X36478536Y-23266904D01*
X36357603Y-23234500D01*
X36357601Y-23234500D01*
X36232399Y-23234500D01*
X36232397Y-23234500D01*
X36111464Y-23266904D01*
X36003036Y-23329504D01*
X35914504Y-23418036D01*
X35851904Y-23526464D01*
X35819500Y-23647396D01*
X35065101Y-23647396D01*
X34663978Y-23246273D01*
X34663978Y-23246272D01*
X34633156Y-23215450D01*
X34617115Y-23191444D01*
X34616401Y-23189721D01*
X34616399Y-23189714D01*
X34557089Y-23086987D01*
X34473213Y-23003111D01*
X34473210Y-23003109D01*
X34473209Y-23003108D01*
X34370487Y-22943801D01*
X34370482Y-22943799D01*
X34255911Y-22913100D01*
X34255909Y-22913100D01*
X34137291Y-22913100D01*
X34137289Y-22913100D01*
X34022717Y-22943799D01*
X34022712Y-22943801D01*
X33919990Y-23003108D01*
X33836108Y-23086990D01*
X33776801Y-23189712D01*
X33776799Y-23189717D01*
X33746100Y-23304288D01*
X33746100Y-23422911D01*
X33776799Y-23537482D01*
X33776801Y-23537487D01*
X33836108Y-23640209D01*
X33836109Y-23640210D01*
X33836111Y-23640213D01*
X33919987Y-23724089D01*
X34022714Y-23783399D01*
X34022715Y-23783399D01*
X34022717Y-23783400D01*
X34080002Y-23798749D01*
X34137288Y-23814099D01*
X34137289Y-23814100D01*
X34137291Y-23814100D01*
X34255911Y-23814100D01*
X34255911Y-23814099D01*
X34370486Y-23783399D01*
X34443547Y-23741216D01*
X34499698Y-23733824D01*
X34532872Y-23752977D01*
X36086142Y-25306247D01*
X36107816Y-25358573D01*
X36086142Y-25410899D01*
X36056706Y-25427896D01*
X36056893Y-25428346D01*
X36053481Y-25429759D01*
X36052981Y-25430048D01*
X36052421Y-25430197D01*
X36052412Y-25430201D01*
X35949690Y-25489508D01*
X35865811Y-25573386D01*
X35857663Y-25587500D01*
X35812730Y-25621978D01*
X35793577Y-25624500D01*
X30319745Y-25624500D01*
X30236866Y-25658828D01*
X28633026Y-27262668D01*
X28580700Y-27284342D01*
X28528374Y-27262668D01*
X28506700Y-27210342D01*
X28506700Y-25346400D01*
X28528374Y-25294074D01*
X28576355Y-25274199D01*
X28576202Y-25273033D01*
X28580555Y-25272460D01*
X28580700Y-25272400D01*
X28581011Y-25272400D01*
X28581011Y-25272399D01*
X28695586Y-25241699D01*
X28798313Y-25182389D01*
X28882189Y-25098513D01*
X28941499Y-24995786D01*
X28972199Y-24881211D01*
X28972200Y-24881211D01*
X28972200Y-24762589D01*
X28972199Y-24762588D01*
X28941500Y-24648017D01*
X28941498Y-24648012D01*
X28882191Y-24545290D01*
X28882190Y-24545289D01*
X28882189Y-24545287D01*
X28798313Y-24461411D01*
X28798310Y-24461409D01*
X28798309Y-24461408D01*
X28695587Y-24402101D01*
X28695582Y-24402099D01*
X28581011Y-24371400D01*
X28581009Y-24371400D01*
X28462391Y-24371400D01*
X28462389Y-24371400D01*
X28347817Y-24402099D01*
X28347809Y-24402102D01*
X28338998Y-24407190D01*
X28282845Y-24414581D01*
X28237913Y-24380101D01*
X28228000Y-24343103D01*
X28228000Y-21910288D01*
X31803600Y-21910288D01*
X31803600Y-22028911D01*
X31834299Y-22143482D01*
X31834301Y-22143487D01*
X31893608Y-22246209D01*
X31893609Y-22246210D01*
X31893611Y-22246213D01*
X31977487Y-22330089D01*
X31977489Y-22330090D01*
X31977490Y-22330091D01*
X32034022Y-22362730D01*
X32080214Y-22389399D01*
X32080215Y-22389399D01*
X32080217Y-22389400D01*
X32128447Y-22402323D01*
X32194788Y-22420099D01*
X32194789Y-22420100D01*
X32194791Y-22420100D01*
X32313411Y-22420100D01*
X32313411Y-22420099D01*
X32427986Y-22389399D01*
X32530713Y-22330089D01*
X32614589Y-22246213D01*
X32673899Y-22143486D01*
X32704599Y-22028911D01*
X32704600Y-22028911D01*
X32704600Y-21910289D01*
X32704599Y-21910288D01*
X32673900Y-21795717D01*
X32673898Y-21795712D01*
X32614591Y-21692990D01*
X32614590Y-21692989D01*
X32614589Y-21692987D01*
X32530713Y-21609111D01*
X32516599Y-21600962D01*
X32482121Y-21556028D01*
X32479600Y-21536877D01*
X32479600Y-14752356D01*
X32501273Y-14700031D01*
X34260670Y-12940633D01*
X34312995Y-12918960D01*
X34332149Y-12921482D01*
X34347890Y-12925700D01*
X34347891Y-12925700D01*
X34466511Y-12925700D01*
X34466511Y-12925699D01*
X34581086Y-12894999D01*
X34683813Y-12835689D01*
X34767689Y-12751813D01*
X34826999Y-12649086D01*
X34857699Y-12534511D01*
X34857700Y-12534511D01*
X34857700Y-12415889D01*
X34857699Y-12415888D01*
X34827000Y-12301317D01*
X34826998Y-12301312D01*
X34767691Y-12198590D01*
X34767690Y-12198589D01*
X34767689Y-12198587D01*
X34683813Y-12114711D01*
X34683810Y-12114709D01*
X34683809Y-12114708D01*
X34581087Y-12055401D01*
X34581082Y-12055399D01*
X34466511Y-12024700D01*
X34466509Y-12024700D01*
X34347891Y-12024700D01*
X34347889Y-12024700D01*
X34233317Y-12055399D01*
X34233312Y-12055401D01*
X34130590Y-12114708D01*
X34046708Y-12198590D01*
X33987401Y-12301312D01*
X33987399Y-12301317D01*
X33956700Y-12415888D01*
X33956700Y-12415891D01*
X33956700Y-12534509D01*
X33956701Y-12534511D01*
X33960918Y-12550250D01*
X33953525Y-12606402D01*
X33941765Y-12621728D01*
X32126365Y-14437129D01*
X32062931Y-14500563D01*
X32062930Y-14500565D01*
X32028599Y-14583444D01*
X32028599Y-14681766D01*
X32028600Y-14681775D01*
X32028600Y-21536877D01*
X32006926Y-21589203D01*
X31991601Y-21600962D01*
X31977490Y-21609109D01*
X31977488Y-21609110D01*
X31893608Y-21692990D01*
X31834301Y-21795712D01*
X31834299Y-21795717D01*
X31803600Y-21910288D01*
X28228000Y-21910288D01*
X28228000Y-16362957D01*
X28249674Y-16310631D01*
X30941775Y-13618530D01*
X33753471Y-10806833D01*
X33805796Y-10785160D01*
X33824947Y-10787681D01*
X33840691Y-10791900D01*
X33959311Y-10791900D01*
X33959311Y-10791899D01*
X34073886Y-10761199D01*
X34176613Y-10701889D01*
X34260489Y-10618013D01*
X34319799Y-10515286D01*
X34350499Y-10400711D01*
X34350500Y-10400711D01*
X34350500Y-10282089D01*
X34350499Y-10282088D01*
X34319800Y-10167517D01*
X34319798Y-10167512D01*
X34260491Y-10064790D01*
X34260490Y-10064789D01*
X34260489Y-10064787D01*
X34176613Y-9980911D01*
X34162499Y-9972762D01*
X34128021Y-9927828D01*
X34125500Y-9908677D01*
X34125500Y-5616423D01*
X34147174Y-5564097D01*
X34162500Y-5552337D01*
X34176613Y-5544189D01*
X34260489Y-5460313D01*
X34319799Y-5357586D01*
X34350499Y-5243011D01*
X34350500Y-5243011D01*
X34350500Y-5124389D01*
X34350499Y-5124388D01*
X34340853Y-5088390D01*
X34325051Y-5029415D01*
X34319800Y-5009817D01*
X34319798Y-5009812D01*
X34260491Y-4907090D01*
X34260490Y-4907089D01*
X34260489Y-4907087D01*
X34176613Y-4823211D01*
X34176610Y-4823209D01*
X34176609Y-4823208D01*
X34073887Y-4763901D01*
X34073882Y-4763899D01*
X33959311Y-4733200D01*
X33959309Y-4733200D01*
X33840691Y-4733200D01*
X33840689Y-4733200D01*
X33726117Y-4763899D01*
X33726112Y-4763901D01*
X33623390Y-4823208D01*
X33539508Y-4907090D01*
X33480201Y-5009812D01*
X33480199Y-5009817D01*
X33449500Y-5124388D01*
X33449500Y-5243011D01*
X33480199Y-5357582D01*
X33480201Y-5357587D01*
X33539508Y-5460309D01*
X33539509Y-5460310D01*
X33539511Y-5460313D01*
X33623387Y-5544189D01*
X33637500Y-5552337D01*
X33671978Y-5597270D01*
X33674500Y-5616423D01*
X33674500Y-8099994D01*
X33652826Y-8152320D01*
X33600500Y-8173994D01*
X33548174Y-8152320D01*
X33529022Y-8119147D01*
X33501200Y-8015317D01*
X33501198Y-8015312D01*
X33441891Y-7912590D01*
X33441890Y-7912589D01*
X33441889Y-7912587D01*
X33358013Y-7828711D01*
X33358010Y-7828709D01*
X33358009Y-7828708D01*
X33255287Y-7769401D01*
X33255282Y-7769399D01*
X33140711Y-7738700D01*
X33140709Y-7738700D01*
X33022091Y-7738700D01*
X33022089Y-7738700D01*
X32907517Y-7769399D01*
X32907512Y-7769401D01*
X32804790Y-7828708D01*
X32720908Y-7912590D01*
X32661601Y-8015312D01*
X32661599Y-8015317D01*
X32630900Y-8129888D01*
X32630900Y-8129891D01*
X32630900Y-8248509D01*
X32635118Y-8264250D01*
X32627725Y-8320402D01*
X32615965Y-8335728D01*
X27796926Y-13154768D01*
X27744600Y-13176442D01*
X27692274Y-13154768D01*
X27670600Y-13102442D01*
X27670600Y-9432723D01*
X27692274Y-9380397D01*
X27707600Y-9368637D01*
X27721713Y-9360489D01*
X27805589Y-9276613D01*
X27864899Y-9173886D01*
X27895599Y-9059311D01*
X27895600Y-9059311D01*
X27895600Y-8940689D01*
X27895599Y-8940688D01*
X27864900Y-8826117D01*
X27864898Y-8826112D01*
X27805591Y-8723390D01*
X27805590Y-8723389D01*
X27805589Y-8723387D01*
X27721713Y-8639511D01*
X27721710Y-8639509D01*
X27721709Y-8639508D01*
X27618987Y-8580201D01*
X27618982Y-8580199D01*
X27504411Y-8549500D01*
X27504409Y-8549500D01*
X27385791Y-8549500D01*
X27385789Y-8549500D01*
X27271217Y-8580199D01*
X27271212Y-8580201D01*
X27168490Y-8639508D01*
X27084608Y-8723390D01*
X27025301Y-8826112D01*
X27025299Y-8826117D01*
X26994600Y-8940688D01*
X26994600Y-9059311D01*
X27025299Y-9173882D01*
X27025301Y-9173887D01*
X27084608Y-9276609D01*
X27084609Y-9276610D01*
X27084611Y-9276613D01*
X27168487Y-9360489D01*
X27182600Y-9368637D01*
X27217078Y-9413570D01*
X27219600Y-9432723D01*
X27219600Y-27607443D01*
X27197926Y-27659769D01*
X26431826Y-28425869D01*
X26379500Y-28447543D01*
X26327174Y-28425869D01*
X26305500Y-28373543D01*
X26305500Y-5386955D01*
X26327174Y-5334629D01*
X26365063Y-5314377D01*
X26386420Y-5310130D01*
X26577598Y-5230941D01*
X26749655Y-5115977D01*
X26895977Y-4969655D01*
X27010941Y-4797598D01*
X27090130Y-4606420D01*
X27130500Y-4403465D01*
X27130500Y-4196535D01*
X27090130Y-3993580D01*
X27010941Y-3802402D01*
X26895977Y-3630345D01*
X26809358Y-3543726D01*
X26787684Y-3491400D01*
X26809358Y-3439074D01*
X26861684Y-3417400D01*
X27387843Y-3417400D01*
X27440169Y-3439074D01*
X27691953Y-3690858D01*
X27713627Y-3743184D01*
X27701157Y-3784294D01*
X27689060Y-3802399D01*
X27609870Y-3993579D01*
X27609868Y-3993586D01*
X27585835Y-4114411D01*
X27569500Y-4196535D01*
X27569500Y-4403465D01*
X27571912Y-4415589D01*
X27609868Y-4606413D01*
X27609870Y-4606420D01*
X27689059Y-4797598D01*
X27762218Y-4907090D01*
X27804023Y-4969655D01*
X27950345Y-5115977D01*
X28122402Y-5230941D01*
X28313580Y-5310130D01*
X28516535Y-5350500D01*
X28516536Y-5350500D01*
X28723464Y-5350500D01*
X28723465Y-5350500D01*
X28926420Y-5310130D01*
X29117598Y-5230941D01*
X29289655Y-5115977D01*
X29435977Y-4969655D01*
X29550941Y-4797598D01*
X29630130Y-4606420D01*
X29670500Y-4403465D01*
X29670500Y-4196535D01*
X29630130Y-3993580D01*
X29550941Y-3802402D01*
X29435977Y-3630345D01*
X29289655Y-3484023D01*
X29244469Y-3453831D01*
X29117598Y-3369059D01*
X28926420Y-3289870D01*
X28926413Y-3289868D01*
X28773516Y-3259455D01*
X28723465Y-3249500D01*
X28516535Y-3249500D01*
X28476385Y-3257486D01*
X28313586Y-3289868D01*
X28313579Y-3289870D01*
X28122399Y-3369060D01*
X28104294Y-3381157D01*
X28048745Y-3392205D01*
X28010858Y-3371953D01*
X27713478Y-3074573D01*
X27713478Y-3074572D01*
X27639638Y-3000732D01*
X27639636Y-3000730D01*
X27639632Y-3000728D01*
X27615358Y-2990673D01*
X27615358Y-2990672D01*
X27556755Y-2966399D01*
X27467045Y-2966399D01*
X27458433Y-2966399D01*
X27458425Y-2966400D01*
X25678175Y-2966400D01*
X25678167Y-2966399D01*
X25669555Y-2966399D01*
X25579846Y-2966399D01*
X25531294Y-2986508D01*
X25531295Y-2986509D01*
X25496967Y-3000728D01*
X25496965Y-3000729D01*
X25433529Y-3064165D01*
X24614963Y-3882730D01*
X24562637Y-3904404D01*
X24510311Y-3882730D01*
X24494270Y-3858723D01*
X24480200Y-3824755D01*
X24470941Y-3802402D01*
X24355977Y-3630345D01*
X24209655Y-3484023D01*
X24164469Y-3453831D01*
X24037598Y-3369059D01*
X23846420Y-3289870D01*
X23846413Y-3289868D01*
X23693516Y-3259455D01*
X23643465Y-3249500D01*
X23436535Y-3249500D01*
X23396385Y-3257486D01*
X23233586Y-3289868D01*
X23233579Y-3289870D01*
X23042401Y-3369059D01*
X22870345Y-3484022D01*
X22870344Y-3484024D01*
X22724024Y-3630344D01*
X22724022Y-3630345D01*
X22609059Y-3802401D01*
X22529870Y-3993579D01*
X22529868Y-3993586D01*
X22505835Y-4114411D01*
X22489500Y-4196535D01*
X22489500Y-4403465D01*
X22491912Y-4415589D01*
X22529868Y-4606413D01*
X22529870Y-4606420D01*
X22609059Y-4797598D01*
X22682218Y-4907090D01*
X22724023Y-4969655D01*
X22870345Y-5115977D01*
X23042402Y-5230941D01*
X23233580Y-5310130D01*
X23436535Y-5350500D01*
X23436536Y-5350500D01*
X23643464Y-5350500D01*
X23643465Y-5350500D01*
X23846420Y-5310130D01*
X24037598Y-5230941D01*
X24209655Y-5115977D01*
X24311074Y-5014558D01*
X24363400Y-4992884D01*
X24415726Y-5014558D01*
X24437400Y-5066884D01*
X24437400Y-25054811D01*
X24415726Y-25107137D01*
X24363400Y-25128811D01*
X24326401Y-25118897D01*
X24299391Y-25103303D01*
X24299382Y-25103299D01*
X24184811Y-25072600D01*
X24184809Y-25072600D01*
X24066191Y-25072600D01*
X24066189Y-25072600D01*
X23951617Y-25103299D01*
X23951612Y-25103301D01*
X23924500Y-25118955D01*
X23868347Y-25126347D01*
X23823414Y-25091869D01*
X23813500Y-25054869D01*
X23813500Y-6941475D01*
X23813501Y-6941466D01*
X23813501Y-6843146D01*
X23779170Y-6760265D01*
X23779169Y-6760263D01*
X23711521Y-6692615D01*
X23711514Y-6692609D01*
X21928046Y-4909141D01*
X21906372Y-4856815D01*
X21918844Y-4815702D01*
X21922654Y-4810000D01*
X21930941Y-4797598D01*
X22010130Y-4606420D01*
X22050500Y-4403465D01*
X22050500Y-4196535D01*
X22010130Y-3993580D01*
X21930941Y-3802402D01*
X21815977Y-3630345D01*
X21669655Y-3484023D01*
X21624469Y-3453831D01*
X21497598Y-3369059D01*
X21306420Y-3289870D01*
X21306413Y-3289868D01*
X21153516Y-3259455D01*
X21103465Y-3249500D01*
X20896535Y-3249500D01*
X20856385Y-3257486D01*
X20693586Y-3289868D01*
X20693579Y-3289870D01*
X20502401Y-3369059D01*
X20330345Y-3484022D01*
X20330344Y-3484024D01*
X20184024Y-3630344D01*
X20184022Y-3630345D01*
X20069059Y-3802401D01*
X19989870Y-3993579D01*
X19989868Y-3993586D01*
X19965835Y-4114411D01*
X19949500Y-4196535D01*
X19949500Y-4403465D01*
X19951912Y-4415589D01*
X19989868Y-4606413D01*
X19989870Y-4606420D01*
X20069059Y-4797598D01*
X20142218Y-4907090D01*
X20184023Y-4969655D01*
X20330345Y-5115977D01*
X20502402Y-5230941D01*
X20693580Y-5310130D01*
X20896535Y-5350500D01*
X20896536Y-5350500D01*
X21103464Y-5350500D01*
X21103465Y-5350500D01*
X21306420Y-5310130D01*
X21497598Y-5230941D01*
X21515702Y-5218843D01*
X21571251Y-5207794D01*
X21609141Y-5228046D01*
X23340826Y-6959731D01*
X23362500Y-7012057D01*
X23362500Y-29759847D01*
X23340826Y-29812173D01*
X23288500Y-29833847D01*
X23236175Y-29812173D01*
X23168213Y-29744211D01*
X23168210Y-29744209D01*
X23168209Y-29744208D01*
X23065487Y-29684901D01*
X23065482Y-29684899D01*
X23011353Y-29670395D01*
X22966420Y-29635916D01*
X22959028Y-29579765D01*
X22982453Y-29492343D01*
X22983400Y-29488810D01*
X22983400Y-29370189D01*
X22983399Y-29370188D01*
X22952700Y-29255617D01*
X22952698Y-29255612D01*
X22893391Y-29152890D01*
X22893390Y-29152889D01*
X22893389Y-29152887D01*
X22809513Y-29069011D01*
X22795399Y-29060862D01*
X22760921Y-29015928D01*
X22758400Y-28996777D01*
X22758400Y-8328045D01*
X22758399Y-8328043D01*
X22749069Y-8305519D01*
X22724070Y-8245164D01*
X22660636Y-8181730D01*
X22660635Y-8181729D01*
X19388045Y-4909140D01*
X19366372Y-4856815D01*
X19378844Y-4815702D01*
X19382654Y-4810000D01*
X19390941Y-4797598D01*
X19470130Y-4606420D01*
X19510500Y-4403465D01*
X19510500Y-4196535D01*
X19470130Y-3993580D01*
X19390941Y-3802402D01*
X19275977Y-3630345D01*
X19129655Y-3484023D01*
X19084469Y-3453831D01*
X18957598Y-3369059D01*
X18766420Y-3289870D01*
X18766413Y-3289868D01*
X18613516Y-3259455D01*
X18563465Y-3249500D01*
X18356535Y-3249500D01*
X18316385Y-3257486D01*
X18153586Y-3289868D01*
X18153579Y-3289870D01*
X17962401Y-3369059D01*
X17790345Y-3484022D01*
X17790344Y-3484024D01*
X17644024Y-3630344D01*
X17644022Y-3630345D01*
X17529059Y-3802401D01*
X17449870Y-3993579D01*
X17449868Y-3993586D01*
X17425835Y-4114411D01*
X17409500Y-4196535D01*
X17409500Y-4403465D01*
X17411912Y-4415589D01*
X17449868Y-4606413D01*
X17449870Y-4606420D01*
X17529059Y-4797598D01*
X17602218Y-4907090D01*
X17644023Y-4969655D01*
X17790345Y-5115977D01*
X17962402Y-5230941D01*
X18153580Y-5310130D01*
X18356535Y-5350500D01*
X18356536Y-5350500D01*
X18563464Y-5350500D01*
X18563465Y-5350500D01*
X18766420Y-5310130D01*
X18957598Y-5230941D01*
X18975702Y-5218843D01*
X19031251Y-5207794D01*
X19069141Y-5228046D01*
X22285726Y-8444631D01*
X22307400Y-8496957D01*
X22307400Y-28996777D01*
X22285726Y-29049103D01*
X22270401Y-29060862D01*
X22256290Y-29069009D01*
X22256288Y-29069010D01*
X22172408Y-29152890D01*
X22113101Y-29255612D01*
X22113099Y-29255617D01*
X22082400Y-29370188D01*
X22082400Y-29488811D01*
X22113099Y-29603382D01*
X22113101Y-29603387D01*
X22172408Y-29706109D01*
X22172409Y-29706110D01*
X22172411Y-29706113D01*
X22256287Y-29789989D01*
X22359014Y-29849299D01*
X22413147Y-29863804D01*
X22458079Y-29898282D01*
X22465472Y-29954435D01*
X22465471Y-29954435D01*
X22442509Y-30040127D01*
X22408030Y-30085060D01*
X22351878Y-30092452D01*
X22318705Y-30073300D01*
X19597174Y-27351769D01*
X19575500Y-27299443D01*
X19575500Y-26903123D01*
X19597174Y-26850797D01*
X19612500Y-26839037D01*
X19626613Y-26830889D01*
X19710489Y-26747013D01*
X19769799Y-26644286D01*
X19800499Y-26529711D01*
X19800500Y-26529711D01*
X19800500Y-26411089D01*
X19800499Y-26411088D01*
X19769800Y-26296517D01*
X19769798Y-26296512D01*
X19710491Y-26193790D01*
X19710490Y-26193789D01*
X19710489Y-26193787D01*
X19626613Y-26109911D01*
X19626610Y-26109909D01*
X19626609Y-26109908D01*
X19523887Y-26050601D01*
X19523882Y-26050599D01*
X19409311Y-26019900D01*
X19409309Y-26019900D01*
X19290691Y-26019900D01*
X19290689Y-26019900D01*
X19176117Y-26050599D01*
X19176112Y-26050601D01*
X19073385Y-26109911D01*
X19068855Y-26114442D01*
X19016527Y-26136113D01*
X18964203Y-26114436D01*
X18959694Y-26109293D01*
X18958690Y-26108289D01*
X18958689Y-26108287D01*
X18874813Y-26024411D01*
X18860699Y-26016262D01*
X18826221Y-25971328D01*
X18823700Y-25952177D01*
X18823700Y-22402323D01*
X18845374Y-22349997D01*
X18860700Y-22338237D01*
X18874813Y-22330089D01*
X18958689Y-22246213D01*
X19017999Y-22143486D01*
X19048699Y-22028911D01*
X19048700Y-22028911D01*
X19048700Y-21910289D01*
X19048699Y-21910288D01*
X19018000Y-21795717D01*
X19017998Y-21795712D01*
X18958691Y-21692990D01*
X18958690Y-21692989D01*
X18958689Y-21692987D01*
X18874813Y-21609111D01*
X18874810Y-21609109D01*
X18874809Y-21609108D01*
X18772087Y-21549801D01*
X18772082Y-21549799D01*
X18657511Y-21519100D01*
X18657509Y-21519100D01*
X18538891Y-21519100D01*
X18538889Y-21519100D01*
X18424317Y-21549799D01*
X18424312Y-21549801D01*
X18321590Y-21609108D01*
X18237708Y-21692990D01*
X18178401Y-21795712D01*
X18178399Y-21795717D01*
X18147700Y-21910288D01*
X18147700Y-22028911D01*
X18178399Y-22143482D01*
X18178401Y-22143487D01*
X18237708Y-22246209D01*
X18237709Y-22246210D01*
X18237711Y-22246213D01*
X18321587Y-22330089D01*
X18335700Y-22338237D01*
X18370178Y-22383170D01*
X18372700Y-22402323D01*
X18372700Y-25952177D01*
X18351026Y-26004503D01*
X18335701Y-26016262D01*
X18321590Y-26024409D01*
X18321588Y-26024410D01*
X18237708Y-26108290D01*
X18178401Y-26211012D01*
X18178399Y-26211017D01*
X18147700Y-26325588D01*
X18147700Y-26444211D01*
X18178399Y-26558782D01*
X18178401Y-26558787D01*
X18237708Y-26661509D01*
X18237709Y-26661510D01*
X18237711Y-26661513D01*
X18321587Y-26745389D01*
X18321589Y-26745390D01*
X18321590Y-26745391D01*
X18424312Y-26804698D01*
X18424314Y-26804699D01*
X18424315Y-26804699D01*
X18424317Y-26804700D01*
X18481602Y-26820049D01*
X18538888Y-26835399D01*
X18538889Y-26835400D01*
X18538891Y-26835400D01*
X18657511Y-26835400D01*
X18657511Y-26835399D01*
X18772086Y-26804699D01*
X18874813Y-26745389D01*
X18879339Y-26740862D01*
X18931662Y-26719186D01*
X18983990Y-26740857D01*
X18988506Y-26746007D01*
X18989509Y-26747010D01*
X18989511Y-26747013D01*
X19073387Y-26830889D01*
X19087500Y-26839037D01*
X19121978Y-26883970D01*
X19124500Y-26903123D01*
X19124500Y-27372673D01*
X19124499Y-27372687D01*
X19124499Y-27468356D01*
X19148773Y-27526958D01*
X19158829Y-27551234D01*
X19158832Y-27551238D01*
X19232671Y-27625077D01*
X19232673Y-27625078D01*
X22994029Y-31386434D01*
X22994030Y-31386436D01*
X23057464Y-31449870D01*
X23081739Y-31459925D01*
X23140345Y-31484201D01*
X23140346Y-31484201D01*
X23238667Y-31484201D01*
X23238675Y-31484200D01*
X23671543Y-31484200D01*
X23723869Y-31505874D01*
X23745543Y-31558200D01*
X23723869Y-31610526D01*
X22633369Y-32701026D01*
X22581043Y-32722700D01*
X21795075Y-32722700D01*
X21795067Y-32722699D01*
X21786455Y-32722699D01*
X21696745Y-32722699D01*
X21638139Y-32746974D01*
X21638137Y-32746975D01*
X21638136Y-32746974D01*
X21613863Y-32757030D01*
X21554296Y-32816598D01*
X21550430Y-32820464D01*
X21550429Y-32820465D01*
X21369495Y-33001400D01*
X21199969Y-33170926D01*
X21147643Y-33192600D01*
X18104577Y-33192600D01*
X18052251Y-33170926D01*
X18030577Y-33118600D01*
X18039228Y-33086311D01*
X18038642Y-33086069D01*
X18040486Y-33081615D01*
X18040491Y-33081599D01*
X18040499Y-33081586D01*
X18071199Y-32967011D01*
X18071200Y-32967011D01*
X18071200Y-32848389D01*
X18071199Y-32848388D01*
X18070907Y-32847300D01*
X18043704Y-32745774D01*
X18040500Y-32733817D01*
X18040498Y-32733812D01*
X17981191Y-32631090D01*
X17981190Y-32631089D01*
X17981189Y-32631087D01*
X17897313Y-32547211D01*
X17897310Y-32547209D01*
X17897309Y-32547208D01*
X17794587Y-32487901D01*
X17794582Y-32487899D01*
X17680011Y-32457200D01*
X17680009Y-32457200D01*
X17561391Y-32457200D01*
X17561389Y-32457200D01*
X17446817Y-32487899D01*
X17446812Y-32487901D01*
X17344086Y-32547211D01*
X17315426Y-32575871D01*
X17263100Y-32597544D01*
X17210775Y-32575870D01*
X15267034Y-30632129D01*
X15245360Y-30579803D01*
X15247881Y-30560653D01*
X15252100Y-30544909D01*
X15252100Y-30426291D01*
X15252100Y-30426289D01*
X15252099Y-30426288D01*
X15252052Y-30426114D01*
X15221399Y-30311714D01*
X15211338Y-30294288D01*
X15162091Y-30208990D01*
X15162090Y-30208989D01*
X15162089Y-30208987D01*
X15078213Y-30125111D01*
X15078210Y-30125109D01*
X15078209Y-30125108D01*
X14975487Y-30065801D01*
X14975482Y-30065799D01*
X14860911Y-30035100D01*
X14860909Y-30035100D01*
X14742291Y-30035100D01*
X14742289Y-30035100D01*
X14627717Y-30065799D01*
X14627712Y-30065801D01*
X14535634Y-30118963D01*
X14479481Y-30126355D01*
X14446308Y-30107203D01*
X13757334Y-29418229D01*
X13735660Y-29365903D01*
X13738181Y-29346753D01*
X13742400Y-29331009D01*
X13742400Y-29212391D01*
X13742400Y-29212389D01*
X13742399Y-29212388D01*
X13738553Y-29198036D01*
X13714832Y-29109505D01*
X13711700Y-29097817D01*
X13711698Y-29097812D01*
X13652391Y-28995090D01*
X13652390Y-28995089D01*
X13652389Y-28995087D01*
X13568513Y-28911211D01*
X13568510Y-28911209D01*
X13568508Y-28911207D01*
X13554398Y-28903060D01*
X13519922Y-28858126D01*
X13517401Y-28838976D01*
X13517401Y-28797044D01*
X13483070Y-28714165D01*
X13483069Y-28714163D01*
X13415421Y-28646515D01*
X13415414Y-28646509D01*
X7914874Y-23145969D01*
X7893200Y-23093643D01*
X7893200Y-4487823D01*
X7914874Y-4435497D01*
X7930200Y-4423737D01*
X7944313Y-4415589D01*
X8028189Y-4331713D01*
X8087499Y-4228986D01*
X8087500Y-4228981D01*
X8088663Y-4226175D01*
X8089749Y-4225088D01*
X8089924Y-4224786D01*
X8090005Y-4224832D01*
X8128709Y-4186124D01*
X8185346Y-4186120D01*
X8209358Y-4202163D01*
X9303726Y-5296531D01*
X9325400Y-5348857D01*
X9325400Y-19047973D01*
X9325399Y-19047987D01*
X9325399Y-19053945D01*
X9325399Y-19143655D01*
X9347694Y-19197479D01*
X9359730Y-19226536D01*
X9423164Y-19289970D01*
X9433571Y-19300377D01*
X9433573Y-19300378D01*
X15165565Y-25032370D01*
X15187239Y-25084696D01*
X15184718Y-25103846D01*
X15180500Y-25119588D01*
X15180500Y-25238211D01*
X15211199Y-25352782D01*
X15211201Y-25352787D01*
X15270508Y-25455509D01*
X15270509Y-25455510D01*
X15270511Y-25455513D01*
X15354387Y-25539389D01*
X15354389Y-25539390D01*
X15354390Y-25539391D01*
X15457112Y-25598698D01*
X15457114Y-25598699D01*
X15457115Y-25598699D01*
X15457117Y-25598700D01*
X15483585Y-25605792D01*
X15571688Y-25629399D01*
X15571689Y-25629400D01*
X15571691Y-25629400D01*
X15690311Y-25629400D01*
X15690311Y-25629399D01*
X15804886Y-25598699D01*
X15907613Y-25539389D01*
X15991489Y-25455513D01*
X16013270Y-25417788D01*
X17004200Y-25417788D01*
X17004200Y-25536411D01*
X17034899Y-25650982D01*
X17034901Y-25650987D01*
X17094208Y-25753709D01*
X17094209Y-25753710D01*
X17094211Y-25753713D01*
X17178087Y-25837589D01*
X17178089Y-25837590D01*
X17178090Y-25837591D01*
X17259733Y-25884728D01*
X17280814Y-25896899D01*
X17280815Y-25896899D01*
X17280817Y-25896900D01*
X17337477Y-25912082D01*
X17395388Y-25927599D01*
X17395389Y-25927600D01*
X17395391Y-25927600D01*
X17514011Y-25927600D01*
X17514011Y-25927599D01*
X17628586Y-25896899D01*
X17731313Y-25837589D01*
X17815189Y-25753713D01*
X17874499Y-25650986D01*
X17905199Y-25536411D01*
X17905200Y-25536411D01*
X17905200Y-25417789D01*
X17905199Y-25417788D01*
X17894460Y-25377711D01*
X17881329Y-25328702D01*
X17874500Y-25303217D01*
X17874498Y-25303212D01*
X17815191Y-25200490D01*
X17815190Y-25200489D01*
X17815189Y-25200487D01*
X17731313Y-25116611D01*
X17717199Y-25108462D01*
X17682721Y-25063528D01*
X17680200Y-25044377D01*
X17680200Y-8473850D01*
X17701874Y-8421524D01*
X17735044Y-8402372D01*
X17815186Y-8380899D01*
X17917913Y-8321589D01*
X18001789Y-8237713D01*
X18061099Y-8134986D01*
X18091799Y-8020411D01*
X18091800Y-8020411D01*
X18091800Y-7901789D01*
X18091799Y-7901788D01*
X18086255Y-7881099D01*
X18061099Y-7787214D01*
X18050815Y-7769401D01*
X18001791Y-7684490D01*
X18001790Y-7684489D01*
X18001789Y-7684487D01*
X17917913Y-7600611D01*
X17917910Y-7600609D01*
X17917909Y-7600608D01*
X17815187Y-7541301D01*
X17815182Y-7541299D01*
X17700611Y-7510600D01*
X17700609Y-7510600D01*
X17581991Y-7510600D01*
X17581989Y-7510600D01*
X17467417Y-7541299D01*
X17467412Y-7541301D01*
X17364690Y-7600608D01*
X17280808Y-7684490D01*
X17221501Y-7787212D01*
X17221499Y-7787217D01*
X17190800Y-7901788D01*
X17190800Y-8020411D01*
X17221499Y-8134982D01*
X17223358Y-8139469D01*
X17221683Y-8140162D01*
X17229199Y-8168147D01*
X17229199Y-8201166D01*
X17229200Y-8201175D01*
X17229200Y-25044377D01*
X17207526Y-25096703D01*
X17192201Y-25108462D01*
X17178090Y-25116609D01*
X17178088Y-25116610D01*
X17094208Y-25200490D01*
X17034901Y-25303212D01*
X17034899Y-25303217D01*
X17004200Y-25417788D01*
X16013270Y-25417788D01*
X16017247Y-25410899D01*
X16037431Y-25375941D01*
X16037432Y-25375940D01*
X16050796Y-25352791D01*
X16050798Y-25352787D01*
X16050799Y-25352786D01*
X16081499Y-25238211D01*
X16081500Y-25238211D01*
X16081500Y-25119589D01*
X16081499Y-25119588D01*
X16081329Y-25118955D01*
X16050799Y-25005014D01*
X15991489Y-24902287D01*
X15907613Y-24818411D01*
X15907610Y-24818409D01*
X15907609Y-24818408D01*
X15804887Y-24759101D01*
X15804882Y-24759099D01*
X15690311Y-24728400D01*
X15690309Y-24728400D01*
X15571691Y-24728400D01*
X15571690Y-24728400D01*
X15555946Y-24732618D01*
X15499794Y-24725224D01*
X15484470Y-24713465D01*
X9798074Y-19027069D01*
X9776400Y-18974743D01*
X9776400Y-5830574D01*
X9798074Y-5778248D01*
X9850400Y-5756574D01*
X9887399Y-5766488D01*
X9903633Y-5775861D01*
X9919110Y-5784797D01*
X9919112Y-5784797D01*
X9919114Y-5784799D01*
X9919115Y-5784799D01*
X9919117Y-5784800D01*
X9976402Y-5800149D01*
X10033688Y-5815499D01*
X10033689Y-5815500D01*
X10033691Y-5815500D01*
X10152311Y-5815500D01*
X10152311Y-5815499D01*
X10266886Y-5784799D01*
X10369613Y-5725489D01*
X10453489Y-5641613D01*
X10512799Y-5538886D01*
X10543499Y-5424311D01*
X10543500Y-5424311D01*
X10543500Y-5305689D01*
X10543499Y-5305688D01*
X10541045Y-5296531D01*
X10520229Y-5218844D01*
X10512800Y-5191117D01*
X10512798Y-5191112D01*
X10453491Y-5088390D01*
X10453490Y-5088389D01*
X10453489Y-5088387D01*
X10369613Y-5004511D01*
X10355499Y-4996362D01*
X10321021Y-4951428D01*
X10318500Y-4932277D01*
X10318500Y-3380302D01*
X12280000Y-3380302D01*
X12280000Y-4200000D01*
X12878804Y-4200000D01*
X12870000Y-4232857D01*
X12870000Y-4367143D01*
X12878804Y-4400000D01*
X12280000Y-4400000D01*
X12280000Y-5219697D01*
X12291603Y-5278035D01*
X12335807Y-5344191D01*
X12335808Y-5344192D01*
X12401964Y-5388396D01*
X12460303Y-5400000D01*
X13280000Y-5400000D01*
X13280000Y-4801196D01*
X13312857Y-4810000D01*
X13447143Y-4810000D01*
X13480000Y-4801196D01*
X13480000Y-5400000D01*
X14299697Y-5400000D01*
X14358035Y-5388396D01*
X14424191Y-5344192D01*
X14424192Y-5344191D01*
X14468396Y-5278035D01*
X14480000Y-5219697D01*
X14480000Y-4400000D01*
X13881196Y-4400000D01*
X13890000Y-4367143D01*
X13890000Y-4232857D01*
X13881196Y-4200000D01*
X14480000Y-4200000D01*
X14480000Y-4196535D01*
X14869500Y-4196535D01*
X14869500Y-4403465D01*
X14871912Y-4415589D01*
X14909868Y-4606413D01*
X14909870Y-4606420D01*
X14989059Y-4797598D01*
X15062218Y-4907090D01*
X15104023Y-4969655D01*
X15250345Y-5115977D01*
X15422402Y-5230941D01*
X15613580Y-5310130D01*
X15634935Y-5314377D01*
X15682027Y-5345840D01*
X15694500Y-5386955D01*
X15694500Y-5493877D01*
X15672826Y-5546203D01*
X15657501Y-5557962D01*
X15643390Y-5566109D01*
X15643388Y-5566110D01*
X15559508Y-5649990D01*
X15500201Y-5752712D01*
X15500199Y-5752717D01*
X15469500Y-5867288D01*
X15469500Y-5985911D01*
X15500199Y-6100482D01*
X15500201Y-6100487D01*
X15559508Y-6203209D01*
X15559509Y-6203210D01*
X15559511Y-6203213D01*
X15643387Y-6287089D01*
X15746114Y-6346399D01*
X15746115Y-6346399D01*
X15746117Y-6346400D01*
X15803402Y-6361749D01*
X15860688Y-6377099D01*
X15860689Y-6377100D01*
X15860691Y-6377100D01*
X15979311Y-6377100D01*
X15979311Y-6377099D01*
X16093886Y-6346399D01*
X16196613Y-6287089D01*
X16280489Y-6203213D01*
X16339799Y-6100486D01*
X16370499Y-5985911D01*
X16370500Y-5985911D01*
X16370500Y-5867289D01*
X16370499Y-5867288D01*
X16339800Y-5752717D01*
X16339798Y-5752712D01*
X16280491Y-5649990D01*
X16280490Y-5649989D01*
X16280489Y-5649987D01*
X16196613Y-5566111D01*
X16182499Y-5557962D01*
X16148021Y-5513028D01*
X16145500Y-5493877D01*
X16145500Y-5386955D01*
X16167174Y-5334629D01*
X16205063Y-5314377D01*
X16226420Y-5310130D01*
X16417598Y-5230941D01*
X16589655Y-5115977D01*
X16735977Y-4969655D01*
X16850941Y-4797598D01*
X16930130Y-4606420D01*
X16970500Y-4403465D01*
X16970500Y-4196535D01*
X16930130Y-3993580D01*
X16850941Y-3802402D01*
X16735977Y-3630345D01*
X16589655Y-3484023D01*
X16544469Y-3453831D01*
X16417598Y-3369059D01*
X16226420Y-3289870D01*
X16226413Y-3289868D01*
X16073516Y-3259455D01*
X16023465Y-3249500D01*
X15816535Y-3249500D01*
X15776385Y-3257486D01*
X15613586Y-3289868D01*
X15613579Y-3289870D01*
X15422401Y-3369059D01*
X15250345Y-3484022D01*
X15250344Y-3484024D01*
X15104024Y-3630344D01*
X15104022Y-3630345D01*
X14989059Y-3802401D01*
X14909870Y-3993579D01*
X14909868Y-3993586D01*
X14885835Y-4114411D01*
X14869500Y-4196535D01*
X14480000Y-4196535D01*
X14480000Y-3380302D01*
X14468396Y-3321964D01*
X14424192Y-3255808D01*
X14424191Y-3255807D01*
X14358035Y-3211603D01*
X14299697Y-3200000D01*
X13480000Y-3200000D01*
X13480000Y-3798803D01*
X13447143Y-3790000D01*
X13312857Y-3790000D01*
X13280000Y-3798803D01*
X13280000Y-3200000D01*
X12460303Y-3200000D01*
X12401964Y-3211603D01*
X12335808Y-3255807D01*
X12335807Y-3255808D01*
X12291603Y-3321964D01*
X12280000Y-3380302D01*
X10318500Y-3380302D01*
X10318500Y-2401582D01*
X38249500Y-2401582D01*
X38249500Y-2598417D01*
X38280290Y-2792823D01*
X38280293Y-2792836D01*
X38341113Y-2980019D01*
X38430475Y-3155404D01*
X38528169Y-3289868D01*
X38546172Y-3314646D01*
X38685354Y-3453828D01*
X38844595Y-3569524D01*
X39019975Y-3658884D01*
X39019977Y-3658884D01*
X39019980Y-3658886D01*
X39207163Y-3719706D01*
X39207169Y-3719707D01*
X39207174Y-3719709D01*
X39336780Y-3740236D01*
X39401582Y-3750500D01*
X39401583Y-3750500D01*
X39598418Y-3750500D01*
X39647019Y-3742802D01*
X39792826Y-3719709D01*
X39792833Y-3719706D01*
X39792836Y-3719706D01*
X39980019Y-3658886D01*
X39980019Y-3658885D01*
X39980025Y-3658884D01*
X40155405Y-3569524D01*
X40314646Y-3453828D01*
X40453828Y-3314646D01*
X40569524Y-3155405D01*
X40658884Y-2980025D01*
X40719709Y-2792826D01*
X40750500Y-2598417D01*
X40750500Y-2401583D01*
X40719709Y-2207174D01*
X40719707Y-2207169D01*
X40719706Y-2207163D01*
X40658886Y-2019980D01*
X40658884Y-2019977D01*
X40658884Y-2019975D01*
X40569524Y-1844595D01*
X40510017Y-1762691D01*
X40453831Y-1685358D01*
X40453830Y-1685357D01*
X40453828Y-1685354D01*
X40314646Y-1546172D01*
X40314643Y-1546169D01*
X40314641Y-1546168D01*
X40155404Y-1430475D01*
X39980019Y-1341113D01*
X39792836Y-1280293D01*
X39792823Y-1280290D01*
X39598418Y-1249500D01*
X39598417Y-1249500D01*
X39401583Y-1249500D01*
X39401582Y-1249500D01*
X39207176Y-1280290D01*
X39207163Y-1280293D01*
X39019980Y-1341113D01*
X38844595Y-1430475D01*
X38685358Y-1546168D01*
X38546168Y-1685358D01*
X38430475Y-1844595D01*
X38341113Y-2019980D01*
X38280293Y-2207163D01*
X38280290Y-2207176D01*
X38249500Y-2401582D01*
X10318500Y-2401582D01*
X10318500Y-2282378D01*
X10340174Y-2230052D01*
X10355500Y-2218292D01*
X10417513Y-2182489D01*
X10501389Y-2098613D01*
X10560699Y-1995886D01*
X10591399Y-1881311D01*
X10591400Y-1881311D01*
X10591400Y-1762689D01*
X10591399Y-1762688D01*
X10560700Y-1648117D01*
X10560698Y-1648112D01*
X10501391Y-1545390D01*
X10501390Y-1545389D01*
X10501389Y-1545387D01*
X10417513Y-1461511D01*
X10417510Y-1461509D01*
X10417509Y-1461508D01*
X10314787Y-1402201D01*
X10314782Y-1402199D01*
X10200211Y-1371500D01*
X10200209Y-1371500D01*
X10081591Y-1371500D01*
X10081589Y-1371500D01*
X9967017Y-1402199D01*
X9967012Y-1402201D01*
X9864290Y-1461508D01*
X9780408Y-1545390D01*
X9721101Y-1648112D01*
X9721099Y-1648117D01*
X9690400Y-1762688D01*
X9690400Y-1881311D01*
X9721099Y-1995882D01*
X9721101Y-1995887D01*
X9780408Y-2098609D01*
X9780409Y-2098610D01*
X9780411Y-2098613D01*
X9845826Y-2164028D01*
X9867500Y-2216353D01*
X9867500Y-4932277D01*
X9845826Y-4984603D01*
X9830501Y-4996362D01*
X9816390Y-5004509D01*
X9816388Y-5004510D01*
X9785277Y-5035621D01*
X9732951Y-5057294D01*
X9680626Y-5035620D01*
X9674421Y-5029415D01*
X9674414Y-5029409D01*
X8074578Y-3429573D01*
X8074578Y-3429572D01*
X8000738Y-3355732D01*
X8000736Y-3355730D01*
X7976463Y-3345675D01*
X7976458Y-3345673D01*
X7976458Y-3345672D01*
X7917855Y-3321399D01*
X7828145Y-3321399D01*
X7819533Y-3321399D01*
X7819525Y-3321400D01*
X5308475Y-3321400D01*
X5308467Y-3321399D01*
X5299855Y-3321399D01*
X5210145Y-3321399D01*
X5151539Y-3345674D01*
X5151537Y-3345675D01*
X5151536Y-3345674D01*
X5127263Y-3355730D01*
X5063829Y-3419165D01*
X4528128Y-3954865D01*
X4475802Y-3976539D01*
X4456653Y-3974018D01*
X4440909Y-3969800D01*
X4322291Y-3969800D01*
X4322289Y-3969800D01*
X4207717Y-4000499D01*
X4207712Y-4000501D01*
X4104990Y-4059808D01*
X4021108Y-4143690D01*
X3961801Y-4246412D01*
X3961799Y-4246417D01*
X3931100Y-4360988D01*
X3931100Y-4479611D01*
X3961799Y-4594182D01*
X3961801Y-4594187D01*
X4021108Y-4696909D01*
X4021109Y-4696910D01*
X4021111Y-4696913D01*
X4104987Y-4780789D01*
X4104989Y-4780790D01*
X4104990Y-4780791D01*
X4178458Y-4823208D01*
X4207714Y-4840099D01*
X4207715Y-4840099D01*
X4207717Y-4840100D01*
X4236439Y-4847796D01*
X4322288Y-4870799D01*
X4322289Y-4870800D01*
X4322291Y-4870800D01*
X4440911Y-4870800D01*
X4440911Y-4870799D01*
X4555486Y-4840099D01*
X4658213Y-4780789D01*
X4742089Y-4696913D01*
X4801399Y-4594186D01*
X4832099Y-4479611D01*
X4832100Y-4479611D01*
X4832100Y-4360989D01*
X4827882Y-4345249D01*
X4835274Y-4289096D01*
X4847030Y-4273773D01*
X5326731Y-3794074D01*
X5379057Y-3772400D01*
X7182553Y-3772400D01*
X7234879Y-3794074D01*
X7256553Y-3846400D01*
X7248557Y-3876233D01*
X7249758Y-3876731D01*
X7247899Y-3881217D01*
X7217200Y-3995788D01*
X7217200Y-4114411D01*
X7247899Y-4228982D01*
X7247901Y-4228987D01*
X7307208Y-4331709D01*
X7307209Y-4331710D01*
X7307211Y-4331713D01*
X7391087Y-4415589D01*
X7405200Y-4423737D01*
X7439678Y-4468670D01*
X7442200Y-4487823D01*
X7442200Y-23166873D01*
X7442199Y-23166887D01*
X7442199Y-23172845D01*
X7442199Y-23262555D01*
X7444001Y-23266905D01*
X7459487Y-23304291D01*
X7476529Y-23345434D01*
X7476531Y-23345437D01*
X7550371Y-23419277D01*
X7550373Y-23419278D01*
X8788769Y-24657674D01*
X8810443Y-24710000D01*
X8788769Y-24762326D01*
X8736443Y-24784000D01*
X8673589Y-24784000D01*
X8559017Y-24814699D01*
X8559012Y-24814701D01*
X8456290Y-24874008D01*
X8372408Y-24957890D01*
X8313101Y-25060612D01*
X8313099Y-25060617D01*
X8282400Y-25175188D01*
X8282400Y-25293811D01*
X8313099Y-25408382D01*
X8313101Y-25408387D01*
X8372408Y-25511109D01*
X8372409Y-25511110D01*
X8372411Y-25511113D01*
X8456287Y-25594989D01*
X8456289Y-25594990D01*
X8456290Y-25594991D01*
X8553277Y-25650987D01*
X8559014Y-25654299D01*
X8559015Y-25654299D01*
X8559017Y-25654300D01*
X8616302Y-25669649D01*
X8673588Y-25684999D01*
X8673589Y-25685000D01*
X8673591Y-25685000D01*
X8792207Y-25685000D01*
X8792209Y-25685000D01*
X8807948Y-25680782D01*
X8864099Y-25688172D01*
X8879428Y-25699934D01*
X9528194Y-26348700D01*
X9547346Y-26381873D01*
X9555199Y-26411182D01*
X9555201Y-26411187D01*
X9614508Y-26513909D01*
X9614509Y-26513910D01*
X9614511Y-26513913D01*
X9698387Y-26597789D01*
X9698389Y-26597790D01*
X9698390Y-26597791D01*
X9778921Y-26644286D01*
X9801114Y-26657099D01*
X9801115Y-26657099D01*
X9801117Y-26657100D01*
X9817572Y-26661509D01*
X9915688Y-26687799D01*
X9915689Y-26687800D01*
X9915691Y-26687800D01*
X10034311Y-26687800D01*
X10034311Y-26687799D01*
X10148886Y-26657099D01*
X10251613Y-26597789D01*
X10335489Y-26513913D01*
X10394799Y-26411186D01*
X10394802Y-26411172D01*
X10395608Y-26409230D01*
X10396366Y-26408471D01*
X10397224Y-26406986D01*
X10397621Y-26407215D01*
X10435650Y-26369175D01*
X10492287Y-26369165D01*
X10516306Y-26385211D01*
X12976470Y-28845375D01*
X12998144Y-28897701D01*
X12976471Y-28950026D01*
X12931408Y-28995090D01*
X12872101Y-29097812D01*
X12872099Y-29097817D01*
X12841400Y-29212388D01*
X12841400Y-29331013D01*
X12845617Y-29346753D01*
X12838222Y-29402905D01*
X12826464Y-29418228D01*
X10373569Y-31871126D01*
X10321243Y-31892800D01*
X10162723Y-31892800D01*
X10110397Y-31871126D01*
X10098637Y-31855800D01*
X10090489Y-31841687D01*
X10006613Y-31757811D01*
X10006610Y-31757809D01*
X10006609Y-31757808D01*
X9903887Y-31698501D01*
X9903882Y-31698499D01*
X9789311Y-31667800D01*
X9789309Y-31667800D01*
X9670691Y-31667800D01*
X9670689Y-31667800D01*
X9556117Y-31698499D01*
X9556112Y-31698501D01*
X9453390Y-31757808D01*
X9369508Y-31841690D01*
X9310201Y-31944412D01*
X9310199Y-31944417D01*
X9279500Y-32058988D01*
X9279500Y-32177611D01*
X9310199Y-32292182D01*
X9310201Y-32292187D01*
X9369508Y-32394909D01*
X9369509Y-32394910D01*
X9369511Y-32394913D01*
X9453387Y-32478789D01*
X9453389Y-32478790D01*
X9453390Y-32478791D01*
X9542684Y-32530345D01*
X9556114Y-32538099D01*
X9556115Y-32538099D01*
X9556117Y-32538100D01*
X9590109Y-32547208D01*
X9670688Y-32568799D01*
X9670689Y-32568800D01*
X9670691Y-32568800D01*
X9789311Y-32568800D01*
X9789311Y-32568799D01*
X9903886Y-32538099D01*
X10006613Y-32478789D01*
X10090489Y-32394913D01*
X10098637Y-32380799D01*
X10143570Y-32346322D01*
X10162723Y-32343800D01*
X10391825Y-32343800D01*
X10391833Y-32343801D01*
X10400445Y-32343801D01*
X10490154Y-32343801D01*
X10490155Y-32343801D01*
X10548760Y-32319525D01*
X10573036Y-32309470D01*
X10636470Y-32246036D01*
X10636470Y-32246035D01*
X10646875Y-32235630D01*
X10646876Y-32235627D01*
X13145371Y-29737133D01*
X13197696Y-29715460D01*
X13216847Y-29717981D01*
X13232591Y-29722200D01*
X13351209Y-29722200D01*
X13366949Y-29717982D01*
X13423100Y-29725373D01*
X13438429Y-29737134D01*
X14310409Y-30609114D01*
X14310412Y-30609118D01*
X14378063Y-30676769D01*
X14384122Y-30680817D01*
X14382574Y-30683133D01*
X14408650Y-30705989D01*
X14441111Y-30762213D01*
X14524987Y-30846089D01*
X14524989Y-30846090D01*
X14524990Y-30846091D01*
X14627712Y-30905398D01*
X14627714Y-30905399D01*
X14627715Y-30905399D01*
X14627717Y-30905400D01*
X14685002Y-30920749D01*
X14742288Y-30936099D01*
X14742289Y-30936100D01*
X14742291Y-30936100D01*
X14860909Y-30936100D01*
X14876649Y-30931882D01*
X14932800Y-30939273D01*
X14948129Y-30951034D01*
X17028309Y-33031214D01*
X17028312Y-33031218D01*
X17063368Y-33066274D01*
X17085042Y-33118600D01*
X17063368Y-33170926D01*
X17011042Y-33192600D01*
X14689245Y-33192600D01*
X14606366Y-33226928D01*
X2844326Y-44988968D01*
X2792000Y-45010642D01*
X2739674Y-44988968D01*
X2718000Y-44936642D01*
X2718000Y-38130102D01*
X4744500Y-38130102D01*
X4744500Y-38389897D01*
X4785139Y-38646490D01*
X4785142Y-38646503D01*
X4865419Y-38893568D01*
X4865421Y-38893573D01*
X4983364Y-39125047D01*
X4983367Y-39125053D01*
X5131461Y-39328887D01*
X5136069Y-39335229D01*
X5319771Y-39518931D01*
X5319774Y-39518933D01*
X5319775Y-39518934D01*
X5355650Y-39544999D01*
X5529949Y-39671634D01*
X5761428Y-39789579D01*
X5761430Y-39789579D01*
X5761431Y-39789580D01*
X6008496Y-39869857D01*
X6008502Y-39869858D01*
X6008507Y-39869860D01*
X6179571Y-39896953D01*
X6265102Y-39910500D01*
X6265103Y-39910500D01*
X6524898Y-39910500D01*
X6589046Y-39900340D01*
X6781493Y-39869860D01*
X6781500Y-39869857D01*
X6781503Y-39869857D01*
X6966781Y-39809656D01*
X7028572Y-39789579D01*
X7260051Y-39671634D01*
X7470229Y-39518931D01*
X7653931Y-39335229D01*
X7806634Y-39125051D01*
X7924579Y-38893572D01*
X7970579Y-38751998D01*
X8004857Y-38646503D01*
X8004857Y-38646500D01*
X8004860Y-38646493D01*
X8045500Y-38389897D01*
X8045500Y-38130103D01*
X8044513Y-38123874D01*
X8017531Y-37953509D01*
X8004860Y-37873507D01*
X8004858Y-37873502D01*
X8004857Y-37873496D01*
X7924580Y-37626431D01*
X7924578Y-37626426D01*
X7902604Y-37583300D01*
X7806634Y-37394949D01*
X7780223Y-37358598D01*
X7653934Y-37184775D01*
X7653933Y-37184774D01*
X7653931Y-37184771D01*
X7470229Y-37001069D01*
X7470226Y-37001066D01*
X7470224Y-37001065D01*
X7260053Y-36848367D01*
X7260047Y-36848364D01*
X7028573Y-36730421D01*
X7028568Y-36730419D01*
X6781503Y-36650142D01*
X6781490Y-36650139D01*
X6524898Y-36609500D01*
X6524897Y-36609500D01*
X6265103Y-36609500D01*
X6265102Y-36609500D01*
X6008509Y-36650139D01*
X6008496Y-36650142D01*
X5761431Y-36730419D01*
X5761426Y-36730421D01*
X5529952Y-36848364D01*
X5529946Y-36848367D01*
X5319775Y-37001065D01*
X5136065Y-37184775D01*
X4983367Y-37394946D01*
X4983364Y-37394952D01*
X4865421Y-37626426D01*
X4865419Y-37626431D01*
X4785142Y-37873496D01*
X4785139Y-37873509D01*
X4744500Y-38130102D01*
X2718000Y-38130102D01*
X2718000Y-35997888D01*
X4092300Y-35997888D01*
X4092300Y-36116511D01*
X4122999Y-36231082D01*
X4123001Y-36231087D01*
X4182308Y-36333809D01*
X4182309Y-36333810D01*
X4182311Y-36333813D01*
X4266187Y-36417689D01*
X4368914Y-36476999D01*
X4368915Y-36476999D01*
X4368917Y-36477000D01*
X4426202Y-36492349D01*
X4483488Y-36507699D01*
X4483489Y-36507700D01*
X4483491Y-36507700D01*
X4602111Y-36507700D01*
X4602111Y-36507699D01*
X4716686Y-36476999D01*
X4819413Y-36417689D01*
X4903289Y-36333813D01*
X4962599Y-36231086D01*
X4993299Y-36116511D01*
X4993300Y-36116511D01*
X4993300Y-35997889D01*
X4993299Y-35997888D01*
X4962600Y-35883317D01*
X4962598Y-35883312D01*
X4903291Y-35780590D01*
X4903290Y-35780589D01*
X4903289Y-35780587D01*
X4819413Y-35696711D01*
X4805299Y-35688562D01*
X4770821Y-35643628D01*
X4768300Y-35624477D01*
X4768300Y-31442556D01*
X4789973Y-31390231D01*
X7593970Y-28586233D01*
X7646295Y-28564560D01*
X7665449Y-28567082D01*
X7681190Y-28571300D01*
X7681191Y-28571300D01*
X7799810Y-28571300D01*
X7824963Y-28564560D01*
X7859323Y-28555353D01*
X7915475Y-28562745D01*
X7949954Y-28607677D01*
X7949954Y-28645983D01*
X7930488Y-28718637D01*
X7926400Y-28733892D01*
X7926400Y-28852511D01*
X7957099Y-28967082D01*
X7957101Y-28967087D01*
X8016408Y-29069809D01*
X8016409Y-29069810D01*
X8016411Y-29069813D01*
X8100287Y-29153689D01*
X8114400Y-29161837D01*
X8148878Y-29206770D01*
X8151400Y-29225923D01*
X8151400Y-29921073D01*
X8151399Y-29921087D01*
X8151399Y-30016754D01*
X8171715Y-30065801D01*
X8185729Y-30099634D01*
X8185731Y-30099637D01*
X8259571Y-30173477D01*
X8259573Y-30173478D01*
X8539565Y-30453470D01*
X8561239Y-30505796D01*
X8558718Y-30524946D01*
X8554500Y-30540688D01*
X8554500Y-30659313D01*
X8558717Y-30675053D01*
X8551322Y-30731205D01*
X8539564Y-30746528D01*
X7898665Y-31387429D01*
X7835231Y-31450863D01*
X7835230Y-31450865D01*
X7800899Y-31533744D01*
X7800899Y-31632066D01*
X7800900Y-31632075D01*
X7800900Y-33007777D01*
X7779226Y-33060103D01*
X7763901Y-33071862D01*
X7749790Y-33080009D01*
X7749788Y-33080010D01*
X7665908Y-33163890D01*
X7606601Y-33266612D01*
X7606599Y-33266617D01*
X7575900Y-33381188D01*
X7575900Y-33499811D01*
X7606599Y-33614382D01*
X7606601Y-33614387D01*
X7665908Y-33717109D01*
X7665909Y-33717110D01*
X7665911Y-33717113D01*
X7749787Y-33800989D01*
X7749789Y-33800990D01*
X7749790Y-33800991D01*
X7850610Y-33859200D01*
X7852514Y-33860299D01*
X7852515Y-33860299D01*
X7852517Y-33860300D01*
X7909802Y-33875649D01*
X7967088Y-33890999D01*
X7967089Y-33891000D01*
X7967091Y-33891000D01*
X8085711Y-33891000D01*
X8085711Y-33890999D01*
X8200286Y-33860299D01*
X8303013Y-33800989D01*
X8386889Y-33717113D01*
X8446199Y-33614386D01*
X8476899Y-33499811D01*
X8476900Y-33499811D01*
X8476900Y-33381189D01*
X8476899Y-33381188D01*
X8446200Y-33266617D01*
X8446198Y-33266612D01*
X8386891Y-33163890D01*
X8386890Y-33163889D01*
X8386889Y-33163887D01*
X8303013Y-33080011D01*
X8288899Y-33071862D01*
X8254421Y-33026928D01*
X8251900Y-33007777D01*
X8251900Y-31702657D01*
X8273574Y-31650331D01*
X8560550Y-31363355D01*
X8858471Y-31065433D01*
X8910796Y-31043760D01*
X8929947Y-31046281D01*
X8945691Y-31050500D01*
X9064311Y-31050500D01*
X9064311Y-31050499D01*
X9178886Y-31019799D01*
X9281613Y-30960489D01*
X9365489Y-30876613D01*
X9424799Y-30773886D01*
X9455499Y-30659311D01*
X9455500Y-30659311D01*
X9455500Y-30540689D01*
X9455499Y-30540688D01*
X9424800Y-30426117D01*
X9424798Y-30426112D01*
X9365491Y-30323390D01*
X9365490Y-30323389D01*
X9365489Y-30323387D01*
X9281613Y-30239511D01*
X9281610Y-30239509D01*
X9281609Y-30239508D01*
X9178887Y-30180201D01*
X9178882Y-30180199D01*
X9064311Y-30149500D01*
X9064309Y-30149500D01*
X8945691Y-30149500D01*
X8945690Y-30149500D01*
X8929946Y-30153718D01*
X8873794Y-30146324D01*
X8858470Y-30134565D01*
X8624074Y-29900169D01*
X8602400Y-29847843D01*
X8602400Y-29225923D01*
X8624074Y-29173597D01*
X8639400Y-29161837D01*
X8653513Y-29153689D01*
X8737389Y-29069813D01*
X8796699Y-28967086D01*
X8827399Y-28852511D01*
X8827400Y-28852511D01*
X8827400Y-28733889D01*
X8827399Y-28733888D01*
X8796700Y-28619317D01*
X8796698Y-28619312D01*
X8737391Y-28516590D01*
X8737390Y-28516589D01*
X8737389Y-28516587D01*
X8653513Y-28432711D01*
X8653510Y-28432709D01*
X8653509Y-28432708D01*
X8550787Y-28373401D01*
X8550782Y-28373399D01*
X8436211Y-28342700D01*
X8436209Y-28342700D01*
X8317591Y-28342700D01*
X8258075Y-28358647D01*
X8201923Y-28351254D01*
X8167444Y-28306320D01*
X8167444Y-28268016D01*
X8191000Y-28180109D01*
X8191000Y-28061491D01*
X8191000Y-28061489D01*
X8190999Y-28061488D01*
X8185302Y-28040228D01*
X8160299Y-27946914D01*
X8132924Y-27899500D01*
X8100991Y-27844190D01*
X8100990Y-27844189D01*
X8100989Y-27844187D01*
X8017113Y-27760311D01*
X8017110Y-27760309D01*
X8017109Y-27760308D01*
X7914387Y-27701001D01*
X7914382Y-27700999D01*
X7799811Y-27670300D01*
X7799809Y-27670300D01*
X7681191Y-27670300D01*
X7681189Y-27670300D01*
X7566617Y-27700999D01*
X7566612Y-27701001D01*
X7463890Y-27760308D01*
X7380008Y-27844190D01*
X7320701Y-27946912D01*
X7320699Y-27946917D01*
X7290000Y-28061488D01*
X7290000Y-28061491D01*
X7290000Y-28180109D01*
X7294045Y-28195205D01*
X7294218Y-28195850D01*
X7286825Y-28252002D01*
X7275065Y-28267328D01*
X4415065Y-31127329D01*
X4351629Y-31190765D01*
X4351627Y-31190768D01*
X4346023Y-31204299D01*
X4346023Y-31204300D01*
X4317299Y-31273645D01*
X4317299Y-31371966D01*
X4317300Y-31371975D01*
X4317300Y-35624477D01*
X4295626Y-35676803D01*
X4280301Y-35688562D01*
X4266190Y-35696709D01*
X4266188Y-35696710D01*
X4182308Y-35780590D01*
X4123001Y-35883312D01*
X4122999Y-35883317D01*
X4092300Y-35997888D01*
X2718000Y-35997888D01*
X2718000Y-31107656D01*
X2739673Y-31055331D01*
X7591370Y-26203633D01*
X7643695Y-26181960D01*
X7662849Y-26184482D01*
X7678590Y-26188700D01*
X7678591Y-26188700D01*
X7797211Y-26188700D01*
X7797211Y-26188699D01*
X7911786Y-26157999D01*
X8014513Y-26098689D01*
X8098389Y-26014813D01*
X8157699Y-25912086D01*
X8188399Y-25797511D01*
X8188400Y-25797511D01*
X8188400Y-25678889D01*
X8188399Y-25678888D01*
X8181810Y-25654299D01*
X8166913Y-25598700D01*
X8157700Y-25564317D01*
X8157698Y-25564312D01*
X8098391Y-25461590D01*
X8098390Y-25461589D01*
X8098389Y-25461587D01*
X8014513Y-25377711D01*
X8014510Y-25377709D01*
X8014509Y-25377708D01*
X7911787Y-25318401D01*
X7911782Y-25318399D01*
X7797211Y-25287700D01*
X7797209Y-25287700D01*
X7678591Y-25287700D01*
X7678589Y-25287700D01*
X7564017Y-25318399D01*
X7564012Y-25318401D01*
X7461290Y-25377708D01*
X7377408Y-25461590D01*
X7318101Y-25564312D01*
X7318099Y-25564317D01*
X7287400Y-25678888D01*
X7287400Y-25678891D01*
X7287400Y-25797509D01*
X7291618Y-25813250D01*
X7284225Y-25869402D01*
X7272465Y-25884728D01*
X2364765Y-30792429D01*
X2301329Y-30855865D01*
X2301327Y-30855868D01*
X2293101Y-30875729D01*
X2293101Y-30875730D01*
X2266999Y-30938745D01*
X2266999Y-31037066D01*
X2267000Y-31037075D01*
X2267000Y-47996973D01*
X2266999Y-47996987D01*
X2266999Y-48002945D01*
X2266999Y-48092655D01*
X2280514Y-48125281D01*
X2301328Y-48175533D01*
X2301331Y-48175537D01*
X2375171Y-48249377D01*
X2375173Y-48249378D01*
X3393565Y-49267770D01*
X3415239Y-49320096D01*
X3412718Y-49339246D01*
X3408500Y-49354988D01*
X3408500Y-49473611D01*
X3439199Y-49588182D01*
X3439201Y-49588187D01*
X3498508Y-49690909D01*
X3498509Y-49690910D01*
X3498511Y-49690913D01*
X3582387Y-49774789D01*
X3582389Y-49774790D01*
X3582390Y-49774791D01*
X3670740Y-49825800D01*
X3685114Y-49834099D01*
X3685115Y-49834099D01*
X3685117Y-49834100D01*
X3734433Y-49847314D01*
X3799688Y-49864799D01*
X3799689Y-49864800D01*
X3799691Y-49864800D01*
X3918311Y-49864800D01*
X3918311Y-49864799D01*
X4032886Y-49834099D01*
X4135613Y-49774789D01*
X4219489Y-49690913D01*
X4278799Y-49588186D01*
X4309499Y-49473611D01*
X4309500Y-49473611D01*
X4309500Y-49354989D01*
X4309499Y-49354988D01*
X4305772Y-49341080D01*
X4291855Y-49289138D01*
X4278800Y-49240417D01*
X4278798Y-49240412D01*
X4219491Y-49137690D01*
X4219490Y-49137689D01*
X4219489Y-49137687D01*
X4135613Y-49053811D01*
X4135610Y-49053809D01*
X4135609Y-49053808D01*
X4032887Y-48994501D01*
X4032882Y-48994499D01*
X3918311Y-48963800D01*
X3918309Y-48963800D01*
X3799691Y-48963800D01*
X3799690Y-48963800D01*
X3783946Y-48968018D01*
X3727794Y-48960624D01*
X3712470Y-48948865D01*
X3171793Y-48408188D01*
X4322300Y-48408188D01*
X4322300Y-48526811D01*
X4352999Y-48641382D01*
X4353001Y-48641387D01*
X4412308Y-48744109D01*
X4412309Y-48744110D01*
X4412311Y-48744113D01*
X4496187Y-48827989D01*
X4496189Y-48827990D01*
X4496190Y-48827991D01*
X4593704Y-48884291D01*
X4598914Y-48887299D01*
X4598915Y-48887299D01*
X4598917Y-48887300D01*
X4656202Y-48902649D01*
X4713488Y-48917999D01*
X4713489Y-48918000D01*
X4713491Y-48918000D01*
X4832111Y-48918000D01*
X4832111Y-48917999D01*
X4946686Y-48887299D01*
X5049413Y-48827989D01*
X5133289Y-48744113D01*
X5185143Y-48654299D01*
X5230076Y-48619821D01*
X5249229Y-48617300D01*
X5695825Y-48617300D01*
X5748151Y-48638974D01*
X5769825Y-48691300D01*
X5759911Y-48728300D01*
X5736001Y-48769712D01*
X5735999Y-48769717D01*
X5705300Y-48884288D01*
X5705300Y-49002911D01*
X5735999Y-49117482D01*
X5736001Y-49117487D01*
X5795308Y-49220209D01*
X5795309Y-49220210D01*
X5795311Y-49220213D01*
X5879187Y-49304089D01*
X5879189Y-49304090D01*
X5879190Y-49304091D01*
X5979716Y-49362130D01*
X5981914Y-49363399D01*
X5981915Y-49363399D01*
X5981917Y-49363400D01*
X6022574Y-49374294D01*
X6096488Y-49394099D01*
X6096489Y-49394100D01*
X6096491Y-49394100D01*
X6215109Y-49394100D01*
X6230849Y-49389882D01*
X6287000Y-49397273D01*
X6302329Y-49409034D01*
X7231929Y-50338634D01*
X7231930Y-50338636D01*
X7295364Y-50402070D01*
X7319639Y-50412125D01*
X7378245Y-50436401D01*
X7378246Y-50436401D01*
X7476567Y-50436401D01*
X7476575Y-50436400D01*
X11080677Y-50436400D01*
X11133003Y-50458074D01*
X11144762Y-50473399D01*
X11152911Y-50487513D01*
X11236787Y-50571389D01*
X11339514Y-50630699D01*
X11339515Y-50630699D01*
X11339517Y-50630700D01*
X11396802Y-50646049D01*
X11454088Y-50661399D01*
X11454089Y-50661400D01*
X11454091Y-50661400D01*
X11572711Y-50661400D01*
X11572711Y-50661399D01*
X11687286Y-50630699D01*
X11790013Y-50571389D01*
X11873889Y-50487513D01*
X11933199Y-50384786D01*
X11963899Y-50270211D01*
X11963900Y-50270211D01*
X11963900Y-50151589D01*
X11963899Y-50151588D01*
X11933200Y-50037017D01*
X11933198Y-50037012D01*
X11873891Y-49934290D01*
X11873890Y-49934289D01*
X11873889Y-49934287D01*
X11790013Y-49850411D01*
X11790010Y-49850409D01*
X11790009Y-49850408D01*
X11687287Y-49791101D01*
X11687282Y-49791099D01*
X11655249Y-49782516D01*
X11610316Y-49748037D01*
X11602924Y-49691885D01*
X11610316Y-49674038D01*
X11634998Y-49631287D01*
X11634999Y-49631286D01*
X11665699Y-49516711D01*
X11665700Y-49516711D01*
X11665700Y-49398089D01*
X11665699Y-49398088D01*
X11664630Y-49394100D01*
X11646916Y-49327988D01*
X11635000Y-49283517D01*
X11634998Y-49283512D01*
X11575691Y-49180790D01*
X11575690Y-49180789D01*
X11575689Y-49180787D01*
X11491813Y-49096911D01*
X11491810Y-49096909D01*
X11491809Y-49096908D01*
X11389087Y-49037601D01*
X11389082Y-49037599D01*
X11274511Y-49006900D01*
X11274509Y-49006900D01*
X11155891Y-49006900D01*
X11155890Y-49006900D01*
X11140146Y-49011118D01*
X11083994Y-49003724D01*
X11068670Y-48991965D01*
X10351178Y-48274473D01*
X10351178Y-48274472D01*
X10277337Y-48200631D01*
X10277333Y-48200628D01*
X10245934Y-48187623D01*
X10194455Y-48166299D01*
X10104745Y-48166299D01*
X10096133Y-48166299D01*
X10096125Y-48166300D01*
X5139354Y-48166300D01*
X5087029Y-48144627D01*
X5049413Y-48107011D01*
X5049410Y-48107009D01*
X5049409Y-48107008D01*
X4946687Y-48047701D01*
X4946682Y-48047699D01*
X4832111Y-48017000D01*
X4832109Y-48017000D01*
X4713491Y-48017000D01*
X4713489Y-48017000D01*
X4598917Y-48047699D01*
X4598912Y-48047701D01*
X4496190Y-48107008D01*
X4412308Y-48190890D01*
X4353001Y-48293612D01*
X4352999Y-48293617D01*
X4322300Y-48408188D01*
X3171793Y-48408188D01*
X2739674Y-47976069D01*
X2718000Y-47923743D01*
X2718000Y-47319393D01*
X2739674Y-47267067D01*
X2792000Y-47245393D01*
X2829001Y-47255308D01*
X2862409Y-47274597D01*
X2862417Y-47274600D01*
X2903500Y-47285608D01*
X2976988Y-47305299D01*
X2976989Y-47305300D01*
X2976991Y-47305300D01*
X3095611Y-47305300D01*
X3095611Y-47305299D01*
X3210186Y-47274599D01*
X3312913Y-47215289D01*
X3396789Y-47131413D01*
X3456099Y-47028686D01*
X3486799Y-46914111D01*
X3486800Y-46914111D01*
X3486800Y-46795489D01*
X3486799Y-46795488D01*
X3482538Y-46779587D01*
X3456099Y-46680914D01*
X3410840Y-46602524D01*
X3396791Y-46578190D01*
X3396790Y-46578189D01*
X3396789Y-46578187D01*
X3312913Y-46494311D01*
X3298799Y-46486162D01*
X3264321Y-46441228D01*
X3261800Y-46422077D01*
X3261800Y-45239957D01*
X3283474Y-45187631D01*
X3424496Y-45046609D01*
X3586501Y-44884603D01*
X3638826Y-44862930D01*
X3691152Y-44884604D01*
X3710304Y-44917776D01*
X3717300Y-44943883D01*
X3717301Y-44943887D01*
X3776608Y-45046609D01*
X3776609Y-45046610D01*
X3776611Y-45046613D01*
X3860487Y-45130489D01*
X3860489Y-45130490D01*
X3860490Y-45130491D01*
X3912912Y-45160757D01*
X3963214Y-45189799D01*
X3963215Y-45189799D01*
X3963217Y-45189800D01*
X4020502Y-45205149D01*
X4077788Y-45220499D01*
X4077789Y-45220500D01*
X4077791Y-45220500D01*
X4196411Y-45220500D01*
X4196411Y-45220499D01*
X4310986Y-45189799D01*
X4413713Y-45130489D01*
X4497589Y-45046613D01*
X4556899Y-44943886D01*
X4587599Y-44829311D01*
X4587600Y-44829311D01*
X4587600Y-44710689D01*
X4583382Y-44694949D01*
X4590774Y-44638796D01*
X4602530Y-44623473D01*
X4745901Y-44480102D01*
X7284500Y-44480102D01*
X7284500Y-44739897D01*
X7325139Y-44996490D01*
X7325142Y-44996503D01*
X7405419Y-45243568D01*
X7405421Y-45243573D01*
X7523364Y-45475047D01*
X7523367Y-45475053D01*
X7632673Y-45625500D01*
X7676069Y-45685229D01*
X7859771Y-45868931D01*
X8069949Y-46021634D01*
X8301428Y-46139579D01*
X8301430Y-46139579D01*
X8301431Y-46139580D01*
X8548496Y-46219857D01*
X8548502Y-46219858D01*
X8548507Y-46219860D01*
X8719571Y-46246953D01*
X8805102Y-46260500D01*
X8805103Y-46260500D01*
X9064898Y-46260500D01*
X9129046Y-46250340D01*
X9321493Y-46219860D01*
X9321500Y-46219857D01*
X9321503Y-46219857D01*
X9433674Y-46183409D01*
X9568572Y-46139579D01*
X9800051Y-46021634D01*
X10010229Y-45868931D01*
X10193931Y-45685229D01*
X10346634Y-45475051D01*
X10464579Y-45243572D01*
X10527795Y-45049013D01*
X10544857Y-44996503D01*
X10544857Y-44996500D01*
X10544860Y-44996493D01*
X10585500Y-44739897D01*
X10585500Y-44480103D01*
X10544860Y-44223507D01*
X10544858Y-44223502D01*
X10544857Y-44223496D01*
X10464580Y-43976431D01*
X10464578Y-43976426D01*
X10428412Y-43905446D01*
X10346634Y-43744949D01*
X10193931Y-43534771D01*
X10010229Y-43351069D01*
X10010226Y-43351066D01*
X10010224Y-43351065D01*
X9800053Y-43198367D01*
X9800047Y-43198364D01*
X9568573Y-43080421D01*
X9568568Y-43080419D01*
X9321503Y-43000142D01*
X9321490Y-43000139D01*
X9064898Y-42959500D01*
X9064897Y-42959500D01*
X8805103Y-42959500D01*
X8805102Y-42959500D01*
X8548509Y-43000139D01*
X8548496Y-43000142D01*
X8301431Y-43080419D01*
X8301426Y-43080421D01*
X8069952Y-43198364D01*
X8069946Y-43198367D01*
X7859775Y-43351065D01*
X7676065Y-43534775D01*
X7523367Y-43744946D01*
X7523364Y-43744952D01*
X7405421Y-43976426D01*
X7405419Y-43976431D01*
X7325142Y-44223496D01*
X7325139Y-44223509D01*
X7284500Y-44480102D01*
X4745901Y-44480102D01*
X9394299Y-39831704D01*
X9446625Y-39810031D01*
X9498951Y-39831705D01*
X9520625Y-39884031D01*
X9514992Y-39912349D01*
X9434259Y-40107257D01*
X9434255Y-40107268D01*
X9361294Y-40379565D01*
X9332483Y-40598409D01*
X9324500Y-40659049D01*
X9324500Y-40940951D01*
X9332506Y-41001763D01*
X9361294Y-41220434D01*
X9434255Y-41492731D01*
X9434259Y-41492742D01*
X9542133Y-41753174D01*
X9542136Y-41753182D01*
X9658245Y-41954287D01*
X9683088Y-41997317D01*
X9854700Y-42220965D01*
X10054035Y-42420300D01*
X10277683Y-42591912D01*
X10521817Y-42732863D01*
X10782261Y-42840742D01*
X11054558Y-42913704D01*
X11054564Y-42913704D01*
X11054565Y-42913705D01*
X11054564Y-42913705D01*
X11178594Y-42930033D01*
X11334049Y-42950500D01*
X11334051Y-42950500D01*
X11615949Y-42950500D01*
X11615951Y-42950500D01*
X11895442Y-42913704D01*
X12167739Y-42840742D01*
X12428183Y-42732863D01*
X12672317Y-42591912D01*
X12895965Y-42420300D01*
X13095300Y-42220965D01*
X13266912Y-41997317D01*
X13407863Y-41753183D01*
X13515742Y-41492739D01*
X13588704Y-41220442D01*
X13625500Y-40940951D01*
X13625500Y-40659049D01*
X13588704Y-40379558D01*
X13515742Y-40107261D01*
X13407863Y-39846817D01*
X13266912Y-39602683D01*
X13095300Y-39379035D01*
X12895965Y-39179700D01*
X12786479Y-39095688D01*
X13637100Y-39095688D01*
X13637100Y-39214311D01*
X13667799Y-39328882D01*
X13667801Y-39328887D01*
X13727108Y-39431609D01*
X13727109Y-39431610D01*
X13727111Y-39431613D01*
X13810987Y-39515489D01*
X13816949Y-39518931D01*
X13825100Y-39523637D01*
X13859578Y-39568570D01*
X13862100Y-39587723D01*
X13862100Y-44742277D01*
X13840426Y-44794603D01*
X13825101Y-44806362D01*
X13810990Y-44814509D01*
X13810988Y-44814510D01*
X13727108Y-44898390D01*
X13667801Y-45001112D01*
X13667799Y-45001117D01*
X13637100Y-45115688D01*
X13637100Y-45234311D01*
X13667799Y-45348882D01*
X13667801Y-45348887D01*
X13727108Y-45451609D01*
X13727109Y-45451610D01*
X13727111Y-45451613D01*
X13810987Y-45535489D01*
X13913714Y-45594799D01*
X13913715Y-45594799D01*
X13913717Y-45594800D01*
X13971002Y-45610149D01*
X14028288Y-45625499D01*
X14028289Y-45625500D01*
X14028291Y-45625500D01*
X14146911Y-45625500D01*
X14146911Y-45625499D01*
X14261486Y-45594799D01*
X14364213Y-45535489D01*
X14448089Y-45451613D01*
X14507399Y-45348886D01*
X14538099Y-45234311D01*
X14538100Y-45234311D01*
X14538100Y-45115689D01*
X14538099Y-45115688D01*
X14507400Y-45001117D01*
X14507398Y-45001112D01*
X14448091Y-44898390D01*
X14448090Y-44898389D01*
X14448089Y-44898387D01*
X14364213Y-44814511D01*
X14350099Y-44806362D01*
X14315621Y-44761428D01*
X14313100Y-44742277D01*
X14313100Y-39587723D01*
X14334774Y-39535397D01*
X14350100Y-39523637D01*
X14364213Y-39515489D01*
X14448089Y-39431613D01*
X14507399Y-39328886D01*
X14538099Y-39214311D01*
X14538100Y-39214311D01*
X14538100Y-39095689D01*
X14538099Y-39095688D01*
X14507400Y-38981117D01*
X14507398Y-38981112D01*
X14448091Y-38878390D01*
X14448090Y-38878389D01*
X14448089Y-38878387D01*
X14364213Y-38794511D01*
X14364210Y-38794509D01*
X14364209Y-38794508D01*
X14261487Y-38735201D01*
X14261482Y-38735199D01*
X14146911Y-38704500D01*
X14146909Y-38704500D01*
X14028291Y-38704500D01*
X14028289Y-38704500D01*
X13913717Y-38735199D01*
X13913712Y-38735201D01*
X13810990Y-38794508D01*
X13727108Y-38878390D01*
X13667801Y-38981112D01*
X13667799Y-38981117D01*
X13637100Y-39095688D01*
X12786479Y-39095688D01*
X12754826Y-39071400D01*
X12672316Y-39008087D01*
X12428182Y-38867136D01*
X12428174Y-38867133D01*
X12167742Y-38759259D01*
X12167731Y-38759255D01*
X11919301Y-38692689D01*
X11895442Y-38686296D01*
X11895440Y-38686295D01*
X11895434Y-38686294D01*
X11895435Y-38686294D01*
X11670796Y-38656720D01*
X11615951Y-38649500D01*
X11334049Y-38649500D01*
X11279203Y-38656720D01*
X11054565Y-38686294D01*
X10782268Y-38759255D01*
X10782257Y-38759259D01*
X10587349Y-38839992D01*
X10530712Y-38839992D01*
X10490664Y-38799943D01*
X10490664Y-38743306D01*
X10506703Y-38719301D01*
X12944831Y-36281174D01*
X12997157Y-36259500D01*
X13982728Y-36259500D01*
X14035054Y-36281174D01*
X14056728Y-36333500D01*
X14046814Y-36370498D01*
X14035201Y-36390614D01*
X14035200Y-36390616D01*
X14035199Y-36390617D01*
X14004500Y-36505188D01*
X14004500Y-36623811D01*
X14035199Y-36738382D01*
X14035201Y-36738387D01*
X14094508Y-36841109D01*
X14094509Y-36841110D01*
X14094511Y-36841113D01*
X14178387Y-36924989D01*
X14178389Y-36924990D01*
X14178390Y-36924991D01*
X14281112Y-36984298D01*
X14281114Y-36984299D01*
X14281115Y-36984299D01*
X14281117Y-36984300D01*
X14338402Y-36999649D01*
X14395688Y-37014999D01*
X14395689Y-37015000D01*
X14436300Y-37015000D01*
X14488626Y-37036674D01*
X14510300Y-37089000D01*
X14510300Y-37154411D01*
X14540999Y-37268982D01*
X14541001Y-37268987D01*
X14600308Y-37371709D01*
X14600309Y-37371710D01*
X14600311Y-37371713D01*
X14684187Y-37455589D01*
X14684189Y-37455590D01*
X14684190Y-37455591D01*
X14766334Y-37503017D01*
X14786914Y-37514899D01*
X14786915Y-37514899D01*
X14786917Y-37514900D01*
X14844202Y-37530249D01*
X14901488Y-37545599D01*
X14901489Y-37545600D01*
X14901491Y-37545600D01*
X15020111Y-37545600D01*
X15020111Y-37545599D01*
X15134686Y-37514899D01*
X15237413Y-37455589D01*
X15321289Y-37371713D01*
X15329437Y-37357599D01*
X15374370Y-37323122D01*
X15393523Y-37320600D01*
X19389725Y-37320600D01*
X19389733Y-37320601D01*
X19398345Y-37320601D01*
X19488054Y-37320601D01*
X19488055Y-37320601D01*
X19559490Y-37291011D01*
X19570936Y-37286270D01*
X19634370Y-37222836D01*
X19634370Y-37222835D01*
X19644775Y-37212430D01*
X19644777Y-37212427D01*
X19773274Y-37083930D01*
X19825600Y-37062256D01*
X19877926Y-37083930D01*
X19899600Y-37136256D01*
X19899600Y-37245909D01*
X19902381Y-37256287D01*
X19903818Y-37261650D01*
X19896425Y-37317802D01*
X19884665Y-37333128D01*
X19187665Y-38030129D01*
X19124229Y-38093564D01*
X19120737Y-38101997D01*
X19120736Y-38102000D01*
X19089899Y-38176444D01*
X19089899Y-38274766D01*
X19089900Y-38274775D01*
X19089900Y-47613273D01*
X19089899Y-47613287D01*
X19089899Y-47619245D01*
X19089899Y-47708955D01*
X19105337Y-47746225D01*
X19113984Y-47767100D01*
X19124229Y-47791834D01*
X19124231Y-47791837D01*
X19198071Y-47865677D01*
X19198072Y-47865677D01*
X19517864Y-48185470D01*
X19600745Y-48219800D01*
X19690454Y-48219800D01*
X20839000Y-48219800D01*
X20891326Y-48241474D01*
X20913000Y-48293800D01*
X20913000Y-49072277D01*
X20891326Y-49124603D01*
X20876001Y-49136362D01*
X20861890Y-49144509D01*
X20861888Y-49144510D01*
X20778008Y-49228390D01*
X20718701Y-49331112D01*
X20718701Y-49331114D01*
X20688000Y-49445688D01*
X20688000Y-49564311D01*
X20718699Y-49678882D01*
X20718701Y-49678887D01*
X20741745Y-49718800D01*
X20749137Y-49774953D01*
X20714659Y-49819886D01*
X20677659Y-49829800D01*
X14113658Y-49829800D01*
X14061332Y-49808126D01*
X12045834Y-47792628D01*
X12024160Y-47740302D01*
X12026680Y-47721154D01*
X12030900Y-47705409D01*
X12030900Y-47586791D01*
X12030900Y-47586789D01*
X12030899Y-47586788D01*
X12000200Y-47472217D01*
X12000198Y-47472212D01*
X11940891Y-47369490D01*
X11940890Y-47369489D01*
X11940889Y-47369487D01*
X11857013Y-47285611D01*
X11857010Y-47285609D01*
X11857009Y-47285608D01*
X11754287Y-47226301D01*
X11754282Y-47226299D01*
X11639711Y-47195600D01*
X11639709Y-47195600D01*
X11521091Y-47195600D01*
X11521089Y-47195600D01*
X11406517Y-47226299D01*
X11406512Y-47226301D01*
X11303790Y-47285608D01*
X11219908Y-47369490D01*
X11160601Y-47472212D01*
X11160599Y-47472217D01*
X11129900Y-47586788D01*
X11129900Y-47705411D01*
X11160599Y-47819982D01*
X11160601Y-47819987D01*
X11219908Y-47922709D01*
X11219909Y-47922710D01*
X11219911Y-47922713D01*
X11303787Y-48006589D01*
X11303789Y-48006590D01*
X11303790Y-48006591D01*
X11393084Y-48058145D01*
X11406514Y-48065899D01*
X11406515Y-48065899D01*
X11406517Y-48065900D01*
X11463802Y-48081249D01*
X11521088Y-48096599D01*
X11521089Y-48096600D01*
X11521091Y-48096600D01*
X11639707Y-48096600D01*
X11639709Y-48096600D01*
X11655448Y-48092382D01*
X11711599Y-48099772D01*
X11726928Y-48111534D01*
X13861863Y-50246469D01*
X13861866Y-50246471D01*
X13871504Y-50250463D01*
X13944745Y-50280800D01*
X14034454Y-50280800D01*
X26422525Y-50280800D01*
X26422533Y-50280801D01*
X26431145Y-50280801D01*
X26520854Y-50280801D01*
X26520855Y-50280801D01*
X26594098Y-50250462D01*
X26603736Y-50246470D01*
X26667170Y-50183036D01*
X26667170Y-50183035D01*
X26677575Y-50172630D01*
X26677577Y-50172627D01*
X27627827Y-49222377D01*
X27627830Y-49222375D01*
X27638235Y-49211970D01*
X27638236Y-49211970D01*
X27701670Y-49148536D01*
X27716058Y-49113800D01*
X27736001Y-49065655D01*
X27736001Y-48975945D01*
X27736001Y-48969987D01*
X27736000Y-48969973D01*
X27736000Y-42047940D01*
X27740566Y-42024984D01*
X27740144Y-42024871D01*
X27766002Y-41928366D01*
X27772099Y-41905611D01*
X27772100Y-41905611D01*
X27772100Y-41786989D01*
X27772099Y-41786988D01*
X27770092Y-41779499D01*
X27741399Y-41672414D01*
X27740144Y-41667730D01*
X27740565Y-41667617D01*
X27736000Y-41644660D01*
X27736000Y-40659049D01*
X28374500Y-40659049D01*
X28374500Y-40940951D01*
X28382506Y-41001763D01*
X28411294Y-41220434D01*
X28484255Y-41492731D01*
X28484259Y-41492742D01*
X28592133Y-41753174D01*
X28592136Y-41753182D01*
X28708245Y-41954287D01*
X28733088Y-41997317D01*
X28904700Y-42220965D01*
X29104035Y-42420300D01*
X29327683Y-42591912D01*
X29571817Y-42732863D01*
X29832261Y-42840742D01*
X30104558Y-42913704D01*
X30104564Y-42913704D01*
X30104565Y-42913705D01*
X30104564Y-42913705D01*
X30228594Y-42930033D01*
X30384049Y-42950500D01*
X30384051Y-42950500D01*
X30665949Y-42950500D01*
X30665951Y-42950500D01*
X30945442Y-42913704D01*
X31217739Y-42840742D01*
X31478183Y-42732863D01*
X31722317Y-42591912D01*
X31945965Y-42420300D01*
X32145300Y-42220965D01*
X32316912Y-41997317D01*
X32457863Y-41753183D01*
X32565742Y-41492739D01*
X32638704Y-41220442D01*
X32675500Y-40940951D01*
X32675500Y-40659049D01*
X32638704Y-40379558D01*
X32565742Y-40107261D01*
X32457863Y-39846817D01*
X32316912Y-39602683D01*
X32145300Y-39379035D01*
X31945965Y-39179700D01*
X31722317Y-39008088D01*
X31722318Y-39008088D01*
X31722316Y-39008087D01*
X31478182Y-38867136D01*
X31478174Y-38867133D01*
X31217742Y-38759259D01*
X31217731Y-38759255D01*
X30969301Y-38692689D01*
X30945442Y-38686296D01*
X30945440Y-38686295D01*
X30945434Y-38686294D01*
X30945435Y-38686294D01*
X30720796Y-38656720D01*
X30665951Y-38649500D01*
X30384049Y-38649500D01*
X30329203Y-38656720D01*
X30104565Y-38686294D01*
X29832268Y-38759255D01*
X29832257Y-38759259D01*
X29571825Y-38867133D01*
X29571817Y-38867136D01*
X29327683Y-39008087D01*
X29104030Y-39179704D01*
X28904704Y-39379030D01*
X28733087Y-39602683D01*
X28592136Y-39846817D01*
X28592133Y-39846825D01*
X28484259Y-40107257D01*
X28484255Y-40107268D01*
X28411294Y-40379565D01*
X28382483Y-40598409D01*
X28374500Y-40659049D01*
X27736000Y-40659049D01*
X27736000Y-36881357D01*
X27744804Y-36860102D01*
X31414500Y-36860102D01*
X31414500Y-37119897D01*
X31455139Y-37376490D01*
X31455142Y-37376503D01*
X31535419Y-37623568D01*
X31535421Y-37623573D01*
X31653364Y-37855047D01*
X31653367Y-37855053D01*
X31806065Y-38065224D01*
X31806069Y-38065229D01*
X31989771Y-38248931D01*
X31989774Y-38248933D01*
X31989775Y-38248934D01*
X32013480Y-38266157D01*
X32199949Y-38401634D01*
X32431428Y-38519579D01*
X32431430Y-38519579D01*
X32431431Y-38519580D01*
X32678496Y-38599857D01*
X32678502Y-38599858D01*
X32678507Y-38599860D01*
X32849571Y-38626953D01*
X32935102Y-38640500D01*
X32935103Y-38640500D01*
X33194898Y-38640500D01*
X33259046Y-38630340D01*
X33451493Y-38599860D01*
X33451500Y-38599857D01*
X33451503Y-38599857D01*
X33686901Y-38523371D01*
X33698572Y-38519579D01*
X33930051Y-38401634D01*
X34140229Y-38248931D01*
X34323931Y-38065229D01*
X34476634Y-37855051D01*
X34594579Y-37623572D01*
X34646684Y-37463209D01*
X34674857Y-37376503D01*
X34674857Y-37376500D01*
X34674860Y-37376493D01*
X34715500Y-37119897D01*
X34715500Y-36860103D01*
X34713571Y-36847926D01*
X34692114Y-36712445D01*
X34674860Y-36603507D01*
X34674858Y-36603502D01*
X34674857Y-36603496D01*
X34594580Y-36356431D01*
X34594578Y-36356426D01*
X34530714Y-36231087D01*
X34476634Y-36124949D01*
X34470503Y-36116511D01*
X34323934Y-35914775D01*
X34323933Y-35914774D01*
X34323931Y-35914771D01*
X34140229Y-35731069D01*
X34140226Y-35731066D01*
X34140224Y-35731065D01*
X33930053Y-35578367D01*
X33930047Y-35578364D01*
X33698573Y-35460421D01*
X33698568Y-35460419D01*
X33451503Y-35380142D01*
X33451490Y-35380139D01*
X33194898Y-35339500D01*
X33194897Y-35339500D01*
X32935103Y-35339500D01*
X32935102Y-35339500D01*
X32678509Y-35380139D01*
X32678496Y-35380142D01*
X32431431Y-35460419D01*
X32431426Y-35460421D01*
X32199952Y-35578364D01*
X32199946Y-35578367D01*
X31989775Y-35731065D01*
X31806065Y-35914775D01*
X31653367Y-36124946D01*
X31653364Y-36124952D01*
X31535421Y-36356426D01*
X31535419Y-36356431D01*
X31455142Y-36603496D01*
X31455139Y-36603509D01*
X31414500Y-36860102D01*
X27744804Y-36860102D01*
X27757674Y-36829031D01*
X30254831Y-34331874D01*
X30307157Y-34310200D01*
X35120825Y-34310200D01*
X35120833Y-34310201D01*
X35129445Y-34310201D01*
X35219154Y-34310201D01*
X35219155Y-34310201D01*
X35279270Y-34285300D01*
X35302036Y-34275870D01*
X35365470Y-34212436D01*
X35365470Y-34212435D01*
X35375875Y-34202030D01*
X35375876Y-34202027D01*
X36383731Y-33194174D01*
X36436057Y-33172500D01*
X36656238Y-33172500D01*
X36708564Y-33194174D01*
X36730238Y-33246500D01*
X36720323Y-33283502D01*
X36716101Y-33290813D01*
X36716099Y-33290817D01*
X36685400Y-33405388D01*
X36685400Y-33524011D01*
X36716099Y-33638582D01*
X36716101Y-33638587D01*
X36775408Y-33741309D01*
X36775409Y-33741310D01*
X36775411Y-33741313D01*
X36859287Y-33825189D01*
X36868883Y-33830729D01*
X36873400Y-33833337D01*
X36907878Y-33878270D01*
X36910400Y-33897423D01*
X36910400Y-38340677D01*
X36888726Y-38393003D01*
X36873401Y-38404762D01*
X36859290Y-38412909D01*
X36859288Y-38412910D01*
X36775408Y-38496790D01*
X36716101Y-38599512D01*
X36716099Y-38599517D01*
X36685400Y-38714088D01*
X36685400Y-38832711D01*
X36716099Y-38947282D01*
X36716101Y-38947287D01*
X36775408Y-39050009D01*
X36775409Y-39050010D01*
X36775411Y-39050013D01*
X36859287Y-39133889D01*
X36859289Y-39133890D01*
X36859290Y-39133891D01*
X36938633Y-39179700D01*
X36962014Y-39193199D01*
X36962015Y-39193199D01*
X36962017Y-39193200D01*
X37007802Y-39205468D01*
X37076588Y-39223899D01*
X37076589Y-39223900D01*
X37076591Y-39223900D01*
X37195211Y-39223900D01*
X37195211Y-39223899D01*
X37309786Y-39193199D01*
X37412513Y-39133889D01*
X37496389Y-39050013D01*
X37555699Y-38947286D01*
X37586399Y-38832711D01*
X37586400Y-38832711D01*
X37586400Y-38714089D01*
X37586399Y-38714088D01*
X37555700Y-38599517D01*
X37555698Y-38599512D01*
X37496391Y-38496790D01*
X37496390Y-38496789D01*
X37496389Y-38496787D01*
X37412513Y-38412911D01*
X37398399Y-38404762D01*
X37363921Y-38359828D01*
X37361400Y-38340677D01*
X37361400Y-33897423D01*
X37383074Y-33845097D01*
X37398400Y-33833337D01*
X37402917Y-33830729D01*
X37412513Y-33825189D01*
X37496389Y-33741313D01*
X37555699Y-33638586D01*
X37555702Y-33638574D01*
X37556597Y-33636416D01*
X37557437Y-33635575D01*
X37558124Y-33634386D01*
X37558442Y-33634569D01*
X37596640Y-33596362D01*
X37653277Y-33596354D01*
X37677294Y-33612399D01*
X38369730Y-34304835D01*
X38391404Y-34357161D01*
X38369730Y-34409487D01*
X38317404Y-34431161D01*
X38280404Y-34421247D01*
X38250188Y-34403802D01*
X38250182Y-34403799D01*
X38135611Y-34373100D01*
X38135609Y-34373100D01*
X38016991Y-34373100D01*
X38016989Y-34373100D01*
X37902417Y-34403799D01*
X37902412Y-34403801D01*
X37799690Y-34463108D01*
X37715808Y-34546990D01*
X37656501Y-34649712D01*
X37656499Y-34649717D01*
X37625800Y-34764288D01*
X37625800Y-34882911D01*
X37656499Y-34997482D01*
X37656501Y-34997487D01*
X37715808Y-35100209D01*
X37715809Y-35100210D01*
X37715811Y-35100213D01*
X37799687Y-35184089D01*
X37799689Y-35184090D01*
X37799690Y-35184091D01*
X37900668Y-35242391D01*
X37902414Y-35243399D01*
X37902415Y-35243399D01*
X37902417Y-35243400D01*
X37959702Y-35258749D01*
X38016988Y-35274099D01*
X38016989Y-35274100D01*
X38016991Y-35274100D01*
X38135609Y-35274100D01*
X38151349Y-35269882D01*
X38207500Y-35277273D01*
X38222829Y-35289034D01*
X38706226Y-35772431D01*
X38727900Y-35824757D01*
X38727900Y-48052173D01*
X38727899Y-48052187D01*
X38727899Y-48147855D01*
X38744372Y-48187623D01*
X38762229Y-48230735D01*
X38836071Y-48304577D01*
X38836073Y-48304578D01*
X39732968Y-49201473D01*
X39754642Y-49253799D01*
X39732968Y-49306125D01*
X39680642Y-49327799D01*
X39621633Y-49327799D01*
X39621625Y-49327800D01*
X38675223Y-49327800D01*
X38622897Y-49306126D01*
X38611137Y-49290800D01*
X38602989Y-49276687D01*
X38519113Y-49192811D01*
X38519110Y-49192809D01*
X38519109Y-49192808D01*
X38416387Y-49133501D01*
X38416382Y-49133499D01*
X38301811Y-49102800D01*
X38301809Y-49102800D01*
X38183191Y-49102800D01*
X38183189Y-49102800D01*
X38068617Y-49133499D01*
X38068612Y-49133501D01*
X37965890Y-49192808D01*
X37965887Y-49192810D01*
X37965887Y-49192811D01*
X37905324Y-49253373D01*
X37853000Y-49275047D01*
X37800674Y-49253373D01*
X37779000Y-49201047D01*
X37779000Y-41822223D01*
X37800674Y-41769897D01*
X37816000Y-41758137D01*
X37830113Y-41749989D01*
X37913989Y-41666113D01*
X37973299Y-41563386D01*
X38003999Y-41448811D01*
X38004000Y-41448811D01*
X38004000Y-41330189D01*
X38003999Y-41330188D01*
X37973300Y-41215617D01*
X37973298Y-41215612D01*
X37913991Y-41112890D01*
X37913990Y-41112889D01*
X37913989Y-41112887D01*
X37830113Y-41029011D01*
X37830110Y-41029009D01*
X37830109Y-41029008D01*
X37727387Y-40969701D01*
X37727382Y-40969699D01*
X37612811Y-40939000D01*
X37612809Y-40939000D01*
X37494191Y-40939000D01*
X37478448Y-40943218D01*
X37422296Y-40935824D01*
X37406971Y-40924065D01*
X35688374Y-39205468D01*
X35666700Y-39153142D01*
X35666700Y-35669623D01*
X35688374Y-35617297D01*
X35703700Y-35605537D01*
X35717813Y-35597389D01*
X35801689Y-35513513D01*
X35860999Y-35410786D01*
X35891699Y-35296211D01*
X35891700Y-35296211D01*
X35891700Y-35177589D01*
X35891699Y-35177588D01*
X35890424Y-35172831D01*
X35860999Y-35063014D01*
X35842912Y-35031687D01*
X35801691Y-34960290D01*
X35801690Y-34960289D01*
X35801689Y-34960287D01*
X35717813Y-34876411D01*
X35717810Y-34876409D01*
X35717809Y-34876408D01*
X35615087Y-34817101D01*
X35615082Y-34817099D01*
X35500511Y-34786400D01*
X35500509Y-34786400D01*
X35381891Y-34786400D01*
X35381889Y-34786400D01*
X35267317Y-34817099D01*
X35267312Y-34817101D01*
X35164590Y-34876408D01*
X35080708Y-34960290D01*
X35021401Y-35063012D01*
X35021399Y-35063017D01*
X34990700Y-35177588D01*
X34990700Y-35296211D01*
X35021399Y-35410782D01*
X35021401Y-35410787D01*
X35080708Y-35513509D01*
X35080709Y-35513510D01*
X35080711Y-35513513D01*
X35164587Y-35597389D01*
X35178700Y-35605537D01*
X35213178Y-35650470D01*
X35215700Y-35669623D01*
X35215700Y-39226373D01*
X35215699Y-39226387D01*
X35215699Y-39232345D01*
X35215699Y-39322055D01*
X35222929Y-39339508D01*
X35222930Y-39339511D01*
X35250029Y-39404935D01*
X35323871Y-39478777D01*
X35323873Y-39478778D01*
X37088065Y-41242971D01*
X37109739Y-41295297D01*
X37107218Y-41314448D01*
X37103000Y-41330190D01*
X37103000Y-41448811D01*
X37133699Y-41563382D01*
X37133701Y-41563387D01*
X37193008Y-41666109D01*
X37193009Y-41666110D01*
X37193011Y-41666113D01*
X37276887Y-41749989D01*
X37291000Y-41758137D01*
X37325478Y-41803070D01*
X37328000Y-41822223D01*
X37328000Y-42834497D01*
X37306326Y-42886823D01*
X37254000Y-42908497D01*
X37201674Y-42886823D01*
X37183622Y-42857364D01*
X37134580Y-42706431D01*
X37134578Y-42706426D01*
X37076230Y-42591912D01*
X37016634Y-42474949D01*
X36863931Y-42264771D01*
X36680229Y-42081069D01*
X36680226Y-42081066D01*
X36680224Y-42081065D01*
X36470053Y-41928367D01*
X36470047Y-41928364D01*
X36238573Y-41810421D01*
X36238568Y-41810419D01*
X35991503Y-41730142D01*
X35991490Y-41730139D01*
X35734898Y-41689500D01*
X35734897Y-41689500D01*
X35475103Y-41689500D01*
X35475102Y-41689500D01*
X35218509Y-41730139D01*
X35218496Y-41730142D01*
X34971431Y-41810419D01*
X34971426Y-41810421D01*
X34739952Y-41928364D01*
X34739946Y-41928367D01*
X34529775Y-42081065D01*
X34346065Y-42264775D01*
X34193367Y-42474946D01*
X34193364Y-42474952D01*
X34075421Y-42706426D01*
X34075419Y-42706431D01*
X33995142Y-42953496D01*
X33995139Y-42953509D01*
X33954500Y-43210102D01*
X33954500Y-43469897D01*
X33995139Y-43726490D01*
X33995142Y-43726503D01*
X34075419Y-43973568D01*
X34075421Y-43973573D01*
X34193364Y-44205047D01*
X34193367Y-44205053D01*
X34343658Y-44411911D01*
X34346069Y-44415229D01*
X34529771Y-44598931D01*
X34529774Y-44598933D01*
X34529775Y-44598934D01*
X34683595Y-44710691D01*
X34739949Y-44751634D01*
X34971428Y-44869579D01*
X34971430Y-44869579D01*
X34971431Y-44869580D01*
X35218496Y-44949857D01*
X35218502Y-44949858D01*
X35218507Y-44949860D01*
X35389571Y-44976953D01*
X35475102Y-44990500D01*
X35475103Y-44990500D01*
X35734898Y-44990500D01*
X35799046Y-44980340D01*
X35991493Y-44949860D01*
X35991500Y-44949857D01*
X35991503Y-44949857D01*
X36149910Y-44898387D01*
X36238572Y-44869579D01*
X36470051Y-44751634D01*
X36680229Y-44598931D01*
X36863931Y-44415229D01*
X37016634Y-44205051D01*
X37134579Y-43973572D01*
X37183622Y-43822635D01*
X37220405Y-43779567D01*
X37276867Y-43775124D01*
X37319935Y-43811907D01*
X37328000Y-43845502D01*
X37328000Y-49556573D01*
X37327999Y-49556587D01*
X37327999Y-49652255D01*
X37345422Y-49694319D01*
X37345424Y-49694321D01*
X37362329Y-49735135D01*
X37436171Y-49808977D01*
X37436172Y-49808977D01*
X38031229Y-50404035D01*
X38031230Y-50404036D01*
X38094664Y-50467470D01*
X38163480Y-50495974D01*
X38199247Y-50527341D01*
X38214011Y-50552913D01*
X38297887Y-50636789D01*
X38297889Y-50636790D01*
X38297890Y-50636791D01*
X38391940Y-50691091D01*
X38400614Y-50696099D01*
X38400615Y-50696099D01*
X38400617Y-50696100D01*
X38457902Y-50711449D01*
X38515188Y-50726799D01*
X38515189Y-50726800D01*
X38515191Y-50726800D01*
X38633811Y-50726800D01*
X38633811Y-50726799D01*
X38748386Y-50696099D01*
X38851113Y-50636789D01*
X38934989Y-50552913D01*
X38994299Y-50450186D01*
X39024999Y-50335611D01*
X39025000Y-50335611D01*
X39025000Y-50216989D01*
X39024999Y-50216988D01*
X38994300Y-50102417D01*
X38994298Y-50102412D01*
X38934991Y-49999690D01*
X38934990Y-49999689D01*
X38934989Y-49999687D01*
X38851113Y-49915811D01*
X38851110Y-49915809D01*
X38851108Y-49915807D01*
X38847259Y-49912853D01*
X38848569Y-49911145D01*
X38818497Y-49871949D01*
X38825892Y-49815797D01*
X38870827Y-49781321D01*
X38889976Y-49778800D01*
X39551043Y-49778800D01*
X39603368Y-49800473D01*
X39912964Y-50110070D01*
X39995845Y-50144400D01*
X40085554Y-50144400D01*
X40448725Y-50144400D01*
X40448733Y-50144401D01*
X40457345Y-50144401D01*
X40547054Y-50144401D01*
X40547055Y-50144401D01*
X40605660Y-50120125D01*
X40629936Y-50110070D01*
X40693370Y-50046636D01*
X40693370Y-50046635D01*
X40703775Y-50036230D01*
X40703777Y-50036227D01*
X41269927Y-49470077D01*
X41269930Y-49470075D01*
X41280335Y-49459670D01*
X41280336Y-49459670D01*
X41343770Y-49396236D01*
X41370744Y-49331114D01*
X41378101Y-49313354D01*
X41378101Y-49223645D01*
X41378101Y-49217687D01*
X41378100Y-49217673D01*
X41378100Y-47488923D01*
X41399774Y-47436597D01*
X41415100Y-47424837D01*
X41415594Y-47424552D01*
X41429213Y-47416689D01*
X41473674Y-47372228D01*
X41525999Y-47350553D01*
X41578325Y-47372227D01*
X41600000Y-47424552D01*
X41600000Y-53526000D01*
X41578326Y-53578326D01*
X41526000Y-53600000D01*
X474000Y-53600000D01*
X421674Y-53578326D01*
X400000Y-53526000D01*
X400000Y-51901582D01*
X1249500Y-51901582D01*
X1249500Y-52098417D01*
X1280290Y-52292823D01*
X1280293Y-52292836D01*
X1341113Y-52480019D01*
X1376005Y-52548500D01*
X1430476Y-52655405D01*
X1546172Y-52814646D01*
X1685354Y-52953828D01*
X1844595Y-53069524D01*
X2019975Y-53158884D01*
X2019977Y-53158884D01*
X2019980Y-53158886D01*
X2207163Y-53219706D01*
X2207169Y-53219707D01*
X2207174Y-53219709D01*
X2336780Y-53240236D01*
X2401582Y-53250500D01*
X2401583Y-53250500D01*
X2598418Y-53250500D01*
X2647019Y-53242802D01*
X2792826Y-53219709D01*
X2792833Y-53219706D01*
X2792836Y-53219706D01*
X2980019Y-53158886D01*
X2980019Y-53158885D01*
X2980025Y-53158884D01*
X3155405Y-53069524D01*
X3314646Y-52953828D01*
X3453828Y-52814646D01*
X3569524Y-52655405D01*
X3658884Y-52480025D01*
X3665882Y-52458489D01*
X3719706Y-52292836D01*
X3719706Y-52292833D01*
X3719709Y-52292826D01*
X3750500Y-52098417D01*
X3750500Y-51953488D01*
X4434800Y-51953488D01*
X4434800Y-52072111D01*
X4465499Y-52186682D01*
X4465501Y-52186687D01*
X4524808Y-52289409D01*
X4524809Y-52289410D01*
X4524811Y-52289413D01*
X4608687Y-52373289D01*
X4711414Y-52432599D01*
X4711415Y-52432599D01*
X4711417Y-52432600D01*
X4768702Y-52447949D01*
X4825988Y-52463299D01*
X4825989Y-52463300D01*
X4825991Y-52463300D01*
X4944611Y-52463300D01*
X4944611Y-52463299D01*
X5059186Y-52432599D01*
X5161913Y-52373289D01*
X5245789Y-52289413D01*
X5253937Y-52275299D01*
X5298870Y-52240822D01*
X5318023Y-52238300D01*
X11646965Y-52238300D01*
X11699291Y-52259974D01*
X11711051Y-52275300D01*
X11749508Y-52341909D01*
X11749509Y-52341910D01*
X11749511Y-52341913D01*
X11833387Y-52425789D01*
X11833389Y-52425790D01*
X11833390Y-52425791D01*
X11936112Y-52485098D01*
X11936114Y-52485099D01*
X11936115Y-52485099D01*
X11936117Y-52485100D01*
X11993402Y-52500449D01*
X12050688Y-52515799D01*
X12050689Y-52515800D01*
X12050691Y-52515800D01*
X12169311Y-52515800D01*
X12169311Y-52515799D01*
X12283886Y-52485099D01*
X12386613Y-52425789D01*
X12470489Y-52341913D01*
X12476473Y-52331549D01*
X12521404Y-52297068D01*
X12577557Y-52304459D01*
X12604646Y-52331546D01*
X12629508Y-52374609D01*
X12629509Y-52374610D01*
X12629511Y-52374613D01*
X12713387Y-52458489D01*
X12713389Y-52458490D01*
X12713390Y-52458491D01*
X12816112Y-52517798D01*
X12816114Y-52517799D01*
X12816115Y-52517799D01*
X12816117Y-52517800D01*
X12873402Y-52533149D01*
X12930688Y-52548499D01*
X12930689Y-52548500D01*
X12930691Y-52548500D01*
X13049311Y-52548500D01*
X13049311Y-52548499D01*
X13163886Y-52517799D01*
X13266613Y-52458489D01*
X13350489Y-52374613D01*
X13409799Y-52271886D01*
X13440499Y-52157311D01*
X13440500Y-52157311D01*
X13440500Y-52038689D01*
X13440499Y-52038688D01*
X13409799Y-51924114D01*
X13396790Y-51901582D01*
X38249500Y-51901582D01*
X38249500Y-52098417D01*
X38280290Y-52292823D01*
X38280293Y-52292836D01*
X38341113Y-52480019D01*
X38376005Y-52548500D01*
X38430476Y-52655405D01*
X38546172Y-52814646D01*
X38685354Y-52953828D01*
X38844595Y-53069524D01*
X39019975Y-53158884D01*
X39019977Y-53158884D01*
X39019980Y-53158886D01*
X39207163Y-53219706D01*
X39207169Y-53219707D01*
X39207174Y-53219709D01*
X39336780Y-53240236D01*
X39401582Y-53250500D01*
X39401583Y-53250500D01*
X39598418Y-53250500D01*
X39647019Y-53242802D01*
X39792826Y-53219709D01*
X39792833Y-53219706D01*
X39792836Y-53219706D01*
X39980019Y-53158886D01*
X39980019Y-53158885D01*
X39980025Y-53158884D01*
X40155405Y-53069524D01*
X40314646Y-52953828D01*
X40453828Y-52814646D01*
X40569524Y-52655405D01*
X40658884Y-52480025D01*
X40665882Y-52458489D01*
X40719706Y-52292836D01*
X40719706Y-52292833D01*
X40719709Y-52292826D01*
X40750500Y-52098417D01*
X40750500Y-51901583D01*
X40719709Y-51707174D01*
X40719707Y-51707169D01*
X40719706Y-51707163D01*
X40658886Y-51519980D01*
X40658884Y-51519977D01*
X40658884Y-51519975D01*
X40569524Y-51344595D01*
X40528819Y-51288570D01*
X40453831Y-51185358D01*
X40453830Y-51185357D01*
X40453828Y-51185354D01*
X40314646Y-51046172D01*
X40314643Y-51046169D01*
X40314641Y-51046168D01*
X40155404Y-50930475D01*
X39980019Y-50841113D01*
X39792836Y-50780293D01*
X39792823Y-50780290D01*
X39598418Y-50749500D01*
X39598417Y-50749500D01*
X39401583Y-50749500D01*
X39401582Y-50749500D01*
X39207176Y-50780290D01*
X39207163Y-50780293D01*
X39019980Y-50841113D01*
X38844595Y-50930475D01*
X38685358Y-51046168D01*
X38546168Y-51185358D01*
X38430475Y-51344595D01*
X38341113Y-51519980D01*
X38280293Y-51707163D01*
X38280290Y-51707176D01*
X38249500Y-51901582D01*
X13396790Y-51901582D01*
X13350489Y-51821387D01*
X13266613Y-51737511D01*
X13266610Y-51737509D01*
X13266609Y-51737508D01*
X13163887Y-51678201D01*
X13163882Y-51678199D01*
X13049311Y-51647500D01*
X13049309Y-51647500D01*
X12930691Y-51647500D01*
X12930690Y-51647500D01*
X12914946Y-51651718D01*
X12858794Y-51644324D01*
X12843470Y-51632565D01*
X12190978Y-50980073D01*
X12190978Y-50980072D01*
X12117138Y-50906232D01*
X12117136Y-50906230D01*
X12092860Y-50896174D01*
X12092858Y-50896173D01*
X12092858Y-50896172D01*
X12034255Y-50871899D01*
X11944545Y-50871899D01*
X11935933Y-50871899D01*
X11935925Y-50871900D01*
X6378457Y-50871900D01*
X6326131Y-50850226D01*
X5953034Y-50477129D01*
X5931360Y-50424803D01*
X5933881Y-50405653D01*
X5938100Y-50389909D01*
X5938100Y-50271291D01*
X5938100Y-50271289D01*
X5938099Y-50271288D01*
X5937810Y-50270211D01*
X5914452Y-50183036D01*
X5907400Y-50156717D01*
X5907398Y-50156712D01*
X5848091Y-50053990D01*
X5848090Y-50053989D01*
X5848089Y-50053987D01*
X5764213Y-49970111D01*
X5764210Y-49970109D01*
X5764209Y-49970108D01*
X5661487Y-49910801D01*
X5661482Y-49910799D01*
X5546911Y-49880100D01*
X5546909Y-49880100D01*
X5428291Y-49880100D01*
X5428289Y-49880100D01*
X5313717Y-49910799D01*
X5313712Y-49910801D01*
X5210990Y-49970108D01*
X5127108Y-50053990D01*
X5067801Y-50156712D01*
X5067799Y-50156717D01*
X5037100Y-50271288D01*
X5037100Y-50389911D01*
X5067799Y-50504482D01*
X5067801Y-50504487D01*
X5127108Y-50607209D01*
X5127109Y-50607210D01*
X5127111Y-50607213D01*
X5210987Y-50691089D01*
X5210989Y-50691090D01*
X5210990Y-50691091D01*
X5312157Y-50749500D01*
X5313714Y-50750399D01*
X5313715Y-50750399D01*
X5313717Y-50750400D01*
X5371002Y-50765749D01*
X5428288Y-50781099D01*
X5428289Y-50781100D01*
X5428291Y-50781100D01*
X5546909Y-50781100D01*
X5562649Y-50776882D01*
X5618800Y-50784273D01*
X5634129Y-50796034D01*
X6063229Y-51225134D01*
X6063230Y-51225136D01*
X6126664Y-51288570D01*
X6150939Y-51298625D01*
X6209545Y-51322901D01*
X6209546Y-51322901D01*
X6307867Y-51322901D01*
X6307875Y-51322900D01*
X11865343Y-51322900D01*
X11917669Y-51344574D01*
X12068269Y-51495174D01*
X12089943Y-51547500D01*
X12068269Y-51599826D01*
X12035096Y-51618978D01*
X11936117Y-51645499D01*
X11936112Y-51645501D01*
X11833389Y-51704809D01*
X11833386Y-51704811D01*
X11772571Y-51765626D01*
X11720246Y-51787300D01*
X5318023Y-51787300D01*
X5265697Y-51765626D01*
X5253937Y-51750300D01*
X5246553Y-51737511D01*
X5245789Y-51736187D01*
X5161913Y-51652311D01*
X5161910Y-51652309D01*
X5161909Y-51652308D01*
X5059187Y-51593001D01*
X5059182Y-51592999D01*
X4944611Y-51562300D01*
X4944609Y-51562300D01*
X4825991Y-51562300D01*
X4825989Y-51562300D01*
X4711417Y-51592999D01*
X4711412Y-51593001D01*
X4608690Y-51652308D01*
X4524808Y-51736190D01*
X4465501Y-51838912D01*
X4465499Y-51838917D01*
X4434800Y-51953488D01*
X3750500Y-51953488D01*
X3750500Y-51901583D01*
X3719709Y-51707174D01*
X3719707Y-51707169D01*
X3719706Y-51707163D01*
X3658886Y-51519980D01*
X3658884Y-51519977D01*
X3658884Y-51519975D01*
X3569524Y-51344595D01*
X3528819Y-51288570D01*
X3453831Y-51185358D01*
X3453830Y-51185357D01*
X3453828Y-51185354D01*
X3314646Y-51046172D01*
X3314643Y-51046169D01*
X3314641Y-51046168D01*
X3155404Y-50930475D01*
X2980019Y-50841113D01*
X2792836Y-50780293D01*
X2792823Y-50780290D01*
X2598418Y-50749500D01*
X2598417Y-50749500D01*
X2401583Y-50749500D01*
X2401582Y-50749500D01*
X2207176Y-50780290D01*
X2207163Y-50780293D01*
X2019980Y-50841113D01*
X1844595Y-50930475D01*
X1685358Y-51046168D01*
X1546168Y-51185358D01*
X1430475Y-51344595D01*
X1341113Y-51519980D01*
X1280293Y-51707163D01*
X1280290Y-51707176D01*
X1249500Y-51901582D01*
X400000Y-51901582D01*
X400000Y-14101488D01*
X2124500Y-14101488D01*
X2124500Y-14220111D01*
X2155199Y-14334682D01*
X2155201Y-14334687D01*
X2214508Y-14437409D01*
X2214509Y-14437410D01*
X2214511Y-14437413D01*
X2298387Y-14521289D01*
X2401114Y-14580599D01*
X2401115Y-14580599D01*
X2401117Y-14580600D01*
X2411735Y-14583445D01*
X2515688Y-14611299D01*
X2515689Y-14611300D01*
X2515691Y-14611300D01*
X2634311Y-14611300D01*
X2634311Y-14611299D01*
X2748886Y-14580599D01*
X2851613Y-14521289D01*
X2935489Y-14437413D01*
X2994799Y-14334686D01*
X3025499Y-14220111D01*
X3025500Y-14220111D01*
X3025500Y-14101489D01*
X3025499Y-14101488D01*
X3025378Y-14101038D01*
X2994799Y-13986914D01*
X2935489Y-13884187D01*
X2851613Y-13800311D01*
X2837499Y-13792162D01*
X2803021Y-13747228D01*
X2800500Y-13728077D01*
X2800500Y-11044956D01*
X2822173Y-10992631D01*
X3874770Y-9940033D01*
X3927095Y-9918360D01*
X3946249Y-9920882D01*
X3961990Y-9925100D01*
X3961991Y-9925100D01*
X4080611Y-9925100D01*
X4080611Y-9925099D01*
X4195186Y-9894399D01*
X4196335Y-9893735D01*
X4197899Y-9892833D01*
X4199463Y-9892626D01*
X4199669Y-9892542D01*
X4199691Y-9892596D01*
X4254051Y-9885439D01*
X4298985Y-9919917D01*
X4308900Y-9956918D01*
X4308900Y-16649141D01*
X4287226Y-16701467D01*
X4216628Y-16772064D01*
X4164301Y-16793738D01*
X4145153Y-16791217D01*
X4129413Y-16787000D01*
X4129409Y-16787000D01*
X4010791Y-16787000D01*
X4010789Y-16787000D01*
X3896217Y-16817699D01*
X3896212Y-16817701D01*
X3793490Y-16877008D01*
X3709608Y-16960890D01*
X3650301Y-17063612D01*
X3650299Y-17063617D01*
X3619600Y-17178188D01*
X3619600Y-17296811D01*
X3650299Y-17411382D01*
X3650301Y-17411387D01*
X3709608Y-17514109D01*
X3709609Y-17514110D01*
X3709611Y-17514113D01*
X3793487Y-17597989D01*
X3896214Y-17657299D01*
X3896215Y-17657299D01*
X3896217Y-17657300D01*
X3953502Y-17672649D01*
X4010788Y-17687999D01*
X4010789Y-17688000D01*
X4010791Y-17688000D01*
X4129411Y-17688000D01*
X4129411Y-17687999D01*
X4243986Y-17657299D01*
X4346713Y-17597989D01*
X4430589Y-17514113D01*
X4489899Y-17411386D01*
X4520599Y-17296811D01*
X4520600Y-17296811D01*
X4520600Y-17178191D01*
X4516382Y-17162451D01*
X4523773Y-17106298D01*
X4535530Y-17090974D01*
X4725570Y-16900936D01*
X4759900Y-16818055D01*
X4759900Y-16728346D01*
X4759900Y-8966853D01*
X4781573Y-8914528D01*
X4838989Y-8857113D01*
X4898299Y-8754386D01*
X4928999Y-8639811D01*
X4929000Y-8639811D01*
X4929000Y-8521189D01*
X4928999Y-8521188D01*
X4898300Y-8406617D01*
X4898298Y-8406612D01*
X4838991Y-8303890D01*
X4838990Y-8303889D01*
X4838989Y-8303887D01*
X4776690Y-8241588D01*
X5659500Y-8241588D01*
X5659500Y-8360211D01*
X5690199Y-8474782D01*
X5690201Y-8474787D01*
X5749508Y-8577509D01*
X5749509Y-8577510D01*
X5749511Y-8577513D01*
X5833387Y-8661389D01*
X5847500Y-8669537D01*
X5881978Y-8714470D01*
X5884500Y-8733623D01*
X5884500Y-19044777D01*
X5862826Y-19097103D01*
X5847501Y-19108862D01*
X5833390Y-19117009D01*
X5833388Y-19117010D01*
X5749508Y-19200890D01*
X5690201Y-19303612D01*
X5690199Y-19303617D01*
X5659500Y-19418188D01*
X5659500Y-19536811D01*
X5690199Y-19651382D01*
X5690201Y-19651387D01*
X5749508Y-19754109D01*
X5749509Y-19754110D01*
X5749511Y-19754113D01*
X5833387Y-19837989D01*
X5936114Y-19897299D01*
X5936115Y-19897299D01*
X5936117Y-19897300D01*
X5993402Y-19912649D01*
X6050688Y-19927999D01*
X6050689Y-19928000D01*
X6050691Y-19928000D01*
X6169311Y-19928000D01*
X6169311Y-19927999D01*
X6283886Y-19897299D01*
X6386613Y-19837989D01*
X6470489Y-19754113D01*
X6529799Y-19651386D01*
X6560499Y-19536811D01*
X6560500Y-19536811D01*
X6560500Y-19418189D01*
X6560499Y-19418188D01*
X6529800Y-19303617D01*
X6529798Y-19303612D01*
X6470491Y-19200890D01*
X6470490Y-19200889D01*
X6470489Y-19200887D01*
X6386613Y-19117011D01*
X6372499Y-19108862D01*
X6338021Y-19063928D01*
X6335500Y-19044777D01*
X6335500Y-8733623D01*
X6357174Y-8681297D01*
X6372500Y-8669537D01*
X6386613Y-8661389D01*
X6470489Y-8577513D01*
X6529799Y-8474786D01*
X6560499Y-8360211D01*
X6560500Y-8360211D01*
X6560500Y-8241589D01*
X6560499Y-8241588D01*
X6554717Y-8220011D01*
X6540821Y-8168147D01*
X6529800Y-8127017D01*
X6529798Y-8127012D01*
X6470491Y-8024290D01*
X6470490Y-8024289D01*
X6470489Y-8024287D01*
X6386613Y-7940411D01*
X6386610Y-7940409D01*
X6386609Y-7940408D01*
X6283887Y-7881101D01*
X6283882Y-7881099D01*
X6169311Y-7850400D01*
X6169309Y-7850400D01*
X6050691Y-7850400D01*
X6050689Y-7850400D01*
X5936117Y-7881099D01*
X5936112Y-7881101D01*
X5833390Y-7940408D01*
X5749508Y-8024290D01*
X5690201Y-8127012D01*
X5690199Y-8127017D01*
X5659500Y-8241588D01*
X4776690Y-8241588D01*
X4755113Y-8220011D01*
X4755110Y-8220009D01*
X4755109Y-8220008D01*
X4652387Y-8160701D01*
X4652382Y-8160699D01*
X4537811Y-8130000D01*
X4537809Y-8130000D01*
X4419191Y-8130000D01*
X4419189Y-8130000D01*
X4304617Y-8160699D01*
X4304612Y-8160701D01*
X4201890Y-8220008D01*
X4118008Y-8303890D01*
X4058701Y-8406612D01*
X4058699Y-8406617D01*
X4028000Y-8521188D01*
X4028000Y-8639811D01*
X4058699Y-8754382D01*
X4058701Y-8754387D01*
X4118008Y-8857109D01*
X4118009Y-8857110D01*
X4118011Y-8857113D01*
X4164527Y-8903629D01*
X4186201Y-8955954D01*
X4164527Y-9008280D01*
X4112201Y-9029954D01*
X4093050Y-9027433D01*
X4080610Y-9024100D01*
X4080609Y-9024100D01*
X3961991Y-9024100D01*
X3961989Y-9024100D01*
X3847417Y-9054799D01*
X3847412Y-9054801D01*
X3744690Y-9114108D01*
X3660808Y-9197990D01*
X3601501Y-9300712D01*
X3601499Y-9300717D01*
X3570800Y-9415288D01*
X3570800Y-9415291D01*
X3570800Y-9533909D01*
X3575018Y-9549650D01*
X3567625Y-9605802D01*
X3555865Y-9621128D01*
X2447265Y-10729729D01*
X2383831Y-10793163D01*
X2383830Y-10793165D01*
X2349499Y-10876044D01*
X2349499Y-10974366D01*
X2349500Y-10974375D01*
X2349500Y-13728077D01*
X2327826Y-13780403D01*
X2312501Y-13792162D01*
X2298390Y-13800309D01*
X2298388Y-13800310D01*
X2214508Y-13884190D01*
X2155201Y-13986912D01*
X2155199Y-13986917D01*
X2124500Y-14101488D01*
X400000Y-14101488D01*
X400000Y-2401582D01*
X1249500Y-2401582D01*
X1249500Y-2598417D01*
X1280290Y-2792823D01*
X1280293Y-2792836D01*
X1341113Y-2980019D01*
X1430475Y-3155404D01*
X1528169Y-3289868D01*
X1546172Y-3314646D01*
X1685354Y-3453828D01*
X1844595Y-3569524D01*
X2019975Y-3658884D01*
X2019977Y-3658884D01*
X2019980Y-3658886D01*
X2207163Y-3719706D01*
X2207169Y-3719707D01*
X2207174Y-3719709D01*
X2336780Y-3740236D01*
X2401582Y-3750500D01*
X2401583Y-3750500D01*
X2598418Y-3750500D01*
X2647019Y-3742802D01*
X2792826Y-3719709D01*
X2792833Y-3719706D01*
X2792836Y-3719706D01*
X2980019Y-3658886D01*
X2980019Y-3658885D01*
X2980025Y-3658884D01*
X3155405Y-3569524D01*
X3314646Y-3453828D01*
X3453828Y-3314646D01*
X3569524Y-3155405D01*
X3658884Y-2980025D01*
X3719709Y-2792826D01*
X3750500Y-2598417D01*
X3750500Y-2401583D01*
X3719709Y-2207174D01*
X3719707Y-2207169D01*
X3719706Y-2207163D01*
X3658886Y-2019980D01*
X3658884Y-2019977D01*
X3658884Y-2019975D01*
X3569524Y-1844595D01*
X3510017Y-1762691D01*
X3453831Y-1685358D01*
X3453830Y-1685357D01*
X3453828Y-1685354D01*
X3314646Y-1546172D01*
X3314643Y-1546169D01*
X3314641Y-1546168D01*
X3155404Y-1430475D01*
X2980019Y-1341113D01*
X2792836Y-1280293D01*
X2792823Y-1280290D01*
X2598418Y-1249500D01*
X2598417Y-1249500D01*
X2401583Y-1249500D01*
X2401582Y-1249500D01*
X2207176Y-1280290D01*
X2207163Y-1280293D01*
X2019980Y-1341113D01*
X1844595Y-1430475D01*
X1685358Y-1546168D01*
X1546168Y-1685358D01*
X1430475Y-1844595D01*
X1341113Y-2019980D01*
X1280293Y-2207163D01*
X1280290Y-2207176D01*
X1249500Y-2401582D01*
X400000Y-2401582D01*
X400000Y-474000D01*
X421674Y-421674D01*
X474000Y-400000D01*
X41526000Y-400000D01*
X41578326Y-421674D01*
G37*
%TD.AperFunction*%
%TA.AperFunction,Conductor*%
G36*
X22453949Y-34455582D02*
G01*
X22469690Y-34459800D01*
X22469691Y-34459800D01*
X22588309Y-34459800D01*
X22604049Y-34455582D01*
X22660200Y-34462973D01*
X22675529Y-34474734D01*
X24105226Y-35904431D01*
X24126900Y-35956757D01*
X24126900Y-42103277D01*
X24105226Y-42155603D01*
X24089901Y-42167362D01*
X24075790Y-42175509D01*
X24075788Y-42175510D01*
X23991908Y-42259390D01*
X23932601Y-42362112D01*
X23932599Y-42362117D01*
X23901900Y-42476688D01*
X23901900Y-42595311D01*
X23932599Y-42709882D01*
X23932601Y-42709887D01*
X23991908Y-42812609D01*
X23991909Y-42812610D01*
X23991911Y-42812613D01*
X24075787Y-42896489D01*
X24075789Y-42896490D01*
X24075790Y-42896491D01*
X24178512Y-42955798D01*
X24178514Y-42955799D01*
X24178515Y-42955799D01*
X24178517Y-42955800D01*
X24192326Y-42959500D01*
X24293088Y-42986499D01*
X24293089Y-42986500D01*
X24293091Y-42986500D01*
X24411711Y-42986500D01*
X24411711Y-42986499D01*
X24526286Y-42955799D01*
X24550799Y-42941645D01*
X24606951Y-42934252D01*
X24651885Y-42968729D01*
X24661800Y-43005731D01*
X24661800Y-48954577D01*
X24640126Y-49006903D01*
X24624801Y-49018662D01*
X24610690Y-49026809D01*
X24610688Y-49026810D01*
X24526808Y-49110690D01*
X24467501Y-49213412D01*
X24467499Y-49213417D01*
X24436800Y-49327988D01*
X24436800Y-49446611D01*
X24467499Y-49561182D01*
X24467501Y-49561187D01*
X24526808Y-49663909D01*
X24526809Y-49663910D01*
X24526811Y-49663913D01*
X24566373Y-49703475D01*
X24588047Y-49755800D01*
X24566373Y-49808126D01*
X24514047Y-49829800D01*
X21599341Y-49829800D01*
X21547015Y-49808126D01*
X21525341Y-49755800D01*
X21535255Y-49718800D01*
X21548467Y-49695914D01*
X21558299Y-49678886D01*
X21588999Y-49564311D01*
X21589000Y-49564311D01*
X21589000Y-49445689D01*
X21588999Y-49445688D01*
X21576245Y-49398091D01*
X21558299Y-49331114D01*
X21558298Y-49331112D01*
X21498991Y-49228390D01*
X21498990Y-49228389D01*
X21498989Y-49228387D01*
X21415113Y-49144511D01*
X21400999Y-49136362D01*
X21366521Y-49091428D01*
X21364000Y-49072277D01*
X21364000Y-48045996D01*
X21364769Y-48037436D01*
X21364420Y-48017000D01*
X21364011Y-47993013D01*
X21364000Y-47991749D01*
X21364000Y-47947306D01*
X21363084Y-47938758D01*
X21361836Y-47865677D01*
X21265269Y-42210134D01*
X21286046Y-42157449D01*
X21302259Y-42144788D01*
X21309013Y-42140889D01*
X21392889Y-42057013D01*
X21452199Y-41954286D01*
X21482899Y-41839711D01*
X21482900Y-41839711D01*
X21482900Y-41721089D01*
X21482899Y-41721088D01*
X21452200Y-41606517D01*
X21452198Y-41606512D01*
X21392891Y-41503790D01*
X21392890Y-41503789D01*
X21392889Y-41503787D01*
X21309013Y-41419911D01*
X21309010Y-41419909D01*
X21309009Y-41419908D01*
X21206287Y-41360601D01*
X21206282Y-41360599D01*
X21091711Y-41329900D01*
X21091709Y-41329900D01*
X20973091Y-41329900D01*
X20973089Y-41329900D01*
X20858517Y-41360599D01*
X20858512Y-41360601D01*
X20755790Y-41419908D01*
X20671908Y-41503790D01*
X20612601Y-41606512D01*
X20612599Y-41606517D01*
X20581900Y-41721088D01*
X20581900Y-41839711D01*
X20612599Y-41954282D01*
X20612601Y-41954287D01*
X20671908Y-42057009D01*
X20671909Y-42057010D01*
X20671911Y-42057013D01*
X20755787Y-42140889D01*
X20755789Y-42140890D01*
X20755791Y-42140892D01*
X20777317Y-42153320D01*
X20811796Y-42198253D01*
X20814307Y-42216143D01*
X20858380Y-44797344D01*
X20906461Y-47613273D01*
X20907832Y-47693537D01*
X20887055Y-47746225D01*
X20835106Y-47768789D01*
X20833843Y-47768800D01*
X20304289Y-47768800D01*
X20251963Y-47747126D01*
X20230289Y-47694800D01*
X20240203Y-47657800D01*
X20247105Y-47645845D01*
X20250199Y-47640486D01*
X20280899Y-47525911D01*
X20280900Y-47525911D01*
X20280900Y-47407289D01*
X20280899Y-47407288D01*
X20271504Y-47372227D01*
X20260944Y-47332813D01*
X20250200Y-47292717D01*
X20250198Y-47292712D01*
X20190891Y-47189990D01*
X20190890Y-47189989D01*
X20190889Y-47189987D01*
X20107013Y-47106111D01*
X20092899Y-47097962D01*
X20058421Y-47053028D01*
X20055900Y-47033877D01*
X20055900Y-39809656D01*
X20077573Y-39757331D01*
X21717970Y-38116933D01*
X21770295Y-38095260D01*
X21789449Y-38097782D01*
X21805190Y-38102000D01*
X21805191Y-38102000D01*
X21923811Y-38102000D01*
X21923811Y-38101999D01*
X22038386Y-38071299D01*
X22141113Y-38011989D01*
X22224989Y-37928113D01*
X22284299Y-37825386D01*
X22288221Y-37810745D01*
X22322700Y-37765813D01*
X22378852Y-37758420D01*
X22423786Y-37792899D01*
X22433700Y-37829899D01*
X22433700Y-43905446D01*
X22412026Y-43957772D01*
X22392949Y-43970518D01*
X22393214Y-43970976D01*
X22286290Y-44032708D01*
X22202408Y-44116590D01*
X22143101Y-44219312D01*
X22143099Y-44219317D01*
X22112400Y-44333888D01*
X22112400Y-44452511D01*
X22143099Y-44567082D01*
X22143101Y-44567087D01*
X22202408Y-44669809D01*
X22202409Y-44669810D01*
X22202411Y-44669813D01*
X22286287Y-44753689D01*
X22286289Y-44753690D01*
X22286290Y-44753691D01*
X22357151Y-44794603D01*
X22389014Y-44812999D01*
X22389015Y-44812999D01*
X22389017Y-44813000D01*
X22439874Y-44826627D01*
X22503588Y-44843699D01*
X22503589Y-44843700D01*
X22503591Y-44843700D01*
X22622211Y-44843700D01*
X22622211Y-44843699D01*
X22661437Y-44833188D01*
X22685927Y-44826627D01*
X22742080Y-44834019D01*
X22776558Y-44878952D01*
X22794599Y-44946282D01*
X22794601Y-44946287D01*
X22853908Y-45049009D01*
X22853909Y-45049010D01*
X22853911Y-45049013D01*
X22937787Y-45132889D01*
X23040514Y-45192199D01*
X23040515Y-45192199D01*
X23040517Y-45192200D01*
X23097802Y-45207549D01*
X23155088Y-45222899D01*
X23155089Y-45222900D01*
X23155091Y-45222900D01*
X23273711Y-45222900D01*
X23273711Y-45222899D01*
X23388286Y-45192199D01*
X23491013Y-45132889D01*
X23574889Y-45049013D01*
X23634199Y-44946286D01*
X23664899Y-44831711D01*
X23664900Y-44831711D01*
X23664900Y-44713089D01*
X23664899Y-44713088D01*
X23634200Y-44598517D01*
X23634198Y-44598512D01*
X23574891Y-44495790D01*
X23574890Y-44495789D01*
X23574889Y-44495787D01*
X23491013Y-44411911D01*
X23476899Y-44403762D01*
X23442421Y-44358828D01*
X23439900Y-44339677D01*
X23439900Y-37230675D01*
X23439901Y-37230666D01*
X23439901Y-37132346D01*
X23409464Y-37058865D01*
X23405570Y-37049464D01*
X23342136Y-36986030D01*
X23337921Y-36981815D01*
X23337914Y-36981809D01*
X23026578Y-36670473D01*
X23026578Y-36670472D01*
X22952738Y-36596632D01*
X22952736Y-36596630D01*
X22952732Y-36596628D01*
X22928458Y-36586573D01*
X22928458Y-36586572D01*
X22869855Y-36562299D01*
X22780145Y-36562299D01*
X22771533Y-36562299D01*
X22771525Y-36562300D01*
X21748475Y-36562300D01*
X21748467Y-36562299D01*
X21739855Y-36562299D01*
X21650146Y-36562299D01*
X21601594Y-36582408D01*
X21601595Y-36582409D01*
X21567267Y-36596628D01*
X21567265Y-36596629D01*
X21503829Y-36660065D01*
X21503825Y-36660068D01*
X21496524Y-36667368D01*
X21444197Y-36689039D01*
X21425053Y-36686518D01*
X21409309Y-36682300D01*
X21290691Y-36682300D01*
X21290689Y-36682300D01*
X21176117Y-36712999D01*
X21176112Y-36713001D01*
X21073390Y-36772308D01*
X20989508Y-36856190D01*
X20930201Y-36958912D01*
X20930199Y-36958917D01*
X20914320Y-37018180D01*
X20879842Y-37063113D01*
X20823689Y-37070505D01*
X20778756Y-37036027D01*
X20771364Y-37018180D01*
X20769900Y-37012717D01*
X20769898Y-37012712D01*
X20710591Y-36909990D01*
X20710590Y-36909989D01*
X20710589Y-36909987D01*
X20626713Y-36826111D01*
X20626710Y-36826109D01*
X20626709Y-36826108D01*
X20523987Y-36766801D01*
X20523982Y-36766799D01*
X20409411Y-36736100D01*
X20409409Y-36736100D01*
X20299756Y-36736100D01*
X20247430Y-36714426D01*
X20225756Y-36662100D01*
X20247430Y-36609774D01*
X21289809Y-35567395D01*
X22382470Y-34474733D01*
X22434795Y-34453060D01*
X22453949Y-34455582D01*
G37*
%TD.AperFunction*%
%TA.AperFunction,Conductor*%
G36*
X39305225Y-38222330D02*
G01*
X39606264Y-38523370D01*
X39689145Y-38557700D01*
X39778854Y-38557700D01*
X40754077Y-38557700D01*
X40806403Y-38579374D01*
X40818162Y-38594699D01*
X40826311Y-38608813D01*
X40910187Y-38692689D01*
X40910189Y-38692690D01*
X40910190Y-38692691D01*
X40983819Y-38735201D01*
X41012914Y-38751999D01*
X41012915Y-38751999D01*
X41012917Y-38752000D01*
X41070202Y-38767349D01*
X41127488Y-38782699D01*
X41127489Y-38782700D01*
X41127491Y-38782700D01*
X41246111Y-38782700D01*
X41246111Y-38782699D01*
X41360686Y-38751999D01*
X41463413Y-38692689D01*
X41473675Y-38682426D01*
X41526000Y-38660753D01*
X41578326Y-38682427D01*
X41600000Y-38734753D01*
X41600000Y-46687847D01*
X41578326Y-46740173D01*
X41526000Y-46761847D01*
X41473675Y-46740173D01*
X41429213Y-46695711D01*
X41429210Y-46695709D01*
X41429209Y-46695708D01*
X41326487Y-46636401D01*
X41326482Y-46636399D01*
X41211911Y-46605700D01*
X41211909Y-46605700D01*
X41093291Y-46605700D01*
X41093290Y-46605700D01*
X41077546Y-46609918D01*
X41021394Y-46602524D01*
X41006070Y-46590765D01*
X40897174Y-46481869D01*
X40875500Y-46429543D01*
X40875500Y-40971823D01*
X40897174Y-40919497D01*
X40912500Y-40907737D01*
X40926613Y-40899589D01*
X41010489Y-40815713D01*
X41069799Y-40712986D01*
X41100499Y-40598411D01*
X41100500Y-40598411D01*
X41100500Y-40479789D01*
X41100499Y-40479788D01*
X41069800Y-40365217D01*
X41069798Y-40365212D01*
X41010491Y-40262490D01*
X41010490Y-40262489D01*
X41010489Y-40262487D01*
X40926613Y-40178611D01*
X40926610Y-40178609D01*
X40926609Y-40178608D01*
X40823887Y-40119301D01*
X40823882Y-40119299D01*
X40709311Y-40088600D01*
X40709309Y-40088600D01*
X40590691Y-40088600D01*
X40590689Y-40088600D01*
X40476117Y-40119299D01*
X40476112Y-40119301D01*
X40373390Y-40178608D01*
X40289508Y-40262490D01*
X40230201Y-40365212D01*
X40230199Y-40365217D01*
X40199500Y-40479788D01*
X40199500Y-40598411D01*
X40230199Y-40712982D01*
X40230201Y-40712987D01*
X40289508Y-40815709D01*
X40289509Y-40815710D01*
X40289511Y-40815713D01*
X40373387Y-40899589D01*
X40387500Y-40907737D01*
X40421978Y-40952670D01*
X40424500Y-40971823D01*
X40424500Y-46502773D01*
X40424499Y-46502787D01*
X40424499Y-46598456D01*
X40448773Y-46657058D01*
X40458829Y-46681334D01*
X40458832Y-46681338D01*
X40532671Y-46755177D01*
X40532673Y-46755178D01*
X40687165Y-46909670D01*
X40708839Y-46961996D01*
X40706318Y-46981146D01*
X40702100Y-46996888D01*
X40702100Y-47115511D01*
X40732799Y-47230082D01*
X40732801Y-47230087D01*
X40792108Y-47332809D01*
X40792109Y-47332810D01*
X40792111Y-47332813D01*
X40875987Y-47416689D01*
X40889606Y-47424552D01*
X40890100Y-47424837D01*
X40924578Y-47469770D01*
X40927100Y-47488923D01*
X40927100Y-49144443D01*
X40905426Y-49196769D01*
X40813056Y-49289138D01*
X40760730Y-49310812D01*
X40708404Y-49289138D01*
X40689252Y-49255965D01*
X40685300Y-49241217D01*
X40685298Y-49241212D01*
X40625991Y-49138490D01*
X40625990Y-49138489D01*
X40625989Y-49138487D01*
X40542113Y-49054611D01*
X40542110Y-49054609D01*
X40542109Y-49054608D01*
X40439387Y-48995301D01*
X40439382Y-48995299D01*
X40324811Y-48964600D01*
X40324809Y-48964600D01*
X40206191Y-48964600D01*
X40206190Y-48964600D01*
X40190446Y-48968818D01*
X40134294Y-48961424D01*
X40118970Y-48949665D01*
X39200574Y-48031269D01*
X39178900Y-47978943D01*
X39178900Y-38274657D01*
X39200574Y-38222331D01*
X39252900Y-38200657D01*
X39305225Y-38222330D01*
G37*
%TD.AperFunction*%
%TA.AperFunction,Conductor*%
G36*
X25668996Y-33474062D02*
G01*
X25807872Y-33612877D01*
X26407352Y-34212436D01*
X26480929Y-34286022D01*
X26502600Y-34338344D01*
X26502600Y-36957577D01*
X26480926Y-37009903D01*
X26465601Y-37021662D01*
X26451490Y-37029809D01*
X26451488Y-37029810D01*
X26367608Y-37113690D01*
X26308301Y-37216412D01*
X26308299Y-37216417D01*
X26277600Y-37330988D01*
X26277600Y-37449611D01*
X26308299Y-37564182D01*
X26308301Y-37564187D01*
X26367608Y-37666909D01*
X26367609Y-37666910D01*
X26367611Y-37666913D01*
X26451487Y-37750789D01*
X26451489Y-37750790D01*
X26451490Y-37750791D01*
X26554212Y-37810098D01*
X26554214Y-37810099D01*
X26554215Y-37810099D01*
X26554217Y-37810100D01*
X26556632Y-37810747D01*
X26668788Y-37840799D01*
X26668789Y-37840800D01*
X26668791Y-37840800D01*
X26787411Y-37840800D01*
X26787411Y-37840799D01*
X26901986Y-37810099D01*
X27004713Y-37750789D01*
X27088589Y-37666913D01*
X27146914Y-37565891D01*
X27191847Y-37531413D01*
X27248000Y-37538806D01*
X27282479Y-37583739D01*
X27285000Y-37602892D01*
X27285000Y-41332932D01*
X27263326Y-41385258D01*
X27230154Y-41404410D01*
X27147716Y-41426500D01*
X27147712Y-41426501D01*
X27044990Y-41485808D01*
X26961108Y-41569690D01*
X26901801Y-41672412D01*
X26901799Y-41672417D01*
X26871100Y-41786988D01*
X26871100Y-41905611D01*
X26901799Y-42020182D01*
X26901801Y-42020187D01*
X26961108Y-42122909D01*
X26961109Y-42122910D01*
X26961111Y-42122913D01*
X27044987Y-42206789D01*
X27044989Y-42206790D01*
X27044990Y-42206791D01*
X27145405Y-42264766D01*
X27147714Y-42266099D01*
X27147715Y-42266099D01*
X27147717Y-42266100D01*
X27230153Y-42288189D01*
X27275086Y-42322667D01*
X27285000Y-42359667D01*
X27285000Y-48336487D01*
X27263326Y-48388813D01*
X27211000Y-48410487D01*
X27174000Y-48400573D01*
X27131787Y-48376201D01*
X27131782Y-48376199D01*
X27017211Y-48345500D01*
X27017209Y-48345500D01*
X26898591Y-48345500D01*
X26898590Y-48345500D01*
X26882846Y-48349718D01*
X26826694Y-48342324D01*
X26811370Y-48330565D01*
X26099774Y-47618969D01*
X26078100Y-47566643D01*
X26078100Y-35592175D01*
X26078101Y-35592166D01*
X26078101Y-35493846D01*
X26058812Y-35447280D01*
X26055702Y-35399813D01*
X26066100Y-35361009D01*
X26066100Y-35242391D01*
X26066100Y-35242389D01*
X26066099Y-35242388D01*
X26035400Y-35127817D01*
X26035398Y-35127812D01*
X25976091Y-35025090D01*
X25976090Y-35025089D01*
X25976089Y-35025087D01*
X25892213Y-34941211D01*
X25892210Y-34941209D01*
X25892209Y-34941208D01*
X25789487Y-34881901D01*
X25789482Y-34881899D01*
X25674911Y-34851200D01*
X25674909Y-34851200D01*
X25556291Y-34851200D01*
X25556289Y-34851200D01*
X25441717Y-34881899D01*
X25441711Y-34881902D01*
X25362300Y-34927750D01*
X25306147Y-34935142D01*
X25261214Y-34900664D01*
X25251300Y-34863664D01*
X25251300Y-34821075D01*
X25251301Y-34821066D01*
X25251301Y-34722746D01*
X25216970Y-34639865D01*
X25216969Y-34639863D01*
X25149321Y-34572215D01*
X25149314Y-34572209D01*
X24155831Y-33578726D01*
X24134157Y-33526400D01*
X24155831Y-33474074D01*
X24208157Y-33452400D01*
X25616683Y-33452400D01*
X25668996Y-33474062D01*
G37*
%TD.AperFunction*%
%TA.AperFunction,Conductor*%
G36*
X28528669Y-31532774D02*
G01*
X29246165Y-32250270D01*
X29267839Y-32302596D01*
X29265318Y-32321746D01*
X29261100Y-32337488D01*
X29261100Y-32456111D01*
X29291799Y-32570682D01*
X29291801Y-32570687D01*
X29351108Y-32673409D01*
X29351109Y-32673410D01*
X29351111Y-32673413D01*
X29434987Y-32757289D01*
X29537714Y-32816599D01*
X29537715Y-32816599D01*
X29537717Y-32816600D01*
X29595002Y-32831949D01*
X29652288Y-32847299D01*
X29652289Y-32847300D01*
X29652291Y-32847300D01*
X29770911Y-32847300D01*
X29770911Y-32847299D01*
X29864448Y-32822236D01*
X29920599Y-32829628D01*
X29955078Y-32874561D01*
X29957600Y-32893714D01*
X29957600Y-33960642D01*
X29935926Y-34012968D01*
X27319330Y-36629564D01*
X27313697Y-36643163D01*
X27284999Y-36712444D01*
X27284999Y-36810766D01*
X27285000Y-36810775D01*
X27285000Y-37177707D01*
X27263326Y-37230033D01*
X27211000Y-37251707D01*
X27158674Y-37230033D01*
X27146914Y-37214707D01*
X27088591Y-37113690D01*
X27088590Y-37113689D01*
X27088589Y-37113687D01*
X27004713Y-37029811D01*
X26990599Y-37021662D01*
X26956121Y-36976728D01*
X26953600Y-36957577D01*
X26953600Y-34223285D01*
X26953603Y-34169460D01*
X26953601Y-34169457D01*
X26953602Y-34169451D01*
X26947959Y-34155828D01*
X26932959Y-34119611D01*
X26932959Y-34119608D01*
X26932958Y-34119609D01*
X26919713Y-34087628D01*
X26919320Y-34086631D01*
X26919287Y-34086581D01*
X26881133Y-34048427D01*
X26833700Y-34000988D01*
X26338813Y-33506035D01*
X26317142Y-33453708D01*
X26338815Y-33401388D01*
X27427670Y-32312533D01*
X27479995Y-32290860D01*
X27499149Y-32293382D01*
X27514890Y-32297600D01*
X27514891Y-32297600D01*
X27633511Y-32297600D01*
X27633511Y-32297599D01*
X27748086Y-32266899D01*
X27850813Y-32207589D01*
X27934689Y-32123713D01*
X27993999Y-32020986D01*
X28024699Y-31906411D01*
X28024700Y-31906411D01*
X28024700Y-31787789D01*
X28024699Y-31787788D01*
X27994000Y-31673217D01*
X27993998Y-31673212D01*
X27967074Y-31626579D01*
X27964487Y-31622099D01*
X27957095Y-31565948D01*
X27991574Y-31521014D01*
X28028574Y-31511100D01*
X28476343Y-31511100D01*
X28528669Y-31532774D01*
G37*
%TD.AperFunction*%
%TA.AperFunction,Conductor*%
G36*
X20995169Y-33665274D02*
G01*
X21016843Y-33717600D01*
X20995169Y-33769926D01*
X18978269Y-35786826D01*
X18925943Y-35808500D01*
X12926575Y-35808500D01*
X12926567Y-35808499D01*
X12917955Y-35808499D01*
X12841259Y-35808499D01*
X12788933Y-35786825D01*
X12767259Y-35734499D01*
X12788933Y-35682173D01*
X14805832Y-33665274D01*
X14858158Y-33643600D01*
X20942843Y-33643600D01*
X20995169Y-33665274D01*
G37*
%TD.AperFunction*%
%TA.AperFunction,Conductor*%
G36*
X35845903Y-26097174D02*
G01*
X35857662Y-26112499D01*
X35865811Y-26126613D01*
X35949687Y-26210489D01*
X35949689Y-26210490D01*
X35949690Y-26210491D01*
X36052412Y-26269798D01*
X36052414Y-26269799D01*
X36052415Y-26269799D01*
X36052417Y-26269800D01*
X36083222Y-26278054D01*
X36166988Y-26300499D01*
X36166989Y-26300500D01*
X36166991Y-26300500D01*
X36285611Y-26300500D01*
X36285611Y-26300499D01*
X36400186Y-26269799D01*
X36432800Y-26250968D01*
X36488952Y-26243576D01*
X36533886Y-26278054D01*
X36543800Y-26315055D01*
X36543800Y-26892077D01*
X36522126Y-26944403D01*
X36506801Y-26956162D01*
X36492690Y-26964309D01*
X36492688Y-26964310D01*
X36408808Y-27048190D01*
X36349501Y-27150912D01*
X36349499Y-27150917D01*
X36318800Y-27265488D01*
X36318800Y-27384111D01*
X36349499Y-27498682D01*
X36349501Y-27498687D01*
X36408808Y-27601409D01*
X36408809Y-27601410D01*
X36408811Y-27601413D01*
X36492687Y-27685289D01*
X36492689Y-27685290D01*
X36492690Y-27685291D01*
X36595412Y-27744598D01*
X36595414Y-27744599D01*
X36595415Y-27744599D01*
X36595417Y-27744600D01*
X36652702Y-27759949D01*
X36709988Y-27775299D01*
X36709989Y-27775300D01*
X36709991Y-27775300D01*
X36828611Y-27775300D01*
X36828611Y-27775299D01*
X36943186Y-27744599D01*
X37008000Y-27707177D01*
X37064152Y-27699785D01*
X37109086Y-27734263D01*
X37119000Y-27771264D01*
X37119000Y-28091898D01*
X37097326Y-28144224D01*
X37064156Y-28163376D01*
X37053613Y-28166201D01*
X37053612Y-28166201D01*
X36950890Y-28225508D01*
X36867008Y-28309390D01*
X36807701Y-28412112D01*
X36807699Y-28412117D01*
X36777000Y-28526688D01*
X36777000Y-28645311D01*
X36807699Y-28759882D01*
X36807701Y-28759887D01*
X36867008Y-28862609D01*
X36867009Y-28862610D01*
X36867011Y-28862613D01*
X36950887Y-28946489D01*
X36965000Y-28954637D01*
X36999478Y-28999570D01*
X37002000Y-29018723D01*
X37002000Y-31830173D01*
X37001999Y-31830187D01*
X37001999Y-31925854D01*
X37021445Y-31972800D01*
X37021445Y-31972801D01*
X37036328Y-32008733D01*
X37036331Y-32008737D01*
X37110171Y-32082577D01*
X37110173Y-32082578D01*
X39610126Y-34582531D01*
X39631800Y-34634857D01*
X39631800Y-34750442D01*
X39610126Y-34802768D01*
X39557800Y-34824442D01*
X39505474Y-34802768D01*
X39453521Y-34750815D01*
X39453514Y-34750809D01*
X37532378Y-32829673D01*
X37532378Y-32829672D01*
X37458538Y-32755832D01*
X37458536Y-32755830D01*
X37458532Y-32755828D01*
X37434258Y-32745773D01*
X37434258Y-32745772D01*
X37375655Y-32721499D01*
X37285945Y-32721499D01*
X37277333Y-32721499D01*
X37277325Y-32721500D01*
X36365475Y-32721500D01*
X36365467Y-32721499D01*
X36356855Y-32721499D01*
X36267146Y-32721499D01*
X36218594Y-32741608D01*
X36218595Y-32741609D01*
X36184267Y-32755828D01*
X36184265Y-32755829D01*
X36120829Y-32819265D01*
X35102569Y-33837526D01*
X35050243Y-33859200D01*
X31170216Y-33859200D01*
X31117890Y-33837526D01*
X31096216Y-33785200D01*
X31106130Y-33748200D01*
X31119419Y-33725181D01*
X31131599Y-33704086D01*
X31162299Y-33589511D01*
X31162300Y-33589511D01*
X31162300Y-33470889D01*
X31162299Y-33470888D01*
X31131600Y-33356317D01*
X31131598Y-33356312D01*
X31072291Y-33253590D01*
X31072290Y-33253589D01*
X31072289Y-33253587D01*
X30988413Y-33169711D01*
X30974299Y-33161562D01*
X30939821Y-33116628D01*
X30937300Y-33097477D01*
X30937300Y-32306075D01*
X30937301Y-32306066D01*
X30937301Y-32207746D01*
X30937301Y-32207745D01*
X30904712Y-32129070D01*
X30902970Y-32124864D01*
X30839536Y-32061430D01*
X30835321Y-32057215D01*
X30835314Y-32057209D01*
X30176978Y-31398873D01*
X30176978Y-31398872D01*
X30135479Y-31357373D01*
X30113805Y-31305047D01*
X30135477Y-31252724D01*
X30207789Y-31180413D01*
X30267099Y-31077686D01*
X30297799Y-30963111D01*
X30297800Y-30963111D01*
X30297800Y-30844489D01*
X30297799Y-30844488D01*
X30267100Y-30729917D01*
X30267098Y-30729912D01*
X30207791Y-30627190D01*
X30207790Y-30627189D01*
X30207789Y-30627187D01*
X30123913Y-30543311D01*
X30123910Y-30543309D01*
X30123909Y-30543308D01*
X30021187Y-30484001D01*
X30021182Y-30483999D01*
X29906611Y-30453300D01*
X29906609Y-30453300D01*
X29787991Y-30453300D01*
X29787990Y-30453300D01*
X29772246Y-30457518D01*
X29716094Y-30450124D01*
X29700770Y-30438365D01*
X28807074Y-29544669D01*
X28785400Y-29492343D01*
X28785400Y-28379623D01*
X28807074Y-28327297D01*
X28859400Y-28305623D01*
X28896399Y-28315536D01*
X28932014Y-28336099D01*
X28932015Y-28336099D01*
X28932017Y-28336100D01*
X28956649Y-28342700D01*
X29046588Y-28366799D01*
X29046589Y-28366800D01*
X29046591Y-28366800D01*
X29165209Y-28366800D01*
X29180949Y-28362582D01*
X29237100Y-28369973D01*
X29252429Y-28381734D01*
X32018438Y-31147743D01*
X32037590Y-31180916D01*
X32069199Y-31298882D01*
X32069201Y-31298887D01*
X32128508Y-31401609D01*
X32128509Y-31401610D01*
X32128511Y-31401613D01*
X32212387Y-31485489D01*
X32212389Y-31485490D01*
X32212390Y-31485491D01*
X32294286Y-31532774D01*
X32315114Y-31544799D01*
X32315115Y-31544799D01*
X32315117Y-31544800D01*
X32365127Y-31558200D01*
X32429688Y-31575499D01*
X32429689Y-31575500D01*
X32429691Y-31575500D01*
X32548311Y-31575500D01*
X32548311Y-31575499D01*
X32662886Y-31544799D01*
X32765613Y-31485489D01*
X32849489Y-31401613D01*
X32908799Y-31298886D01*
X32939499Y-31184311D01*
X32939500Y-31184311D01*
X32939500Y-31065689D01*
X32939499Y-31065688D01*
X32938001Y-31060099D01*
X32908799Y-30951114D01*
X32849489Y-30848387D01*
X32845590Y-30844488D01*
X32794274Y-30793171D01*
X32772600Y-30740846D01*
X32772600Y-29427396D01*
X35819500Y-29427396D01*
X35819500Y-29552603D01*
X35851904Y-29673535D01*
X35892709Y-29744211D01*
X35914505Y-29781964D01*
X36003036Y-29870495D01*
X36111464Y-29933095D01*
X36111463Y-29933095D01*
X36181286Y-29951804D01*
X36232396Y-29965499D01*
X36232397Y-29965500D01*
X36232399Y-29965500D01*
X36357603Y-29965500D01*
X36357603Y-29965499D01*
X36478536Y-29933095D01*
X36586964Y-29870495D01*
X36675495Y-29781964D01*
X36738095Y-29673536D01*
X36770499Y-29552603D01*
X36770500Y-29552603D01*
X36770500Y-29427397D01*
X36770499Y-29427396D01*
X36768042Y-29418228D01*
X36738095Y-29306464D01*
X36675495Y-29198036D01*
X36586964Y-29109505D01*
X36586963Y-29109504D01*
X36478534Y-29046904D01*
X36478536Y-29046904D01*
X36357603Y-29014500D01*
X36357601Y-29014500D01*
X36232399Y-29014500D01*
X36232397Y-29014500D01*
X36111464Y-29046904D01*
X36003036Y-29109504D01*
X35914504Y-29198036D01*
X35851904Y-29306464D01*
X35819500Y-29427396D01*
X32772600Y-29427396D01*
X32772600Y-28782723D01*
X32794274Y-28730397D01*
X32809600Y-28718637D01*
X32823713Y-28710489D01*
X32907589Y-28626613D01*
X32966899Y-28523886D01*
X32997599Y-28409311D01*
X32997600Y-28409311D01*
X32997600Y-28290689D01*
X32997599Y-28290688D01*
X32988894Y-28258202D01*
X32972187Y-28195850D01*
X32966900Y-28176117D01*
X32966898Y-28176112D01*
X32907591Y-28073390D01*
X32907590Y-28073389D01*
X32907589Y-28073387D01*
X32823713Y-27989511D01*
X32823710Y-27989509D01*
X32823709Y-27989508D01*
X32720987Y-27930201D01*
X32720982Y-27930199D01*
X32606411Y-27899500D01*
X32606409Y-27899500D01*
X32487791Y-27899500D01*
X32487789Y-27899500D01*
X32373217Y-27930199D01*
X32373212Y-27930201D01*
X32270490Y-27989508D01*
X32186608Y-28073390D01*
X32127301Y-28176112D01*
X32127299Y-28176117D01*
X32096600Y-28290688D01*
X32096600Y-28409311D01*
X32127299Y-28523882D01*
X32127301Y-28523887D01*
X32186608Y-28626609D01*
X32186609Y-28626610D01*
X32186611Y-28626613D01*
X32270487Y-28710489D01*
X32284600Y-28718637D01*
X32319078Y-28763570D01*
X32321600Y-28782723D01*
X32321600Y-30634443D01*
X32299926Y-30686769D01*
X32247600Y-30708443D01*
X32195274Y-30686769D01*
X29571334Y-28062829D01*
X29549660Y-28010503D01*
X29552181Y-27991353D01*
X29556400Y-27975609D01*
X29556400Y-27856991D01*
X29556400Y-27856989D01*
X29556399Y-27856988D01*
X29525700Y-27742417D01*
X29525698Y-27742412D01*
X29466391Y-27639690D01*
X29466390Y-27639689D01*
X29466389Y-27639687D01*
X29382513Y-27555811D01*
X29382510Y-27555809D01*
X29382509Y-27555808D01*
X29279787Y-27496501D01*
X29279783Y-27496500D01*
X29212113Y-27478367D01*
X29167181Y-27443888D01*
X29159789Y-27387735D01*
X29178939Y-27354565D01*
X30436331Y-26097174D01*
X30488657Y-26075500D01*
X35793577Y-26075500D01*
X35845903Y-26097174D01*
G37*
%TD.AperFunction*%
%TD*%
M02*
