%TF.GenerationSoftware,KiCad,Pcbnew,10.0.6-10.0.6~ubuntu24.04.1*%
%TF.CreationDate,2026-09-25T11:34:31+00:00*%
%TF.ProjectId,click-counter-Q5,636c6963-6b2d-4636-9f75-6e7465722d51,rev?*%
%TF.SameCoordinates,Original*%
%TF.FileFunction,Soldermask,Bot*%
%TF.FilePolarity,Negative*%
%FSLAX46Y46*%
G04 Gerber Fmt 4.6, Leading zero omitted, Abs format (unit mm)*
G04 Created by KiCad (PCBNEW 10.0.6-10.0.6~ubuntu24.04.1) date 2026-09-25 11:34:31*
%MOMM*%
%LPD*%
G01*
G04 APERTURE LIST*
G04 Aperture macros list*
%AMRoundRect*
0 Rectangle with rounded corners*
0 $1 Rounding radius*
0 $2 $3 $4 $5 $6 $7 $8 $9 X,Y pos of 4 corners*
0 Add a 4 corners polygon primitive as box body*
4,1,4,$2,$3,$4,$5,$6,$7,$8,$9,$2,$3,0*
0 Add four circle primitives for the rounded corners*
1,1,$1+$1,$2,$3*
1,1,$1+$1,$4,$5*
1,1,$1+$1,$6,$7*
1,1,$1+$1,$8,$9*
0 Add four rect primitives between the rounded corners*
20,1,$1+$1,$2,$3,$4,$5,0*
20,1,$1+$1,$4,$5,$6,$7,0*
20,1,$1+$1,$6,$7,$8,$9,0*
20,1,$1+$1,$8,$9,$2,$3,0*%
G04 Aperture macros list end*
%ADD10C,2.200000*%
%ADD11C,3.950000*%
%ADD12R,1.800000X1.800000*%
%ADD13C,1.800000*%
%ADD14RoundRect,0.225000X-0.225000X-0.250000X0.225000X-0.250000X0.225000X0.250000X-0.225000X0.250000X0*%
%ADD15RoundRect,0.200000X-0.200000X-0.275000X0.200000X-0.275000X0.200000X0.275000X-0.200000X0.275000X0*%
%ADD16RoundRect,0.093750X-0.093750X-0.106250X0.093750X-0.106250X0.093750X0.106250X-0.093750X0.106250X0*%
%ADD17R,1.000000X1.600000*%
%ADD18RoundRect,0.150000X0.150000X-0.512500X0.150000X0.512500X-0.150000X0.512500X-0.150000X-0.512500X0*%
%ADD19RoundRect,0.200000X0.275000X-0.200000X0.275000X0.200000X-0.275000X0.200000X-0.275000X-0.200000X0*%
%ADD20C,1.500000*%
%ADD21RoundRect,0.150000X-0.587500X-0.150000X0.587500X-0.150000X0.587500X0.150000X-0.587500X0.150000X0*%
%ADD22C,0.650000*%
%ADD23RoundRect,0.150000X-0.425000X0.150000X-0.425000X-0.150000X0.425000X-0.150000X0.425000X0.150000X0*%
%ADD24RoundRect,0.075000X-0.500000X0.075000X-0.500000X-0.075000X0.500000X-0.075000X0.500000X0.075000X0*%
%ADD25O,1.800000X1.000000*%
%ADD26O,2.100000X1.000000*%
%ADD27RoundRect,0.150000X-0.825000X-0.150000X0.825000X-0.150000X0.825000X0.150000X-0.825000X0.150000X0*%
%ADD28RoundRect,0.125000X0.125000X-0.537500X0.125000X0.537500X-0.125000X0.537500X-0.125000X-0.537500X0*%
%ADD29RoundRect,0.150000X-0.512500X-0.150000X0.512500X-0.150000X0.512500X0.150000X-0.512500X0.150000X0*%
%ADD30R,4.200000X3.800000*%
%ADD31RoundRect,0.070000X0.355000X-0.070000X0.355000X0.070000X-0.355000X0.070000X-0.355000X-0.070000X0*%
%ADD32RoundRect,0.070000X0.305000X-0.070000X0.305000X0.070000X-0.305000X0.070000X-0.305000X-0.070000X0*%
%ADD33RoundRect,0.075000X-0.662500X-0.075000X0.662500X-0.075000X0.662500X0.075000X-0.662500X0.075000X0*%
%ADD34RoundRect,0.075000X-0.075000X-0.662500X0.075000X-0.662500X0.075000X0.662500X-0.075000X0.662500X0*%
%ADD35RoundRect,0.250000X0.475000X-0.250000X0.475000X0.250000X-0.475000X0.250000X-0.475000X-0.250000X0*%
%ADD36R,1.050000X2.000000*%
%ADD37RoundRect,0.050000X-0.325000X-0.050000X0.325000X-0.050000X0.325000X0.050000X-0.325000X0.050000X0*%
%ADD38R,0.900000X1.500000*%
%ADD39RoundRect,0.112500X-0.187500X-0.112500X0.187500X-0.112500X0.187500X0.112500X-0.187500X0.112500X0*%
%ADD40RoundRect,0.225000X0.250000X-0.225000X0.250000X0.225000X-0.250000X0.225000X-0.250000X-0.225000X0*%
%ADD41RoundRect,0.250000X-0.250000X-0.475000X0.250000X-0.475000X0.250000X0.475000X-0.250000X0.475000X0*%
%ADD42RoundRect,0.150000X0.150000X-0.587500X0.150000X0.587500X-0.150000X0.587500X-0.150000X-0.587500X0*%
G04 APERTURE END LIST*
D10*
%TO.C,H4*%
X39500000Y-2500000D03*
%TD*%
D11*
%TO.C,SW1*%
X11475000Y-40800000D03*
D10*
X14015000Y-35720000D03*
X7665000Y-38260000D03*
%TD*%
%TO.C,H3*%
X2500000Y-2500000D03*
%TD*%
%TO.C,H2*%
X39500000Y-52000000D03*
%TD*%
D11*
%TO.C,SW2*%
X30525000Y-40800000D03*
D10*
X33065000Y-35720000D03*
X26715000Y-38260000D03*
%TD*%
%TO.C,H1*%
X2500000Y-52000000D03*
%TD*%
D12*
%TO.C,DS1*%
X13380000Y-4300000D03*
D13*
X15920000Y-4300000D03*
X18460000Y-4300000D03*
X21000000Y-4300000D03*
X23540000Y-4300000D03*
X26080000Y-4300000D03*
X28620000Y-4300000D03*
%TD*%
D14*
%TO.C,C11*%
X6725000Y-31300000D03*
X8275000Y-31300000D03*
%TD*%
D15*
%TO.C,R18*%
X2975000Y-31300000D03*
X4625000Y-31300000D03*
%TD*%
D16*
%TO.C,U3*%
X36712500Y-41250000D03*
X36712500Y-40600000D03*
X36712500Y-39950000D03*
X38487500Y-39950000D03*
X38487500Y-40600000D03*
X38487500Y-41250000D03*
D17*
X37600000Y-40600000D03*
%TD*%
D18*
%TO.C,D1*%
X31750000Y-28337500D03*
X30800000Y-28337500D03*
X29850000Y-28337500D03*
X29850000Y-26062500D03*
X30800000Y-26062500D03*
X31750000Y-26062500D03*
%TD*%
D19*
%TO.C,R1*%
X33400000Y-27725000D03*
X33400000Y-26075000D03*
%TD*%
D20*
%TO.C,TP3*%
X27500000Y-52000000D03*
%TD*%
D21*
%TO.C,Q5*%
X10562500Y-28950000D03*
X10562500Y-27050000D03*
X12437500Y-28000000D03*
%TD*%
D20*
%TO.C,TP9*%
X2200000Y-35400000D03*
%TD*%
D22*
%TO.C,J1*%
X36295000Y-24110000D03*
X36295000Y-29890000D03*
D23*
X35220000Y-23800000D03*
X35220000Y-24600000D03*
D24*
X35220000Y-25750000D03*
X35220000Y-26750000D03*
X35220000Y-27250000D03*
X35220000Y-28250000D03*
D23*
X35220000Y-29400000D03*
X35220000Y-30200000D03*
X35220000Y-30200000D03*
X35220000Y-29400000D03*
D24*
X35220000Y-28750000D03*
X35220000Y-27750000D03*
X35220000Y-26250000D03*
X35220000Y-25250000D03*
D23*
X35220000Y-24600000D03*
X35220000Y-23800000D03*
D25*
X39975000Y-22680000D03*
D26*
X35795000Y-22680000D03*
D25*
X39975000Y-31320000D03*
D26*
X35795000Y-31320000D03*
%TD*%
D14*
%TO.C,C34*%
X26625000Y-27000000D03*
X28175000Y-27000000D03*
%TD*%
D27*
%TO.C,U8*%
X18525000Y-49505000D03*
X18525000Y-48235000D03*
X18525000Y-46965000D03*
X18525000Y-45695000D03*
X23475000Y-45695000D03*
X23475000Y-46965000D03*
X23475000Y-48235000D03*
X23475000Y-49505000D03*
%TD*%
D15*
%TO.C,R32*%
X16175000Y-41200000D03*
X17825000Y-41200000D03*
%TD*%
D28*
%TO.C,U5*%
X11775000Y-48737500D03*
X11125000Y-48737500D03*
X10475000Y-48737500D03*
X9825000Y-48737500D03*
X9825000Y-46462500D03*
X10475000Y-46462500D03*
X11125000Y-46462500D03*
X11775000Y-46462500D03*
%TD*%
D14*
%TO.C,C37*%
X3025000Y-29600000D03*
X4575000Y-29600000D03*
%TD*%
D21*
%TO.C,Q4*%
X12462500Y-52850000D03*
X12462500Y-50950000D03*
X14337500Y-51900000D03*
%TD*%
D29*
%TO.C,U7*%
X36462500Y-35550000D03*
X36462500Y-34600000D03*
X36462500Y-33650000D03*
X38737500Y-33650000D03*
X38737500Y-34600000D03*
X38737500Y-35550000D03*
%TD*%
D30*
%TO.C,BT1*%
X35390000Y-16300000D03*
X6610000Y-16300000D03*
%TD*%
D19*
%TO.C,R6*%
X30600000Y-3725000D03*
X30600000Y-2075000D03*
%TD*%
D31*
%TO.C,U4*%
X1775000Y-9800000D03*
D32*
X1725000Y-9300000D03*
X1725000Y-8800000D03*
X2875000Y-8800000D03*
X2875000Y-9300000D03*
X2875000Y-9800000D03*
%TD*%
D21*
%TO.C,Q3*%
X8462500Y-52950000D03*
X8462500Y-51050000D03*
X10337500Y-52000000D03*
%TD*%
D15*
%TO.C,R33*%
X20175000Y-41200000D03*
X21825000Y-41200000D03*
%TD*%
D20*
%TO.C,TP12*%
X35100000Y-52000000D03*
%TD*%
D33*
%TO.C,U1*%
X16437500Y-34550000D03*
X16437500Y-34050000D03*
X16437500Y-33550000D03*
X16437500Y-33050000D03*
X16437500Y-32550000D03*
X16437500Y-32050000D03*
X16437500Y-31550000D03*
X16437500Y-31050000D03*
X16437500Y-30550000D03*
X16437500Y-30050000D03*
X16437500Y-29550000D03*
X16437500Y-29050000D03*
D34*
X17850000Y-27637500D03*
X18350000Y-27637500D03*
X18850000Y-27637500D03*
X19350000Y-27637500D03*
X19850000Y-27637500D03*
X20350000Y-27637500D03*
X20850000Y-27637500D03*
X21350000Y-27637500D03*
X21850000Y-27637500D03*
X22350000Y-27637500D03*
X22850000Y-27637500D03*
X23350000Y-27637500D03*
D33*
X24762500Y-29050000D03*
X24762500Y-29550000D03*
X24762500Y-30050000D03*
X24762500Y-30550000D03*
X24762500Y-31050000D03*
X24762500Y-31550000D03*
X24762500Y-32050000D03*
X24762500Y-32550000D03*
X24762500Y-33050000D03*
X24762500Y-33550000D03*
X24762500Y-34050000D03*
X24762500Y-34550000D03*
D34*
X23350000Y-35962500D03*
X22850000Y-35962500D03*
X22350000Y-35962500D03*
X21850000Y-35962500D03*
X21350000Y-35962500D03*
X20850000Y-35962500D03*
X20350000Y-35962500D03*
X19850000Y-35962500D03*
X19350000Y-35962500D03*
X18850000Y-35962500D03*
X18350000Y-35962500D03*
X17850000Y-35962500D03*
%TD*%
D35*
%TO.C,C30*%
X25800000Y-48550000D03*
X25800000Y-46650000D03*
%TD*%
D14*
%TO.C,C9*%
X10025000Y-44400000D03*
X11575000Y-44400000D03*
%TD*%
D36*
%TO.C,SW3*%
X29175000Y-47600000D03*
X33625000Y-47600000D03*
%TD*%
D15*
%TO.C,R15*%
X16375000Y-51000000D03*
X18025000Y-51000000D03*
%TD*%
D14*
%TO.C,C31*%
X16225000Y-38200000D03*
X17775000Y-38200000D03*
%TD*%
D19*
%TO.C,R29*%
X11000000Y-5225000D03*
X11000000Y-3575000D03*
%TD*%
D37*
%TO.C,U2*%
X33900000Y-9800000D03*
X33900000Y-9400000D03*
X33900000Y-9000000D03*
X33900000Y-8600000D03*
X33900000Y-8200000D03*
X36100000Y-8200000D03*
X36100000Y-8600000D03*
X36100000Y-9000000D03*
X36100000Y-9400000D03*
X36100000Y-9800000D03*
D38*
X35000000Y-9000000D03*
%TD*%
D14*
%TO.C,C36*%
X23825000Y-41200000D03*
X25375000Y-41200000D03*
%TD*%
D19*
%TO.C,R13*%
X14400000Y-49425000D03*
X14400000Y-47775000D03*
%TD*%
D18*
%TO.C,D2*%
X31750000Y-32637500D03*
X30800000Y-32637500D03*
X29850000Y-32637500D03*
X29850000Y-30362500D03*
X30800000Y-30362500D03*
X31750000Y-30362500D03*
%TD*%
D39*
%TO.C,D4*%
X36150000Y-37800000D03*
X38250000Y-37800000D03*
%TD*%
D19*
%TO.C,R9*%
X6000000Y-23025000D03*
X6000000Y-21375000D03*
%TD*%
%TO.C,R11*%
X6600000Y-50225000D03*
X6600000Y-48575000D03*
%TD*%
D20*
%TO.C,TP6*%
X28600000Y-44400000D03*
%TD*%
D15*
%TO.C,R37*%
X2975000Y-28000000D03*
X4625000Y-28000000D03*
%TD*%
D29*
%TO.C,U6*%
X6762500Y-3150000D03*
X6762500Y-2200000D03*
X6762500Y-1250000D03*
X9037500Y-1250000D03*
X9037500Y-2200000D03*
X9037500Y-3150000D03*
%TD*%
D15*
%TO.C,R14*%
X16375000Y-52600000D03*
X18025000Y-52600000D03*
%TD*%
D20*
%TO.C,TP5*%
X40300000Y-19600000D03*
%TD*%
D19*
%TO.C,R35*%
X40800000Y-39425000D03*
X40800000Y-37775000D03*
%TD*%
%TO.C,R8*%
X7800000Y-10625000D03*
X7800000Y-8975000D03*
%TD*%
D15*
%TO.C,R25*%
X7575000Y-6500000D03*
X9225000Y-6500000D03*
%TD*%
D14*
%TO.C,C4*%
X1525000Y-11900000D03*
X3075000Y-11900000D03*
%TD*%
D15*
%TO.C,R16*%
X10575000Y-32200000D03*
X12225000Y-32200000D03*
%TD*%
D14*
%TO.C,C28*%
X10825000Y-7000000D03*
X12375000Y-7000000D03*
%TD*%
D20*
%TO.C,TP13*%
X2200000Y-38400000D03*
%TD*%
D14*
%TO.C,C32*%
X19425000Y-38200000D03*
X20975000Y-38200000D03*
%TD*%
D15*
%TO.C,R5*%
X37575000Y-11800000D03*
X39225000Y-11800000D03*
%TD*%
D19*
%TO.C,R12*%
X14400000Y-46225000D03*
X14400000Y-44575000D03*
%TD*%
%TO.C,R7*%
X5400000Y-10625000D03*
X5400000Y-8975000D03*
%TD*%
D15*
%TO.C,R3*%
X37575000Y-7000000D03*
X39225000Y-7000000D03*
%TD*%
D35*
%TO.C,C1*%
X35600000Y-4550000D03*
X35600000Y-2650000D03*
%TD*%
D14*
%TO.C,C10*%
X10625000Y-33800000D03*
X12175000Y-33800000D03*
%TD*%
D40*
%TO.C,C39*%
X30200000Y-36175000D03*
X30200000Y-34625000D03*
%TD*%
D19*
%TO.C,R31*%
X40800000Y-46225000D03*
X40800000Y-44575000D03*
%TD*%
D15*
%TO.C,R4*%
X37575000Y-8600000D03*
X39225000Y-8600000D03*
%TD*%
D20*
%TO.C,TP1*%
X22500000Y-52000000D03*
%TD*%
%TO.C,TP4*%
X30000000Y-52000000D03*
%TD*%
D40*
%TO.C,C29*%
X40800000Y-35775000D03*
X40800000Y-34225000D03*
%TD*%
D35*
%TO.C,C2*%
X33300000Y-4250000D03*
X33300000Y-2350000D03*
%TD*%
D15*
%TO.C,R19*%
X37575000Y-10200000D03*
X39225000Y-10200000D03*
%TD*%
D35*
%TO.C,C3*%
X40400000Y-16150000D03*
X40400000Y-14250000D03*
%TD*%
D15*
%TO.C,R24*%
X4375000Y-6500000D03*
X6025000Y-6500000D03*
%TD*%
D14*
%TO.C,C20*%
X10925000Y-1200000D03*
X12475000Y-1200000D03*
%TD*%
D19*
%TO.C,R10*%
X7200000Y-47225000D03*
X7200000Y-45575000D03*
%TD*%
D15*
%TO.C,R34*%
X10575000Y-30600000D03*
X12225000Y-30600000D03*
%TD*%
D21*
%TO.C,D3*%
X6562500Y-27750000D03*
X6562500Y-25850000D03*
X8437500Y-26800000D03*
%TD*%
D15*
%TO.C,R36*%
X2975000Y-26400000D03*
X4625000Y-26400000D03*
%TD*%
D41*
%TO.C,C5*%
X36650000Y-44600000D03*
X38550000Y-44600000D03*
%TD*%
D14*
%TO.C,C33*%
X26525000Y-34600000D03*
X28075000Y-34600000D03*
%TD*%
%TO.C,C12*%
X3025000Y-32900000D03*
X4575000Y-32900000D03*
%TD*%
D19*
%TO.C,R2*%
X33400000Y-31125000D03*
X33400000Y-29475000D03*
%TD*%
%TO.C,R30*%
X40800000Y-43025000D03*
X40800000Y-41375000D03*
%TD*%
D15*
%TO.C,TH1*%
X12875000Y-25450000D03*
X14525000Y-25450000D03*
%TD*%
D35*
%TO.C,C6*%
X34900000Y-41550000D03*
X34900000Y-39650000D03*
%TD*%
D40*
%TO.C,C35*%
X14200000Y-28975000D03*
X14200000Y-27425000D03*
%TD*%
D20*
%TO.C,TP11*%
X32600000Y-52000000D03*
%TD*%
D42*
%TO.C,Q2*%
X3250000Y-22337500D03*
X1350000Y-22337500D03*
X2300000Y-20462500D03*
%TD*%
%TO.C,Q1*%
X3250000Y-17237500D03*
X1350000Y-17237500D03*
X2300000Y-15362500D03*
%TD*%
D40*
%TO.C,C38*%
X33400000Y-24075000D03*
X33400000Y-22525000D03*
%TD*%
%TO.C,C13*%
X40800000Y-10175000D03*
X40800000Y-8625000D03*
%TD*%
D14*
%TO.C,C7*%
X26625000Y-28600000D03*
X28175000Y-28600000D03*
%TD*%
D15*
%TO.C,R17*%
X6675000Y-29700000D03*
X8325000Y-29700000D03*
%TD*%
D20*
%TO.C,TP2*%
X25000000Y-52000000D03*
%TD*%
M02*
