M48
; DRILL file KiCad 10.0.6-10.0.6~ubuntu24.04.1 date 2026-09-25T11:34:32
; FORMAT={-:-/ absolute / metric / decimal}
; #@! TF.CreationDate,2026-09-25T11:34:32+00:00
; #@! TF.GenerationSoftware,Kicad,Pcbnew,10.0.6-10.0.6~ubuntu24.04.1
; #@! TF.FileFunction,Plated,1,2,PTH
FMAT,2
METRIC
; #@! TA.AperFunction,Plated,PTH,ViaDrill
T1C0.300
; #@! TA.AperFunction,Plated,PTH,ComponentDrill
T2C0.600
; #@! TA.AperFunction,Plated,PTH,ComponentDrill
T3C1.020
; #@! TA.AperFunction,Plated,PTH,ComponentDrill
T4C1.500
%
G90
G05
T1
X1.797Y-14.196
X3.351Y-37.549
X3.726Y-28.751
X3.952Y-9.316
X4.069Y-17.238
X4.47Y-8.587
X5.367Y-28.742
X5.424Y-32.051
X5.654Y-2.659
X5.694Y-48.575
X5.839Y-31.3
X6.111Y-8.302
X6.111Y-18.634
X7.05Y-21.375
X7.696Y-28.794
X7.731Y-27.916
X8.483Y-28.0
X8.927Y-46.734
X9.13Y-48.052
X9.154Y-52.0
X9.175Y-31.3
X9.225Y-7.748
X9.942Y-51.049
X10.09Y-5.362
X10.139Y-1.821
X12.625Y-44.4
X12.82Y-49.203
X12.876Y-47.028
X13.225Y-33.8
X13.525Y-1.2
X13.696Y-24.892
X14.2Y-26.525
X14.209Y-41.005
X14.776Y-31.199
X15.256Y-31.77
X15.327Y-27.425
X15.405Y-52.981
X16.515Y-11.853
X17.637Y-31.05
X18.177Y-37.23
X18.181Y-44.864
X18.35Y-34.762
X18.953Y-39.106
X19.826Y-48.738
X20.393Y-48.235
X20.573Y-37.23
X21.002Y-29.55
X21.008Y-40.646
X21.451Y-45.189
X21.463Y-39.645
X21.57Y-30.55
X21.852Y-37.13
X22.172Y-46.198
X22.22Y-23.466
X22.375Y-37.639
X22.85Y-26.438
X22.904Y-12.106
X22.904Y-24.257
X22.907Y-34.789
X22.907Y-44.816
X23.54Y-24.88
X24.086Y-35.228
X24.354Y-35.962
X24.886Y-49.386
X24.973Y-40.23
X25.208Y-28.447
X25.726Y-8.836
X25.744Y-27.023
X25.893Y-51.107
X25.935Y-29.964
X25.978Y-49.48
X27.378Y-44.023
X27.378Y-47.98
X27.422Y-30.402
X28.043Y-42.903
X28.175Y-29.65
X28.477Y-33.63
X28.898Y-30.461
X29.225Y-27.0
X29.289Y-36.062
X29.343Y-31.404
X30.684Y-31.525
X31.214Y-27.25
X31.25Y-34.625
X31.259Y-33.746
X32.058Y-23.853
X32.536Y-5.188
X32.62Y-28.478
X32.898Y-1.38
X33.264Y-7.564
X33.391Y-28.555
X33.4Y-11.3
X34.321Y-30.76
X34.423Y-32.71
X34.45Y-22.525
X35.198Y-1.68
X35.483Y-50.82
X36.088Y-40.6
X36.1Y-39.65
X36.134Y-36.28
X36.234Y-27.896
X36.424Y-10.36
X36.592Y-6.2
X36.857Y-11.064
X37.349Y-39.314
X37.4Y-32.5
X37.428Y-37.8
X37.571Y-35.059
X37.902Y-19.6
X38.55Y-45.8
X38.681Y-39.147
X39.225Y-13.075
X39.24Y-36.291
X39.24Y-41.25
X39.842Y-34.91
X39.895Y-46.225
X39.998Y-13.28
X40.036Y-40.653
T3
X13.38Y-4.3
X15.92Y-4.3
X18.46Y-4.3
X21.0Y-4.3
X23.54Y-4.3
X26.08Y-4.3
X28.62Y-4.3
T4
X7.665Y-38.26
X14.015Y-35.72
X26.715Y-38.26
X33.065Y-35.72
T2
G00X36.345Y-22.68
M15
G01X35.245Y-22.68
M16
G05
G00X36.345Y-31.32
M15
G01X35.245Y-31.32
M16
G05
G00X40.375Y-22.68
M15
G01X39.575Y-22.68
M16
G05
G00X40.375Y-31.32
M15
G01X39.575Y-31.32
M16
G05
M30
