%TF.GenerationSoftware,KiCad,Pcbnew,10.0.6*%
%TF.CreationDate,2026-09-15T01:53:15+09:00*%
%TF.ProjectId,click-counter-Q1,636c6963-6b2d-4636-9f75-6e7465722d51,rev?*%
%TF.SameCoordinates,Original*%
%TF.FileFunction,Copper,L4,Bot*%
%TF.FilePolarity,Positive*%
%FSLAX46Y46*%
G04 Gerber Fmt 4.6, Leading zero omitted, Abs format (unit mm)*
G04 Created by KiCad (PCBNEW 10.0.6) date 2026-09-15 01:53:15*
%MOMM*%
%LPD*%
G01*
G04 APERTURE LIST*
G04 Aperture macros list*
%AMRoundRect*
0 Rectangle with rounded corners*
0 $1 Rounding radius*
0 $2 $3 $4 $5 $6 $7 $8 $9 X,Y pos of 4 corners*
0 Add a 4 corners polygon primitive as box body*
4,1,4,$2,$3,$4,$5,$6,$7,$8,$9,$2,$3,0*
0 Add four circle primitives for the rounded corners*
1,1,$1+$1,$2,$3*
1,1,$1+$1,$4,$5*
1,1,$1+$1,$6,$7*
1,1,$1+$1,$8,$9*
0 Add four rect primitives between the rounded corners*
20,1,$1+$1,$2,$3,$4,$5,0*
20,1,$1+$1,$4,$5,$6,$7,0*
20,1,$1+$1,$6,$7,$8,$9,0*
20,1,$1+$1,$8,$9,$2,$3,0*%
G04 Aperture macros list end*
%TA.AperFunction,ComponentPad*%
%ADD10C,2.200000*%
%TD*%
%TA.AperFunction,ComponentPad*%
%ADD11O,2.100000X1.000000*%
%TD*%
%TA.AperFunction,ComponentPad*%
%ADD12O,1.800000X1.000000*%
%TD*%
%TA.AperFunction,SMDPad,CuDef*%
%ADD13RoundRect,0.150000X-0.512500X-0.150000X0.512500X-0.150000X0.512500X0.150000X-0.512500X0.150000X0*%
%TD*%
%TA.AperFunction,SMDPad,CuDef*%
%ADD14RoundRect,0.225000X-0.225000X-0.250000X0.225000X-0.250000X0.225000X0.250000X-0.225000X0.250000X0*%
%TD*%
%TA.AperFunction,SMDPad,CuDef*%
%ADD15RoundRect,0.070000X0.355000X-0.070000X0.355000X0.070000X-0.355000X0.070000X-0.355000X-0.070000X0*%
%TD*%
%TA.AperFunction,SMDPad,CuDef*%
%ADD16RoundRect,0.070000X0.305000X-0.070000X0.305000X0.070000X-0.305000X0.070000X-0.305000X-0.070000X0*%
%TD*%
%TA.AperFunction,SMDPad,CuDef*%
%ADD17RoundRect,0.125000X-0.687500X-0.125000X0.687500X-0.125000X0.687500X0.125000X-0.687500X0.125000X0*%
%TD*%
%TA.AperFunction,SMDPad,CuDef*%
%ADD18RoundRect,0.200000X0.275000X-0.200000X0.275000X0.200000X-0.275000X0.200000X-0.275000X-0.200000X0*%
%TD*%
%TA.AperFunction,SMDPad,CuDef*%
%ADD19RoundRect,0.225000X0.250000X-0.225000X0.250000X0.225000X-0.250000X0.225000X-0.250000X-0.225000X0*%
%TD*%
%TA.AperFunction,SMDPad,CuDef*%
%ADD20RoundRect,0.200000X-0.200000X-0.275000X0.200000X-0.275000X0.200000X0.275000X-0.200000X0.275000X0*%
%TD*%
%TA.AperFunction,SMDPad,CuDef*%
%ADD21RoundRect,0.150000X0.587500X0.150000X-0.587500X0.150000X-0.587500X-0.150000X0.587500X-0.150000X0*%
%TD*%
%TA.AperFunction,SMDPad,CuDef*%
%ADD22C,1.500000*%
%TD*%
%TA.AperFunction,SMDPad,CuDef*%
%ADD23RoundRect,0.150000X-0.587500X-0.150000X0.587500X-0.150000X0.587500X0.150000X-0.587500X0.150000X0*%
%TD*%
%TA.AperFunction,SMDPad,CuDef*%
%ADD24RoundRect,0.250000X0.475000X-0.250000X0.475000X0.250000X-0.475000X0.250000X-0.475000X-0.250000X0*%
%TD*%
%TA.AperFunction,SMDPad,CuDef*%
%ADD25RoundRect,0.050000X-0.325000X-0.050000X0.325000X-0.050000X0.325000X0.050000X-0.325000X0.050000X0*%
%TD*%
%TA.AperFunction,HeatsinkPad*%
%ADD26R,0.900000X1.500000*%
%TD*%
%TA.AperFunction,SMDPad,CuDef*%
%ADD27RoundRect,0.250000X-0.250000X-0.475000X0.250000X-0.475000X0.250000X0.475000X-0.250000X0.475000X0*%
%TD*%
%TA.AperFunction,ViaPad*%
%ADD28C,0.600000*%
%TD*%
%TA.AperFunction,Conductor*%
%ADD29C,0.150000*%
%TD*%
%TA.AperFunction,Conductor*%
%ADD30C,0.127000*%
%TD*%
G04 APERTURE END LIST*
D10*
%TO.P,SW1,1*%
%TO.N,COUNT_N*%
X14015000Y-22920000D03*
%TO.P,SW1,2*%
%TO.N,GND*%
X7665000Y-25460000D03*
%TD*%
D11*
%TO.P,J1,SH*%
%TO.N,GND*%
X35795000Y-17620000D03*
D12*
X39975000Y-17620000D03*
D11*
X35795000Y-8980000D03*
D12*
X39975000Y-8980000D03*
%TD*%
D10*
%TO.P,DS1,1*%
%TO.N,COM1*%
X9570000Y-15500000D03*
%TO.P,DS1,2*%
%TO.N,SEG0*%
X12110000Y-15500000D03*
%TO.P,DS1,3*%
%TO.N,SEG1*%
X14650000Y-15500000D03*
%TO.P,DS1,4*%
%TO.N,SEG2*%
X17190000Y-15500000D03*
%TO.P,DS1,5*%
%TO.N,SEG3*%
X19730000Y-15500000D03*
%TO.P,DS1,6*%
%TO.N,SEG4*%
X22270000Y-15500000D03*
%TO.P,DS1,7*%
%TO.N,SEG5*%
X24810000Y-15500000D03*
%TO.P,DS1,8*%
%TO.N,SEG6*%
X27350000Y-15500000D03*
%TO.P,DS1,9*%
%TO.N,SEG7*%
X29890000Y-15500000D03*
%TO.P,DS1,10*%
%TO.N,COM3*%
X32430000Y-15500000D03*
%TO.P,DS1,11*%
%TO.N,COM2*%
X32430000Y-2000000D03*
%TO.P,DS1,12*%
%TO.N,SEG8*%
X29890000Y-2000000D03*
%TO.P,DS1,13*%
%TO.N,SEG9*%
X27350000Y-2000000D03*
%TO.P,DS1,14*%
%TO.N,SEG10*%
X24810000Y-2000000D03*
%TO.P,DS1,15*%
%TO.N,SEG11*%
X22270000Y-2000000D03*
%TO.P,DS1,16*%
%TO.N,SEG12*%
X19730000Y-2000000D03*
%TO.P,DS1,17*%
%TO.N,SEG13*%
X17190000Y-2000000D03*
%TO.P,DS1,18*%
%TO.N,SEG14*%
X14650000Y-2000000D03*
%TO.P,DS1,19*%
%TO.N,SEG15*%
X12110000Y-2000000D03*
%TO.P,DS1,20*%
%TO.N,COM0*%
X9570000Y-2000000D03*
%TD*%
%TO.P,SW2,1*%
%TO.N,RESET_N*%
X33065000Y-22920000D03*
%TO.P,SW2,2*%
%TO.N,GND*%
X26715000Y-25460000D03*
%TD*%
D13*
%TO.P,U3,1*%
%TO.N,SYS*%
X25862500Y-7950000D03*
%TO.P,U3,2*%
%TO.N,GND*%
X25862500Y-7000000D03*
%TO.P,U3,3*%
%TO.N,SYS*%
X25862500Y-6050000D03*
%TO.P,U3,4*%
%TO.N,GND*%
X28137500Y-6050000D03*
%TO.P,U3,5*%
%TO.N,V3*%
X28137500Y-7950000D03*
%TD*%
D14*
%TO.P,C8,1*%
%TO.N,LCDCAP1*%
X14725000Y-11300000D03*
%TO.P,C8,2*%
%TO.N,LCDCAP0*%
X16275000Y-11300000D03*
%TD*%
D15*
%TO.P,U4,1*%
%TO.N,N/C*%
X6475000Y-6500000D03*
D16*
%TO.P,U4,2*%
%TO.N,COUT*%
X6425000Y-6000000D03*
%TO.P,U4,3*%
%TO.N,DOUT*%
X6425000Y-5500000D03*
%TO.P,U4,4*%
%TO.N,CELL_N_RAW*%
X7575000Y-5500000D03*
%TO.P,U4,5*%
%TO.N,BAT_SENSE*%
X7575000Y-6000000D03*
%TO.P,U4,6*%
%TO.N,VMINUS*%
X7575000Y-6500000D03*
%TD*%
D17*
%TO.P,U5,1*%
%TO.N,TEMP_OK*%
X14887500Y-7975000D03*
%TO.P,U5,2*%
%TO.N,TEMP_SENSE*%
X14887500Y-7325000D03*
%TO.P,U5,3*%
%TO.N,TEMP_COLD*%
X14887500Y-6675000D03*
%TO.P,U5,4*%
%TO.N,GND*%
X14887500Y-6025000D03*
%TO.P,U5,5*%
%TO.N,TEMP_SENSE*%
X19112500Y-6025000D03*
%TO.P,U5,6*%
%TO.N,TEMP_HOT*%
X19112500Y-6675000D03*
%TO.P,U5,7*%
%TO.N,TEMP_OK*%
X19112500Y-7325000D03*
%TO.P,U5,8*%
%TO.N,VBUS*%
X19112500Y-7975000D03*
%TD*%
D18*
%TO.P,R7,1*%
%TO.N,CELL_P*%
X4000000Y-6125000D03*
%TO.P,R7,2*%
%TO.N,BAT_SENSE*%
X4000000Y-4475000D03*
%TD*%
D14*
%TO.P,C7,1*%
%TO.N,V3*%
X24225000Y-4300000D03*
%TO.P,C7,2*%
%TO.N,GND*%
X25775000Y-4300000D03*
%TD*%
D19*
%TO.P,C11,1*%
%TO.N,COUNT_N*%
X8000000Y-35275000D03*
%TO.P,C11,2*%
%TO.N,GND*%
X8000000Y-33725000D03*
%TD*%
D18*
%TO.P,R17,1*%
%TO.N,V3*%
X5500000Y-34325000D03*
%TO.P,R17,2*%
%TO.N,COUNT_N*%
X5500000Y-32675000D03*
%TD*%
D19*
%TO.P,C10,1*%
%TO.N,SBWTDIO*%
X25500000Y-12275000D03*
%TO.P,C10,2*%
%TO.N,GND*%
X25500000Y-10725000D03*
%TD*%
D20*
%TO.P,R13,1*%
%TO.N,TEMP_HOT*%
X17275000Y-18500000D03*
%TO.P,R13,2*%
%TO.N,GND*%
X18925000Y-18500000D03*
%TD*%
%TO.P,R1,1*%
%TO.N,CC1*%
X28675000Y-18500000D03*
%TO.P,R1,2*%
%TO.N,GND*%
X30325000Y-18500000D03*
%TD*%
D13*
%TO.P,D1,1*%
%TO.N,CC1*%
X36162500Y-21650000D03*
%TO.P,D1,2*%
%TO.N,GND*%
X36162500Y-20700000D03*
%TO.P,D1,3*%
%TO.N,CC2*%
X36162500Y-19750000D03*
%TO.P,D1,4*%
X38437500Y-19750000D03*
%TO.P,D1,5*%
%TO.N,VBUS*%
X38437500Y-20700000D03*
%TO.P,D1,6*%
%TO.N,CC1*%
X38437500Y-21650000D03*
%TD*%
D21*
%TO.P,Q2,1*%
%TO.N,COUT*%
X9937500Y-10050000D03*
%TO.P,Q2,2*%
%TO.N,SENSE_FET*%
X9937500Y-11950000D03*
%TO.P,Q2,3*%
%TO.N,FET_DRAIN*%
X8062500Y-11000000D03*
%TD*%
D22*
%TO.P,TP3,1*%
%TO.N,SBWTDIO*%
X15000000Y-37500000D03*
%TD*%
D18*
%TO.P,R3,1*%
%TO.N,VSET*%
X36600000Y-6325000D03*
%TO.P,R3,2*%
%TO.N,GND*%
X36600000Y-4675000D03*
%TD*%
D14*
%TO.P,C9,1*%
%TO.N,VBUS*%
X16225000Y-4300000D03*
%TO.P,C9,2*%
%TO.N,GND*%
X17775000Y-4300000D03*
%TD*%
D22*
%TO.P,TP9,1*%
%TO.N,COUNT_N*%
X18000000Y-31700000D03*
%TD*%
D23*
%TO.P,Q3,1*%
%TO.N,TEMP_OK*%
X21062500Y-19950000D03*
%TO.P,Q3,2*%
%TO.N,GND*%
X21062500Y-18050000D03*
%TO.P,Q3,3*%
%TO.N,CE_N*%
X22937500Y-19000000D03*
%TD*%
D18*
%TO.P,R15,1*%
%TO.N,TEMP_OK*%
X21000000Y-10525000D03*
%TO.P,R15,2*%
%TO.N,GND*%
X21000000Y-8875000D03*
%TD*%
D24*
%TO.P,C5,1*%
%TO.N,SYS*%
X29500000Y-11150000D03*
%TO.P,C5,2*%
%TO.N,GND*%
X29500000Y-9250000D03*
%TD*%
D20*
%TO.P,R4,1*%
%TO.N,ISET*%
X38175000Y-6500000D03*
%TO.P,R4,2*%
%TO.N,GND*%
X39825000Y-6500000D03*
%TD*%
D19*
%TO.P,C12,1*%
%TO.N,RESET_N*%
X34000000Y-34275000D03*
%TO.P,C12,2*%
%TO.N,GND*%
X34000000Y-32725000D03*
%TD*%
D20*
%TO.P,R19,1*%
%TO.N,ISET*%
X38175000Y-12500000D03*
%TO.P,R19,2*%
%TO.N,RC_COMP*%
X39825000Y-12500000D03*
%TD*%
D22*
%TO.P,TP8,1*%
%TO.N,CELL_N_RAW*%
X15000000Y-31700000D03*
%TD*%
D18*
%TO.P,R8,1*%
%TO.N,GND*%
X10000000Y-6125000D03*
%TO.P,R8,2*%
%TO.N,VMINUS*%
X10000000Y-4475000D03*
%TD*%
D22*
%TO.P,TP6,1*%
%TO.N,SYS*%
X9000000Y-31700000D03*
%TD*%
D24*
%TO.P,C3,1*%
%TO.N,CELL_P*%
X38500000Y-3950000D03*
%TO.P,C3,2*%
%TO.N,GND*%
X38500000Y-2050000D03*
%TD*%
D14*
%TO.P,C4,1*%
%TO.N,BAT_SENSE*%
X6225000Y-3000000D03*
%TO.P,C4,2*%
%TO.N,CELL_N_RAW*%
X7775000Y-3000000D03*
%TD*%
D20*
%TO.P,R2,1*%
%TO.N,CC2*%
X30675000Y-20200000D03*
%TO.P,R2,2*%
%TO.N,GND*%
X32325000Y-20200000D03*
%TD*%
%TO.P,R11,1*%
%TO.N,VBUS*%
X10675000Y-18500000D03*
%TO.P,R11,2*%
%TO.N,TEMP_COLD*%
X12325000Y-18500000D03*
%TD*%
D23*
%TO.P,Q1,1*%
%TO.N,DOUT*%
X4062500Y-11950000D03*
%TO.P,Q1,2*%
%TO.N,CELL_N_RAW*%
X4062500Y-10050000D03*
%TO.P,Q1,3*%
%TO.N,FET_DRAIN*%
X5937500Y-11000000D03*
%TD*%
D20*
%TO.P,R6,1*%
%TO.N,VBUS*%
X25675000Y-18500000D03*
%TO.P,R6,2*%
%TO.N,CE_N*%
X27325000Y-18500000D03*
%TD*%
D22*
%TO.P,TP7,1*%
%TO.N,CELL_P*%
X12000000Y-31700000D03*
%TD*%
D24*
%TO.P,C6,1*%
%TO.N,V3*%
X23500000Y-7950000D03*
%TO.P,C6,2*%
%TO.N,GND*%
X23500000Y-6050000D03*
%TD*%
D25*
%TO.P,U2,1*%
%TO.N,SYS*%
X31900000Y-7800000D03*
%TO.P,U2,2*%
%TO.N,CELL_P*%
X31900000Y-7400000D03*
%TO.P,U2,3*%
%TO.N,N/C*%
X31900000Y-7000000D03*
%TO.P,U2,4*%
%TO.N,CE_N*%
X31900000Y-6600000D03*
%TO.P,U2,5*%
%TO.N,GND*%
X31900000Y-6200000D03*
%TO.P,U2,6*%
%TO.N,TS_FIXED*%
X34100000Y-6200000D03*
%TO.P,U2,7*%
%TO.N,VSET*%
X34100000Y-6600000D03*
%TO.P,U2,8*%
%TO.N,ISET*%
X34100000Y-7000000D03*
%TO.P,U2,9*%
%TO.N,N/C*%
X34100000Y-7400000D03*
%TO.P,U2,10*%
%TO.N,VBUS*%
X34100000Y-7800000D03*
D26*
%TO.P,U2,11*%
%TO.N,GND*%
X33000000Y-7000000D03*
%TD*%
D18*
%TO.P,R10,1*%
%TO.N,VBUS*%
X12600000Y-6025000D03*
%TO.P,R10,2*%
%TO.N,TEMP_SENSE*%
X12600000Y-4375000D03*
%TD*%
D22*
%TO.P,TP10,1*%
%TO.N,RESET_N*%
X21000000Y-31700000D03*
%TD*%
%TO.P,TP2,1*%
%TO.N,V3*%
X12000000Y-37500000D03*
%TD*%
D27*
%TO.P,C1,1*%
%TO.N,VBUS*%
X32050000Y-4300000D03*
%TO.P,C1,2*%
%TO.N,GND*%
X33950000Y-4300000D03*
%TD*%
D18*
%TO.P,R18,1*%
%TO.N,V3*%
X36500000Y-34325000D03*
%TO.P,R18,2*%
%TO.N,RESET_N*%
X36500000Y-32675000D03*
%TD*%
D20*
%TO.P,R5,1*%
%TO.N,TS_FIXED*%
X32675000Y-11000000D03*
%TO.P,R5,2*%
%TO.N,GND*%
X34325000Y-11000000D03*
%TD*%
D14*
%TO.P,C13,1*%
%TO.N,RC_COMP*%
X38225000Y-15000000D03*
%TO.P,C13,2*%
%TO.N,GND*%
X39775000Y-15000000D03*
%TD*%
D18*
%TO.P,R14,1*%
%TO.N,VBUS*%
X21000000Y-6125000D03*
%TO.P,R14,2*%
%TO.N,TEMP_OK*%
X21000000Y-4475000D03*
%TD*%
D20*
%TO.P,R12,1*%
%TO.N,TEMP_COLD*%
X13975000Y-18500000D03*
%TO.P,R12,2*%
%TO.N,TEMP_HOT*%
X15625000Y-18500000D03*
%TD*%
D22*
%TO.P,TP5,1*%
%TO.N,VBUS*%
X21000000Y-37500000D03*
%TD*%
D18*
%TO.P,R16,1*%
%TO.N,V3*%
X23500000Y-12325000D03*
%TO.P,R16,2*%
%TO.N,SBWTDIO*%
X23500000Y-10675000D03*
%TD*%
D27*
%TO.P,C2,1*%
%TO.N,SYS*%
X28050000Y-4300000D03*
%TO.P,C2,2*%
%TO.N,GND*%
X29950000Y-4300000D03*
%TD*%
D22*
%TO.P,TP1,1*%
%TO.N,GND*%
X9000000Y-37500000D03*
%TD*%
%TO.P,TP4,1*%
%TO.N,SBWTCK*%
X18000000Y-37500000D03*
%TD*%
D18*
%TO.P,R9,1*%
%TO.N,SENSE_FET*%
X12300000Y-12825000D03*
%TO.P,R9,2*%
%TO.N,GND*%
X12300000Y-11175000D03*
%TD*%
D28*
%TO.N,COM3*%
X16157400Y-13652900D03*
%TO.N,COM2*%
X15864000Y-10360300D03*
%TO.N,COM0*%
X17752600Y-10521600D03*
%TO.N,LCDCAP1*%
X16981300Y-13655300D03*
%TO.N,LCDCAP0*%
X19348800Y-10823300D03*
%TO.N,GND*%
X11642600Y-10428900D03*
X9000000Y-35704300D03*
X4239400Y-15300000D03*
X21750000Y-13671400D03*
%TO.N,V3*%
X19297300Y-33738100D03*
X36500000Y-35191000D03*
X33065600Y-12546700D03*
X22902500Y-13767000D03*
%TO.N,SBWTDIO*%
X15000000Y-36286500D03*
X12668200Y-20326900D03*
X23919000Y-9806100D03*
%TO.N,SBWTCK*%
X18850800Y-36649200D03*
X24559300Y-10736700D03*
%TO.N,RESET_N*%
X21858700Y-32558700D03*
X35704400Y-32072200D03*
X29257200Y-5938600D03*
%TO.N,COUNT_N*%
X26250000Y-9308900D03*
X7195500Y-34513200D03*
X17129500Y-32532000D03*
%TO.N,SEG15*%
X22133500Y-8172200D03*
%TO.N,SEG14*%
X26600500Y-3691200D03*
%TO.N,SEG13*%
X20795500Y-3136200D03*
%TO.N,SEG11*%
X18569700Y-3495600D03*
%TO.N,SEG10*%
X20972800Y-7362300D03*
%TO.N,SEG9*%
X22990200Y-9140500D03*
%TO.N,SEG8*%
X17057800Y-7214600D03*
%TO.N,SEG7*%
X15480000Y-3528400D03*
%TO.N,SEG6*%
X14480600Y-4604000D03*
%TO.N,SEG5*%
X16903700Y-6462800D03*
%TO.N,SEG4*%
X17223000Y-8686000D03*
%TO.N,SEG3*%
X16388000Y-9136800D03*
%TO.N,SEG2*%
X15729200Y-8685900D03*
%TO.N,VBUS*%
X33550300Y-3119900D03*
X34935300Y-7808800D03*
X39353400Y-19148000D03*
X21985700Y-6861200D03*
X10675000Y-19440800D03*
X21000000Y-36291400D03*
X24974400Y-17802600D03*
X13533100Y-5348700D03*
%TO.N,CC1*%
X36248700Y-14688200D03*
%TO.N,CC2*%
X38437500Y-18996400D03*
X36255600Y-11550000D03*
%TO.N,CELL_P*%
X38848700Y-4918300D03*
X3285500Y-6839500D03*
X1839000Y-17825800D03*
X30729000Y-7325400D03*
X12855400Y-30844600D03*
%TO.N,CELL_N_RAW*%
X4176900Y-17774200D03*
X15000000Y-27660800D03*
%TO.N,TEMP_SENSE*%
X13603100Y-7655500D03*
X11894500Y-5080500D03*
X5753100Y-15825800D03*
%TO.N,SYS*%
X26993000Y-6836500D03*
X31711000Y-8986700D03*
X9000000Y-24574900D03*
%TO.N,BAT_SENSE*%
X10948100Y-4246300D03*
X6120100Y-4377700D03*
%TO.N,TEMP_OK*%
X21062500Y-19182600D03*
X11063900Y-12480500D03*
%TO.N,TEMP_COLD*%
X13620000Y-6849300D03*
X11609700Y-17784700D03*
%TO.N,TEMP_HOT*%
X22172700Y-11233200D03*
X15625000Y-17558800D03*
X17809600Y-7059800D03*
%TO.N,CE_N*%
X31068000Y-6600000D03*
X27325000Y-17569300D03*
%TO.N,TS_FIXED*%
X32677400Y-8362800D03*
X34656300Y-5643700D03*
%TD*%
%TO.N,LCDCAP1*%
D29*
X14725000Y-11300000D02*
X14725000Y-11399000D01*
X14725000Y-11399000D02*
X16981300Y-13655300D01*
%TO.N,LCDCAP0*%
X18872100Y-11300000D02*
X19348800Y-10823300D01*
X16275000Y-11300000D02*
X18872100Y-11300000D01*
%TO.N,GND*%
X26715000Y-25460000D02*
X30221900Y-21953100D01*
X24896700Y-3421700D02*
X25775000Y-4300000D01*
X22162100Y-7387900D02*
X22205500Y-7387900D01*
X29500000Y-8044600D02*
X28461200Y-7005800D01*
D30*
X22597200Y-3598900D02*
X23500000Y-3598900D01*
D29*
X37527400Y-4675000D02*
X36600000Y-4675000D01*
X34518300Y-17620000D02*
X34518300Y-19110900D01*
X13689500Y-6025000D02*
X14887500Y-6025000D01*
X32725100Y-20904100D02*
X31933300Y-20904100D01*
X28461200Y-7005800D02*
X28191100Y-7275900D01*
X21750000Y-10911100D02*
X21646000Y-11015100D01*
X30047500Y-19747900D02*
X30047500Y-21778700D01*
X34325000Y-9893300D02*
X34325000Y-11000000D01*
X28200000Y-6050000D02*
X28137500Y-6050000D01*
X29950000Y-4300000D02*
X28200000Y-6050000D01*
X28000000Y-18914100D02*
X28833800Y-19747900D01*
X31433700Y-19308700D02*
X31133700Y-19308700D01*
X9000000Y-37500000D02*
X9000000Y-35704300D01*
X31052100Y-19390300D02*
X31133700Y-19308700D01*
X33614600Y-24246700D02*
X34892700Y-22968600D01*
X24812500Y-8018500D02*
X24812500Y-6733300D01*
D30*
X24150700Y-3598900D02*
X24327900Y-3421700D01*
X31974600Y-6274600D02*
X31900000Y-6200000D01*
D29*
X31498100Y-19943500D02*
X31052100Y-19497500D01*
X38848300Y-7376900D02*
X39538800Y-6686400D01*
X34892700Y-21658500D02*
X35851200Y-20700000D01*
X31133700Y-19308700D02*
X30325000Y-18500000D01*
X21750000Y-8768700D02*
X21750000Y-10911100D01*
X35795000Y-8980000D02*
X34518300Y-8980000D01*
X30297900Y-19497500D02*
X30047500Y-19747900D01*
D30*
X33499600Y-8457500D02*
X33000000Y-7957900D01*
D29*
X31933300Y-20904100D02*
X31498100Y-20468900D01*
X9000000Y-34725000D02*
X8000000Y-33725000D01*
D30*
X24974200Y-8180200D02*
X24812500Y-8018500D01*
D29*
X32515500Y-24246700D02*
X33614600Y-24246700D01*
X27399400Y-7423800D02*
X27246500Y-7576700D01*
D30*
X33000000Y-7000000D02*
X33000000Y-7957900D01*
D29*
X33000000Y-6274600D02*
X33000000Y-7000000D01*
X21428200Y-8121800D02*
X22162100Y-7387900D01*
X34000000Y-32725000D02*
X34000000Y-24632100D01*
X22531600Y-3664500D02*
X22597200Y-3598900D01*
D30*
X23500000Y-3598900D02*
X24150700Y-3598900D01*
D29*
X36600000Y-4675000D02*
X36600000Y-3950000D01*
X24970000Y-5105000D02*
X25775000Y-4300000D01*
X21062500Y-18050000D02*
X22071400Y-17041100D01*
D30*
X24974200Y-8330400D02*
X24974200Y-8180200D01*
D29*
X34518300Y-9700000D02*
X34325000Y-9893300D01*
X16050000Y-6025000D02*
X14887500Y-6025000D01*
X18510200Y-4300000D02*
X19145700Y-3664500D01*
X13000700Y-6713800D02*
X13689500Y-6025000D01*
X22071400Y-17041100D02*
X27621000Y-17041100D01*
X24812500Y-6733300D02*
X24970000Y-6575800D01*
X21428200Y-8446900D02*
X21750000Y-8768700D01*
X31052100Y-19497500D02*
X31052100Y-19390300D01*
X34892700Y-22968600D02*
X34892700Y-21658500D01*
X21428200Y-8446900D02*
X21428200Y-8121800D01*
X28000000Y-17420100D02*
X28000000Y-18914100D01*
D30*
X28191100Y-7275900D02*
X28043200Y-7423800D01*
D29*
X17775000Y-4300000D02*
X16050000Y-6025000D01*
X31900000Y-6200000D02*
X30000000Y-4300000D01*
X28025000Y-10725000D02*
X29500000Y-9250000D01*
X38848300Y-17620000D02*
X38848300Y-15926700D01*
X27246500Y-7802700D02*
X26568800Y-8480400D01*
X32325000Y-20200000D02*
X31433700Y-19308700D01*
X10000000Y-6125000D02*
X10588800Y-6713800D01*
X24327900Y-3421700D02*
X24896700Y-3421700D01*
D30*
X32978800Y-6274600D02*
X31974600Y-6274600D01*
X25438300Y-6575800D02*
X25862500Y-7000000D01*
D29*
X39638600Y-6686400D02*
X39825000Y-6500000D01*
X23500000Y-6093400D02*
X23500000Y-6050000D01*
X34518300Y-19110900D02*
X32725100Y-20904100D01*
X35795000Y-17620000D02*
X34518300Y-17620000D01*
X35851200Y-20700000D02*
X36162500Y-20700000D01*
D30*
X24970000Y-6575800D02*
X25438300Y-6575800D01*
D29*
X18925000Y-18500000D02*
X20612500Y-18500000D01*
X22205500Y-7387900D02*
X23500000Y-6093400D01*
X39538800Y-6686400D02*
X37527400Y-4675000D01*
X38848300Y-15926700D02*
X39775000Y-15000000D01*
X12300000Y-11086300D02*
X11642600Y-10428900D01*
X23500000Y-6050000D02*
X23500000Y-3598900D01*
X9000000Y-35704300D02*
X9000000Y-34725000D01*
X27246500Y-7576700D02*
X27246500Y-7802700D01*
X20612500Y-18500000D02*
X21062500Y-18050000D01*
X26568800Y-8480400D02*
X25124200Y-8480400D01*
X34000000Y-24632100D02*
X33614600Y-24246700D01*
X33000000Y-6274600D02*
X32978800Y-6274600D01*
X19145700Y-3664500D02*
X22531600Y-3664500D01*
X10588800Y-6713800D02*
X11642600Y-6713800D01*
X25500000Y-10725000D02*
X28025000Y-10725000D01*
X17775000Y-4300000D02*
X18510200Y-4300000D01*
X33950000Y-4300000D02*
X33000000Y-5250000D01*
X12300000Y-11175000D02*
X12300000Y-11086300D01*
X30047500Y-21778700D02*
X30221900Y-21953100D01*
X28833800Y-19747900D02*
X30047500Y-19747900D01*
D30*
X33499600Y-9893300D02*
X33499600Y-8457500D01*
D29*
X24970000Y-6575800D02*
X24970000Y-5105000D01*
X27621000Y-17041100D02*
X28000000Y-17420100D01*
X11642600Y-6713800D02*
X13000700Y-6713800D01*
X28200000Y-6050000D02*
X28461200Y-6311200D01*
X31498100Y-20468900D02*
X31498100Y-19943500D01*
X39975000Y-8980000D02*
X38848300Y-8980000D01*
X11642600Y-10428900D02*
X11642600Y-6713800D01*
D30*
X28043200Y-7423800D02*
X27399400Y-7423800D01*
D29*
X21646000Y-11015100D02*
X21646000Y-13567400D01*
X38848300Y-8980000D02*
X38848300Y-7376900D01*
X21000000Y-8875000D02*
X21428100Y-8446900D01*
X34518300Y-8980000D02*
X34518300Y-9700000D01*
X36600000Y-3950000D02*
X38500000Y-2050000D01*
X33000000Y-5250000D02*
X33000000Y-6274600D01*
X34325000Y-9893300D02*
X33499600Y-9893300D01*
X30221900Y-21953100D02*
X32515500Y-24246700D01*
X21428100Y-8446900D02*
X21428200Y-8446900D01*
X29500000Y-9250000D02*
X29500000Y-8044600D01*
X28461200Y-6311200D02*
X28461200Y-7005800D01*
X30000000Y-4300000D02*
X29950000Y-4300000D01*
X39538800Y-6686400D02*
X39638600Y-6686400D01*
X25124200Y-8480400D02*
X24974200Y-8330400D01*
X31052100Y-19497500D02*
X30297900Y-19497500D01*
X21646000Y-13567400D02*
X21750000Y-13671400D01*
X39975000Y-17620000D02*
X38848300Y-17620000D01*
%TO.N,V3*%
D30*
X8400700Y-33048800D02*
X7982000Y-32630100D01*
D29*
X23500000Y-12325000D02*
X23500000Y-13169500D01*
X22756900Y-10118700D02*
X24030400Y-8845200D01*
X36500000Y-35191000D02*
X36500000Y-34325000D01*
X24225000Y-4300000D02*
X24489300Y-4564300D01*
X22756900Y-11581900D02*
X22756900Y-10118700D01*
X12000000Y-36498000D02*
X14759800Y-33738200D01*
X24489300Y-8480400D02*
X24791000Y-8782100D01*
X19297300Y-33738200D02*
X19297300Y-33738100D01*
X12000000Y-36498000D02*
X8550900Y-33048900D01*
X24030400Y-8480400D02*
X24489300Y-8480400D01*
X24489300Y-4564300D02*
X24489300Y-8480400D01*
D30*
X6050800Y-32049000D02*
X5900600Y-31898800D01*
D29*
X7982000Y-32630100D02*
X6631900Y-32630100D01*
X23500000Y-7950000D02*
X24030400Y-8480400D01*
X23500000Y-13169500D02*
X22902500Y-13767000D01*
X24791000Y-8782100D02*
X27305400Y-8782100D01*
X5120700Y-31898800D02*
X4796000Y-32223500D01*
X4796000Y-32223500D02*
X4796000Y-33621000D01*
X6631900Y-32630100D02*
X6050800Y-32049000D01*
X4796000Y-33621000D02*
X5500000Y-34325000D01*
X12000000Y-37500000D02*
X12000000Y-36498000D01*
X27305400Y-8782100D02*
X28137500Y-7950000D01*
X24030400Y-8845200D02*
X24030400Y-8480400D01*
D30*
X8550900Y-33048900D02*
X8400700Y-33048900D01*
D29*
X23500000Y-12325000D02*
X22756900Y-11581900D01*
D30*
X8400700Y-33048900D02*
X8400700Y-33048800D01*
D29*
X5900600Y-31898800D02*
X5120700Y-31898800D01*
X14759800Y-33738200D02*
X19297300Y-33738200D01*
%TO.N,SBWTDIO*%
X25100000Y-12275000D02*
X25500000Y-12275000D01*
X23500000Y-10675000D02*
X23500000Y-10225100D01*
X23500000Y-10225100D02*
X23919000Y-9806100D01*
X15000000Y-36286500D02*
X15000000Y-37500000D01*
X23500000Y-10675000D02*
X25100000Y-12275000D01*
%TO.N,SBWTCK*%
X18850800Y-36649200D02*
X18000000Y-37500000D01*
%TO.N,RESET_N*%
X36307200Y-32675000D02*
X36500000Y-32675000D01*
X35953600Y-32321400D02*
X36307200Y-32675000D01*
X35704400Y-32072200D02*
X35953600Y-32321400D01*
X21858700Y-32558700D02*
X21000000Y-31700000D01*
X34000000Y-34275000D02*
X35953600Y-32321400D01*
%TO.N,COUNT_N*%
X7195500Y-34370500D02*
X7195500Y-34513200D01*
X5500000Y-32675000D02*
X7195500Y-34370500D01*
X18000000Y-31700000D02*
X17168000Y-32532000D01*
X7238200Y-34513200D02*
X8000000Y-35275000D01*
X7195500Y-34513200D02*
X7238200Y-34513200D01*
X17168000Y-32532000D02*
X17129500Y-32532000D01*
%TO.N,VBUS*%
X21000000Y-6125000D02*
X21000000Y-6590300D01*
X25675000Y-18500000D02*
X24977600Y-17802600D01*
X34108800Y-7808800D02*
X34100000Y-7800000D01*
X12600000Y-6025000D02*
X13276300Y-5348700D01*
X21736200Y-6861200D02*
X21985700Y-6861200D01*
X34935300Y-7808800D02*
X34108800Y-7808800D01*
X13533100Y-5348700D02*
X14576200Y-5348700D01*
X20233400Y-7356900D02*
X20233400Y-7538400D01*
X21000000Y-6125000D02*
X21736200Y-6861200D01*
X10675000Y-19440800D02*
X10675000Y-18500000D01*
D30*
X15176300Y-5348700D02*
X14576200Y-5348700D01*
X16225000Y-4300000D02*
X15176300Y-5348700D01*
D29*
X13276300Y-5348700D02*
X13533100Y-5348700D01*
X33550300Y-3119900D02*
X32370200Y-4300000D01*
X38711100Y-20700000D02*
X39353400Y-20057700D01*
X20233400Y-7538400D02*
X19796800Y-7975000D01*
X21000000Y-36291400D02*
X21000000Y-37500000D01*
X39353400Y-20057700D02*
X39353400Y-19148000D01*
X19796800Y-7975000D02*
X19112500Y-7975000D01*
X32370200Y-4300000D02*
X32050000Y-4300000D01*
X38437500Y-20700000D02*
X38711100Y-20700000D01*
X21000000Y-6590300D02*
X20233400Y-7356900D01*
X24977600Y-17802600D02*
X24974400Y-17802600D01*
%TO.N,CC1*%
X38212700Y-16652200D02*
X38212700Y-17476900D01*
X29435400Y-17739600D02*
X33197300Y-17739600D01*
X33197300Y-17739600D02*
X36248700Y-14688200D01*
X39113600Y-18377800D02*
X39379600Y-18377800D01*
X39901600Y-20498900D02*
X38750500Y-21650000D01*
X38437500Y-21650000D02*
X36162500Y-21650000D01*
X36248700Y-14688200D02*
X38212700Y-16652200D01*
X28675000Y-18500000D02*
X29435400Y-17739600D01*
X39379600Y-18377800D02*
X39901600Y-18899800D01*
X39901600Y-18899800D02*
X39901600Y-20498900D01*
X38212700Y-17476900D02*
X39113600Y-18377800D01*
X38750500Y-21650000D02*
X38437500Y-21650000D01*
%TO.N,CC2*%
X38437500Y-19750000D02*
X36162500Y-19750000D01*
X32006700Y-21531700D02*
X30675000Y-20200000D01*
X33675300Y-21531700D02*
X32006700Y-21531700D01*
X38437500Y-18996400D02*
X38437500Y-19750000D01*
X36162500Y-19750000D02*
X34306000Y-19750000D01*
D30*
X34306000Y-20901000D02*
X33675300Y-21531700D01*
X34306000Y-19750000D02*
X34306000Y-20901000D01*
%TO.N,CELL_P*%
D29*
X38848700Y-4298700D02*
X38848700Y-4918300D01*
D30*
X31825400Y-7325400D02*
X31900000Y-7400000D01*
D29*
X3285500Y-6839500D02*
X4000000Y-6125000D01*
D30*
X30729000Y-7325400D02*
X31825400Y-7325400D01*
D29*
X38500000Y-3950000D02*
X38848700Y-4298700D01*
X12000000Y-31700000D02*
X12855400Y-30844600D01*
%TO.N,CELL_N_RAW*%
X4779400Y-5987100D02*
X5647300Y-5119200D01*
X7575000Y-3200000D02*
X7575000Y-5500000D01*
X3096200Y-16693500D02*
X4176900Y-17774200D01*
X7194200Y-5119200D02*
X7575000Y-5500000D01*
X4062500Y-10050000D02*
X3096200Y-11016300D01*
X3096200Y-11016300D02*
X3096200Y-16693500D01*
X15000000Y-31700000D02*
X15000000Y-27660800D01*
X5647300Y-5119200D02*
X7194200Y-5119200D01*
X4779400Y-9333100D02*
X4779400Y-5987100D01*
X7775000Y-3000000D02*
X7575000Y-3200000D01*
X4062500Y-10050000D02*
X4779400Y-9333100D01*
%TO.N,TEMP_SENSE*%
X16217500Y-6403900D02*
X16745100Y-5876300D01*
X14887500Y-7325000D02*
X15573000Y-7325000D01*
X13933600Y-7325000D02*
X14887500Y-7325000D01*
X15573000Y-7325000D02*
X16217500Y-6680500D01*
X11894500Y-5080500D02*
X12600000Y-4375000D01*
X16217500Y-6680500D02*
X16217500Y-6403900D01*
X18963800Y-5876300D02*
X19112500Y-6025000D01*
X16745100Y-5876300D02*
X18963800Y-5876300D01*
X13603100Y-7655500D02*
X13933600Y-7325000D01*
%TO.N,SYS*%
X9000000Y-31700000D02*
X9000000Y-24574900D01*
X28050000Y-4300000D02*
X26769000Y-5581000D01*
X31663300Y-8986700D02*
X29500000Y-11150000D01*
X31900000Y-7800000D02*
X31711000Y-7989000D01*
X26165900Y-7950000D02*
X25862500Y-7950000D01*
X26769000Y-6050000D02*
X25862500Y-6050000D01*
X31711000Y-8986700D02*
X31663300Y-8986700D01*
X26993000Y-6836500D02*
X26769000Y-6836500D01*
X31711000Y-7989000D02*
X31711000Y-8986700D01*
X26769000Y-5581000D02*
X26769000Y-6050000D01*
X26769000Y-6050000D02*
X26769000Y-6836500D01*
X26769000Y-7346900D02*
X26165900Y-7950000D01*
X26769000Y-6836500D02*
X26769000Y-7346900D01*
%TO.N,COUT*%
X5816500Y-6235900D02*
X6052400Y-6000000D01*
X9937500Y-10050000D02*
X9176300Y-10050000D01*
X9176300Y-10050000D02*
X5816500Y-6690200D01*
X5816500Y-6690200D02*
X5816500Y-6235900D01*
X6052400Y-6000000D02*
X6425000Y-6000000D01*
%TO.N,DOUT*%
D30*
X4975400Y-10549600D02*
X4975400Y-10406100D01*
X4975400Y-10406100D02*
X5739200Y-9642300D01*
D29*
X5453000Y-9356100D02*
X5739200Y-9642300D01*
X4975400Y-10549600D02*
X4062500Y-11462500D01*
D30*
X6290500Y-5634500D02*
X6425000Y-5500000D01*
D29*
X4062500Y-11462500D02*
X4062500Y-11950000D01*
D30*
X5595400Y-5634500D02*
X6290500Y-5634500D01*
D29*
X5595400Y-5634500D02*
X5453000Y-5776900D01*
X5453000Y-5776900D02*
X5453000Y-9356100D01*
%TO.N,BAT_SENSE*%
D30*
X10400600Y-3849000D02*
X10080700Y-3529100D01*
D29*
X6120100Y-4377700D02*
X6120100Y-3104900D01*
X10550800Y-3849000D02*
X10948100Y-4246300D01*
D30*
X8242900Y-5865500D02*
X7709500Y-5865500D01*
D29*
X10080700Y-3529100D02*
X9858700Y-3529100D01*
X9858700Y-3529100D02*
X8242900Y-5144900D01*
D30*
X10550800Y-3849000D02*
X10400600Y-3849000D01*
D29*
X8242900Y-5144900D02*
X8242900Y-5865500D01*
X6022800Y-4475000D02*
X6120100Y-4377700D01*
X6120100Y-3104900D02*
X6225000Y-3000000D01*
D30*
X7709500Y-5865500D02*
X7575000Y-6000000D01*
D29*
X4000000Y-4475000D02*
X6022800Y-4475000D01*
%TO.N,VMINUS*%
D30*
X8694700Y-6365500D02*
X7709500Y-6365500D01*
D29*
X8694700Y-5780300D02*
X8694700Y-6365500D01*
X10000000Y-4475000D02*
X8694700Y-5780300D01*
D30*
X7709500Y-6365500D02*
X7575000Y-6500000D01*
%TO.N,TEMP_OK*%
D29*
X20287100Y-10525000D02*
X21000000Y-10525000D01*
X18449100Y-7325000D02*
X17854500Y-7919600D01*
X11496100Y-12048300D02*
X11063900Y-12480500D01*
X14887500Y-7975000D02*
X14887500Y-9725200D01*
X20215600Y-5259400D02*
X20215600Y-6910600D01*
X21000000Y-4475000D02*
X20215600Y-5259400D01*
X20215600Y-6910600D02*
X19801200Y-7325000D01*
X19801200Y-7325000D02*
X19112500Y-7325000D01*
X19112500Y-7325000D02*
X18449100Y-7325000D01*
X21062500Y-19950000D02*
X21062500Y-19182600D01*
X14887500Y-9725200D02*
X12564400Y-12048300D01*
X17854500Y-7919600D02*
X17854500Y-7975000D01*
X17854500Y-8092400D02*
X20287100Y-10525000D01*
X17854500Y-7975000D02*
X14887500Y-7975000D01*
X17854500Y-7975000D02*
X17854500Y-8092400D01*
X12564400Y-12048300D02*
X11496100Y-12048300D01*
%TO.N,TEMP_COLD*%
X12325000Y-18500000D02*
X13975000Y-18500000D01*
D30*
X14713200Y-6849300D02*
X14887500Y-6675000D01*
D29*
X12325000Y-18500000D02*
X11609700Y-17784700D01*
D30*
X13620000Y-6849300D02*
X14713200Y-6849300D01*
%TO.N,TEMP_HOT*%
D29*
X15625000Y-18500000D02*
X17275000Y-18500000D01*
X19112500Y-6675000D02*
X18194400Y-6675000D01*
X15625000Y-18500000D02*
X15625000Y-17558800D01*
X18194400Y-6675000D02*
X17809600Y-7059800D01*
%TO.N,SENSE_FET*%
X9937500Y-12164300D02*
X10786100Y-13012900D01*
X10786100Y-13012900D02*
X12112100Y-13012900D01*
X12112100Y-13012900D02*
X12300000Y-12825000D01*
X9937500Y-11950000D02*
X9937500Y-12164300D01*
%TO.N,FET_DRAIN*%
X8062500Y-11000000D02*
X5937500Y-11000000D01*
%TO.N,VSET*%
X34796400Y-6325000D02*
X34596000Y-6525400D01*
X36600000Y-6325000D02*
X34796400Y-6325000D01*
D30*
X34174600Y-6525400D02*
X34100000Y-6600000D01*
X34596000Y-6525400D02*
X34174600Y-6525400D01*
%TO.N,CE_N*%
D29*
X23186600Y-19249100D02*
X22937500Y-19000000D01*
X27325000Y-18500000D02*
X26575900Y-19249100D01*
X26575900Y-19249100D02*
X23186600Y-19249100D01*
X27325000Y-18500000D02*
X27325000Y-17569300D01*
X31900000Y-6600000D02*
X31068000Y-6600000D01*
%TO.N,ISET*%
X38169300Y-12494300D02*
X38175000Y-12500000D01*
D30*
X38169300Y-7000000D02*
X34100000Y-7000000D01*
D29*
X38169300Y-7000000D02*
X38169300Y-12494300D01*
X38175000Y-6500000D02*
X38169300Y-6505700D01*
X38169300Y-6505700D02*
X38169300Y-7000000D01*
%TO.N,RC_COMP*%
X39825000Y-12500000D02*
X38225000Y-14100000D01*
X38225000Y-14100000D02*
X38225000Y-15000000D01*
%TO.N,TS_FIXED*%
X32675000Y-11000000D02*
X32675000Y-8365200D01*
X34656300Y-5643700D02*
X34100000Y-6200000D01*
X32675000Y-8365200D02*
X32677400Y-8362800D01*
%TD*%
M02*
