M48
; DRILL file KiCad 10.0.6 date 2026-09-15T01:53:16
; FORMAT={-:-/ absolute / metric / decimal}
; #@! TF.CreationDate,2026-09-15T01:53:16+09:00
; #@! TF.GenerationSoftware,Kicad,Pcbnew,10.0.6
; #@! TF.FileFunction,Plated,1,4,PTH
FMAT,2
METRIC
; #@! TA.AperFunction,Plated,PTH,ViaDrill
T1C0.300
; #@! TA.AperFunction,Plated,PTH,ComponentDrill
T2C0.600
; #@! TA.AperFunction,Plated,PTH,ComponentDrill
T3C1.500
; #@! TA.AperFunction,Plated,PTH,ComponentDrill
T4C1.700
%
G90
G05
T1
X1.839Y-17.826
X3.285Y-6.839
X4.177Y-17.774
X4.239Y-15.3
X5.753Y-15.826
X6.12Y-4.378
X7.196Y-34.513
X9.0Y-24.575
X9.0Y-35.704
X10.675Y-19.441
X10.948Y-4.246
X11.064Y-12.48
X11.61Y-17.785
X11.643Y-10.429
X11.894Y-5.08
X12.668Y-20.327
X12.855Y-30.845
X13.533Y-5.349
X13.603Y-7.655
X13.62Y-6.849
X14.481Y-4.604
X15.0Y-27.661
X15.0Y-36.286
X15.48Y-3.528
X15.625Y-17.559
X15.729Y-8.686
X15.864Y-10.36
X16.157Y-13.653
X16.388Y-9.137
X16.904Y-6.463
X16.981Y-13.655
X17.058Y-7.215
X17.13Y-32.532
X17.223Y-8.686
X17.753Y-10.522
X17.81Y-7.06
X18.57Y-3.496
X18.851Y-36.649
X19.297Y-33.738
X19.349Y-10.823
X20.796Y-3.136
X20.973Y-7.362
X21.0Y-36.291
X21.062Y-19.183
X21.75Y-13.671
X21.859Y-32.559
X21.986Y-6.861
X22.133Y-8.172
X22.173Y-11.233
X22.902Y-13.767
X22.99Y-9.14
X23.919Y-9.806
X24.559Y-10.737
X24.974Y-17.803
X26.25Y-9.309
X26.601Y-3.691
X26.993Y-6.837
X27.325Y-17.569
X29.257Y-5.939
X30.729Y-7.325
X31.068Y-6.6
X31.711Y-8.987
X32.677Y-8.363
X33.066Y-12.547
X33.55Y-3.12
X34.656Y-5.644
X34.935Y-7.809
X35.704Y-32.072
X36.249Y-14.688
X36.256Y-11.55
X36.5Y-35.191
X38.438Y-18.996
X38.849Y-4.918
X39.353Y-19.148
T3
X7.665Y-25.46
X14.015Y-22.92
X26.715Y-25.46
X33.065Y-22.92
T4
X9.57Y-2.0
X9.57Y-15.5
X12.11Y-2.0
X12.11Y-15.5
X14.65Y-2.0
X14.65Y-15.5
X17.19Y-2.0
X17.19Y-15.5
X19.73Y-2.0
X19.73Y-15.5
X22.27Y-2.0
X22.27Y-15.5
X24.81Y-2.0
X24.81Y-15.5
X27.35Y-2.0
X27.35Y-15.5
X29.89Y-2.0
X29.89Y-15.5
X32.43Y-2.0
X32.43Y-15.5
T2
G00X35.245Y-8.98
M15
G01X36.345Y-8.98
M16
G05
G00X35.245Y-17.62
M15
G01X36.345Y-17.62
M16
G05
G00X39.575Y-8.98
M15
G01X40.375Y-8.98
M16
G05
G00X39.575Y-17.62
M15
G01X40.375Y-17.62
M16
G05
M30
