%TF.GenerationSoftware,KiCad,Pcbnew,10.0.6*%
%TF.CreationDate,2026-09-15T01:53:15+09:00*%
%TF.ProjectId,click-counter-Q1,636c6963-6b2d-4636-9f75-6e7465722d51,rev?*%
%TF.SameCoordinates,Original*%
%TF.FileFunction,Paste,Bot*%
%TF.FilePolarity,Positive*%
%FSLAX46Y46*%
G04 Gerber Fmt 4.6, Leading zero omitted, Abs format (unit mm)*
G04 Created by KiCad (PCBNEW 10.0.6) date 2026-09-15 01:53:15*
%MOMM*%
%LPD*%
G01*
G04 APERTURE LIST*
G04 Aperture macros list*
%AMRoundRect*
0 Rectangle with rounded corners*
0 $1 Rounding radius*
0 $2 $3 $4 $5 $6 $7 $8 $9 X,Y pos of 4 corners*
0 Add a 4 corners polygon primitive as box body*
4,1,4,$2,$3,$4,$5,$6,$7,$8,$9,$2,$3,0*
0 Add four circle primitives for the rounded corners*
1,1,$1+$1,$2,$3*
1,1,$1+$1,$4,$5*
1,1,$1+$1,$6,$7*
1,1,$1+$1,$8,$9*
0 Add four rect primitives between the rounded corners*
20,1,$1+$1,$2,$3,$4,$5,0*
20,1,$1+$1,$4,$5,$6,$7,0*
20,1,$1+$1,$6,$7,$8,$9,0*
20,1,$1+$1,$8,$9,$2,$3,0*%
G04 Aperture macros list end*
%ADD10RoundRect,0.150000X-0.512500X-0.150000X0.512500X-0.150000X0.512500X0.150000X-0.512500X0.150000X0*%
%ADD11RoundRect,0.225000X-0.225000X-0.250000X0.225000X-0.250000X0.225000X0.250000X-0.225000X0.250000X0*%
%ADD12RoundRect,0.070000X0.355000X-0.070000X0.355000X0.070000X-0.355000X0.070000X-0.355000X-0.070000X0*%
%ADD13RoundRect,0.070000X0.305000X-0.070000X0.305000X0.070000X-0.305000X0.070000X-0.305000X-0.070000X0*%
%ADD14RoundRect,0.125000X-0.687500X-0.125000X0.687500X-0.125000X0.687500X0.125000X-0.687500X0.125000X0*%
%ADD15RoundRect,0.200000X0.275000X-0.200000X0.275000X0.200000X-0.275000X0.200000X-0.275000X-0.200000X0*%
%ADD16RoundRect,0.225000X0.250000X-0.225000X0.250000X0.225000X-0.250000X0.225000X-0.250000X-0.225000X0*%
%ADD17RoundRect,0.200000X-0.200000X-0.275000X0.200000X-0.275000X0.200000X0.275000X-0.200000X0.275000X0*%
%ADD18RoundRect,0.150000X0.587500X0.150000X-0.587500X0.150000X-0.587500X-0.150000X0.587500X-0.150000X0*%
%ADD19RoundRect,0.150000X-0.587500X-0.150000X0.587500X-0.150000X0.587500X0.150000X-0.587500X0.150000X0*%
%ADD20RoundRect,0.250000X0.475000X-0.250000X0.475000X0.250000X-0.475000X0.250000X-0.475000X-0.250000X0*%
%ADD21RoundRect,0.210000X-0.210000X-0.495000X0.210000X-0.495000X0.210000X0.495000X-0.210000X0.495000X0*%
%ADD22RoundRect,0.050000X-0.325000X-0.050000X0.325000X-0.050000X0.325000X0.050000X-0.325000X0.050000X0*%
%ADD23RoundRect,0.250000X-0.250000X-0.475000X0.250000X-0.475000X0.250000X0.475000X-0.250000X0.475000X0*%
G04 APERTURE END LIST*
D10*
%TO.C,U3*%
X25862500Y-7950000D03*
X25862500Y-7000000D03*
X25862500Y-6050000D03*
X28137500Y-6050000D03*
X28137500Y-7950000D03*
%TD*%
D11*
%TO.C,C8*%
X14725000Y-11300000D03*
X16275000Y-11300000D03*
%TD*%
D12*
%TO.C,U4*%
X6475000Y-6500000D03*
D13*
X6425000Y-6000000D03*
X6425000Y-5500000D03*
X7575000Y-5500000D03*
X7575000Y-6000000D03*
X7575000Y-6500000D03*
%TD*%
D14*
%TO.C,U5*%
X14887500Y-7975000D03*
X14887500Y-7325000D03*
X14887500Y-6675000D03*
X14887500Y-6025000D03*
X19112500Y-6025000D03*
X19112500Y-6675000D03*
X19112500Y-7325000D03*
X19112500Y-7975000D03*
%TD*%
D15*
%TO.C,R7*%
X4000000Y-6125000D03*
X4000000Y-4475000D03*
%TD*%
D11*
%TO.C,C7*%
X24225000Y-4300000D03*
X25775000Y-4300000D03*
%TD*%
D16*
%TO.C,C11*%
X8000000Y-35275000D03*
X8000000Y-33725000D03*
%TD*%
D15*
%TO.C,R17*%
X5500000Y-34325000D03*
X5500000Y-32675000D03*
%TD*%
D16*
%TO.C,C10*%
X25500000Y-12275000D03*
X25500000Y-10725000D03*
%TD*%
D17*
%TO.C,R13*%
X17275000Y-18500000D03*
X18925000Y-18500000D03*
%TD*%
%TO.C,R1*%
X28675000Y-18500000D03*
X30325000Y-18500000D03*
%TD*%
D10*
%TO.C,D1*%
X36162500Y-21650000D03*
X36162500Y-20700000D03*
X36162500Y-19750000D03*
X38437500Y-19750000D03*
X38437500Y-20700000D03*
X38437500Y-21650000D03*
%TD*%
D18*
%TO.C,Q2*%
X9937500Y-10050000D03*
X9937500Y-11950000D03*
X8062500Y-11000000D03*
%TD*%
D15*
%TO.C,R3*%
X36600000Y-6325000D03*
X36600000Y-4675000D03*
%TD*%
D11*
%TO.C,C9*%
X16225000Y-4300000D03*
X17775000Y-4300000D03*
%TD*%
D19*
%TO.C,Q3*%
X21062500Y-19950000D03*
X21062500Y-18050000D03*
X22937500Y-19000000D03*
%TD*%
D15*
%TO.C,R15*%
X21000000Y-10525000D03*
X21000000Y-8875000D03*
%TD*%
D20*
%TO.C,C5*%
X29500000Y-11150000D03*
X29500000Y-9250000D03*
%TD*%
D17*
%TO.C,R4*%
X38175000Y-6500000D03*
X39825000Y-6500000D03*
%TD*%
D16*
%TO.C,C12*%
X34000000Y-34275000D03*
X34000000Y-32725000D03*
%TD*%
D17*
%TO.C,R19*%
X38175000Y-12500000D03*
X39825000Y-12500000D03*
%TD*%
D15*
%TO.C,R8*%
X10000000Y-6125000D03*
X10000000Y-4475000D03*
%TD*%
D20*
%TO.C,C3*%
X38500000Y-3950000D03*
X38500000Y-2050000D03*
%TD*%
D11*
%TO.C,C4*%
X6225000Y-3000000D03*
X7775000Y-3000000D03*
%TD*%
D17*
%TO.C,R2*%
X30675000Y-20200000D03*
X32325000Y-20200000D03*
%TD*%
%TO.C,R11*%
X10675000Y-18500000D03*
X12325000Y-18500000D03*
%TD*%
D19*
%TO.C,Q1*%
X4062500Y-11950000D03*
X4062500Y-10050000D03*
X5937500Y-11000000D03*
%TD*%
D17*
%TO.C,R6*%
X25675000Y-18500000D03*
X27325000Y-18500000D03*
%TD*%
D20*
%TO.C,C6*%
X23500000Y-7950000D03*
X23500000Y-6050000D03*
%TD*%
D21*
%TO.C,U2*%
X33000000Y-7000000D03*
D22*
X31900000Y-7800000D03*
X31900000Y-7400000D03*
X31900000Y-7000000D03*
X31900000Y-6600000D03*
X31900000Y-6200000D03*
X34100000Y-6200000D03*
X34100000Y-6600000D03*
X34100000Y-7000000D03*
X34100000Y-7400000D03*
X34100000Y-7800000D03*
%TD*%
D15*
%TO.C,R10*%
X12600000Y-6025000D03*
X12600000Y-4375000D03*
%TD*%
D23*
%TO.C,C1*%
X32050000Y-4300000D03*
X33950000Y-4300000D03*
%TD*%
D15*
%TO.C,R18*%
X36500000Y-34325000D03*
X36500000Y-32675000D03*
%TD*%
D17*
%TO.C,R5*%
X32675000Y-11000000D03*
X34325000Y-11000000D03*
%TD*%
D11*
%TO.C,C13*%
X38225000Y-15000000D03*
X39775000Y-15000000D03*
%TD*%
D15*
%TO.C,R14*%
X21000000Y-6125000D03*
X21000000Y-4475000D03*
%TD*%
D17*
%TO.C,R12*%
X13975000Y-18500000D03*
X15625000Y-18500000D03*
%TD*%
D15*
%TO.C,R16*%
X23500000Y-12325000D03*
X23500000Y-10675000D03*
%TD*%
D23*
%TO.C,C2*%
X28050000Y-4300000D03*
X29950000Y-4300000D03*
%TD*%
D15*
%TO.C,R9*%
X12300000Y-12825000D03*
X12300000Y-11175000D03*
%TD*%
M02*
