%TF.GenerationSoftware,KiCad,Pcbnew,10.0.6*%
%TF.CreationDate,2026-09-15T01:53:15+09:00*%
%TF.ProjectId,click-counter-Q1,636c6963-6b2d-4636-9f75-6e7465722d51,rev?*%
%TF.SameCoordinates,Original*%
%TF.FileFunction,Legend,Bot*%
%TF.FilePolarity,Positive*%
%FSLAX46Y46*%
G04 Gerber Fmt 4.6, Leading zero omitted, Abs format (unit mm)*
G04 Created by KiCad (PCBNEW 10.0.6) date 2026-09-15 01:53:15*
%MOMM*%
%LPD*%
G01*
G04 APERTURE LIST*
G04 Aperture macros list*
%AMRoundRect*
0 Rectangle with rounded corners*
0 $1 Rounding radius*
0 $2 $3 $4 $5 $6 $7 $8 $9 X,Y pos of 4 corners*
0 Add a 4 corners polygon primitive as box body*
4,1,4,$2,$3,$4,$5,$6,$7,$8,$9,$2,$3,0*
0 Add four circle primitives for the rounded corners*
1,1,$1+$1,$2,$3*
1,1,$1+$1,$4,$5*
1,1,$1+$1,$6,$7*
1,1,$1+$1,$8,$9*
0 Add four rect primitives between the rounded corners*
20,1,$1+$1,$2,$3,$4,$5,0*
20,1,$1+$1,$4,$5,$6,$7,0*
20,1,$1+$1,$6,$7,$8,$9,0*
20,1,$1+$1,$8,$9,$2,$3,0*%
G04 Aperture macros list end*
%ADD10C,0.120000*%
%ADD11C,2.200000*%
%ADD12C,1.700000*%
%ADD13C,4.000000*%
%ADD14C,0.650000*%
%ADD15O,2.100000X1.000000*%
%ADD16O,1.800000X1.000000*%
%ADD17RoundRect,0.150000X-0.512500X-0.150000X0.512500X-0.150000X0.512500X0.150000X-0.512500X0.150000X0*%
%ADD18RoundRect,0.225000X-0.225000X-0.250000X0.225000X-0.250000X0.225000X0.250000X-0.225000X0.250000X0*%
%ADD19RoundRect,0.070000X0.355000X-0.070000X0.355000X0.070000X-0.355000X0.070000X-0.355000X-0.070000X0*%
%ADD20RoundRect,0.070000X0.305000X-0.070000X0.305000X0.070000X-0.305000X0.070000X-0.305000X-0.070000X0*%
%ADD21RoundRect,0.125000X-0.687500X-0.125000X0.687500X-0.125000X0.687500X0.125000X-0.687500X0.125000X0*%
%ADD22RoundRect,0.200000X0.275000X-0.200000X0.275000X0.200000X-0.275000X0.200000X-0.275000X-0.200000X0*%
%ADD23RoundRect,0.225000X0.250000X-0.225000X0.250000X0.225000X-0.250000X0.225000X-0.250000X-0.225000X0*%
%ADD24RoundRect,0.200000X-0.200000X-0.275000X0.200000X-0.275000X0.200000X0.275000X-0.200000X0.275000X0*%
%ADD25RoundRect,0.150000X0.587500X0.150000X-0.587500X0.150000X-0.587500X-0.150000X0.587500X-0.150000X0*%
%ADD26C,1.500000*%
%ADD27RoundRect,0.150000X-0.587500X-0.150000X0.587500X-0.150000X0.587500X0.150000X-0.587500X0.150000X0*%
%ADD28RoundRect,0.250000X0.475000X-0.250000X0.475000X0.250000X-0.475000X0.250000X-0.475000X-0.250000X0*%
%ADD29RoundRect,0.050000X-0.325000X-0.050000X0.325000X-0.050000X0.325000X0.050000X-0.325000X0.050000X0*%
%ADD30R,0.900000X1.500000*%
%ADD31RoundRect,0.250000X-0.250000X-0.475000X0.250000X-0.475000X0.250000X0.475000X-0.250000X0.475000X0*%
G04 APERTURE END LIST*
D10*
X25857142Y-35740045D02*
X25933332Y-35701950D01*
X25933332Y-35701950D02*
X26009523Y-35625760D01*
X26009523Y-35625760D02*
X26123809Y-35511474D01*
X26123809Y-35511474D02*
X26199999Y-35473379D01*
X26199999Y-35473379D02*
X26276190Y-35473379D01*
X26238094Y-35663855D02*
X26314285Y-35625760D01*
X26314285Y-35625760D02*
X26390475Y-35549569D01*
X26390475Y-35549569D02*
X26428571Y-35397188D01*
X26428571Y-35397188D02*
X26428571Y-35130521D01*
X26428571Y-35130521D02*
X26390475Y-34978140D01*
X26390475Y-34978140D02*
X26314285Y-34901950D01*
X26314285Y-34901950D02*
X26238094Y-34863855D01*
X26238094Y-34863855D02*
X26085713Y-34863855D01*
X26085713Y-34863855D02*
X26009523Y-34901950D01*
X26009523Y-34901950D02*
X25933332Y-34978140D01*
X25933332Y-34978140D02*
X25895237Y-35130521D01*
X25895237Y-35130521D02*
X25895237Y-35397188D01*
X25895237Y-35397188D02*
X25933332Y-35549569D01*
X25933332Y-35549569D02*
X26009523Y-35625760D01*
X26009523Y-35625760D02*
X26085713Y-35663855D01*
X26085713Y-35663855D02*
X26238094Y-35663855D01*
X25552380Y-34863855D02*
X25552380Y-35511474D01*
X25552380Y-35511474D02*
X25514285Y-35587664D01*
X25514285Y-35587664D02*
X25476190Y-35625760D01*
X25476190Y-35625760D02*
X25399999Y-35663855D01*
X25399999Y-35663855D02*
X25247618Y-35663855D01*
X25247618Y-35663855D02*
X25171428Y-35625760D01*
X25171428Y-35625760D02*
X25133333Y-35587664D01*
X25133333Y-35587664D02*
X25095237Y-35511474D01*
X25095237Y-35511474D02*
X25095237Y-34863855D01*
X24561904Y-34863855D02*
X24409523Y-34863855D01*
X24409523Y-34863855D02*
X24333333Y-34901950D01*
X24333333Y-34901950D02*
X24257142Y-34978140D01*
X24257142Y-34978140D02*
X24219047Y-35130521D01*
X24219047Y-35130521D02*
X24219047Y-35397188D01*
X24219047Y-35397188D02*
X24257142Y-35549569D01*
X24257142Y-35549569D02*
X24333333Y-35625760D01*
X24333333Y-35625760D02*
X24409523Y-35663855D01*
X24409523Y-35663855D02*
X24561904Y-35663855D01*
X24561904Y-35663855D02*
X24638095Y-35625760D01*
X24638095Y-35625760D02*
X24714285Y-35549569D01*
X24714285Y-35549569D02*
X24752381Y-35397188D01*
X24752381Y-35397188D02*
X24752381Y-35130521D01*
X24752381Y-35130521D02*
X24714285Y-34978140D01*
X24714285Y-34978140D02*
X24638095Y-34901950D01*
X24638095Y-34901950D02*
X24561904Y-34863855D01*
X23990476Y-34863855D02*
X23533333Y-34863855D01*
X23761905Y-35663855D02*
X23761905Y-34863855D01*
X23266666Y-35244807D02*
X23000000Y-35244807D01*
X22885714Y-35663855D02*
X23266666Y-35663855D01*
X23266666Y-35663855D02*
X23266666Y-34863855D01*
X23266666Y-34863855D02*
X22885714Y-34863855D01*
X21933332Y-35663855D02*
X21933332Y-34863855D01*
X21933332Y-34863855D02*
X21628570Y-34863855D01*
X21628570Y-34863855D02*
X21552380Y-34901950D01*
X21552380Y-34901950D02*
X21514285Y-34940045D01*
X21514285Y-34940045D02*
X21476189Y-35016236D01*
X21476189Y-35016236D02*
X21476189Y-35130521D01*
X21476189Y-35130521D02*
X21514285Y-35206712D01*
X21514285Y-35206712D02*
X21552380Y-35244807D01*
X21552380Y-35244807D02*
X21628570Y-35282902D01*
X21628570Y-35282902D02*
X21933332Y-35282902D01*
X20676189Y-35663855D02*
X20942856Y-35282902D01*
X21133332Y-35663855D02*
X21133332Y-34863855D01*
X21133332Y-34863855D02*
X20828570Y-34863855D01*
X20828570Y-34863855D02*
X20752380Y-34901950D01*
X20752380Y-34901950D02*
X20714285Y-34940045D01*
X20714285Y-34940045D02*
X20676189Y-35016236D01*
X20676189Y-35016236D02*
X20676189Y-35130521D01*
X20676189Y-35130521D02*
X20714285Y-35206712D01*
X20714285Y-35206712D02*
X20752380Y-35244807D01*
X20752380Y-35244807D02*
X20828570Y-35282902D01*
X20828570Y-35282902D02*
X21133332Y-35282902D01*
X20180951Y-34863855D02*
X20028570Y-34863855D01*
X20028570Y-34863855D02*
X19952380Y-34901950D01*
X19952380Y-34901950D02*
X19876189Y-34978140D01*
X19876189Y-34978140D02*
X19838094Y-35130521D01*
X19838094Y-35130521D02*
X19838094Y-35397188D01*
X19838094Y-35397188D02*
X19876189Y-35549569D01*
X19876189Y-35549569D02*
X19952380Y-35625760D01*
X19952380Y-35625760D02*
X20028570Y-35663855D01*
X20028570Y-35663855D02*
X20180951Y-35663855D01*
X20180951Y-35663855D02*
X20257142Y-35625760D01*
X20257142Y-35625760D02*
X20333332Y-35549569D01*
X20333332Y-35549569D02*
X20371428Y-35397188D01*
X20371428Y-35397188D02*
X20371428Y-35130521D01*
X20371428Y-35130521D02*
X20333332Y-34978140D01*
X20333332Y-34978140D02*
X20257142Y-34901950D01*
X20257142Y-34901950D02*
X20180951Y-34863855D01*
X19609523Y-34863855D02*
X19152380Y-34863855D01*
X19380952Y-35663855D02*
X19380952Y-34863855D01*
X18733332Y-34863855D02*
X18580951Y-34863855D01*
X18580951Y-34863855D02*
X18504761Y-34901950D01*
X18504761Y-34901950D02*
X18428570Y-34978140D01*
X18428570Y-34978140D02*
X18390475Y-35130521D01*
X18390475Y-35130521D02*
X18390475Y-35397188D01*
X18390475Y-35397188D02*
X18428570Y-35549569D01*
X18428570Y-35549569D02*
X18504761Y-35625760D01*
X18504761Y-35625760D02*
X18580951Y-35663855D01*
X18580951Y-35663855D02*
X18733332Y-35663855D01*
X18733332Y-35663855D02*
X18809523Y-35625760D01*
X18809523Y-35625760D02*
X18885713Y-35549569D01*
X18885713Y-35549569D02*
X18923809Y-35397188D01*
X18923809Y-35397188D02*
X18923809Y-35130521D01*
X18923809Y-35130521D02*
X18885713Y-34978140D01*
X18885713Y-34978140D02*
X18809523Y-34901950D01*
X18809523Y-34901950D02*
X18733332Y-34863855D01*
X18161904Y-34863855D02*
X17704761Y-34863855D01*
X17933333Y-35663855D02*
X17933333Y-34863855D01*
X17285713Y-35282902D02*
X17285713Y-35663855D01*
X17552380Y-34863855D02*
X17285713Y-35282902D01*
X17285713Y-35282902D02*
X17019047Y-34863855D01*
X16752380Y-35663855D02*
X16752380Y-34863855D01*
X16752380Y-34863855D02*
X16447618Y-34863855D01*
X16447618Y-34863855D02*
X16371428Y-34901950D01*
X16371428Y-34901950D02*
X16333333Y-34940045D01*
X16333333Y-34940045D02*
X16295237Y-35016236D01*
X16295237Y-35016236D02*
X16295237Y-35130521D01*
X16295237Y-35130521D02*
X16333333Y-35206712D01*
X16333333Y-35206712D02*
X16371428Y-35244807D01*
X16371428Y-35244807D02*
X16447618Y-35282902D01*
X16447618Y-35282902D02*
X16752380Y-35282902D01*
X15952380Y-35244807D02*
X15685714Y-35244807D01*
X15571428Y-35663855D02*
X15952380Y-35663855D01*
X15952380Y-35663855D02*
X15952380Y-34863855D01*
X15952380Y-34863855D02*
X15571428Y-34863855D01*
%LPC*%
D11*
%TO.C,H2*%
X39500000Y-37500000D03*
%TD*%
D12*
%TO.C,SW1*%
X6395000Y-28000000D03*
D13*
X11475000Y-28000000D03*
D12*
X16555000Y-28000000D03*
D11*
X14015000Y-22920000D03*
X7665000Y-25460000D03*
%TD*%
D14*
%TO.C,J1*%
X36295000Y-16190000D03*
X36295000Y-10410000D03*
D15*
X35795000Y-17620000D03*
D16*
X39975000Y-17620000D03*
D15*
X35795000Y-8980000D03*
D16*
X39975000Y-8980000D03*
%TD*%
D11*
%TO.C,DS1*%
X9570000Y-15500000D03*
X12110000Y-15500000D03*
X14650000Y-15500000D03*
X17190000Y-15500000D03*
X19730000Y-15500000D03*
X22270000Y-15500000D03*
X24810000Y-15500000D03*
X27350000Y-15500000D03*
X29890000Y-15500000D03*
X32430000Y-15500000D03*
X32430000Y-2000000D03*
X29890000Y-2000000D03*
X27350000Y-2000000D03*
X24810000Y-2000000D03*
X22270000Y-2000000D03*
X19730000Y-2000000D03*
X17190000Y-2000000D03*
X14650000Y-2000000D03*
X12110000Y-2000000D03*
X9570000Y-2000000D03*
%TD*%
%TO.C,H1*%
X2500000Y-37500000D03*
%TD*%
D12*
%TO.C,SW2*%
X25445000Y-28000000D03*
D13*
X30525000Y-28000000D03*
D12*
X35605000Y-28000000D03*
D11*
X33065000Y-22920000D03*
X26715000Y-25460000D03*
%TD*%
D17*
%TO.C,U3*%
X25862500Y-7950000D03*
X25862500Y-7000000D03*
X25862500Y-6050000D03*
X28137500Y-6050000D03*
X28137500Y-7950000D03*
%TD*%
D18*
%TO.C,C8*%
X14725000Y-11300000D03*
X16275000Y-11300000D03*
%TD*%
D19*
%TO.C,U4*%
X6475000Y-6500000D03*
D20*
X6425000Y-6000000D03*
X6425000Y-5500000D03*
X7575000Y-5500000D03*
X7575000Y-6000000D03*
X7575000Y-6500000D03*
%TD*%
D21*
%TO.C,U5*%
X14887500Y-7975000D03*
X14887500Y-7325000D03*
X14887500Y-6675000D03*
X14887500Y-6025000D03*
X19112500Y-6025000D03*
X19112500Y-6675000D03*
X19112500Y-7325000D03*
X19112500Y-7975000D03*
%TD*%
D22*
%TO.C,R7*%
X4000000Y-6125000D03*
X4000000Y-4475000D03*
%TD*%
D18*
%TO.C,C7*%
X24225000Y-4300000D03*
X25775000Y-4300000D03*
%TD*%
D23*
%TO.C,C11*%
X8000000Y-35275000D03*
X8000000Y-33725000D03*
%TD*%
D22*
%TO.C,R17*%
X5500000Y-34325000D03*
X5500000Y-32675000D03*
%TD*%
D23*
%TO.C,C10*%
X25500000Y-12275000D03*
X25500000Y-10725000D03*
%TD*%
D24*
%TO.C,R13*%
X17275000Y-18500000D03*
X18925000Y-18500000D03*
%TD*%
%TO.C,R1*%
X28675000Y-18500000D03*
X30325000Y-18500000D03*
%TD*%
D17*
%TO.C,D1*%
X36162500Y-21650000D03*
X36162500Y-20700000D03*
X36162500Y-19750000D03*
X38437500Y-19750000D03*
X38437500Y-20700000D03*
X38437500Y-21650000D03*
%TD*%
D25*
%TO.C,Q2*%
X9937500Y-10050000D03*
X9937500Y-11950000D03*
X8062500Y-11000000D03*
%TD*%
D26*
%TO.C,TP3*%
X15000000Y-37500000D03*
%TD*%
D22*
%TO.C,R3*%
X36600000Y-6325000D03*
X36600000Y-4675000D03*
%TD*%
D18*
%TO.C,C9*%
X16225000Y-4300000D03*
X17775000Y-4300000D03*
%TD*%
D26*
%TO.C,TP9*%
X18000000Y-31700000D03*
%TD*%
D27*
%TO.C,Q3*%
X21062500Y-19950000D03*
X21062500Y-18050000D03*
X22937500Y-19000000D03*
%TD*%
D22*
%TO.C,R15*%
X21000000Y-10525000D03*
X21000000Y-8875000D03*
%TD*%
D28*
%TO.C,C5*%
X29500000Y-11150000D03*
X29500000Y-9250000D03*
%TD*%
D24*
%TO.C,R4*%
X38175000Y-6500000D03*
X39825000Y-6500000D03*
%TD*%
D23*
%TO.C,C12*%
X34000000Y-34275000D03*
X34000000Y-32725000D03*
%TD*%
D24*
%TO.C,R19*%
X38175000Y-12500000D03*
X39825000Y-12500000D03*
%TD*%
D26*
%TO.C,TP8*%
X15000000Y-31700000D03*
%TD*%
D22*
%TO.C,R8*%
X10000000Y-6125000D03*
X10000000Y-4475000D03*
%TD*%
D26*
%TO.C,TP6*%
X9000000Y-31700000D03*
%TD*%
D28*
%TO.C,C3*%
X38500000Y-3950000D03*
X38500000Y-2050000D03*
%TD*%
D18*
%TO.C,C4*%
X6225000Y-3000000D03*
X7775000Y-3000000D03*
%TD*%
D24*
%TO.C,R2*%
X30675000Y-20200000D03*
X32325000Y-20200000D03*
%TD*%
%TO.C,R11*%
X10675000Y-18500000D03*
X12325000Y-18500000D03*
%TD*%
D27*
%TO.C,Q1*%
X4062500Y-11950000D03*
X4062500Y-10050000D03*
X5937500Y-11000000D03*
%TD*%
D24*
%TO.C,R6*%
X25675000Y-18500000D03*
X27325000Y-18500000D03*
%TD*%
D26*
%TO.C,TP7*%
X12000000Y-31700000D03*
%TD*%
D28*
%TO.C,C6*%
X23500000Y-7950000D03*
X23500000Y-6050000D03*
%TD*%
D29*
%TO.C,U2*%
X31900000Y-7800000D03*
X31900000Y-7400000D03*
X31900000Y-7000000D03*
X31900000Y-6600000D03*
X31900000Y-6200000D03*
X34100000Y-6200000D03*
X34100000Y-6600000D03*
X34100000Y-7000000D03*
X34100000Y-7400000D03*
X34100000Y-7800000D03*
D30*
X33000000Y-7000000D03*
%TD*%
D22*
%TO.C,R10*%
X12600000Y-6025000D03*
X12600000Y-4375000D03*
%TD*%
D26*
%TO.C,TP10*%
X21000000Y-31700000D03*
%TD*%
%TO.C,TP2*%
X12000000Y-37500000D03*
%TD*%
D31*
%TO.C,C1*%
X32050000Y-4300000D03*
X33950000Y-4300000D03*
%TD*%
D22*
%TO.C,R18*%
X36500000Y-34325000D03*
X36500000Y-32675000D03*
%TD*%
D24*
%TO.C,R5*%
X32675000Y-11000000D03*
X34325000Y-11000000D03*
%TD*%
D18*
%TO.C,C13*%
X38225000Y-15000000D03*
X39775000Y-15000000D03*
%TD*%
D22*
%TO.C,R14*%
X21000000Y-6125000D03*
X21000000Y-4475000D03*
%TD*%
D24*
%TO.C,R12*%
X13975000Y-18500000D03*
X15625000Y-18500000D03*
%TD*%
D26*
%TO.C,TP5*%
X21000000Y-37500000D03*
%TD*%
D22*
%TO.C,R16*%
X23500000Y-12325000D03*
X23500000Y-10675000D03*
%TD*%
D31*
%TO.C,C2*%
X28050000Y-4300000D03*
X29950000Y-4300000D03*
%TD*%
D26*
%TO.C,TP1*%
X9000000Y-37500000D03*
%TD*%
%TO.C,TP4*%
X18000000Y-37500000D03*
%TD*%
D22*
%TO.C,R9*%
X12300000Y-12825000D03*
X12300000Y-11175000D03*
%TD*%
%LPD*%
M02*
