%TF.GenerationSoftware,KiCad,Pcbnew,10.0.6*%
%TF.CreationDate,2026-09-15T01:53:15+09:00*%
%TF.ProjectId,click-counter-Q1,636c6963-6b2d-4636-9f75-6e7465722d51,rev?*%
%TF.SameCoordinates,Original*%
%TF.FileFunction,Copper,L3,Inr*%
%TF.FilePolarity,Positive*%
%FSLAX46Y46*%
G04 Gerber Fmt 4.6, Leading zero omitted, Abs format (unit mm)*
G04 Created by KiCad (PCBNEW 10.0.6) date 2026-09-15 01:53:15*
%MOMM*%
%LPD*%
G01*
G04 APERTURE LIST*
%TA.AperFunction,ComponentPad*%
%ADD10C,2.200000*%
%TD*%
%TA.AperFunction,ComponentPad*%
%ADD11O,2.100000X1.000000*%
%TD*%
%TA.AperFunction,ComponentPad*%
%ADD12O,1.800000X1.000000*%
%TD*%
%TA.AperFunction,ViaPad*%
%ADD13C,0.600000*%
%TD*%
%TA.AperFunction,Conductor*%
%ADD14C,0.150000*%
%TD*%
G04 APERTURE END LIST*
D10*
%TO.N,COUNT_N*%
%TO.C,SW1*%
X14015000Y-22920000D03*
%TO.N,GND*%
X7665000Y-25460000D03*
%TD*%
D11*
%TO.N,GND*%
%TO.C,J1*%
X35795000Y-17620000D03*
D12*
X39975000Y-17620000D03*
D11*
X35795000Y-8980000D03*
D12*
X39975000Y-8980000D03*
%TD*%
D10*
%TO.N,COM1*%
%TO.C,DS1*%
X9570000Y-15500000D03*
%TO.N,SEG0*%
X12110000Y-15500000D03*
%TO.N,SEG1*%
X14650000Y-15500000D03*
%TO.N,SEG2*%
X17190000Y-15500000D03*
%TO.N,SEG3*%
X19730000Y-15500000D03*
%TO.N,SEG4*%
X22270000Y-15500000D03*
%TO.N,SEG5*%
X24810000Y-15500000D03*
%TO.N,SEG6*%
X27350000Y-15500000D03*
%TO.N,SEG7*%
X29890000Y-15500000D03*
%TO.N,COM3*%
X32430000Y-15500000D03*
%TO.N,COM2*%
X32430000Y-2000000D03*
%TO.N,SEG8*%
X29890000Y-2000000D03*
%TO.N,SEG9*%
X27350000Y-2000000D03*
%TO.N,SEG10*%
X24810000Y-2000000D03*
%TO.N,SEG11*%
X22270000Y-2000000D03*
%TO.N,SEG12*%
X19730000Y-2000000D03*
%TO.N,SEG13*%
X17190000Y-2000000D03*
%TO.N,SEG14*%
X14650000Y-2000000D03*
%TO.N,SEG15*%
X12110000Y-2000000D03*
%TO.N,COM0*%
X9570000Y-2000000D03*
%TD*%
%TO.N,RESET_N*%
%TO.C,SW2*%
X33065000Y-22920000D03*
%TO.N,GND*%
X26715000Y-25460000D03*
%TD*%
D13*
%TO.N,COM3*%
X16157400Y-13652900D03*
%TO.N,COM2*%
X15864000Y-10360300D03*
%TO.N,COM0*%
X17752600Y-10521600D03*
%TO.N,LCDCAP1*%
X16981300Y-13655300D03*
%TO.N,LCDCAP0*%
X19348800Y-10823300D03*
%TO.N,GND*%
X11642600Y-10428900D03*
X9000000Y-35704300D03*
X4239400Y-15300000D03*
X21750000Y-13671400D03*
%TO.N,V3*%
X19297300Y-33738100D03*
X36500000Y-35191000D03*
X33065600Y-12546700D03*
X22902500Y-13767000D03*
%TO.N,SBWTDIO*%
X15000000Y-36286500D03*
X12668200Y-20326900D03*
X23919000Y-9806100D03*
%TO.N,SBWTCK*%
X18850800Y-36649200D03*
X24559300Y-10736700D03*
%TO.N,RESET_N*%
X21858700Y-32558700D03*
X35704400Y-32072200D03*
X29257200Y-5938600D03*
%TO.N,COUNT_N*%
X26250000Y-9308900D03*
X7195500Y-34513200D03*
X17129500Y-32532000D03*
%TO.N,SEG15*%
X22133500Y-8172200D03*
%TO.N,SEG14*%
X26600500Y-3691200D03*
%TO.N,SEG13*%
X20795500Y-3136200D03*
%TO.N,SEG11*%
X18569700Y-3495600D03*
%TO.N,SEG10*%
X20972800Y-7362300D03*
%TO.N,SEG9*%
X22990200Y-9140500D03*
%TO.N,SEG8*%
X17057800Y-7214600D03*
%TO.N,SEG7*%
X15480000Y-3528400D03*
%TO.N,SEG6*%
X14480600Y-4604000D03*
%TO.N,SEG5*%
X16903700Y-6462800D03*
%TO.N,SEG4*%
X17223000Y-8686000D03*
%TO.N,SEG3*%
X16388000Y-9136800D03*
%TO.N,SEG2*%
X15729200Y-8685900D03*
%TO.N,VBUS*%
X33550300Y-3119900D03*
X34935300Y-7808800D03*
X39353400Y-19148000D03*
X21985700Y-6861200D03*
X10675000Y-19440800D03*
X21000000Y-36291400D03*
X24974400Y-17802600D03*
X13533100Y-5348700D03*
%TO.N,CC1*%
X36248700Y-14688200D03*
%TO.N,CC2*%
X38437500Y-18996400D03*
X36255600Y-11550000D03*
%TO.N,CELL_P*%
X38848700Y-4918300D03*
X3285500Y-6839500D03*
X1839000Y-17825800D03*
X30729000Y-7325400D03*
X12855400Y-30844600D03*
%TO.N,CELL_N_RAW*%
X4176900Y-17774200D03*
X15000000Y-27660800D03*
%TO.N,TEMP_SENSE*%
X13603100Y-7655500D03*
X11894500Y-5080500D03*
X5753100Y-15825800D03*
%TO.N,SYS*%
X26993000Y-6836500D03*
X31711000Y-8986700D03*
X9000000Y-24574900D03*
%TO.N,BAT_SENSE*%
X10948100Y-4246300D03*
X6120100Y-4377700D03*
%TO.N,TEMP_OK*%
X21062500Y-19182600D03*
X11063900Y-12480500D03*
%TO.N,TEMP_COLD*%
X13620000Y-6849300D03*
X11609700Y-17784700D03*
%TO.N,TEMP_HOT*%
X22172700Y-11233200D03*
X15625000Y-17558800D03*
X17809600Y-7059800D03*
%TO.N,CE_N*%
X31068000Y-6600000D03*
X27325000Y-17569300D03*
%TO.N,TS_FIXED*%
X32677400Y-8362800D03*
X34656300Y-5643700D03*
%TD*%
%TO.N,COM3*%
D14*
X32430000Y-15500000D02*
X30021500Y-13091500D01*
X16718800Y-13091500D02*
X16157400Y-13652900D01*
X30021500Y-13091500D02*
X16718800Y-13091500D01*
%TO.N,COM2*%
X32430000Y-2000000D02*
X31921000Y-2000000D01*
X16529200Y-10360300D02*
X15864000Y-10360300D01*
X28221600Y-5699400D02*
X21190100Y-5699400D01*
X21190100Y-5699400D02*
X16529200Y-10360300D01*
X31921000Y-2000000D02*
X28221600Y-5699400D01*
%TO.N,GND*%
X39975000Y-17620000D02*
X35795000Y-17620000D01*
X9110500Y-10428900D02*
X4239400Y-15300000D01*
X11642600Y-10428900D02*
X9110500Y-10428900D01*
X39975000Y-8980000D02*
X35795000Y-8980000D01*
%TO.N,V3*%
X19297300Y-33738100D02*
X35047100Y-33738100D01*
X35047100Y-33738100D02*
X36500000Y-35191000D01*
%TO.N,SBWTDIO*%
X7624900Y-14642700D02*
X7624900Y-17176000D01*
X10775800Y-20326900D02*
X12668200Y-20326900D01*
X20595000Y-11953500D02*
X10314100Y-11953500D01*
X23335300Y-10389800D02*
X22158700Y-10389800D01*
X10314100Y-11953500D02*
X7624900Y-14642700D01*
X7624900Y-17176000D02*
X10775800Y-20326900D01*
X22158700Y-10389800D02*
X20595000Y-11953500D01*
X23919000Y-9806100D02*
X23335300Y-10389800D01*
%TO.N,RESET_N*%
X35217900Y-32558700D02*
X21858700Y-32558700D01*
X35704400Y-32072200D02*
X35217900Y-32558700D01*
%TO.N,COUNT_N*%
X26187700Y-9246600D02*
X23629000Y-9246600D01*
X12942200Y-22920000D02*
X14015000Y-22920000D01*
X10189100Y-11651800D02*
X7323200Y-14517700D01*
X22839700Y-10035900D02*
X22085900Y-10035900D01*
X26250000Y-9308900D02*
X26187700Y-9246600D01*
X7323200Y-17301000D02*
X12942200Y-22920000D01*
X15148300Y-34513200D02*
X17129500Y-32532000D01*
X20470000Y-11651800D02*
X10189100Y-11651800D01*
X7195500Y-34513200D02*
X15148300Y-34513200D01*
X23629000Y-9246600D02*
X22839700Y-10035900D01*
X22085900Y-10035900D02*
X20470000Y-11651800D01*
X7323200Y-14517700D02*
X7323200Y-17301000D01*
%TO.N,SEG14*%
X14696500Y-2000000D02*
X14650000Y-2000000D01*
X26591900Y-3699800D02*
X19110300Y-3699800D01*
X18787900Y-4022300D02*
X16718800Y-4022300D01*
X19110300Y-3699800D02*
X19110300Y-3699900D01*
X16718800Y-4022300D02*
X14696500Y-2000000D01*
X19110300Y-3699900D02*
X18787900Y-4022300D01*
X26600500Y-3691200D02*
X26591900Y-3699800D01*
%TO.N,SEG13*%
X19145700Y-3326700D02*
X17819000Y-2000000D01*
X20795500Y-3136200D02*
X20605000Y-3326700D01*
X20605000Y-3326700D02*
X19145700Y-3326700D01*
X17819000Y-2000000D02*
X17190000Y-2000000D01*
%TO.N,SEG8*%
X18012800Y-7601500D02*
X17444700Y-7601500D01*
X17444700Y-7601500D02*
X17057800Y-7214600D01*
X21071200Y-4543100D02*
X18012800Y-7601500D01*
X27346900Y-4543100D02*
X21071200Y-4543100D01*
X29890000Y-2000000D02*
X27346900Y-4543100D01*
%TO.N,VBUS*%
X25579900Y-18408100D02*
X24974400Y-17802600D01*
X22845800Y-6001100D02*
X21985700Y-6861200D01*
X33550300Y-3119900D02*
X32136100Y-4534100D01*
X23002000Y-19775000D02*
X11009200Y-19775000D01*
X38613500Y-18408100D02*
X25579900Y-18408100D01*
X24974400Y-17802600D02*
X23002000Y-19775000D01*
X32136100Y-4534100D02*
X29895900Y-4534100D01*
X39353400Y-19148000D02*
X38613500Y-18408100D01*
X29895900Y-4534100D02*
X28428900Y-6001100D01*
X28428900Y-6001100D02*
X22845800Y-6001100D01*
X11009200Y-19775000D02*
X10675000Y-19440800D01*
%TO.N,CELL_P*%
X31979700Y-4918300D02*
X38848700Y-4918300D01*
X30729000Y-7325400D02*
X30506100Y-7102500D01*
X5998100Y-21984900D02*
X8897400Y-21984900D01*
X13875600Y-29824400D02*
X12855400Y-30844600D01*
X27218100Y-6302800D02*
X23814700Y-6302800D01*
X21898400Y-7395100D02*
X18245100Y-11048400D01*
X11355800Y-6839500D02*
X3285500Y-6839500D01*
X30506100Y-6525100D02*
X30506100Y-6391900D01*
X15564700Y-11048400D02*
X11355800Y-6839500D01*
X8897400Y-21984900D02*
X13875600Y-26963100D01*
X23814700Y-6302800D02*
X22722400Y-7395100D01*
X30506100Y-7102500D02*
X30506100Y-6525100D01*
X1839000Y-17825800D02*
X5998100Y-21984900D01*
X18245100Y-11048400D02*
X15564700Y-11048400D01*
X30506100Y-6525100D02*
X27440400Y-6525100D01*
X30506100Y-6391900D02*
X31979700Y-4918300D01*
X22722400Y-7395100D02*
X21898400Y-7395100D01*
X13875600Y-26963100D02*
X13875600Y-29824400D01*
X27440400Y-6525100D02*
X27218100Y-6302800D01*
%TO.N,CELL_N_RAW*%
X15000000Y-27660800D02*
X5113400Y-17774200D01*
X5113400Y-17774200D02*
X4176900Y-17774200D01*
%TO.N,TEMP_SENSE*%
X11894500Y-5946900D02*
X13603100Y-7655500D01*
X11894500Y-5080500D02*
X11894500Y-5946900D01*
%TO.N,SYS*%
X4775800Y-16050600D02*
X2813700Y-16050600D01*
X2813700Y-16050600D02*
X1272900Y-17591400D01*
X1272900Y-18076200D02*
X6189900Y-22993200D01*
X26993000Y-6836500D02*
X24290100Y-6836500D01*
X7418300Y-22993200D02*
X9000000Y-24574900D01*
X24290100Y-6836500D02*
X19776500Y-11350100D01*
X6189900Y-22993200D02*
X7418300Y-22993200D01*
X19776500Y-11350100D02*
X9476300Y-11350100D01*
X31711000Y-8986700D02*
X29143200Y-8986700D01*
X29143200Y-8986700D02*
X26993000Y-6836500D01*
X9476300Y-11350100D02*
X4775800Y-16050600D01*
X1272900Y-17591400D02*
X1272900Y-18076200D01*
%TO.N,BAT_SENSE*%
X10816700Y-4377700D02*
X6120100Y-4377700D01*
X10948100Y-4246300D02*
X10816700Y-4377700D01*
%TO.N,TEMP_OK*%
X11330800Y-19182600D02*
X9492200Y-17344000D01*
X9492200Y-17344000D02*
X9065500Y-17344000D01*
X7926600Y-14767700D02*
X10213800Y-12480500D01*
X10213800Y-12480500D02*
X11063900Y-12480500D01*
X9065500Y-17344000D02*
X7926600Y-16205100D01*
X7926600Y-16205100D02*
X7926600Y-14767700D01*
X21062500Y-19182600D02*
X11330800Y-19182600D01*
%TO.N,TEMP_HOT*%
X8228300Y-14892700D02*
X8228300Y-16080100D01*
X15002300Y-16936100D02*
X15625000Y-17558800D01*
X9891500Y-13229500D02*
X8228300Y-14892700D01*
X8228300Y-16080100D02*
X9084300Y-16936100D01*
X22172700Y-11233200D02*
X21150700Y-12255200D01*
X14657900Y-13229500D02*
X9891500Y-13229500D01*
X21150700Y-12255200D02*
X15632200Y-12255200D01*
X15632200Y-12255200D02*
X14657900Y-13229500D01*
X9084300Y-16936100D02*
X15002300Y-16936100D01*
%TO.N,CE_N*%
X31068000Y-6600000D02*
X32137200Y-7669200D01*
X33795400Y-16020200D02*
X32246300Y-17569300D01*
X32246300Y-17569300D02*
X27325000Y-17569300D01*
X32137200Y-7669200D02*
X32137200Y-8567700D01*
X33795400Y-10225900D02*
X33795400Y-16020200D01*
X32137200Y-8567700D02*
X33795400Y-10225900D01*
%TO.N,TS_FIXED*%
X32677400Y-7622600D02*
X32677400Y-8362800D01*
X34656300Y-5643700D02*
X32677400Y-7622600D01*
%TD*%
%TA.AperFunction,Conductor*%
%TO.N,GND*%
G36*
X40678326Y-1321674D02*
G01*
X40700000Y-1374000D01*
X40700000Y-8246196D01*
X40678326Y-8298522D01*
X40626000Y-8320196D01*
X40597685Y-8314565D01*
X40579178Y-8306900D01*
X40579176Y-8306899D01*
X40443942Y-8280000D01*
X40075000Y-8280000D01*
X40075000Y-8680000D01*
X39875000Y-8680000D01*
X39875000Y-8280000D01*
X39506058Y-8280000D01*
X39370823Y-8306899D01*
X39370813Y-8306902D01*
X39243426Y-8359667D01*
X39128776Y-8436273D01*
X39128775Y-8436275D01*
X39031275Y-8533775D01*
X39031273Y-8533776D01*
X38954667Y-8648426D01*
X38901902Y-8775813D01*
X38901899Y-8775823D01*
X38881178Y-8879999D01*
X38881178Y-8880000D01*
X39291212Y-8880000D01*
X39275000Y-8940504D01*
X39275000Y-9019496D01*
X39291212Y-9080000D01*
X38881178Y-9080000D01*
X38901899Y-9184176D01*
X38901902Y-9184186D01*
X38954667Y-9311573D01*
X39031273Y-9426223D01*
X39128776Y-9523726D01*
X39243426Y-9600332D01*
X39370813Y-9653097D01*
X39370823Y-9653100D01*
X39506058Y-9680000D01*
X39875000Y-9680000D01*
X39875000Y-9280000D01*
X40075000Y-9280000D01*
X40075000Y-9680000D01*
X40443942Y-9680000D01*
X40579176Y-9653100D01*
X40579182Y-9653098D01*
X40597681Y-9645436D01*
X40654318Y-9645436D01*
X40694367Y-9685484D01*
X40700000Y-9713803D01*
X40700000Y-16886196D01*
X40678326Y-16938522D01*
X40626000Y-16960196D01*
X40597685Y-16954565D01*
X40579178Y-16946900D01*
X40579176Y-16946899D01*
X40443942Y-16920000D01*
X40075000Y-16920000D01*
X40075000Y-17320000D01*
X39875000Y-17320000D01*
X39875000Y-16920000D01*
X39506058Y-16920000D01*
X39370823Y-16946899D01*
X39370813Y-16946902D01*
X39243426Y-16999667D01*
X39128776Y-17076273D01*
X39128775Y-17076275D01*
X39031275Y-17173775D01*
X39031273Y-17173776D01*
X38954667Y-17288426D01*
X38901902Y-17415813D01*
X38901899Y-17415823D01*
X38881178Y-17519999D01*
X38881178Y-17520000D01*
X39291212Y-17520000D01*
X39275000Y-17580504D01*
X39275000Y-17659496D01*
X39291212Y-17720000D01*
X38881178Y-17720000D01*
X38901899Y-17824176D01*
X38901902Y-17824186D01*
X38954667Y-17951573D01*
X39031273Y-18066223D01*
X39128776Y-18163726D01*
X39243426Y-18240332D01*
X39370813Y-18293097D01*
X39370823Y-18293100D01*
X39506058Y-18320000D01*
X39875000Y-18320000D01*
X39875000Y-17920000D01*
X40075000Y-17920000D01*
X40075000Y-18320000D01*
X40443942Y-18320000D01*
X40579176Y-18293100D01*
X40579182Y-18293098D01*
X40597681Y-18285436D01*
X40654318Y-18285436D01*
X40694367Y-18325484D01*
X40700000Y-18353803D01*
X40700000Y-36796431D01*
X40678326Y-36848757D01*
X40626000Y-36870431D01*
X40573674Y-36848757D01*
X40566133Y-36839927D01*
X40453831Y-36685358D01*
X40453830Y-36685357D01*
X40453828Y-36685354D01*
X40314646Y-36546172D01*
X40314643Y-36546169D01*
X40314641Y-36546168D01*
X40155404Y-36430475D01*
X39998317Y-36350436D01*
X39980025Y-36341116D01*
X39980024Y-36341115D01*
X39980019Y-36341113D01*
X39792836Y-36280293D01*
X39792823Y-36280290D01*
X39598418Y-36249500D01*
X39598417Y-36249500D01*
X39401583Y-36249500D01*
X39401582Y-36249500D01*
X39207176Y-36280290D01*
X39207163Y-36280293D01*
X39019980Y-36341113D01*
X38844595Y-36430475D01*
X38685358Y-36546168D01*
X38546168Y-36685358D01*
X38430475Y-36844595D01*
X38341113Y-37019980D01*
X38280293Y-37207163D01*
X38280290Y-37207176D01*
X38249500Y-37401582D01*
X38249500Y-37598417D01*
X38280290Y-37792823D01*
X38280293Y-37792836D01*
X38341113Y-37980019D01*
X38430475Y-38155404D01*
X38465468Y-38203568D01*
X38546172Y-38314646D01*
X38685354Y-38453828D01*
X38685357Y-38453830D01*
X38685358Y-38453831D01*
X38839928Y-38566133D01*
X38869521Y-38614424D01*
X38856299Y-38669496D01*
X38808008Y-38699089D01*
X38796432Y-38700000D01*
X3203568Y-38700000D01*
X3151242Y-38678326D01*
X3129568Y-38626000D01*
X3151242Y-38573674D01*
X3160072Y-38566133D01*
X3280268Y-38478805D01*
X3314646Y-38453828D01*
X3453828Y-38314646D01*
X3569524Y-38155405D01*
X3658884Y-37980025D01*
X3667858Y-37952405D01*
X3719706Y-37792836D01*
X3719706Y-37792833D01*
X3719709Y-37792826D01*
X3750500Y-37598417D01*
X3750500Y-37401583D01*
X3719709Y-37207174D01*
X3719707Y-37207169D01*
X3719706Y-37207163D01*
X3658886Y-37019980D01*
X3658884Y-37019977D01*
X3658884Y-37019975D01*
X3569524Y-36844595D01*
X3491351Y-36737000D01*
X3453831Y-36685358D01*
X3453830Y-36685357D01*
X3453828Y-36685354D01*
X3314646Y-36546172D01*
X3314643Y-36546169D01*
X3314641Y-36546168D01*
X3155404Y-36430475D01*
X2998317Y-36350436D01*
X2980025Y-36341116D01*
X2980024Y-36341115D01*
X2980019Y-36341113D01*
X2831077Y-36292719D01*
X2792836Y-36280293D01*
X2792823Y-36280290D01*
X2598418Y-36249500D01*
X2598417Y-36249500D01*
X2401583Y-36249500D01*
X2401582Y-36249500D01*
X2207176Y-36280290D01*
X2207163Y-36280293D01*
X2019980Y-36341113D01*
X1844595Y-36430475D01*
X1685358Y-36546168D01*
X1546168Y-36685358D01*
X1433867Y-36839927D01*
X1385576Y-36869520D01*
X1330504Y-36856298D01*
X1300911Y-36808007D01*
X1300000Y-36796431D01*
X1300000Y-36227188D01*
X14549500Y-36227188D01*
X14549500Y-36345811D01*
X14580199Y-36460382D01*
X14580201Y-36460387D01*
X14639508Y-36563109D01*
X14639509Y-36563110D01*
X14639511Y-36563113D01*
X14723387Y-36646989D01*
X14723389Y-36646990D01*
X14723390Y-36646991D01*
X14789843Y-36685358D01*
X14826114Y-36706299D01*
X14826115Y-36706299D01*
X14826117Y-36706300D01*
X14883402Y-36721649D01*
X14940688Y-36736999D01*
X14940689Y-36737000D01*
X14940691Y-36737000D01*
X15059311Y-36737000D01*
X15059311Y-36736999D01*
X15173886Y-36706299D01*
X15276613Y-36646989D01*
X15333714Y-36589888D01*
X18400300Y-36589888D01*
X18400300Y-36708511D01*
X18430999Y-36823082D01*
X18431001Y-36823087D01*
X18490308Y-36925809D01*
X18490309Y-36925810D01*
X18490311Y-36925813D01*
X18574187Y-37009689D01*
X18574189Y-37009690D01*
X18574190Y-37009691D01*
X18592011Y-37019980D01*
X18676914Y-37068999D01*
X18676915Y-37068999D01*
X18676917Y-37069000D01*
X18734202Y-37084349D01*
X18791488Y-37099699D01*
X18791489Y-37099700D01*
X18791491Y-37099700D01*
X18910111Y-37099700D01*
X18910111Y-37099699D01*
X19024686Y-37068999D01*
X19127413Y-37009689D01*
X19211289Y-36925813D01*
X19270599Y-36823086D01*
X19301299Y-36708511D01*
X19301300Y-36708511D01*
X19301300Y-36589889D01*
X19301299Y-36589888D01*
X19290086Y-36548042D01*
X19270599Y-36475314D01*
X19211289Y-36372587D01*
X19127413Y-36288711D01*
X19127410Y-36288709D01*
X19127409Y-36288708D01*
X19029341Y-36232088D01*
X20549500Y-36232088D01*
X20549500Y-36350711D01*
X20580199Y-36465282D01*
X20580201Y-36465287D01*
X20639508Y-36568009D01*
X20639509Y-36568010D01*
X20639511Y-36568013D01*
X20723387Y-36651889D01*
X20723389Y-36651890D01*
X20723390Y-36651891D01*
X20821455Y-36708509D01*
X20826114Y-36711199D01*
X20826115Y-36711199D01*
X20826117Y-36711200D01*
X20883402Y-36726549D01*
X20940688Y-36741899D01*
X20940689Y-36741900D01*
X20940691Y-36741900D01*
X21059311Y-36741900D01*
X21059311Y-36741899D01*
X21173886Y-36711199D01*
X21276613Y-36651889D01*
X21360489Y-36568013D01*
X21419799Y-36465286D01*
X21450499Y-36350711D01*
X21450500Y-36350711D01*
X21450500Y-36232089D01*
X21450499Y-36232088D01*
X21449778Y-36229399D01*
X21419799Y-36117514D01*
X21360489Y-36014787D01*
X21276613Y-35930911D01*
X21276610Y-35930909D01*
X21276609Y-35930908D01*
X21173887Y-35871601D01*
X21173882Y-35871599D01*
X21059311Y-35840900D01*
X21059309Y-35840900D01*
X20940691Y-35840900D01*
X20940689Y-35840900D01*
X20826117Y-35871599D01*
X20826112Y-35871601D01*
X20723390Y-35930908D01*
X20639508Y-36014790D01*
X20580201Y-36117512D01*
X20580199Y-36117517D01*
X20549500Y-36232088D01*
X19029341Y-36232088D01*
X19024687Y-36229401D01*
X19024682Y-36229399D01*
X18910111Y-36198700D01*
X18910109Y-36198700D01*
X18791491Y-36198700D01*
X18791489Y-36198700D01*
X18676917Y-36229399D01*
X18676912Y-36229401D01*
X18574190Y-36288708D01*
X18490308Y-36372590D01*
X18431001Y-36475312D01*
X18430999Y-36475317D01*
X18400300Y-36589888D01*
X15333714Y-36589888D01*
X15360489Y-36563113D01*
X15364036Y-36556969D01*
X15369191Y-36548042D01*
X15369191Y-36548041D01*
X15378691Y-36531586D01*
X15419799Y-36460386D01*
X15450499Y-36345811D01*
X15450500Y-36345811D01*
X15450500Y-36227189D01*
X15450499Y-36227188D01*
X15419800Y-36112617D01*
X15419798Y-36112612D01*
X15360491Y-36009890D01*
X15360490Y-36009889D01*
X15360489Y-36009887D01*
X15276613Y-35926011D01*
X15276610Y-35926009D01*
X15276609Y-35926008D01*
X15173887Y-35866701D01*
X15173882Y-35866699D01*
X15059311Y-35836000D01*
X15059309Y-35836000D01*
X14940691Y-35836000D01*
X14940689Y-35836000D01*
X14826117Y-35866699D01*
X14826112Y-35866701D01*
X14723390Y-35926008D01*
X14639508Y-36009890D01*
X14580201Y-36112612D01*
X14580199Y-36112617D01*
X14549500Y-36227188D01*
X1300000Y-36227188D01*
X1300000Y-34453888D01*
X6745000Y-34453888D01*
X6745000Y-34572511D01*
X6775699Y-34687082D01*
X6775701Y-34687087D01*
X6835008Y-34789809D01*
X6835009Y-34789810D01*
X6835011Y-34789813D01*
X6918887Y-34873689D01*
X6918889Y-34873690D01*
X6918890Y-34873691D01*
X7021612Y-34932998D01*
X7021614Y-34932999D01*
X7021615Y-34932999D01*
X7021617Y-34933000D01*
X7078902Y-34948349D01*
X7136188Y-34963699D01*
X7136189Y-34963700D01*
X7136191Y-34963700D01*
X7254811Y-34963700D01*
X7254811Y-34963699D01*
X7369386Y-34932999D01*
X7472113Y-34873689D01*
X7555989Y-34789813D01*
X7564137Y-34775699D01*
X7609070Y-34741222D01*
X7628223Y-34738700D01*
X15094825Y-34738700D01*
X15094833Y-34738701D01*
X15103445Y-34738701D01*
X15193154Y-34738701D01*
X15193155Y-34738701D01*
X15251760Y-34714425D01*
X15276036Y-34704370D01*
X15339470Y-34640936D01*
X15339470Y-34640935D01*
X15349875Y-34630530D01*
X15349877Y-34630527D01*
X16301615Y-33678788D01*
X18846800Y-33678788D01*
X18846800Y-33797411D01*
X18877499Y-33911982D01*
X18877501Y-33911987D01*
X18936808Y-34014709D01*
X18936809Y-34014710D01*
X18936811Y-34014713D01*
X19020687Y-34098589D01*
X19123414Y-34157899D01*
X19123415Y-34157899D01*
X19123417Y-34157900D01*
X19180702Y-34173249D01*
X19237988Y-34188599D01*
X19237989Y-34188600D01*
X19237991Y-34188600D01*
X19356611Y-34188600D01*
X19356611Y-34188599D01*
X19471186Y-34157899D01*
X19573913Y-34098589D01*
X19657789Y-34014713D01*
X19665937Y-34000599D01*
X19710870Y-33966122D01*
X19730023Y-33963600D01*
X34923043Y-33963600D01*
X34975369Y-33985274D01*
X36034565Y-35044470D01*
X36056239Y-35096796D01*
X36053718Y-35115946D01*
X36049500Y-35131688D01*
X36049500Y-35250311D01*
X36080199Y-35364882D01*
X36080201Y-35364887D01*
X36139508Y-35467609D01*
X36139509Y-35467610D01*
X36139511Y-35467613D01*
X36223387Y-35551489D01*
X36326114Y-35610799D01*
X36326115Y-35610799D01*
X36326117Y-35610800D01*
X36383402Y-35626149D01*
X36440688Y-35641499D01*
X36440689Y-35641500D01*
X36440691Y-35641500D01*
X36559311Y-35641500D01*
X36559311Y-35641499D01*
X36673886Y-35610799D01*
X36776613Y-35551489D01*
X36860489Y-35467613D01*
X36919799Y-35364886D01*
X36950499Y-35250311D01*
X36950500Y-35250311D01*
X36950500Y-35131689D01*
X36950499Y-35131688D01*
X36919800Y-35017117D01*
X36919798Y-35017112D01*
X36860491Y-34914390D01*
X36860490Y-34914389D01*
X36860489Y-34914387D01*
X36776613Y-34830511D01*
X36776610Y-34830509D01*
X36776609Y-34830508D01*
X36673887Y-34771201D01*
X36673882Y-34771199D01*
X36559311Y-34740500D01*
X36559309Y-34740500D01*
X36440691Y-34740500D01*
X36440690Y-34740500D01*
X36424946Y-34744718D01*
X36368794Y-34737324D01*
X36353470Y-34725565D01*
X35248678Y-33620773D01*
X35248678Y-33620772D01*
X35174838Y-33546932D01*
X35174836Y-33546930D01*
X35150560Y-33536874D01*
X35150558Y-33536873D01*
X35150558Y-33536872D01*
X35091955Y-33512599D01*
X35002245Y-33512599D01*
X34993633Y-33512599D01*
X34993625Y-33512600D01*
X19730023Y-33512600D01*
X19677697Y-33490926D01*
X19665937Y-33475600D01*
X19657789Y-33461487D01*
X19573913Y-33377611D01*
X19573910Y-33377609D01*
X19573909Y-33377608D01*
X19471187Y-33318301D01*
X19471182Y-33318299D01*
X19356611Y-33287600D01*
X19356609Y-33287600D01*
X19237991Y-33287600D01*
X19237989Y-33287600D01*
X19123417Y-33318299D01*
X19123412Y-33318301D01*
X19020690Y-33377608D01*
X18936808Y-33461490D01*
X18877501Y-33564212D01*
X18877499Y-33564217D01*
X18846800Y-33678788D01*
X16301615Y-33678788D01*
X16982970Y-32997433D01*
X17035295Y-32975760D01*
X17054449Y-32978282D01*
X17070190Y-32982500D01*
X17070191Y-32982500D01*
X17188811Y-32982500D01*
X17188811Y-32982499D01*
X17303386Y-32951799D01*
X17406113Y-32892489D01*
X17489989Y-32808613D01*
X17549299Y-32705886D01*
X17579999Y-32591311D01*
X17580000Y-32591311D01*
X17580000Y-32499388D01*
X21408200Y-32499388D01*
X21408200Y-32618011D01*
X21438899Y-32732582D01*
X21438901Y-32732587D01*
X21498208Y-32835309D01*
X21498209Y-32835310D01*
X21498211Y-32835313D01*
X21582087Y-32919189D01*
X21582089Y-32919190D01*
X21582090Y-32919191D01*
X21638570Y-32951800D01*
X21684814Y-32978499D01*
X21684815Y-32978499D01*
X21684817Y-32978500D01*
X21742102Y-32993849D01*
X21799388Y-33009199D01*
X21799389Y-33009200D01*
X21799391Y-33009200D01*
X21918011Y-33009200D01*
X21918011Y-33009199D01*
X22032586Y-32978499D01*
X22135313Y-32919189D01*
X22219189Y-32835313D01*
X22227337Y-32821199D01*
X22272270Y-32786722D01*
X22291423Y-32784200D01*
X35164425Y-32784200D01*
X35164433Y-32784201D01*
X35173045Y-32784201D01*
X35262754Y-32784201D01*
X35262755Y-32784201D01*
X35321360Y-32759925D01*
X35345636Y-32749870D01*
X35409070Y-32686436D01*
X35409070Y-32686435D01*
X35419475Y-32676030D01*
X35419477Y-32676027D01*
X35557870Y-32537633D01*
X35610195Y-32515960D01*
X35629349Y-32518482D01*
X35645090Y-32522700D01*
X35645091Y-32522700D01*
X35763711Y-32522700D01*
X35763711Y-32522699D01*
X35878286Y-32491999D01*
X35981013Y-32432689D01*
X36064889Y-32348813D01*
X36124199Y-32246086D01*
X36154899Y-32131511D01*
X36154900Y-32131511D01*
X36154900Y-32012889D01*
X36154899Y-32012888D01*
X36124200Y-31898317D01*
X36124198Y-31898312D01*
X36064891Y-31795590D01*
X36064890Y-31795589D01*
X36064889Y-31795587D01*
X35981013Y-31711711D01*
X35981010Y-31711709D01*
X35981009Y-31711708D01*
X35878287Y-31652401D01*
X35878282Y-31652399D01*
X35763711Y-31621700D01*
X35763709Y-31621700D01*
X35645091Y-31621700D01*
X35645089Y-31621700D01*
X35530517Y-31652399D01*
X35530512Y-31652401D01*
X35427790Y-31711708D01*
X35343908Y-31795590D01*
X35284601Y-31898312D01*
X35284599Y-31898317D01*
X35253900Y-32012888D01*
X35253900Y-32131509D01*
X35258118Y-32147252D01*
X35250724Y-32203404D01*
X35238965Y-32218729D01*
X35146169Y-32311526D01*
X35093843Y-32333200D01*
X22291423Y-32333200D01*
X22239097Y-32311526D01*
X22227337Y-32296200D01*
X22219189Y-32282087D01*
X22135313Y-32198211D01*
X22135310Y-32198209D01*
X22135309Y-32198208D01*
X22032587Y-32138901D01*
X22032582Y-32138899D01*
X21918011Y-32108200D01*
X21918009Y-32108200D01*
X21799391Y-32108200D01*
X21799389Y-32108200D01*
X21684817Y-32138899D01*
X21684812Y-32138901D01*
X21582090Y-32198208D01*
X21498208Y-32282090D01*
X21438901Y-32384812D01*
X21438899Y-32384817D01*
X21408200Y-32499388D01*
X17580000Y-32499388D01*
X17580000Y-32472689D01*
X17579999Y-32472688D01*
X17549300Y-32358117D01*
X17549298Y-32358112D01*
X17489991Y-32255390D01*
X17489990Y-32255389D01*
X17489989Y-32255387D01*
X17406113Y-32171511D01*
X17406110Y-32171509D01*
X17406109Y-32171508D01*
X17303387Y-32112201D01*
X17303382Y-32112199D01*
X17188811Y-32081500D01*
X17188809Y-32081500D01*
X17070191Y-32081500D01*
X17070189Y-32081500D01*
X16955617Y-32112199D01*
X16955612Y-32112201D01*
X16852890Y-32171508D01*
X16769008Y-32255390D01*
X16709701Y-32358112D01*
X16709699Y-32358117D01*
X16679000Y-32472688D01*
X16679000Y-32472691D01*
X16679000Y-32591309D01*
X16679001Y-32591311D01*
X16683218Y-32607050D01*
X16675825Y-32663202D01*
X16664065Y-32678528D01*
X15076569Y-34266026D01*
X15024243Y-34287700D01*
X7628223Y-34287700D01*
X7575897Y-34266026D01*
X7564137Y-34250700D01*
X7555989Y-34236587D01*
X7472113Y-34152711D01*
X7472110Y-34152709D01*
X7472109Y-34152708D01*
X7369387Y-34093401D01*
X7369382Y-34093399D01*
X7254811Y-34062700D01*
X7254809Y-34062700D01*
X7136191Y-34062700D01*
X7136189Y-34062700D01*
X7021617Y-34093399D01*
X7021612Y-34093401D01*
X6918890Y-34152708D01*
X6835008Y-34236590D01*
X6775701Y-34339312D01*
X6775699Y-34339317D01*
X6745000Y-34453888D01*
X1300000Y-34453888D01*
X1300000Y-27901460D01*
X5394500Y-27901460D01*
X5394500Y-28098539D01*
X5432947Y-28291829D01*
X5432950Y-28291839D01*
X5508367Y-28473913D01*
X5617860Y-28637781D01*
X5757218Y-28777139D01*
X5921086Y-28886632D01*
X6081755Y-28953183D01*
X6103165Y-28962051D01*
X6296459Y-29000500D01*
X6296461Y-29000500D01*
X6493539Y-29000500D01*
X6493541Y-29000500D01*
X6686835Y-28962051D01*
X6868914Y-28886632D01*
X7032782Y-28777139D01*
X7172139Y-28637782D01*
X7281632Y-28473914D01*
X7357051Y-28291835D01*
X7395500Y-28098541D01*
X7395500Y-27901459D01*
X7357051Y-27708165D01*
X7281632Y-27526086D01*
X7172139Y-27362218D01*
X7032782Y-27222861D01*
X7013984Y-27210300D01*
X6868913Y-27113367D01*
X6686839Y-27037950D01*
X6686829Y-27037947D01*
X6557388Y-27012200D01*
X6493541Y-26999500D01*
X6296459Y-26999500D01*
X6241662Y-27010399D01*
X6103170Y-27037947D01*
X6103160Y-27037950D01*
X5921086Y-27113367D01*
X5757218Y-27222860D01*
X5757217Y-27222862D01*
X5617862Y-27362217D01*
X5617860Y-27362218D01*
X5508367Y-27526086D01*
X5432950Y-27708160D01*
X5432947Y-27708170D01*
X5394500Y-27901460D01*
X1300000Y-27901460D01*
X1300000Y-18600857D01*
X1321674Y-18548531D01*
X1374000Y-18526857D01*
X1426326Y-18548531D01*
X5998729Y-23120934D01*
X5998730Y-23120936D01*
X6062164Y-23184370D01*
X6086439Y-23194425D01*
X6145045Y-23218701D01*
X6145046Y-23218701D01*
X6243367Y-23218701D01*
X6243375Y-23218700D01*
X7294243Y-23218700D01*
X7346569Y-23240374D01*
X8238499Y-24132304D01*
X8260173Y-24184630D01*
X8238499Y-24236956D01*
X8186173Y-24258630D01*
X8163306Y-24255008D01*
X7969427Y-24192012D01*
X7969414Y-24192009D01*
X7767313Y-24160000D01*
X7562687Y-24160000D01*
X7360585Y-24192009D01*
X7360572Y-24192012D01*
X7165978Y-24255240D01*
X6983650Y-24348139D01*
X6818112Y-24468410D01*
X6818106Y-24468415D01*
X6816470Y-24470049D01*
X7209056Y-24862634D01*
X7186903Y-24877437D01*
X7082437Y-24981903D01*
X7067634Y-25004056D01*
X6675049Y-24611471D01*
X6673415Y-24613106D01*
X6673410Y-24613112D01*
X6553139Y-24778650D01*
X6460240Y-24960978D01*
X6397012Y-25155572D01*
X6397009Y-25155585D01*
X6365000Y-25357687D01*
X6365000Y-25562312D01*
X6397009Y-25764414D01*
X6397012Y-25764427D01*
X6460240Y-25959021D01*
X6553139Y-26141349D01*
X6673411Y-26306888D01*
X6673420Y-26306898D01*
X6675050Y-26308528D01*
X7067634Y-25915943D01*
X7082437Y-25938097D01*
X7186903Y-26042563D01*
X7209055Y-26057364D01*
X6816471Y-26449949D01*
X6818102Y-26451580D01*
X6818111Y-26451588D01*
X6983650Y-26571860D01*
X7165978Y-26664759D01*
X7360572Y-26727987D01*
X7360585Y-26727990D01*
X7562687Y-26760000D01*
X7767313Y-26760000D01*
X7969414Y-26727990D01*
X7969427Y-26727987D01*
X8164021Y-26664759D01*
X8346349Y-26571860D01*
X8511887Y-26451589D01*
X8511899Y-26451578D01*
X8513527Y-26449949D01*
X8120943Y-26057365D01*
X8143097Y-26042563D01*
X8247563Y-25938097D01*
X8262365Y-25915943D01*
X8654949Y-26308527D01*
X8654949Y-26308528D01*
X8656578Y-26306899D01*
X8656589Y-26306887D01*
X8776860Y-26141349D01*
X8869759Y-25959021D01*
X8932987Y-25764427D01*
X8932990Y-25764414D01*
X8965000Y-25562312D01*
X8965000Y-25357687D01*
X8932990Y-25155585D01*
X8932988Y-25155576D01*
X8922165Y-25122268D01*
X8926608Y-25065806D01*
X8969675Y-25029022D01*
X8992543Y-25025400D01*
X9059311Y-25025400D01*
X9059311Y-25025399D01*
X9173886Y-24994699D01*
X9276613Y-24935389D01*
X9360489Y-24851513D01*
X9419799Y-24748786D01*
X9450499Y-24634211D01*
X9450500Y-24634211D01*
X9450500Y-24515589D01*
X9450499Y-24515588D01*
X9419800Y-24401017D01*
X9419798Y-24401012D01*
X9360491Y-24298290D01*
X9360490Y-24298289D01*
X9360489Y-24298287D01*
X9276613Y-24214411D01*
X9276610Y-24214409D01*
X9276609Y-24214408D01*
X9173887Y-24155101D01*
X9173882Y-24155099D01*
X9059311Y-24124400D01*
X9059309Y-24124400D01*
X8940691Y-24124400D01*
X8940690Y-24124400D01*
X8924946Y-24128618D01*
X8868794Y-24121224D01*
X8853470Y-24109465D01*
X7619878Y-22875873D01*
X7619878Y-22875872D01*
X7546038Y-22802032D01*
X7546036Y-22802030D01*
X7521760Y-22791974D01*
X7521758Y-22791973D01*
X7521758Y-22791972D01*
X7463155Y-22767699D01*
X7373445Y-22767699D01*
X7364833Y-22767699D01*
X7364825Y-22767700D01*
X6313957Y-22767700D01*
X6261631Y-22746026D01*
X5828382Y-22312777D01*
X5806708Y-22260451D01*
X5828382Y-22208125D01*
X5880708Y-22186451D01*
X5909025Y-22192083D01*
X5953246Y-22210401D01*
X5953247Y-22210401D01*
X6051567Y-22210401D01*
X6051575Y-22210400D01*
X8773343Y-22210400D01*
X8825669Y-22232074D01*
X12580944Y-25987349D01*
X12602618Y-26039675D01*
X12580944Y-26092001D01*
X12528618Y-26113675D01*
X12491618Y-26103761D01*
X12428182Y-26067136D01*
X12428174Y-26067133D01*
X12167742Y-25959259D01*
X12167731Y-25959255D01*
X11934536Y-25896771D01*
X11895442Y-25886296D01*
X11895440Y-25886295D01*
X11895434Y-25886294D01*
X11895435Y-25886294D01*
X11670796Y-25856720D01*
X11615951Y-25849500D01*
X11334049Y-25849500D01*
X11279203Y-25856720D01*
X11054565Y-25886294D01*
X10782268Y-25959255D01*
X10782257Y-25959259D01*
X10521825Y-26067133D01*
X10521817Y-26067136D01*
X10277683Y-26208087D01*
X10054030Y-26379704D01*
X9854704Y-26579030D01*
X9683087Y-26802683D01*
X9542136Y-27046817D01*
X9542133Y-27046825D01*
X9434259Y-27307257D01*
X9434255Y-27307268D01*
X9361294Y-27579565D01*
X9339066Y-27748411D01*
X9327708Y-27834686D01*
X9324500Y-27859050D01*
X9324500Y-28140949D01*
X9361294Y-28420434D01*
X9434255Y-28692731D01*
X9434259Y-28692742D01*
X9542133Y-28953174D01*
X9542136Y-28953182D01*
X9569456Y-29000500D01*
X9683088Y-29197317D01*
X9854700Y-29420965D01*
X10054035Y-29620300D01*
X10277683Y-29791912D01*
X10521817Y-29932863D01*
X10782261Y-30040742D01*
X11054558Y-30113704D01*
X11054564Y-30113704D01*
X11054565Y-30113705D01*
X11054564Y-30113705D01*
X11178594Y-30130033D01*
X11334049Y-30150500D01*
X11334051Y-30150500D01*
X11615949Y-30150500D01*
X11615951Y-30150500D01*
X11895442Y-30113704D01*
X12167739Y-30040742D01*
X12428183Y-29932863D01*
X12672317Y-29791912D01*
X12895965Y-29620300D01*
X13095300Y-29420965D01*
X13266912Y-29197317D01*
X13407863Y-28953183D01*
X13507733Y-28712073D01*
X13547781Y-28672025D01*
X13604418Y-28672025D01*
X13644467Y-28712073D01*
X13650100Y-28740392D01*
X13650100Y-29700342D01*
X13628426Y-29752668D01*
X13001929Y-30379165D01*
X12949603Y-30400839D01*
X12930452Y-30398318D01*
X12914709Y-30394100D01*
X12796091Y-30394100D01*
X12796089Y-30394100D01*
X12681517Y-30424799D01*
X12681512Y-30424801D01*
X12578790Y-30484108D01*
X12494908Y-30567990D01*
X12435601Y-30670712D01*
X12435599Y-30670717D01*
X12404900Y-30785288D01*
X12404900Y-30903911D01*
X12435599Y-31018482D01*
X12435601Y-31018487D01*
X12494908Y-31121209D01*
X12494909Y-31121210D01*
X12494911Y-31121213D01*
X12578787Y-31205089D01*
X12681514Y-31264399D01*
X12681515Y-31264399D01*
X12681517Y-31264400D01*
X12738802Y-31279749D01*
X12796088Y-31295099D01*
X12796089Y-31295100D01*
X12796091Y-31295100D01*
X12914711Y-31295100D01*
X12914711Y-31295099D01*
X13029286Y-31264399D01*
X13132013Y-31205089D01*
X13215889Y-31121213D01*
X13275199Y-31018486D01*
X13305899Y-30903911D01*
X13305900Y-30903911D01*
X13305900Y-30785289D01*
X13301682Y-30769549D01*
X13309074Y-30713396D01*
X13320830Y-30698073D01*
X13992927Y-30025977D01*
X13992930Y-30025975D01*
X14003335Y-30015570D01*
X14003336Y-30015570D01*
X14066770Y-29952136D01*
X14080990Y-29917805D01*
X14101101Y-29869254D01*
X14101101Y-29779545D01*
X14101101Y-29773587D01*
X14101100Y-29773573D01*
X14101100Y-27259457D01*
X14122774Y-27207131D01*
X14175100Y-27185457D01*
X14227426Y-27207131D01*
X14534565Y-27514270D01*
X14556239Y-27566596D01*
X14553718Y-27585746D01*
X14549500Y-27601488D01*
X14549500Y-27720111D01*
X14580199Y-27834682D01*
X14580201Y-27834687D01*
X14639508Y-27937409D01*
X14639509Y-27937410D01*
X14639511Y-27937413D01*
X14723387Y-28021289D01*
X14826114Y-28080599D01*
X14826115Y-28080599D01*
X14826117Y-28080600D01*
X14883402Y-28095949D01*
X14940688Y-28111299D01*
X14940689Y-28111300D01*
X14940691Y-28111300D01*
X15059311Y-28111300D01*
X15059311Y-28111299D01*
X15173886Y-28080599D01*
X15276613Y-28021289D01*
X15360489Y-27937413D01*
X15419799Y-27834686D01*
X15419800Y-27834682D01*
X15421458Y-27831811D01*
X15466391Y-27797333D01*
X15522544Y-27804725D01*
X15557022Y-27849658D01*
X15558123Y-27883245D01*
X15554500Y-27901459D01*
X15554500Y-27901460D01*
X15554500Y-27901462D01*
X15554500Y-28098539D01*
X15592947Y-28291829D01*
X15592950Y-28291839D01*
X15668367Y-28473913D01*
X15777860Y-28637781D01*
X15917218Y-28777139D01*
X16081086Y-28886632D01*
X16241755Y-28953183D01*
X16263165Y-28962051D01*
X16456459Y-29000500D01*
X16456461Y-29000500D01*
X16653539Y-29000500D01*
X16653541Y-29000500D01*
X16846835Y-28962051D01*
X17028914Y-28886632D01*
X17192782Y-28777139D01*
X17332139Y-28637782D01*
X17441632Y-28473914D01*
X17517051Y-28291835D01*
X17555500Y-28098541D01*
X17555500Y-27901460D01*
X24444500Y-27901460D01*
X24444500Y-28098539D01*
X24482947Y-28291829D01*
X24482950Y-28291839D01*
X24558367Y-28473913D01*
X24667860Y-28637781D01*
X24807218Y-28777139D01*
X24971086Y-28886632D01*
X25131755Y-28953183D01*
X25153165Y-28962051D01*
X25346459Y-29000500D01*
X25346461Y-29000500D01*
X25543539Y-29000500D01*
X25543541Y-29000500D01*
X25736835Y-28962051D01*
X25918914Y-28886632D01*
X26082782Y-28777139D01*
X26222139Y-28637782D01*
X26331632Y-28473914D01*
X26407051Y-28291835D01*
X26445500Y-28098541D01*
X26445500Y-27901459D01*
X26437064Y-27859050D01*
X28374500Y-27859050D01*
X28374500Y-28140949D01*
X28411294Y-28420434D01*
X28484255Y-28692731D01*
X28484259Y-28692742D01*
X28592133Y-28953174D01*
X28592136Y-28953182D01*
X28619456Y-29000500D01*
X28733088Y-29197317D01*
X28904700Y-29420965D01*
X29104035Y-29620300D01*
X29327683Y-29791912D01*
X29571817Y-29932863D01*
X29832261Y-30040742D01*
X30104558Y-30113704D01*
X30104564Y-30113704D01*
X30104565Y-30113705D01*
X30104564Y-30113705D01*
X30228594Y-30130033D01*
X30384049Y-30150500D01*
X30384051Y-30150500D01*
X30665949Y-30150500D01*
X30665951Y-30150500D01*
X30945442Y-30113704D01*
X31217739Y-30040742D01*
X31478183Y-29932863D01*
X31722317Y-29791912D01*
X31945965Y-29620300D01*
X32145300Y-29420965D01*
X32316912Y-29197317D01*
X32457863Y-28953183D01*
X32565742Y-28692739D01*
X32638704Y-28420442D01*
X32675500Y-28140951D01*
X32675500Y-27901460D01*
X34604500Y-27901460D01*
X34604500Y-28098539D01*
X34642947Y-28291829D01*
X34642950Y-28291839D01*
X34718367Y-28473913D01*
X34827860Y-28637781D01*
X34967218Y-28777139D01*
X35131086Y-28886632D01*
X35291755Y-28953183D01*
X35313165Y-28962051D01*
X35506459Y-29000500D01*
X35506461Y-29000500D01*
X35703539Y-29000500D01*
X35703541Y-29000500D01*
X35896835Y-28962051D01*
X36078914Y-28886632D01*
X36242782Y-28777139D01*
X36382139Y-28637782D01*
X36491632Y-28473914D01*
X36567051Y-28291835D01*
X36605500Y-28098541D01*
X36605500Y-27901459D01*
X36567051Y-27708165D01*
X36491632Y-27526086D01*
X36382139Y-27362218D01*
X36242782Y-27222861D01*
X36223984Y-27210300D01*
X36078913Y-27113367D01*
X35896839Y-27037950D01*
X35896829Y-27037947D01*
X35767388Y-27012200D01*
X35703541Y-26999500D01*
X35506459Y-26999500D01*
X35451662Y-27010399D01*
X35313170Y-27037947D01*
X35313160Y-27037950D01*
X35131086Y-27113367D01*
X34967218Y-27222860D01*
X34967217Y-27222862D01*
X34827862Y-27362217D01*
X34827860Y-27362218D01*
X34718367Y-27526086D01*
X34642950Y-27708160D01*
X34642947Y-27708170D01*
X34604500Y-27901460D01*
X32675500Y-27901460D01*
X32675500Y-27859049D01*
X32638704Y-27579558D01*
X32565742Y-27307261D01*
X32457863Y-27046817D01*
X32316912Y-26802683D01*
X32145300Y-26579035D01*
X31945965Y-26379700D01*
X31722317Y-26208088D01*
X31722318Y-26208088D01*
X31722316Y-26208087D01*
X31478182Y-26067136D01*
X31478174Y-26067133D01*
X31217742Y-25959259D01*
X31217731Y-25959255D01*
X30984536Y-25896771D01*
X30945442Y-25886296D01*
X30945440Y-25886295D01*
X30945434Y-25886294D01*
X30945435Y-25886294D01*
X30720796Y-25856720D01*
X30665951Y-25849500D01*
X30384049Y-25849500D01*
X30329203Y-25856720D01*
X30104565Y-25886294D01*
X29832268Y-25959255D01*
X29832257Y-25959259D01*
X29571825Y-26067133D01*
X29571817Y-26067136D01*
X29327683Y-26208087D01*
X29104030Y-26379704D01*
X28904704Y-26579030D01*
X28733087Y-26802683D01*
X28592136Y-27046817D01*
X28592133Y-27046825D01*
X28484259Y-27307257D01*
X28484255Y-27307268D01*
X28411294Y-27579565D01*
X28389066Y-27748411D01*
X28377708Y-27834686D01*
X28374500Y-27859050D01*
X26437064Y-27859050D01*
X26407052Y-27708170D01*
X26407051Y-27708169D01*
X26407051Y-27708165D01*
X26331632Y-27526086D01*
X26222139Y-27362218D01*
X26082782Y-27222861D01*
X26063984Y-27210300D01*
X25918913Y-27113367D01*
X25736839Y-27037950D01*
X25736829Y-27037947D01*
X25607388Y-27012200D01*
X25543541Y-26999500D01*
X25346459Y-26999500D01*
X25291662Y-27010399D01*
X25153170Y-27037947D01*
X25153160Y-27037950D01*
X24971086Y-27113367D01*
X24807218Y-27222860D01*
X24807217Y-27222862D01*
X24667862Y-27362217D01*
X24667860Y-27362218D01*
X24558367Y-27526086D01*
X24482950Y-27708160D01*
X24482947Y-27708170D01*
X24444500Y-27901460D01*
X17555500Y-27901460D01*
X17555500Y-27901459D01*
X17517051Y-27708165D01*
X17441632Y-27526086D01*
X17332139Y-27362218D01*
X17192782Y-27222861D01*
X17173984Y-27210300D01*
X17028913Y-27113367D01*
X16846839Y-27037950D01*
X16846829Y-27037947D01*
X16717388Y-27012200D01*
X16653541Y-26999500D01*
X16456459Y-26999500D01*
X16401662Y-27010399D01*
X16263170Y-27037947D01*
X16263160Y-27037950D01*
X16081086Y-27113367D01*
X15917218Y-27222860D01*
X15917217Y-27222862D01*
X15777862Y-27362217D01*
X15777860Y-27362218D01*
X15668367Y-27526086D01*
X15592867Y-27708362D01*
X15552819Y-27748411D01*
X15496182Y-27748411D01*
X15456133Y-27708363D01*
X15450500Y-27680044D01*
X15450500Y-27601489D01*
X15450499Y-27601488D01*
X15419800Y-27486917D01*
X15419798Y-27486912D01*
X15360491Y-27384190D01*
X15360490Y-27384189D01*
X15360489Y-27384187D01*
X15276613Y-27300311D01*
X15276610Y-27300309D01*
X15276609Y-27300308D01*
X15173887Y-27241001D01*
X15173882Y-27240999D01*
X15059311Y-27210300D01*
X15059309Y-27210300D01*
X14940691Y-27210300D01*
X14940690Y-27210300D01*
X14924946Y-27214518D01*
X14868794Y-27207124D01*
X14853470Y-27195365D01*
X13015792Y-25357687D01*
X25415000Y-25357687D01*
X25415000Y-25562312D01*
X25447009Y-25764414D01*
X25447012Y-25764427D01*
X25510240Y-25959021D01*
X25603139Y-26141349D01*
X25723411Y-26306888D01*
X25723420Y-26306898D01*
X25725050Y-26308528D01*
X26117634Y-25915943D01*
X26132437Y-25938097D01*
X26236903Y-26042563D01*
X26259055Y-26057364D01*
X25866471Y-26449949D01*
X25868102Y-26451580D01*
X25868111Y-26451588D01*
X26033650Y-26571860D01*
X26215978Y-26664759D01*
X26410572Y-26727987D01*
X26410585Y-26727990D01*
X26612687Y-26760000D01*
X26817313Y-26760000D01*
X27019414Y-26727990D01*
X27019427Y-26727987D01*
X27214021Y-26664759D01*
X27396349Y-26571860D01*
X27561887Y-26451589D01*
X27561899Y-26451578D01*
X27563527Y-26449949D01*
X27170943Y-26057365D01*
X27193097Y-26042563D01*
X27297563Y-25938097D01*
X27312365Y-25915943D01*
X27704949Y-26308527D01*
X27706578Y-26306899D01*
X27706589Y-26306887D01*
X27826860Y-26141349D01*
X27919759Y-25959021D01*
X27982987Y-25764427D01*
X27982990Y-25764414D01*
X28015000Y-25562312D01*
X28015000Y-25357687D01*
X27982990Y-25155585D01*
X27982987Y-25155572D01*
X27919759Y-24960978D01*
X27826860Y-24778650D01*
X27706588Y-24613111D01*
X27706580Y-24613102D01*
X27704949Y-24611471D01*
X27312364Y-25004055D01*
X27297563Y-24981903D01*
X27193097Y-24877437D01*
X27170943Y-24862634D01*
X27563528Y-24470050D01*
X27561898Y-24468420D01*
X27561888Y-24468411D01*
X27396349Y-24348139D01*
X27214021Y-24255240D01*
X27019427Y-24192012D01*
X27019414Y-24192009D01*
X26817313Y-24160000D01*
X26612687Y-24160000D01*
X26410585Y-24192009D01*
X26410572Y-24192012D01*
X26215978Y-24255240D01*
X26033650Y-24348139D01*
X25868112Y-24468410D01*
X25868106Y-24468415D01*
X25866471Y-24470049D01*
X26259056Y-24862634D01*
X26236903Y-24877437D01*
X26132437Y-24981903D01*
X26117634Y-25004056D01*
X25725049Y-24611471D01*
X25723415Y-24613106D01*
X25723410Y-24613112D01*
X25603139Y-24778650D01*
X25510240Y-24960978D01*
X25447012Y-25155572D01*
X25447009Y-25155585D01*
X25415000Y-25357687D01*
X13015792Y-25357687D01*
X5314978Y-17656873D01*
X5314978Y-17656872D01*
X5241137Y-17583031D01*
X5241133Y-17583028D01*
X5208474Y-17569501D01*
X5158255Y-17548699D01*
X5068545Y-17548699D01*
X5059933Y-17548699D01*
X5059925Y-17548700D01*
X4609623Y-17548700D01*
X4557297Y-17527026D01*
X4545537Y-17511700D01*
X4541209Y-17504204D01*
X4537389Y-17497587D01*
X4453513Y-17413711D01*
X4453510Y-17413709D01*
X4453509Y-17413708D01*
X4350787Y-17354401D01*
X4350782Y-17354399D01*
X4236211Y-17323700D01*
X4236209Y-17323700D01*
X4117591Y-17323700D01*
X4117589Y-17323700D01*
X4003017Y-17354399D01*
X4003012Y-17354401D01*
X3900290Y-17413708D01*
X3816408Y-17497590D01*
X3757101Y-17600312D01*
X3757099Y-17600317D01*
X3726400Y-17714888D01*
X3726400Y-17833511D01*
X3757099Y-17948082D01*
X3757101Y-17948087D01*
X3816408Y-18050809D01*
X3816409Y-18050810D01*
X3816411Y-18050813D01*
X3900287Y-18134689D01*
X3900289Y-18134690D01*
X3900290Y-18134691D01*
X4003012Y-18193998D01*
X4003014Y-18193999D01*
X4003015Y-18193999D01*
X4003017Y-18194000D01*
X4042200Y-18204499D01*
X4117588Y-18224699D01*
X4117589Y-18224700D01*
X4117591Y-18224700D01*
X4236211Y-18224700D01*
X4236211Y-18224699D01*
X4350786Y-18193999D01*
X4453513Y-18134689D01*
X4537389Y-18050813D01*
X4545537Y-18036699D01*
X4590470Y-18002222D01*
X4609623Y-17999700D01*
X4989343Y-17999700D01*
X5041669Y-18021374D01*
X8653369Y-21633074D01*
X8675043Y-21685400D01*
X8653369Y-21737726D01*
X8601043Y-21759400D01*
X6122157Y-21759400D01*
X6069831Y-21737726D01*
X2304434Y-17972329D01*
X2282760Y-17920003D01*
X2285281Y-17900853D01*
X2289500Y-17885109D01*
X2289500Y-17766491D01*
X2289500Y-17766489D01*
X2289499Y-17766488D01*
X2287886Y-17760470D01*
X2274149Y-17709202D01*
X2258800Y-17651917D01*
X2258798Y-17651912D01*
X2199491Y-17549190D01*
X2199490Y-17549189D01*
X2199489Y-17549187D01*
X2115613Y-17465311D01*
X2115610Y-17465309D01*
X2115609Y-17465308D01*
X2012887Y-17406001D01*
X2012882Y-17405999D01*
X1950813Y-17389368D01*
X1905880Y-17354890D01*
X1898488Y-17298737D01*
X1917638Y-17265566D01*
X2885431Y-16297774D01*
X2937757Y-16276100D01*
X4722325Y-16276100D01*
X4722333Y-16276101D01*
X4730945Y-16276101D01*
X4820654Y-16276101D01*
X4820655Y-16276101D01*
X4883775Y-16249955D01*
X4903536Y-16241770D01*
X4966970Y-16178336D01*
X4966970Y-16178335D01*
X4977375Y-16167930D01*
X4977376Y-16167927D01*
X5203009Y-15942294D01*
X5255333Y-15920622D01*
X5307659Y-15942296D01*
X5326811Y-15975468D01*
X5333300Y-15999683D01*
X5333301Y-15999687D01*
X5392608Y-16102409D01*
X5392609Y-16102410D01*
X5392611Y-16102413D01*
X5476487Y-16186289D01*
X5476489Y-16186290D01*
X5476490Y-16186291D01*
X5572582Y-16241770D01*
X5579214Y-16245599D01*
X5579215Y-16245599D01*
X5579217Y-16245600D01*
X5605353Y-16252603D01*
X5693788Y-16276299D01*
X5693789Y-16276300D01*
X5693791Y-16276300D01*
X5812411Y-16276300D01*
X5812411Y-16276299D01*
X5926986Y-16245599D01*
X6029713Y-16186289D01*
X6113589Y-16102413D01*
X6172899Y-15999686D01*
X6203599Y-15885111D01*
X6203600Y-15885111D01*
X6203600Y-15766489D01*
X6203599Y-15766488D01*
X6172900Y-15651917D01*
X6172898Y-15651912D01*
X6113591Y-15549190D01*
X6113590Y-15549189D01*
X6113589Y-15549187D01*
X6029713Y-15465311D01*
X6029710Y-15465309D01*
X6029709Y-15465308D01*
X5926987Y-15406001D01*
X5926985Y-15406000D01*
X5902768Y-15399511D01*
X5857836Y-15365031D01*
X5850445Y-15308878D01*
X5869595Y-15275709D01*
X9548031Y-11597274D01*
X9600357Y-11575600D01*
X9767743Y-11575600D01*
X9820069Y-11597274D01*
X9841743Y-11649600D01*
X9820069Y-11701925D01*
X8334530Y-13187464D01*
X7195465Y-14326529D01*
X7132030Y-14389964D01*
X7126397Y-14403563D01*
X7097699Y-14472844D01*
X7097699Y-14571166D01*
X7097700Y-14571175D01*
X7097700Y-17250173D01*
X7097699Y-17250187D01*
X7097699Y-17345855D01*
X7115511Y-17388856D01*
X7132028Y-17428733D01*
X7132031Y-17428737D01*
X7205871Y-17502577D01*
X7205873Y-17502578D01*
X12746809Y-23043514D01*
X12746812Y-23043518D01*
X12755550Y-23052256D01*
X12776313Y-23093006D01*
X12795290Y-23212823D01*
X12795293Y-23212836D01*
X12856113Y-23400019D01*
X12856115Y-23400024D01*
X12856116Y-23400025D01*
X12945476Y-23575405D01*
X13061172Y-23734646D01*
X13200354Y-23873828D01*
X13359595Y-23989524D01*
X13534975Y-24078884D01*
X13534977Y-24078884D01*
X13534980Y-24078886D01*
X13722163Y-24139706D01*
X13722169Y-24139707D01*
X13722174Y-24139709D01*
X13850288Y-24160000D01*
X13916582Y-24170500D01*
X13916583Y-24170500D01*
X14113418Y-24170500D01*
X14179712Y-24160000D01*
X14307826Y-24139709D01*
X14307833Y-24139706D01*
X14307836Y-24139706D01*
X14495019Y-24078886D01*
X14495019Y-24078885D01*
X14495025Y-24078884D01*
X14670405Y-23989524D01*
X14829646Y-23873828D01*
X14968828Y-23734646D01*
X15084524Y-23575405D01*
X15173884Y-23400025D01*
X15232800Y-23218701D01*
X15234706Y-23212836D01*
X15234706Y-23212833D01*
X15234709Y-23212826D01*
X15265500Y-23018417D01*
X15265500Y-22821583D01*
X15265500Y-22821582D01*
X31814500Y-22821582D01*
X31814500Y-23018417D01*
X31845290Y-23212823D01*
X31845293Y-23212836D01*
X31906113Y-23400019D01*
X31906115Y-23400024D01*
X31906116Y-23400025D01*
X31995476Y-23575405D01*
X32111172Y-23734646D01*
X32250354Y-23873828D01*
X32409595Y-23989524D01*
X32584975Y-24078884D01*
X32584977Y-24078884D01*
X32584980Y-24078886D01*
X32772163Y-24139706D01*
X32772169Y-24139707D01*
X32772174Y-24139709D01*
X32900288Y-24160000D01*
X32966582Y-24170500D01*
X32966583Y-24170500D01*
X33163418Y-24170500D01*
X33229712Y-24160000D01*
X33357826Y-24139709D01*
X33357833Y-24139706D01*
X33357836Y-24139706D01*
X33545019Y-24078886D01*
X33545019Y-24078885D01*
X33545025Y-24078884D01*
X33720405Y-23989524D01*
X33879646Y-23873828D01*
X34018828Y-23734646D01*
X34134524Y-23575405D01*
X34223884Y-23400025D01*
X34282800Y-23218701D01*
X34284706Y-23212836D01*
X34284706Y-23212833D01*
X34284709Y-23212826D01*
X34315500Y-23018417D01*
X34315500Y-22821583D01*
X34312403Y-22802032D01*
X34284709Y-22627176D01*
X34284706Y-22627163D01*
X34223886Y-22439980D01*
X34223884Y-22439977D01*
X34223884Y-22439975D01*
X34134524Y-22264595D01*
X34077749Y-22186451D01*
X34018831Y-22105358D01*
X34018830Y-22105357D01*
X34018828Y-22105354D01*
X33879646Y-21966172D01*
X33879643Y-21966169D01*
X33879641Y-21966168D01*
X33720404Y-21850475D01*
X33545019Y-21761113D01*
X33357836Y-21700293D01*
X33357823Y-21700290D01*
X33163418Y-21669500D01*
X33163417Y-21669500D01*
X32966583Y-21669500D01*
X32966582Y-21669500D01*
X32772176Y-21700290D01*
X32772163Y-21700293D01*
X32584980Y-21761113D01*
X32409595Y-21850475D01*
X32250358Y-21966168D01*
X32111168Y-22105358D01*
X31995475Y-22264595D01*
X31906113Y-22439980D01*
X31845293Y-22627163D01*
X31845290Y-22627176D01*
X31814500Y-22821582D01*
X15265500Y-22821582D01*
X15262403Y-22802032D01*
X15234709Y-22627176D01*
X15234706Y-22627163D01*
X15173886Y-22439980D01*
X15173884Y-22439977D01*
X15173884Y-22439975D01*
X15084524Y-22264595D01*
X15027749Y-22186451D01*
X14968831Y-22105358D01*
X14968830Y-22105357D01*
X14968828Y-22105354D01*
X14829646Y-21966172D01*
X14829643Y-21966169D01*
X14829641Y-21966168D01*
X14670404Y-21850475D01*
X14495019Y-21761113D01*
X14307836Y-21700293D01*
X14307823Y-21700290D01*
X14113418Y-21669500D01*
X14113417Y-21669500D01*
X13916583Y-21669500D01*
X13916582Y-21669500D01*
X13722176Y-21700290D01*
X13722163Y-21700293D01*
X13534980Y-21761113D01*
X13359595Y-21850475D01*
X13200358Y-21966168D01*
X13061168Y-22105358D01*
X12945475Y-22264595D01*
X12945470Y-22264604D01*
X12877027Y-22398931D01*
X12833960Y-22435714D01*
X12777498Y-22431270D01*
X12758767Y-22417662D01*
X11019831Y-20678726D01*
X10998157Y-20626400D01*
X11019831Y-20574074D01*
X11072157Y-20552400D01*
X12235477Y-20552400D01*
X12287803Y-20574074D01*
X12299562Y-20589399D01*
X12307711Y-20603513D01*
X12391587Y-20687389D01*
X12494314Y-20746699D01*
X12494315Y-20746699D01*
X12494317Y-20746700D01*
X12551602Y-20762049D01*
X12608888Y-20777399D01*
X12608889Y-20777400D01*
X12608891Y-20777400D01*
X12727511Y-20777400D01*
X12727511Y-20777399D01*
X12842086Y-20746699D01*
X12944813Y-20687389D01*
X13028689Y-20603513D01*
X13087999Y-20500786D01*
X13118699Y-20386211D01*
X13118700Y-20386211D01*
X13118700Y-20267589D01*
X13118699Y-20267588D01*
X13088000Y-20153017D01*
X13087998Y-20153012D01*
X13064031Y-20111500D01*
X13056638Y-20055347D01*
X13091117Y-20010414D01*
X13128117Y-20000500D01*
X22948525Y-20000500D01*
X22948533Y-20000501D01*
X22957145Y-20000501D01*
X23046854Y-20000501D01*
X23046855Y-20000501D01*
X23105460Y-19976225D01*
X23129736Y-19966170D01*
X23193170Y-19902736D01*
X23193170Y-19902735D01*
X23203575Y-19892330D01*
X23203577Y-19892327D01*
X24827870Y-18268033D01*
X24880195Y-18246360D01*
X24899349Y-18248882D01*
X24915090Y-18253100D01*
X24915091Y-18253100D01*
X25033707Y-18253100D01*
X25033709Y-18253100D01*
X25049448Y-18248882D01*
X25105599Y-18256272D01*
X25120928Y-18268034D01*
X25388729Y-18535835D01*
X25388730Y-18535836D01*
X25452164Y-18599270D01*
X25535045Y-18633600D01*
X37998599Y-18633600D01*
X38050925Y-18655274D01*
X38072599Y-18707600D01*
X38062685Y-18744600D01*
X38017701Y-18822512D01*
X38017699Y-18822517D01*
X37987000Y-18937088D01*
X37987000Y-19055711D01*
X38017699Y-19170282D01*
X38017701Y-19170287D01*
X38077008Y-19273009D01*
X38077009Y-19273010D01*
X38077011Y-19273013D01*
X38160887Y-19356889D01*
X38160889Y-19356890D01*
X38160890Y-19356891D01*
X38207541Y-19383825D01*
X38263614Y-19416199D01*
X38263615Y-19416199D01*
X38263617Y-19416200D01*
X38295000Y-19424609D01*
X38378188Y-19446899D01*
X38378189Y-19446900D01*
X38378191Y-19446900D01*
X38496811Y-19446900D01*
X38496811Y-19446899D01*
X38611386Y-19416199D01*
X38714113Y-19356889D01*
X38797989Y-19273013D01*
X38797990Y-19273010D01*
X38801418Y-19269583D01*
X38802589Y-19270754D01*
X38846481Y-19245402D01*
X38901191Y-19260050D01*
X38927632Y-19299612D01*
X38933600Y-19321885D01*
X38933601Y-19321887D01*
X38992908Y-19424609D01*
X38992909Y-19424610D01*
X38992911Y-19424613D01*
X39076787Y-19508489D01*
X39179514Y-19567799D01*
X39179515Y-19567799D01*
X39179517Y-19567800D01*
X39236802Y-19583149D01*
X39294088Y-19598499D01*
X39294089Y-19598500D01*
X39294091Y-19598500D01*
X39412711Y-19598500D01*
X39412711Y-19598499D01*
X39527286Y-19567799D01*
X39630013Y-19508489D01*
X39713889Y-19424613D01*
X39773199Y-19321886D01*
X39803899Y-19207311D01*
X39803900Y-19207311D01*
X39803900Y-19088689D01*
X39803899Y-19088688D01*
X39801654Y-19080311D01*
X39788549Y-19031402D01*
X39773200Y-18974117D01*
X39773198Y-18974112D01*
X39713891Y-18871390D01*
X39713890Y-18871389D01*
X39713889Y-18871387D01*
X39630013Y-18787511D01*
X39630010Y-18787509D01*
X39630009Y-18787508D01*
X39527287Y-18728201D01*
X39527282Y-18728199D01*
X39412711Y-18697500D01*
X39412709Y-18697500D01*
X39294091Y-18697500D01*
X39294090Y-18697500D01*
X39278346Y-18701718D01*
X39222194Y-18694324D01*
X39206870Y-18682565D01*
X38815078Y-18290773D01*
X38815078Y-18290772D01*
X38741237Y-18216931D01*
X38741236Y-18216930D01*
X38711225Y-18204499D01*
X38658355Y-18182599D01*
X38568645Y-18182599D01*
X38560033Y-18182599D01*
X38560025Y-18182600D01*
X36949410Y-18182600D01*
X36897084Y-18160926D01*
X36875410Y-18108600D01*
X36887881Y-18067488D01*
X36965332Y-17951573D01*
X37018097Y-17824186D01*
X37018100Y-17824176D01*
X37038821Y-17720000D01*
X36628788Y-17720000D01*
X36645000Y-17659496D01*
X36645000Y-17580504D01*
X36628788Y-17520000D01*
X37038822Y-17520000D01*
X37038821Y-17519999D01*
X37018100Y-17415823D01*
X37018097Y-17415813D01*
X36965332Y-17288426D01*
X36888726Y-17173776D01*
X36791223Y-17076273D01*
X36676573Y-16999667D01*
X36549186Y-16946902D01*
X36549176Y-16946899D01*
X36413942Y-16920000D01*
X35895000Y-16920000D01*
X35895000Y-17320000D01*
X35695000Y-17320000D01*
X35695000Y-16920000D01*
X35176058Y-16920000D01*
X35040823Y-16946899D01*
X35040813Y-16946902D01*
X34913426Y-16999667D01*
X34798776Y-17076273D01*
X34798775Y-17076275D01*
X34701275Y-17173775D01*
X34701273Y-17173776D01*
X34624667Y-17288426D01*
X34571902Y-17415813D01*
X34571899Y-17415823D01*
X34551178Y-17519999D01*
X34551178Y-17520000D01*
X34961212Y-17520000D01*
X34945000Y-17580504D01*
X34945000Y-17659496D01*
X34961212Y-17720000D01*
X34551178Y-17720000D01*
X34571899Y-17824176D01*
X34571902Y-17824186D01*
X34624667Y-17951573D01*
X34702119Y-18067488D01*
X34713168Y-18123037D01*
X34681702Y-18170129D01*
X34640590Y-18182600D01*
X25703958Y-18182600D01*
X25651632Y-18160926D01*
X25439834Y-17949128D01*
X25418160Y-17896802D01*
X25420680Y-17877654D01*
X25424900Y-17861909D01*
X25424900Y-17743291D01*
X25424900Y-17743289D01*
X25424899Y-17743288D01*
X25422058Y-17732687D01*
X25400416Y-17651917D01*
X25394200Y-17628717D01*
X25394198Y-17628712D01*
X25334891Y-17525990D01*
X25334890Y-17525989D01*
X25334889Y-17525987D01*
X25251013Y-17442111D01*
X25251010Y-17442109D01*
X25251009Y-17442108D01*
X25148287Y-17382801D01*
X25148282Y-17382799D01*
X25033711Y-17352100D01*
X25033709Y-17352100D01*
X24915091Y-17352100D01*
X24915089Y-17352100D01*
X24800517Y-17382799D01*
X24800512Y-17382801D01*
X24697790Y-17442108D01*
X24613908Y-17525990D01*
X24554601Y-17628712D01*
X24554599Y-17628717D01*
X24523900Y-17743288D01*
X24523900Y-17743291D01*
X24523900Y-17861909D01*
X24528117Y-17877646D01*
X24528118Y-17877650D01*
X24520725Y-17933802D01*
X24508965Y-17949128D01*
X22930269Y-19527826D01*
X22877943Y-19549500D01*
X21499034Y-19549500D01*
X21446708Y-19527826D01*
X21425034Y-19475500D01*
X21434948Y-19438500D01*
X21452499Y-19408100D01*
X21482299Y-19356486D01*
X21512999Y-19241911D01*
X21513000Y-19241911D01*
X21513000Y-19123289D01*
X21512999Y-19123288D01*
X21482300Y-19008717D01*
X21482298Y-19008712D01*
X21422991Y-18905990D01*
X21422990Y-18905989D01*
X21422989Y-18905987D01*
X21339113Y-18822111D01*
X21339110Y-18822109D01*
X21339109Y-18822108D01*
X21236387Y-18762801D01*
X21236382Y-18762799D01*
X21121811Y-18732100D01*
X21121809Y-18732100D01*
X21003191Y-18732100D01*
X21003189Y-18732100D01*
X20888617Y-18762799D01*
X20888612Y-18762801D01*
X20785890Y-18822108D01*
X20702011Y-18905986D01*
X20693863Y-18920100D01*
X20648930Y-18954578D01*
X20629777Y-18957100D01*
X11454857Y-18957100D01*
X11402531Y-18935426D01*
X10192493Y-17725388D01*
X11159200Y-17725388D01*
X11159200Y-17844011D01*
X11189899Y-17958582D01*
X11189901Y-17958587D01*
X11249208Y-18061309D01*
X11249209Y-18061310D01*
X11249211Y-18061313D01*
X11333087Y-18145189D01*
X11333089Y-18145190D01*
X11333090Y-18145191D01*
X11417629Y-18194000D01*
X11435814Y-18204499D01*
X11435815Y-18204499D01*
X11435817Y-18204500D01*
X11493102Y-18219849D01*
X11550388Y-18235199D01*
X11550389Y-18235200D01*
X11550391Y-18235200D01*
X11669011Y-18235200D01*
X11669011Y-18235199D01*
X11783586Y-18204499D01*
X11886313Y-18145189D01*
X11970189Y-18061313D01*
X12029499Y-17958586D01*
X12060199Y-17844011D01*
X12060200Y-17844011D01*
X12060200Y-17725389D01*
X12060199Y-17725388D01*
X12057386Y-17714891D01*
X12039052Y-17646465D01*
X12029500Y-17610817D01*
X12029498Y-17610812D01*
X11970191Y-17508090D01*
X11970190Y-17508089D01*
X11970189Y-17508087D01*
X11886313Y-17424211D01*
X11886310Y-17424209D01*
X11886309Y-17424208D01*
X11783587Y-17364901D01*
X11783582Y-17364899D01*
X11669011Y-17334200D01*
X11669009Y-17334200D01*
X11550391Y-17334200D01*
X11550389Y-17334200D01*
X11435817Y-17364899D01*
X11435812Y-17364901D01*
X11333090Y-17424208D01*
X11249208Y-17508090D01*
X11189901Y-17610812D01*
X11189899Y-17610817D01*
X11159200Y-17725388D01*
X10192493Y-17725388D01*
X9755031Y-17287926D01*
X9733357Y-17235600D01*
X9755031Y-17183274D01*
X9807357Y-17161600D01*
X14878243Y-17161600D01*
X14930569Y-17183274D01*
X15159565Y-17412270D01*
X15181239Y-17464596D01*
X15178718Y-17483746D01*
X15174500Y-17499488D01*
X15174500Y-17618111D01*
X15205199Y-17732682D01*
X15205201Y-17732687D01*
X15264508Y-17835409D01*
X15264509Y-17835410D01*
X15264511Y-17835413D01*
X15348387Y-17919289D01*
X15348389Y-17919290D01*
X15348390Y-17919291D01*
X15440254Y-17972329D01*
X15451114Y-17978599D01*
X15451115Y-17978599D01*
X15451117Y-17978600D01*
X15490300Y-17989099D01*
X15565688Y-18009299D01*
X15565689Y-18009300D01*
X15565691Y-18009300D01*
X15684311Y-18009300D01*
X15684311Y-18009299D01*
X15798886Y-17978599D01*
X15901613Y-17919289D01*
X15985489Y-17835413D01*
X16044799Y-17732686D01*
X16075499Y-17618111D01*
X16075500Y-17618111D01*
X16075500Y-17499489D01*
X16075499Y-17499488D01*
X16074990Y-17497590D01*
X16053081Y-17415823D01*
X16044800Y-17384917D01*
X16044798Y-17384912D01*
X15985491Y-17282190D01*
X15985490Y-17282189D01*
X15985489Y-17282187D01*
X15901613Y-17198311D01*
X15901610Y-17198309D01*
X15901609Y-17198308D01*
X15798887Y-17139001D01*
X15798882Y-17138999D01*
X15684311Y-17108300D01*
X15684309Y-17108300D01*
X15565691Y-17108300D01*
X15565690Y-17108300D01*
X15549946Y-17112518D01*
X15493794Y-17105124D01*
X15478470Y-17093365D01*
X15203878Y-16818773D01*
X15203878Y-16818772D01*
X15145050Y-16759944D01*
X15123376Y-16707618D01*
X15145050Y-16655292D01*
X15163777Y-16641686D01*
X15305405Y-16569524D01*
X15464646Y-16453828D01*
X15603828Y-16314646D01*
X15719524Y-16155405D01*
X15808884Y-15980025D01*
X15839724Y-15885111D01*
X15849622Y-15854648D01*
X15886405Y-15811580D01*
X15942867Y-15807137D01*
X15985935Y-15843920D01*
X15990378Y-15854648D01*
X16031113Y-15980019D01*
X16120475Y-16155404D01*
X16223913Y-16297774D01*
X16236172Y-16314646D01*
X16375354Y-16453828D01*
X16534595Y-16569524D01*
X16709975Y-16658884D01*
X16709977Y-16658884D01*
X16709980Y-16658886D01*
X16897163Y-16719706D01*
X16897169Y-16719707D01*
X16897174Y-16719709D01*
X17026780Y-16740236D01*
X17091582Y-16750500D01*
X17091583Y-16750500D01*
X17288418Y-16750500D01*
X17337019Y-16742802D01*
X17482826Y-16719709D01*
X17482833Y-16719706D01*
X17482836Y-16719706D01*
X17670019Y-16658886D01*
X17670019Y-16658885D01*
X17670025Y-16658884D01*
X17845405Y-16569524D01*
X18004646Y-16453828D01*
X18143828Y-16314646D01*
X18259524Y-16155405D01*
X18348884Y-15980025D01*
X18379724Y-15885111D01*
X18389622Y-15854648D01*
X18426405Y-15811580D01*
X18482867Y-15807137D01*
X18525935Y-15843920D01*
X18530378Y-15854648D01*
X18571113Y-15980019D01*
X18660475Y-16155404D01*
X18763913Y-16297774D01*
X18776172Y-16314646D01*
X18915354Y-16453828D01*
X19074595Y-16569524D01*
X19249975Y-16658884D01*
X19249977Y-16658884D01*
X19249980Y-16658886D01*
X19437163Y-16719706D01*
X19437169Y-16719707D01*
X19437174Y-16719709D01*
X19566780Y-16740236D01*
X19631582Y-16750500D01*
X19631583Y-16750500D01*
X19828418Y-16750500D01*
X19877019Y-16742802D01*
X20022826Y-16719709D01*
X20022833Y-16719706D01*
X20022836Y-16719706D01*
X20210019Y-16658886D01*
X20210019Y-16658885D01*
X20210025Y-16658884D01*
X20385405Y-16569524D01*
X20544646Y-16453828D01*
X20683828Y-16314646D01*
X20799524Y-16155405D01*
X20888884Y-15980025D01*
X20919724Y-15885111D01*
X20929622Y-15854648D01*
X20966405Y-15811580D01*
X21022867Y-15807137D01*
X21065935Y-15843920D01*
X21070378Y-15854648D01*
X21111113Y-15980019D01*
X21200475Y-16155404D01*
X21303913Y-16297774D01*
X21316172Y-16314646D01*
X21455354Y-16453828D01*
X21614595Y-16569524D01*
X21789975Y-16658884D01*
X21789977Y-16658884D01*
X21789980Y-16658886D01*
X21977163Y-16719706D01*
X21977169Y-16719707D01*
X21977174Y-16719709D01*
X22106780Y-16740236D01*
X22171582Y-16750500D01*
X22171583Y-16750500D01*
X22368418Y-16750500D01*
X22417019Y-16742802D01*
X22562826Y-16719709D01*
X22562833Y-16719706D01*
X22562836Y-16719706D01*
X22750019Y-16658886D01*
X22750019Y-16658885D01*
X22750025Y-16658884D01*
X22925405Y-16569524D01*
X23084646Y-16453828D01*
X23223828Y-16314646D01*
X23339524Y-16155405D01*
X23428884Y-15980025D01*
X23459724Y-15885111D01*
X23469622Y-15854648D01*
X23506405Y-15811580D01*
X23562867Y-15807137D01*
X23605935Y-15843920D01*
X23610378Y-15854648D01*
X23651113Y-15980019D01*
X23740475Y-16155404D01*
X23843913Y-16297774D01*
X23856172Y-16314646D01*
X23995354Y-16453828D01*
X24154595Y-16569524D01*
X24329975Y-16658884D01*
X24329977Y-16658884D01*
X24329980Y-16658886D01*
X24517163Y-16719706D01*
X24517169Y-16719707D01*
X24517174Y-16719709D01*
X24646780Y-16740236D01*
X24711582Y-16750500D01*
X24711583Y-16750500D01*
X24908418Y-16750500D01*
X24957019Y-16742802D01*
X25102826Y-16719709D01*
X25102833Y-16719706D01*
X25102836Y-16719706D01*
X25290019Y-16658886D01*
X25290019Y-16658885D01*
X25290025Y-16658884D01*
X25465405Y-16569524D01*
X25624646Y-16453828D01*
X25763828Y-16314646D01*
X25879524Y-16155405D01*
X25968884Y-15980025D01*
X25999724Y-15885111D01*
X26009622Y-15854648D01*
X26046405Y-15811580D01*
X26102867Y-15807137D01*
X26145935Y-15843920D01*
X26150378Y-15854648D01*
X26191113Y-15980019D01*
X26280475Y-16155404D01*
X26383913Y-16297774D01*
X26396172Y-16314646D01*
X26535354Y-16453828D01*
X26694595Y-16569524D01*
X26869975Y-16658884D01*
X26869977Y-16658884D01*
X26869980Y-16658886D01*
X27057163Y-16719706D01*
X27057169Y-16719707D01*
X27057174Y-16719709D01*
X27186780Y-16740236D01*
X27251582Y-16750500D01*
X27251583Y-16750500D01*
X27448418Y-16750500D01*
X27497019Y-16742802D01*
X27642826Y-16719709D01*
X27642833Y-16719706D01*
X27642836Y-16719706D01*
X27830019Y-16658886D01*
X27830019Y-16658885D01*
X27830025Y-16658884D01*
X28005405Y-16569524D01*
X28164646Y-16453828D01*
X28303828Y-16314646D01*
X28419524Y-16155405D01*
X28508884Y-15980025D01*
X28539724Y-15885111D01*
X28549622Y-15854648D01*
X28586405Y-15811580D01*
X28642867Y-15807137D01*
X28685935Y-15843920D01*
X28690378Y-15854648D01*
X28731113Y-15980019D01*
X28820475Y-16155404D01*
X28923913Y-16297774D01*
X28936172Y-16314646D01*
X29075354Y-16453828D01*
X29234595Y-16569524D01*
X29409975Y-16658884D01*
X29409977Y-16658884D01*
X29409980Y-16658886D01*
X29597163Y-16719706D01*
X29597169Y-16719707D01*
X29597174Y-16719709D01*
X29726780Y-16740236D01*
X29791582Y-16750500D01*
X29791583Y-16750500D01*
X29988418Y-16750500D01*
X30037019Y-16742802D01*
X30182826Y-16719709D01*
X30182833Y-16719706D01*
X30182836Y-16719706D01*
X30370019Y-16658886D01*
X30370019Y-16658885D01*
X30370025Y-16658884D01*
X30545405Y-16569524D01*
X30704646Y-16453828D01*
X30843828Y-16314646D01*
X30959524Y-16155405D01*
X31048884Y-15980025D01*
X31079724Y-15885111D01*
X31089622Y-15854648D01*
X31126405Y-15811580D01*
X31182867Y-15807137D01*
X31225935Y-15843920D01*
X31230378Y-15854648D01*
X31271113Y-15980019D01*
X31360475Y-16155404D01*
X31463913Y-16297774D01*
X31476172Y-16314646D01*
X31615354Y-16453828D01*
X31774595Y-16569524D01*
X31949975Y-16658884D01*
X31949977Y-16658884D01*
X31949980Y-16658886D01*
X32137163Y-16719706D01*
X32137169Y-16719707D01*
X32137174Y-16719709D01*
X32266780Y-16740236D01*
X32331582Y-16750500D01*
X32331583Y-16750500D01*
X32528417Y-16750500D01*
X32562232Y-16745144D01*
X32617305Y-16758366D01*
X32646898Y-16806656D01*
X32633676Y-16861729D01*
X32626135Y-16870559D01*
X32174569Y-17322126D01*
X32122243Y-17343800D01*
X27757723Y-17343800D01*
X27705397Y-17322126D01*
X27693637Y-17306800D01*
X27688982Y-17298737D01*
X27685489Y-17292687D01*
X27601613Y-17208811D01*
X27601610Y-17208809D01*
X27601609Y-17208808D01*
X27498887Y-17149501D01*
X27498882Y-17149499D01*
X27384311Y-17118800D01*
X27384309Y-17118800D01*
X27265691Y-17118800D01*
X27265689Y-17118800D01*
X27151117Y-17149499D01*
X27151112Y-17149501D01*
X27048390Y-17208808D01*
X26964508Y-17292690D01*
X26905201Y-17395412D01*
X26905199Y-17395417D01*
X26874500Y-17509988D01*
X26874500Y-17628611D01*
X26905199Y-17743182D01*
X26905201Y-17743187D01*
X26964508Y-17845909D01*
X26964509Y-17845910D01*
X26964511Y-17845913D01*
X27048387Y-17929789D01*
X27048389Y-17929790D01*
X27048390Y-17929791D01*
X27132929Y-17978600D01*
X27151114Y-17989099D01*
X27151115Y-17989099D01*
X27151117Y-17989100D01*
X27190677Y-17999700D01*
X27265688Y-18019799D01*
X27265689Y-18019800D01*
X27265691Y-18019800D01*
X27384311Y-18019800D01*
X27384311Y-18019799D01*
X27498886Y-17989099D01*
X27601613Y-17929789D01*
X27685489Y-17845913D01*
X27693637Y-17831799D01*
X27738570Y-17797322D01*
X27757723Y-17794800D01*
X32192825Y-17794800D01*
X32192833Y-17794801D01*
X32201445Y-17794801D01*
X32291154Y-17794801D01*
X32291155Y-17794801D01*
X32349760Y-17770525D01*
X32374036Y-17760470D01*
X32437470Y-17697036D01*
X32437470Y-17697035D01*
X32447875Y-17686630D01*
X32447877Y-17686627D01*
X33912727Y-16221777D01*
X33912730Y-16221775D01*
X33923135Y-16211370D01*
X33923136Y-16211370D01*
X33986570Y-16147936D01*
X33995078Y-16127396D01*
X35819500Y-16127396D01*
X35819500Y-16252603D01*
X35851904Y-16373535D01*
X35898263Y-16453831D01*
X35914505Y-16481964D01*
X36003036Y-16570495D01*
X36111464Y-16633095D01*
X36111463Y-16633095D01*
X36143514Y-16641683D01*
X36232396Y-16665499D01*
X36232397Y-16665500D01*
X36232399Y-16665500D01*
X36357603Y-16665500D01*
X36357603Y-16665499D01*
X36478536Y-16633095D01*
X36586964Y-16570495D01*
X36675495Y-16481964D01*
X36738095Y-16373536D01*
X36770499Y-16252603D01*
X36770500Y-16252603D01*
X36770500Y-16127397D01*
X36770499Y-16127396D01*
X36761612Y-16094231D01*
X36738095Y-16006464D01*
X36675495Y-15898036D01*
X36586964Y-15809505D01*
X36586963Y-15809504D01*
X36478534Y-15746904D01*
X36478536Y-15746904D01*
X36357603Y-15714500D01*
X36357601Y-15714500D01*
X36232399Y-15714500D01*
X36232397Y-15714500D01*
X36111464Y-15746904D01*
X36003036Y-15809504D01*
X35914504Y-15898036D01*
X35851904Y-16006464D01*
X35819500Y-16127396D01*
X33995078Y-16127396D01*
X34020900Y-16065055D01*
X34020900Y-14628888D01*
X35798200Y-14628888D01*
X35798200Y-14747511D01*
X35828899Y-14862082D01*
X35828901Y-14862087D01*
X35888208Y-14964809D01*
X35888209Y-14964810D01*
X35888211Y-14964813D01*
X35972087Y-15048689D01*
X36074814Y-15107999D01*
X36074815Y-15107999D01*
X36074817Y-15108000D01*
X36132102Y-15123349D01*
X36189388Y-15138699D01*
X36189389Y-15138700D01*
X36189391Y-15138700D01*
X36308011Y-15138700D01*
X36308011Y-15138699D01*
X36422586Y-15107999D01*
X36525313Y-15048689D01*
X36609189Y-14964813D01*
X36668499Y-14862086D01*
X36699199Y-14747511D01*
X36699200Y-14747511D01*
X36699200Y-14628889D01*
X36699199Y-14628888D01*
X36668500Y-14514317D01*
X36668498Y-14514312D01*
X36609191Y-14411590D01*
X36609190Y-14411589D01*
X36609189Y-14411587D01*
X36525313Y-14327711D01*
X36525310Y-14327709D01*
X36525309Y-14327708D01*
X36422587Y-14268401D01*
X36422582Y-14268399D01*
X36308011Y-14237700D01*
X36308009Y-14237700D01*
X36189391Y-14237700D01*
X36189389Y-14237700D01*
X36074817Y-14268399D01*
X36074812Y-14268401D01*
X35972090Y-14327708D01*
X35888208Y-14411590D01*
X35828901Y-14514312D01*
X35828899Y-14514317D01*
X35798200Y-14628888D01*
X34020900Y-14628888D01*
X34020900Y-11490688D01*
X35805100Y-11490688D01*
X35805100Y-11609311D01*
X35835799Y-11723882D01*
X35835801Y-11723887D01*
X35895108Y-11826609D01*
X35895109Y-11826610D01*
X35895111Y-11826613D01*
X35978987Y-11910489D01*
X36081714Y-11969799D01*
X36081715Y-11969799D01*
X36081717Y-11969800D01*
X36139002Y-11985149D01*
X36196288Y-12000499D01*
X36196289Y-12000500D01*
X36196291Y-12000500D01*
X36314911Y-12000500D01*
X36314911Y-12000499D01*
X36429486Y-11969799D01*
X36532213Y-11910489D01*
X36616089Y-11826613D01*
X36675399Y-11723886D01*
X36706099Y-11609311D01*
X36706100Y-11609311D01*
X36706100Y-11490689D01*
X36706099Y-11490688D01*
X36675400Y-11376117D01*
X36675398Y-11376112D01*
X36616091Y-11273390D01*
X36616090Y-11273389D01*
X36616089Y-11273387D01*
X36532213Y-11189511D01*
X36532210Y-11189509D01*
X36532209Y-11189508D01*
X36429487Y-11130201D01*
X36429482Y-11130199D01*
X36314911Y-11099500D01*
X36314909Y-11099500D01*
X36196291Y-11099500D01*
X36196289Y-11099500D01*
X36081717Y-11130199D01*
X36081712Y-11130201D01*
X35978990Y-11189508D01*
X35895108Y-11273390D01*
X35835801Y-11376112D01*
X35835799Y-11376117D01*
X35805100Y-11490688D01*
X34020900Y-11490688D01*
X34020900Y-10347396D01*
X35819500Y-10347396D01*
X35819500Y-10472603D01*
X35851904Y-10593535D01*
X35910767Y-10695489D01*
X35914505Y-10701964D01*
X36003036Y-10790495D01*
X36111464Y-10853095D01*
X36111463Y-10853095D01*
X36181286Y-10871804D01*
X36232396Y-10885499D01*
X36232397Y-10885500D01*
X36232399Y-10885500D01*
X36357603Y-10885500D01*
X36357603Y-10885499D01*
X36478536Y-10853095D01*
X36586964Y-10790495D01*
X36675495Y-10701964D01*
X36738095Y-10593536D01*
X36770499Y-10472603D01*
X36770500Y-10472603D01*
X36770500Y-10347397D01*
X36770499Y-10347396D01*
X36738095Y-10226464D01*
X36675495Y-10118036D01*
X36586963Y-10029504D01*
X36478534Y-9966904D01*
X36478536Y-9966904D01*
X36357603Y-9934500D01*
X36357601Y-9934500D01*
X36232399Y-9934500D01*
X36232397Y-9934500D01*
X36111464Y-9966904D01*
X36003036Y-10029504D01*
X35914504Y-10118036D01*
X35851904Y-10226464D01*
X35819500Y-10347396D01*
X34020900Y-10347396D01*
X34020900Y-10279375D01*
X34020901Y-10279366D01*
X34020901Y-10181044D01*
X33991801Y-10110793D01*
X33986570Y-10098165D01*
X33986570Y-10098164D01*
X33923136Y-10034730D01*
X33918921Y-10030515D01*
X33918914Y-10030509D01*
X32799733Y-8911328D01*
X32778059Y-8859002D01*
X32799733Y-8806676D01*
X32832904Y-8787524D01*
X32851286Y-8782599D01*
X32954013Y-8723289D01*
X33037889Y-8639413D01*
X33097199Y-8536686D01*
X33127899Y-8422111D01*
X33127900Y-8422111D01*
X33127900Y-8303489D01*
X33127899Y-8303488D01*
X33126568Y-8298522D01*
X33097199Y-8188914D01*
X33085870Y-8169291D01*
X33037891Y-8086190D01*
X33037890Y-8086189D01*
X33037889Y-8086187D01*
X32954013Y-8002311D01*
X32939899Y-7994162D01*
X32905421Y-7949228D01*
X32902900Y-7930077D01*
X32902900Y-7749488D01*
X34484800Y-7749488D01*
X34484800Y-7868111D01*
X34515499Y-7982682D01*
X34515501Y-7982687D01*
X34574808Y-8085409D01*
X34574809Y-8085410D01*
X34574811Y-8085413D01*
X34658687Y-8169289D01*
X34658689Y-8169290D01*
X34658690Y-8169291D01*
X34752918Y-8223694D01*
X34761414Y-8228599D01*
X34852170Y-8252917D01*
X34897103Y-8287395D01*
X34904496Y-8343547D01*
X34874130Y-8385923D01*
X34798778Y-8436271D01*
X34798775Y-8436275D01*
X34701275Y-8533775D01*
X34701273Y-8533776D01*
X34624667Y-8648426D01*
X34571902Y-8775813D01*
X34571899Y-8775823D01*
X34551178Y-8879999D01*
X34551178Y-8880000D01*
X34961212Y-8880000D01*
X34945000Y-8940504D01*
X34945000Y-9019496D01*
X34961212Y-9080000D01*
X34551178Y-9080000D01*
X34571899Y-9184176D01*
X34571902Y-9184186D01*
X34624667Y-9311573D01*
X34701273Y-9426223D01*
X34798776Y-9523726D01*
X34913426Y-9600332D01*
X35040813Y-9653097D01*
X35040823Y-9653100D01*
X35176058Y-9680000D01*
X35695000Y-9680000D01*
X35695000Y-9280000D01*
X35895000Y-9280000D01*
X35895000Y-9680000D01*
X36413942Y-9680000D01*
X36549176Y-9653100D01*
X36549186Y-9653097D01*
X36676573Y-9600332D01*
X36791223Y-9523726D01*
X36791225Y-9523725D01*
X36888725Y-9426225D01*
X36888726Y-9426223D01*
X36965332Y-9311573D01*
X37018097Y-9184186D01*
X37018100Y-9184176D01*
X37038821Y-9080000D01*
X36628788Y-9080000D01*
X36645000Y-9019496D01*
X36645000Y-8940504D01*
X36628788Y-8880000D01*
X37038822Y-8880000D01*
X37038821Y-8879999D01*
X37018100Y-8775823D01*
X37018097Y-8775813D01*
X36965332Y-8648426D01*
X36888726Y-8533776D01*
X36791223Y-8436273D01*
X36676573Y-8359667D01*
X36549186Y-8306902D01*
X36549176Y-8306899D01*
X36413942Y-8280000D01*
X35895000Y-8280000D01*
X35895000Y-8680000D01*
X35695000Y-8680000D01*
X35695000Y-8280000D01*
X35279853Y-8280000D01*
X35227527Y-8258326D01*
X35205853Y-8206000D01*
X35227526Y-8153675D01*
X35295789Y-8085413D01*
X35355099Y-7982686D01*
X35385799Y-7868111D01*
X35385800Y-7868111D01*
X35385800Y-7749489D01*
X35385799Y-7749488D01*
X35355100Y-7634917D01*
X35355098Y-7634912D01*
X35295791Y-7532190D01*
X35295790Y-7532189D01*
X35295789Y-7532187D01*
X35211913Y-7448311D01*
X35211910Y-7448309D01*
X35211909Y-7448308D01*
X35109187Y-7389001D01*
X35109182Y-7388999D01*
X34994611Y-7358300D01*
X34994609Y-7358300D01*
X34875991Y-7358300D01*
X34875989Y-7358300D01*
X34761417Y-7388999D01*
X34761412Y-7389001D01*
X34658690Y-7448308D01*
X34574808Y-7532190D01*
X34515501Y-7634912D01*
X34515499Y-7634917D01*
X34484800Y-7749488D01*
X32902900Y-7749488D01*
X32902900Y-7746656D01*
X32924573Y-7694331D01*
X34509770Y-6109133D01*
X34562095Y-6087460D01*
X34581249Y-6089982D01*
X34596990Y-6094200D01*
X34596991Y-6094200D01*
X34715611Y-6094200D01*
X34715611Y-6094199D01*
X34830186Y-6063499D01*
X34932913Y-6004189D01*
X35016789Y-5920313D01*
X35076099Y-5817586D01*
X35106799Y-5703011D01*
X35106800Y-5703011D01*
X35106800Y-5584389D01*
X35106799Y-5584388D01*
X35076100Y-5469817D01*
X35076098Y-5469812D01*
X35016791Y-5367090D01*
X35016790Y-5367089D01*
X35016789Y-5367087D01*
X34932913Y-5283211D01*
X34932910Y-5283209D01*
X34932908Y-5283207D01*
X34930618Y-5281885D01*
X34929805Y-5280825D01*
X34929059Y-5280253D01*
X34929212Y-5280053D01*
X34896140Y-5236952D01*
X34903534Y-5180799D01*
X34948467Y-5146321D01*
X34967619Y-5143800D01*
X38415977Y-5143800D01*
X38468303Y-5165474D01*
X38480062Y-5180799D01*
X38488211Y-5194913D01*
X38572087Y-5278789D01*
X38572089Y-5278790D01*
X38572090Y-5278791D01*
X38590450Y-5289391D01*
X38674814Y-5338099D01*
X38674815Y-5338099D01*
X38674817Y-5338100D01*
X38732102Y-5353449D01*
X38789388Y-5368799D01*
X38789389Y-5368800D01*
X38789391Y-5368800D01*
X38908011Y-5368800D01*
X38908011Y-5368799D01*
X39022586Y-5338099D01*
X39125313Y-5278789D01*
X39209189Y-5194913D01*
X39268499Y-5092186D01*
X39299199Y-4977611D01*
X39299200Y-4977611D01*
X39299200Y-4858989D01*
X39299199Y-4858988D01*
X39290949Y-4828200D01*
X39268499Y-4744414D01*
X39268448Y-4744325D01*
X39209191Y-4641690D01*
X39209190Y-4641689D01*
X39209189Y-4641687D01*
X39125313Y-4557811D01*
X39125310Y-4557809D01*
X39125309Y-4557808D01*
X39022587Y-4498501D01*
X39022582Y-4498499D01*
X38908011Y-4467800D01*
X38908009Y-4467800D01*
X38789391Y-4467800D01*
X38789389Y-4467800D01*
X38674817Y-4498499D01*
X38674812Y-4498501D01*
X38572090Y-4557808D01*
X38488211Y-4641686D01*
X38480063Y-4655800D01*
X38435130Y-4690278D01*
X38415977Y-4692800D01*
X32474956Y-4692800D01*
X32422630Y-4671126D01*
X32400956Y-4618800D01*
X32422630Y-4566474D01*
X32891751Y-4097353D01*
X33403770Y-3585333D01*
X33456095Y-3563660D01*
X33475249Y-3566182D01*
X33490990Y-3570400D01*
X33490991Y-3570400D01*
X33609611Y-3570400D01*
X33609611Y-3570399D01*
X33724186Y-3539699D01*
X33826913Y-3480389D01*
X33910789Y-3396513D01*
X33970099Y-3293786D01*
X34000799Y-3179211D01*
X34000800Y-3179211D01*
X34000800Y-3060589D01*
X34000799Y-3060588D01*
X33970100Y-2946017D01*
X33970098Y-2946012D01*
X33910791Y-2843290D01*
X33910790Y-2843289D01*
X33910789Y-2843287D01*
X33826913Y-2759411D01*
X33826910Y-2759409D01*
X33826909Y-2759408D01*
X33724187Y-2700101D01*
X33724182Y-2700099D01*
X33609611Y-2669400D01*
X33604802Y-2668767D01*
X33605154Y-2666088D01*
X33560824Y-2647726D01*
X33539150Y-2595400D01*
X33547215Y-2561805D01*
X33588884Y-2480025D01*
X33629622Y-2354648D01*
X33649706Y-2292836D01*
X33649706Y-2292833D01*
X33649709Y-2292826D01*
X33680500Y-2098417D01*
X33680500Y-1901583D01*
X33649709Y-1707174D01*
X33649707Y-1707169D01*
X33649706Y-1707163D01*
X33588886Y-1519980D01*
X33588884Y-1519977D01*
X33588884Y-1519975D01*
X33531624Y-1407595D01*
X33527181Y-1351132D01*
X33563964Y-1308065D01*
X33597559Y-1300000D01*
X40626000Y-1300000D01*
X40678326Y-1321674D01*
G37*
%TD.AperFunction*%
%TA.AperFunction,Conductor*%
G36*
X8454767Y-1321674D02*
G01*
X8476441Y-1374000D01*
X8468376Y-1407595D01*
X8411113Y-1519980D01*
X8350293Y-1707163D01*
X8350290Y-1707176D01*
X8319500Y-1901582D01*
X8319500Y-2098417D01*
X8350290Y-2292823D01*
X8350293Y-2292836D01*
X8411113Y-2480019D01*
X8500475Y-2655404D01*
X8595177Y-2785750D01*
X8616172Y-2814646D01*
X8755354Y-2953828D01*
X8914595Y-3069524D01*
X9089975Y-3158884D01*
X9089977Y-3158884D01*
X9089980Y-3158886D01*
X9277163Y-3219706D01*
X9277169Y-3219707D01*
X9277174Y-3219709D01*
X9406780Y-3240236D01*
X9471582Y-3250500D01*
X9471583Y-3250500D01*
X9668418Y-3250500D01*
X9730292Y-3240700D01*
X9862826Y-3219709D01*
X9862833Y-3219706D01*
X9862836Y-3219706D01*
X10050019Y-3158886D01*
X10050019Y-3158885D01*
X10050025Y-3158884D01*
X10225405Y-3069524D01*
X10384646Y-2953828D01*
X10523828Y-2814646D01*
X10639524Y-2655405D01*
X10728884Y-2480025D01*
X10728886Y-2480019D01*
X10769622Y-2354648D01*
X10806405Y-2311580D01*
X10862867Y-2307137D01*
X10905935Y-2343920D01*
X10910378Y-2354648D01*
X10951113Y-2480019D01*
X11040475Y-2655404D01*
X11135177Y-2785750D01*
X11156172Y-2814646D01*
X11295354Y-2953828D01*
X11454595Y-3069524D01*
X11629975Y-3158884D01*
X11629977Y-3158884D01*
X11629980Y-3158886D01*
X11817163Y-3219706D01*
X11817169Y-3219707D01*
X11817174Y-3219709D01*
X11946780Y-3240236D01*
X12011582Y-3250500D01*
X12011583Y-3250500D01*
X12208418Y-3250500D01*
X12270292Y-3240700D01*
X12402826Y-3219709D01*
X12402833Y-3219706D01*
X12402836Y-3219706D01*
X12590019Y-3158886D01*
X12590019Y-3158885D01*
X12590025Y-3158884D01*
X12765405Y-3069524D01*
X12924646Y-2953828D01*
X13063828Y-2814646D01*
X13179524Y-2655405D01*
X13268884Y-2480025D01*
X13268886Y-2480019D01*
X13309622Y-2354648D01*
X13346405Y-2311580D01*
X13402867Y-2307137D01*
X13445935Y-2343920D01*
X13450378Y-2354648D01*
X13491113Y-2480019D01*
X13580475Y-2655404D01*
X13675177Y-2785750D01*
X13696172Y-2814646D01*
X13835354Y-2953828D01*
X13994595Y-3069524D01*
X14169975Y-3158884D01*
X14169977Y-3158884D01*
X14169980Y-3158886D01*
X14357163Y-3219706D01*
X14357169Y-3219707D01*
X14357174Y-3219709D01*
X14486780Y-3240236D01*
X14551582Y-3250500D01*
X14551583Y-3250500D01*
X14748418Y-3250500D01*
X14810292Y-3240700D01*
X14942826Y-3219709D01*
X14999762Y-3201209D01*
X15056225Y-3205652D01*
X15093008Y-3248719D01*
X15088565Y-3305182D01*
X15086716Y-3308586D01*
X15060203Y-3354508D01*
X15060199Y-3354517D01*
X15029500Y-3469088D01*
X15029500Y-3587711D01*
X15060199Y-3702282D01*
X15060201Y-3702286D01*
X15119508Y-3805009D01*
X15119509Y-3805010D01*
X15119511Y-3805013D01*
X15203387Y-3888889D01*
X15306114Y-3948199D01*
X15306115Y-3948199D01*
X15306117Y-3948200D01*
X15342322Y-3957901D01*
X15420688Y-3978899D01*
X15420689Y-3978900D01*
X15420691Y-3978900D01*
X15539311Y-3978900D01*
X15539311Y-3978899D01*
X15653886Y-3948199D01*
X15756613Y-3888889D01*
X15840489Y-3805013D01*
X15899799Y-3702286D01*
X15904682Y-3684064D01*
X15939160Y-3639131D01*
X15995313Y-3631739D01*
X16028486Y-3650891D01*
X16527629Y-4150034D01*
X16527630Y-4150036D01*
X16591064Y-4213470D01*
X16615339Y-4223525D01*
X16673945Y-4247801D01*
X16673946Y-4247801D01*
X16772267Y-4247801D01*
X16772275Y-4247800D01*
X18734425Y-4247800D01*
X18734433Y-4247801D01*
X18743045Y-4247801D01*
X18832754Y-4247801D01*
X18832755Y-4247801D01*
X18891360Y-4223525D01*
X18915636Y-4213470D01*
X18979070Y-4150036D01*
X18979070Y-4150035D01*
X18989478Y-4139628D01*
X18989480Y-4139624D01*
X19182133Y-3946974D01*
X19234458Y-3925300D01*
X26172742Y-3925300D01*
X26225068Y-3946974D01*
X26236827Y-3962299D01*
X26240008Y-3967809D01*
X26240009Y-3967810D01*
X26240011Y-3967813D01*
X26323887Y-4051689D01*
X26323889Y-4051690D01*
X26323890Y-4051691D01*
X26409444Y-4101086D01*
X26426614Y-4110999D01*
X26426615Y-4110999D01*
X26426617Y-4111000D01*
X26442292Y-4115200D01*
X26541188Y-4141699D01*
X26541189Y-4141700D01*
X26541191Y-4141700D01*
X26659811Y-4141700D01*
X26659811Y-4141699D01*
X26774386Y-4110999D01*
X26877113Y-4051689D01*
X26960989Y-3967813D01*
X27020299Y-3865086D01*
X27050999Y-3750511D01*
X27051000Y-3750511D01*
X27051000Y-3631889D01*
X27050999Y-3631888D01*
X27020300Y-3517317D01*
X27020298Y-3517312D01*
X26960991Y-3414590D01*
X26960990Y-3414589D01*
X26960989Y-3414587D01*
X26877113Y-3330711D01*
X26877110Y-3330709D01*
X26877109Y-3330708D01*
X26817743Y-3296433D01*
X26817738Y-3296430D01*
X26774386Y-3271401D01*
X26754983Y-3266201D01*
X26754979Y-3266200D01*
X26659811Y-3240700D01*
X26659809Y-3240700D01*
X26541191Y-3240700D01*
X26541189Y-3240700D01*
X26426617Y-3271399D01*
X26426612Y-3271401D01*
X26323890Y-3330708D01*
X26240010Y-3414588D01*
X26226896Y-3437302D01*
X26181961Y-3471779D01*
X26162811Y-3474300D01*
X21248662Y-3474300D01*
X21196336Y-3452626D01*
X21174662Y-3400300D01*
X21184576Y-3363300D01*
X21203393Y-3330708D01*
X21215299Y-3310086D01*
X21245999Y-3195511D01*
X21246000Y-3195511D01*
X21246000Y-3076889D01*
X21245999Y-3076888D01*
X21243243Y-3066604D01*
X21215299Y-2962314D01*
X21155989Y-2859587D01*
X21072113Y-2775711D01*
X21072110Y-2775709D01*
X21072109Y-2775708D01*
X20969387Y-2716401D01*
X20969382Y-2716399D01*
X20880851Y-2692677D01*
X20835918Y-2658199D01*
X20828526Y-2602046D01*
X20834070Y-2587604D01*
X20888883Y-2480027D01*
X20888885Y-2480021D01*
X20929622Y-2354648D01*
X20966405Y-2311580D01*
X21022867Y-2307137D01*
X21065935Y-2343920D01*
X21070378Y-2354648D01*
X21111113Y-2480019D01*
X21200475Y-2655404D01*
X21295177Y-2785750D01*
X21316172Y-2814646D01*
X21455354Y-2953828D01*
X21614595Y-3069524D01*
X21789975Y-3158884D01*
X21789977Y-3158884D01*
X21789980Y-3158886D01*
X21977163Y-3219706D01*
X21977169Y-3219707D01*
X21977174Y-3219709D01*
X22106780Y-3240236D01*
X22171582Y-3250500D01*
X22171583Y-3250500D01*
X22368418Y-3250500D01*
X22430292Y-3240700D01*
X22562826Y-3219709D01*
X22562833Y-3219706D01*
X22562836Y-3219706D01*
X22750019Y-3158886D01*
X22750019Y-3158885D01*
X22750025Y-3158884D01*
X22925405Y-3069524D01*
X23084646Y-2953828D01*
X23223828Y-2814646D01*
X23339524Y-2655405D01*
X23428884Y-2480025D01*
X23428886Y-2480019D01*
X23469622Y-2354648D01*
X23506405Y-2311580D01*
X23562867Y-2307137D01*
X23605935Y-2343920D01*
X23610378Y-2354648D01*
X23651113Y-2480019D01*
X23740475Y-2655404D01*
X23835177Y-2785750D01*
X23856172Y-2814646D01*
X23995354Y-2953828D01*
X24154595Y-3069524D01*
X24329975Y-3158884D01*
X24329977Y-3158884D01*
X24329980Y-3158886D01*
X24517163Y-3219706D01*
X24517169Y-3219707D01*
X24517174Y-3219709D01*
X24646780Y-3240236D01*
X24711582Y-3250500D01*
X24711583Y-3250500D01*
X24908418Y-3250500D01*
X24970292Y-3240700D01*
X25102826Y-3219709D01*
X25102833Y-3219706D01*
X25102836Y-3219706D01*
X25290019Y-3158886D01*
X25290019Y-3158885D01*
X25290025Y-3158884D01*
X25465405Y-3069524D01*
X25624646Y-2953828D01*
X25763828Y-2814646D01*
X25879524Y-2655405D01*
X25968884Y-2480025D01*
X25968886Y-2480019D01*
X26009622Y-2354648D01*
X26046405Y-2311580D01*
X26102867Y-2307137D01*
X26145935Y-2343920D01*
X26150378Y-2354648D01*
X26191113Y-2480019D01*
X26280475Y-2655404D01*
X26375177Y-2785750D01*
X26396172Y-2814646D01*
X26535354Y-2953828D01*
X26694595Y-3069524D01*
X26869975Y-3158884D01*
X27013911Y-3205652D01*
X27057167Y-3219707D01*
X27057169Y-3219707D01*
X27057174Y-3219709D01*
X27186780Y-3240236D01*
X27251582Y-3250500D01*
X27251583Y-3250500D01*
X27448418Y-3250500D01*
X27510292Y-3240700D01*
X27642826Y-3219709D01*
X27642833Y-3219706D01*
X27642836Y-3219706D01*
X27830019Y-3158886D01*
X27830019Y-3158885D01*
X27830025Y-3158884D01*
X28005405Y-3069524D01*
X28164646Y-2953828D01*
X28303828Y-2814646D01*
X28419524Y-2655405D01*
X28508884Y-2480025D01*
X28508886Y-2480019D01*
X28549622Y-2354648D01*
X28586405Y-2311580D01*
X28642867Y-2307137D01*
X28685935Y-2343920D01*
X28690378Y-2354648D01*
X28731113Y-2480019D01*
X28820475Y-2655404D01*
X28823396Y-2659425D01*
X28836613Y-2714499D01*
X28815851Y-2755242D01*
X27275169Y-4295926D01*
X27222843Y-4317600D01*
X21124675Y-4317600D01*
X21124667Y-4317599D01*
X21116055Y-4317599D01*
X21026346Y-4317599D01*
X20989540Y-4332845D01*
X20989539Y-4332845D01*
X20943466Y-4351928D01*
X20880029Y-4415365D01*
X18358085Y-6937308D01*
X18305759Y-6958982D01*
X18253433Y-6937308D01*
X18234281Y-6904135D01*
X18229399Y-6885914D01*
X18212381Y-6856438D01*
X18170091Y-6783190D01*
X18170090Y-6783189D01*
X18170089Y-6783187D01*
X18086213Y-6699311D01*
X18086210Y-6699309D01*
X18086209Y-6699308D01*
X17983487Y-6640001D01*
X17983482Y-6639999D01*
X17868911Y-6609300D01*
X17868909Y-6609300D01*
X17750291Y-6609300D01*
X17750289Y-6609300D01*
X17635717Y-6639999D01*
X17635712Y-6640001D01*
X17532990Y-6699308D01*
X17449109Y-6783189D01*
X17426725Y-6821960D01*
X17381791Y-6856438D01*
X17325639Y-6849045D01*
X17296165Y-6832028D01*
X17261686Y-6787094D01*
X17269078Y-6730943D01*
X17323499Y-6636686D01*
X17354199Y-6522111D01*
X17354200Y-6522111D01*
X17354200Y-6403489D01*
X17354199Y-6403488D01*
X17323500Y-6288917D01*
X17323498Y-6288912D01*
X17264191Y-6186190D01*
X17264190Y-6186189D01*
X17264189Y-6186187D01*
X17180313Y-6102311D01*
X17180310Y-6102309D01*
X17180309Y-6102308D01*
X17077587Y-6043001D01*
X17077582Y-6042999D01*
X16963011Y-6012300D01*
X16963009Y-6012300D01*
X16844391Y-6012300D01*
X16844389Y-6012300D01*
X16729817Y-6042999D01*
X16729812Y-6043001D01*
X16627090Y-6102308D01*
X16543208Y-6186190D01*
X16483901Y-6288912D01*
X16483899Y-6288917D01*
X16453200Y-6403488D01*
X16453200Y-6522111D01*
X16483899Y-6636682D01*
X16483901Y-6636686D01*
X16543208Y-6739409D01*
X16543209Y-6739410D01*
X16543211Y-6739413D01*
X16627087Y-6823289D01*
X16627089Y-6823290D01*
X16627090Y-6823291D01*
X16665334Y-6845371D01*
X16699812Y-6890304D01*
X16692420Y-6946457D01*
X16638001Y-7040712D01*
X16637999Y-7040717D01*
X16607300Y-7155288D01*
X16607300Y-7273911D01*
X16637999Y-7388482D01*
X16638001Y-7388487D01*
X16697308Y-7491209D01*
X16697309Y-7491210D01*
X16697311Y-7491213D01*
X16781187Y-7575089D01*
X16781189Y-7575090D01*
X16781190Y-7575091D01*
X16860015Y-7620601D01*
X16883914Y-7634399D01*
X16883915Y-7634399D01*
X16883917Y-7634400D01*
X16900745Y-7638909D01*
X16998488Y-7665099D01*
X16998489Y-7665100D01*
X16998491Y-7665100D01*
X17117109Y-7665100D01*
X17132849Y-7660882D01*
X17189000Y-7668273D01*
X17204329Y-7680034D01*
X17249309Y-7725014D01*
X17249312Y-7725018D01*
X17316963Y-7792669D01*
X17316966Y-7792671D01*
X17358404Y-7809835D01*
X17399845Y-7827000D01*
X17489554Y-7827000D01*
X17959325Y-7827000D01*
X17959333Y-7827001D01*
X17967945Y-7827001D01*
X18057654Y-7827001D01*
X18057655Y-7827001D01*
X18130239Y-7796935D01*
X18140536Y-7792670D01*
X18203970Y-7729236D01*
X18203970Y-7729235D01*
X18214375Y-7718830D01*
X18214376Y-7718827D01*
X21142931Y-4790274D01*
X21195257Y-4768600D01*
X27293425Y-4768600D01*
X27293433Y-4768601D01*
X27302045Y-4768601D01*
X27391754Y-4768601D01*
X27391755Y-4768601D01*
X27450360Y-4744325D01*
X27474636Y-4734270D01*
X27538070Y-4670836D01*
X27538070Y-4670835D01*
X27548475Y-4660430D01*
X27548477Y-4660427D01*
X29134757Y-3074146D01*
X29187082Y-3052473D01*
X29230576Y-3066604D01*
X29234596Y-3069525D01*
X29296763Y-3101200D01*
X29409975Y-3158884D01*
X29409977Y-3158884D01*
X29409980Y-3158886D01*
X29597163Y-3219706D01*
X29597169Y-3219707D01*
X29597174Y-3219709D01*
X29726780Y-3240236D01*
X29791582Y-3250500D01*
X29791583Y-3250500D01*
X29988418Y-3250500D01*
X30050292Y-3240700D01*
X30182826Y-3219709D01*
X30185275Y-3218913D01*
X30241738Y-3223347D01*
X30278528Y-3266408D01*
X30274094Y-3322871D01*
X30260480Y-3341613D01*
X28149869Y-5452226D01*
X28097543Y-5473900D01*
X21243575Y-5473900D01*
X21243567Y-5473899D01*
X21234955Y-5473899D01*
X21145245Y-5473899D01*
X21086639Y-5498174D01*
X21086637Y-5498175D01*
X21086636Y-5498174D01*
X21062363Y-5508230D01*
X17799826Y-8770768D01*
X17747500Y-8792442D01*
X17695174Y-8770768D01*
X17673500Y-8718442D01*
X17673500Y-8626689D01*
X17673499Y-8626688D01*
X17673472Y-8626589D01*
X17647584Y-8529973D01*
X17642800Y-8512117D01*
X17642798Y-8512112D01*
X17583491Y-8409390D01*
X17583490Y-8409389D01*
X17583489Y-8409387D01*
X17499613Y-8325511D01*
X17499610Y-8325509D01*
X17499609Y-8325508D01*
X17396887Y-8266201D01*
X17396882Y-8266199D01*
X17282311Y-8235500D01*
X17282309Y-8235500D01*
X17163691Y-8235500D01*
X17163689Y-8235500D01*
X17049117Y-8266199D01*
X17049112Y-8266201D01*
X16946390Y-8325508D01*
X16862508Y-8409390D01*
X16803201Y-8512112D01*
X16803199Y-8512117D01*
X16772500Y-8626688D01*
X16772500Y-8710427D01*
X16750826Y-8762753D01*
X16698500Y-8784427D01*
X16661500Y-8774513D01*
X16561887Y-8717001D01*
X16561882Y-8716999D01*
X16447311Y-8686300D01*
X16447309Y-8686300D01*
X16328691Y-8686300D01*
X16272852Y-8701261D01*
X16216700Y-8693869D01*
X16182221Y-8648936D01*
X16179700Y-8629783D01*
X16179700Y-8626589D01*
X16179699Y-8626588D01*
X16149000Y-8512017D01*
X16148998Y-8512012D01*
X16089691Y-8409290D01*
X16089690Y-8409289D01*
X16089689Y-8409287D01*
X16005813Y-8325411D01*
X16005810Y-8325409D01*
X16005809Y-8325408D01*
X15903087Y-8266101D01*
X15903082Y-8266099D01*
X15788511Y-8235400D01*
X15788509Y-8235400D01*
X15669891Y-8235400D01*
X15669889Y-8235400D01*
X15555317Y-8266099D01*
X15555312Y-8266101D01*
X15452590Y-8325408D01*
X15368708Y-8409290D01*
X15309401Y-8512012D01*
X15309399Y-8512017D01*
X15278700Y-8626588D01*
X15278700Y-8745211D01*
X15309399Y-8859782D01*
X15309401Y-8859787D01*
X15368708Y-8962509D01*
X15368709Y-8962510D01*
X15368711Y-8962513D01*
X15452587Y-9046389D01*
X15452589Y-9046390D01*
X15452590Y-9046391D01*
X15555312Y-9105698D01*
X15555314Y-9105699D01*
X15555315Y-9105699D01*
X15555317Y-9105700D01*
X15593735Y-9115994D01*
X15669888Y-9136399D01*
X15669889Y-9136400D01*
X15669891Y-9136400D01*
X15788510Y-9136400D01*
X15816760Y-9128830D01*
X15844347Y-9121438D01*
X15900499Y-9128830D01*
X15934978Y-9173762D01*
X15937500Y-9192916D01*
X15937500Y-9196111D01*
X15968199Y-9310682D01*
X15968201Y-9310687D01*
X16027508Y-9413409D01*
X16027509Y-9413410D01*
X16027511Y-9413413D01*
X16111387Y-9497289D01*
X16111389Y-9497290D01*
X16111390Y-9497291D01*
X16162757Y-9526948D01*
X16214114Y-9556599D01*
X16214115Y-9556599D01*
X16214117Y-9556600D01*
X16246146Y-9565182D01*
X16328688Y-9587299D01*
X16328689Y-9587300D01*
X16328691Y-9587300D01*
X16447311Y-9587300D01*
X16447311Y-9587299D01*
X16561886Y-9556599D01*
X16664613Y-9497289D01*
X16748489Y-9413413D01*
X16807799Y-9310686D01*
X16838499Y-9196111D01*
X16838500Y-9196111D01*
X16838500Y-9112372D01*
X16860174Y-9060046D01*
X16912500Y-9038372D01*
X16949499Y-9048285D01*
X16975435Y-9063260D01*
X17048942Y-9105700D01*
X17049114Y-9105799D01*
X17049115Y-9105799D01*
X17049117Y-9105800D01*
X17087162Y-9115994D01*
X17163688Y-9136499D01*
X17163689Y-9136500D01*
X17255443Y-9136500D01*
X17307769Y-9158174D01*
X17329443Y-9210500D01*
X17307769Y-9262826D01*
X16457469Y-10113126D01*
X16405143Y-10134800D01*
X16296723Y-10134800D01*
X16244397Y-10113126D01*
X16232637Y-10097800D01*
X16228307Y-10090300D01*
X16224489Y-10083687D01*
X16140613Y-9999811D01*
X16140610Y-9999809D01*
X16140609Y-9999808D01*
X16037887Y-9940501D01*
X16037882Y-9940499D01*
X15923311Y-9909800D01*
X15923309Y-9909800D01*
X15804691Y-9909800D01*
X15804689Y-9909800D01*
X15690117Y-9940499D01*
X15690112Y-9940501D01*
X15587390Y-9999808D01*
X15503508Y-10083690D01*
X15444201Y-10186412D01*
X15444199Y-10186417D01*
X15413500Y-10300988D01*
X15413500Y-10399642D01*
X15391826Y-10451968D01*
X15339500Y-10473642D01*
X15287174Y-10451968D01*
X11557378Y-6722173D01*
X11557378Y-6722172D01*
X11483537Y-6648331D01*
X11483536Y-6648330D01*
X11476293Y-6645330D01*
X11455425Y-6636686D01*
X11455415Y-6636682D01*
X11400655Y-6613999D01*
X11310945Y-6613999D01*
X11302333Y-6613999D01*
X11302325Y-6614000D01*
X3718223Y-6614000D01*
X3665897Y-6592326D01*
X3654137Y-6577000D01*
X3651647Y-6572687D01*
X3645989Y-6562887D01*
X3562113Y-6479011D01*
X3562110Y-6479009D01*
X3562109Y-6479008D01*
X3459387Y-6419701D01*
X3459382Y-6419699D01*
X3344811Y-6389000D01*
X3344809Y-6389000D01*
X3226191Y-6389000D01*
X3226189Y-6389000D01*
X3111617Y-6419699D01*
X3111612Y-6419701D01*
X3008890Y-6479008D01*
X2925008Y-6562890D01*
X2865701Y-6665612D01*
X2865699Y-6665617D01*
X2835000Y-6780188D01*
X2835000Y-6898811D01*
X2865699Y-7013382D01*
X2865701Y-7013387D01*
X2925008Y-7116109D01*
X2925009Y-7116110D01*
X2925011Y-7116113D01*
X3008887Y-7199989D01*
X3008889Y-7199990D01*
X3008890Y-7199991D01*
X3111612Y-7259298D01*
X3111614Y-7259299D01*
X3111615Y-7259299D01*
X3111617Y-7259300D01*
X3157984Y-7271724D01*
X3226188Y-7289999D01*
X3226189Y-7290000D01*
X3226191Y-7290000D01*
X3344811Y-7290000D01*
X3344811Y-7289999D01*
X3459386Y-7259299D01*
X3562113Y-7199989D01*
X3645989Y-7116113D01*
X3654137Y-7101999D01*
X3699070Y-7067522D01*
X3718223Y-7065000D01*
X11231743Y-7065000D01*
X11284069Y-7086674D01*
X15195668Y-10998274D01*
X15217342Y-11050600D01*
X15195668Y-11102926D01*
X15143342Y-11124600D01*
X9529775Y-11124600D01*
X9529767Y-11124599D01*
X9521155Y-11124599D01*
X9431445Y-11124599D01*
X9372839Y-11148874D01*
X9372837Y-11148875D01*
X9372836Y-11148874D01*
X9348563Y-11158930D01*
X9285129Y-11222365D01*
X4704069Y-15803426D01*
X4651743Y-15825100D01*
X2768845Y-15825100D01*
X2685966Y-15859428D01*
X1426326Y-17119068D01*
X1374000Y-17140742D01*
X1321674Y-17119068D01*
X1300000Y-17066742D01*
X1300000Y-5021188D01*
X11444000Y-5021188D01*
X11444000Y-5139811D01*
X11474699Y-5254382D01*
X11474701Y-5254387D01*
X11534008Y-5357109D01*
X11534009Y-5357110D01*
X11534011Y-5357113D01*
X11617887Y-5440989D01*
X11632000Y-5449137D01*
X11666478Y-5494070D01*
X11669000Y-5513223D01*
X11669000Y-5896073D01*
X11668999Y-5896087D01*
X11668999Y-5991755D01*
X11691450Y-6045955D01*
X11703329Y-6074635D01*
X11777171Y-6148477D01*
X11777173Y-6148478D01*
X13137665Y-7508971D01*
X13159339Y-7561297D01*
X13156818Y-7580448D01*
X13152600Y-7596190D01*
X13152600Y-7714811D01*
X13183299Y-7829382D01*
X13183301Y-7829387D01*
X13242608Y-7932109D01*
X13242609Y-7932110D01*
X13242611Y-7932113D01*
X13326487Y-8015989D01*
X13326489Y-8015990D01*
X13326490Y-8015991D01*
X13429212Y-8075298D01*
X13429214Y-8075299D01*
X13429215Y-8075299D01*
X13429217Y-8075300D01*
X13486502Y-8090649D01*
X13543788Y-8105999D01*
X13543789Y-8106000D01*
X13543791Y-8106000D01*
X13662411Y-8106000D01*
X13662411Y-8105999D01*
X13776986Y-8075299D01*
X13879713Y-8015989D01*
X13963589Y-7932113D01*
X14022899Y-7829386D01*
X14053599Y-7714811D01*
X14053600Y-7714811D01*
X14053600Y-7596189D01*
X14053599Y-7596188D01*
X14050941Y-7586270D01*
X14036450Y-7532187D01*
X14022900Y-7481617D01*
X14022898Y-7481612D01*
X13963591Y-7378890D01*
X13963590Y-7378889D01*
X13963589Y-7378887D01*
X13897876Y-7313174D01*
X13876203Y-7260850D01*
X13897876Y-7208525D01*
X13980489Y-7125913D01*
X14039799Y-7023186D01*
X14070499Y-6908611D01*
X14070500Y-6908611D01*
X14070500Y-6789989D01*
X14070499Y-6789988D01*
X14070095Y-6788482D01*
X14046202Y-6699311D01*
X14039800Y-6675417D01*
X14039798Y-6675412D01*
X13980491Y-6572690D01*
X13980490Y-6572689D01*
X13980489Y-6572687D01*
X13896613Y-6488811D01*
X13896610Y-6488809D01*
X13896609Y-6488808D01*
X13793887Y-6429501D01*
X13793882Y-6429499D01*
X13679311Y-6398800D01*
X13679309Y-6398800D01*
X13560691Y-6398800D01*
X13560689Y-6398800D01*
X13446117Y-6429499D01*
X13446112Y-6429501D01*
X13343390Y-6488808D01*
X13259508Y-6572690D01*
X13200201Y-6675412D01*
X13200199Y-6675417D01*
X13178792Y-6755309D01*
X13144313Y-6800242D01*
X13088161Y-6807634D01*
X13054988Y-6788482D01*
X12141674Y-5875168D01*
X12120000Y-5822842D01*
X12120000Y-5513223D01*
X12141674Y-5460897D01*
X12157000Y-5449137D01*
X12171113Y-5440989D01*
X12254989Y-5357113D01*
X12294090Y-5289388D01*
X13082600Y-5289388D01*
X13082600Y-5408011D01*
X13113299Y-5522582D01*
X13113301Y-5522587D01*
X13172608Y-5625309D01*
X13172609Y-5625310D01*
X13172611Y-5625313D01*
X13256487Y-5709189D01*
X13359214Y-5768499D01*
X13359215Y-5768499D01*
X13359217Y-5768500D01*
X13383110Y-5774902D01*
X13473788Y-5799199D01*
X13473789Y-5799200D01*
X13473791Y-5799200D01*
X13592411Y-5799200D01*
X13592411Y-5799199D01*
X13706986Y-5768499D01*
X13809713Y-5709189D01*
X13893589Y-5625313D01*
X13952899Y-5522586D01*
X13983599Y-5408011D01*
X13983600Y-5408011D01*
X13983600Y-5289389D01*
X13983599Y-5289388D01*
X13952900Y-5174817D01*
X13952898Y-5174812D01*
X13893591Y-5072090D01*
X13893590Y-5072089D01*
X13893589Y-5072087D01*
X13809713Y-4988211D01*
X13809710Y-4988209D01*
X13809709Y-4988208D01*
X13706987Y-4928901D01*
X13706982Y-4928899D01*
X13592411Y-4898200D01*
X13592409Y-4898200D01*
X13473791Y-4898200D01*
X13473789Y-4898200D01*
X13359217Y-4928899D01*
X13359212Y-4928901D01*
X13256490Y-4988208D01*
X13172608Y-5072090D01*
X13113301Y-5174812D01*
X13113299Y-5174817D01*
X13082600Y-5289388D01*
X12294090Y-5289388D01*
X12314299Y-5254386D01*
X12344999Y-5139811D01*
X12345000Y-5139811D01*
X12345000Y-5021189D01*
X12344999Y-5021188D01*
X12314300Y-4906617D01*
X12314298Y-4906612D01*
X12254991Y-4803890D01*
X12254990Y-4803889D01*
X12254989Y-4803887D01*
X12171113Y-4720011D01*
X12171110Y-4720009D01*
X12171109Y-4720008D01*
X12068387Y-4660701D01*
X12068382Y-4660699D01*
X11953811Y-4630000D01*
X11953809Y-4630000D01*
X11835191Y-4630000D01*
X11835189Y-4630000D01*
X11720617Y-4660699D01*
X11720612Y-4660701D01*
X11617890Y-4720008D01*
X11534008Y-4803890D01*
X11474701Y-4906612D01*
X11474699Y-4906617D01*
X11444000Y-5021188D01*
X1300000Y-5021188D01*
X1300000Y-4318388D01*
X5669600Y-4318388D01*
X5669600Y-4437011D01*
X5700299Y-4551582D01*
X5700301Y-4551587D01*
X5759608Y-4654309D01*
X5759609Y-4654310D01*
X5759611Y-4654313D01*
X5843487Y-4738189D01*
X5843489Y-4738190D01*
X5843490Y-4738191D01*
X5933700Y-4790274D01*
X5946214Y-4797499D01*
X5946215Y-4797499D01*
X5946217Y-4797500D01*
X5970054Y-4803887D01*
X6060788Y-4828199D01*
X6060789Y-4828200D01*
X6060791Y-4828200D01*
X6179411Y-4828200D01*
X6179411Y-4828199D01*
X6293986Y-4797499D01*
X6396713Y-4738189D01*
X6480589Y-4654313D01*
X6488737Y-4640199D01*
X6533670Y-4605722D01*
X6552823Y-4603200D01*
X10645441Y-4603200D01*
X10682441Y-4613114D01*
X10769385Y-4663311D01*
X10774214Y-4666099D01*
X10774215Y-4666099D01*
X10774217Y-4666100D01*
X10831502Y-4681449D01*
X10888788Y-4696799D01*
X10888789Y-4696800D01*
X10888791Y-4696800D01*
X11007411Y-4696800D01*
X11007411Y-4696799D01*
X11121986Y-4666099D01*
X11224713Y-4606789D01*
X11286814Y-4544688D01*
X14030100Y-4544688D01*
X14030100Y-4663311D01*
X14060799Y-4777882D01*
X14060801Y-4777887D01*
X14120108Y-4880609D01*
X14120109Y-4880610D01*
X14120111Y-4880613D01*
X14203987Y-4964489D01*
X14203989Y-4964490D01*
X14203990Y-4964491D01*
X14302193Y-5021189D01*
X14306714Y-5023799D01*
X14306715Y-5023799D01*
X14306717Y-5023800D01*
X14364002Y-5039149D01*
X14421288Y-5054499D01*
X14421289Y-5054500D01*
X14421291Y-5054500D01*
X14539911Y-5054500D01*
X14539911Y-5054499D01*
X14654486Y-5023799D01*
X14757213Y-4964489D01*
X14841089Y-4880613D01*
X14900399Y-4777886D01*
X14931099Y-4663311D01*
X14931100Y-4663311D01*
X14931100Y-4544689D01*
X14931099Y-4544688D01*
X14925264Y-4522913D01*
X14900399Y-4430114D01*
X14841089Y-4327387D01*
X14757213Y-4243511D01*
X14757210Y-4243509D01*
X14757209Y-4243508D01*
X14654487Y-4184201D01*
X14654482Y-4184199D01*
X14539911Y-4153500D01*
X14539909Y-4153500D01*
X14421291Y-4153500D01*
X14421289Y-4153500D01*
X14306717Y-4184199D01*
X14306712Y-4184201D01*
X14203990Y-4243508D01*
X14120108Y-4327390D01*
X14060801Y-4430112D01*
X14060799Y-4430117D01*
X14030100Y-4544688D01*
X11286814Y-4544688D01*
X11308589Y-4522913D01*
X11322684Y-4498501D01*
X11367898Y-4420187D01*
X11367899Y-4420186D01*
X11398599Y-4305611D01*
X11398600Y-4305611D01*
X11398600Y-4186989D01*
X11398599Y-4186988D01*
X11367900Y-4072417D01*
X11367898Y-4072412D01*
X11308591Y-3969690D01*
X11308590Y-3969689D01*
X11308589Y-3969687D01*
X11224713Y-3885811D01*
X11224710Y-3885809D01*
X11224709Y-3885808D01*
X11121987Y-3826501D01*
X11121982Y-3826499D01*
X11007411Y-3795800D01*
X11007409Y-3795800D01*
X10888791Y-3795800D01*
X10888789Y-3795800D01*
X10774217Y-3826499D01*
X10774212Y-3826501D01*
X10671490Y-3885808D01*
X10587608Y-3969690D01*
X10528301Y-4072412D01*
X10528299Y-4072417D01*
X10521618Y-4097353D01*
X10487139Y-4142286D01*
X10450140Y-4152200D01*
X6552823Y-4152200D01*
X6500497Y-4130526D01*
X6488737Y-4115200D01*
X6486312Y-4111000D01*
X6480589Y-4101087D01*
X6396713Y-4017211D01*
X6396710Y-4017209D01*
X6396709Y-4017208D01*
X6293987Y-3957901D01*
X6293982Y-3957899D01*
X6179411Y-3927200D01*
X6179409Y-3927200D01*
X6060791Y-3927200D01*
X6060789Y-3927200D01*
X5946217Y-3957899D01*
X5946212Y-3957901D01*
X5843490Y-4017208D01*
X5759608Y-4101090D01*
X5700301Y-4203812D01*
X5700299Y-4203817D01*
X5669600Y-4318388D01*
X1300000Y-4318388D01*
X1300000Y-1374000D01*
X1321674Y-1321674D01*
X1374000Y-1300000D01*
X8402441Y-1300000D01*
X8454767Y-1321674D01*
G37*
%TD.AperFunction*%
%TA.AperFunction,Conductor*%
G36*
X26612603Y-7083674D02*
G01*
X26624362Y-7098999D01*
X26632511Y-7113113D01*
X26716387Y-7196989D01*
X26716389Y-7196990D01*
X26716390Y-7196991D01*
X26797115Y-7243598D01*
X26819114Y-7256299D01*
X26819115Y-7256299D01*
X26819117Y-7256300D01*
X26876402Y-7271649D01*
X26933688Y-7286999D01*
X26933689Y-7287000D01*
X26933691Y-7287000D01*
X27052309Y-7287000D01*
X27068049Y-7282782D01*
X27124200Y-7290173D01*
X27139529Y-7301934D01*
X28952029Y-9114434D01*
X28952030Y-9114436D01*
X29015464Y-9177870D01*
X29039739Y-9187925D01*
X29098345Y-9212201D01*
X29098346Y-9212201D01*
X29196667Y-9212201D01*
X29196675Y-9212200D01*
X31278277Y-9212200D01*
X31330603Y-9233874D01*
X31342362Y-9249199D01*
X31350511Y-9263313D01*
X31434387Y-9347189D01*
X31434389Y-9347190D01*
X31434390Y-9347191D01*
X31537112Y-9406498D01*
X31537114Y-9406499D01*
X31537115Y-9406499D01*
X31537117Y-9406500D01*
X31562902Y-9413409D01*
X31651688Y-9437199D01*
X31651689Y-9437200D01*
X31651691Y-9437200D01*
X31770311Y-9437200D01*
X31770311Y-9437199D01*
X31884886Y-9406499D01*
X31987613Y-9347189D01*
X32071489Y-9263313D01*
X32130799Y-9160586D01*
X32141289Y-9121438D01*
X32156878Y-9063260D01*
X32191356Y-9018327D01*
X32247509Y-9010935D01*
X32280682Y-9030087D01*
X33548226Y-10297631D01*
X33569900Y-10349957D01*
X33569900Y-12243002D01*
X33548226Y-12295328D01*
X33495900Y-12317002D01*
X33443574Y-12295328D01*
X33431814Y-12280002D01*
X33426091Y-12270090D01*
X33426090Y-12270089D01*
X33426089Y-12270087D01*
X33342213Y-12186211D01*
X33342210Y-12186209D01*
X33342209Y-12186208D01*
X33239487Y-12126901D01*
X33239482Y-12126899D01*
X33124911Y-12096200D01*
X33124909Y-12096200D01*
X33006291Y-12096200D01*
X33006289Y-12096200D01*
X32891717Y-12126899D01*
X32891712Y-12126901D01*
X32788990Y-12186208D01*
X32705108Y-12270090D01*
X32645801Y-12372812D01*
X32645799Y-12372817D01*
X32615100Y-12487388D01*
X32615100Y-12606011D01*
X32645799Y-12720582D01*
X32645801Y-12720587D01*
X32705108Y-12823309D01*
X32705109Y-12823310D01*
X32705111Y-12823313D01*
X32788987Y-12907189D01*
X32788989Y-12907190D01*
X32788990Y-12907191D01*
X32891712Y-12966498D01*
X32891714Y-12966499D01*
X32891715Y-12966499D01*
X32891717Y-12966500D01*
X32949002Y-12981849D01*
X33006288Y-12997199D01*
X33006289Y-12997200D01*
X33006291Y-12997200D01*
X33124911Y-12997200D01*
X33124911Y-12997199D01*
X33239486Y-12966499D01*
X33342213Y-12907189D01*
X33426089Y-12823313D01*
X33431813Y-12813399D01*
X33476746Y-12778919D01*
X33532898Y-12786310D01*
X33567378Y-12831243D01*
X33569900Y-12850397D01*
X33569900Y-14713711D01*
X33548226Y-14766037D01*
X33495900Y-14787711D01*
X33443574Y-14766037D01*
X33436033Y-14757208D01*
X33428988Y-14747511D01*
X33383828Y-14685354D01*
X33244646Y-14546172D01*
X33244643Y-14546169D01*
X33244641Y-14546168D01*
X33085404Y-14430475D01*
X32910019Y-14341113D01*
X32722836Y-14280293D01*
X32722823Y-14280290D01*
X32528418Y-14249500D01*
X32528417Y-14249500D01*
X32331583Y-14249500D01*
X32331582Y-14249500D01*
X32137176Y-14280290D01*
X32137163Y-14280293D01*
X31949980Y-14341113D01*
X31774595Y-14430475D01*
X31770569Y-14433400D01*
X31715495Y-14446612D01*
X31674757Y-14425851D01*
X30223078Y-12974173D01*
X30223078Y-12974172D01*
X30149238Y-12900332D01*
X30149237Y-12900331D01*
X30149236Y-12900330D01*
X30149232Y-12900328D01*
X30124958Y-12890273D01*
X30124958Y-12890272D01*
X30066355Y-12865999D01*
X29976645Y-12865999D01*
X29968033Y-12865999D01*
X29968025Y-12866000D01*
X16673945Y-12866000D01*
X16591066Y-12900328D01*
X16591062Y-12900331D01*
X16303928Y-13187464D01*
X16251602Y-13209138D01*
X16232453Y-13206617D01*
X16216713Y-13202400D01*
X16216709Y-13202400D01*
X16098091Y-13202400D01*
X16098089Y-13202400D01*
X15983517Y-13233099D01*
X15983512Y-13233101D01*
X15880790Y-13292408D01*
X15796908Y-13376290D01*
X15737601Y-13479012D01*
X15737599Y-13479017D01*
X15706900Y-13593588D01*
X15706900Y-13712211D01*
X15737599Y-13826782D01*
X15737601Y-13826787D01*
X15796908Y-13929509D01*
X15796909Y-13929510D01*
X15796911Y-13929513D01*
X15880787Y-14013389D01*
X15880789Y-14013390D01*
X15880790Y-14013391D01*
X15884947Y-14015791D01*
X15983514Y-14072699D01*
X15983515Y-14072699D01*
X15983517Y-14072700D01*
X16040802Y-14088049D01*
X16098088Y-14103399D01*
X16098089Y-14103400D01*
X16098091Y-14103400D01*
X16216711Y-14103400D01*
X16216711Y-14103399D01*
X16331286Y-14072699D01*
X16434013Y-14013389D01*
X16515825Y-13931576D01*
X16568150Y-13909903D01*
X16620476Y-13931577D01*
X16620809Y-13931910D01*
X16620811Y-13931913D01*
X16704687Y-14015789D01*
X16807414Y-14075099D01*
X16807415Y-14075099D01*
X16807417Y-14075100D01*
X16864702Y-14090449D01*
X16921988Y-14105799D01*
X16921989Y-14105800D01*
X16921991Y-14105800D01*
X17040611Y-14105800D01*
X17040611Y-14105799D01*
X17155186Y-14075099D01*
X17257913Y-14015789D01*
X17341789Y-13931913D01*
X17401099Y-13829186D01*
X17431799Y-13714611D01*
X17431800Y-13714611D01*
X17431800Y-13595989D01*
X17431799Y-13595988D01*
X17431028Y-13593112D01*
X17401099Y-13481414D01*
X17370259Y-13427999D01*
X17362867Y-13371848D01*
X17397346Y-13326914D01*
X17434346Y-13317000D01*
X22536747Y-13317000D01*
X22589073Y-13338674D01*
X22610747Y-13391000D01*
X22589073Y-13443324D01*
X22555724Y-13476674D01*
X22542008Y-13490390D01*
X22482701Y-13593112D01*
X22482699Y-13593117D01*
X22452000Y-13707688D01*
X22452000Y-13826311D01*
X22482699Y-13940882D01*
X22482701Y-13940887D01*
X22542008Y-14043609D01*
X22542009Y-14043610D01*
X22542011Y-14043613D01*
X22625887Y-14127489D01*
X22625889Y-14127490D01*
X22625890Y-14127491D01*
X22696626Y-14168331D01*
X22696627Y-14168331D01*
X22728614Y-14186799D01*
X22843188Y-14217499D01*
X22843189Y-14217500D01*
X22843191Y-14217500D01*
X22961811Y-14217500D01*
X22961811Y-14217499D01*
X23076386Y-14186799D01*
X23179113Y-14127489D01*
X23262989Y-14043613D01*
X23322299Y-13940886D01*
X23352999Y-13826311D01*
X23353000Y-13826311D01*
X23353000Y-13707689D01*
X23352999Y-13707688D01*
X23322300Y-13593117D01*
X23322298Y-13593112D01*
X23262991Y-13490390D01*
X23262990Y-13490389D01*
X23262989Y-13490387D01*
X23215926Y-13443324D01*
X23194253Y-13391000D01*
X23215927Y-13338674D01*
X23268253Y-13317000D01*
X29897443Y-13317000D01*
X29949769Y-13338674D01*
X31355851Y-14744757D01*
X31377525Y-14797083D01*
X31363400Y-14840569D01*
X31360475Y-14844595D01*
X31271113Y-15019980D01*
X31230378Y-15145351D01*
X31193595Y-15188419D01*
X31137133Y-15192862D01*
X31094065Y-15156079D01*
X31089622Y-15145351D01*
X31048886Y-15019980D01*
X31048884Y-15019977D01*
X31048884Y-15019975D01*
X30959524Y-14844595D01*
X30843828Y-14685354D01*
X30704646Y-14546172D01*
X30704643Y-14546169D01*
X30704641Y-14546168D01*
X30545404Y-14430475D01*
X30370019Y-14341113D01*
X30182836Y-14280293D01*
X30182823Y-14280290D01*
X29988418Y-14249500D01*
X29988417Y-14249500D01*
X29791583Y-14249500D01*
X29791582Y-14249500D01*
X29597176Y-14280290D01*
X29597163Y-14280293D01*
X29409980Y-14341113D01*
X29234595Y-14430475D01*
X29075358Y-14546168D01*
X28936168Y-14685358D01*
X28820475Y-14844595D01*
X28731113Y-15019980D01*
X28690378Y-15145351D01*
X28653595Y-15188419D01*
X28597133Y-15192862D01*
X28554065Y-15156079D01*
X28549622Y-15145351D01*
X28508886Y-15019980D01*
X28508884Y-15019977D01*
X28508884Y-15019975D01*
X28419524Y-14844595D01*
X28303828Y-14685354D01*
X28164646Y-14546172D01*
X28164643Y-14546169D01*
X28164641Y-14546168D01*
X28005404Y-14430475D01*
X27830019Y-14341113D01*
X27642836Y-14280293D01*
X27642823Y-14280290D01*
X27448418Y-14249500D01*
X27448417Y-14249500D01*
X27251583Y-14249500D01*
X27251582Y-14249500D01*
X27057176Y-14280290D01*
X27057163Y-14280293D01*
X26869980Y-14341113D01*
X26694595Y-14430475D01*
X26535358Y-14546168D01*
X26396168Y-14685358D01*
X26280475Y-14844595D01*
X26191113Y-15019980D01*
X26150378Y-15145351D01*
X26113595Y-15188419D01*
X26057133Y-15192862D01*
X26014065Y-15156079D01*
X26009622Y-15145351D01*
X25968886Y-15019980D01*
X25968884Y-15019977D01*
X25968884Y-15019975D01*
X25879524Y-14844595D01*
X25763828Y-14685354D01*
X25624646Y-14546172D01*
X25624643Y-14546169D01*
X25624641Y-14546168D01*
X25465404Y-14430475D01*
X25290019Y-14341113D01*
X25102836Y-14280293D01*
X25102823Y-14280290D01*
X24908418Y-14249500D01*
X24908417Y-14249500D01*
X24711583Y-14249500D01*
X24711582Y-14249500D01*
X24517176Y-14280290D01*
X24517163Y-14280293D01*
X24329980Y-14341113D01*
X24154595Y-14430475D01*
X23995358Y-14546168D01*
X23856168Y-14685358D01*
X23740475Y-14844595D01*
X23651113Y-15019980D01*
X23610378Y-15145351D01*
X23573595Y-15188419D01*
X23517133Y-15192862D01*
X23474065Y-15156079D01*
X23469622Y-15145351D01*
X23428886Y-15019980D01*
X23428884Y-15019977D01*
X23428884Y-15019975D01*
X23339524Y-14844595D01*
X23223828Y-14685354D01*
X23084646Y-14546172D01*
X23084643Y-14546169D01*
X23084641Y-14546168D01*
X22925404Y-14430475D01*
X22766752Y-14349639D01*
X22766753Y-14349639D01*
X22750025Y-14341116D01*
X22642040Y-14306029D01*
X22641999Y-14306015D01*
X22562836Y-14280293D01*
X22562823Y-14280290D01*
X22368418Y-14249500D01*
X22368417Y-14249500D01*
X22171583Y-14249500D01*
X22171582Y-14249500D01*
X21977176Y-14280290D01*
X21977163Y-14280293D01*
X21789980Y-14341113D01*
X21614595Y-14430475D01*
X21455358Y-14546168D01*
X21316168Y-14685358D01*
X21200475Y-14844595D01*
X21111113Y-15019980D01*
X21070378Y-15145351D01*
X21033595Y-15188419D01*
X20977133Y-15192862D01*
X20934065Y-15156079D01*
X20929622Y-15145351D01*
X20888886Y-15019980D01*
X20888884Y-15019977D01*
X20888884Y-15019975D01*
X20799524Y-14844595D01*
X20683828Y-14685354D01*
X20544646Y-14546172D01*
X20544643Y-14546169D01*
X20544641Y-14546168D01*
X20385404Y-14430475D01*
X20210019Y-14341113D01*
X20022836Y-14280293D01*
X20022823Y-14280290D01*
X19828418Y-14249500D01*
X19828417Y-14249500D01*
X19631583Y-14249500D01*
X19631582Y-14249500D01*
X19437176Y-14280290D01*
X19437163Y-14280293D01*
X19249980Y-14341113D01*
X19074595Y-14430475D01*
X18915358Y-14546168D01*
X18776168Y-14685358D01*
X18660475Y-14844595D01*
X18571113Y-15019980D01*
X18530378Y-15145351D01*
X18493595Y-15188419D01*
X18437133Y-15192862D01*
X18394065Y-15156079D01*
X18389622Y-15145351D01*
X18348886Y-15019980D01*
X18348884Y-15019977D01*
X18348884Y-15019975D01*
X18259524Y-14844595D01*
X18143828Y-14685354D01*
X18004646Y-14546172D01*
X18004643Y-14546169D01*
X18004641Y-14546168D01*
X17845404Y-14430475D01*
X17670019Y-14341113D01*
X17482836Y-14280293D01*
X17482823Y-14280290D01*
X17288418Y-14249500D01*
X17288417Y-14249500D01*
X17091583Y-14249500D01*
X17091582Y-14249500D01*
X16897176Y-14280290D01*
X16897163Y-14280293D01*
X16709980Y-14341113D01*
X16534595Y-14430475D01*
X16375358Y-14546168D01*
X16236168Y-14685358D01*
X16120475Y-14844595D01*
X16031113Y-15019980D01*
X15990378Y-15145351D01*
X15953595Y-15188419D01*
X15897133Y-15192862D01*
X15854065Y-15156079D01*
X15849622Y-15145351D01*
X15808886Y-15019980D01*
X15808884Y-15019977D01*
X15808884Y-15019975D01*
X15719524Y-14844595D01*
X15603828Y-14685354D01*
X15464646Y-14546172D01*
X15464643Y-14546169D01*
X15464641Y-14546168D01*
X15305404Y-14430475D01*
X15130019Y-14341113D01*
X14942836Y-14280293D01*
X14942823Y-14280290D01*
X14748418Y-14249500D01*
X14748417Y-14249500D01*
X14551583Y-14249500D01*
X14551582Y-14249500D01*
X14357176Y-14280290D01*
X14357163Y-14280293D01*
X14169980Y-14341113D01*
X13994595Y-14430475D01*
X13835358Y-14546168D01*
X13696168Y-14685358D01*
X13580475Y-14844595D01*
X13491113Y-15019980D01*
X13450378Y-15145351D01*
X13413595Y-15188419D01*
X13357133Y-15192862D01*
X13314065Y-15156079D01*
X13309622Y-15145351D01*
X13268886Y-15019980D01*
X13268884Y-15019977D01*
X13268884Y-15019975D01*
X13179524Y-14844595D01*
X13063828Y-14685354D01*
X12924646Y-14546172D01*
X12924643Y-14546169D01*
X12924641Y-14546168D01*
X12765404Y-14430475D01*
X12590019Y-14341113D01*
X12402836Y-14280293D01*
X12402823Y-14280290D01*
X12208418Y-14249500D01*
X12208417Y-14249500D01*
X12011583Y-14249500D01*
X12011582Y-14249500D01*
X11817176Y-14280290D01*
X11817163Y-14280293D01*
X11629980Y-14341113D01*
X11454595Y-14430475D01*
X11295358Y-14546168D01*
X11156168Y-14685358D01*
X11040475Y-14844595D01*
X10951113Y-15019980D01*
X10910378Y-15145351D01*
X10873595Y-15188419D01*
X10817133Y-15192862D01*
X10774065Y-15156079D01*
X10769622Y-15145351D01*
X10728886Y-15019980D01*
X10728884Y-15019977D01*
X10728884Y-15019975D01*
X10639524Y-14844595D01*
X10523828Y-14685354D01*
X10384646Y-14546172D01*
X10384643Y-14546169D01*
X10384641Y-14546168D01*
X10225404Y-14430475D01*
X10050019Y-14341113D01*
X9862836Y-14280293D01*
X9862823Y-14280290D01*
X9668418Y-14249500D01*
X9668417Y-14249500D01*
X9471583Y-14249500D01*
X9471582Y-14249500D01*
X9362433Y-14266787D01*
X9307361Y-14253565D01*
X9277768Y-14205274D01*
X9290990Y-14150202D01*
X9298523Y-14141380D01*
X9963231Y-13476674D01*
X10015557Y-13455000D01*
X14604425Y-13455000D01*
X14604433Y-13455001D01*
X14613045Y-13455001D01*
X14702754Y-13455001D01*
X14702755Y-13455001D01*
X14761360Y-13430725D01*
X14785636Y-13420670D01*
X14849070Y-13357236D01*
X14849070Y-13357235D01*
X14859475Y-13346830D01*
X14859476Y-13346827D01*
X15703931Y-12502374D01*
X15756257Y-12480700D01*
X21097225Y-12480700D01*
X21097233Y-12480701D01*
X21105845Y-12480701D01*
X21195554Y-12480701D01*
X21195555Y-12480701D01*
X21254160Y-12456425D01*
X21278436Y-12446370D01*
X21341870Y-12382936D01*
X21341870Y-12382935D01*
X21352275Y-12372530D01*
X21352277Y-12372527D01*
X22026170Y-11698633D01*
X22078495Y-11676960D01*
X22097649Y-11679482D01*
X22113390Y-11683700D01*
X22113391Y-11683700D01*
X22232011Y-11683700D01*
X22232011Y-11683699D01*
X22346586Y-11652999D01*
X22449313Y-11593689D01*
X22533189Y-11509813D01*
X22592499Y-11407086D01*
X22623199Y-11292511D01*
X22623200Y-11292511D01*
X22623200Y-11173889D01*
X22623199Y-11173888D01*
X22618539Y-11156498D01*
X22592499Y-11059314D01*
X22533189Y-10956587D01*
X22449313Y-10872711D01*
X22449310Y-10872709D01*
X22449309Y-10872708D01*
X22346587Y-10813401D01*
X22346582Y-10813399D01*
X22239638Y-10784743D01*
X22194705Y-10750264D01*
X22187313Y-10694112D01*
X22196968Y-10677388D01*
X24108800Y-10677388D01*
X24108800Y-10796011D01*
X24139499Y-10910582D01*
X24139501Y-10910587D01*
X24198808Y-11013309D01*
X24198809Y-11013310D01*
X24198811Y-11013313D01*
X24282687Y-11097189D01*
X24282689Y-11097190D01*
X24282690Y-11097191D01*
X24339861Y-11130199D01*
X24385414Y-11156499D01*
X24385415Y-11156499D01*
X24385417Y-11156500D01*
X24442702Y-11171849D01*
X24499988Y-11187199D01*
X24499989Y-11187200D01*
X24499991Y-11187200D01*
X24618611Y-11187200D01*
X24618611Y-11187199D01*
X24733186Y-11156499D01*
X24835913Y-11097189D01*
X24919789Y-11013313D01*
X24979099Y-10910586D01*
X25009799Y-10796011D01*
X25009800Y-10796011D01*
X25009800Y-10677389D01*
X25009799Y-10677388D01*
X25002303Y-10649414D01*
X24993163Y-10615300D01*
X24979100Y-10562817D01*
X24979098Y-10562812D01*
X24919791Y-10460090D01*
X24919790Y-10460089D01*
X24919789Y-10460087D01*
X24835913Y-10376211D01*
X24835910Y-10376209D01*
X24835909Y-10376208D01*
X24733187Y-10316901D01*
X24733182Y-10316899D01*
X24618611Y-10286200D01*
X24618609Y-10286200D01*
X24499991Y-10286200D01*
X24499989Y-10286200D01*
X24385417Y-10316899D01*
X24385412Y-10316901D01*
X24282690Y-10376208D01*
X24198808Y-10460090D01*
X24139501Y-10562812D01*
X24139499Y-10562817D01*
X24108800Y-10677388D01*
X22196968Y-10677388D01*
X22206464Y-10660939D01*
X22230432Y-10636973D01*
X22282757Y-10615300D01*
X23281825Y-10615300D01*
X23281833Y-10615301D01*
X23290445Y-10615301D01*
X23380154Y-10615301D01*
X23380155Y-10615301D01*
X23438760Y-10591025D01*
X23463036Y-10580970D01*
X23526470Y-10517536D01*
X23526470Y-10517535D01*
X23536875Y-10507130D01*
X23536876Y-10507127D01*
X23772471Y-10271533D01*
X23824796Y-10249860D01*
X23843947Y-10252381D01*
X23859691Y-10256600D01*
X23978311Y-10256600D01*
X23978311Y-10256599D01*
X24092886Y-10225899D01*
X24195613Y-10166589D01*
X24279489Y-10082713D01*
X24338799Y-9979986D01*
X24369499Y-9865411D01*
X24369500Y-9865411D01*
X24369500Y-9746789D01*
X24369499Y-9746788D01*
X24364652Y-9728700D01*
X24345123Y-9655814D01*
X24338800Y-9632217D01*
X24338798Y-9632212D01*
X24310443Y-9583100D01*
X24303050Y-9526948D01*
X24337529Y-9482014D01*
X24374529Y-9472100D01*
X25781308Y-9472100D01*
X25833634Y-9493774D01*
X25845392Y-9509097D01*
X25853838Y-9523726D01*
X25889508Y-9585509D01*
X25889509Y-9585510D01*
X25889511Y-9585513D01*
X25973387Y-9669389D01*
X25973389Y-9669390D01*
X25973390Y-9669391D01*
X26058269Y-9718396D01*
X26076114Y-9728699D01*
X26076115Y-9728699D01*
X26076117Y-9728700D01*
X26133402Y-9744049D01*
X26190688Y-9759399D01*
X26190689Y-9759400D01*
X26190691Y-9759400D01*
X26309311Y-9759400D01*
X26309311Y-9759399D01*
X26423886Y-9728699D01*
X26526613Y-9669389D01*
X26610489Y-9585513D01*
X26669799Y-9482786D01*
X26700499Y-9368211D01*
X26700500Y-9368211D01*
X26700500Y-9249589D01*
X26700499Y-9249588D01*
X26696288Y-9233874D01*
X26670197Y-9136499D01*
X26669800Y-9135017D01*
X26669798Y-9135012D01*
X26610491Y-9032290D01*
X26610490Y-9032289D01*
X26610489Y-9032287D01*
X26526613Y-8948411D01*
X26526610Y-8948409D01*
X26526609Y-8948408D01*
X26423887Y-8889101D01*
X26423882Y-8889099D01*
X26309311Y-8858400D01*
X26309309Y-8858400D01*
X26190691Y-8858400D01*
X26190689Y-8858400D01*
X26076117Y-8889099D01*
X26076112Y-8889101D01*
X25973389Y-8948409D01*
X25973386Y-8948411D01*
X25922371Y-8999426D01*
X25870046Y-9021100D01*
X23682475Y-9021100D01*
X23682467Y-9021099D01*
X23673855Y-9021099D01*
X23584146Y-9021099D01*
X23535594Y-9041209D01*
X23518494Y-9048292D01*
X23461857Y-9048292D01*
X23421809Y-9008243D01*
X23418700Y-8999088D01*
X23409999Y-8966614D01*
X23374351Y-8904870D01*
X23350691Y-8863890D01*
X23350690Y-8863889D01*
X23350689Y-8863887D01*
X23266813Y-8780011D01*
X23266810Y-8780009D01*
X23266809Y-8780008D01*
X23164087Y-8720701D01*
X23164082Y-8720699D01*
X23049511Y-8690000D01*
X23049509Y-8690000D01*
X22934158Y-8690000D01*
X22881832Y-8668326D01*
X22860158Y-8616000D01*
X22881832Y-8563674D01*
X24361832Y-7083674D01*
X24414158Y-7062000D01*
X26560277Y-7062000D01*
X26612603Y-7083674D01*
G37*
%TD.AperFunction*%
%TD*%
M02*
