%TF.GenerationSoftware,KiCad,Pcbnew,10.0.6*%
%TF.CreationDate,2026-09-15T09:33:28-04:00*%
%TF.ProjectId,click-counter-Q3,636c6963-6b2d-4636-9f75-6e7465722d51,rev?*%
%TF.SameCoordinates,Original*%
%TF.FileFunction,Legend,Top*%
%TF.FilePolarity,Positive*%
%FSLAX46Y46*%
G04 Gerber Fmt 4.6, Leading zero omitted, Abs format (unit mm)*
G04 Created by KiCad (PCBNEW 10.0.6) date 2026-09-15 09:33:28*
%MOMM*%
%LPD*%
G01*
G04 APERTURE LIST*
G04 Aperture macros list*
%AMRoundRect*
0 Rectangle with rounded corners*
0 $1 Rounding radius*
0 $2 $3 $4 $5 $6 $7 $8 $9 X,Y pos of 4 corners*
0 Add a 4 corners polygon primitive as box body*
4,1,4,$2,$3,$4,$5,$6,$7,$8,$9,$2,$3,0*
0 Add four circle primitives for the rounded corners*
1,1,$1+$1,$2,$3*
1,1,$1+$1,$4,$5*
1,1,$1+$1,$6,$7*
1,1,$1+$1,$8,$9*
0 Add four rect primitives between the rounded corners*
20,1,$1+$1,$2,$3,$4,$5,0*
20,1,$1+$1,$4,$5,$6,$7,0*
20,1,$1+$1,$6,$7,$8,$9,0*
20,1,$1+$1,$8,$9,$2,$3,0*%
G04 Aperture macros list end*
%ADD10C,0.120000*%
%ADD11C,0.100000*%
%ADD12C,3.950000*%
%ADD13C,2.200000*%
%ADD14RoundRect,0.050000X-1.400000X-0.200000X1.400000X-0.200000X1.400000X0.200000X-1.400000X0.200000X0*%
%ADD15C,0.650000*%
%ADD16O,1.800000X1.000000*%
%ADD17O,2.100000X1.000000*%
G04 APERTURE END LIST*
D10*
X18285714Y-38661140D02*
X18238095Y-38708760D01*
X18238095Y-38708760D02*
X18095238Y-38756379D01*
X18095238Y-38756379D02*
X18000000Y-38756379D01*
X18000000Y-38756379D02*
X17857143Y-38708760D01*
X17857143Y-38708760D02*
X17761905Y-38613521D01*
X17761905Y-38613521D02*
X17714286Y-38518283D01*
X17714286Y-38518283D02*
X17666667Y-38327807D01*
X17666667Y-38327807D02*
X17666667Y-38184950D01*
X17666667Y-38184950D02*
X17714286Y-37994474D01*
X17714286Y-37994474D02*
X17761905Y-37899236D01*
X17761905Y-37899236D02*
X17857143Y-37803998D01*
X17857143Y-37803998D02*
X18000000Y-37756379D01*
X18000000Y-37756379D02*
X18095238Y-37756379D01*
X18095238Y-37756379D02*
X18238095Y-37803998D01*
X18238095Y-37803998D02*
X18285714Y-37851617D01*
X19190476Y-38756379D02*
X18714286Y-38756379D01*
X18714286Y-38756379D02*
X18714286Y-37756379D01*
X19523810Y-38756379D02*
X19523810Y-37756379D01*
X20571428Y-38661140D02*
X20523809Y-38708760D01*
X20523809Y-38708760D02*
X20380952Y-38756379D01*
X20380952Y-38756379D02*
X20285714Y-38756379D01*
X20285714Y-38756379D02*
X20142857Y-38708760D01*
X20142857Y-38708760D02*
X20047619Y-38613521D01*
X20047619Y-38613521D02*
X20000000Y-38518283D01*
X20000000Y-38518283D02*
X19952381Y-38327807D01*
X19952381Y-38327807D02*
X19952381Y-38184950D01*
X19952381Y-38184950D02*
X20000000Y-37994474D01*
X20000000Y-37994474D02*
X20047619Y-37899236D01*
X20047619Y-37899236D02*
X20142857Y-37803998D01*
X20142857Y-37803998D02*
X20285714Y-37756379D01*
X20285714Y-37756379D02*
X20380952Y-37756379D01*
X20380952Y-37756379D02*
X20523809Y-37803998D01*
X20523809Y-37803998D02*
X20571428Y-37851617D01*
X21000000Y-38756379D02*
X21000000Y-37756379D01*
X21571428Y-38756379D02*
X21142857Y-38184950D01*
X21571428Y-37756379D02*
X21000000Y-38327807D01*
X23428571Y-38851617D02*
X23333333Y-38803998D01*
X23333333Y-38803998D02*
X23238095Y-38708760D01*
X23238095Y-38708760D02*
X23095238Y-38565902D01*
X23095238Y-38565902D02*
X23000000Y-38518283D01*
X23000000Y-38518283D02*
X22904762Y-38518283D01*
X22952381Y-38756379D02*
X22857143Y-38708760D01*
X22857143Y-38708760D02*
X22761905Y-38613521D01*
X22761905Y-38613521D02*
X22714286Y-38423045D01*
X22714286Y-38423045D02*
X22714286Y-38089712D01*
X22714286Y-38089712D02*
X22761905Y-37899236D01*
X22761905Y-37899236D02*
X22857143Y-37803998D01*
X22857143Y-37803998D02*
X22952381Y-37756379D01*
X22952381Y-37756379D02*
X23142857Y-37756379D01*
X23142857Y-37756379D02*
X23238095Y-37803998D01*
X23238095Y-37803998D02*
X23333333Y-37899236D01*
X23333333Y-37899236D02*
X23380952Y-38089712D01*
X23380952Y-38089712D02*
X23380952Y-38423045D01*
X23380952Y-38423045D02*
X23333333Y-38613521D01*
X23333333Y-38613521D02*
X23238095Y-38708760D01*
X23238095Y-38708760D02*
X23142857Y-38756379D01*
X23142857Y-38756379D02*
X22952381Y-38756379D01*
X23714286Y-37756379D02*
X24333333Y-37756379D01*
X24333333Y-37756379D02*
X24000000Y-38137331D01*
X24000000Y-38137331D02*
X24142857Y-38137331D01*
X24142857Y-38137331D02*
X24238095Y-38184950D01*
X24238095Y-38184950D02*
X24285714Y-38232569D01*
X24285714Y-38232569D02*
X24333333Y-38327807D01*
X24333333Y-38327807D02*
X24333333Y-38565902D01*
X24333333Y-38565902D02*
X24285714Y-38661140D01*
X24285714Y-38661140D02*
X24238095Y-38708760D01*
X24238095Y-38708760D02*
X24142857Y-38756379D01*
X24142857Y-38756379D02*
X23857143Y-38756379D01*
X23857143Y-38756379D02*
X23761905Y-38708760D01*
X23761905Y-38708760D02*
X23714286Y-38661140D01*
D11*
X41878571Y-9894895D02*
X41421428Y-9894895D01*
X41650000Y-9894895D02*
X41650000Y-9094895D01*
X41650000Y-9094895D02*
X41573809Y-9209180D01*
X41573809Y-9209180D02*
X41497619Y-9285371D01*
X41497619Y-9285371D02*
X41421428Y-9323466D01*
%LPC*%
D12*
%TO.C,SW1*%
X11475000Y-28000000D03*
D13*
X14015000Y-22920000D03*
X7665000Y-25460000D03*
%TD*%
%TO.C,H2*%
X40000000Y-38200000D03*
%TD*%
D14*
%TO.C,DS1*%
X39750000Y-9530000D03*
X39750000Y-8910000D03*
X39750000Y-8290000D03*
X39750000Y-7670000D03*
X39750000Y-7050000D03*
X39750000Y-6430000D03*
X39750000Y-5810000D03*
X39750000Y-5190000D03*
X39750000Y-4570000D03*
X39750000Y-3950000D03*
X39750000Y-3330000D03*
X39750000Y-2710000D03*
X39750000Y-2090000D03*
X39750000Y-1470000D03*
%TD*%
D12*
%TO.C,SW2*%
X30525000Y-28000000D03*
D13*
X33065000Y-22920000D03*
X26715000Y-25460000D03*
%TD*%
%TO.C,H1*%
X2000000Y-38200000D03*
%TD*%
D15*
%TO.C,J1*%
X36295000Y-12410000D03*
X36295000Y-18190000D03*
D16*
X39975000Y-10980000D03*
D17*
X35795000Y-10980000D03*
D16*
X39975000Y-19620000D03*
D17*
X35795000Y-19620000D03*
%TD*%
%LPD*%
M02*
