%TF.GenerationSoftware,KiCad,Pcbnew,10.0.6*%
%TF.CreationDate,2026-09-15T09:33:28-04:00*%
%TF.ProjectId,click-counter-Q3,636c6963-6b2d-4636-9f75-6e7465722d51,rev?*%
%TF.SameCoordinates,Original*%
%TF.FileFunction,Soldermask,Bot*%
%TF.FilePolarity,Negative*%
%FSLAX46Y46*%
G04 Gerber Fmt 4.6, Leading zero omitted, Abs format (unit mm)*
G04 Created by KiCad (PCBNEW 10.0.6) date 2026-09-15 09:33:28*
%MOMM*%
%LPD*%
G01*
G04 APERTURE LIST*
G04 Aperture macros list*
%AMRoundRect*
0 Rectangle with rounded corners*
0 $1 Rounding radius*
0 $2 $3 $4 $5 $6 $7 $8 $9 X,Y pos of 4 corners*
0 Add a 4 corners polygon primitive as box body*
4,1,4,$2,$3,$4,$5,$6,$7,$8,$9,$2,$3,0*
0 Add four circle primitives for the rounded corners*
1,1,$1+$1,$2,$3*
1,1,$1+$1,$4,$5*
1,1,$1+$1,$6,$7*
1,1,$1+$1,$8,$9*
0 Add four rect primitives between the rounded corners*
20,1,$1+$1,$2,$3,$4,$5,0*
20,1,$1+$1,$4,$5,$6,$7,0*
20,1,$1+$1,$6,$7,$8,$9,0*
20,1,$1+$1,$8,$9,$2,$3,0*%
G04 Aperture macros list end*
%ADD10C,3.950000*%
%ADD11C,2.200000*%
%ADD12RoundRect,0.250000X0.475000X-0.250000X0.475000X0.250000X-0.475000X0.250000X-0.475000X-0.250000X0*%
%ADD13RoundRect,0.200000X0.275000X-0.200000X0.275000X0.200000X-0.275000X0.200000X-0.275000X-0.200000X0*%
%ADD14RoundRect,0.150000X0.587500X0.150000X-0.587500X0.150000X-0.587500X-0.150000X0.587500X-0.150000X0*%
%ADD15RoundRect,0.250000X-0.475000X0.250000X-0.475000X-0.250000X0.475000X-0.250000X0.475000X0.250000X0*%
%ADD16RoundRect,0.100000X-0.650000X-0.175000X0.650000X-0.175000X0.650000X0.175000X-0.650000X0.175000X0*%
%ADD17RoundRect,0.200000X0.200000X0.275000X-0.200000X0.275000X-0.200000X-0.275000X0.200000X-0.275000X0*%
%ADD18RoundRect,0.200000X-0.200000X-0.275000X0.200000X-0.275000X0.200000X0.275000X-0.200000X0.275000X0*%
%ADD19RoundRect,0.150000X-0.587500X-0.150000X0.587500X-0.150000X0.587500X0.150000X-0.587500X0.150000X0*%
%ADD20C,1.500000*%
%ADD21RoundRect,0.150000X-0.512500X-0.150000X0.512500X-0.150000X0.512500X0.150000X-0.512500X0.150000X0*%
%ADD22RoundRect,0.250000X-0.250000X-0.475000X0.250000X-0.475000X0.250000X0.475000X-0.250000X0.475000X0*%
%ADD23C,0.650000*%
%ADD24RoundRect,0.150000X-0.425000X0.150000X-0.425000X-0.150000X0.425000X-0.150000X0.425000X0.150000X0*%
%ADD25RoundRect,0.075000X-0.500000X0.075000X-0.500000X-0.075000X0.500000X-0.075000X0.500000X0.075000X0*%
%ADD26O,1.800000X1.000000*%
%ADD27O,2.100000X1.000000*%
%ADD28RoundRect,0.225000X0.225000X0.250000X-0.225000X0.250000X-0.225000X-0.250000X0.225000X-0.250000X0*%
%ADD29RoundRect,0.225000X0.250000X-0.225000X0.250000X0.225000X-0.250000X0.225000X-0.250000X-0.225000X0*%
%ADD30RoundRect,0.075000X-0.075000X0.662500X-0.075000X-0.662500X0.075000X-0.662500X0.075000X0.662500X0*%
%ADD31RoundRect,0.150000X-0.625000X0.150000X-0.625000X-0.150000X0.625000X-0.150000X0.625000X0.150000X0*%
%ADD32RoundRect,0.250000X-0.650000X0.350000X-0.650000X-0.350000X0.650000X-0.350000X0.650000X0.350000X0*%
%ADD33RoundRect,0.070000X0.355000X-0.070000X0.355000X0.070000X-0.355000X0.070000X-0.355000X-0.070000X0*%
%ADD34RoundRect,0.070000X0.305000X-0.070000X0.305000X0.070000X-0.305000X0.070000X-0.305000X-0.070000X0*%
%ADD35RoundRect,0.250000X0.250000X0.475000X-0.250000X0.475000X-0.250000X-0.475000X0.250000X-0.475000X0*%
%ADD36RoundRect,0.050000X0.900000X-0.400000X0.900000X0.400000X-0.900000X0.400000X-0.900000X-0.400000X0*%
%ADD37RoundRect,0.225000X-0.225000X-0.250000X0.225000X-0.250000X0.225000X0.250000X-0.225000X0.250000X0*%
%ADD38RoundRect,0.050000X-0.325000X-0.050000X0.325000X-0.050000X0.325000X0.050000X-0.325000X0.050000X0*%
%ADD39R,0.900000X1.500000*%
%ADD40RoundRect,0.100000X-0.250000X-0.075000X0.250000X-0.075000X0.250000X0.075000X-0.250000X0.075000X0*%
%ADD41RoundRect,0.100000X-0.550000X-0.950000X0.550000X-0.950000X0.550000X0.950000X-0.550000X0.950000X0*%
G04 APERTURE END LIST*
D10*
%TO.C,SW1*%
X11475000Y-28000000D03*
D11*
X14015000Y-22920000D03*
X7665000Y-25460000D03*
%TD*%
%TO.C,H2*%
X40000000Y-38200000D03*
%TD*%
D10*
%TO.C,SW2*%
X30525000Y-28000000D03*
D11*
X33065000Y-22920000D03*
X26715000Y-25460000D03*
%TD*%
%TO.C,H1*%
X2000000Y-38200000D03*
%TD*%
D12*
%TO.C,C23*%
X39300000Y-2800000D03*
X39300000Y-900000D03*
%TD*%
D13*
%TO.C,R16*%
X13100000Y-34775000D03*
X13100000Y-33125000D03*
%TD*%
D14*
%TO.C,Q6*%
X32737500Y-16050000D03*
X32737500Y-17950000D03*
X30862500Y-17000000D03*
%TD*%
D15*
%TO.C,C2*%
X28600000Y-12450000D03*
X28600000Y-14350000D03*
%TD*%
D16*
%TO.C,U5*%
X13800000Y-6475000D03*
X13800000Y-5825000D03*
X13800000Y-5175000D03*
X13800000Y-4525000D03*
X18200000Y-4525000D03*
X18200000Y-5175000D03*
X18200000Y-5825000D03*
X18200000Y-6475000D03*
%TD*%
D17*
%TO.C,R15*%
X17325000Y-27450000D03*
X15675000Y-27450000D03*
%TD*%
D13*
%TO.C,R8*%
X10000000Y-6125000D03*
X10000000Y-4475000D03*
%TD*%
D18*
%TO.C,R28*%
X32875000Y-2100000D03*
X34525000Y-2100000D03*
%TD*%
D19*
%TO.C,Q3*%
X19062500Y-23450000D03*
X19062500Y-21550000D03*
X20937500Y-22500000D03*
%TD*%
D18*
%TO.C,R11*%
X11175000Y-18800000D03*
X12825000Y-18800000D03*
%TD*%
D20*
%TO.C,TP2*%
X3000000Y-26000000D03*
%TD*%
D13*
%TO.C,R18*%
X36500000Y-34325000D03*
X36500000Y-32675000D03*
%TD*%
D21*
%TO.C,U3*%
X27062500Y-7950000D03*
X27062500Y-7000000D03*
X27062500Y-6050000D03*
X29337500Y-6050000D03*
X29337500Y-7950000D03*
%TD*%
D22*
%TO.C,C1*%
X31150000Y-8100000D03*
X33050000Y-8100000D03*
%TD*%
D18*
%TO.C,R13*%
X17775000Y-18800000D03*
X19425000Y-18800000D03*
%TD*%
D13*
%TO.C,R22*%
X18300000Y-10025000D03*
X18300000Y-8375000D03*
%TD*%
D23*
%TO.C,J1*%
X36295000Y-12410000D03*
X36295000Y-18190000D03*
D24*
X35220000Y-12100000D03*
X35220000Y-12900000D03*
D25*
X35220000Y-14050000D03*
X35220000Y-15050000D03*
X35220000Y-15550000D03*
X35220000Y-16550000D03*
D24*
X35220000Y-17700000D03*
X35220000Y-18500000D03*
X35220000Y-18500000D03*
X35220000Y-17700000D03*
D25*
X35220000Y-17050000D03*
X35220000Y-16050000D03*
X35220000Y-14550000D03*
X35220000Y-13550000D03*
D24*
X35220000Y-12900000D03*
X35220000Y-12100000D03*
D26*
X39975000Y-10980000D03*
D27*
X35795000Y-10980000D03*
D26*
X39975000Y-19620000D03*
D27*
X35795000Y-19620000D03*
%TD*%
D28*
%TO.C,C27*%
X37025000Y-6050000D03*
X35475000Y-6050000D03*
%TD*%
D20*
%TO.C,TP7*%
X11800000Y-24000000D03*
%TD*%
D29*
%TO.C,C24*%
X39300000Y-5875000D03*
X39300000Y-4325000D03*
%TD*%
D12*
%TO.C,C19*%
X24000000Y-8350000D03*
X24000000Y-6450000D03*
%TD*%
D30*
%TO.C,U1*%
X15250000Y-31287500D03*
X15750000Y-31287500D03*
X16250000Y-31287500D03*
X16750000Y-31287500D03*
X17250000Y-31287500D03*
X17750000Y-31287500D03*
X18250000Y-31287500D03*
X18750000Y-31287500D03*
X19250000Y-31287500D03*
X19750000Y-31287500D03*
X20250000Y-31287500D03*
X20750000Y-31287500D03*
X21250000Y-31287500D03*
X21750000Y-31287500D03*
X22250000Y-31287500D03*
X22750000Y-31287500D03*
X23250000Y-31287500D03*
X23750000Y-31287500D03*
X24250000Y-31287500D03*
X24750000Y-31287500D03*
X25250000Y-31287500D03*
X25750000Y-31287500D03*
X26250000Y-31287500D03*
X26750000Y-31287500D03*
X26750000Y-38712500D03*
X26250000Y-38712500D03*
X25750000Y-38712500D03*
X25250000Y-38712500D03*
X24750000Y-38712500D03*
X24250000Y-38712500D03*
X23750000Y-38712500D03*
X23250000Y-38712500D03*
X22750000Y-38712500D03*
X22250000Y-38712500D03*
X21750000Y-38712500D03*
X21250000Y-38712500D03*
X20750000Y-38712500D03*
X20250000Y-38712500D03*
X19750000Y-38712500D03*
X19250000Y-38712500D03*
X18750000Y-38712500D03*
X18250000Y-38712500D03*
X17750000Y-38712500D03*
X17250000Y-38712500D03*
X16750000Y-38712500D03*
X16250000Y-38712500D03*
X15750000Y-38712500D03*
X15250000Y-38712500D03*
%TD*%
D20*
%TO.C,TP10*%
X31000000Y-31700000D03*
%TD*%
D13*
%TO.C,R6*%
X23000000Y-24025000D03*
X23000000Y-22375000D03*
%TD*%
D20*
%TO.C,TP9*%
X9000000Y-31700000D03*
%TD*%
D19*
%TO.C,Q5*%
X26562500Y-17950000D03*
X26562500Y-16050000D03*
X28437500Y-17000000D03*
%TD*%
D18*
%TO.C,R3*%
X28575000Y-2100000D03*
X30225000Y-2100000D03*
%TD*%
D20*
%TO.C,TP1*%
X3000000Y-23000000D03*
%TD*%
D18*
%TO.C,R5*%
X10675000Y-16800000D03*
X12325000Y-16800000D03*
%TD*%
%TO.C,R12*%
X14475000Y-18800000D03*
X16125000Y-18800000D03*
%TD*%
D31*
%TO.C,J2*%
X3000000Y-15300000D03*
X3000000Y-16300000D03*
X3000000Y-17300000D03*
X3000000Y-18300000D03*
D32*
X6875000Y-19600000D03*
X6875000Y-14000000D03*
%TD*%
D18*
%TO.C,R1*%
X30975000Y-19900000D03*
X32625000Y-19900000D03*
%TD*%
D19*
%TO.C,Q1*%
X4062500Y-11950000D03*
X4062500Y-10050000D03*
X5937500Y-11000000D03*
%TD*%
D13*
%TO.C,R9*%
X12300000Y-12825000D03*
X12300000Y-11175000D03*
%TD*%
D22*
%TO.C,C5*%
X27550000Y-10500000D03*
X29450000Y-10500000D03*
%TD*%
D33*
%TO.C,U4*%
X6475000Y-6500000D03*
D34*
X6425000Y-6000000D03*
X6425000Y-5500000D03*
X7575000Y-5500000D03*
X7575000Y-6000000D03*
X7575000Y-6500000D03*
%TD*%
D20*
%TO.C,TP4*%
X3000000Y-32000000D03*
%TD*%
D18*
%TO.C,R20*%
X14175000Y-10500000D03*
X15825000Y-10500000D03*
%TD*%
D13*
%TO.C,R26*%
X29200000Y-37825000D03*
X29200000Y-36175000D03*
%TD*%
D35*
%TO.C,C18*%
X21950000Y-8600000D03*
X20050000Y-8600000D03*
%TD*%
D29*
%TO.C,C10*%
X13100000Y-38075000D03*
X13100000Y-36525000D03*
%TD*%
D13*
%TO.C,R10*%
X11800000Y-3625000D03*
X11800000Y-1975000D03*
%TD*%
D29*
%TO.C,C25*%
X39300000Y-8975000D03*
X39300000Y-7425000D03*
%TD*%
D18*
%TO.C,R2*%
X36075000Y-26000000D03*
X37725000Y-26000000D03*
%TD*%
D36*
%TO.C,L1*%
X24400000Y-11700000D03*
X24400000Y-10100000D03*
%TD*%
D37*
%TO.C,C4*%
X6225000Y-3000000D03*
X7775000Y-3000000D03*
%TD*%
D29*
%TO.C,C26*%
X36300000Y-9125000D03*
X36300000Y-7575000D03*
%TD*%
D37*
%TO.C,C20*%
X35625000Y-4450000D03*
X37175000Y-4450000D03*
%TD*%
D29*
%TO.C,C9*%
X21000000Y-6075000D03*
X21000000Y-4525000D03*
%TD*%
D18*
%TO.C,R4*%
X25375000Y-22600000D03*
X27025000Y-22600000D03*
%TD*%
%TO.C,R21*%
X14175000Y-12400000D03*
X15825000Y-12400000D03*
%TD*%
D38*
%TO.C,U2*%
X30900000Y-12100000D03*
X30900000Y-11700000D03*
X30900000Y-11300000D03*
X30900000Y-10900000D03*
X30900000Y-10500000D03*
X33100000Y-10500000D03*
X33100000Y-10900000D03*
X33100000Y-11300000D03*
X33100000Y-11700000D03*
X33100000Y-12100000D03*
D39*
X32000000Y-11300000D03*
%TD*%
D18*
%TO.C,R24*%
X16975000Y-16500000D03*
X18625000Y-16500000D03*
%TD*%
%TO.C,R19*%
X22675000Y-19000000D03*
X24325000Y-19000000D03*
%TD*%
D12*
%TO.C,C22*%
X36500000Y-2850000D03*
X36500000Y-950000D03*
%TD*%
D20*
%TO.C,TP3*%
X3000000Y-29000000D03*
%TD*%
D22*
%TO.C,C3*%
X31050000Y-14100000D03*
X32950000Y-14100000D03*
%TD*%
D20*
%TO.C,TP6*%
X15000000Y-14500000D03*
%TD*%
D17*
%TO.C,R14*%
X17325000Y-23450000D03*
X15675000Y-23450000D03*
%TD*%
D21*
%TO.C,D1*%
X36662500Y-23950000D03*
X36662500Y-23000000D03*
X36662500Y-22050000D03*
X38937500Y-22050000D03*
X38937500Y-23000000D03*
X38937500Y-23950000D03*
%TD*%
D20*
%TO.C,TP8*%
X13000000Y-31100000D03*
%TD*%
%TO.C,TP5*%
X10000000Y-21400000D03*
%TD*%
D29*
%TO.C,C12*%
X34000000Y-34275000D03*
X34000000Y-32725000D03*
%TD*%
D18*
%TO.C,R23*%
X26675000Y-20000000D03*
X28325000Y-20000000D03*
%TD*%
D13*
%TO.C,R27*%
X32000000Y-37825000D03*
X32000000Y-36175000D03*
%TD*%
D40*
%TO.C,U6*%
X19850000Y-12500000D03*
X19850000Y-12000000D03*
X19850000Y-11500000D03*
X19850000Y-11000000D03*
X19850000Y-10500000D03*
X22150000Y-10500000D03*
X22150000Y-11000000D03*
X22150000Y-11500000D03*
X22150000Y-12000000D03*
X22150000Y-12500000D03*
D41*
X21000000Y-11500000D03*
%TD*%
D29*
%TO.C,C11*%
X8000000Y-35275000D03*
X8000000Y-33725000D03*
%TD*%
D15*
%TO.C,C17*%
X24200000Y-13250000D03*
X24200000Y-15150000D03*
%TD*%
D12*
%TO.C,C21*%
X33600000Y-6100000D03*
X33600000Y-4200000D03*
%TD*%
D19*
%TO.C,Q4*%
X19062500Y-27450000D03*
X19062500Y-25550000D03*
X20937500Y-26500000D03*
%TD*%
D37*
%TO.C,C13*%
X22725000Y-17000000D03*
X24275000Y-17000000D03*
%TD*%
D13*
%TO.C,R25*%
X29000000Y-23925000D03*
X29000000Y-22275000D03*
%TD*%
D14*
%TO.C,Q2*%
X9937500Y-10050000D03*
X9937500Y-11950000D03*
X8062500Y-11000000D03*
%TD*%
D13*
%TO.C,R17*%
X5500000Y-34325000D03*
X5500000Y-32675000D03*
%TD*%
D12*
%TO.C,C6*%
X25600000Y-29350000D03*
X25600000Y-27450000D03*
%TD*%
D13*
%TO.C,R7*%
X4000000Y-6125000D03*
X4000000Y-4475000D03*
%TD*%
D29*
%TO.C,C7*%
X22700000Y-29375000D03*
X22700000Y-27825000D03*
%TD*%
M02*
