M48
; DRILL file KiCad 10.0.6 date 2026-09-15T09:33:28
; FORMAT={-:-/ absolute / metric / decimal}
; #@! TF.CreationDate,2026-09-15T09:33:28-04:00
; #@! TF.GenerationSoftware,Kicad,Pcbnew,10.0.6
; #@! TF.FileFunction,Plated,1,2,PTH
FMAT,2
METRIC
; #@! TA.AperFunction,Plated,PTH,ViaDrill
T1C0.300
; #@! TA.AperFunction,Plated,PTH,ComponentDrill
T2C0.600
; #@! TA.AperFunction,Plated,PTH,ComponentDrill
T3C1.500
%
G90
G05
T1
X3.0Y-14.562
X3.757Y-31.045
X3.835Y-25.165
X3.835Y-29.835
X4.12Y-16.784
X9.846Y-34.775
X10.675Y-15.877
X11.8Y-22.817
X11.836Y-13.659
X12.7Y-4.525
X13.084Y-9.275
X13.804Y-37.369
X14.187Y-32.314
X14.745Y-8.088
X14.813Y-11.354
X14.936Y-4.761
X15.675Y-24.5
X15.675Y-28.5
X17.925Y-11.238
X18.0Y-25.55
X18.71Y-17.716
X18.826Y-13.524
X19.113Y-12.263
X19.35Y-8.6
X20.7Y-13.3
X20.995Y-15.184
X21.0Y-3.65
X21.3Y-29.85
X21.4Y-13.3
X22.029Y-15.756
X22.15Y-13.057
X22.672Y-35.762
X23.2Y-15.15
X23.25Y-32.822
X23.55Y-27.825
X24.0Y-5.45
X24.403Y-33.237
X25.25Y-37.531
X25.6Y-26.3
X26.096Y-19.205
X26.772Y-27.262
X27.431Y-37.05
X27.6Y-12.45
X27.965Y-27.272
X28.438Y-16.262
X28.575Y-4.259
X28.6Y-15.25
X30.9Y-12.8
X30.982Y-5.933
X31.217Y-3.833
X31.299Y-36.876
X31.567Y-17.884
X31.894Y-20.598
X31.98Y-6.448
X32.0Y-12.7
X32.515Y-9.858
X32.622Y-3.007
X33.05Y-9.1
X33.223Y-12.747
X33.356Y-3.19
X33.716Y-9.484
X33.85Y-14.1
X33.992Y-12.276
X34.775Y-4.825
X34.942Y-38.097
X35.077Y-9.891
X35.15Y-7.0
X36.23Y-15.966
X36.621Y-1.903
X37.204Y-10.199
X37.204Y-13.857
X37.4Y-7.67
X37.4Y-8.91
X37.9Y-3.65
X37.915Y-1.52
X37.95Y-5.81
X37.95Y-7.05
X37.95Y-8.29
X37.95Y-9.53
X38.938Y-24.69
T3
X7.665Y-25.46
X14.015Y-22.92
X26.715Y-25.46
X33.065Y-22.92
T2
G00X36.345Y-10.98
M15
G01X35.245Y-10.98
M16
G05
G00X36.345Y-19.62
M15
G01X35.245Y-19.62
M16
G05
G00X40.375Y-10.98
M15
G01X39.575Y-10.98
M16
G05
G00X40.375Y-19.62
M15
G01X39.575Y-19.62
M16
G05
M30
