%TF.GenerationSoftware,KiCad,Pcbnew,10.0.6*%
%TF.CreationDate,2026-09-24T20:55:30-04:00*%
%TF.ProjectId,click-counter-Q4,636c6963-6b2d-4636-9f75-6e7465722d51,rev?*%
%TF.SameCoordinates,Original*%
%TF.FileFunction,Copper,L1,Top*%
%TF.FilePolarity,Positive*%
%FSLAX46Y46*%
G04 Gerber Fmt 4.6, Leading zero omitted, Abs format (unit mm)*
G04 Created by KiCad (PCBNEW 10.0.6) date 2026-09-24 20:55:30*
%MOMM*%
%LPD*%
G01*
G04 APERTURE LIST*
%TA.AperFunction,ComponentPad*%
%ADD10R,1.800000X1.800000*%
%TD*%
%TA.AperFunction,ComponentPad*%
%ADD11C,1.800000*%
%TD*%
%TA.AperFunction,ComponentPad*%
%ADD12C,2.200000*%
%TD*%
%TA.AperFunction,ComponentPad*%
%ADD13O,1.800000X1.000000*%
%TD*%
%TA.AperFunction,ComponentPad*%
%ADD14O,2.100000X1.000000*%
%TD*%
%TA.AperFunction,ViaPad*%
%ADD15C,0.600000*%
%TD*%
%TA.AperFunction,Conductor*%
%ADD16C,0.150000*%
%TD*%
%TA.AperFunction,Conductor*%
%ADD17C,0.200000*%
%TD*%
%TA.AperFunction,Conductor*%
%ADD18C,0.250000*%
%TD*%
G04 APERTURE END LIST*
D10*
%TO.P,DS1,1,GND_1*%
%TO.N,GND*%
X13380000Y-4300000D03*
D11*
%TO.P,DS1,2,VCC_2*%
%TO.N,OLED_SUPPLY*%
X15920000Y-4300000D03*
%TO.P,DS1,3,SCL/SCK_3*%
%TO.N,OLED_SCK*%
X18460000Y-4300000D03*
%TO.P,DS1,4,SDA/MOSI_4*%
%TO.N,OLED_MOSI*%
X21000000Y-4300000D03*
%TO.P,DS1,5,RES#_5*%
%TO.N,OLED_RESET_N*%
X23540000Y-4300000D03*
%TO.P,DS1,6,D/C#_6*%
%TO.N,OLED_DC*%
X26080000Y-4300000D03*
%TO.P,DS1,7,CS#_7*%
%TO.N,OLED_CS_N*%
X28620000Y-4300000D03*
%TD*%
D12*
%TO.P,SW2,1,1_1*%
%TO.N,BOOT_COUNT_RESET*%
X33065000Y-35720000D03*
%TO.P,SW2,2,2_2*%
%TO.N,VLOGIC*%
X26715000Y-38260000D03*
%TD*%
%TO.P,SW1,1,1_1*%
%TO.N,COUNT_N*%
X14015000Y-35720000D03*
%TO.P,SW1,2,2_2*%
%TO.N,GND*%
X7665000Y-38260000D03*
%TD*%
D13*
%TO.P,J1,SH,SHIELD_SH*%
%TO.N,GND*%
X39975000Y-22680000D03*
D14*
X35795000Y-22680000D03*
D13*
X39975000Y-31320000D03*
D14*
X35795000Y-31320000D03*
%TD*%
D15*
%TO.N,GND*%
X27000000Y-51450000D03*
X24200000Y-5650000D03*
X30100000Y-15000000D03*
X15325000Y-16250000D03*
X26950000Y-46525000D03*
X25750000Y-24200000D03*
X23500000Y-14550000D03*
X29000000Y-9100000D03*
X28000000Y-13600000D03*
X29450000Y-20600000D03*
X31800000Y-27000000D03*
X16100000Y-29025000D03*
X23350000Y-10900000D03*
X33750000Y-13200000D03*
X23275000Y-34650000D03*
X16100000Y-22825000D03*
X20700000Y-26250000D03*
X29000000Y-5800000D03*
X17150000Y-44095000D03*
X21250000Y-29800000D03*
X16100000Y-25925000D03*
X21350000Y-11075000D03*
X26300000Y-29250000D03*
X28000000Y-10400000D03*
X28400000Y-31375000D03*
%TO.N,OLED_SUPPLY*%
X21363900Y-15701000D03*
%TO.N,OLED_SCK*%
X28653300Y-23778100D03*
%TO.N,OLED_MOSI*%
X24998100Y-25748400D03*
%TO.N,OLED_RESET_N*%
X22948100Y-21642400D03*
%TO.N,OLED_DC*%
X26836700Y-23568000D03*
%TO.N,OLED_CS_N*%
X25316600Y-16175000D03*
X27571200Y-23661400D03*
%TO.N,BOOT_COUNT_RESET*%
X22751200Y-24750000D03*
X16247900Y-42352100D03*
X22753200Y-29994100D03*
%TO.N,VLOGIC*%
X25832900Y-20624600D03*
X7840200Y-46840200D03*
X5959700Y-34215300D03*
X26884100Y-13785800D03*
%TO.N,COUNT_N*%
X20520300Y-27484900D03*
%TO.N,CELL_N_RAW*%
X3211600Y-24915400D03*
X3219800Y-22500000D03*
X4677400Y-14942200D03*
%TO.N,TEMP_COLD_OK*%
X13318000Y-18205500D03*
X13318000Y-10635200D03*
%TO.N,TEMP_SENSE*%
X15155800Y-9325000D03*
X3757000Y-23002800D03*
%TO.N,TEMP_HOT_OK*%
X16698100Y-9325000D03*
X16698100Y-18950000D03*
%TO.N,VBUS*%
X31800000Y-24300000D03*
X31800000Y-26100000D03*
%TO.N,SYS*%
X26161000Y-34161000D03*
X29977400Y-19434000D03*
%TO.N,CE_N*%
X25670000Y-11697600D03*
X27387400Y-22475000D03*
%TO.N,FRAM_CS_N*%
X23613100Y-29850200D03*
X20989500Y-37494000D03*
%TO.N,CC1*%
X34072400Y-21484600D03*
X34072400Y-25497300D03*
%TO.N,CC2*%
X36000000Y-18650000D03*
X34213100Y-28715900D03*
%TO.N,CELL_P*%
X26000000Y-12400000D03*
X26000000Y-15000000D03*
%TO.N,SWDIO*%
X21990200Y-28729800D03*
X13840900Y-46000000D03*
%TO.N,CE_MID*%
X19976600Y-15809300D03*
X19976600Y-18749000D03*
%TO.N,OLED_ENABLE*%
X23676900Y-21658900D03*
X17208200Y-13050000D03*
%TO.N,SWCLK*%
X25754100Y-32336900D03*
X14859100Y-48800000D03*
%TO.N,FRAM_SCK*%
X24714200Y-43528600D03*
X24714200Y-32876400D03*
%TO.N,FRAM_MISO*%
X22500000Y-34038300D03*
X17193900Y-45842200D03*
%TO.N,FRAM_MOSI*%
X26845900Y-30345000D03*
X24033300Y-42796500D03*
%TO.N,SYS_LOAD*%
X30898100Y-16353400D03*
X30427200Y-9150900D03*
%TD*%
%TO.N,GND*%
D16*
X15325000Y-16250000D02*
X15325000Y-22050000D01*
X27000000Y-46575000D02*
X27000000Y-51450000D01*
X26300000Y-24750000D02*
X25750000Y-24200000D01*
X29450000Y-15650000D02*
X30100000Y-15000000D01*
X23500000Y-11050000D02*
X23350000Y-10900000D01*
X15325000Y-22050000D02*
X16100000Y-22825000D01*
X26512400Y-29250000D02*
X26300000Y-29250000D01*
X39975000Y-31320000D02*
X38871300Y-31320000D01*
X38871300Y-22680000D02*
X38871300Y-31320000D01*
X29450000Y-20600000D02*
X29450000Y-15650000D01*
X28400000Y-31375000D02*
X28400000Y-31137600D01*
X26300000Y-29250000D02*
X26300000Y-24750000D01*
X16100000Y-29025000D02*
X16100000Y-25925000D01*
X21250000Y-29800000D02*
X21250000Y-26800000D01*
X31800000Y-27000000D02*
X31800000Y-28578700D01*
X26950000Y-46525000D02*
X27000000Y-46575000D01*
X35795000Y-31320000D02*
X34541300Y-31320000D01*
X28400000Y-31137600D02*
X26512400Y-29250000D01*
X23275000Y-42850000D02*
X23275000Y-34650000D01*
X38871300Y-22680000D02*
X37048700Y-22680000D01*
X35795000Y-22680000D02*
X37048700Y-22680000D01*
X31800000Y-28578700D02*
X34541300Y-31320000D01*
X26950000Y-46525000D02*
X23275000Y-42850000D01*
X21250000Y-26800000D02*
X20700000Y-26250000D01*
X23500000Y-14550000D02*
X23500000Y-11050000D01*
X16100000Y-25925000D02*
X16100000Y-22825000D01*
X39975000Y-22680000D02*
X38871300Y-22680000D01*
%TO.N,OLED_SUPPLY*%
X21363900Y-12828900D02*
X21363900Y-15701000D01*
X15920000Y-7385000D02*
X21363900Y-12828900D01*
X15920000Y-4300000D02*
X15920000Y-7385000D01*
%TO.N,OLED_SCK*%
X29739100Y-9128800D02*
X29739100Y-3786500D01*
X19582800Y-3177200D02*
X18460000Y-4300000D01*
X28653300Y-10214600D02*
X29739100Y-9128800D01*
X29129800Y-3177200D02*
X19582800Y-3177200D01*
X29739100Y-3786500D02*
X29129800Y-3177200D01*
X28653300Y-23778100D02*
X28653300Y-10214600D01*
%TO.N,OLED_MOSI*%
X21000000Y-4300000D02*
X24180700Y-7480700D01*
X24180700Y-7480700D02*
X24180700Y-24931000D01*
X24180700Y-24931000D02*
X24998100Y-25748400D01*
%TO.N,OLED_RESET_N*%
X22948100Y-21642400D02*
X22948100Y-24218100D01*
X24499900Y-7172500D02*
X23540000Y-6212600D01*
X24757700Y-26252200D02*
X25233200Y-26252200D01*
X23540000Y-6212600D02*
X23540000Y-4300000D01*
X24494300Y-25764300D02*
X24494300Y-25988800D01*
X22948100Y-24218100D02*
X24494300Y-25764300D01*
X24494300Y-25988800D02*
X24757700Y-26252200D01*
X25548900Y-25936500D02*
X25548900Y-24711100D01*
X25548900Y-24711100D02*
X24499900Y-23662100D01*
X24499900Y-23662100D02*
X24499900Y-7172500D01*
X25233200Y-26252200D02*
X25548900Y-25936500D01*
%TO.N,OLED_DC*%
X24806000Y-21537300D02*
X24806000Y-5574000D01*
X26836700Y-23568000D02*
X24806000Y-21537300D01*
X24806000Y-5574000D02*
X26080000Y-4300000D01*
%TO.N,OLED_CS_N*%
X27571200Y-23570100D02*
X27571200Y-23661400D01*
X25316600Y-16175000D02*
X25316600Y-21315500D01*
X25316600Y-21315500D02*
X27571200Y-23570100D01*
X28620000Y-4300000D02*
X25163200Y-7756800D01*
X25163200Y-16021600D02*
X25316600Y-16175000D01*
X25163200Y-7756800D02*
X25163200Y-16021600D01*
%TO.N,BOOT_COUNT_RESET*%
X16247900Y-38757200D02*
X22751200Y-32253900D01*
X22751200Y-29994100D02*
X22751200Y-24750000D01*
X16247900Y-42352100D02*
X16247900Y-38757200D01*
X22751200Y-29994100D02*
X22753200Y-29994100D01*
X22751200Y-32253900D02*
X22751200Y-29994100D01*
%TO.N,VLOGIC*%
X5859700Y-44859700D02*
X7840200Y-46840200D01*
X5959700Y-34215300D02*
X5859700Y-44859700D01*
X26884100Y-13785800D02*
X26884100Y-19573400D01*
X26884100Y-19573400D02*
X25832900Y-20624600D01*
%TO.N,COUNT_N*%
X14015000Y-33990200D02*
X20520300Y-27484900D01*
X14015000Y-35720000D02*
X14015000Y-33990200D01*
%TO.N,CELL_N_RAW*%
X2599200Y-23120600D02*
X2599200Y-24303000D01*
X2599200Y-24303000D02*
X3211600Y-24915400D01*
X4677400Y-14942200D02*
X3219800Y-16399800D01*
X3219800Y-16399800D02*
X3219800Y-22500000D01*
X3219800Y-22500000D02*
X2599200Y-23120600D01*
%TO.N,TEMP_COLD_OK*%
X13318000Y-10635200D02*
X13318000Y-18205500D01*
%TO.N,TEMP_SENSE*%
X13862200Y-9325000D02*
X15155800Y-9325000D01*
X3757000Y-19430200D02*
X13862200Y-9325000D01*
X3757000Y-23002800D02*
X3757000Y-19430200D01*
%TO.N,TEMP_HOT_OK*%
X16698100Y-9325000D02*
X16698100Y-18950000D01*
%TO.N,VBUS*%
D17*
X31800000Y-26100000D02*
X31800000Y-24300000D01*
%TO.N,SYS*%
D16*
X26387500Y-34161000D02*
X29977400Y-30571100D01*
X26161000Y-34161000D02*
X26387500Y-34161000D01*
X29977400Y-30571100D02*
X29977400Y-19434000D01*
%TO.N,CE_N*%
X26024100Y-11697600D02*
X25670000Y-11697600D01*
X27387800Y-13061300D02*
X26024100Y-11697600D01*
X27387800Y-22474600D02*
X27387800Y-13061300D01*
X27387400Y-22475000D02*
X27387800Y-22474600D01*
%TO.N,FRAM_CS_N*%
X20989500Y-34409800D02*
X23613100Y-31786200D01*
X23613100Y-31786200D02*
X23613100Y-29850200D01*
X20989500Y-37494000D02*
X20989500Y-34409800D01*
%TO.N,CC1*%
X34072400Y-21484600D02*
X34072400Y-25497300D01*
%TO.N,CC2*%
X34633300Y-28295700D02*
X34213100Y-28715900D01*
X36000000Y-18650000D02*
X36000000Y-20929900D01*
X34633300Y-25140000D02*
X34633300Y-28295700D01*
X34510400Y-22419500D02*
X34510400Y-25017100D01*
X36000000Y-20929900D02*
X34510400Y-22419500D01*
X34510400Y-25017100D02*
X34633300Y-25140000D01*
%TO.N,CELL_P*%
D18*
X26000000Y-12400000D02*
X26000000Y-15000000D01*
%TO.N,SWDIO*%
D16*
X13840900Y-46000000D02*
X13840900Y-40648900D01*
X21990200Y-32499600D02*
X21990200Y-28729800D01*
X13840900Y-40648900D02*
X21990200Y-32499600D01*
%TO.N,CE_MID*%
X19976600Y-15809300D02*
X19976600Y-18749000D01*
%TO.N,OLED_ENABLE*%
X17929700Y-13050000D02*
X17208200Y-13050000D01*
X23676900Y-21658900D02*
X23676900Y-18797200D01*
X23676900Y-18797200D02*
X17929700Y-13050000D01*
%TO.N,SWCLK*%
X14859100Y-44875800D02*
X14859100Y-48800000D01*
X21541700Y-38193200D02*
X14859100Y-44875800D01*
X25475400Y-32058200D02*
X23760000Y-32058200D01*
X23760000Y-32058200D02*
X21541700Y-34276500D01*
X25754100Y-32336900D02*
X25475400Y-32058200D01*
X21541700Y-34276500D02*
X21541700Y-38193200D01*
%TO.N,FRAM_SCK*%
X24714200Y-43528600D02*
X24714200Y-32876400D01*
%TO.N,FRAM_MISO*%
X22500000Y-40536100D02*
X17193900Y-45842200D01*
X22500000Y-34038300D02*
X22500000Y-40536100D01*
%TO.N,FRAM_MOSI*%
X24033300Y-32810200D02*
X24506600Y-32336900D01*
X24506600Y-32336900D02*
X24939100Y-32336900D01*
X24939100Y-32336900D02*
X25487300Y-32885100D01*
X26845900Y-32003800D02*
X26845900Y-30345000D01*
X25964600Y-32885100D02*
X26845900Y-32003800D01*
X24033300Y-42796500D02*
X24033300Y-32810200D01*
X25487300Y-32885100D02*
X25964600Y-32885100D01*
%TO.N,SYS_LOAD*%
X30427200Y-9150900D02*
X30898100Y-9621800D01*
X30898100Y-9621800D02*
X30898100Y-16353400D01*
%TD*%
%TA.AperFunction,Conductor*%
%TO.N,GND*%
G36*
X25365342Y-3424374D02*
G01*
X25387016Y-3476700D01*
X25365342Y-3529026D01*
X25264024Y-3630344D01*
X25264022Y-3630345D01*
X25149059Y-3802401D01*
X25069870Y-3993579D01*
X25069868Y-3993586D01*
X25029500Y-4196535D01*
X25029500Y-4403464D01*
X25069868Y-4606413D01*
X25069870Y-4606420D01*
X25149059Y-4797598D01*
X25161157Y-4815704D01*
X25172205Y-4871252D01*
X25151953Y-4909140D01*
X24678265Y-5382829D01*
X24614830Y-5446264D01*
X24609197Y-5459863D01*
X24580499Y-5529144D01*
X24580499Y-5627466D01*
X24580500Y-5627475D01*
X24580500Y-6755543D01*
X24558826Y-6807869D01*
X24506500Y-6829543D01*
X24454174Y-6807869D01*
X23787174Y-6140869D01*
X23765500Y-6088543D01*
X23765500Y-5386955D01*
X23787174Y-5334629D01*
X23825063Y-5314377D01*
X23846420Y-5310130D01*
X24037598Y-5230941D01*
X24209655Y-5115977D01*
X24355977Y-4969655D01*
X24470941Y-4797598D01*
X24550130Y-4606420D01*
X24590500Y-4403465D01*
X24590500Y-4196535D01*
X24550130Y-3993580D01*
X24470941Y-3802402D01*
X24355977Y-3630345D01*
X24254658Y-3529026D01*
X24232984Y-3476700D01*
X24254658Y-3424374D01*
X24306984Y-3402700D01*
X25313016Y-3402700D01*
X25365342Y-3424374D01*
G37*
%TD.AperFunction*%
%TA.AperFunction,Conductor*%
G36*
X41578326Y-421674D02*
G01*
X41600000Y-474000D01*
X41600000Y-53526000D01*
X41578326Y-53578326D01*
X41526000Y-53600000D01*
X474000Y-53600000D01*
X421674Y-53578326D01*
X400000Y-53526000D01*
X400000Y-51901582D01*
X1249500Y-51901582D01*
X1249500Y-52098417D01*
X1280290Y-52292823D01*
X1280293Y-52292836D01*
X1341113Y-52480019D01*
X1341115Y-52480024D01*
X1341116Y-52480025D01*
X1430476Y-52655405D01*
X1546172Y-52814646D01*
X1685354Y-52953828D01*
X1844595Y-53069524D01*
X2019975Y-53158884D01*
X2019977Y-53158884D01*
X2019980Y-53158886D01*
X2207163Y-53219706D01*
X2207169Y-53219707D01*
X2207174Y-53219709D01*
X2336780Y-53240236D01*
X2401582Y-53250500D01*
X2401583Y-53250500D01*
X2598418Y-53250500D01*
X2647019Y-53242802D01*
X2792826Y-53219709D01*
X2792833Y-53219706D01*
X2792836Y-53219706D01*
X2980019Y-53158886D01*
X2980019Y-53158885D01*
X2980025Y-53158884D01*
X3155405Y-53069524D01*
X3314646Y-52953828D01*
X3453828Y-52814646D01*
X3569524Y-52655405D01*
X3658884Y-52480025D01*
X3719709Y-52292826D01*
X3750500Y-52098417D01*
X3750500Y-51901583D01*
X3750500Y-51901582D01*
X38249500Y-51901582D01*
X38249500Y-52098417D01*
X38280290Y-52292823D01*
X38280293Y-52292836D01*
X38341113Y-52480019D01*
X38341115Y-52480024D01*
X38341116Y-52480025D01*
X38430476Y-52655405D01*
X38546172Y-52814646D01*
X38685354Y-52953828D01*
X38844595Y-53069524D01*
X39019975Y-53158884D01*
X39019977Y-53158884D01*
X39019980Y-53158886D01*
X39207163Y-53219706D01*
X39207169Y-53219707D01*
X39207174Y-53219709D01*
X39336780Y-53240236D01*
X39401582Y-53250500D01*
X39401583Y-53250500D01*
X39598418Y-53250500D01*
X39647019Y-53242802D01*
X39792826Y-53219709D01*
X39792833Y-53219706D01*
X39792836Y-53219706D01*
X39980019Y-53158886D01*
X39980019Y-53158885D01*
X39980025Y-53158884D01*
X40155405Y-53069524D01*
X40314646Y-52953828D01*
X40453828Y-52814646D01*
X40569524Y-52655405D01*
X40658884Y-52480025D01*
X40719709Y-52292826D01*
X40750500Y-52098417D01*
X40750500Y-51901583D01*
X40719709Y-51707174D01*
X40719707Y-51707169D01*
X40719706Y-51707163D01*
X40658886Y-51519980D01*
X40658884Y-51519977D01*
X40658884Y-51519975D01*
X40569524Y-51344595D01*
X40453828Y-51185354D01*
X40314646Y-51046172D01*
X40314643Y-51046169D01*
X40314641Y-51046168D01*
X40155404Y-50930475D01*
X39980019Y-50841113D01*
X39792836Y-50780293D01*
X39792823Y-50780290D01*
X39598418Y-50749500D01*
X39598417Y-50749500D01*
X39401583Y-50749500D01*
X39401582Y-50749500D01*
X39207176Y-50780290D01*
X39207163Y-50780293D01*
X39019980Y-50841113D01*
X38844595Y-50930475D01*
X38685358Y-51046168D01*
X38546168Y-51185358D01*
X38430475Y-51344595D01*
X38341113Y-51519980D01*
X38280293Y-51707163D01*
X38280290Y-51707176D01*
X38249500Y-51901582D01*
X3750500Y-51901582D01*
X3719709Y-51707174D01*
X3719707Y-51707169D01*
X3719706Y-51707163D01*
X3658886Y-51519980D01*
X3658884Y-51519977D01*
X3658884Y-51519975D01*
X3569524Y-51344595D01*
X3453828Y-51185354D01*
X3314646Y-51046172D01*
X3314643Y-51046169D01*
X3314641Y-51046168D01*
X3155404Y-50930475D01*
X2980019Y-50841113D01*
X2792836Y-50780293D01*
X2792823Y-50780290D01*
X2598418Y-50749500D01*
X2598417Y-50749500D01*
X2401583Y-50749500D01*
X2401582Y-50749500D01*
X2207176Y-50780290D01*
X2207163Y-50780293D01*
X2019980Y-50841113D01*
X1844595Y-50930475D01*
X1685358Y-51046168D01*
X1546168Y-51185358D01*
X1430475Y-51344595D01*
X1341113Y-51519980D01*
X1280293Y-51707163D01*
X1280290Y-51707176D01*
X1249500Y-51901582D01*
X400000Y-51901582D01*
X400000Y-34155988D01*
X5509200Y-34155988D01*
X5509200Y-34274611D01*
X5539899Y-34389182D01*
X5539901Y-34389187D01*
X5599208Y-34491909D01*
X5599209Y-34491910D01*
X5599211Y-34491913D01*
X5683087Y-34575789D01*
X5693142Y-34581594D01*
X5727620Y-34626527D01*
X5730139Y-34646375D01*
X5634696Y-44805737D01*
X5634199Y-44810564D01*
X5634199Y-44858416D01*
X5634196Y-44859110D01*
X5633788Y-44902497D01*
X5633956Y-44903338D01*
X5634084Y-44903996D01*
X5634181Y-44904512D01*
X5650845Y-44944743D01*
X5651107Y-44945384D01*
X5667356Y-44985678D01*
X5667697Y-44986188D01*
X5668098Y-44986794D01*
X5668493Y-44987398D01*
X5699215Y-45018120D01*
X5699704Y-45018614D01*
X5733181Y-45052726D01*
X5736912Y-45055817D01*
X7374765Y-46693670D01*
X7396439Y-46745996D01*
X7393918Y-46765146D01*
X7389700Y-46780888D01*
X7389700Y-46899511D01*
X7420399Y-47014082D01*
X7420401Y-47014087D01*
X7479708Y-47116809D01*
X7479709Y-47116810D01*
X7479711Y-47116813D01*
X7563587Y-47200689D01*
X7666314Y-47259999D01*
X7666315Y-47259999D01*
X7666317Y-47260000D01*
X7723602Y-47275349D01*
X7780888Y-47290699D01*
X7780889Y-47290700D01*
X7780891Y-47290700D01*
X7899511Y-47290700D01*
X7899511Y-47290699D01*
X8014086Y-47259999D01*
X8116813Y-47200689D01*
X8200689Y-47116813D01*
X8259999Y-47014086D01*
X8290699Y-46899511D01*
X8290700Y-46899511D01*
X8290700Y-46780889D01*
X8290699Y-46780888D01*
X8260000Y-46666317D01*
X8259998Y-46666312D01*
X8200691Y-46563590D01*
X8200690Y-46563589D01*
X8200689Y-46563587D01*
X8116813Y-46479711D01*
X8116810Y-46479709D01*
X8116809Y-46479708D01*
X8014087Y-46420401D01*
X8014082Y-46420399D01*
X7899511Y-46389700D01*
X7899509Y-46389700D01*
X7780891Y-46389700D01*
X7780890Y-46389700D01*
X7765146Y-46393918D01*
X7708994Y-46386524D01*
X7693670Y-46374765D01*
X6108041Y-44789136D01*
X6086367Y-44736810D01*
X6086369Y-44736269D01*
X6124657Y-40660688D01*
X9349500Y-40660688D01*
X9349500Y-40939311D01*
X9385867Y-41215552D01*
X9457981Y-41484687D01*
X9564602Y-41742093D01*
X9564605Y-41742101D01*
X9703916Y-41983394D01*
X9703920Y-41983400D01*
X9873529Y-42204441D01*
X10070558Y-42401470D01*
X10291599Y-42571079D01*
X10291605Y-42571083D01*
X10391416Y-42628709D01*
X10532898Y-42710394D01*
X10790314Y-42817019D01*
X11059446Y-42889132D01*
X11335687Y-42925500D01*
X11335689Y-42925500D01*
X11614311Y-42925500D01*
X11614313Y-42925500D01*
X11890554Y-42889132D01*
X12159686Y-42817019D01*
X12417102Y-42710394D01*
X12658398Y-42571081D01*
X12777810Y-42479452D01*
X12879441Y-42401470D01*
X12879442Y-42401468D01*
X12879447Y-42401465D01*
X13076465Y-42204447D01*
X13246081Y-41983398D01*
X13385394Y-41742102D01*
X13473033Y-41530521D01*
X13513081Y-41490473D01*
X13569718Y-41490473D01*
X13609767Y-41530521D01*
X13615400Y-41558840D01*
X13615400Y-45567277D01*
X13593726Y-45619603D01*
X13578401Y-45631362D01*
X13564290Y-45639509D01*
X13564288Y-45639510D01*
X13480408Y-45723390D01*
X13421101Y-45826112D01*
X13421099Y-45826117D01*
X13390400Y-45940688D01*
X13390400Y-46059311D01*
X13421099Y-46173882D01*
X13421101Y-46173887D01*
X13480408Y-46276609D01*
X13480409Y-46276610D01*
X13480411Y-46276613D01*
X13564287Y-46360489D01*
X13564289Y-46360490D01*
X13564290Y-46360491D01*
X13614881Y-46389700D01*
X13667014Y-46419799D01*
X13667015Y-46419799D01*
X13667017Y-46419800D01*
X13724302Y-46435149D01*
X13781588Y-46450499D01*
X13781589Y-46450500D01*
X13781591Y-46450500D01*
X13900211Y-46450500D01*
X13900211Y-46450499D01*
X14014786Y-46419799D01*
X14117513Y-46360489D01*
X14201389Y-46276613D01*
X14260699Y-46173886D01*
X14291399Y-46059311D01*
X14291400Y-46059311D01*
X14291400Y-45940689D01*
X14291399Y-45940688D01*
X14260700Y-45826117D01*
X14260698Y-45826112D01*
X14201391Y-45723390D01*
X14201390Y-45723389D01*
X14201389Y-45723387D01*
X14117513Y-45639511D01*
X14103399Y-45631362D01*
X14068921Y-45586428D01*
X14066400Y-45567277D01*
X14066400Y-40772957D01*
X14088074Y-40720631D01*
X15896074Y-38912631D01*
X15948400Y-38890957D01*
X16000726Y-38912631D01*
X16022400Y-38964957D01*
X16022400Y-41919377D01*
X16000726Y-41971703D01*
X15985401Y-41983462D01*
X15971290Y-41991609D01*
X15971288Y-41991610D01*
X15887408Y-42075490D01*
X15828101Y-42178212D01*
X15828099Y-42178217D01*
X15797400Y-42292788D01*
X15797400Y-42411411D01*
X15828099Y-42525982D01*
X15828101Y-42525987D01*
X15887408Y-42628709D01*
X15887409Y-42628710D01*
X15887411Y-42628713D01*
X15971287Y-42712589D01*
X15971289Y-42712590D01*
X15971290Y-42712591D01*
X16074012Y-42771898D01*
X16074014Y-42771899D01*
X16074015Y-42771899D01*
X16074017Y-42771900D01*
X16090614Y-42776347D01*
X16188588Y-42802599D01*
X16188589Y-42802600D01*
X16188591Y-42802600D01*
X16307211Y-42802600D01*
X16307211Y-42802599D01*
X16421786Y-42771899D01*
X16460992Y-42749262D01*
X16517144Y-42741869D01*
X16562078Y-42776347D01*
X16569472Y-42832499D01*
X16550319Y-42865674D01*
X14731365Y-44684629D01*
X14667931Y-44748063D01*
X14667930Y-44748065D01*
X14633599Y-44830944D01*
X14633599Y-44929266D01*
X14633600Y-44929275D01*
X14633600Y-48367277D01*
X14611926Y-48419603D01*
X14596601Y-48431362D01*
X14582490Y-48439509D01*
X14582488Y-48439510D01*
X14498608Y-48523390D01*
X14439301Y-48626112D01*
X14439299Y-48626117D01*
X14408600Y-48740688D01*
X14408600Y-48859311D01*
X14439299Y-48973882D01*
X14439301Y-48973887D01*
X14498608Y-49076609D01*
X14498609Y-49076610D01*
X14498611Y-49076613D01*
X14582487Y-49160489D01*
X14685214Y-49219799D01*
X14685215Y-49219799D01*
X14685217Y-49219800D01*
X14742502Y-49235149D01*
X14799788Y-49250499D01*
X14799789Y-49250500D01*
X14799791Y-49250500D01*
X14918411Y-49250500D01*
X14918411Y-49250499D01*
X15032986Y-49219799D01*
X15135713Y-49160489D01*
X15219589Y-49076613D01*
X15278899Y-48973886D01*
X15309599Y-48859311D01*
X15309600Y-48859311D01*
X15309600Y-48740689D01*
X15309599Y-48740688D01*
X15278900Y-48626117D01*
X15278898Y-48626112D01*
X15219591Y-48523390D01*
X15219590Y-48523389D01*
X15219589Y-48523387D01*
X15135713Y-48439511D01*
X15121599Y-48431362D01*
X15087121Y-48386428D01*
X15084600Y-48367277D01*
X15084600Y-44999856D01*
X15106273Y-44947531D01*
X21659027Y-38394776D01*
X21659030Y-38394775D01*
X21669435Y-38384370D01*
X21669436Y-38384370D01*
X21732870Y-38320936D01*
X21747090Y-38286605D01*
X21767201Y-38238054D01*
X21767201Y-38148345D01*
X21767201Y-38142387D01*
X21767200Y-38142373D01*
X21767200Y-34400557D01*
X21788874Y-34348231D01*
X21868171Y-34268934D01*
X21956755Y-34180349D01*
X22009080Y-34158676D01*
X22061406Y-34180350D01*
X22077425Y-34208088D01*
X22078346Y-34207707D01*
X22080201Y-34212187D01*
X22139508Y-34314909D01*
X22139509Y-34314910D01*
X22139511Y-34314913D01*
X22223387Y-34398789D01*
X22237500Y-34406937D01*
X22271978Y-34451870D01*
X22274500Y-34471023D01*
X22274500Y-40412042D01*
X22252826Y-40464368D01*
X17340428Y-45376765D01*
X17288102Y-45398439D01*
X17268953Y-45395918D01*
X17253209Y-45391700D01*
X17134591Y-45391700D01*
X17134589Y-45391700D01*
X17020017Y-45422399D01*
X17020012Y-45422401D01*
X16917290Y-45481708D01*
X16833408Y-45565590D01*
X16774101Y-45668312D01*
X16774099Y-45668317D01*
X16743400Y-45782888D01*
X16743400Y-45901511D01*
X16774099Y-46016082D01*
X16774101Y-46016087D01*
X16833408Y-46118809D01*
X16833409Y-46118810D01*
X16833411Y-46118813D01*
X16917287Y-46202689D01*
X17020014Y-46261999D01*
X17020015Y-46261999D01*
X17020017Y-46262000D01*
X17074539Y-46276609D01*
X17134588Y-46292699D01*
X17134589Y-46292700D01*
X17134591Y-46292700D01*
X17253211Y-46292700D01*
X17253211Y-46292699D01*
X17367786Y-46261999D01*
X17470513Y-46202689D01*
X17554389Y-46118813D01*
X17613699Y-46016086D01*
X17644399Y-45901511D01*
X17644400Y-45901511D01*
X17644400Y-45782889D01*
X17640182Y-45767149D01*
X17647574Y-45710996D01*
X17659330Y-45695673D01*
X22617327Y-40737677D01*
X22617330Y-40737675D01*
X22627735Y-40727270D01*
X22627736Y-40727270D01*
X22691170Y-40663836D01*
X22715936Y-40604045D01*
X22725501Y-40580954D01*
X22725501Y-40491245D01*
X22725501Y-40485287D01*
X22725500Y-40485273D01*
X22725500Y-34471023D01*
X22747174Y-34418697D01*
X22762500Y-34406937D01*
X22776613Y-34398789D01*
X22860489Y-34314913D01*
X22919799Y-34212186D01*
X22950499Y-34097611D01*
X22950500Y-34097611D01*
X22950500Y-33978989D01*
X22950499Y-33978988D01*
X22941484Y-33945345D01*
X22919799Y-33864414D01*
X22880011Y-33795499D01*
X22860491Y-33761690D01*
X22860490Y-33761689D01*
X22860489Y-33761687D01*
X22776613Y-33677811D01*
X22776610Y-33677809D01*
X22776609Y-33677808D01*
X22673887Y-33618501D01*
X22669407Y-33616646D01*
X22670111Y-33614943D01*
X22630281Y-33584364D01*
X22622902Y-33528209D01*
X22642048Y-33495056D01*
X23831731Y-32305374D01*
X23884057Y-32283700D01*
X24062242Y-32283700D01*
X24114568Y-32305374D01*
X24136242Y-32357700D01*
X24114568Y-32410026D01*
X23842130Y-32682463D01*
X23838691Y-32690768D01*
X23838690Y-32690770D01*
X23807799Y-32765344D01*
X23807799Y-32863666D01*
X23807800Y-32863675D01*
X23807800Y-42363777D01*
X23786126Y-42416103D01*
X23770801Y-42427862D01*
X23756690Y-42436009D01*
X23756688Y-42436010D01*
X23672808Y-42519890D01*
X23613501Y-42622612D01*
X23613499Y-42622617D01*
X23582800Y-42737188D01*
X23582800Y-42855811D01*
X23613499Y-42970382D01*
X23613501Y-42970387D01*
X23672808Y-43073109D01*
X23672809Y-43073110D01*
X23672811Y-43073113D01*
X23756687Y-43156989D01*
X23756689Y-43156990D01*
X23756690Y-43156991D01*
X23859412Y-43216298D01*
X23859414Y-43216299D01*
X23859415Y-43216299D01*
X23859417Y-43216300D01*
X23916702Y-43231649D01*
X23973988Y-43246999D01*
X23973989Y-43247000D01*
X23973991Y-43247000D01*
X24092611Y-43247000D01*
X24092611Y-43246999D01*
X24207186Y-43216299D01*
X24218706Y-43209648D01*
X24274858Y-43202254D01*
X24319792Y-43236732D01*
X24327186Y-43292884D01*
X24319793Y-43310733D01*
X24294402Y-43354711D01*
X24294399Y-43354717D01*
X24263700Y-43469288D01*
X24263700Y-43587911D01*
X24294399Y-43702482D01*
X24294401Y-43702487D01*
X24353708Y-43805209D01*
X24353709Y-43805210D01*
X24353711Y-43805213D01*
X24437587Y-43889089D01*
X24540314Y-43948399D01*
X24540315Y-43948399D01*
X24540317Y-43948400D01*
X24597602Y-43963749D01*
X24654888Y-43979099D01*
X24654889Y-43979100D01*
X24654891Y-43979100D01*
X24773511Y-43979100D01*
X24773511Y-43979099D01*
X24888086Y-43948399D01*
X24990813Y-43889089D01*
X25074689Y-43805213D01*
X25133999Y-43702486D01*
X25164699Y-43587911D01*
X25164700Y-43587911D01*
X25164700Y-43469289D01*
X25164699Y-43469288D01*
X25134000Y-43354717D01*
X25133998Y-43354712D01*
X25074691Y-43251990D01*
X25074690Y-43251989D01*
X25074689Y-43251987D01*
X24990813Y-43168111D01*
X24976699Y-43159962D01*
X24942221Y-43115028D01*
X24939700Y-43095877D01*
X24939700Y-40660688D01*
X28399500Y-40660688D01*
X28399500Y-40939311D01*
X28435867Y-41215552D01*
X28507981Y-41484687D01*
X28614602Y-41742093D01*
X28614605Y-41742101D01*
X28753916Y-41983394D01*
X28753920Y-41983400D01*
X28923529Y-42204441D01*
X29120558Y-42401470D01*
X29341599Y-42571079D01*
X29341605Y-42571083D01*
X29441416Y-42628709D01*
X29582898Y-42710394D01*
X29840314Y-42817019D01*
X30109446Y-42889132D01*
X30385687Y-42925500D01*
X30385689Y-42925500D01*
X30664311Y-42925500D01*
X30664313Y-42925500D01*
X30940554Y-42889132D01*
X31209686Y-42817019D01*
X31467102Y-42710394D01*
X31708398Y-42571081D01*
X31827810Y-42479452D01*
X31929441Y-42401470D01*
X31929442Y-42401468D01*
X31929447Y-42401465D01*
X32126465Y-42204447D01*
X32296081Y-41983398D01*
X32435394Y-41742102D01*
X32542019Y-41484686D01*
X32614132Y-41215554D01*
X32650500Y-40939313D01*
X32650500Y-40660687D01*
X32614132Y-40384446D01*
X32542019Y-40115314D01*
X32435394Y-39857898D01*
X32296081Y-39616602D01*
X32296079Y-39616599D01*
X32126470Y-39395558D01*
X31929441Y-39198529D01*
X31708400Y-39028920D01*
X31708394Y-39028916D01*
X31467101Y-38889605D01*
X31467093Y-38889602D01*
X31209687Y-38782981D01*
X30940552Y-38710867D01*
X30737047Y-38684075D01*
X30664313Y-38674500D01*
X30385687Y-38674500D01*
X30321414Y-38682961D01*
X30109447Y-38710867D01*
X29840312Y-38782981D01*
X29582906Y-38889602D01*
X29582898Y-38889605D01*
X29341605Y-39028916D01*
X29341599Y-39028920D01*
X29120558Y-39198529D01*
X28923529Y-39395558D01*
X28753920Y-39616599D01*
X28753916Y-39616605D01*
X28614605Y-39857898D01*
X28614602Y-39857906D01*
X28507981Y-40115312D01*
X28435867Y-40384447D01*
X28409997Y-40580954D01*
X28399911Y-40657569D01*
X28399500Y-40660688D01*
X24939700Y-40660688D01*
X24939700Y-38161582D01*
X25464500Y-38161582D01*
X25464500Y-38358417D01*
X25495290Y-38552823D01*
X25495293Y-38552836D01*
X25556113Y-38740019D01*
X25645475Y-38915404D01*
X25714203Y-39010000D01*
X25761172Y-39074646D01*
X25900354Y-39213828D01*
X26059595Y-39329524D01*
X26234975Y-39418884D01*
X26234977Y-39418884D01*
X26234980Y-39418886D01*
X26422163Y-39479706D01*
X26422169Y-39479707D01*
X26422174Y-39479709D01*
X26551780Y-39500236D01*
X26616582Y-39510500D01*
X26616583Y-39510500D01*
X26813418Y-39510500D01*
X26862019Y-39502802D01*
X27007826Y-39479709D01*
X27007833Y-39479706D01*
X27007836Y-39479706D01*
X27195019Y-39418886D01*
X27195019Y-39418885D01*
X27195025Y-39418884D01*
X27370405Y-39329524D01*
X27529646Y-39213828D01*
X27668828Y-39074646D01*
X27784524Y-38915405D01*
X27873884Y-38740025D01*
X27873886Y-38740019D01*
X27934706Y-38552836D01*
X27934706Y-38552833D01*
X27934709Y-38552826D01*
X27965500Y-38358417D01*
X27965500Y-38161583D01*
X27962457Y-38142373D01*
X27934709Y-37967176D01*
X27934706Y-37967163D01*
X27873886Y-37779980D01*
X27873884Y-37779977D01*
X27873884Y-37779975D01*
X27784524Y-37604595D01*
X27668828Y-37445354D01*
X27529646Y-37306172D01*
X27529643Y-37306169D01*
X27529641Y-37306168D01*
X27370404Y-37190475D01*
X27195019Y-37101113D01*
X27007836Y-37040293D01*
X27007823Y-37040290D01*
X26813418Y-37009500D01*
X26813417Y-37009500D01*
X26616583Y-37009500D01*
X26616582Y-37009500D01*
X26422176Y-37040290D01*
X26422163Y-37040293D01*
X26234980Y-37101113D01*
X26059595Y-37190475D01*
X25900358Y-37306168D01*
X25761168Y-37445358D01*
X25645475Y-37604595D01*
X25556113Y-37779980D01*
X25495293Y-37967163D01*
X25495290Y-37967176D01*
X25464500Y-38161582D01*
X24939700Y-38161582D01*
X24939700Y-35621582D01*
X31814500Y-35621582D01*
X31814500Y-35818417D01*
X31845290Y-36012823D01*
X31845293Y-36012836D01*
X31906113Y-36200019D01*
X31906115Y-36200024D01*
X31906116Y-36200025D01*
X31995476Y-36375405D01*
X32111172Y-36534646D01*
X32250354Y-36673828D01*
X32409595Y-36789524D01*
X32584975Y-36878884D01*
X32584977Y-36878884D01*
X32584980Y-36878886D01*
X32772163Y-36939706D01*
X32772169Y-36939707D01*
X32772174Y-36939709D01*
X32900288Y-36960000D01*
X32966582Y-36970500D01*
X32966583Y-36970500D01*
X33163418Y-36970500D01*
X33229712Y-36960000D01*
X33357826Y-36939709D01*
X33357833Y-36939706D01*
X33357836Y-36939706D01*
X33545019Y-36878886D01*
X33545019Y-36878885D01*
X33545025Y-36878884D01*
X33720405Y-36789524D01*
X33879646Y-36673828D01*
X34018828Y-36534646D01*
X34134524Y-36375405D01*
X34223884Y-36200025D01*
X34284709Y-36012826D01*
X34315500Y-35818417D01*
X34315500Y-35621583D01*
X34284709Y-35427174D01*
X34284707Y-35427169D01*
X34284706Y-35427163D01*
X34223886Y-35239980D01*
X34223884Y-35239977D01*
X34223884Y-35239975D01*
X34134524Y-35064595D01*
X34018828Y-34905354D01*
X33879646Y-34766172D01*
X33879643Y-34766169D01*
X33879641Y-34766168D01*
X33720404Y-34650475D01*
X33545019Y-34561113D01*
X33357836Y-34500293D01*
X33357823Y-34500290D01*
X33163418Y-34469500D01*
X33163417Y-34469500D01*
X32966583Y-34469500D01*
X32966582Y-34469500D01*
X32772176Y-34500290D01*
X32772163Y-34500293D01*
X32584980Y-34561113D01*
X32409595Y-34650475D01*
X32250358Y-34766168D01*
X32111168Y-34905358D01*
X31995475Y-35064595D01*
X31906113Y-35239980D01*
X31845293Y-35427163D01*
X31845290Y-35427176D01*
X31814500Y-35621582D01*
X24939700Y-35621582D01*
X24939700Y-34101688D01*
X25710500Y-34101688D01*
X25710500Y-34220311D01*
X25741199Y-34334882D01*
X25741201Y-34334887D01*
X25800508Y-34437609D01*
X25800509Y-34437610D01*
X25800511Y-34437613D01*
X25884387Y-34521489D01*
X25884389Y-34521490D01*
X25884390Y-34521491D01*
X25987112Y-34580798D01*
X25987114Y-34580799D01*
X25987115Y-34580799D01*
X25987117Y-34580800D01*
X26007599Y-34586288D01*
X26101688Y-34611499D01*
X26101689Y-34611500D01*
X26101691Y-34611500D01*
X26220311Y-34611500D01*
X26220311Y-34611499D01*
X26334886Y-34580799D01*
X26437613Y-34521489D01*
X26521489Y-34437613D01*
X26580799Y-34334886D01*
X26593338Y-34288084D01*
X26612489Y-34254914D01*
X30094727Y-30772677D01*
X30094730Y-30772675D01*
X30105135Y-30762270D01*
X30105136Y-30762270D01*
X30168570Y-30698836D01*
X30202900Y-30615955D01*
X30202900Y-29827396D01*
X35819500Y-29827396D01*
X35819500Y-29952603D01*
X35851904Y-30073535D01*
X35908243Y-30171117D01*
X35914505Y-30181964D01*
X36003036Y-30270495D01*
X36111464Y-30333095D01*
X36111463Y-30333095D01*
X36181286Y-30351804D01*
X36232396Y-30365499D01*
X36232397Y-30365500D01*
X36232399Y-30365500D01*
X36357603Y-30365500D01*
X36357603Y-30365499D01*
X36478536Y-30333095D01*
X36586964Y-30270495D01*
X36675495Y-30181964D01*
X36738095Y-30073536D01*
X36770499Y-29952603D01*
X36770500Y-29952603D01*
X36770500Y-29827397D01*
X36770499Y-29827396D01*
X36768352Y-29819385D01*
X36738095Y-29706464D01*
X36675495Y-29598036D01*
X36586964Y-29509505D01*
X36586963Y-29509504D01*
X36478534Y-29446904D01*
X36478536Y-29446904D01*
X36357603Y-29414500D01*
X36357601Y-29414500D01*
X36232399Y-29414500D01*
X36232397Y-29414500D01*
X36111464Y-29446904D01*
X36003036Y-29509504D01*
X35914504Y-29598036D01*
X35851904Y-29706464D01*
X35819500Y-29827396D01*
X30202900Y-29827396D01*
X30202900Y-24240688D01*
X31349500Y-24240688D01*
X31349500Y-24359310D01*
X31380199Y-24473882D01*
X31380201Y-24473887D01*
X31439508Y-24576609D01*
X31439509Y-24576610D01*
X31439511Y-24576613D01*
X31501685Y-24638787D01*
X31526817Y-24663919D01*
X31524893Y-24665842D01*
X31548866Y-24707349D01*
X31549500Y-24717019D01*
X31549500Y-25682981D01*
X31527826Y-25735307D01*
X31525917Y-25736980D01*
X31439508Y-25823390D01*
X31380201Y-25926112D01*
X31380199Y-25926117D01*
X31349500Y-26040688D01*
X31349500Y-26159311D01*
X31380199Y-26273882D01*
X31380201Y-26273887D01*
X31439508Y-26376609D01*
X31439509Y-26376610D01*
X31439511Y-26376613D01*
X31523387Y-26460489D01*
X31523389Y-26460490D01*
X31523390Y-26460491D01*
X31626112Y-26519798D01*
X31626114Y-26519799D01*
X31626115Y-26519799D01*
X31626117Y-26519800D01*
X31683402Y-26535149D01*
X31740688Y-26550499D01*
X31740689Y-26550500D01*
X31740691Y-26550500D01*
X31859311Y-26550500D01*
X31859311Y-26550499D01*
X31973886Y-26519799D01*
X32076613Y-26460489D01*
X32160489Y-26376613D01*
X32219799Y-26273886D01*
X32250499Y-26159311D01*
X32250500Y-26159311D01*
X32250500Y-26040689D01*
X32250499Y-26040688D01*
X32219800Y-25926117D01*
X32219798Y-25926112D01*
X32160491Y-25823390D01*
X32160490Y-25823389D01*
X32160489Y-25823387D01*
X32076613Y-25739511D01*
X32076612Y-25739510D01*
X32073184Y-25736082D01*
X32075105Y-25734160D01*
X32051133Y-25692640D01*
X32050500Y-25682981D01*
X32050500Y-24717019D01*
X32072174Y-24664693D01*
X32074082Y-24663019D01*
X32076610Y-24660490D01*
X32076613Y-24660489D01*
X32160489Y-24576613D01*
X32219799Y-24473886D01*
X32239071Y-24401963D01*
X32250500Y-24359310D01*
X32250500Y-24240689D01*
X32250499Y-24240688D01*
X32242167Y-24209594D01*
X32219799Y-24126114D01*
X32218980Y-24124695D01*
X32160491Y-24023390D01*
X32160490Y-24023389D01*
X32160489Y-24023387D01*
X32076613Y-23939511D01*
X32076610Y-23939509D01*
X32076609Y-23939508D01*
X31973887Y-23880201D01*
X31973882Y-23880199D01*
X31859311Y-23849500D01*
X31859309Y-23849500D01*
X31740691Y-23849500D01*
X31740689Y-23849500D01*
X31626117Y-23880199D01*
X31626112Y-23880201D01*
X31523390Y-23939508D01*
X31439508Y-24023390D01*
X31380201Y-24126112D01*
X31380199Y-24126117D01*
X31349500Y-24240688D01*
X30202900Y-24240688D01*
X30202900Y-21425288D01*
X33621900Y-21425288D01*
X33621900Y-21543911D01*
X33652599Y-21658482D01*
X33652601Y-21658487D01*
X33711908Y-21761209D01*
X33711909Y-21761210D01*
X33711911Y-21761213D01*
X33795787Y-21845089D01*
X33809900Y-21853237D01*
X33844378Y-21898170D01*
X33846900Y-21917323D01*
X33846900Y-25064577D01*
X33825226Y-25116903D01*
X33809901Y-25128662D01*
X33795790Y-25136809D01*
X33795788Y-25136810D01*
X33711908Y-25220690D01*
X33652601Y-25323412D01*
X33652599Y-25323417D01*
X33621900Y-25437988D01*
X33621900Y-25556611D01*
X33652599Y-25671182D01*
X33652601Y-25671187D01*
X33711908Y-25773909D01*
X33711909Y-25773910D01*
X33711911Y-25773913D01*
X33795787Y-25857789D01*
X33795789Y-25857790D01*
X33795790Y-25857791D01*
X33898512Y-25917098D01*
X33898514Y-25917099D01*
X33898515Y-25917099D01*
X33898517Y-25917100D01*
X33932158Y-25926114D01*
X34013088Y-25947799D01*
X34013089Y-25947800D01*
X34013091Y-25947800D01*
X34131711Y-25947800D01*
X34131711Y-25947799D01*
X34246286Y-25917099D01*
X34246288Y-25917097D01*
X34246290Y-25917097D01*
X34296799Y-25887935D01*
X34352952Y-25880541D01*
X34397885Y-25915019D01*
X34407800Y-25952020D01*
X34407800Y-28171642D01*
X34386126Y-28223968D01*
X34359629Y-28250465D01*
X34307303Y-28272139D01*
X34288152Y-28269618D01*
X34272409Y-28265400D01*
X34153791Y-28265400D01*
X34153789Y-28265400D01*
X34039217Y-28296099D01*
X34039212Y-28296101D01*
X33936490Y-28355408D01*
X33852608Y-28439290D01*
X33793301Y-28542012D01*
X33793299Y-28542017D01*
X33762600Y-28656588D01*
X33762600Y-28775211D01*
X33793299Y-28889782D01*
X33793301Y-28889787D01*
X33852608Y-28992509D01*
X33852609Y-28992510D01*
X33852611Y-28992513D01*
X33936487Y-29076389D01*
X33936489Y-29076390D01*
X33936490Y-29076391D01*
X34039212Y-29135698D01*
X34039214Y-29135699D01*
X34039215Y-29135699D01*
X34039217Y-29135700D01*
X34067842Y-29143370D01*
X34153788Y-29166399D01*
X34153789Y-29166400D01*
X34153791Y-29166400D01*
X34272411Y-29166400D01*
X34272411Y-29166399D01*
X34386986Y-29135699D01*
X34489713Y-29076389D01*
X34573589Y-28992513D01*
X34632899Y-28889786D01*
X34663599Y-28775211D01*
X34663600Y-28775211D01*
X34663600Y-28656589D01*
X34659382Y-28640849D01*
X34666774Y-28584696D01*
X34678530Y-28569373D01*
X34750627Y-28497277D01*
X34750630Y-28497275D01*
X34761035Y-28486870D01*
X34761036Y-28486870D01*
X34824470Y-28423436D01*
X34852647Y-28355411D01*
X34858801Y-28340554D01*
X34858801Y-28250845D01*
X34858801Y-28244887D01*
X34858800Y-28244873D01*
X34858800Y-25193475D01*
X34858801Y-25193466D01*
X34858801Y-25095144D01*
X34824470Y-25012265D01*
X34824469Y-25012263D01*
X34757574Y-24945368D01*
X34735900Y-24893042D01*
X34735900Y-24047396D01*
X35819500Y-24047396D01*
X35819500Y-24172603D01*
X35851904Y-24293535D01*
X35907314Y-24389508D01*
X35914505Y-24401964D01*
X36003036Y-24490495D01*
X36111464Y-24553095D01*
X36111463Y-24553095D01*
X36181286Y-24571804D01*
X36232396Y-24585499D01*
X36232397Y-24585500D01*
X36232399Y-24585500D01*
X36357603Y-24585500D01*
X36357603Y-24585499D01*
X36478536Y-24553095D01*
X36586964Y-24490495D01*
X36675495Y-24401964D01*
X36738095Y-24293536D01*
X36770499Y-24172603D01*
X36770500Y-24172603D01*
X36770500Y-24047397D01*
X36770499Y-24047396D01*
X36738095Y-23926464D01*
X36675495Y-23818036D01*
X36586963Y-23729504D01*
X36478534Y-23666904D01*
X36478536Y-23666904D01*
X36357603Y-23634500D01*
X36357601Y-23634500D01*
X36232399Y-23634500D01*
X36232397Y-23634500D01*
X36111464Y-23666904D01*
X36003036Y-23729504D01*
X35914504Y-23818036D01*
X35851904Y-23926464D01*
X35819500Y-24047396D01*
X34735900Y-24047396D01*
X34735900Y-22543556D01*
X34757573Y-22491231D01*
X36117327Y-21131476D01*
X36117330Y-21131475D01*
X36127735Y-21121070D01*
X36127736Y-21121070D01*
X36191170Y-21057636D01*
X36221220Y-20985089D01*
X36225501Y-20974754D01*
X36225501Y-20885045D01*
X36225501Y-20879087D01*
X36225500Y-20879073D01*
X36225500Y-19082723D01*
X36247174Y-19030397D01*
X36262500Y-19018637D01*
X36276613Y-19010489D01*
X36360489Y-18926613D01*
X36419799Y-18823886D01*
X36450499Y-18709311D01*
X36450500Y-18709311D01*
X36450500Y-18590689D01*
X36450499Y-18590688D01*
X36450183Y-18589510D01*
X36430829Y-18517277D01*
X36419800Y-18476117D01*
X36419798Y-18476112D01*
X36360491Y-18373390D01*
X36360490Y-18373389D01*
X36360489Y-18373387D01*
X36276613Y-18289511D01*
X36276610Y-18289509D01*
X36276609Y-18289508D01*
X36173887Y-18230201D01*
X36173882Y-18230199D01*
X36059311Y-18199500D01*
X36059309Y-18199500D01*
X35940691Y-18199500D01*
X35940689Y-18199500D01*
X35826117Y-18230199D01*
X35826112Y-18230201D01*
X35723390Y-18289508D01*
X35639508Y-18373390D01*
X35580201Y-18476112D01*
X35580199Y-18476117D01*
X35549500Y-18590688D01*
X35549500Y-18709311D01*
X35580199Y-18823882D01*
X35580201Y-18823887D01*
X35639508Y-18926609D01*
X35639509Y-18926610D01*
X35639511Y-18926613D01*
X35723387Y-19010489D01*
X35737500Y-19018637D01*
X35771978Y-19063570D01*
X35774500Y-19082723D01*
X35774500Y-20805842D01*
X35752826Y-20858168D01*
X34424226Y-22186768D01*
X34371900Y-22208442D01*
X34319574Y-22186768D01*
X34297900Y-22134442D01*
X34297900Y-21917323D01*
X34319574Y-21864997D01*
X34334900Y-21853237D01*
X34349013Y-21845089D01*
X34432889Y-21761213D01*
X34492199Y-21658486D01*
X34522899Y-21543911D01*
X34522900Y-21543911D01*
X34522900Y-21425289D01*
X34522899Y-21425288D01*
X34492200Y-21310717D01*
X34492198Y-21310712D01*
X34432891Y-21207990D01*
X34432890Y-21207989D01*
X34432889Y-21207987D01*
X34349013Y-21124111D01*
X34349010Y-21124109D01*
X34349009Y-21124108D01*
X34246287Y-21064801D01*
X34246282Y-21064799D01*
X34131711Y-21034100D01*
X34131709Y-21034100D01*
X34013091Y-21034100D01*
X34013089Y-21034100D01*
X33898517Y-21064799D01*
X33898512Y-21064801D01*
X33795790Y-21124108D01*
X33711908Y-21207990D01*
X33652601Y-21310712D01*
X33652599Y-21310717D01*
X33621900Y-21425288D01*
X30202900Y-21425288D01*
X30202900Y-19866723D01*
X30224574Y-19814397D01*
X30239900Y-19802637D01*
X30254013Y-19794489D01*
X30337889Y-19710613D01*
X30397199Y-19607886D01*
X30427899Y-19493311D01*
X30427900Y-19493311D01*
X30427900Y-19374689D01*
X30427899Y-19374688D01*
X30397200Y-19260117D01*
X30397198Y-19260112D01*
X30337891Y-19157390D01*
X30337890Y-19157389D01*
X30337889Y-19157387D01*
X30254013Y-19073511D01*
X30254010Y-19073509D01*
X30254009Y-19073508D01*
X30151287Y-19014201D01*
X30151282Y-19014199D01*
X30036711Y-18983500D01*
X30036709Y-18983500D01*
X29918091Y-18983500D01*
X29918089Y-18983500D01*
X29803517Y-19014199D01*
X29803512Y-19014201D01*
X29700790Y-19073508D01*
X29616908Y-19157390D01*
X29557601Y-19260112D01*
X29557599Y-19260117D01*
X29526900Y-19374688D01*
X29526900Y-19493311D01*
X29557599Y-19607882D01*
X29557601Y-19607887D01*
X29616908Y-19710609D01*
X29616909Y-19710610D01*
X29616911Y-19710613D01*
X29700787Y-19794489D01*
X29714900Y-19802637D01*
X29749378Y-19847570D01*
X29751900Y-19866723D01*
X29751900Y-30447042D01*
X29730226Y-30499368D01*
X26472356Y-33757237D01*
X26420030Y-33778911D01*
X26383030Y-33768997D01*
X26334887Y-33741201D01*
X26334882Y-33741199D01*
X26220311Y-33710500D01*
X26220309Y-33710500D01*
X26101691Y-33710500D01*
X26101689Y-33710500D01*
X25987117Y-33741199D01*
X25987112Y-33741201D01*
X25884390Y-33800508D01*
X25800508Y-33884390D01*
X25741201Y-33987112D01*
X25741199Y-33987117D01*
X25710500Y-34101688D01*
X24939700Y-34101688D01*
X24939700Y-33309123D01*
X24961374Y-33256797D01*
X24976700Y-33245037D01*
X24990813Y-33236889D01*
X25074689Y-33153013D01*
X25133999Y-33050286D01*
X25143002Y-33016683D01*
X25177478Y-32971752D01*
X25233631Y-32964358D01*
X25266806Y-32983511D01*
X25296129Y-33012834D01*
X25296130Y-33012836D01*
X25359564Y-33076270D01*
X25383839Y-33086325D01*
X25442445Y-33110601D01*
X25442446Y-33110601D01*
X25540767Y-33110601D01*
X25540775Y-33110600D01*
X25911125Y-33110600D01*
X25911133Y-33110601D01*
X25919745Y-33110601D01*
X26009454Y-33110601D01*
X26009455Y-33110601D01*
X26068060Y-33086325D01*
X26092336Y-33076270D01*
X26155770Y-33012836D01*
X26155770Y-33012835D01*
X26166175Y-33002430D01*
X26166176Y-33002427D01*
X27037070Y-32131536D01*
X27071400Y-32048655D01*
X27071400Y-31958946D01*
X27071400Y-30777723D01*
X27093074Y-30725397D01*
X27108400Y-30713637D01*
X27122513Y-30705489D01*
X27206389Y-30621613D01*
X27265699Y-30518886D01*
X27296399Y-30404311D01*
X27296400Y-30404311D01*
X27296400Y-30285689D01*
X27296399Y-30285688D01*
X27292386Y-30270713D01*
X27265699Y-30171114D01*
X27259054Y-30159604D01*
X27206391Y-30068390D01*
X27206390Y-30068389D01*
X27206389Y-30068387D01*
X27122513Y-29984511D01*
X27122510Y-29984509D01*
X27122509Y-29984508D01*
X27019787Y-29925201D01*
X27019782Y-29925199D01*
X26905211Y-29894500D01*
X26905209Y-29894500D01*
X26786591Y-29894500D01*
X26786589Y-29894500D01*
X26672017Y-29925199D01*
X26672012Y-29925201D01*
X26569290Y-29984508D01*
X26485408Y-30068390D01*
X26426101Y-30171112D01*
X26426099Y-30171117D01*
X26395400Y-30285688D01*
X26395400Y-30404311D01*
X26426099Y-30518882D01*
X26426101Y-30518887D01*
X26485408Y-30621609D01*
X26485409Y-30621610D01*
X26485411Y-30621613D01*
X26569287Y-30705489D01*
X26583400Y-30713637D01*
X26617878Y-30758570D01*
X26620400Y-30777723D01*
X26620400Y-31879742D01*
X26598726Y-31932068D01*
X26305502Y-32225291D01*
X26253176Y-32246965D01*
X26200850Y-32225291D01*
X26181698Y-32192118D01*
X26173900Y-32163017D01*
X26173898Y-32163012D01*
X26114591Y-32060290D01*
X26114590Y-32060289D01*
X26114589Y-32060287D01*
X26030713Y-31976411D01*
X26030710Y-31976409D01*
X26030709Y-31976408D01*
X25927987Y-31917101D01*
X25927982Y-31917099D01*
X25813411Y-31886400D01*
X25813409Y-31886400D01*
X25694791Y-31886400D01*
X25679048Y-31890618D01*
X25622896Y-31883224D01*
X25607571Y-31871465D01*
X25603138Y-31867032D01*
X25603136Y-31867030D01*
X25578860Y-31856974D01*
X25578858Y-31856973D01*
X25578858Y-31856972D01*
X25520255Y-31832699D01*
X25430545Y-31832699D01*
X25421933Y-31832699D01*
X25421925Y-31832700D01*
X23912601Y-31832700D01*
X23860275Y-31811026D01*
X23838601Y-31758700D01*
X23838601Y-31735387D01*
X23838600Y-31735373D01*
X23838600Y-30282923D01*
X23860274Y-30230597D01*
X23875600Y-30218837D01*
X23889713Y-30210689D01*
X23973589Y-30126813D01*
X24032899Y-30024086D01*
X24063599Y-29909511D01*
X24063600Y-29909511D01*
X24063600Y-29790889D01*
X24063599Y-29790888D01*
X24032900Y-29676317D01*
X24032898Y-29676312D01*
X23973591Y-29573590D01*
X23973590Y-29573589D01*
X23973589Y-29573587D01*
X23889713Y-29489711D01*
X23889710Y-29489709D01*
X23889709Y-29489708D01*
X23786987Y-29430401D01*
X23786982Y-29430399D01*
X23672411Y-29399700D01*
X23672409Y-29399700D01*
X23553791Y-29399700D01*
X23553789Y-29399700D01*
X23439217Y-29430399D01*
X23439212Y-29430401D01*
X23336490Y-29489708D01*
X23252609Y-29573589D01*
X23197309Y-29669371D01*
X23152375Y-29703849D01*
X23096222Y-29696456D01*
X23080897Y-29684695D01*
X23029816Y-29633613D01*
X23029811Y-29633610D01*
X23013697Y-29624306D01*
X22979221Y-29579373D01*
X22976700Y-29560222D01*
X22976700Y-25182723D01*
X22998374Y-25130397D01*
X23013700Y-25118637D01*
X23027813Y-25110489D01*
X23111689Y-25026613D01*
X23170999Y-24923886D01*
X23172478Y-24918363D01*
X23206953Y-24873431D01*
X23263105Y-24866034D01*
X23296283Y-24885188D01*
X24247126Y-25836031D01*
X24268800Y-25888357D01*
X24268800Y-25937973D01*
X24268799Y-25937987D01*
X24268799Y-26033656D01*
X24293073Y-26092258D01*
X24303129Y-26116534D01*
X24303132Y-26116538D01*
X24376971Y-26190377D01*
X24376973Y-26190378D01*
X24566529Y-26379934D01*
X24566530Y-26379936D01*
X24629964Y-26443370D01*
X24654239Y-26453425D01*
X24712845Y-26477701D01*
X24712846Y-26477701D01*
X24811167Y-26477701D01*
X24811175Y-26477700D01*
X25179725Y-26477700D01*
X25179733Y-26477701D01*
X25188345Y-26477701D01*
X25278054Y-26477701D01*
X25278055Y-26477701D01*
X25336660Y-26453425D01*
X25360936Y-26443370D01*
X25424370Y-26379936D01*
X25424370Y-26379935D01*
X25434775Y-26369530D01*
X25434777Y-26369527D01*
X25666227Y-26138077D01*
X25666230Y-26138075D01*
X25676635Y-26127670D01*
X25676636Y-26127670D01*
X25740070Y-26064236D01*
X25774400Y-25981355D01*
X25774400Y-24764575D01*
X25774401Y-24764566D01*
X25774401Y-24666245D01*
X25747168Y-24600500D01*
X25740070Y-24583364D01*
X25676636Y-24519930D01*
X25672421Y-24515715D01*
X25672414Y-24515709D01*
X24747074Y-23590369D01*
X24725400Y-23538043D01*
X24725400Y-21954257D01*
X24747074Y-21901931D01*
X24799400Y-21880257D01*
X24851725Y-21901930D01*
X25675981Y-22726187D01*
X26371265Y-23421471D01*
X26392939Y-23473797D01*
X26390418Y-23492948D01*
X26386200Y-23508690D01*
X26386200Y-23627311D01*
X26416899Y-23741882D01*
X26416901Y-23741887D01*
X26476208Y-23844609D01*
X26476209Y-23844610D01*
X26476211Y-23844613D01*
X26560087Y-23928489D01*
X26560089Y-23928490D01*
X26560090Y-23928491D01*
X26600786Y-23951987D01*
X26662814Y-23987799D01*
X26662815Y-23987799D01*
X26662817Y-23987800D01*
X26720102Y-24003149D01*
X26777388Y-24018499D01*
X26777389Y-24018500D01*
X26777391Y-24018500D01*
X26896011Y-24018500D01*
X26896011Y-24018499D01*
X27010586Y-23987799D01*
X27072614Y-23951987D01*
X27117514Y-23926064D01*
X27118608Y-23927960D01*
X27166219Y-23915178D01*
X27208923Y-23936224D01*
X27210709Y-23938010D01*
X27210711Y-23938013D01*
X27294587Y-24021889D01*
X27294589Y-24021890D01*
X27294590Y-24021891D01*
X27338771Y-24047399D01*
X27397314Y-24081199D01*
X27397315Y-24081199D01*
X27397317Y-24081200D01*
X27445248Y-24094043D01*
X27511888Y-24111899D01*
X27511889Y-24111900D01*
X27511891Y-24111900D01*
X27630511Y-24111900D01*
X27630511Y-24111899D01*
X27745086Y-24081199D01*
X27847813Y-24021889D01*
X27931689Y-23938013D01*
X27990999Y-23835286D01*
X28021699Y-23720711D01*
X28021700Y-23720711D01*
X28021700Y-23602089D01*
X28021699Y-23602088D01*
X28012751Y-23568695D01*
X28004538Y-23538043D01*
X27991000Y-23487517D01*
X27990998Y-23487512D01*
X27931691Y-23384790D01*
X27931690Y-23384789D01*
X27931689Y-23384787D01*
X27847813Y-23300911D01*
X27847810Y-23300909D01*
X27847809Y-23300908D01*
X27745087Y-23241601D01*
X27745082Y-23241599D01*
X27630511Y-23210900D01*
X27630509Y-23210900D01*
X27561557Y-23210900D01*
X27509231Y-23189226D01*
X27371831Y-23051826D01*
X27350157Y-22999500D01*
X27371831Y-22947174D01*
X27424157Y-22925500D01*
X27446711Y-22925500D01*
X27446711Y-22925499D01*
X27561286Y-22894799D01*
X27664013Y-22835489D01*
X27747889Y-22751613D01*
X27807199Y-22648886D01*
X27837899Y-22534311D01*
X27837900Y-22534311D01*
X27837900Y-22415689D01*
X27837899Y-22415688D01*
X27807200Y-22301117D01*
X27807198Y-22301112D01*
X27747891Y-22198390D01*
X27747890Y-22198389D01*
X27747889Y-22198387D01*
X27664013Y-22114511D01*
X27650298Y-22106592D01*
X27615821Y-22061660D01*
X27613300Y-22042508D01*
X27613300Y-13114775D01*
X27613301Y-13114766D01*
X27613301Y-13016444D01*
X27578970Y-12933565D01*
X27578969Y-12933563D01*
X27511321Y-12865915D01*
X27511314Y-12865909D01*
X26225678Y-11580273D01*
X26225678Y-11580272D01*
X26151838Y-11506432D01*
X26151836Y-11506430D01*
X26127560Y-11496374D01*
X26080390Y-11476835D01*
X26044624Y-11445469D01*
X26030491Y-11420990D01*
X26030490Y-11420989D01*
X26030489Y-11420987D01*
X25946613Y-11337111D01*
X25946610Y-11337109D01*
X25946609Y-11337108D01*
X25843887Y-11277801D01*
X25843882Y-11277799D01*
X25729311Y-11247100D01*
X25729309Y-11247100D01*
X25610691Y-11247100D01*
X25610689Y-11247100D01*
X25496117Y-11277799D01*
X25491631Y-11279658D01*
X25490509Y-11276951D01*
X25443504Y-11283111D01*
X25398592Y-11248605D01*
X25388700Y-11211644D01*
X25388700Y-7880857D01*
X25410374Y-7828531D01*
X26483362Y-6755543D01*
X28010859Y-5228045D01*
X28063184Y-5206372D01*
X28104295Y-5218842D01*
X28122402Y-5230941D01*
X28313580Y-5310130D01*
X28516535Y-5350500D01*
X28516536Y-5350500D01*
X28723464Y-5350500D01*
X28723465Y-5350500D01*
X28926420Y-5310130D01*
X29117598Y-5230941D01*
X29289655Y-5115977D01*
X29387274Y-5018358D01*
X29439600Y-4996684D01*
X29491926Y-5018358D01*
X29513600Y-5070684D01*
X29513600Y-9004742D01*
X29491926Y-9057068D01*
X28462131Y-10086863D01*
X28462130Y-10086865D01*
X28427799Y-10169744D01*
X28427799Y-10268066D01*
X28427800Y-10268075D01*
X28427800Y-23345377D01*
X28406126Y-23397703D01*
X28390801Y-23409462D01*
X28376690Y-23417609D01*
X28376688Y-23417610D01*
X28292808Y-23501490D01*
X28233501Y-23604212D01*
X28233499Y-23604217D01*
X28202800Y-23718788D01*
X28202800Y-23837411D01*
X28233499Y-23951982D01*
X28233501Y-23951987D01*
X28292808Y-24054709D01*
X28292809Y-24054710D01*
X28292811Y-24054713D01*
X28376687Y-24138589D01*
X28376689Y-24138590D01*
X28376690Y-24138591D01*
X28479412Y-24197898D01*
X28479414Y-24197899D01*
X28479415Y-24197899D01*
X28479417Y-24197900D01*
X28523060Y-24209594D01*
X28593988Y-24228599D01*
X28593989Y-24228600D01*
X28593991Y-24228600D01*
X28712611Y-24228600D01*
X28712611Y-24228599D01*
X28827186Y-24197899D01*
X28929913Y-24138589D01*
X29013789Y-24054713D01*
X29073099Y-23951986D01*
X29103799Y-23837411D01*
X29103800Y-23837411D01*
X29103800Y-23718789D01*
X29103799Y-23718788D01*
X29073100Y-23604217D01*
X29073098Y-23604212D01*
X29013791Y-23501490D01*
X29013790Y-23501489D01*
X29013789Y-23501487D01*
X28929913Y-23417611D01*
X28915799Y-23409462D01*
X28881321Y-23364528D01*
X28878800Y-23345377D01*
X28878800Y-10338656D01*
X28900473Y-10286331D01*
X29856427Y-9330376D01*
X29856430Y-9330375D01*
X29866835Y-9319970D01*
X29866836Y-9319970D01*
X29886508Y-9300297D01*
X29938833Y-9278623D01*
X29991159Y-9300296D01*
X30004789Y-9320693D01*
X30004976Y-9320586D01*
X30006618Y-9323430D01*
X30007200Y-9324301D01*
X30007401Y-9324786D01*
X30066708Y-9427509D01*
X30066709Y-9427510D01*
X30066711Y-9427513D01*
X30150587Y-9511389D01*
X30150589Y-9511390D01*
X30150590Y-9511391D01*
X30253312Y-9570698D01*
X30253314Y-9570699D01*
X30253315Y-9570699D01*
X30253317Y-9570700D01*
X30276624Y-9576945D01*
X30367888Y-9601399D01*
X30367889Y-9601400D01*
X30367891Y-9601400D01*
X30486509Y-9601400D01*
X30502249Y-9597182D01*
X30558400Y-9604573D01*
X30573729Y-9616334D01*
X30650926Y-9693531D01*
X30672600Y-9745857D01*
X30672600Y-15920677D01*
X30650926Y-15973003D01*
X30635601Y-15984762D01*
X30621490Y-15992909D01*
X30621488Y-15992910D01*
X30537608Y-16076790D01*
X30478301Y-16179512D01*
X30478299Y-16179517D01*
X30447600Y-16294088D01*
X30447600Y-16412711D01*
X30478299Y-16527282D01*
X30478301Y-16527287D01*
X30537608Y-16630009D01*
X30537609Y-16630010D01*
X30537611Y-16630013D01*
X30621487Y-16713889D01*
X30724214Y-16773199D01*
X30724215Y-16773199D01*
X30724217Y-16773200D01*
X30781502Y-16788549D01*
X30838788Y-16803899D01*
X30838789Y-16803900D01*
X30838791Y-16803900D01*
X30957411Y-16803900D01*
X30957411Y-16803899D01*
X31071986Y-16773199D01*
X31174713Y-16713889D01*
X31258589Y-16630013D01*
X31317899Y-16527286D01*
X31348599Y-16412711D01*
X31348600Y-16412711D01*
X31348600Y-16294089D01*
X31348599Y-16294088D01*
X31342697Y-16272063D01*
X31324796Y-16205253D01*
X31317900Y-16179517D01*
X31317898Y-16179512D01*
X31258591Y-16076790D01*
X31258590Y-16076789D01*
X31258589Y-16076787D01*
X31174713Y-15992911D01*
X31160599Y-15984762D01*
X31126121Y-15939828D01*
X31123600Y-15920677D01*
X31123600Y-9576945D01*
X31123599Y-9576943D01*
X31089271Y-9494066D01*
X31089269Y-9494063D01*
X31021621Y-9426415D01*
X31021614Y-9426409D01*
X30892634Y-9297429D01*
X30870960Y-9245103D01*
X30873481Y-9225953D01*
X30877700Y-9210209D01*
X30877700Y-9091591D01*
X30877700Y-9091589D01*
X30877699Y-9091588D01*
X30868449Y-9057068D01*
X30854429Y-9004742D01*
X30847000Y-8977017D01*
X30846998Y-8977012D01*
X30787691Y-8874290D01*
X30787690Y-8874289D01*
X30787689Y-8874287D01*
X30703813Y-8790411D01*
X30703810Y-8790409D01*
X30703809Y-8790408D01*
X30601087Y-8731101D01*
X30601082Y-8731099D01*
X30486511Y-8700400D01*
X30486509Y-8700400D01*
X30367891Y-8700400D01*
X30367889Y-8700400D01*
X30253317Y-8731099D01*
X30253312Y-8731101D01*
X30150590Y-8790408D01*
X30150587Y-8790410D01*
X30150587Y-8790411D01*
X30090924Y-8850073D01*
X30038600Y-8871747D01*
X29986274Y-8850073D01*
X29964600Y-8797747D01*
X29964600Y-3741645D01*
X29964599Y-3741643D01*
X29930271Y-3658766D01*
X29930269Y-3658763D01*
X29866835Y-3595329D01*
X29331378Y-3059873D01*
X29331378Y-3059872D01*
X29257538Y-2986032D01*
X29257536Y-2986030D01*
X29243040Y-2980025D01*
X29233258Y-2975973D01*
X29233258Y-2975972D01*
X29174655Y-2951699D01*
X29084945Y-2951699D01*
X29076333Y-2951699D01*
X29076325Y-2951700D01*
X19636275Y-2951700D01*
X19636267Y-2951699D01*
X19627655Y-2951699D01*
X19537945Y-2951699D01*
X19479339Y-2975974D01*
X19479337Y-2975975D01*
X19479336Y-2975974D01*
X19455063Y-2986030D01*
X19391629Y-3049465D01*
X19069140Y-3371953D01*
X19016814Y-3393627D01*
X18975704Y-3381157D01*
X18957598Y-3369059D01*
X18766420Y-3289870D01*
X18766413Y-3289868D01*
X18613516Y-3259455D01*
X18563465Y-3249500D01*
X18356535Y-3249500D01*
X18316385Y-3257486D01*
X18153586Y-3289868D01*
X18153579Y-3289870D01*
X17962401Y-3369059D01*
X17790345Y-3484022D01*
X17790344Y-3484024D01*
X17644024Y-3630344D01*
X17644022Y-3630345D01*
X17529059Y-3802401D01*
X17449870Y-3993579D01*
X17449868Y-3993586D01*
X17409500Y-4196535D01*
X17409500Y-4403464D01*
X17449868Y-4606413D01*
X17449870Y-4606420D01*
X17529059Y-4797598D01*
X17644023Y-4969655D01*
X17790345Y-5115977D01*
X17962402Y-5230941D01*
X18153580Y-5310130D01*
X18356535Y-5350500D01*
X18356536Y-5350500D01*
X18563464Y-5350500D01*
X18563465Y-5350500D01*
X18766420Y-5310130D01*
X18957598Y-5230941D01*
X19129655Y-5115977D01*
X19275977Y-4969655D01*
X19390941Y-4797598D01*
X19470130Y-4606420D01*
X19510500Y-4403465D01*
X19510500Y-4196535D01*
X19470130Y-3993580D01*
X19390941Y-3802402D01*
X19378842Y-3784295D01*
X19367793Y-3728749D01*
X19388043Y-3690860D01*
X19654531Y-3424374D01*
X19706857Y-3402700D01*
X20233016Y-3402700D01*
X20285342Y-3424374D01*
X20307016Y-3476700D01*
X20285342Y-3529026D01*
X20184024Y-3630344D01*
X20184022Y-3630345D01*
X20069059Y-3802401D01*
X19989870Y-3993579D01*
X19989868Y-3993586D01*
X19949500Y-4196535D01*
X19949500Y-4403464D01*
X19989868Y-4606413D01*
X19989870Y-4606420D01*
X20069059Y-4797598D01*
X20184023Y-4969655D01*
X20330345Y-5115977D01*
X20502402Y-5230941D01*
X20693580Y-5310130D01*
X20896535Y-5350500D01*
X20896536Y-5350500D01*
X21103464Y-5350500D01*
X21103465Y-5350500D01*
X21306420Y-5310130D01*
X21497598Y-5230941D01*
X21515702Y-5218843D01*
X21571251Y-5207794D01*
X21609141Y-5228046D01*
X23933526Y-7552431D01*
X23955200Y-7604757D01*
X23955200Y-18577942D01*
X23933526Y-18630268D01*
X23881200Y-18651942D01*
X23828874Y-18630268D01*
X23800421Y-18601815D01*
X23800414Y-18601809D01*
X21456184Y-16257579D01*
X21434510Y-16205253D01*
X21456184Y-16152927D01*
X21489353Y-16133776D01*
X21537786Y-16120799D01*
X21640513Y-16061489D01*
X21724389Y-15977613D01*
X21783699Y-15874886D01*
X21814399Y-15760311D01*
X21814400Y-15760311D01*
X21814400Y-15641689D01*
X21814399Y-15641688D01*
X21812717Y-15635412D01*
X21783699Y-15527114D01*
X21783698Y-15527112D01*
X21724391Y-15424390D01*
X21724390Y-15424389D01*
X21724389Y-15424387D01*
X21640513Y-15340511D01*
X21626399Y-15332362D01*
X21591921Y-15287428D01*
X21589400Y-15268277D01*
X21589400Y-12784045D01*
X21589399Y-12784043D01*
X21555071Y-12701166D01*
X21555069Y-12701163D01*
X21487421Y-12633515D01*
X21487414Y-12633509D01*
X16167174Y-7313269D01*
X16145500Y-7260943D01*
X16145500Y-5386955D01*
X16167174Y-5334629D01*
X16205063Y-5314377D01*
X16226420Y-5310130D01*
X16417598Y-5230941D01*
X16589655Y-5115977D01*
X16735977Y-4969655D01*
X16850941Y-4797598D01*
X16930130Y-4606420D01*
X16970500Y-4403465D01*
X16970500Y-4196535D01*
X16930130Y-3993580D01*
X16850941Y-3802402D01*
X16735977Y-3630345D01*
X16589655Y-3484023D01*
X16578695Y-3476700D01*
X16417598Y-3369059D01*
X16226420Y-3289870D01*
X16226413Y-3289868D01*
X16073516Y-3259455D01*
X16023465Y-3249500D01*
X15816535Y-3249500D01*
X15776385Y-3257486D01*
X15613586Y-3289868D01*
X15613579Y-3289870D01*
X15422401Y-3369059D01*
X15250345Y-3484022D01*
X15250344Y-3484024D01*
X15104024Y-3630344D01*
X15104022Y-3630345D01*
X14989059Y-3802401D01*
X14909870Y-3993579D01*
X14909868Y-3993586D01*
X14869500Y-4196535D01*
X14869500Y-4403464D01*
X14909868Y-4606413D01*
X14909870Y-4606420D01*
X14989059Y-4797598D01*
X15104023Y-4969655D01*
X15250345Y-5115977D01*
X15422402Y-5230941D01*
X15613580Y-5310130D01*
X15634935Y-5314377D01*
X15682027Y-5345840D01*
X15694500Y-5386955D01*
X15694500Y-7334173D01*
X15694499Y-7334187D01*
X15694499Y-7429856D01*
X15718773Y-7488458D01*
X15728829Y-7512734D01*
X15728832Y-7512738D01*
X15802671Y-7586577D01*
X15802673Y-7586578D01*
X17064404Y-8848309D01*
X17086078Y-8900635D01*
X17064404Y-8952961D01*
X17012078Y-8974635D01*
X16975078Y-8964721D01*
X16871987Y-8905201D01*
X16871982Y-8905199D01*
X16757411Y-8874500D01*
X16757409Y-8874500D01*
X16638791Y-8874500D01*
X16638789Y-8874500D01*
X16524217Y-8905199D01*
X16524212Y-8905201D01*
X16421490Y-8964508D01*
X16337608Y-9048390D01*
X16278301Y-9151112D01*
X16278299Y-9151117D01*
X16247600Y-9265688D01*
X16247600Y-9384311D01*
X16278299Y-9498882D01*
X16278301Y-9498887D01*
X16337608Y-9601609D01*
X16337609Y-9601610D01*
X16337611Y-9601613D01*
X16421487Y-9685489D01*
X16435416Y-9693531D01*
X16435600Y-9693637D01*
X16470078Y-9738570D01*
X16472600Y-9757723D01*
X16472600Y-18517277D01*
X16450926Y-18569603D01*
X16435601Y-18581362D01*
X16421490Y-18589509D01*
X16421488Y-18589510D01*
X16337608Y-18673390D01*
X16278301Y-18776112D01*
X16278299Y-18776117D01*
X16247600Y-18890688D01*
X16247600Y-19009311D01*
X16278299Y-19123882D01*
X16278301Y-19123887D01*
X16337608Y-19226609D01*
X16337609Y-19226610D01*
X16337611Y-19226613D01*
X16421487Y-19310489D01*
X16421489Y-19310490D01*
X16421490Y-19310491D01*
X16524212Y-19369798D01*
X16524214Y-19369799D01*
X16524215Y-19369799D01*
X16524217Y-19369800D01*
X16542471Y-19374691D01*
X16638788Y-19400499D01*
X16638789Y-19400500D01*
X16638791Y-19400500D01*
X16757411Y-19400500D01*
X16757411Y-19400499D01*
X16871986Y-19369799D01*
X16974713Y-19310489D01*
X17058589Y-19226613D01*
X17117899Y-19123886D01*
X17148599Y-19009311D01*
X17148600Y-19009311D01*
X17148600Y-18890689D01*
X17148599Y-18890688D01*
X17117900Y-18776117D01*
X17117898Y-18776112D01*
X17058591Y-18673390D01*
X17058590Y-18673389D01*
X17058589Y-18673387D01*
X16974713Y-18589511D01*
X16960599Y-18581362D01*
X16926121Y-18536428D01*
X16923600Y-18517277D01*
X16923600Y-13534050D01*
X16945274Y-13481724D01*
X16997600Y-13460050D01*
X17029553Y-13468612D01*
X17029831Y-13467942D01*
X17034312Y-13469798D01*
X17034314Y-13469799D01*
X17034315Y-13469799D01*
X17034317Y-13469800D01*
X17078818Y-13481724D01*
X17148888Y-13500499D01*
X17148889Y-13500500D01*
X17148891Y-13500500D01*
X17267511Y-13500500D01*
X17267511Y-13500499D01*
X17382086Y-13469799D01*
X17484813Y-13410489D01*
X17568689Y-13326613D01*
X17576837Y-13312499D01*
X17621770Y-13278022D01*
X17640923Y-13275500D01*
X17805643Y-13275500D01*
X17857969Y-13297174D01*
X19828758Y-15267963D01*
X19850432Y-15320289D01*
X19828758Y-15372615D01*
X19804761Y-15388652D01*
X19802717Y-15389498D01*
X19699990Y-15448808D01*
X19616108Y-15532690D01*
X19556801Y-15635412D01*
X19556799Y-15635417D01*
X19526100Y-15749988D01*
X19526100Y-15868611D01*
X19556799Y-15983182D01*
X19556801Y-15983187D01*
X19616108Y-16085909D01*
X19616109Y-16085910D01*
X19616111Y-16085913D01*
X19699987Y-16169789D01*
X19714100Y-16177937D01*
X19748578Y-16222870D01*
X19751100Y-16242023D01*
X19751100Y-18316277D01*
X19729426Y-18368603D01*
X19714101Y-18380362D01*
X19699990Y-18388509D01*
X19699988Y-18388510D01*
X19616108Y-18472390D01*
X19556801Y-18575112D01*
X19556799Y-18575117D01*
X19526100Y-18689688D01*
X19526100Y-18808311D01*
X19556799Y-18922882D01*
X19556801Y-18922887D01*
X19616108Y-19025609D01*
X19616109Y-19025610D01*
X19616111Y-19025613D01*
X19699987Y-19109489D01*
X19699989Y-19109490D01*
X19699990Y-19109491D01*
X19782948Y-19157387D01*
X19802714Y-19168799D01*
X19802715Y-19168799D01*
X19802717Y-19168800D01*
X19860002Y-19184149D01*
X19917288Y-19199499D01*
X19917289Y-19199500D01*
X19917291Y-19199500D01*
X20035911Y-19199500D01*
X20035911Y-19199499D01*
X20150486Y-19168799D01*
X20253213Y-19109489D01*
X20337089Y-19025613D01*
X20396399Y-18922886D01*
X20427099Y-18808311D01*
X20427100Y-18808311D01*
X20427100Y-18689689D01*
X20427099Y-18689688D01*
X20396400Y-18575117D01*
X20396398Y-18575112D01*
X20337091Y-18472390D01*
X20337090Y-18472389D01*
X20337089Y-18472387D01*
X20253213Y-18388511D01*
X20239099Y-18380362D01*
X20204621Y-18335428D01*
X20202100Y-18316277D01*
X20202100Y-16242023D01*
X20223774Y-16189697D01*
X20239100Y-16177937D01*
X20253213Y-16169789D01*
X20337089Y-16085913D01*
X20396399Y-15983186D01*
X20396400Y-15983182D01*
X20397242Y-15981151D01*
X20398027Y-15980365D01*
X20398824Y-15978986D01*
X20399193Y-15979199D01*
X20437289Y-15941101D01*
X20493926Y-15941099D01*
X20517936Y-15957141D01*
X23429726Y-18868931D01*
X23451400Y-18921257D01*
X23451400Y-21226177D01*
X23429726Y-21278503D01*
X23414401Y-21290262D01*
X23400287Y-21298410D01*
X23373074Y-21325623D01*
X23320748Y-21347296D01*
X23268424Y-21325622D01*
X23224713Y-21281911D01*
X23224710Y-21281909D01*
X23224709Y-21281908D01*
X23121987Y-21222601D01*
X23121982Y-21222599D01*
X23007411Y-21191900D01*
X23007409Y-21191900D01*
X22888791Y-21191900D01*
X22888789Y-21191900D01*
X22774217Y-21222599D01*
X22774212Y-21222601D01*
X22671490Y-21281908D01*
X22587608Y-21365790D01*
X22528301Y-21468512D01*
X22528299Y-21468517D01*
X22497600Y-21583088D01*
X22497600Y-21701711D01*
X22528299Y-21816282D01*
X22528301Y-21816287D01*
X22587608Y-21919009D01*
X22587609Y-21919010D01*
X22587611Y-21919013D01*
X22671487Y-22002889D01*
X22671489Y-22002890D01*
X22685600Y-22011037D01*
X22720078Y-22055970D01*
X22722600Y-22075123D01*
X22722600Y-24167273D01*
X22722599Y-24167287D01*
X22722599Y-24234489D01*
X22700925Y-24286815D01*
X22667752Y-24305967D01*
X22577317Y-24330199D01*
X22577312Y-24330201D01*
X22474590Y-24389508D01*
X22390708Y-24473390D01*
X22331401Y-24576112D01*
X22331399Y-24576117D01*
X22300700Y-24690688D01*
X22300700Y-24809311D01*
X22331399Y-24923882D01*
X22331401Y-24923887D01*
X22390708Y-25026609D01*
X22390709Y-25026610D01*
X22390711Y-25026613D01*
X22474587Y-25110489D01*
X22488700Y-25118637D01*
X22523178Y-25163570D01*
X22525700Y-25182723D01*
X22525700Y-28480141D01*
X22504026Y-28532467D01*
X22451700Y-28554141D01*
X22399374Y-28532467D01*
X22387614Y-28517141D01*
X22350691Y-28453190D01*
X22350690Y-28453189D01*
X22350689Y-28453187D01*
X22266813Y-28369311D01*
X22266810Y-28369309D01*
X22266809Y-28369308D01*
X22164087Y-28310001D01*
X22164082Y-28309999D01*
X22049511Y-28279300D01*
X22049509Y-28279300D01*
X21930891Y-28279300D01*
X21930889Y-28279300D01*
X21816317Y-28309999D01*
X21816312Y-28310001D01*
X21713590Y-28369308D01*
X21629708Y-28453190D01*
X21570401Y-28555912D01*
X21570399Y-28555917D01*
X21539700Y-28670488D01*
X21539700Y-28789111D01*
X21570399Y-28903682D01*
X21570401Y-28903687D01*
X21629708Y-29006409D01*
X21629709Y-29006410D01*
X21629711Y-29006413D01*
X21713587Y-29090289D01*
X21727700Y-29098437D01*
X21762178Y-29143370D01*
X21764700Y-29162523D01*
X21764700Y-32375542D01*
X21743026Y-32427868D01*
X13713164Y-40457730D01*
X13713162Y-40457731D01*
X13696100Y-40474792D01*
X13643774Y-40496465D01*
X13591449Y-40474789D01*
X13570409Y-40432124D01*
X13564132Y-40384447D01*
X13492018Y-40115312D01*
X13385397Y-39857906D01*
X13385394Y-39857898D01*
X13246083Y-39616605D01*
X13246079Y-39616599D01*
X13076470Y-39395558D01*
X12879441Y-39198529D01*
X12658400Y-39028920D01*
X12658394Y-39028916D01*
X12417101Y-38889605D01*
X12417093Y-38889602D01*
X12159687Y-38782981D01*
X11890552Y-38710867D01*
X11687047Y-38684075D01*
X11614313Y-38674500D01*
X11335687Y-38674500D01*
X11271414Y-38682961D01*
X11059447Y-38710867D01*
X10790312Y-38782981D01*
X10532906Y-38889602D01*
X10532898Y-38889605D01*
X10291605Y-39028916D01*
X10291599Y-39028920D01*
X10070558Y-39198529D01*
X9873529Y-39395558D01*
X9703920Y-39616599D01*
X9703916Y-39616605D01*
X9564605Y-39857898D01*
X9564602Y-39857906D01*
X9457981Y-40115312D01*
X9385867Y-40384447D01*
X9359997Y-40580954D01*
X9349911Y-40657569D01*
X9349500Y-40660688D01*
X6124657Y-40660688D01*
X6148172Y-38157687D01*
X6365000Y-38157687D01*
X6365000Y-38362312D01*
X6397009Y-38564414D01*
X6397012Y-38564427D01*
X6460240Y-38759021D01*
X6553139Y-38941349D01*
X6673411Y-39106888D01*
X6673420Y-39106898D01*
X6675050Y-39108528D01*
X7067634Y-38715943D01*
X7082437Y-38738097D01*
X7186903Y-38842563D01*
X7209055Y-38857364D01*
X6816471Y-39249949D01*
X6818102Y-39251580D01*
X6818111Y-39251588D01*
X6983650Y-39371860D01*
X7165978Y-39464759D01*
X7360572Y-39527987D01*
X7360585Y-39527990D01*
X7562687Y-39560000D01*
X7767313Y-39560000D01*
X7969414Y-39527990D01*
X7969427Y-39527987D01*
X8164021Y-39464759D01*
X8346349Y-39371860D01*
X8511887Y-39251589D01*
X8511899Y-39251578D01*
X8513527Y-39249949D01*
X8120943Y-38857365D01*
X8143097Y-38842563D01*
X8247563Y-38738097D01*
X8262365Y-38715943D01*
X8654949Y-39108527D01*
X8656578Y-39106899D01*
X8656589Y-39106887D01*
X8776860Y-38941349D01*
X8869759Y-38759021D01*
X8932987Y-38564427D01*
X8932990Y-38564414D01*
X8965000Y-38362312D01*
X8965000Y-38157687D01*
X8932990Y-37955585D01*
X8932987Y-37955572D01*
X8869759Y-37760978D01*
X8776860Y-37578650D01*
X8656588Y-37413111D01*
X8656580Y-37413102D01*
X8654949Y-37411471D01*
X8262364Y-37804055D01*
X8247563Y-37781903D01*
X8143097Y-37677437D01*
X8120943Y-37662634D01*
X8513528Y-37270050D01*
X8511898Y-37268420D01*
X8511888Y-37268411D01*
X8346349Y-37148139D01*
X8164021Y-37055240D01*
X7969427Y-36992012D01*
X7969414Y-36992009D01*
X7767313Y-36960000D01*
X7562687Y-36960000D01*
X7360585Y-36992009D01*
X7360572Y-36992012D01*
X7165978Y-37055240D01*
X6983650Y-37148139D01*
X6818112Y-37268410D01*
X6818106Y-37268415D01*
X6816471Y-37270049D01*
X7209056Y-37662634D01*
X7186903Y-37677437D01*
X7082437Y-37781903D01*
X7067634Y-37804056D01*
X6675049Y-37411471D01*
X6673415Y-37413106D01*
X6673410Y-37413112D01*
X6553139Y-37578650D01*
X6460240Y-37760978D01*
X6397012Y-37955572D01*
X6397009Y-37955585D01*
X6365000Y-38157687D01*
X6148172Y-38157687D01*
X6171997Y-35621582D01*
X12764500Y-35621582D01*
X12764500Y-35818417D01*
X12795290Y-36012823D01*
X12795293Y-36012836D01*
X12856113Y-36200019D01*
X12856115Y-36200024D01*
X12856116Y-36200025D01*
X12945476Y-36375405D01*
X13061172Y-36534646D01*
X13200354Y-36673828D01*
X13359595Y-36789524D01*
X13534975Y-36878884D01*
X13534977Y-36878884D01*
X13534980Y-36878886D01*
X13722163Y-36939706D01*
X13722169Y-36939707D01*
X13722174Y-36939709D01*
X13850288Y-36960000D01*
X13916582Y-36970500D01*
X13916583Y-36970500D01*
X14113418Y-36970500D01*
X14179712Y-36960000D01*
X14307826Y-36939709D01*
X14307833Y-36939706D01*
X14307836Y-36939706D01*
X14495019Y-36878886D01*
X14495019Y-36878885D01*
X14495025Y-36878884D01*
X14670405Y-36789524D01*
X14829646Y-36673828D01*
X14968828Y-36534646D01*
X15084524Y-36375405D01*
X15173884Y-36200025D01*
X15234709Y-36012826D01*
X15265500Y-35818417D01*
X15265500Y-35621583D01*
X15234709Y-35427174D01*
X15234707Y-35427169D01*
X15234706Y-35427163D01*
X15173886Y-35239980D01*
X15173884Y-35239977D01*
X15173884Y-35239975D01*
X15084524Y-35064595D01*
X14968828Y-34905354D01*
X14829646Y-34766172D01*
X14829643Y-34766169D01*
X14829641Y-34766168D01*
X14670404Y-34650475D01*
X14495019Y-34561113D01*
X14307836Y-34500293D01*
X14307821Y-34500290D01*
X14302917Y-34499513D01*
X14254629Y-34469916D01*
X14240500Y-34426425D01*
X14240500Y-34114257D01*
X14262174Y-34061931D01*
X16661962Y-31662143D01*
X20373771Y-27950333D01*
X20426096Y-27928660D01*
X20445247Y-27931181D01*
X20460991Y-27935400D01*
X20579611Y-27935400D01*
X20579611Y-27935399D01*
X20694186Y-27904699D01*
X20796913Y-27845389D01*
X20880789Y-27761513D01*
X20940099Y-27658786D01*
X20970799Y-27544211D01*
X20970800Y-27544211D01*
X20970800Y-27425589D01*
X20970799Y-27425588D01*
X20940100Y-27311017D01*
X20940098Y-27311012D01*
X20880791Y-27208290D01*
X20880790Y-27208289D01*
X20880789Y-27208287D01*
X20796913Y-27124411D01*
X20796910Y-27124409D01*
X20796909Y-27124408D01*
X20694187Y-27065101D01*
X20694182Y-27065099D01*
X20579611Y-27034400D01*
X20579609Y-27034400D01*
X20460991Y-27034400D01*
X20460989Y-27034400D01*
X20346417Y-27065099D01*
X20346412Y-27065101D01*
X20243690Y-27124408D01*
X20159808Y-27208290D01*
X20100501Y-27311012D01*
X20100499Y-27311017D01*
X20069800Y-27425588D01*
X20069800Y-27544213D01*
X20074017Y-27559953D01*
X20066622Y-27616105D01*
X20054864Y-27631428D01*
X13887265Y-33799029D01*
X13823828Y-33862466D01*
X13816161Y-33880978D01*
X13816161Y-33880979D01*
X13789499Y-33945344D01*
X13789499Y-34043666D01*
X13789500Y-34043675D01*
X13789500Y-34426425D01*
X13767826Y-34478751D01*
X13727083Y-34499513D01*
X13722178Y-34500290D01*
X13722163Y-34500293D01*
X13534980Y-34561113D01*
X13359595Y-34650475D01*
X13200358Y-34766168D01*
X13061168Y-34905358D01*
X12945475Y-35064595D01*
X12856113Y-35239980D01*
X12795293Y-35427163D01*
X12795290Y-35427176D01*
X12764500Y-35621582D01*
X6171997Y-35621582D01*
X6181128Y-34649677D01*
X6203292Y-34597560D01*
X6218124Y-34586289D01*
X6236313Y-34575789D01*
X6320189Y-34491913D01*
X6379499Y-34389186D01*
X6410199Y-34274611D01*
X6410200Y-34274611D01*
X6410200Y-34155989D01*
X6410199Y-34155988D01*
X6379500Y-34041417D01*
X6379498Y-34041412D01*
X6320191Y-33938690D01*
X6320190Y-33938689D01*
X6320189Y-33938687D01*
X6236313Y-33854811D01*
X6236310Y-33854809D01*
X6236309Y-33854808D01*
X6133587Y-33795501D01*
X6133582Y-33795499D01*
X6019011Y-33764800D01*
X6019009Y-33764800D01*
X5900391Y-33764800D01*
X5900389Y-33764800D01*
X5785817Y-33795499D01*
X5785812Y-33795501D01*
X5683090Y-33854808D01*
X5599208Y-33938690D01*
X5539901Y-34041412D01*
X5539899Y-34041417D01*
X5509200Y-34155988D01*
X400000Y-34155988D01*
X400000Y-23075744D01*
X2373699Y-23075744D01*
X2373699Y-23174066D01*
X2373700Y-23174075D01*
X2373700Y-24252173D01*
X2373699Y-24252187D01*
X2373699Y-24347855D01*
X2378444Y-24359310D01*
X2378445Y-24359312D01*
X2408029Y-24430734D01*
X2408031Y-24430737D01*
X2481871Y-24504577D01*
X2481872Y-24504577D01*
X2746165Y-24768871D01*
X2767839Y-24821196D01*
X2765318Y-24840346D01*
X2761100Y-24856088D01*
X2761100Y-24974711D01*
X2791799Y-25089282D01*
X2791801Y-25089287D01*
X2851108Y-25192009D01*
X2851109Y-25192010D01*
X2851111Y-25192013D01*
X2934987Y-25275889D01*
X2934989Y-25275890D01*
X2934990Y-25275891D01*
X3026286Y-25328601D01*
X3037714Y-25335199D01*
X3037715Y-25335199D01*
X3037717Y-25335200D01*
X3056277Y-25340173D01*
X3152288Y-25365899D01*
X3152289Y-25365900D01*
X3152291Y-25365900D01*
X3270911Y-25365900D01*
X3270911Y-25365899D01*
X3385486Y-25335199D01*
X3488213Y-25275889D01*
X3572089Y-25192013D01*
X3631399Y-25089286D01*
X3662099Y-24974711D01*
X3662100Y-24974711D01*
X3662100Y-24856089D01*
X3662099Y-24856088D01*
X3631400Y-24741517D01*
X3631398Y-24741512D01*
X3572091Y-24638790D01*
X3572090Y-24638789D01*
X3572089Y-24638787D01*
X3488213Y-24554911D01*
X3488210Y-24554909D01*
X3488209Y-24554908D01*
X3385487Y-24495601D01*
X3385482Y-24495599D01*
X3270911Y-24464900D01*
X3270909Y-24464900D01*
X3152291Y-24464900D01*
X3136548Y-24469118D01*
X3080396Y-24461724D01*
X3065071Y-24449965D01*
X2846374Y-24231268D01*
X2824700Y-24178942D01*
X2824700Y-23244656D01*
X2846373Y-23192331D01*
X3073270Y-22965433D01*
X3125595Y-22943760D01*
X3144749Y-22946282D01*
X3160490Y-22950500D01*
X3232500Y-22950500D01*
X3284826Y-22972174D01*
X3306500Y-23024500D01*
X3306500Y-23062111D01*
X3337199Y-23176682D01*
X3337201Y-23176687D01*
X3396508Y-23279409D01*
X3396509Y-23279410D01*
X3396511Y-23279413D01*
X3480387Y-23363289D01*
X3480389Y-23363290D01*
X3480390Y-23363291D01*
X3581160Y-23421471D01*
X3583114Y-23422599D01*
X3583115Y-23422599D01*
X3583117Y-23422600D01*
X3640402Y-23437949D01*
X3697688Y-23453299D01*
X3697689Y-23453300D01*
X3697691Y-23453300D01*
X3816311Y-23453300D01*
X3816311Y-23453299D01*
X3930886Y-23422599D01*
X4033613Y-23363289D01*
X4117489Y-23279413D01*
X4176799Y-23176686D01*
X4207499Y-23062111D01*
X4207500Y-23062111D01*
X4207500Y-22943489D01*
X4207499Y-22943488D01*
X4176800Y-22828917D01*
X4176798Y-22828912D01*
X4117491Y-22726190D01*
X4117490Y-22726189D01*
X4117489Y-22726187D01*
X4033613Y-22642311D01*
X4019499Y-22634162D01*
X3985021Y-22589228D01*
X3982500Y-22570077D01*
X3982500Y-19554257D01*
X4004174Y-19501931D01*
X8332223Y-15173882D01*
X12765055Y-10741049D01*
X12817380Y-10719376D01*
X12869706Y-10741050D01*
X12888858Y-10774221D01*
X12898200Y-10809085D01*
X12898201Y-10809087D01*
X12957508Y-10911809D01*
X12957509Y-10911810D01*
X12957511Y-10911813D01*
X13041387Y-10995689D01*
X13055500Y-11003837D01*
X13089978Y-11048770D01*
X13092500Y-11067923D01*
X13092500Y-17772777D01*
X13070826Y-17825103D01*
X13055501Y-17836862D01*
X13041390Y-17845009D01*
X13041388Y-17845010D01*
X12957508Y-17928890D01*
X12898201Y-18031612D01*
X12898199Y-18031617D01*
X12867500Y-18146188D01*
X12867500Y-18264811D01*
X12898199Y-18379382D01*
X12898201Y-18379387D01*
X12957508Y-18482109D01*
X12957509Y-18482110D01*
X12957511Y-18482113D01*
X13041387Y-18565989D01*
X13041389Y-18565990D01*
X13041390Y-18565991D01*
X13110739Y-18606030D01*
X13144114Y-18625299D01*
X13144115Y-18625299D01*
X13144117Y-18625300D01*
X13162658Y-18630268D01*
X13258688Y-18655999D01*
X13258689Y-18656000D01*
X13258691Y-18656000D01*
X13377311Y-18656000D01*
X13377311Y-18655999D01*
X13491886Y-18625299D01*
X13594613Y-18565989D01*
X13678489Y-18482113D01*
X13737799Y-18379386D01*
X13768499Y-18264811D01*
X13768500Y-18264811D01*
X13768500Y-18146189D01*
X13768499Y-18146188D01*
X13737800Y-18031617D01*
X13737798Y-18031612D01*
X13678491Y-17928890D01*
X13678490Y-17928889D01*
X13678489Y-17928887D01*
X13594613Y-17845011D01*
X13580499Y-17836862D01*
X13546021Y-17791928D01*
X13543500Y-17772777D01*
X13543500Y-11067923D01*
X13565174Y-11015597D01*
X13580500Y-11003837D01*
X13594613Y-10995689D01*
X13678489Y-10911813D01*
X13737799Y-10809086D01*
X13768499Y-10694511D01*
X13768500Y-10694511D01*
X13768500Y-10575889D01*
X13768499Y-10575888D01*
X13737800Y-10461317D01*
X13737798Y-10461312D01*
X13678491Y-10358590D01*
X13678490Y-10358589D01*
X13678489Y-10358587D01*
X13594613Y-10274711D01*
X13594610Y-10274709D01*
X13594609Y-10274708D01*
X13491887Y-10215401D01*
X13491885Y-10215400D01*
X13457021Y-10206058D01*
X13412089Y-10171578D01*
X13404698Y-10115425D01*
X13423848Y-10082256D01*
X13933931Y-9572174D01*
X13986257Y-9550500D01*
X14723077Y-9550500D01*
X14775403Y-9572174D01*
X14787162Y-9587499D01*
X14795311Y-9601613D01*
X14879187Y-9685489D01*
X14879189Y-9685490D01*
X14879190Y-9685491D01*
X14913668Y-9705397D01*
X14981914Y-9744799D01*
X14981915Y-9744799D01*
X14981917Y-9744800D01*
X14985862Y-9745857D01*
X15096488Y-9775499D01*
X15096489Y-9775500D01*
X15096491Y-9775500D01*
X15215111Y-9775500D01*
X15215111Y-9775499D01*
X15329686Y-9744799D01*
X15432413Y-9685489D01*
X15516289Y-9601613D01*
X15575599Y-9498886D01*
X15606299Y-9384311D01*
X15606300Y-9384311D01*
X15606300Y-9265689D01*
X15606299Y-9265688D01*
X15575600Y-9151117D01*
X15575598Y-9151112D01*
X15516291Y-9048390D01*
X15516290Y-9048389D01*
X15516289Y-9048387D01*
X15432413Y-8964511D01*
X15432410Y-8964509D01*
X15432409Y-8964508D01*
X15329687Y-8905201D01*
X15329682Y-8905199D01*
X15215111Y-8874500D01*
X15215109Y-8874500D01*
X15096491Y-8874500D01*
X15096489Y-8874500D01*
X14981917Y-8905199D01*
X14981912Y-8905201D01*
X14879190Y-8964508D01*
X14795311Y-9048386D01*
X14787163Y-9062500D01*
X14742230Y-9096978D01*
X14723077Y-9099500D01*
X13915675Y-9099500D01*
X13915667Y-9099499D01*
X13907055Y-9099499D01*
X13817345Y-9099499D01*
X13758739Y-9123774D01*
X13758737Y-9123775D01*
X13758736Y-9123774D01*
X13734463Y-9133830D01*
X3571626Y-19296668D01*
X3519300Y-19318342D01*
X3466974Y-19296668D01*
X3445300Y-19244342D01*
X3445300Y-16523856D01*
X3466973Y-16471531D01*
X4530870Y-15407633D01*
X4583195Y-15385960D01*
X4602349Y-15388482D01*
X4618090Y-15392700D01*
X4618091Y-15392700D01*
X4736711Y-15392700D01*
X4736711Y-15392699D01*
X4851286Y-15361999D01*
X4954013Y-15302689D01*
X5037889Y-15218813D01*
X5097199Y-15116086D01*
X5127899Y-15001511D01*
X5127900Y-15001511D01*
X5127900Y-14882889D01*
X5127899Y-14882888D01*
X5097200Y-14768317D01*
X5097198Y-14768312D01*
X5037891Y-14665590D01*
X5037890Y-14665589D01*
X5037889Y-14665587D01*
X4954013Y-14581711D01*
X4954010Y-14581709D01*
X4954009Y-14581708D01*
X4851287Y-14522401D01*
X4851282Y-14522399D01*
X4736711Y-14491700D01*
X4736709Y-14491700D01*
X4618091Y-14491700D01*
X4618089Y-14491700D01*
X4503517Y-14522399D01*
X4503512Y-14522401D01*
X4400790Y-14581708D01*
X4316908Y-14665590D01*
X4257601Y-14768312D01*
X4257599Y-14768317D01*
X4226900Y-14882888D01*
X4226900Y-14882891D01*
X4226900Y-15001509D01*
X4226901Y-15001511D01*
X4231118Y-15017250D01*
X4223725Y-15073402D01*
X4211965Y-15088728D01*
X3092065Y-16208629D01*
X3028631Y-16272063D01*
X3028630Y-16272065D01*
X2994299Y-16354944D01*
X2994299Y-16453266D01*
X2994300Y-16453275D01*
X2994300Y-22067277D01*
X2972626Y-22119603D01*
X2957301Y-22131362D01*
X2943190Y-22139509D01*
X2943188Y-22139510D01*
X2859308Y-22223390D01*
X2800001Y-22326112D01*
X2799999Y-22326117D01*
X2769300Y-22440688D01*
X2769300Y-22440691D01*
X2769300Y-22559309D01*
X2773518Y-22575050D01*
X2766125Y-22631202D01*
X2754365Y-22646528D01*
X2471465Y-22929429D01*
X2408029Y-22992864D01*
X2407117Y-22995068D01*
X2373699Y-23075744D01*
X400000Y-23075744D01*
X400000Y-2401582D01*
X1249500Y-2401582D01*
X1249500Y-2598417D01*
X1280290Y-2792823D01*
X1280293Y-2792836D01*
X1341113Y-2980019D01*
X1430475Y-3155404D01*
X1528169Y-3289868D01*
X1546172Y-3314646D01*
X1685354Y-3453828D01*
X1844595Y-3569524D01*
X2019975Y-3658884D01*
X2019977Y-3658884D01*
X2019980Y-3658886D01*
X2207163Y-3719706D01*
X2207169Y-3719707D01*
X2207174Y-3719709D01*
X2336780Y-3740236D01*
X2401582Y-3750500D01*
X2401583Y-3750500D01*
X2598418Y-3750500D01*
X2654326Y-3741645D01*
X2792826Y-3719709D01*
X2792833Y-3719706D01*
X2792836Y-3719706D01*
X2980019Y-3658886D01*
X2980019Y-3658885D01*
X2980025Y-3658884D01*
X3155405Y-3569524D01*
X3314646Y-3453828D01*
X3388172Y-3380302D01*
X12280000Y-3380302D01*
X12280000Y-4200000D01*
X12878804Y-4200000D01*
X12870000Y-4232857D01*
X12870000Y-4367143D01*
X12878804Y-4400000D01*
X12280000Y-4400000D01*
X12280000Y-5219697D01*
X12291603Y-5278035D01*
X12335807Y-5344191D01*
X12335808Y-5344192D01*
X12401964Y-5388396D01*
X12460303Y-5400000D01*
X13280000Y-5400000D01*
X13280000Y-4801196D01*
X13312857Y-4810000D01*
X13447143Y-4810000D01*
X13480000Y-4801196D01*
X13480000Y-5400000D01*
X14299697Y-5400000D01*
X14358035Y-5388396D01*
X14424191Y-5344192D01*
X14424192Y-5344191D01*
X14468396Y-5278035D01*
X14480000Y-5219697D01*
X14480000Y-4400000D01*
X13881196Y-4400000D01*
X13890000Y-4367143D01*
X13890000Y-4232857D01*
X13881196Y-4200000D01*
X14480000Y-4200000D01*
X14480000Y-3380302D01*
X14468396Y-3321964D01*
X14424192Y-3255808D01*
X14424191Y-3255807D01*
X14358035Y-3211603D01*
X14299697Y-3200000D01*
X13480000Y-3200000D01*
X13480000Y-3798803D01*
X13447143Y-3790000D01*
X13312857Y-3790000D01*
X13280000Y-3798803D01*
X13280000Y-3200000D01*
X12460303Y-3200000D01*
X12401964Y-3211603D01*
X12335808Y-3255807D01*
X12335807Y-3255808D01*
X12291603Y-3321964D01*
X12280000Y-3380302D01*
X3388172Y-3380302D01*
X3453828Y-3314646D01*
X3569524Y-3155405D01*
X3658884Y-2980025D01*
X3719709Y-2792826D01*
X3750500Y-2598417D01*
X3750500Y-2401583D01*
X3750500Y-2401582D01*
X38249500Y-2401582D01*
X38249500Y-2598417D01*
X38280290Y-2792823D01*
X38280293Y-2792836D01*
X38341113Y-2980019D01*
X38430475Y-3155404D01*
X38528169Y-3289868D01*
X38546172Y-3314646D01*
X38685354Y-3453828D01*
X38844595Y-3569524D01*
X39019975Y-3658884D01*
X39019977Y-3658884D01*
X39019980Y-3658886D01*
X39207163Y-3719706D01*
X39207169Y-3719707D01*
X39207174Y-3719709D01*
X39336780Y-3740236D01*
X39401582Y-3750500D01*
X39401583Y-3750500D01*
X39598418Y-3750500D01*
X39654326Y-3741645D01*
X39792826Y-3719709D01*
X39792833Y-3719706D01*
X39792836Y-3719706D01*
X39980019Y-3658886D01*
X39980019Y-3658885D01*
X39980025Y-3658884D01*
X40155405Y-3569524D01*
X40314646Y-3453828D01*
X40453828Y-3314646D01*
X40569524Y-3155405D01*
X40658884Y-2980025D01*
X40719709Y-2792826D01*
X40750500Y-2598417D01*
X40750500Y-2401583D01*
X40719709Y-2207174D01*
X40719707Y-2207169D01*
X40719706Y-2207163D01*
X40658886Y-2019980D01*
X40658884Y-2019977D01*
X40658884Y-2019975D01*
X40569524Y-1844595D01*
X40453828Y-1685354D01*
X40314646Y-1546172D01*
X40314643Y-1546169D01*
X40314641Y-1546168D01*
X40155404Y-1430475D01*
X39980019Y-1341113D01*
X39792836Y-1280293D01*
X39792823Y-1280290D01*
X39598418Y-1249500D01*
X39598417Y-1249500D01*
X39401583Y-1249500D01*
X39401582Y-1249500D01*
X39207176Y-1280290D01*
X39207163Y-1280293D01*
X39019980Y-1341113D01*
X38844595Y-1430475D01*
X38685358Y-1546168D01*
X38546168Y-1685358D01*
X38430475Y-1844595D01*
X38341113Y-2019980D01*
X38280293Y-2207163D01*
X38280290Y-2207176D01*
X38249500Y-2401582D01*
X3750500Y-2401582D01*
X3719709Y-2207174D01*
X3719707Y-2207169D01*
X3719706Y-2207163D01*
X3658886Y-2019980D01*
X3658884Y-2019977D01*
X3658884Y-2019975D01*
X3569524Y-1844595D01*
X3453828Y-1685354D01*
X3314646Y-1546172D01*
X3314643Y-1546169D01*
X3314641Y-1546168D01*
X3155404Y-1430475D01*
X2980019Y-1341113D01*
X2792836Y-1280293D01*
X2792823Y-1280290D01*
X2598418Y-1249500D01*
X2598417Y-1249500D01*
X2401583Y-1249500D01*
X2401582Y-1249500D01*
X2207176Y-1280290D01*
X2207163Y-1280293D01*
X2019980Y-1341113D01*
X1844595Y-1430475D01*
X1685358Y-1546168D01*
X1546168Y-1685358D01*
X1430475Y-1844595D01*
X1341113Y-2019980D01*
X1280293Y-2207163D01*
X1280290Y-2207176D01*
X1249500Y-2401582D01*
X400000Y-2401582D01*
X400000Y-474000D01*
X421674Y-421674D01*
X474000Y-400000D01*
X41526000Y-400000D01*
X41578326Y-421674D01*
G37*
%TD.AperFunction*%
%TD*%
M02*
