M48
; DRILL file KiCad 10.0.6 date 2026-09-24T20:55:30
; FORMAT={-:-/ absolute / metric / decimal}
; #@! TF.CreationDate,2026-09-24T20:55:30-04:00
; #@! TF.GenerationSoftware,Kicad,Pcbnew,10.0.6
; #@! TF.FileFunction,Plated,1,2,PTH
FMAT,2
METRIC
; #@! TA.AperFunction,Plated,PTH,ViaDrill
T1C0.300
; #@! TA.AperFunction,Plated,PTH,ComponentDrill
T2C0.600
; #@! TA.AperFunction,Plated,PTH,ComponentDrill
T3C1.020
; #@! TA.AperFunction,Plated,PTH,ComponentDrill
T4C1.500
%
G90
G05
T1
X3.212Y-24.915
X3.22Y-22.5
X3.757Y-23.003
X4.677Y-14.942
X5.96Y-34.215
X7.84Y-46.84
X13.318Y-10.635
X13.318Y-18.206
X13.841Y-46.0
X14.859Y-48.8
X15.156Y-9.325
X15.325Y-16.25
X16.1Y-22.825
X16.1Y-25.925
X16.1Y-29.025
X16.248Y-42.352
X16.698Y-9.325
X16.698Y-18.95
X17.15Y-44.095
X17.194Y-45.842
X17.208Y-13.05
X19.977Y-15.809
X19.977Y-18.749
X20.52Y-27.485
X20.7Y-26.25
X20.989Y-37.494
X21.25Y-29.8
X21.35Y-11.075
X21.364Y-15.701
X21.99Y-28.73
X22.5Y-34.038
X22.751Y-24.75
X22.753Y-29.994
X22.948Y-21.642
X23.275Y-34.65
X23.35Y-10.9
X23.5Y-14.55
X23.613Y-29.85
X23.677Y-21.659
X24.033Y-42.796
X24.2Y-5.65
X24.714Y-32.876
X24.714Y-43.529
X24.998Y-25.748
X25.317Y-16.175
X25.67Y-11.698
X25.75Y-24.2
X25.754Y-32.337
X25.833Y-20.625
X26.0Y-12.4
X26.0Y-15.0
X26.161Y-34.161
X26.3Y-29.25
X26.837Y-23.568
X26.846Y-30.345
X26.884Y-13.786
X26.95Y-46.525
X27.0Y-51.45
X27.387Y-22.475
X27.571Y-23.661
X28.0Y-10.4
X28.0Y-13.6
X28.4Y-31.375
X28.653Y-23.778
X29.0Y-5.8
X29.0Y-9.1
X29.45Y-20.6
X29.977Y-19.434
X30.1Y-15.0
X30.427Y-9.151
X30.898Y-16.353
X31.8Y-24.3
X31.8Y-26.1
X31.8Y-27.0
X33.75Y-13.2
X34.072Y-21.485
X34.072Y-25.497
X34.213Y-28.716
X36.0Y-18.65
T3
X13.38Y-4.3
X15.92Y-4.3
X18.46Y-4.3
X21.0Y-4.3
X23.54Y-4.3
X26.08Y-4.3
X28.62Y-4.3
T4
X7.665Y-38.26
X14.015Y-35.72
X26.715Y-38.26
X33.065Y-35.72
T2
G00X36.345Y-22.68
M15
G01X35.245Y-22.68
M16
G05
G00X36.345Y-31.32
M15
G01X35.245Y-31.32
M16
G05
G00X40.375Y-22.68
M15
G01X39.575Y-22.68
M16
G05
G00X40.375Y-31.32
M15
G01X39.575Y-31.32
M16
G05
M30
