%TF.GenerationSoftware,KiCad,Pcbnew,10.0.6*%
%TF.CreationDate,2026-09-15T06:51:06-04:00*%
%TF.ProjectId,click-counter-Q2,636c6963-6b2d-4636-9f75-6e7465722d51,rev?*%
%TF.SameCoordinates,Original*%
%TF.FileFunction,Legend,Top*%
%TF.FilePolarity,Positive*%
%FSLAX46Y46*%
G04 Gerber Fmt 4.6, Leading zero omitted, Abs format (unit mm)*
G04 Created by KiCad (PCBNEW 10.0.6) date 2026-09-15 06:51:06*
%MOMM*%
%LPD*%
G01*
G04 APERTURE LIST*
G04 Aperture macros list*
%AMRoundRect*
0 Rectangle with rounded corners*
0 $1 Rounding radius*
0 $2 $3 $4 $5 $6 $7 $8 $9 X,Y pos of 4 corners*
0 Add a 4 corners polygon primitive as box body*
4,1,4,$2,$3,$4,$5,$6,$7,$8,$9,$2,$3,0*
0 Add four circle primitives for the rounded corners*
1,1,$1+$1,$2,$3*
1,1,$1+$1,$4,$5*
1,1,$1+$1,$6,$7*
1,1,$1+$1,$8,$9*
0 Add four rect primitives between the rounded corners*
20,1,$1+$1,$2,$3,$4,$5,0*
20,1,$1+$1,$4,$5,$6,$7,0*
20,1,$1+$1,$6,$7,$8,$9,0*
20,1,$1+$1,$8,$9,$2,$3,0*%
G04 Aperture macros list end*
%ADD10C,0.120000*%
%ADD11C,2.200000*%
%ADD12RoundRect,0.075000X0.075000X-0.662500X0.075000X0.662500X-0.075000X0.662500X-0.075000X-0.662500X0*%
%ADD13C,1.700000*%
%ADD14C,4.000000*%
%ADD15C,0.650000*%
%ADD16RoundRect,0.150000X0.425000X-0.150000X0.425000X0.150000X-0.425000X0.150000X-0.425000X-0.150000X0*%
%ADD17RoundRect,0.075000X0.500000X-0.075000X0.500000X0.075000X-0.500000X0.075000X-0.500000X-0.075000X0*%
%ADD18O,2.100000X1.000000*%
%ADD19O,1.800000X1.000000*%
%ADD20RoundRect,0.150000X0.625000X-0.150000X0.625000X0.150000X-0.625000X0.150000X-0.625000X-0.150000X0*%
%ADD21RoundRect,0.250000X0.650000X-0.350000X0.650000X0.350000X-0.650000X0.350000X-0.650000X-0.350000X0*%
G04 APERTURE END LIST*
D10*
X18285714Y-38661140D02*
X18238095Y-38708760D01*
X18238095Y-38708760D02*
X18095238Y-38756379D01*
X18095238Y-38756379D02*
X18000000Y-38756379D01*
X18000000Y-38756379D02*
X17857143Y-38708760D01*
X17857143Y-38708760D02*
X17761905Y-38613521D01*
X17761905Y-38613521D02*
X17714286Y-38518283D01*
X17714286Y-38518283D02*
X17666667Y-38327807D01*
X17666667Y-38327807D02*
X17666667Y-38184950D01*
X17666667Y-38184950D02*
X17714286Y-37994474D01*
X17714286Y-37994474D02*
X17761905Y-37899236D01*
X17761905Y-37899236D02*
X17857143Y-37803998D01*
X17857143Y-37803998D02*
X18000000Y-37756379D01*
X18000000Y-37756379D02*
X18095238Y-37756379D01*
X18095238Y-37756379D02*
X18238095Y-37803998D01*
X18238095Y-37803998D02*
X18285714Y-37851617D01*
X19190476Y-38756379D02*
X18714286Y-38756379D01*
X18714286Y-38756379D02*
X18714286Y-37756379D01*
X19523810Y-38756379D02*
X19523810Y-37756379D01*
X20571428Y-38661140D02*
X20523809Y-38708760D01*
X20523809Y-38708760D02*
X20380952Y-38756379D01*
X20380952Y-38756379D02*
X20285714Y-38756379D01*
X20285714Y-38756379D02*
X20142857Y-38708760D01*
X20142857Y-38708760D02*
X20047619Y-38613521D01*
X20047619Y-38613521D02*
X20000000Y-38518283D01*
X20000000Y-38518283D02*
X19952381Y-38327807D01*
X19952381Y-38327807D02*
X19952381Y-38184950D01*
X19952381Y-38184950D02*
X20000000Y-37994474D01*
X20000000Y-37994474D02*
X20047619Y-37899236D01*
X20047619Y-37899236D02*
X20142857Y-37803998D01*
X20142857Y-37803998D02*
X20285714Y-37756379D01*
X20285714Y-37756379D02*
X20380952Y-37756379D01*
X20380952Y-37756379D02*
X20523809Y-37803998D01*
X20523809Y-37803998D02*
X20571428Y-37851617D01*
X21000000Y-38756379D02*
X21000000Y-37756379D01*
X21571428Y-38756379D02*
X21142857Y-38184950D01*
X21571428Y-37756379D02*
X21000000Y-38327807D01*
X23428571Y-38851617D02*
X23333333Y-38803998D01*
X23333333Y-38803998D02*
X23238095Y-38708760D01*
X23238095Y-38708760D02*
X23095238Y-38565902D01*
X23095238Y-38565902D02*
X23000000Y-38518283D01*
X23000000Y-38518283D02*
X22904762Y-38518283D01*
X22952381Y-38756379D02*
X22857143Y-38708760D01*
X22857143Y-38708760D02*
X22761905Y-38613521D01*
X22761905Y-38613521D02*
X22714286Y-38423045D01*
X22714286Y-38423045D02*
X22714286Y-38089712D01*
X22714286Y-38089712D02*
X22761905Y-37899236D01*
X22761905Y-37899236D02*
X22857143Y-37803998D01*
X22857143Y-37803998D02*
X22952381Y-37756379D01*
X22952381Y-37756379D02*
X23142857Y-37756379D01*
X23142857Y-37756379D02*
X23238095Y-37803998D01*
X23238095Y-37803998D02*
X23333333Y-37899236D01*
X23333333Y-37899236D02*
X23380952Y-38089712D01*
X23380952Y-38089712D02*
X23380952Y-38423045D01*
X23380952Y-38423045D02*
X23333333Y-38613521D01*
X23333333Y-38613521D02*
X23238095Y-38708760D01*
X23238095Y-38708760D02*
X23142857Y-38756379D01*
X23142857Y-38756379D02*
X22952381Y-38756379D01*
X23761905Y-37851617D02*
X23809524Y-37803998D01*
X23809524Y-37803998D02*
X23904762Y-37756379D01*
X23904762Y-37756379D02*
X24142857Y-37756379D01*
X24142857Y-37756379D02*
X24238095Y-37803998D01*
X24238095Y-37803998D02*
X24285714Y-37851617D01*
X24285714Y-37851617D02*
X24333333Y-37946855D01*
X24333333Y-37946855D02*
X24333333Y-38042093D01*
X24333333Y-38042093D02*
X24285714Y-38184950D01*
X24285714Y-38184950D02*
X23714286Y-38756379D01*
X23714286Y-38756379D02*
X24333333Y-38756379D01*
%LPC*%
D11*
%TO.C,H2*%
X39500000Y-37500000D03*
%TD*%
D12*
%TO.C,U1*%
X15250000Y-12462500D03*
X15750000Y-12462500D03*
X16250000Y-12462500D03*
X16750000Y-12462500D03*
X17250000Y-12462500D03*
X17750000Y-12462500D03*
X18250000Y-12462500D03*
X18750000Y-12462500D03*
X19250000Y-12462500D03*
X19750000Y-12462500D03*
X20250000Y-12462500D03*
X20750000Y-12462500D03*
X21250000Y-12462500D03*
X21750000Y-12462500D03*
X22250000Y-12462500D03*
X22750000Y-12462500D03*
X23250000Y-12462500D03*
X23750000Y-12462500D03*
X24250000Y-12462500D03*
X24750000Y-12462500D03*
X25250000Y-12462500D03*
X25750000Y-12462500D03*
X26250000Y-12462500D03*
X26750000Y-12462500D03*
X26750000Y-5037500D03*
X26250000Y-5037500D03*
X25750000Y-5037500D03*
X25250000Y-5037500D03*
X24750000Y-5037500D03*
X24250000Y-5037500D03*
X23750000Y-5037500D03*
X23250000Y-5037500D03*
X22750000Y-5037500D03*
X22250000Y-5037500D03*
X21750000Y-5037500D03*
X21250000Y-5037500D03*
X20750000Y-5037500D03*
X20250000Y-5037500D03*
X19750000Y-5037500D03*
X19250000Y-5037500D03*
X18750000Y-5037500D03*
X18250000Y-5037500D03*
X17750000Y-5037500D03*
X17250000Y-5037500D03*
X16750000Y-5037500D03*
X16250000Y-5037500D03*
X15750000Y-5037500D03*
X15250000Y-5037500D03*
%TD*%
D13*
%TO.C,SW1*%
X6395000Y-28000000D03*
D14*
X11475000Y-28000000D03*
D13*
X16555000Y-28000000D03*
D11*
X14015000Y-22920000D03*
X7665000Y-25460000D03*
%TD*%
D15*
%TO.C,J1*%
X36295000Y-16190000D03*
X36295000Y-10410000D03*
D16*
X35220000Y-16500000D03*
X35220000Y-15700000D03*
D17*
X35220000Y-14550000D03*
X35220000Y-13550000D03*
X35220000Y-13050000D03*
X35220000Y-12050000D03*
D16*
X35220000Y-10900000D03*
X35220000Y-10100000D03*
X35220000Y-10100000D03*
X35220000Y-10900000D03*
D17*
X35220000Y-11550000D03*
X35220000Y-12550000D03*
X35220000Y-14050000D03*
X35220000Y-15050000D03*
D16*
X35220000Y-15700000D03*
X35220000Y-16500000D03*
D18*
X35795000Y-17620000D03*
D19*
X39975000Y-17620000D03*
D18*
X35795000Y-8980000D03*
D19*
X39975000Y-8980000D03*
%TD*%
D11*
%TO.C,DS1*%
X9570000Y-15250000D03*
X12110000Y-15250000D03*
X14650000Y-15250000D03*
X17190000Y-15250000D03*
X19730000Y-15250000D03*
X22270000Y-15250000D03*
X24810000Y-15250000D03*
X27350000Y-15250000D03*
X29890000Y-15250000D03*
X32430000Y-15250000D03*
X32430000Y-2250000D03*
X29890000Y-2250000D03*
X27350000Y-2250000D03*
X24810000Y-2250000D03*
X22270000Y-2250000D03*
X19730000Y-2250000D03*
X17190000Y-2250000D03*
X14650000Y-2250000D03*
X12110000Y-2250000D03*
X9570000Y-2250000D03*
%TD*%
%TO.C,H1*%
X2500000Y-37500000D03*
%TD*%
D20*
%TO.C,J2*%
X3000000Y-18300000D03*
X3000000Y-17300000D03*
X3000000Y-16300000D03*
X3000000Y-15300000D03*
D21*
X6875000Y-14000000D03*
X6875000Y-19600000D03*
%TD*%
D13*
%TO.C,SW2*%
X25445000Y-28000000D03*
D14*
X30525000Y-28000000D03*
D13*
X35605000Y-28000000D03*
D11*
X33065000Y-22920000D03*
X26715000Y-25460000D03*
%TD*%
%LPD*%
M02*
