M48
; DRILL file KiCad 10.0.6 date 2026-09-15T06:51:06
; FORMAT={-:-/ absolute / metric / decimal}
; #@! TF.CreationDate,2026-09-15T06:51:06-04:00
; #@! TF.GenerationSoftware,Kicad,Pcbnew,10.0.6
; #@! TF.FileFunction,Plated,1,4,PTH
FMAT,2
METRIC
; #@! TA.AperFunction,Plated,PTH,ViaDrill
T1C0.300
; #@! TA.AperFunction,Plated,PTH,ComponentDrill
T2C0.600
; #@! TA.AperFunction,Plated,PTH,ComponentDrill
T3C1.500
; #@! TA.AperFunction,Plated,PTH,ComponentDrill
T4C1.700
%
G90
G05
T1
X1.898Y-17.803
X3.312Y-10.8
X4.0Y-6.957
X4.115Y-17.797
X4.205Y-15.897
X4.643Y-15.3
X6.122Y-4.416
X6.193Y-33.631
X7.299Y-35.976
X7.775Y-2.085
X9.0Y-30.519
X9.94Y-19.43
X10.603Y-3.697
X10.675Y-19.418
X11.165Y-36.664
X12.853Y-30.847
X13.505Y-4.632
X13.581Y-8.16
X13.6Y-6.125
X13.666Y-6.898
X14.648Y-4.381
X14.729Y-27.873
X14.8Y-8.651
X14.923Y-17.798
X15.374Y-33.242
X15.709Y-9.694
X15.963Y-10.721
X16.203Y-8.035
X16.675Y-24.5
X16.675Y-30.55
X16.683Y-7.485
X16.799Y-13.63
X17.128Y-6.763
X17.159Y-32.541
X17.55Y-10.8
X17.679Y-7.312
X17.781Y-3.857
X18.0Y-36.308
X18.203Y-8.603
X18.371Y-24.541
X18.4Y-10.8
X18.45Y-14.15
X18.565Y-3.862
X18.925Y-19.427
X19.05Y-26.8
X19.25Y-10.8
X20.0Y-10.45
X20.062Y-24.696
X20.124Y-8.567
X20.75Y-10.55
X21.0Y-14.16
X21.0Y-36.319
X21.25Y-3.859
X21.84Y-32.54
X21.938Y-7.411
X21.938Y-27.764
X22.008Y-3.855
X22.01Y-6.525
X22.25Y-10.8
X22.307Y-8.501
X22.669Y-23.77
X23.55Y-14.15
X24.663Y-8.501
X24.715Y-6.313
X25.675Y-19.43
X26.25Y-9.025
X28.306Y-10.622
X29.23Y-6.352
X29.323Y-8.32
X30.724Y-16.592
X31.082Y-6.6
X31.093Y-7.346
X31.37Y-20.895
X31.703Y-5.651
X32.386Y-11.914
X32.575Y-10.087
X32.636Y-18.447
X32.9Y-5.15
X33.085Y-34.275
X34.0Y-31.839
X34.061Y-14.696
X35.063Y-19.75
X36.236Y-14.502
X36.5Y-35.189
X37.092Y-3.491
X38.763Y-7.346
X39.455Y-20.227
T3
X7.665Y-25.46
X14.015Y-22.92
X26.715Y-25.46
X33.065Y-22.92
T4
X9.57Y-2.25
X9.57Y-15.25
X12.11Y-2.25
X12.11Y-15.25
X14.65Y-2.25
X14.65Y-15.25
X17.19Y-2.25
X17.19Y-15.25
X19.73Y-2.25
X19.73Y-15.25
X22.27Y-2.25
X22.27Y-15.25
X24.81Y-2.25
X24.81Y-15.25
X27.35Y-2.25
X27.35Y-15.25
X29.89Y-2.25
X29.89Y-15.25
X32.43Y-2.25
X32.43Y-15.25
T2
G00X35.245Y-8.98
M15
G01X36.345Y-8.98
M16
G05
G00X35.245Y-17.62
M15
G01X36.345Y-17.62
M16
G05
G00X39.575Y-8.98
M15
G01X40.375Y-8.98
M16
G05
G00X39.575Y-17.62
M15
G01X40.375Y-17.62
M16
G05
M30
